<?xml version="1.0" standalone="no"?>
<!DOCTYPE svg PUBLIC "-//W3C//DTD SVG 1.1//EN" "http://www.w3.org/Graphics/SVG/1.1/DTD/svg11.dtd" >
<svg xmlns="http://www.w3.org/2000/svg" xmlns:xlink="http://www.w3.org/1999/xlink" version="1.1">
<metadata>
Created by FontForge 20170731 at Tue Apr 27 22:29:54 2021
 By Aleksey,,,
Copyright (c) 2010-2012 by The Entente (AS&#38;EH). All rights reserved.
</metadata>
<defs>
<font id="ApercuPro-Light" horiz-adv-x="1196" >
  <font-face 
    font-family="Apercu Pro Light"
    font-weight="300"
    font-stretch="normal"
    units-per-em="2048"
    panose-1="2 0 5 6 3 0 0 2 0 4"
    ascent="1638"
    descent="-410"
    x-height="1032"
    cap-height="1434"
    bbox="-152 -444 4938 2249"
    underline-thickness="102"
    underline-position="-307"
    unicode-range="U+000D-FB02"
  />
<missing-glyph horiz-adv-x="1267" 
d="M207 0v1434h854v-1434h-854zM930 1315h-592v-1196h592v1196z" />
    <glyph glyph-name="fi" unicode="fi" horiz-adv-x="1101" 
d="M102 913v119h164v33q0 179 116 282t286 103q133 0 225 -59l-27 -117q-99 57 -209 57q-118 0 -191 -68.5t-73 -177.5v-53h541v-1032h-127v913h-414v-913h-127v913h-164z" />
    <glyph glyph-name="fl" unicode="fl" horiz-adv-x="1189" 
d="M102 913v119h160v66q0 178 83 265t237 87h428v-1450h-127v1331h-312q-87 0 -134.5 -53.5t-47.5 -159.5v-86h250v-119h-250v-913h-127v913h-160z" />
    <glyph glyph-name=".notdef" horiz-adv-x="1267" 
d="M207 0v1434h854v-1434h-854zM930 1315h-592v-1196h592v1196z" />
    <glyph glyph-name=".null" horiz-adv-x="0" 
 />
    <glyph glyph-name=".null" horiz-adv-x="0" 
 />
    <glyph glyph-name="nonmarkingreturn" horiz-adv-x="682" 
 />
    <glyph glyph-name="CR" unicode="&#xd;" horiz-adv-x="516" 
 />
    <glyph glyph-name="space" unicode=" " horiz-adv-x="516" 
 />
    <glyph glyph-name="exclam" unicode="!" horiz-adv-x="665" 
d="M252 1434h172l-45 -1057h-82zM225 109q0 49 31.5 80.5t81.5 31.5t81.5 -31.5t31.5 -80.5t-31.5 -81t-81.5 -32t-81.5 32t-31.5 81z" />
    <glyph glyph-name="quotedbl" unicode="&#x22;" horiz-adv-x="856" 
d="M229 983l-43 467h183l-43 -467h-97zM530 983l-43 467h183l-43 -467h-97z" />
    <glyph glyph-name="numbersign" unicode="#" horiz-adv-x="1468" 
d="M240 885v110h274l88 439h115l-88 -439h325l90 439h115l-90 -439h242v-110h-264l-68 -336h250v-111h-275l-88 -438h-114l88 438h-326l-90 -438h-115l90 438h-241v111h264l67 336h-249zM604 885l-67 -336h327l68 336h-328z" />
    <glyph glyph-name="dollar" unicode="$" horiz-adv-x="1036" 
d="M856 1229l-111 -70q-48 91 -106.5 127.5t-130.5 36.5q-94 0 -146.5 -63.5t-52.5 -145.5q0 -56 21.5 -101t57.5 -76t83 -57.5t99 -50.5t103.5 -49.5t98.5 -60t83 -76t57.5 -103t21.5 -137.5q0 -173 -97 -285.5t-251 -133.5v-168h-123v168q-149 18 -246.5 122.5
t-130.5 264.5l117 69q16 -56 32.5 -100t43.5 -89t59.5 -74t80 -47.5t105.5 -18.5q120 0 194.5 74t74.5 214q0 57 -21 103.5t-57 79t-82.5 60.5t-97.5 53t-102.5 50.5t-98 58.5t-82.5 72.5t-57 96t-21 125.5q0 142 82.5 237.5t206.5 110.5v172h123v-174q54 -7 96 -26
t74 -50.5t53 -61.5t47 -77z" />
    <glyph glyph-name="percent" unicode="%" horiz-adv-x="1728" 
d="M127 1122q0 138 92 233t230 95t229.5 -95t91.5 -233t-91.5 -232.5t-229.5 -94.5t-230 94.5t-92 232.5zM238 1122q0 -94 57.5 -155.5t153.5 -61.5t153 61.5t57 155.5t-57 155.5t-153 61.5t-153.5 -61.5t-57.5 -155.5zM958 311q0 138 92 233t230 95t230 -95t92 -233
t-92 -232.5t-230 -94.5t-230 94.5t-92 232.5zM1069 311q0 -94 57.5 -155.5t153.5 -61.5t153.5 61.5t57.5 155.5t-57.5 155.5t-153.5 61.5t-153.5 -61.5t-57.5 -155.5zM1376 1483l86 -68l-1110 -1464l-86 67z" />
    <glyph glyph-name="ampersand" unicode="&#x26;" horiz-adv-x="1345" 
d="M580 -16q-188 0 -303 109.5t-115 303.5q0 84 25.5 158.5t69.5 128t90.5 91.5t98.5 65q-29 40 -44 62.5t-41 67.5t-38 88.5t-12 86.5q0 143 90.5 224t219.5 81q143 0 228 -79.5t85 -207.5q0 -51 -18 -99t-46 -84t-70 -71t-81 -59.5t-88 -50.5l334 -428q54 106 108 262
l88 -103q-58 -161 -117 -262l211 -268h-147l-133 168q-149 -184 -395 -184zM580 102q195 0 317 164l-377 482q-231 -126 -231 -355q0 -131 81 -211t210 -80zM621 1339q-84 0 -133.5 -53t-49.5 -149q0 -90 119 -246q129 64 189.5 123.5t60.5 138.5q0 80 -48.5 133t-137.5 53z
" />
    <glyph glyph-name="quotesingle" unicode="'" horiz-adv-x="555" 
d="M229 983l-43 467h183l-43 -467h-97z" />
    <glyph glyph-name="parenleft" unicode="(" horiz-adv-x="575" 
d="M369 1536h135q-217 -352 -217 -819t217 -819h-135q-224 365 -224 819t224 819z" />
    <glyph glyph-name="parenright" unicode=")" horiz-adv-x="575" 
d="M72 1536h135q223 -363 223 -819t-223 -819h-135q217 352 217 819t-217 819z" />
    <glyph glyph-name="asterisk" unicode="*" horiz-adv-x="1007" 
d="M561 1450v-299l285 94l37 -110l-285 -97l176 -237l-94 -70l-176 240l-176 -240l-95 70l177 237l-285 97l37 110l284 -94v299h115z" />
    <glyph glyph-name="plus" unicode="+" horiz-adv-x="1116" 
d="M981 705v-115h-363v-363h-114v363h-363v115h363v360h114v-360h363z" />
    <glyph glyph-name="comma" unicode="," horiz-adv-x="571" 
d="M135 -158l103 338h188l-197 -338h-94z" />
    <glyph glyph-name="hyphen" unicode="-" horiz-adv-x="964" 
d="M145 592v115h674v-115h-674z" />
    <glyph glyph-name="period" unicode="." horiz-adv-x="581" 
d="M186 100q0 45 30 75t75 30q44 0 74 -30.5t30 -74.5q0 -45 -29.5 -74.5t-74.5 -29.5q-46 0 -75.5 29t-29.5 75z" />
    <glyph glyph-name="slash" unicode="/" horiz-adv-x="1079" 
d="M928 1536h135l-893 -1638h-135z" />
    <glyph glyph-name="zero" unicode="0" horiz-adv-x="1261" 
d="M631 1450q241 0 367 -197.5t126 -535.5t-126 -535.5t-367 -197.5t-367.5 197.5t-126.5 535.5t126.5 535.5t367.5 197.5zM631 1335q-170 0 -266.5 -170.5t-96.5 -447.5t96.5 -448t266.5 -171q113 0 195.5 79.5t124.5 218.5t42 321q0 277 -96 447.5t-266 170.5z" />
    <glyph glyph-name="one" unicode="1" horiz-adv-x="708" 
d="M477 1434h33v-1434h-127v1217l-238 -150v156z" />
    <glyph glyph-name="two" unicode="2" horiz-adv-x="1165" 
d="M154 0v47l522 676q98 126 129 193t31 157q0 122 -68 192t-186 70q-110 0 -185 -80t-94 -208l-119 22q15 168 125 274.5t273 106.5q169 0 277 -100.5t108 -280.5q0 -96 -44 -186.5t-130 -200.5l-439 -567h647v-115h-847z" />
    <glyph glyph-name="three" unicode="3" horiz-adv-x="1173" 
d="M129 393l127 19q16 -142 96.5 -228t216.5 -86q156 0 239 91t83 249q0 165 -84.5 253.5t-237.5 88.5q-69 0 -127 -37l-61 80l371 496h-551v115h749v-35l-387 -514q18 6 53 6q79 0 151.5 -30.5t129.5 -86.5t91 -143t34 -193q0 -204 -122 -329t-331 -125q-178 0 -299 108
t-141 301z" />
    <glyph glyph-name="four" unicode="4" horiz-adv-x="1191" 
d="M754 0v330h-633v35l604 1069h156v-990h190v-114h-190v-330h-127zM301 444h453v809z" />
    <glyph glyph-name="five" unicode="5" horiz-adv-x="1153" 
d="M147 377l125 22q41 -301 295 -301q153 0 232.5 98.5t79.5 270.5q0 182 -81.5 275.5t-230.5 93.5q-94 0 -170 -54.5t-125 -138.5l-90 21l74 770h670v-115h-555l-52 -488q49 52 116.5 85.5t144.5 33.5q198 0 314 -129.5t116 -353.5q0 -216 -119.5 -349.5t-323.5 -133.5
q-170 0 -283 100t-137 293z" />
    <glyph glyph-name="six" unicode="6" horiz-adv-x="1175" 
d="M606 918q197 0 322 -134t125 -333t-125 -333t-322 -134t-321.5 134t-124.5 333q0 128 76 264l423 735h134l-320 -567q20 16 60 25.5t73 9.5zM606 803q-140 0 -227.5 -95.5t-87.5 -256.5q0 -154 88.5 -253.5t226.5 -99.5t227 99.5t89 253.5q0 161 -88 256.5t-228 95.5z
" />
    <glyph glyph-name="seven" unicode="7" horiz-adv-x="978" 
d="M348 0h-133l549 1319h-643v115h794v-41z" />
    <glyph glyph-name="eight" unicode="8" horiz-adv-x="1183" 
d="M592 1450q170 0 275.5 -104t105.5 -269q0 -106 -51 -184.5t-129 -120.5q99 -36 164 -138t65 -233q0 -132 -60.5 -228.5t-156.5 -142.5t-213 -46t-213 46t-156.5 142.5t-60.5 228.5q0 131 65 233t164 138q-78 42 -129 120.5t-51 184.5q0 165 105.5 269t275.5 104zM592 705
q-135 0 -217 -81.5t-82 -222.5t82 -222t217 -81q136 0 217.5 81t81.5 222t-82 222.5t-217 81.5zM592 1335q-115 0 -184.5 -70t-69.5 -188t69.5 -188t184.5 -70t184.5 70t69.5 188t-69.5 188t-184.5 70z" />
    <glyph glyph-name="nine" unicode="9" horiz-adv-x="1161" 
d="M592 516q-197 0 -322 134t-125 333t125 333t322 134t321.5 -134t124.5 -333q0 -129 -75 -264l-424 -735h-133l319 567q-20 -16 -60 -25.5t-73 -9.5zM592 631q140 0 227.5 95.5t87.5 256.5q0 154 -88.5 253t-226.5 99t-227 -99t-89 -253q0 -161 88 -256.5t228 -95.5z" />
    <glyph glyph-name="colon" unicode=":" horiz-adv-x="610" 
d="M201 100q0 45 29.5 75t74.5 30q44 0 74.5 -30.5t30.5 -74.5q0 -45 -30 -74.5t-75 -29.5q-46 0 -75 29t-29 75zM201 850q0 45 29.5 74.5t74.5 29.5q44 0 74.5 -30t30.5 -74q0 -45 -30 -75t-75 -30q-46 0 -75 29.5t-29 75.5z" />
    <glyph glyph-name="semicolon" unicode=";" horiz-adv-x="610" 
d="M201 850q0 45 29.5 74.5t74.5 29.5q44 0 74.5 -30t30.5 -74q0 -45 -30 -75t-75 -30q-46 0 -75 29.5t-29 75.5zM125 -158l102 338h189l-197 -338h-94z" />
    <glyph glyph-name="less" unicode="&#x3c;" horiz-adv-x="925" 
d="M115 565v140l684 368v-127l-580 -311l580 -311v-127z" />
    <glyph glyph-name="equal" unicode="=" horiz-adv-x="1210" 
d="M209 748v114h792v-114h-792zM209 408v114h792v-114h-792z" />
    <glyph glyph-name="greater" unicode="&#x3e;" horiz-adv-x="925" 
d="M811 705v-140l-684 -368v127l580 311l-580 311v127z" />
    <glyph glyph-name="question" unicode="?" horiz-adv-x="897" 
d="M723 618q-60 -215 -260 -215q-107 0 -180.5 63t-73.5 185q0 164 180 262l168 93q55 29 81 64t26 87q0 82 -52.5 128t-148.5 46q-179 0 -232 -209l-129 23q26 142 121.5 223.5t253.5 81.5q140 0 229 -80t89 -207q0 -80 -43 -141.5t-136 -112.5l-147 -80
q-72 -39 -102.5 -80t-30.5 -102q0 -58 32.5 -91.5t90.5 -33.5q62 0 100.5 31t61.5 104zM354 109q0 49 31.5 80.5t81.5 31.5t81.5 -31.5t31.5 -80.5t-32 -81t-81 -32t-81 32t-32 81z" />
    <glyph glyph-name="at" unicode="@" horiz-adv-x="1765" 
d="M1145 1042h110l-49 -542q-4 -46 -4 -47q0 -117 113 -117q102 0 155.5 105t53.5 280q0 301 -162 468t-459 167q-101 0 -197.5 -31t-181 -94t-148.5 -150t-101 -207t-37 -258q0 -163 51.5 -295.5t141 -219t210 -133t260.5 -46.5q136 0 251 31t253 110l45 -102
q-160 -86 -277.5 -120t-271.5 -34q-168 0 -313.5 55.5t-253 157t-169 255.5t-61.5 341q0 166 45 307.5t122 240.5t180 169t220 103.5t242 33.5q163 0 298.5 -48t235 -140.5t155 -236t55.5 -324.5q0 -128 -28 -226t-77.5 -156.5t-111 -88t-133.5 -29.5q-86 0 -144.5 47.5
t-77.5 112.5q-105 -160 -276 -160q-165 0 -255.5 105t-90.5 278q0 192 120 322.5t304 130.5q77 0 138.5 -34.5t90.5 -94.5zM872 942q-124 0 -199 -98.5t-75 -245.5q0 -128 60 -195t165 -67q123 0 196 102t73 242q0 121 -57.5 191.5t-162.5 70.5z" />
    <glyph glyph-name="A" unicode="A" 
d="M539 1434h118l519 -1434h-140l-143 408h-590l-143 -408h-140zM598 1249l-252 -714h504z" />
    <glyph glyph-name="B" unicode="B" horiz-adv-x="1261" 
d="M207 1434h461q189 0 294 -97.5t105 -271.5q0 -95 -53 -171.5t-127 -109.5q113 -40 183.5 -132.5t70.5 -237.5q0 -189 -119.5 -301.5t-321.5 -112.5h-493v1434zM342 700v-573h332q162 0 243.5 67t81.5 220t-81.5 219.5t-243.5 66.5h-332zM668 1307h-326v-480h326
q126 0 193 60t67 180t-67 180t-193 60z" />
    <glyph glyph-name="C" unicode="C" horiz-adv-x="1392" 
d="M1161 432l133 -39q-55 -190 -196 -299.5t-344 -109.5q-99 0 -190.5 28t-172.5 87t-140.5 144t-94.5 207t-35 267t35 267t95 207t141 144t172.5 87t189.5 28q202 0 343.5 -109.5t196.5 -300.5l-133 -39q-41 153 -143.5 237.5t-263.5 84.5q-221 0 -356.5 -159.5
t-135.5 -446.5t135.5 -446.5t356.5 -159.5q161 0 263.5 84t143.5 237z" />
    <glyph glyph-name="D" unicode="D" horiz-adv-x="1355" 
d="M207 1434h377q138 0 257 -49.5t206.5 -140t137.5 -226.5t50 -301t-50 -301t-137.5 -226.5t-206.5 -140t-257 -49.5h-377v1434zM586 1307h-244v-1180h244q102 0 191.5 35t161 104.5t113.5 185.5t42 265t-42 265t-113.5 185.5t-161 104.5t-191.5 35z" />
    <glyph glyph-name="E" unicode="E" horiz-adv-x="1163" 
d="M207 1434h809v-127h-674v-480h551v-127h-551v-573h694v-127h-829v1434z" />
    <glyph glyph-name="F" unicode="F" horiz-adv-x="1153" 
d="M207 1434h823v-127h-688v-496h565v-127h-565v-684h-135v1434z" />
    <glyph glyph-name="G" unicode="G" horiz-adv-x="1449" 
d="M1192 0l-16 221q-57 -110 -170.5 -173.5t-255.5 -63.5q-124 0 -235.5 47t-200 135.5t-141 231t-52.5 319.5t52.5 319.5t141 231t200 135.5t235.5 47q212 0 356 -111.5t197 -306.5l-134 -37q-48 157 -155 242.5t-264 85.5q-218 0 -353 -159.5t-135 -446.5t135 -446.5
t353 -159.5q204 0 313.5 124t112.5 361h-332v127h467v-723h-119z" />
    <glyph glyph-name="H" unicode="H" horiz-adv-x="1413" 
d="M1071 1434h135v-1434h-135v698h-729v-698h-135v1434h135v-609h729v609z" />
    <glyph glyph-name="I" unicode="I" horiz-adv-x="548" 
d="M342 1434v-1434h-135v1434h135z" />
    <glyph glyph-name="J" unicode="J" horiz-adv-x="1017" 
d="M705 406v1028h135v-1014q0 -104 -33.5 -188.5t-90 -137.5t-128.5 -81.5t-152 -28.5q-92 0 -166.5 30.5t-122.5 82.5t-76.5 116t-39.5 137l139 31q18 -127 84 -198.5t182 -71.5q120 0 194.5 74t74.5 221z" />
    <glyph glyph-name="K" unicode="K" horiz-adv-x="1157" 
d="M1124 0h-166l-616 760v-760h-135v1434h135v-613l559 613h172l-588 -643z" />
    <glyph glyph-name="L" unicode="L" horiz-adv-x="1054" 
d="M207 1434h135v-1307h672v-127h-807v1434z" />
    <glyph glyph-name="M" unicode="M" horiz-adv-x="1601" 
d="M207 1434h168l426 -1080l426 1080h168v-1434h-135v1171l-416 -1040h-86l-416 1040v-1171h-135v1434z" />
    <glyph glyph-name="N" unicode="N" horiz-adv-x="1419" 
d="M1077 1434h135v-1434h-159l-711 1214v-1214h-135v1434h160l710 -1219v1219z" />
    <glyph glyph-name="O" unicode="O" horiz-adv-x="1499" 
d="M750 1450q126 0 240 -51.5t200 -144t137 -232t51 -305.5t-51 -305.5t-137 -232t-200 -144t-240 -51.5t-240 51.5t-200.5 144t-137.5 232t-51 305.5t51 305.5t137.5 232t200.5 144t240 51.5zM750 1323q-102 0 -189.5 -39t-154.5 -113t-105.5 -191t-38.5 -263t38.5 -263
t105.5 -191t154.5 -113t189.5 -39t189.5 39t154.5 113t105 191t38 263t-38 263t-105 191t-154.5 113t-189.5 39z" />
    <glyph glyph-name="P" unicode="P" horiz-adv-x="1183" 
d="M694 643h-352v-643h-135v1434h487q193 0 303.5 -105.5t110.5 -290.5t-110.5 -290t-303.5 -105zM696 770q140 0 205.5 73t65.5 195q0 123 -65.5 196t-205.5 73h-354v-537h354z" />
    <glyph glyph-name="Q" unicode="Q" horiz-adv-x="1499" 
d="M750 1450q126 0 240 -51.5t200 -144t137 -232t51 -305.5q0 -305 -161 -506l137 -135l-92 -92l-136 135q-163 -135 -376 -135q-126 0 -240 51.5t-200.5 144t-137.5 232t-51 305.5t51 305.5t137.5 232t200.5 144t240 51.5zM885 360l92 93l147 -150q113 161 113 414
q0 146 -38 263t-105 191t-154.5 113t-189.5 39t-189.5 -39t-154.5 -113t-105.5 -191t-38.5 -263t38.5 -263t105.5 -191t154.5 -113t189.5 -39q164 0 286 96z" />
    <glyph glyph-name="R" unicode="R" horiz-adv-x="1302" 
d="M1059 0l-449 709h-268v-709h-135v1434h461q194 0 301.5 -91.5t107.5 -271.5q0 -156 -81.5 -245.5t-231.5 -110.5l446 -715h-151zM659 1307h-317v-471h317q140 0 210.5 57t70.5 178t-70.5 178.5t-210.5 57.5z" />
    <glyph glyph-name="S" unicode="S" horiz-adv-x="1036" 
d="M856 1229l-111 -70q-48 91 -106.5 127.5t-130.5 36.5q-94 0 -146.5 -63.5t-52.5 -145.5q0 -56 21.5 -101t57.5 -76t83 -57.5t99 -50.5t103.5 -49.5t98.5 -60t83 -76t57.5 -103t21.5 -137.5q0 -190 -116.5 -304.5t-293.5 -114.5q-174 0 -287.5 106.5t-150.5 280.5l117 69
q16 -56 32.5 -100t43.5 -89t59.5 -74t80 -47.5t105.5 -18.5q120 0 194.5 74t74.5 214q0 57 -21 103.5t-57 79t-82.5 60.5t-97.5 53t-102.5 50.5t-98 58.5t-82.5 72.5t-57 96t-21 125.5q0 156 97.5 254t236.5 98q61 0 110 -12t82.5 -30t64 -49t49 -59t42.5 -71z" />
    <glyph glyph-name="T" unicode="T" horiz-adv-x="1056" 
d="M33 1307v127h991v-127h-428v-1307h-135v1307h-428z" />
    <glyph glyph-name="U" unicode="U" horiz-adv-x="1339" 
d="M178 459v975h135v-988q0 -142 93 -238.5t264 -96.5t263.5 96t92.5 239v988h135v-975q0 -115 -40 -206.5t-108.5 -149.5t-156 -88.5t-186.5 -30.5q-79 0 -151 19t-134.5 58t-108.5 94.5t-72 133.5t-26 170z" />
    <glyph glyph-name="V" unicode="V" horiz-adv-x="1175" 
d="M1022 1434h139l-502 -1434h-143l-502 1434h140l434 -1241z" />
    <glyph glyph-name="W" unicode="W" horiz-adv-x="1841" 
d="M1636 1434h140l-394 -1434h-137l-325 1073l-324 -1073h-137l-393 1434h139l325 -1225l330 1073h121l330 -1073z" />
    <glyph glyph-name="X" unicode="X" horiz-adv-x="1159" 
d="M887 1434h141l-379 -643l467 -791h-141l-395 672l-396 -672h-141l467 791l-379 643h141l308 -523z" />
    <glyph glyph-name="Y" unicode="Y" horiz-adv-x="1024" 
d="M444 623l-432 811h158l342 -678l342 678h158l-432 -811v-623h-136v623z" />
    <glyph glyph-name="Z" unicode="Z" horiz-adv-x="1122" 
d="M123 1307v127h876v-66l-712 -1241h727v-127h-916v66l721 1241h-696z" />
    <glyph glyph-name="bracketleft" unicode="[" horiz-adv-x="659" 
d="M207 -102v1638h366v-115h-243v-1409h243v-114h-366z" />
    <glyph glyph-name="backslash" unicode="\" horiz-adv-x="1079" 
d="M16 1536h136l892 -1638h-135z" />
    <glyph glyph-name="bracketright" unicode="]" horiz-adv-x="659" 
d="M453 1536v-1638h-367v114h244v1409h-244v115h367z" />
    <glyph glyph-name="asciicircum" unicode="^" horiz-adv-x="1064" 
d="M483 1434h99l376 -555h-141l-285 436l-284 -436h-142z" />
    <glyph glyph-name="underscore" unicode="_" horiz-adv-x="972" 
d="M68 -115v115h837v-115h-837z" />
    <glyph glyph-name="grave" unicode="`" horiz-adv-x="428" 
d="M233 1434l144 -287h-101l-233 287h190z" />
    <glyph glyph-name="a" unicode="a" horiz-adv-x="1036" 
d="M250 297q0 -94 53.5 -144.5t147.5 -50.5q53 0 105.5 20t100.5 62t77.5 118t29.5 175v39h-168q-173 0 -259.5 -57.5t-86.5 -161.5zM891 684v-684h-96l-31 160q-46 -80 -127.5 -128t-198.5 -48q-67 0 -123 17.5t-101.5 53.5t-71 98t-25.5 144q0 168 126 253t349 85h172v45
q0 129 -64.5 189.5t-173.5 60.5q-99 0 -159 -53.5t-86 -139.5l-123 29q21 128 124.5 205.5t243.5 77.5q158 0 261.5 -97.5t103.5 -267.5z" />
    <glyph glyph-name="b" unicode="b" horiz-adv-x="1224" 
d="M197 1450h127v-563q56 72 148 117t177 45q146 0 252 -72.5t157.5 -191.5t51.5 -269t-51.5 -269t-157.5 -191t-252 -72q-99 0 -191.5 44.5t-133.5 106.5v-135h-127v1450zM977 516q0 180 -88 297t-246 117t-245 -117t-87 -297q0 -182 86.5 -298t245.5 -116t246.5 116
t87.5 298z" />
    <glyph glyph-name="c" unicode="c" horiz-adv-x="1081" 
d="M872 313l115 -45q-110 -284 -416 -284q-110 0 -198.5 45t-143.5 120t-84.5 169.5t-29.5 197.5t29.5 197.5t84.5 170t143.5 120.5t198.5 45q306 0 416 -285l-115 -45q-86 211 -301 211q-106 0 -181 -58t-108.5 -149.5t-33.5 -206.5t33.5 -206.5t108.5 -149.5t181 -58
q215 0 301 211z" />
    <glyph glyph-name="d" unicode="d" horiz-adv-x="1224" 
d="M901 1450h127v-1450h-127v135q-41 -62 -134 -106.5t-192 -44.5q-110 0 -198.5 41.5t-145 114t-86.5 168.5t-30 208q0 150 51 269t157 191.5t252 72.5q85 0 177.5 -45t148.5 -117v563zM248 516q0 -182 87.5 -298t246.5 -116t245 116t86 298q0 180 -86.5 297t-244.5 117
t-246 -117t-88 -297z" />
    <glyph glyph-name="e" unicode="e" horiz-adv-x="1130" 
d="M1026 573v-57h-778q0 -185 86.5 -299.5t238.5 -114.5q116 0 188 52t130 170l113 -56q-77 -154 -180.5 -219t-250.5 -65q-204 0 -331 150t-127 382t127 382.5t331 150.5q200 0 326.5 -131.5t126.5 -344.5zM573 930q-124 0 -207 -81.5t-110 -213.5h639q-19 137 -102 216
t-220 79z" />
    <glyph glyph-name="f" unicode="f" horiz-adv-x="735" 
d="M102 913v119h164v66q0 178 83 265t237 87q71 0 123 -27l-27 -116q-54 24 -107 24q-87 0 -134.5 -53.5t-47.5 -159.5v-86h250v-119h-250v-913h-127v913h-164z" />
    <glyph glyph-name="g" unicode="g" horiz-adv-x="1005" 
d="M186 702q0 154 100.5 250.5t250.5 96.5q94 0 178 -48l184 105l59 -109l-143 -79q72 -91 72 -216q0 -155 -99.5 -250.5t-250.5 -95.5q-110 0 -193 50q-84 -37 -84 -115q0 -52 35.5 -75t91.5 -23h266q141 0 225.5 -67.5t84.5 -203.5q0 -181 -116 -268.5t-308 -87.5
q-197 0 -311.5 90.5t-114.5 249.5q0 71 29.5 126.5t76.5 90.5q-82 50 -82 168q0 62 35 110t92 74q-78 95 -78 227zM639 82h-211q-54 0 -100 6q-92 -59 -92 -186q0 -103 76.5 -162t226.5 -59q146 0 223.5 62.5t77.5 162.5q0 176 -201 176zM313 702q0 -108 65 -171.5
t159 -63.5t158.5 63.5t64.5 171.5t-65 172t-158 64q-94 0 -159 -64t-65 -172z" />
    <glyph glyph-name="h" unicode="h" horiz-adv-x="1198" 
d="M1014 709v-709h-127v692q0 114 -55 176t-160 62q-145 0 -246.5 -136t-101.5 -354v-440h-127v1450h127v-643q51 118 153 180t215 62q153 0 237.5 -89t84.5 -251z" />
    <glyph glyph-name="i" unicode="i" horiz-adv-x="573" 
d="M184 1329q0 44 30.5 74.5t74.5 30.5t74 -30.5t30 -74.5t-30 -74t-74 -30t-74.5 30t-30.5 74zM225 1032h127v-1032h-127v1032z" />
    <glyph glyph-name="j" unicode="j" horiz-adv-x="573" 
d="M225 1032h127v-1163q0 -261 -256 -303l-28 119q85 24 121 67.5t36 134.5v1145zM184 1329q0 44 30.5 74.5t74.5 30.5t74 -30.5t30 -74.5t-30 -74t-74 -30t-74.5 30t-30.5 74z" />
    <glyph glyph-name="k" unicode="k" horiz-adv-x="987" 
d="M197 1450h127v-875l432 457h159l-446 -473l483 -559h-161l-467 543v-543h-127v1450z" />
    <glyph glyph-name="l" unicode="l" horiz-adv-x="499" 
d="M193 1450h126v-1450h-126v1450z" />
    <glyph glyph-name="m" unicode="m" horiz-adv-x="1744" 
d="M1561 709v-709h-127v692q0 122 -41 180t-144 58q-130 0 -218.5 -131.5t-88.5 -345.5v-453h-127v692q0 122 -40.5 180t-143.5 58q-130 0 -218.5 -131.5t-88.5 -345.5v-453h-127v1032h127v-215q49 106 134 169t193 63q232 0 281 -230q53 101 144 165.5t194 64.5
q150 0 220.5 -84.5t70.5 -255.5z" />
    <glyph glyph-name="n" unicode="n" horiz-adv-x="1112" 
d="M928 709v-709h-127v692q0 115 -53 176.5t-158 61.5q-144 0 -239 -131t-95 -346v-453h-127v1032h127v-215q54 104 149 168t205 64q148 0 233 -89.5t85 -250.5z" />
    <glyph glyph-name="o" unicode="o" 
d="M115 516q0 102 33.5 197.5t94.5 170.5t153.5 120t201.5 45t201.5 -45t153.5 -120t94.5 -170.5t33.5 -197.5t-33.5 -197t-94.5 -170t-153.5 -120t-201.5 -45t-201.5 45t-153.5 120t-94.5 170t-33.5 197zM248 516q0 -79 22.5 -152t65 -132t110.5 -94.5t152 -35.5t152 35.5
t110.5 94.5t65 132t22.5 152t-22.5 152t-65 132t-110.5 94.5t-152 35.5t-152 -35.5t-110.5 -94.5t-65 -132t-22.5 -152z" />
    <glyph glyph-name="p" unicode="p" horiz-adv-x="1224" 
d="M324 -418h-127v1450h127v-135q41 62 134 107t191 45q146 0 252 -72.5t157.5 -191.5t51.5 -269t-51.5 -269t-157.5 -191t-252 -72q-85 0 -177 44.5t-148 116.5v-563zM977 516q0 182 -87.5 298t-246.5 116t-245.5 -116t-86.5 -298q0 -180 87 -297t245 -117t246 117t88 297z
" />
    <glyph glyph-name="q" unicode="q" horiz-adv-x="1224" 
d="M1028 -418h-127v563q-56 -72 -148.5 -116.5t-177.5 -44.5q-110 0 -198.5 41.5t-145 114t-86.5 168.5t-30 208q0 150 51 269t157 191.5t252 72.5q98 0 191.5 -45t134.5 -107v135h127v-1450zM248 516q0 -180 88 -297t246 -117t244.5 117t86.5 297q0 182 -86 298t-245 116
t-246.5 -116t-87.5 -298z" />
    <glyph glyph-name="r" unicode="r" horiz-adv-x="817" 
d="M782 1014l-28 -121q-67 37 -146 37q-124 0 -204 -138.5t-80 -392.5v-399h-127v1032h127v-184q97 201 303 201q66 0 155 -35z" />
    <glyph glyph-name="s" unicode="s" horiz-adv-x="921" 
d="M471 1049q173 0 287 -160l-90 -78q-48 63 -95 91t-108 28q-67 0 -109.5 -43t-42.5 -113q0 -37 21 -67.5t55.5 -51.5t78.5 -42t90 -38.5t90 -43.5t78.5 -54.5t55.5 -72.5t21 -97q0 -149 -86 -236t-234 -87q-79 0 -144 24.5t-109.5 66.5t-73.5 89.5t-45 101.5l112 60
q39 -108 97 -166t163 -58q90 0 138.5 49.5t48.5 135.5q0 48 -27 84t-70 59.5t-95 44t-104 45t-95 55.5t-70 81t-27 116q0 123 82 200t207 77z" />
    <glyph glyph-name="t" unicode="t" horiz-adv-x="759" 
d="M55 913v119h183v334l127 84v-418h278v-119h-278v-641q0 -85 39 -127.5t108 -42.5q78 0 129 33l35 -115q-65 -36 -180 -36q-119 0 -188.5 76.5t-69.5 232.5v620h-183z" />
    <glyph glyph-name="u" unicode="u" horiz-adv-x="1179" 
d="M184 324v708h127v-692q0 -115 53 -176.5t158 -61.5q144 0 239 131t95 347v452h127v-1032h-127v215q-54 -104 -149 -167.5t-205 -63.5q-148 0 -233 89.5t-85 250.5z" />
    <glyph glyph-name="v" unicode="v" horiz-adv-x="917" 
d="M743 1032h134l-349 -1032h-139l-348 1032h133l285 -862z" />
    <glyph glyph-name="w" unicode="w" horiz-adv-x="1470" 
d="M1257 1032h134l-310 -1032h-131l-215 844l-215 -844h-131l-309 1032h133l242 -852l217 852h127l217 -852z" />
    <glyph glyph-name="x" unicode="x" horiz-adv-x="913" 
d="M96 1032h142l219 -356l219 356h141l-291 -469l348 -563h-133l-284 451l-285 -451h-133l348 563z" />
    <glyph glyph-name="y" unicode="y" horiz-adv-x="925" 
d="M762 1032h133l-512 -1450h-127l150 424l-371 1026h133l307 -835z" />
    <glyph glyph-name="z" unicode="z" horiz-adv-x="933" 
d="M139 913v119h670v-69l-520 -844h542v-119h-716v61l526 852h-502z" />
    <glyph glyph-name="braceleft" unicode="{" horiz-adv-x="649" 
d="M295 485q0 93 -37.5 133.5t-124.5 40.5v115q87 0 124.5 40.5t37.5 133.5v375q0 98 53 155.5t139 57.5h95v-115h-62q-54 0 -78 -24t-24 -78v-404q0 -88 -32 -131t-97 -67q65 -24 97 -67.5t32 -131.5v-403q0 -54 24 -78.5t78 -24.5h62v-114h-95q-86 0 -139 57.5t-53 155.5
v374z" />
    <glyph glyph-name="bar" unicode="|" horiz-adv-x="536" 
d="M207 1536h123v-1638h-123v1638z" />
    <glyph glyph-name="braceright" unicode="}" horiz-adv-x="649" 
d="M354 485v-374q0 -98 -53 -155.5t-139 -57.5h-94v114h61q54 0 78 24.5t24 78.5v403q0 88 32 131.5t97 67.5q-65 24 -97 67t-32 131v404q0 54 -24 78t-78 24h-61v115h94q86 0 139 -57.5t53 -155.5v-375q0 -93 37.5 -133.5t124.5 -40.5v-115q-87 0 -124.5 -40.5
t-37.5 -133.5z" />
    <glyph glyph-name="asciitilde" unicode="~" horiz-adv-x="1232" 
d="M256 575l-82 80q50 70 115.5 115t134.5 45q53 0 103.5 -17t83.5 -38t82 -38t100 -17q108 0 184 92l82 -80q-50 -70 -115.5 -115t-134.5 -45q-53 0 -103.5 17.5t-83.5 38t-82 38t-100 17.5q-107 0 -184 -93z" />
    <glyph glyph-name="nbspace" unicode="&#xa0;" horiz-adv-x="516" 
 />
    <glyph glyph-name="exclamdown" unicode="&#xa1;" horiz-adv-x="665" 
d="M414 -422h-172l45 1057h82zM215 903q0 49 31.5 81t81.5 32q49 0 80.5 -31.5t31.5 -81.5q0 -49 -31 -80.5t-81 -31.5t-81.5 31.5t-31.5 80.5z" />
    <glyph glyph-name="cent" unicode="&#xa2;" horiz-adv-x="1122" 
d="M883 514l114 -45q-96 -253 -350 -283v-288h-123v288q-128 15 -220.5 95t-135.5 192.5t-43 243.5q0 96 25.5 185t73.5 162.5t125.5 122.5t174.5 60v289h123v-289q253 -27 350 -282l-114 -45q-42 104 -115 157t-186 53q-106 0 -181 -57.5t-109 -149t-34 -206.5
q0 -85 20 -159t59 -131.5t102 -90.5t143 -33q215 0 301 211z" />
    <glyph glyph-name="sterling" unicode="&#xa3;" horiz-adv-x="1085" 
d="M125 686v119h129q-51 132 -51 233q0 192 103.5 302t273.5 110q134 0 230.5 -76.5t147.5 -212.5l-112 -51q-50 113 -111 167t-155 54q-111 0 -178.5 -77t-67.5 -218q0 -92 47 -231h336v-119h-299q20 -82 20 -160q0 -99 -48 -208.5t-116 -170.5q82 46 175 46
q45 0 87.5 -15.5t70.5 -34t61.5 -34t62.5 -15.5q68 0 109 35t98 137l96 -55q-66 -125 -133 -176t-166 -51q-52 0 -97 14.5t-73 32.5t-66.5 32.5t-78.5 14.5q-67 0 -113.5 -22.5t-107.5 -71.5l-101 112q117 113 171.5 216.5t54.5 217.5q0 73 -27 156h-172z" />
    <glyph glyph-name="currency" unicode="&#xa4;" horiz-adv-x="1118" 
d="M59 242l179 137q-78 111 -78 250t78 250l-179 137l113 112l135 -174q109 88 252 88t252 -88l135 174l113 -112l-178 -137q77 -110 77 -250t-77 -250l178 -137l-113 -113l-135 174q-109 -88 -252 -88t-252 88l-135 -174zM274 629q0 -134 78.5 -218.5t206.5 -84.5
t206.5 84.5t78.5 218.5t-78.5 218.5t-206.5 84.5t-206.5 -84.5t-78.5 -218.5z" />
    <glyph glyph-name="yen" unicode="&#xa5;" horiz-adv-x="1024" 
d="M27 1434h157l328 -674l328 674h157l-358 -697h270v-114h-329v-179h329v-114h-329v-330h-136v330h-329v114h329v179h-329v114h270z" />
    <glyph glyph-name="brokenbar" unicode="&#xa6;" horiz-adv-x="536" 
d="M207 612h123v-714h-123v714zM330 821h-123v715h123v-715z" />
    <glyph glyph-name="section" unicode="&#xa7;" horiz-adv-x="1095" 
d="M963 434q0 -159 -166 -264q100 -100 100 -233q0 -173 -101.5 -272t-244.5 -99q-147 0 -241.5 76t-129.5 223l115 39q30 -100 93.5 -159.5t162.5 -59.5q94 0 154.5 64t60.5 183q0 42 -16.5 77.5t-40.5 60.5t-68.5 53t-83 47.5t-102.5 52t-109 58.5q-108 61 -157.5 127.5
t-49.5 173.5q0 159 166 264q-100 100 -100 233q0 173 101.5 272t244.5 99q147 0 241.5 -76t129.5 -223l-115 -39q-30 100 -93.5 159.5t-162.5 59.5q-94 0 -154.5 -64t-60.5 -184q0 -42 16.5 -77t40.5 -60.5t68.5 -53.5t83 -47.5t102 -51.5t109.5 -58q108 -61 157.5 -127.5
t49.5 -173.5zM694 248q146 70 146 188q0 24 -6.5 45.5t-22 42t-31 37.5t-44.5 36.5t-51.5 33t-62 33.5t-65.5 33t-73.5 35t-75.5 36q-146 -70 -146 -188q0 -24 6.5 -45.5t22 -42t31 -37.5t44.5 -36.5t51.5 -33t62 -33.5t65.5 -33t73.5 -35t75.5 -36z" />
    <glyph glyph-name="dieresis" unicode="&#xa8;" horiz-adv-x="602" 
d="M43 1331q0 43 29 73t71 30q43 0 72 -30t29 -73q0 -41 -29 -69.5t-72 -28.5t-71.5 28.5t-28.5 69.5zM358 1331q0 42 29.5 72.5t69.5 30.5q43 0 72.5 -30t29.5 -73q0 -41 -29.5 -69.5t-72.5 -28.5q-40 0 -69.5 28.5t-29.5 69.5z" />
    <glyph glyph-name="copyright" unicode="&#xa9;" horiz-adv-x="1847" 
d="M154 717q0 225 98.5 407.5t275.5 287t396 104.5t396 -104.5t275.5 -287t98.5 -407.5t-98.5 -407.5t-275.5 -287t-396 -104.5t-396 104.5t-275.5 287t-98.5 407.5zM281 717q0 -188 79 -340.5t227 -242t337 -89.5t337 89.5t227 242t79 340.5t-79 340.5t-227 242t-337 89.5
t-337 -89.5t-227 -242t-79 -340.5zM1157 573l109 -28q-32 -129 -124 -200t-218 -71q-54 0 -108 15t-107 50t-94 85t-66 126t-25 167t25 167t66 126t94 84.5t107 49.5t108 15q127 0 218.5 -71t123.5 -199l-109 -29q-31 94 -85.5 141.5t-147.5 47.5q-123 0 -201 -85t-78 -247
t78 -247t201 -85q93 0 147.5 47t85.5 141z" />
    <glyph glyph-name="ordfeminine" unicode="&#xaa;" horiz-adv-x="880" 
d="M743 1155v-541h-75l-21 129q-36 -62 -102 -99.5t-158 -37.5q-108 0 -180 63t-72 183q0 132 99 199t274 67h135v35q0 190 -186 190q-146 0 -191 -147l-98 25q21 105 99.5 163t189.5 58q132 0 209 -69t77 -218zM250 852q0 -73 39.5 -110t107.5 -37q42 0 82.5 15t78.5 46.5
t61.5 90t23.5 136.5v31h-131q-134 0 -198 -46.5t-64 -125.5z" />
    <glyph glyph-name="guillemotleft" unicode="&#xab;" horiz-adv-x="1236" 
d="M102 592v86l539 399v-139l-405 -303l405 -303v-139zM575 592v86l539 399v-139l-405 -303l405 -303v-139z" />
    <glyph glyph-name="logicalnot" unicode="&#xac;" horiz-adv-x="1173" 
d="M143 659v119h867v-487h-131v368h-736z" />
    <glyph glyph-name="registered" unicode="&#xae;" horiz-adv-x="1847" 
d="M154 717q0 225 98.5 407.5t275.5 287t396 104.5t396 -104.5t275.5 -287t98.5 -407.5t-98.5 -407.5t-275.5 -287t-396 -104.5t-396 104.5t-275.5 287t-98.5 407.5zM281 717q0 -188 79 -340.5t227 -242t337 -89.5t337 89.5t227 242t79 340.5t-79 340.5t-227 242t-337 89.5
t-337 -89.5t-227 -242t-79 -340.5zM1149 281l-258 372h-125v-372h-121v872h295q126 0 199 -69t73 -181q0 -93 -55 -158t-141 -83l260 -381h-127zM940 1042h-174v-278h174q74 0 113 36.5t39 102.5q0 67 -39 103t-113 36z" />
    <glyph glyph-name="macron" unicode="&#xaf;" horiz-adv-x="555" 
d="M31 1319v115h493v-115h-493z" />
    <glyph glyph-name="degree" unicode="&#xb0;" horiz-adv-x="720" 
d="M137 1214q0 99 62 163.5t161 64.5t161.5 -64.5t62.5 -163.5t-62.5 -163t-161.5 -64t-161 64t-62 163zM236 1214q0 -57 34.5 -93t89.5 -36t90 36t35 93t-35 93t-90 36t-89.5 -36t-34.5 -93z" />
    <glyph glyph-name="plusminus" unicode="&#xb1;" horiz-adv-x="1107" 
d="M975 872v-114h-363v-363h-114v363h-363v114h363v361h114v-361h363zM135 0v115h840v-115h-840z" />
    <glyph glyph-name="twosuperior" unicode="&#xb2;" horiz-adv-x="780" 
d="M133 614v39l301 375q46 57 64 97.5t18 86.5q0 60 -32.5 93.5t-94.5 33.5q-56 0 -89.5 -42.5t-41.5 -112.5l-111 28q9 99 75.5 164.5t166.5 65.5q110 0 174 -64t64 -166q0 -112 -80 -215l-228 -280h328v-103h-514z" />
    <glyph glyph-name="threesuperior" unicode="&#xb3;" horiz-adv-x="788" 
d="M133 846l111 16q8 -72 47 -114.5t106 -42.5q73 0 110.5 48t37.5 124q0 75 -37 120t-111 45q-39 0 -71 -20l-54 72l183 241h-277v99h436v-35l-204 -277q12 4 36 4q91 0 150 -67t59 -182q0 -114 -66.5 -192.5t-191.5 -78.5q-108 0 -181 64t-83 176z" />
    <glyph glyph-name="acute" unicode="&#xb4;" horiz-adv-x="428" 
d="M51 1147l144 287h190l-233 -287h-101z" />
    <glyph glyph-name="mu" unicode="&#xb5;" horiz-adv-x="1179" 
d="M184 -418v1450h127v-692q0 -115 53 -176.5t158 -61.5q144 0 239 131t95 347v452h127v-1032h-127v215q-54 -104 -149 -167.5t-205 -63.5q-114 0 -191 53v-455h-127z" />
    <glyph glyph-name="paragraph" unicode="&#xb6;" horiz-adv-x="1333" 
d="M125 1079q0 148 103 251.5t251 103.5h715v-127h-119v-1725h-135v1725h-326v-1725h-135v1143q-148 0 -251 103t-103 251z" />
    <glyph glyph-name="periodcentered" unicode="&#xb7;" horiz-adv-x="581" 
d="M186 715q0 45 30 74.5t75 29.5q44 0 74 -30t30 -74q0 -45 -29.5 -75t-74.5 -30q-46 0 -75.5 29.5t-29.5 75.5z" />
    <glyph glyph-name="cedilla" unicode="&#xb8;" horiz-adv-x="358" 
d="M336 -123l-166 -315l-147 63l200 252h113z" />
    <glyph glyph-name="onesuperior" unicode="&#xb9;" horiz-adv-x="581" 
d="M367 1434h32v-820h-102v668l-174 -84v115z" />
    <glyph glyph-name="ordmasculine" unicode="&#xba;" horiz-adv-x="1048" 
d="M145 1024q0 107 44.5 201.5t133 155.5t201.5 61t201.5 -61t133 -155.5t44.5 -201.5t-44.5 -201.5t-133 -155.5t-201.5 -61t-201.5 61t-133 155.5t-44.5 201.5zM256 1024q0 -84 28.5 -155t91 -117.5t148.5 -46.5t148.5 46.5t91.5 117.5t29 155t-29 155t-91.5 117.5
t-148.5 46.5t-148.5 -46.5t-91 -117.5t-28.5 -155z" />
    <glyph glyph-name="guillemotright" unicode="&#xbb;" horiz-adv-x="1236" 
d="M1135 678v-86l-539 -399v139l405 303l-405 303v139zM662 678v-86l-539 -399v139l405 303l-405 303v139z" />
    <glyph glyph-name="onequarter" unicode="&#xbc;" horiz-adv-x="1617" 
d="M1305 1483l86 -68l-1110 -1464l-86 67zM408 1434h32v-820h-102v668l-174 -84v115zM1227 0v170h-350v35l331 614h121v-551h107v-98h-107v-170h-102zM1018 268h209v400z" />
    <glyph glyph-name="onehalf" unicode="&#xbd;" horiz-adv-x="1755" 
d="M1305 1483l86 -68l-1110 -1464l-86 67zM408 1434h32v-820h-102v668l-174 -84v115zM1028 0v39l301 375q46 57 64 97.5t18 86.5q0 60 -32.5 93.5t-94.5 33.5q-56 0 -89.5 -43t-41.5 -113l-111 29q9 99 75 164t167 65q110 0 174 -63.5t64 -165.5q0 -112 -80 -215l-228 -281
h328v-102h-514z" />
    <glyph glyph-name="threequarters" unicode="&#xbe;" horiz-adv-x="1720" 
d="M1452 1483l86 -68l-1110 -1464l-86 67zM133 846l111 16q8 -72 47 -114.5t106 -42.5q73 0 110.5 48t37.5 124q0 75 -37 120t-111 45q-39 0 -71 -20l-54 72l183 241h-277v99h436v-35l-204 -277q12 4 36 4q91 0 150 -67t59 -182q0 -114 -66.5 -192.5t-191.5 -78.5
q-108 0 -181 64t-83 176zM1319 0v170h-350v35l331 614h121v-551h107v-98h-107v-170h-102zM1110 268h209v400z" />
    <glyph glyph-name="questiondown" unicode="&#xbf;" horiz-adv-x="897" 
d="M174 393q60 215 260 215q107 0 180.5 -63t73.5 -185q0 -164 -180 -262l-168 -92q-55 -29 -81 -64t-26 -87q0 -82 52.5 -128t148.5 -46q180 0 232 208l129 -22q-26 -142 -121.5 -223.5t-253.5 -81.5q-140 0 -229 79.5t-89 206.5q0 80 43 141.5t136 112.5l147 80
q71 39 102 80.5t31 102.5q0 57 -32.5 90.5t-90.5 33.5q-62 0 -100.5 -31t-61.5 -104zM543 903q0 -49 -31.5 -80.5t-81.5 -31.5t-81.5 31.5t-31.5 80.5t31.5 81t81.5 32t81.5 -32t31.5 -81z" />
    <glyph glyph-name="Agrave" unicode="&#xc0;" 
d="M539 1434h118l519 -1434h-140l-143 408h-590l-143 -408h-140zM598 1249l-252 -714h504zM565 1835l144 -287h-101l-233 287h190z" />
    <glyph glyph-name="Aacute" unicode="&#xc1;" 
d="M539 1434h118l519 -1434h-140l-143 408h-590l-143 -408h-140zM598 1249l-252 -714h504zM483 1548l144 287h190l-233 -287h-101z" />
    <glyph glyph-name="Acircumflex" unicode="&#xc2;" 
d="M539 1434h118l519 -1434h-140l-143 408h-590l-143 -408h-140zM598 1249l-252 -714h504zM281 1561l294 309h46l294 -309h-147l-170 182l-170 -182h-147z" />
    <glyph glyph-name="Atilde" unicode="&#xc3;" 
d="M539 1434h118l519 -1434h-140l-143 408h-590l-143 -408h-140zM598 1249l-252 -714h504zM336 1616l-82 63q36 66 89.5 104t113.5 38q46 0 85.5 -13t63 -29t55.5 -29t64 -13q77 0 137 73l82 -63q-36 -66 -89 -103.5t-114 -37.5q-46 0 -85.5 13t-63 29t-55.5 29t-64 13
q-76 0 -137 -74z" />
    <glyph glyph-name="Adieresis" unicode="&#xc4;" 
d="M539 1434h118l519 -1434h-140l-143 408h-590l-143 -408h-140zM598 1249l-252 -714h504zM340 1733q0 43 28.5 72.5t71.5 29.5t72 -29.5t29 -72.5q0 -41 -29 -70t-72 -29q-42 0 -71 29t-29 70zM655 1733q0 42 29.5 72t69.5 30q43 0 72.5 -29.5t29.5 -72.5q0 -41 -29.5 -70
t-72.5 -29q-40 0 -69.5 29t-29.5 70z" />
    <glyph glyph-name="Aring" unicode="&#xc5;" 
d="M539 1434h118l519 -1434h-140l-143 408h-590l-143 -408h-140zM598 1249l-252 -714h504zM406 1739q0 85 56.5 142.5t141.5 57.5q87 0 143 -57t56 -143q0 -83 -56 -138t-143 -55q-85 0 -141.5 55.5t-56.5 137.5zM500 1741q0 -46 29.5 -76.5t74.5 -30.5q47 0 76 30.5
t29 76.5q0 48 -29 79t-76 31q-45 0 -74.5 -31t-29.5 -79z" />
    <glyph glyph-name="AE" unicode="&#xc6;" horiz-adv-x="1681" 
d="M643 1434h891v-127h-674v-480h551v-127h-551v-573h694v-127h-829v408h-391l-178 -408h-142zM702 1249l-313 -714h336v714h-23z" />
    <glyph glyph-name="Ccedilla" unicode="&#xc7;" horiz-adv-x="1392" 
d="M1161 432l133 -39q-55 -190 -196 -299.5t-344 -109.5q-99 0 -190.5 28t-172.5 87t-140.5 144t-94.5 207t-35 267t35 267t95 207t141 144t172.5 87t189.5 28q202 0 343.5 -109.5t196.5 -300.5l-133 -39q-41 153 -143.5 237.5t-263.5 84.5q-221 0 -356.5 -159.5
t-135.5 -446.5t135.5 -446.5t356.5 -159.5q161 0 263.5 84t143.5 237zM870 -123l-165 -315l-148 63l201 252h112z" />
    <glyph glyph-name="Egrave" unicode="&#xc8;" horiz-adv-x="1163" 
d="M207 1434h809v-127h-674v-480h551v-127h-551v-573h694v-127h-829v1434zM598 1835l143 -287h-100l-233 287h190z" />
    <glyph glyph-name="Eacute" unicode="&#xc9;" horiz-adv-x="1163" 
d="M207 1434h809v-127h-674v-480h551v-127h-551v-573h694v-127h-829v1434zM504 1548l143 287h191l-234 -287h-100z" />
    <glyph glyph-name="Ecircumflex" unicode="&#xca;" horiz-adv-x="1163" 
d="M207 1434h809v-127h-674v-480h551v-127h-551v-573h694v-127h-829v1434zM293 1561l295 309h45l295 -309h-148l-170 182l-170 -182h-147z" />
    <glyph glyph-name="Edieresis" unicode="&#xcb;" horiz-adv-x="1163" 
d="M207 1434h809v-127h-674v-480h551v-127h-551v-573h694v-127h-829v1434zM375 1733q0 43 28.5 72.5t71.5 29.5t71.5 -29.5t28.5 -72.5q0 -41 -28.5 -70t-71.5 -29t-71.5 29t-28.5 70zM690 1733q0 42 29 72t69 30q43 0 73 -29.5t30 -72.5q0 -41 -30 -70t-73 -29
q-40 0 -69 29t-29 70z" />
    <glyph glyph-name="Igrave" unicode="&#xcc;" horiz-adv-x="548" 
d="M342 1434v-1434h-135v1434h135zM242 1835l143 -287h-100l-234 287h191z" />
    <glyph glyph-name="Iacute" unicode="&#xcd;" horiz-adv-x="548" 
d="M342 1434v-1434h-135v1434h135zM174 1548l143 287h191l-234 -287h-100z" />
    <glyph glyph-name="Icircumflex" unicode="&#xce;" horiz-adv-x="548" 
d="M342 1434v-1434h-135v1434h135zM-43 1561l295 309h45l295 -309h-148l-170 182l-170 -182h-147z" />
    <glyph glyph-name="Idieresis" unicode="&#xcf;" horiz-adv-x="548" 
d="M342 1434v-1434h-135v1434h135zM16 1733q0 43 29 72.5t72 29.5t71.5 -29.5t28.5 -72.5q0 -41 -28.5 -70t-71.5 -29t-72 29t-29 70zM332 1733q0 42 29 72t69 30q43 0 72.5 -29.5t29.5 -72.5q0 -41 -29.5 -70t-72.5 -29q-40 0 -69 29t-29 70z" />
    <glyph glyph-name="Eth" unicode="&#xd0;" horiz-adv-x="1406" 
d="M86 653v127h172v654h377q138 0 257 -49.5t206.5 -140t137.5 -226.5t50 -301t-50 -301t-137.5 -226.5t-206.5 -140t-257 -49.5h-377v653h-172zM637 1307h-244v-527h172v-127h-172v-526h244q102 0 191.5 35t161 104.5t113.5 185.5t42 265t-42 265t-113.5 185.5t-161 104.5
t-191.5 35z" />
    <glyph glyph-name="Ntilde" unicode="&#xd1;" horiz-adv-x="1419" 
d="M1077 1434h135v-1434h-159l-711 1214v-1214h-135v1434h160l710 -1219v1219zM436 1616l-82 63q36 66 89.5 104t113.5 38q46 0 85.5 -13t63 -29t55.5 -29t64 -13q78 0 138 73l81 -63q-36 -66 -89 -103.5t-113 -37.5q-58 0 -104.5 21t-85.5 42t-79 21q-76 0 -137 -74z" />
    <glyph glyph-name="Ograve" unicode="&#xd2;" horiz-adv-x="1499" 
d="M750 1450q126 0 240 -51.5t200 -144t137 -232t51 -305.5t-51 -305.5t-137 -232t-200 -144t-240 -51.5t-240 51.5t-200.5 144t-137.5 232t-51 305.5t51 305.5t137.5 232t200.5 144t240 51.5zM750 1323q-102 0 -189.5 -39t-154.5 -113t-105.5 -191t-38.5 -263t38.5 -263
t105.5 -191t154.5 -113t189.5 -39t189.5 39t154.5 113t105 191t38 263t-38 263t-105 191t-154.5 113t-189.5 39zM696 1835l144 -287h-101l-233 287h190z" />
    <glyph glyph-name="Oacute" unicode="&#xd3;" horiz-adv-x="1499" 
d="M750 1450q126 0 240 -51.5t200 -144t137 -232t51 -305.5t-51 -305.5t-137 -232t-200 -144t-240 -51.5t-240 51.5t-200.5 144t-137.5 232t-51 305.5t51 305.5t137.5 232t200.5 144t240 51.5zM750 1323q-102 0 -189.5 -39t-154.5 -113t-105.5 -191t-38.5 -263t38.5 -263
t105.5 -191t154.5 -113t189.5 -39t189.5 39t154.5 113t105 191t38 263t-38 263t-105 191t-154.5 113t-189.5 39zM588 1548l143 287h191l-234 -287h-100z" />
    <glyph glyph-name="Ocircumflex" unicode="&#xd4;" horiz-adv-x="1499" 
d="M750 1450q126 0 240 -51.5t200 -144t137 -232t51 -305.5t-51 -305.5t-137 -232t-200 -144t-240 -51.5t-240 51.5t-200.5 144t-137.5 232t-51 305.5t51 305.5t137.5 232t200.5 144t240 51.5zM750 1323q-102 0 -189.5 -39t-154.5 -113t-105.5 -191t-38.5 -263t38.5 -263
t105.5 -191t154.5 -113t189.5 -39t189.5 39t154.5 113t105 191t38 263t-38 263t-105 191t-154.5 113t-189.5 39zM432 1561l295 309h45l295 -309h-147l-170 182l-170 -182h-148z" />
    <glyph glyph-name="Otilde" unicode="&#xd5;" horiz-adv-x="1499" 
d="M750 1450q126 0 240 -51.5t200 -144t137 -232t51 -305.5t-51 -305.5t-137 -232t-200 -144t-240 -51.5t-240 51.5t-200.5 144t-137.5 232t-51 305.5t51 305.5t137.5 232t200.5 144t240 51.5zM750 1323q-102 0 -189.5 -39t-154.5 -113t-105.5 -191t-38.5 -263t38.5 -263
t105.5 -191t154.5 -113t189.5 -39t189.5 39t154.5 113t105 191t38 263t-38 263t-105 191t-154.5 113t-189.5 39zM487 1616l-81 63q36 66 89 104t113 38q58 0 104.5 -21t85.5 -42t79 -21q77 0 137 73l82 -63q-36 -66 -89 -103.5t-114 -37.5q-46 0 -85.5 13t-63 29t-55.5 29
t-64 13q-77 0 -138 -74z" />
    <glyph glyph-name="Odieresis" unicode="&#xd6;" horiz-adv-x="1499" 
d="M750 1450q126 0 240 -51.5t200 -144t137 -232t51 -305.5t-51 -305.5t-137 -232t-200 -144t-240 -51.5t-240 51.5t-200.5 144t-137.5 232t-51 305.5t51 305.5t137.5 232t200.5 144t240 51.5zM750 1323q-102 0 -189.5 -39t-154.5 -113t-105.5 -191t-38.5 -263t38.5 -263
t105.5 -191t154.5 -113t189.5 -39t189.5 39t154.5 113t105 191t38 263t-38 263t-105 191t-154.5 113t-189.5 39zM492 1733q0 43 28.5 72.5t71.5 29.5t71.5 -29.5t28.5 -72.5q0 -41 -29 -70t-71 -29t-71 29t-29 70zM807 1733q0 42 29 72t69 30q43 0 73 -29.5t30 -72.5
q0 -41 -30 -70t-73 -29q-40 0 -69 29t-29 70z" />
    <glyph glyph-name="multiply" unicode="&#xd7;" horiz-adv-x="1073" 
d="M932 332l-82 -80l-313 313l-316 -313l-80 80l314 315l-314 314l80 81l316 -315l311 313l82 -82l-314 -311z" />
    <glyph glyph-name="Oslash" unicode="&#xd8;" horiz-adv-x="1499" 
d="M1253 1466l95 -71l-131 -170q161 -201 161 -508q0 -166 -51 -305.5t-137 -232t-200 -144t-240 -51.5q-219 0 -383 139l-121 -156l-94 72l131 170q-162 203 -162 508q0 166 51 305.5t137.5 232t200.5 144t240 51.5q219 0 383 -139zM750 1323q-102 0 -189.5 -39
t-154.5 -113t-105.5 -191t-38.5 -263q0 -242 103 -402l690 895q-125 113 -305 113zM1237 717q0 242 -102 401l-691 -895q124 -112 306 -112q102 0 189.5 39t154.5 113t105 191t38 263z" />
    <glyph glyph-name="Ugrave" unicode="&#xd9;" horiz-adv-x="1339" 
d="M178 459v975h135v-988q0 -142 93 -238.5t264 -96.5t263.5 96t92.5 239v988h135v-975q0 -115 -40 -206.5t-108.5 -149.5t-156 -88.5t-186.5 -30.5q-79 0 -151 19t-134.5 58t-108.5 94.5t-72 133.5t-26 170zM631 1835l143 -287h-100l-234 287h191z" />
    <glyph glyph-name="Uacute" unicode="&#xda;" horiz-adv-x="1339" 
d="M178 459v975h135v-988q0 -142 93 -238.5t264 -96.5t263.5 96t92.5 239v988h135v-975q0 -115 -40 -206.5t-108.5 -149.5t-156 -88.5t-186.5 -30.5q-79 0 -151 19t-134.5 58t-108.5 94.5t-72 133.5t-26 170zM551 1548l143 287h191l-234 -287h-100z" />
    <glyph glyph-name="Ucircumflex" unicode="&#xdb;" horiz-adv-x="1339" 
d="M178 459v975h135v-988q0 -142 93 -238.5t264 -96.5t263.5 96t92.5 239v988h135v-975q0 -115 -40 -206.5t-108.5 -149.5t-156 -88.5t-186.5 -30.5q-79 0 -151 19t-134.5 58t-108.5 94.5t-72 133.5t-26 170zM350 1561l295 309h45l295 -309h-147l-170 182l-170 -182h-148z
" />
    <glyph glyph-name="Udieresis" unicode="&#xdc;" horiz-adv-x="1339" 
d="M178 459v975h135v-988q0 -142 93 -238.5t264 -96.5t263.5 96t92.5 239v988h135v-975q0 -115 -40 -206.5t-108.5 -149.5t-156 -88.5t-186.5 -30.5q-79 0 -151 19t-134.5 58t-108.5 94.5t-72 133.5t-26 170zM412 1733q0 43 28.5 72.5t71.5 29.5t71.5 -29.5t28.5 -72.5
q0 -41 -29 -70t-71 -29t-71 29t-29 70zM727 1733q0 42 29 72t69 30q43 0 73 -29.5t30 -72.5q0 -41 -30 -70t-73 -29q-40 0 -69 29t-29 70z" />
    <glyph glyph-name="Yacute" unicode="&#xdd;" horiz-adv-x="1024" 
d="M444 623l-432 811h158l342 -678l342 678h158l-432 -811v-623h-136v623zM385 1548l143 287h191l-234 -287h-100z" />
    <glyph glyph-name="Thorn" unicode="&#xde;" horiz-adv-x="1183" 
d="M694 322h-352v-322h-135v1434h135v-322h352q193 0 303.5 -105t110.5 -290t-110.5 -290t-303.5 -105zM696 449q140 0 205.5 73t65.5 195t-65.5 195t-205.5 73h-354v-536h354z" />
    <glyph glyph-name="germandbls" unicode="&#xdf;" horiz-adv-x="1140" 
d="M82 725v115h111v159q0 217 106.5 334t271.5 117q173 0 274 -99t101 -255q0 -116 -55 -200t-139 -105q116 -30 202 -125t86 -240q0 -211 -119 -326.5t-315 -115.5q-78 0 -155 14v119q77 -15 143 -15q154 0 234.5 82.5t80.5 229.5q0 153 -97.5 232t-256.5 79h-66v115h78
q121 0 188.5 66.5t67.5 178.5q0 114 -69 180t-183 66t-180.5 -85.5t-66.5 -248.5v-997h-131v725h-111z" />
    <glyph glyph-name="agrave" unicode="&#xe0;" horiz-adv-x="1036" 
d="M250 297q0 -94 53.5 -144.5t147.5 -50.5q53 0 105.5 20t100.5 62t77.5 118t29.5 175v39h-168q-173 0 -259.5 -57.5t-86.5 -161.5zM891 684v-684h-96l-31 160q-46 -80 -127.5 -128t-198.5 -48q-67 0 -123 17.5t-101.5 53.5t-71 98t-25.5 144q0 168 126 253t349 85h172v45
q0 129 -64.5 189.5t-173.5 60.5q-99 0 -159 -53.5t-86 -139.5l-123 29q21 128 124.5 205.5t243.5 77.5q158 0 261.5 -97.5t103.5 -267.5zM500 1434l143 -287h-100l-234 287h191z" />
    <glyph glyph-name="aacute" unicode="&#xe1;" horiz-adv-x="1036" 
d="M250 297q0 -94 53.5 -144.5t147.5 -50.5q53 0 105.5 20t100.5 62t77.5 118t29.5 175v39h-168q-173 0 -259.5 -57.5t-86.5 -161.5zM891 684v-684h-96l-31 160q-46 -80 -127.5 -128t-198.5 -48q-67 0 -123 17.5t-101.5 53.5t-71 98t-25.5 144q0 168 126 253t349 85h172v45
q0 129 -64.5 189.5t-173.5 60.5q-99 0 -159 -53.5t-86 -139.5l-123 29q21 128 124.5 205.5t243.5 77.5q158 0 261.5 -97.5t103.5 -267.5zM418 1147l143 287h191l-234 -287h-100z" />
    <glyph glyph-name="acircumflex" unicode="&#xe2;" horiz-adv-x="1036" 
d="M250 297q0 -94 53.5 -144.5t147.5 -50.5q53 0 105.5 20t100.5 62t77.5 118t29.5 175v39h-168q-173 0 -259.5 -57.5t-86.5 -161.5zM891 684v-684h-96l-31 160q-46 -80 -127.5 -128t-198.5 -48q-67 0 -123 17.5t-101.5 53.5t-71 98t-25.5 144q0 168 126 253t349 85h172v45
q0 129 -64.5 189.5t-173.5 60.5q-99 0 -159 -53.5t-86 -139.5l-123 29q21 128 124.5 205.5t243.5 77.5q158 0 261.5 -97.5t103.5 -267.5zM217 1159l295 309h45l295 -309h-147l-170 182l-170 -182h-148z" />
    <glyph glyph-name="atilde" unicode="&#xe3;" horiz-adv-x="1036" 
d="M250 297q0 -94 53.5 -144.5t147.5 -50.5q53 0 105.5 20t100.5 62t77.5 118t29.5 175v39h-168q-173 0 -259.5 -57.5t-86.5 -161.5zM891 684v-684h-96l-31 160q-46 -80 -127.5 -128t-198.5 -48q-67 0 -123 17.5t-101.5 53.5t-71 98t-25.5 144q0 168 126 253t349 85h172v45
q0 129 -64.5 189.5t-173.5 60.5q-99 0 -159 -53.5t-86 -139.5l-123 29q21 128 124.5 205.5t243.5 77.5q158 0 261.5 -97.5t103.5 -267.5zM272 1214l-82 64q36 66 89 103.5t114 37.5q58 0 104.5 -21t85.5 -42t79 -21q76 0 137 74l82 -63q-36 -66 -89.5 -104t-113.5 -38
q-46 0 -85.5 13t-63 29t-55.5 29t-64 13q-77 0 -138 -74z" />
    <glyph glyph-name="adieresis" unicode="&#xe4;" horiz-adv-x="1036" 
d="M250 297q0 -94 53.5 -144.5t147.5 -50.5q53 0 105.5 20t100.5 62t77.5 118t29.5 175v39h-168q-173 0 -259.5 -57.5t-86.5 -161.5zM891 684v-684h-96l-31 160q-46 -80 -127.5 -128t-198.5 -48q-67 0 -123 17.5t-101.5 53.5t-71 98t-25.5 144q0 168 126 253t349 85h172v45
q0 129 -64.5 189.5t-173.5 60.5q-99 0 -159 -53.5t-86 -139.5l-123 29q21 128 124.5 205.5t243.5 77.5q158 0 261.5 -97.5t103.5 -267.5zM274 1331q0 43 29 73t72 30q42 0 71 -30t29 -73q0 -41 -28.5 -69.5t-71.5 -28.5t-72 28.5t-29 69.5zM590 1331q0 43 29 73t69 30
q43 0 73 -30t30 -73q0 -41 -30 -69.5t-73 -28.5q-40 0 -69 28.5t-29 69.5z" />
    <glyph glyph-name="aring" unicode="&#xe5;" horiz-adv-x="1036" 
d="M250 297q0 -94 53.5 -144.5t147.5 -50.5q53 0 105.5 20t100.5 62t77.5 118t29.5 175v39h-168q-173 0 -259.5 -57.5t-86.5 -161.5zM891 684v-684h-96l-31 160q-46 -80 -127.5 -128t-198.5 -48q-67 0 -123 17.5t-101.5 53.5t-71 98t-25.5 144q0 168 126 253t349 85h172v45
q0 129 -64.5 189.5t-173.5 60.5q-99 0 -159 -53.5t-86 -139.5l-123 29q21 128 124.5 205.5t243.5 77.5q158 0 261.5 -97.5t103.5 -267.5zM328 1337q0 85 57 143t141 58q87 0 143 -57.5t56 -143.5q0 -82 -56 -137t-143 -55q-85 0 -141.5 55t-56.5 137zM422 1339q0 -46 29 -76
t75 -30q47 0 76 30t29 76q0 48 -29 79.5t-76 31.5q-45 0 -74.5 -31.5t-29.5 -79.5z" />
    <glyph glyph-name="ae" unicode="&#xe6;" horiz-adv-x="1779" 
d="M1675 573v-57h-778q0 -185 87 -299.5t239 -114.5q116 0 190 52t125 161l115 -47q-77 -154 -180 -219t-250 -65q-137 0 -243.5 70.5t-156.5 189.5q-48 -130 -150 -195t-235 -65q-67 0 -123 17.5t-101.5 53.5t-71 98t-25.5 144q0 168 126 253t349 85h172v45
q0 129 -64.5 189.5t-173.5 60.5q-99 0 -159 -53.5t-86 -139.5l-123 29q21 128 124.5 205.5t243.5 77.5q115 0 204.5 -53.5t129.5 -145.5q61 94 154.5 146.5t208.5 52.5q200 0 326 -131.5t126 -344.5zM250 297q0 -94 53.5 -144.5t147.5 -50.5q53 0 105.5 20t100.5 62
t77.5 118t29.5 175v39h-168q-173 0 -259.5 -57.5t-86.5 -161.5zM1223 930q-124 0 -207.5 -81.5t-110.5 -213.5h639q-19 137 -102 216t-219 79z" />
    <glyph glyph-name="ccedilla" unicode="&#xe7;" horiz-adv-x="1081" 
d="M872 313l115 -45q-110 -284 -416 -284q-110 0 -198.5 45t-143.5 120t-84.5 169.5t-29.5 197.5t29.5 197.5t84.5 170t143.5 120.5t198.5 45q306 0 416 -285l-115 -45q-86 211 -301 211q-106 0 -181 -58t-108.5 -149.5t-33.5 -206.5t33.5 -206.5t108.5 -149.5t181 -58
q215 0 301 211zM690 -123l-166 -315l-147 63l201 252h112z" />
    <glyph glyph-name="egrave" unicode="&#xe8;" horiz-adv-x="1130" 
d="M1026 573v-57h-778q0 -185 86.5 -299.5t238.5 -114.5q116 0 188 52t130 170l113 -56q-77 -154 -180.5 -219t-250.5 -65q-204 0 -331 150t-127 382t127 382.5t331 150.5q200 0 326.5 -131.5t126.5 -344.5zM573 930q-124 0 -207 -81.5t-110 -213.5h639q-19 137 -102 216
t-220 79zM561 1434l144 -287h-101l-233 287h190z" />
    <glyph glyph-name="eacute" unicode="&#xe9;" horiz-adv-x="1130" 
d="M1026 573v-57h-778q0 -185 86.5 -299.5t238.5 -114.5q116 0 188 52t130 170l113 -56q-77 -154 -180.5 -219t-250.5 -65q-204 0 -331 150t-127 382t127 382.5t331 150.5q200 0 326.5 -131.5t126.5 -344.5zM573 930q-124 0 -207 -81.5t-110 -213.5h639q-19 137 -102 216
t-220 79zM420 1147l143 287h191l-234 -287h-100z" />
    <glyph glyph-name="ecircumflex" unicode="&#xea;" horiz-adv-x="1130" 
d="M1026 573v-57h-778q0 -185 86.5 -299.5t238.5 -114.5q116 0 188 52t130 170l113 -56q-77 -154 -180.5 -219t-250.5 -65q-204 0 -331 150t-127 382t127 382.5t331 150.5q200 0 326.5 -131.5t126.5 -344.5zM573 930q-124 0 -207 -81.5t-110 -213.5h639q-19 137 -102 216
t-220 79zM256 1159l295 309h45l295 -309h-148l-170 182l-170 -182h-147z" />
    <glyph glyph-name="edieresis" unicode="&#xeb;" horiz-adv-x="1130" 
d="M1026 573v-57h-778q0 -185 86.5 -299.5t238.5 -114.5q116 0 188 52t130 170l113 -56q-77 -154 -180.5 -219t-250.5 -65q-204 0 -331 150t-127 382t127 382.5t331 150.5q200 0 326.5 -131.5t126.5 -344.5zM573 930q-124 0 -207 -81.5t-110 -213.5h639q-19 137 -102 216
t-220 79zM328 1331q0 43 29 73t71 30t71 -30t29 -73q0 -41 -28.5 -69.5t-71.5 -28.5t-71.5 28.5t-28.5 69.5zM643 1331q0 43 29 73t69 30q43 0 73 -30t30 -73q0 -41 -30 -69.5t-73 -28.5q-40 0 -69 28.5t-29 69.5z" />
    <glyph glyph-name="igrave" unicode="&#xec;" horiz-adv-x="573" 
d="M225 1032h127v-1032h-127v1032zM246 1434l143 -287h-100l-234 287h191z" />
    <glyph glyph-name="iacute" unicode="&#xed;" horiz-adv-x="573" 
d="M225 1032h127v-1032h-127v1032zM199 1147l143 287h190l-233 -287h-100z" />
    <glyph glyph-name="icircumflex" unicode="&#xee;" horiz-adv-x="573" 
d="M225 1032h127v-1032h-127v1032zM-31 1159l295 309h45l295 -309h-147l-170 182l-170 -182h-148z" />
    <glyph glyph-name="idieresis" unicode="&#xef;" horiz-adv-x="573" 
d="M225 1032h127v-1032h-127v1032zM33 1331q0 43 29 73t71 30t71 -30t29 -73q0 -41 -28.5 -69.5t-71.5 -28.5t-71.5 28.5t-28.5 69.5zM348 1331q0 43 29 73t69 30q43 0 73 -30t30 -73q0 -41 -30 -69.5t-73 -28.5q-40 0 -69 28.5t-29 69.5z" />
    <glyph glyph-name="eth" unicode="&#xf0;" horiz-adv-x="1175" 
d="M502 1128l-86 62l90 131q-81 53 -166 86l59 88q104 -48 168 -84l78 115l86 -62l-76 -110q208 -144 307 -349t99 -489q0 -102 -32 -197t-91 -170t-150 -120t-200 -45t-200 45t-150 120t-91 170t-32 197t32 197t91 170.5t150 120.5t200 45q81 0 155.5 -32t122.5 -85
q-27 80 -101 167.5t-173 162.5zM248 516q0 -63 13 -122.5t40.5 -112.5t67 -93t96 -63t123.5 -23t123.5 23t96 63t67 93t40.5 112.5t13 122.5t-13 122.5t-40.5 112.5t-67 93t-96 63t-123.5 23t-123.5 -23t-96 -63t-67 -93t-40.5 -112.5t-13 -122.5z" />
    <glyph glyph-name="ntilde" unicode="&#xf1;" horiz-adv-x="1179" 
d="M995 709v-709h-127v692q0 115 -53 176.5t-158 61.5q-144 0 -238.5 -130.5t-94.5 -346.5v-453h-127v1032h127v-215q54 104 149 168t205 64q148 0 232.5 -89.5t84.5 -250.5zM342 1214l-82 64q36 66 89 103.5t114 37.5q46 0 85.5 -13t63 -29t55.5 -29t64 -13q76 0 137 74
l82 -63q-36 -66 -89 -104t-113 -38q-58 0 -104.5 21t-85.5 42t-79 21q-76 0 -137 -74z" />
    <glyph glyph-name="ograve" unicode="&#xf2;" 
d="M115 516q0 102 33.5 197.5t94.5 170.5t153.5 120t201.5 45t201.5 -45t153.5 -120t94.5 -170.5t33.5 -197.5t-33.5 -197t-94.5 -170t-153.5 -120t-201.5 -45t-201.5 45t-153.5 120t-94.5 170t-33.5 197zM248 516q0 -79 22.5 -152t65 -132t110.5 -94.5t152 -35.5t152 35.5
t110.5 94.5t65 132t22.5 152t-22.5 152t-65 132t-110.5 94.5t-152 35.5t-152 -35.5t-110.5 -94.5t-65 -132t-22.5 -152zM569 1434l144 -287h-101l-233 287h190z" />
    <glyph glyph-name="oacute" unicode="&#xf3;" 
d="M115 516q0 102 33.5 197.5t94.5 170.5t153.5 120t201.5 45t201.5 -45t153.5 -120t94.5 -170.5t33.5 -197.5t-33.5 -197t-94.5 -170t-153.5 -120t-201.5 -45t-201.5 45t-153.5 120t-94.5 170t-33.5 197zM248 516q0 -79 22.5 -152t65 -132t110.5 -94.5t152 -35.5t152 35.5
t110.5 94.5t65 132t22.5 152t-22.5 152t-65 132t-110.5 94.5t-152 35.5t-152 -35.5t-110.5 -94.5t-65 -132t-22.5 -152zM446 1147l144 287h190l-233 -287h-101z" />
    <glyph glyph-name="ocircumflex" unicode="&#xf4;" 
d="M115 516q0 102 33.5 197.5t94.5 170.5t153.5 120t201.5 45t201.5 -45t153.5 -120t94.5 -170.5t33.5 -197.5t-33.5 -197t-94.5 -170t-153.5 -120t-201.5 -45t-201.5 45t-153.5 120t-94.5 170t-33.5 197zM248 516q0 -79 22.5 -152t65 -132t110.5 -94.5t152 -35.5t152 35.5
t110.5 94.5t65 132t22.5 152t-22.5 152t-65 132t-110.5 94.5t-152 35.5t-152 -35.5t-110.5 -94.5t-65 -132t-22.5 -152zM281 1159l294 309h46l294 -309h-147l-170 182l-170 -182h-147z" />
    <glyph glyph-name="otilde" unicode="&#xf5;" 
d="M115 516q0 102 33.5 197.5t94.5 170.5t153.5 120t201.5 45t201.5 -45t153.5 -120t94.5 -170.5t33.5 -197.5t-33.5 -197t-94.5 -170t-153.5 -120t-201.5 -45t-201.5 45t-153.5 120t-94.5 170t-33.5 197zM248 516q0 -79 22.5 -152t65 -132t110.5 -94.5t152 -35.5t152 35.5
t110.5 94.5t65 132t22.5 152t-22.5 152t-65 132t-110.5 94.5t-152 35.5t-152 -35.5t-110.5 -94.5t-65 -132t-22.5 -152zM336 1214l-82 64q36 66 89 103.5t114 37.5q46 0 85.5 -13t63 -29t55.5 -29t64 -13q76 0 137 74l82 -63q-36 -66 -89.5 -104t-113.5 -38q-46 0 -85.5 13
t-63 29t-55.5 29t-64 13q-76 0 -137 -74z" />
    <glyph glyph-name="odieresis" unicode="&#xf6;" 
d="M115 516q0 102 33.5 197.5t94.5 170.5t153.5 120t201.5 45t201.5 -45t153.5 -120t94.5 -170.5t33.5 -197.5t-33.5 -197t-94.5 -170t-153.5 -120t-201.5 -45t-201.5 45t-153.5 120t-94.5 170t-33.5 197zM248 516q0 -79 22.5 -152t65 -132t110.5 -94.5t152 -35.5t152 35.5
t110.5 94.5t65 132t22.5 152t-22.5 152t-65 132t-110.5 94.5t-152 35.5t-152 -35.5t-110.5 -94.5t-65 -132t-22.5 -152zM340 1331q0 43 29 73t71 30q43 0 72 -30t29 -73q0 -41 -29 -69.5t-72 -28.5t-71.5 28.5t-28.5 69.5zM655 1331q0 42 29.5 72.5t69.5 30.5q43 0 72.5 -30
t29.5 -73q0 -41 -29.5 -69.5t-72.5 -28.5q-40 0 -69.5 28.5t-29.5 69.5z" />
    <glyph glyph-name="divide" unicode="&#xf7;" horiz-adv-x="1044" 
d="M416 274q0 45 29.5 75t74.5 30q44 0 74.5 -30.5t30.5 -74.5q0 -45 -30 -74.5t-75 -29.5q-46 0 -75 29t-29 75zM416 1024q0 45 29.5 74.5t74.5 29.5q44 0 74.5 -30t30.5 -74q0 -45 -30 -74.5t-75 -29.5q-46 0 -75 29t-29 75zM102 592v115h840v-115h-840z" />
    <glyph glyph-name="oslash" unicode="&#xf8;" 
d="M115 516q0 102 33.5 197.5t94.5 170.5t153.5 120t201.5 45q156 0 274 -88l115 145l94 -72l-123 -155q123 -151 123 -363q0 -102 -33.5 -197t-94.5 -170t-153.5 -120t-201.5 -45q-156 0 -274 88l-115 -146l-94 72l123 156q-123 151 -123 362zM948 516q0 151 -69 260
l-482 -608q85 -66 201 -66q84 0 152 35.5t110.5 94.5t65 132t22.5 152zM248 516q0 -151 69 -260l482 608q-85 66 -201 66q-84 0 -152 -35.5t-110.5 -94.5t-65 -132t-22.5 -152z" />
    <glyph glyph-name="ugrave" unicode="&#xf9;" horiz-adv-x="1159" 
d="M184 324v708h127v-692q0 -115 53 -176.5t158 -61.5q144 0 239 131t95 347v452h127v-1032h-127v215q-54 -104 -149 -167.5t-205 -63.5q-148 0 -233 89.5t-85 250.5zM584 1434l143 -287h-100l-234 287h191z" />
    <glyph glyph-name="uacute" unicode="&#xfa;" horiz-adv-x="1159" 
d="M184 324v708h127v-692q0 -115 53 -176.5t158 -61.5q144 0 239 131t95 347v452h127v-1032h-127v215q-54 -104 -149 -167.5t-205 -63.5q-148 0 -233 89.5t-85 250.5zM442 1147l144 287h190l-233 -287h-101z" />
    <glyph glyph-name="ucircumflex" unicode="&#xfb;" horiz-adv-x="1159" 
d="M184 324v708h127v-692q0 -115 53 -176.5t158 -61.5q144 0 239 131t95 347v452h127v-1032h-127v215q-54 -104 -149 -167.5t-205 -63.5q-148 0 -233 89.5t-85 250.5zM270 1159l295 309h45l295 -309h-147l-170 182l-170 -182h-148z" />
    <glyph glyph-name="udieresis" unicode="&#xfc;" horiz-adv-x="1159" 
d="M184 324v708h127v-692q0 -115 53 -176.5t158 -61.5q144 0 239 131t95 347v452h127v-1032h-127v215q-54 -104 -149 -167.5t-205 -63.5q-148 0 -233 89.5t-85 250.5zM334 1331q0 43 29 73t71 30q43 0 72 -30t29 -73q0 -41 -29 -69.5t-72 -28.5t-71.5 28.5t-28.5 69.5z
M649 1331q0 42 29.5 72.5t69.5 30.5q43 0 72.5 -30t29.5 -73q0 -41 -29.5 -69.5t-72.5 -28.5q-40 0 -69.5 28.5t-29.5 69.5z" />
    <glyph glyph-name="yacute" unicode="&#xfd;" horiz-adv-x="925" 
d="M762 1032h133l-512 -1450h-127l150 424l-371 1026h133l307 -835zM354 1147l144 287h190l-233 -287h-101z" />
    <glyph glyph-name="thorn" unicode="&#xfe;" horiz-adv-x="1226" 
d="M199 1450h131v-563q56 72 146 117t175 45q146 0 252 -72.5t157.5 -191.5t51.5 -269t-51.5 -269t-157.5 -191t-252 -72q-98 0 -189 44.5t-132 106.5v-553h-131v1868zM979 516q0 180 -88 297t-246 117t-245 -117t-87 -297q0 -182 86.5 -298t245.5 -116t246.5 116t87.5 298z
" />
    <glyph glyph-name="ydieresis" unicode="&#xff;" horiz-adv-x="925" 
d="M762 1032h133l-512 -1450h-127l150 424l-371 1026h133l307 -835zM217 1331q0 43 29 73t71 30q43 0 72 -30t29 -73q0 -41 -29 -69.5t-72 -28.5t-71.5 28.5t-28.5 69.5zM532 1331q0 42 29.5 72.5t69.5 30.5q43 0 72.5 -30t29.5 -73q0 -41 -29.5 -69.5t-72.5 -28.5
q-40 0 -69.5 28.5t-29.5 69.5z" />
    <glyph glyph-name="Amacron" unicode="&#x100;" 
d="M539 1434h118l519 -1434h-140l-143 408h-590l-143 -408h-140zM598 1249l-252 -714h504zM352 1665v115h494v-115h-494z" />
    <glyph glyph-name="amacron" unicode="&#x101;" horiz-adv-x="1036" 
d="M250 297q0 -94 53.5 -144.5t147.5 -50.5q53 0 105.5 20t100.5 62t77.5 118t29.5 175v39h-168q-173 0 -259.5 -57.5t-86.5 -161.5zM891 684v-684h-96l-31 160q-46 -80 -127.5 -128t-198.5 -48q-67 0 -123 17.5t-101.5 53.5t-71 98t-25.5 144q0 168 126 253t349 85h172v45
q0 129 -64.5 189.5t-173.5 60.5q-99 0 -159 -53.5t-86 -139.5l-123 29q21 128 124.5 205.5t243.5 77.5q158 0 261.5 -97.5t103.5 -267.5zM274 1262v114h494v-114h-494z" />
    <glyph glyph-name="Abreve" unicode="&#x102;" 
d="M539 1434h118l519 -1434h-140l-143 408h-590l-143 -408h-140zM598 1249l-252 -714h504zM709 1835h104q0 -100 -57 -161.5t-158 -61.5q-99 0 -157 61.5t-58 161.5h104q0 -55 28.5 -88t82.5 -33q56 0 83.5 33t27.5 88z" />
    <glyph glyph-name="abreve" unicode="&#x103;" horiz-adv-x="1036" 
d="M250 297q0 -94 53.5 -144.5t147.5 -50.5q53 0 105.5 20t100.5 62t77.5 118t29.5 175v39h-168q-173 0 -259.5 -57.5t-86.5 -161.5zM891 684v-684h-96l-31 160q-46 -80 -127.5 -128t-198.5 -48q-67 0 -123 17.5t-101.5 53.5t-71 98t-25.5 144q0 168 126 253t349 85h172v45
q0 129 -64.5 189.5t-173.5 60.5q-99 0 -159 -53.5t-86 -139.5l-123 29q21 128 124.5 205.5t243.5 77.5q158 0 261.5 -97.5t103.5 -267.5zM637 1434h104q0 -100 -57 -162t-158 -62q-98 0 -156.5 62t-58.5 162h105q0 -55 28 -88t82 -33q56 0 83.5 33t27.5 88z" />
    <glyph glyph-name="Aogonek" unicode="&#x104;" 
d="M1063 0h-27l-143 408h-590l-143 -408h-140l519 1434h118l519 -1434q-61 -56 -88 -92t-27 -72q0 -32 18 -49.5t49 -17.5q32 0 57.5 20.5t59.5 65.5l80 -64q-56 -74 -103 -105.5t-114 -31.5q-74 0 -118 43.5t-44 114.5q0 106 117 188zM598 1249l-252 -714h504z" />
    <glyph glyph-name="aogonek" unicode="&#x105;" horiz-adv-x="1036" 
d="M795 0l-31 160q-46 -80 -127.5 -128t-198.5 -48q-67 0 -123 17.5t-101.5 53.5t-71 98t-25.5 144q0 168 126 253t349 85h172v45q0 129 -64.5 189.5t-173.5 60.5q-99 0 -159 -53.5t-86 -139.5l-123 29q21 128 124.5 205.5t243.5 77.5q158 0 261.5 -97.5t103.5 -267.5v-684
q-61 -56 -88 -92t-27 -72q0 -32 18.5 -49.5t49.5 -17.5q32 0 57.5 20.5t59.5 65.5l79 -64q-56 -74 -103 -105.5t-114 -31.5q-74 0 -117.5 43.5t-43.5 114.5q0 50 35.5 101t97.5 87zM250 297q0 -94 53.5 -144.5t147.5 -50.5q53 0 105.5 20t100.5 62t77.5 118t29.5 175v39
h-168q-173 0 -259.5 -57.5t-86.5 -161.5z" />
    <glyph glyph-name="Cacute" unicode="&#x106;" horiz-adv-x="1392" 
d="M1161 432l133 -39q-55 -190 -196 -299.5t-344 -109.5q-99 0 -190.5 28t-172.5 87t-140.5 144t-94.5 207t-35 267t35 267t95 207t141 144t172.5 87t189.5 28q202 0 343.5 -109.5t196.5 -300.5l-133 -39q-41 153 -143.5 237.5t-263.5 84.5q-221 0 -356.5 -159.5
t-135.5 -446.5t135.5 -446.5t356.5 -159.5q161 0 263.5 84t143.5 237zM627 1548l143 287h191l-234 -287h-100z" />
    <glyph glyph-name="cacute" unicode="&#x107;" horiz-adv-x="1081" 
d="M872 313l115 -45q-110 -284 -416 -284q-110 0 -198.5 45t-143.5 120t-84.5 169.5t-29.5 197.5t29.5 197.5t84.5 170t143.5 120.5t198.5 45q306 0 416 -285l-115 -45q-86 211 -301 211q-106 0 -181 -58t-108.5 -149.5t-33.5 -206.5t33.5 -206.5t108.5 -149.5t181 -58
q215 0 301 211zM449 1147l143 287h190l-233 -287h-100z" />
    <glyph glyph-name="Ccircumflex" unicode="&#x108;" horiz-adv-x="1392" 
d="M1161 432l133 -39q-55 -190 -196 -299.5t-344 -109.5q-99 0 -190.5 28t-172.5 87t-140.5 144t-94.5 207t-35 267t35 267t95 207t141 144t172.5 87t189.5 28q202 0 343.5 -109.5t196.5 -300.5l-133 -39q-41 153 -143.5 237.5t-263.5 84.5q-221 0 -356.5 -159.5
t-135.5 -446.5t135.5 -446.5t356.5 -159.5q161 0 263.5 84t143.5 237zM436 1561l295 309h45l295 -309h-147l-170 182l-170 -182h-148z" />
    <glyph glyph-name="ccircumflex" unicode="&#x109;" horiz-adv-x="1081" 
d="M872 313l115 -45q-110 -284 -416 -284q-110 0 -198.5 45t-143.5 120t-84.5 169.5t-29.5 197.5t29.5 197.5t84.5 170t143.5 120.5t198.5 45q306 0 416 -285l-115 -45q-86 211 -301 211q-106 0 -181 -58t-108.5 -149.5t-33.5 -206.5t33.5 -206.5t108.5 -149.5t181 -58
q215 0 301 211zM266 1159l295 309h45l295 -309h-147l-170 182l-170 -182h-148z" />
    <glyph glyph-name="Cdotaccent" unicode="&#x10a;" horiz-adv-x="1392" 
d="M1161 432l133 -39q-55 -190 -196 -299.5t-344 -109.5q-99 0 -190.5 28t-172.5 87t-140.5 144t-94.5 207t-35 267t35 267t95 207t141 144t172.5 87t189.5 28q202 0 343.5 -109.5t196.5 -300.5l-133 -39q-41 153 -143.5 237.5t-263.5 84.5q-221 0 -356.5 -159.5
t-135.5 -446.5t135.5 -446.5t356.5 -159.5q161 0 263.5 84t143.5 237zM653 1722q0 44 30.5 74.5t74.5 30.5t74 -30.5t30 -74.5t-30 -74t-74 -30t-74.5 30t-30.5 74z" />
    <glyph glyph-name="cdotaccent" unicode="&#x10b;" horiz-adv-x="1081" 
d="M872 313l115 -45q-110 -284 -416 -284q-110 0 -198.5 45t-143.5 120t-84.5 169.5t-29.5 197.5t29.5 197.5t84.5 170t143.5 120.5t198.5 45q306 0 416 -285l-115 -45q-86 211 -301 211q-106 0 -181 -58t-108.5 -149.5t-33.5 -206.5t33.5 -206.5t108.5 -149.5t181 -58
q215 0 301 211zM469 1329q0 44 30 74.5t74 30.5t74.5 -30.5t30.5 -74.5t-30.5 -74t-74.5 -30t-74 30t-30 74z" />
    <glyph glyph-name="Ccaron" unicode="&#x10c;" horiz-adv-x="1392" 
d="M1161 432l133 -39q-55 -190 -196 -299.5t-344 -109.5q-99 0 -190.5 28t-172.5 87t-140.5 144t-94.5 207t-35 267t35 267t95 207t141 144t172.5 87t189.5 28q202 0 343.5 -109.5t196.5 -300.5l-133 -39q-41 153 -143.5 237.5t-263.5 84.5q-221 0 -356.5 -159.5
t-135.5 -446.5t135.5 -446.5t356.5 -159.5q161 0 263.5 84t143.5 237zM735 1561l-295 309h148l170 -182l170 182h147l-295 -309h-45z" />
    <glyph glyph-name="ccaron" unicode="&#x10d;" horiz-adv-x="1081" 
d="M872 313l115 -45q-110 -284 -416 -284q-110 0 -198.5 45t-143.5 120t-84.5 169.5t-29.5 197.5t29.5 197.5t84.5 170t143.5 120.5t198.5 45q306 0 416 -285l-115 -45q-86 211 -301 211q-106 0 -181 -58t-108.5 -149.5t-33.5 -206.5t33.5 -206.5t108.5 -149.5t181 -58
q215 0 301 211zM553 1159l-295 309h148l169 -182l170 182h148l-295 -309h-45z" />
    <glyph glyph-name="Dcaron" unicode="&#x10e;" horiz-adv-x="1355" 
d="M207 1434h377q138 0 257 -49.5t206.5 -140t137.5 -226.5t50 -301t-50 -301t-137.5 -226.5t-206.5 -140t-257 -49.5h-377v1434zM586 1307h-244v-1180h244q102 0 191.5 35t161 104.5t113.5 185.5t42 265t-42 265t-113.5 185.5t-161 104.5t-191.5 35zM530 1561l-294 309h147
l170 -182l170 182h147l-295 -309h-45z" />
    <glyph glyph-name="dcaron" unicode="&#x10f;" horiz-adv-x="1611" 
d="M901 1450h127v-1450h-127v135q-41 -62 -134 -106.5t-192 -44.5q-110 0 -198.5 41.5t-145 114t-86.5 168.5t-30 208q0 150 51 269t157 191.5t252 72.5q85 0 177.5 -45t148.5 -117v563zM248 516q0 -182 87.5 -298t246.5 -116t245 116t86 298q0 180 -86.5 297t-244.5 117
t-246 -117t-88 -297zM1188 1073l125 377h211l-236 -377h-100z" />
    <glyph glyph-name="Dcroat" unicode="&#x110;" horiz-adv-x="1406" 
d="M86 653v127h172v654h377q138 0 257 -49.5t206.5 -140t137.5 -226.5t50 -301t-50 -301t-137.5 -226.5t-206.5 -140t-257 -49.5h-377v653h-172zM637 1307h-244v-527h172v-127h-172v-526h244q102 0 191.5 35t161 104.5t113.5 185.5t42 265t-42 265t-113.5 185.5t-161 104.5
t-191.5 35z" />
    <glyph glyph-name="dcroat" unicode="&#x111;" horiz-adv-x="1224" 
d="M625 1184v114h276v152h127v-152h150v-114h-150v-1184h-127v135q-41 -62 -134 -106.5t-192 -44.5q-110 0 -198.5 41.5t-145 114t-86.5 168.5t-30 208q0 150 51 269t157 191.5t252 72.5q85 0 177.5 -45t148.5 -117v297h-276zM248 516q0 -182 87.5 -298t246.5 -116t245 116
t86 298q0 180 -86.5 297t-244.5 117t-246 -117t-88 -297z" />
    <glyph glyph-name="Emacron" unicode="&#x112;" horiz-adv-x="1163" 
d="M207 1434h809v-127h-674v-480h551v-127h-551v-573h694v-127h-829v1434zM367 1665v115h493v-115h-493z" />
    <glyph glyph-name="emacron" unicode="&#x113;" horiz-adv-x="1130" 
d="M1026 573v-57h-778q0 -185 86.5 -299.5t238.5 -114.5q116 0 188 52t130 170l113 -56q-77 -154 -180.5 -219t-250.5 -65q-204 0 -331 150t-127 382t127 382.5t331 150.5q200 0 326.5 -131.5t126.5 -344.5zM573 930q-124 0 -207 -81.5t-110 -213.5h639q-19 137 -102 216
t-220 79zM332 1262v114h493v-114h-493z" />
    <glyph glyph-name="Ebreve" unicode="&#x114;" horiz-adv-x="1163" 
d="M207 1434h809v-127h-674v-480h551v-127h-551v-573h694v-127h-829v1434zM707 1835h104q0 -100 -57 -161.5t-158 -61.5q-99 0 -157 61.5t-58 161.5h104q0 -55 28.5 -88t82.5 -33q56 0 83.5 33t27.5 88z" />
    <glyph glyph-name="ebreve" unicode="&#x115;" horiz-adv-x="1130" 
d="M1026 573v-57h-778q0 -185 86.5 -299.5t238.5 -114.5q116 0 188 52t130 170l113 -56q-77 -154 -180.5 -219t-250.5 -65q-204 0 -331 150t-127 382t127 382.5t331 150.5q200 0 326.5 -131.5t126.5 -344.5zM573 930q-124 0 -207 -81.5t-110 -213.5h639q-19 137 -102 216
t-220 79zM688 1434h105q0 -100 -57 -162t-158 -62q-99 0 -157.5 62t-58.5 162h105q0 -54 28.5 -87.5t82.5 -33.5q56 0 83 32.5t27 88.5z" />
    <glyph glyph-name="Edotaccent" unicode="&#x116;" horiz-adv-x="1163" 
d="M207 1434h809v-127h-674v-480h551v-127h-551v-573h694v-127h-829v1434zM506 1722q0 44 30 74.5t74 30.5t74.5 -30.5t30.5 -74.5t-30.5 -74t-74.5 -30t-74 30t-30 74z" />
    <glyph glyph-name="edotaccent" unicode="&#x117;" horiz-adv-x="1130" 
d="M1026 573v-57h-778q0 -185 86.5 -299.5t238.5 -114.5q116 0 188 52t130 170l113 -56q-77 -154 -180.5 -219t-250.5 -65q-204 0 -331 150t-127 382t127 382.5t331 150.5q200 0 326.5 -131.5t126.5 -344.5zM573 930q-124 0 -207 -81.5t-110 -213.5h639q-19 137 -102 216
t-220 79zM461 1329q0 44 30 74.5t74 30.5t74.5 -30.5t30.5 -74.5t-30.5 -74t-74.5 -30t-74 30t-30 74z" />
    <glyph glyph-name="Eogonek" unicode="&#x118;" horiz-adv-x="1163" 
d="M924 0h-717v1434h809v-127h-674v-480h551v-127h-551v-573h694v-127q-61 -56 -87.5 -92t-26.5 -72q0 -32 18 -49.5t49 -17.5q32 0 57.5 20.5t59.5 65.5l80 -64q-56 -74 -103 -105.5t-114 -31.5q-74 0 -118 43.5t-44 114.5q0 106 117 188z" />
    <glyph glyph-name="eogonek" unicode="&#x119;" horiz-adv-x="1130" 
d="M1026 573v-57h-778q0 -185 86.5 -299.5t238.5 -114.5q116 0 188 52t130 170l113 -56q-110 -221 -291 -268q-61 -56 -88 -92t-27 -72q0 -32 18.5 -49.5t49.5 -17.5q32 0 57 20t59 66l80 -64q-56 -74 -103 -105.5t-114 -31.5q-74 0 -118 43.5t-44 114.5q0 95 95 172
q-208 0 -335.5 149.5t-127.5 382.5q0 232 127 382.5t331 150.5q200 0 326.5 -131.5t126.5 -344.5zM573 930q-124 0 -207 -81.5t-110 -213.5h639q-19 137 -102 216t-220 79z" />
    <glyph glyph-name="Ecaron" unicode="&#x11a;" horiz-adv-x="1163" 
d="M207 1434h809v-127h-674v-480h551v-127h-551v-573h694v-127h-829v1434zM592 1561l-295 309h147l170 -182l170 182h148l-295 -309h-45z" />
    <glyph glyph-name="ecaron" unicode="&#x11b;" horiz-adv-x="1130" 
d="M1026 573v-57h-778q0 -185 86.5 -299.5t238.5 -114.5q116 0 188 52t130 170l113 -56q-77 -154 -180.5 -219t-250.5 -65q-204 0 -331 150t-127 382t127 382.5t331 150.5q200 0 326.5 -131.5t126.5 -344.5zM573 930q-124 0 -207 -81.5t-110 -213.5h639q-19 137 -102 216
t-220 79zM553 1159l-295 309h148l169 -182l170 182h148l-295 -309h-45z" />
    <glyph glyph-name="Gcircumflex" unicode="&#x11c;" horiz-adv-x="1449" 
d="M1192 0l-16 221q-57 -110 -170.5 -173.5t-255.5 -63.5q-124 0 -235.5 47t-200 135.5t-141 231t-52.5 319.5t52.5 319.5t141 231t200 135.5t235.5 47q212 0 356 -111.5t197 -306.5l-134 -37q-48 157 -155 242.5t-264 85.5q-218 0 -353 -159.5t-135 -446.5t135 -446.5
t353 -159.5q204 0 313.5 124t112.5 361h-332v127h467v-723h-119zM436 1561l295 309h45l295 -309h-147l-170 182l-170 -182h-148z" />
    <glyph glyph-name="gcircumflex" unicode="&#x11d;" horiz-adv-x="1005" 
d="M186 702q0 154 100.5 250.5t250.5 96.5q94 0 178 -48l184 105l59 -109l-143 -79q72 -91 72 -216q0 -155 -99.5 -250.5t-250.5 -95.5q-110 0 -193 50q-84 -37 -84 -115q0 -52 35.5 -75t91.5 -23h266q141 0 225.5 -67.5t84.5 -203.5q0 -181 -116 -268.5t-308 -87.5
q-197 0 -311.5 90.5t-114.5 249.5q0 71 29.5 126.5t76.5 90.5q-82 50 -82 168q0 62 35 110t92 74q-78 95 -78 227zM639 82h-211q-54 0 -100 6q-92 -59 -92 -186q0 -103 76.5 -162t226.5 -59q146 0 223.5 62.5t77.5 162.5q0 176 -201 176zM313 702q0 -108 65 -171.5
t159 -63.5t158.5 63.5t64.5 171.5t-65 172t-158 64q-94 0 -159 -64t-65 -172zM221 1159l295 309h45l295 -309h-147l-170 182l-170 -182h-148z" />
    <glyph glyph-name="Gbreve" unicode="&#x11e;" horiz-adv-x="1449" 
d="M1192 0l-16 221q-57 -110 -170.5 -173.5t-255.5 -63.5q-124 0 -235.5 47t-200 135.5t-141 231t-52.5 319.5t52.5 319.5t141 231t200 135.5t235.5 47q212 0 356 -111.5t197 -306.5l-134 -37q-48 157 -155 242.5t-264 85.5q-218 0 -353 -159.5t-135 -446.5t135 -446.5
t353 -159.5q204 0 313.5 124t112.5 361h-332v127h467v-723h-119zM860 1835h105q0 -100 -57 -161.5t-158 -61.5q-99 0 -157 61.5t-58 161.5h104q0 -55 28.5 -88t82.5 -33q56 0 83 32.5t27 88.5z" />
    <glyph glyph-name="gbreve" unicode="&#x11f;" horiz-adv-x="1005" 
d="M186 702q0 154 100.5 250.5t250.5 96.5q94 0 178 -48l184 105l59 -109l-143 -79q72 -91 72 -216q0 -155 -99.5 -250.5t-250.5 -95.5q-110 0 -193 50q-84 -37 -84 -115q0 -52 35.5 -75t91.5 -23h266q141 0 225.5 -67.5t84.5 -203.5q0 -181 -116 -268.5t-308 -87.5
q-197 0 -311.5 90.5t-114.5 249.5q0 71 29.5 126.5t76.5 90.5q-82 50 -82 168q0 62 35 110t92 74q-78 95 -78 227zM639 82h-211q-54 0 -100 6q-92 -59 -92 -186q0 -103 76.5 -162t226.5 -59q146 0 223.5 62.5t77.5 162.5q0 176 -201 176zM313 702q0 -108 65 -171.5
t159 -63.5t158.5 63.5t64.5 171.5t-65 172t-158 64q-94 0 -159 -64t-65 -172zM647 1434h105q0 -100 -57 -162t-158 -62q-98 0 -156.5 62t-58.5 162h104q0 -54 28.5 -87.5t82.5 -33.5q56 0 83 32.5t27 88.5z" />
    <glyph glyph-name="Gdotaccent" unicode="&#x120;" horiz-adv-x="1449" 
d="M1192 0l-16 221q-57 -110 -170.5 -173.5t-255.5 -63.5q-124 0 -235.5 47t-200 135.5t-141 231t-52.5 319.5t52.5 319.5t141 231t200 135.5t235.5 47q212 0 356 -111.5t197 -306.5l-134 -37q-48 157 -155 242.5t-264 85.5q-218 0 -353 -159.5t-135 -446.5t135 -446.5
t353 -159.5q204 0 313.5 124t112.5 361h-332v127h467v-723h-119zM643 1722q0 44 30.5 74.5t74.5 30.5t74 -30.5t30 -74.5t-30 -74t-74 -30t-74.5 30t-30.5 74z" />
    <glyph glyph-name="gdotaccent" unicode="&#x121;" horiz-adv-x="1005" 
d="M186 702q0 154 100.5 250.5t250.5 96.5q94 0 178 -48l184 105l59 -109l-143 -79q72 -91 72 -216q0 -155 -99.5 -250.5t-250.5 -95.5q-110 0 -193 50q-84 -37 -84 -115q0 -52 35.5 -75t91.5 -23h266q141 0 225.5 -67.5t84.5 -203.5q0 -181 -116 -268.5t-308 -87.5
q-197 0 -311.5 90.5t-114.5 249.5q0 71 29.5 126.5t76.5 90.5q-82 50 -82 168q0 62 35 110t92 74q-78 95 -78 227zM639 82h-211q-54 0 -100 6q-92 -59 -92 -186q0 -103 76.5 -162t226.5 -59q146 0 223.5 62.5t77.5 162.5q0 176 -201 176zM313 702q0 -108 65 -171.5
t159 -63.5t158.5 63.5t64.5 171.5t-65 172t-158 64q-94 0 -159 -64t-65 -172zM434 1329q0 44 30.5 74.5t74.5 30.5t74 -30.5t30 -74.5t-30 -74t-74 -30t-74.5 30t-30.5 74z" />
    <glyph glyph-name="uni0122" unicode="&#x122;" horiz-adv-x="1449" 
d="M1192 0l-16 221q-57 -110 -170.5 -173.5t-255.5 -63.5q-124 0 -235.5 47t-200 135.5t-141 231t-52.5 319.5t52.5 319.5t141 231t200 135.5t235.5 47q212 0 356 -111.5t197 -306.5l-134 -37q-48 157 -155 242.5t-264 85.5q-218 0 -353 -159.5t-135 -446.5t135 -446.5
t353 -159.5q204 0 313.5 124t112.5 361h-332v127h467v-723h-119zM588 -444l102 338h189l-197 -338h-94z" />
    <glyph glyph-name="uni0123" unicode="&#x123;" horiz-adv-x="1005" 
d="M186 702q0 154 100.5 250.5t250.5 96.5q94 0 178 -48l184 105l59 -109l-143 -79q72 -91 72 -216q0 -155 -99.5 -250.5t-250.5 -95.5q-110 0 -193 50q-84 -37 -84 -115q0 -52 35.5 -75t91.5 -23h266q141 0 225.5 -67.5t84.5 -203.5q0 -181 -116 -268.5t-308 -87.5
q-197 0 -311.5 90.5t-114.5 249.5q0 71 29.5 126.5t76.5 90.5q-82 50 -82 168q0 62 35 110t92 74q-78 95 -78 227zM639 82h-211q-54 0 -100 6q-92 -59 -92 -186q0 -103 76.5 -162t226.5 -59q146 0 223.5 62.5t77.5 162.5q0 176 -201 176zM313 702q0 -108 65 -171.5
t159 -63.5t158.5 63.5t64.5 171.5t-65 172t-158 64q-94 0 -159 -64t-65 -172zM481 1569l125 -377h-100l-236 377h211z" />
    <glyph glyph-name="Hcircumflex" unicode="&#x124;" horiz-adv-x="1413" 
d="M1071 1434h135v-1434h-135v698h-729v-698h-135v1434h135v-609h729v609zM389 1561l295 309h45l295 -309h-147l-170 182l-170 -182h-148z" />
    <glyph glyph-name="hcircumflex" unicode="&#x125;" horiz-adv-x="1198" 
d="M1014 709v-709h-127v692q0 114 -55 176t-160 62q-145 0 -246.5 -136t-101.5 -354v-440h-127v1450h127v-643q51 118 153 180t215 62q153 0 237.5 -89t84.5 -251zM205 1561l295 309h45l295 -309h-148l-170 182l-170 -182h-147z" />
    <glyph glyph-name="Hbar" unicode="&#x126;" horiz-adv-x="1413" 
d="M66 1075v119h141v240h135v-240h729v240h135v-240h142v-119h-142v-1075h-135v698h-729v-698h-135v1075h-141zM342 825h729v250h-729v-250z" />
    <glyph glyph-name="hbar" unicode="&#x127;" horiz-adv-x="1198" 
d="M47 1184v114h150v152h127v-152h276v-114h-276v-377q51 118 153 180t215 62q153 0 237.5 -89t84.5 -251v-709h-127v692q0 114 -55 176t-160 62q-145 0 -246.5 -136t-101.5 -354v-440h-127v1184h-150z" />
    <glyph glyph-name="Itilde" unicode="&#x128;" horiz-adv-x="548" 
d="M342 1434v-1434h-135v1434h135zM12 1616l-82 63q36 66 89.5 104t113.5 38q46 0 85.5 -13t63 -29t55.5 -29t64 -13q78 0 138 73l82 -63q-36 -66 -89 -103.5t-114 -37.5q-46 0 -85.5 13t-63 29t-55.5 29t-64 13q-77 0 -138 -74z" />
    <glyph glyph-name="itilde" unicode="&#x129;" horiz-adv-x="573" 
d="M223 1032h127v-1032h-127v1032zM25 1214l-82 64q36 66 89 103.5t113 37.5q58 0 104.5 -21t85.5 -42t79 -21q76 0 137 74l82 -63q-36 -66 -89.5 -104t-113.5 -38q-46 0 -85.5 13t-63 29t-55.5 29t-64 13q-76 0 -137 -74z" />
    <glyph glyph-name="Imacron" unicode="&#x12a;" horiz-adv-x="548" 
d="M342 1434v-1434h-135v1434h135zM29 1665v115h493v-115h-493z" />
    <glyph glyph-name="imacron" unicode="&#x12b;" horiz-adv-x="573" 
d="M223 1032h127v-1032h-127v1032zM41 1262v114h494v-114h-494z" />
    <glyph glyph-name="Ibreve" unicode="&#x12c;" horiz-adv-x="548" 
d="M342 1434v-1434h-135v1434h135zM385 1835h104q0 -100 -57 -161.5t-158 -61.5q-99 0 -157 61.5t-58 161.5h105q0 -55 28 -88t82 -33q56 0 83.5 33t27.5 88z" />
    <glyph glyph-name="ibreve" unicode="&#x12d;" horiz-adv-x="573" 
d="M223 1032h127v-1032h-127v1032zM397 1434h105q0 -100 -57 -162t-158 -62q-98 0 -156.5 62t-58.5 162h104q0 -54 28.5 -87.5t82.5 -33.5q56 0 83 32.5t27 88.5z" />
    <glyph glyph-name="Iogonek" unicode="&#x12e;" horiz-adv-x="548" 
d="M229 0h-22v1434h135v-1434q-61 -56 -88 -92t-27 -72q0 -32 18.5 -49.5t49.5 -17.5q32 0 57.5 20.5t59.5 65.5l80 -64q-56 -74 -103.5 -105.5t-114.5 -31.5q-74 0 -117.5 43.5t-43.5 114.5q0 106 116 188z" />
    <glyph glyph-name="iogonek" unicode="&#x12f;" horiz-adv-x="573" 
d="M225 0v1032h127v-1032q-61 -56 -87.5 -92t-26.5 -72q0 -32 18 -49.5t49 -17.5q32 0 57.5 20.5t59.5 65.5l80 -64q-56 -74 -103 -105.5t-114 -31.5q-74 0 -118 43.5t-44 114.5q0 102 102 188zM184 1329q0 44 30.5 74.5t74.5 30.5t74 -30.5t30 -74.5t-30 -74t-74 -30
t-74.5 30t-30.5 74z" />
    <glyph glyph-name="Idotaccent" unicode="&#x130;" horiz-adv-x="548" 
d="M342 1434v-1434h-135v1434h135zM170 1722q0 44 30 74.5t74 30.5t74.5 -30.5t30.5 -74.5t-30.5 -74t-74.5 -30t-74 30t-30 74z" />
    <glyph glyph-name="dotlessi" unicode="&#x131;" horiz-adv-x="573" 
d="M223 1032h127v-1032h-127v1032z" />
    <glyph glyph-name="IJ" unicode="&#x132;" horiz-adv-x="1566" 
d="M342 1434v-1434h-135v1434h135zM1253 406v1028h136v-1014q0 -104 -33.5 -188.5t-90 -137.5t-128.5 -81.5t-152 -28.5q-92 0 -166.5 30.5t-122.5 82.5t-76.5 116t-39.5 137l139 31q18 -127 84 -198.5t182 -71.5q119 0 193.5 74t74.5 221z" />
    <glyph glyph-name="ij" unicode="&#x133;" horiz-adv-x="1056" 
d="M184 1329q0 44 30.5 74.5t74.5 30.5t74 -30.5t30 -74.5t-30 -74t-74 -30t-74.5 30t-30.5 74zM225 1032h127v-1032h-127v1032zM709 1032h127v-1163q0 -261 -256 -303l-29 119q85 24 121.5 67.5t36.5 134.5v1145zM668 1329q0 44 30 74.5t74 30.5t74.5 -30.5t30.5 -74.5
t-30.5 -74t-74.5 -30t-74 30t-30 74z" />
    <glyph glyph-name="Jcircumflex" unicode="&#x134;" horiz-adv-x="1017" 
d="M705 406v1028h135v-1014q0 -104 -33.5 -188.5t-90 -137.5t-128.5 -81.5t-152 -28.5q-92 0 -166.5 30.5t-122.5 82.5t-76.5 116t-39.5 137l139 31q18 -127 84 -198.5t182 -71.5q120 0 194.5 74t74.5 221zM455 1561l295 309h45l295 -309h-148l-170 182l-170 -182h-147z" />
    <glyph glyph-name="jcircumflex" unicode="&#x135;" horiz-adv-x="573" 
d="M225 1032h127v-1163q0 -261 -256 -303l-28 119q85 24 121 67.5t36 134.5v1145zM-31 1159l295 309h45l295 -309h-147l-170 182l-170 -182h-148z" />
    <glyph glyph-name="uni0136" unicode="&#x136;" horiz-adv-x="1157" 
d="M1124 0h-166l-616 760v-760h-135v1434h135v-613l559 613h172l-588 -643zM449 -444l102 338h188l-196 -338h-94z" />
    <glyph glyph-name="uni0137" unicode="&#x137;" horiz-adv-x="987" 
d="M197 1450h127v-875l432 457h159l-446 -473l483 -559h-161l-467 543v-543h-127v1450zM381 -444l102 338h189l-197 -338h-94z" />
    <glyph glyph-name="kgreenlandic" unicode="&#x138;" horiz-adv-x="987" 
d="M197 1032h127v-457l432 457h159l-446 -473l483 -559h-161l-467 543v-543h-127v1032z" />
    <glyph glyph-name="Lacute" unicode="&#x139;" horiz-adv-x="1054" 
d="M207 1434h135v-1307h672v-127h-807v1434zM209 1548l143 287h191l-234 -287h-100z" />
    <glyph glyph-name="lacute" unicode="&#x13a;" horiz-adv-x="499" 
d="M193 1450h126v-1450h-126v1450zM197 1548l143 287h190l-233 -287h-100z" />
    <glyph glyph-name="uni013B" unicode="&#x13b;" horiz-adv-x="1054" 
d="M207 1434h135v-1307h672v-127h-807v1434zM453 -444l102 338h188l-196 -338h-94z" />
    <glyph glyph-name="uni013C" unicode="&#x13c;" horiz-adv-x="499" 
d="M193 1450h126v-1450h-126v1450zM59 -444l103 338h188l-196 -338h-95z" />
    <glyph glyph-name="Lcaron" unicode="&#x13d;" horiz-adv-x="1054" 
d="M207 1434h135v-1307h672v-127h-807v1434zM657 1057l125 377h211l-235 -377h-101z" />
    <glyph glyph-name="lcaron" unicode="&#x13e;" horiz-adv-x="866" 
d="M193 1450h126v-1450h-126v1450zM498 1073l125 377h211l-236 -377h-100z" />
    <glyph glyph-name="Ldot" unicode="&#x13f;" horiz-adv-x="1054" 
d="M207 1434h135v-1307h672v-127h-807v1434zM666 715q0 45 29.5 74.5t74.5 29.5q44 0 74 -30t30 -74q0 -45 -30 -75t-74 -30q-46 0 -75 29.5t-29 75.5z" />
    <glyph glyph-name="ldot" unicode="&#x140;" horiz-adv-x="897" 
d="M193 1450h126v-1450h-126v1450zM520 715q0 45 30 74.5t75 29.5q44 0 74 -30t30 -74q0 -45 -29.5 -75t-74.5 -30q-46 0 -75.5 29.5t-29.5 75.5z" />
    <glyph glyph-name="Lslash" unicode="&#x141;" horiz-adv-x="1054" 
d="M207 1434h135v-662l262 152l55 -97l-317 -182v-518h672v-127h-807v569l-148 -86l-49 97l197 116v738z" />
    <glyph glyph-name="lslash" unicode="&#x142;" horiz-adv-x="663" 
d="M104 561l-55 96l213 119v674h127v-604l158 88l55 -96l-213 -119v-719h-127v649z" />
    <glyph glyph-name="Nacute" unicode="&#x143;" horiz-adv-x="1419" 
d="M1077 1434h135v-1434h-159l-711 1214v-1214h-135v1434h160l710 -1219v1219zM584 1548l143 287h191l-234 -287h-100z" />
    <glyph glyph-name="nacute" unicode="&#x144;" horiz-adv-x="1179" 
d="M995 709v-709h-127v692q0 115 -53 176.5t-158 61.5q-144 0 -238.5 -130.5t-94.5 -346.5v-453h-127v1032h127v-215q54 104 149 168t205 64q148 0 232.5 -89.5t84.5 -250.5zM422 1147l143 287h191l-234 -287h-100z" />
    <glyph glyph-name="uni0145" unicode="&#x145;" horiz-adv-x="1419" 
d="M1077 1434h135v-1434h-159l-711 1214v-1214h-135v1434h160l710 -1219v1219zM510 -444l102 338h189l-197 -338h-94z" />
    <glyph glyph-name="uni0146" unicode="&#x146;" horiz-adv-x="1179" 
d="M995 709v-709h-127v692q0 115 -53 176.5t-158 61.5q-144 0 -238.5 -130.5t-94.5 -346.5v-453h-127v1032h127v-215q54 104 149 168t205 64q148 0 232.5 -89.5t84.5 -250.5zM414 -444l102 338h189l-197 -338h-94z" />
    <glyph glyph-name="Ncaron" unicode="&#x147;" horiz-adv-x="1419" 
d="M1077 1434h135v-1434h-159l-711 1214v-1214h-135v1434h160l710 -1219v1219zM674 1561l-295 309h147l170 -182l170 182h148l-295 -309h-45z" />
    <glyph glyph-name="ncaron" unicode="&#x148;" horiz-adv-x="1179" 
d="M995 709v-709h-127v692q0 115 -53 176.5t-158 61.5q-144 0 -238.5 -130.5t-94.5 -346.5v-453h-127v1032h127v-215q54 104 149 168t205 64q148 0 232.5 -89.5t84.5 -250.5zM571 1159l-295 309h148l170 -182l170 182h147l-295 -309h-45z" />
    <glyph glyph-name="napostrophe" unicode="&#x149;" horiz-adv-x="1394" 
d="M1210 709v-709h-127v692q0 115 -53 176.5t-158 61.5q-144 0 -238.5 -130.5t-94.5 -346.5v-453h-127v1032h127v-215q54 104 149 168t205 64q148 0 232.5 -89.5t84.5 -250.5zM104 1073l125 377h211l-235 -377h-101z" />
    <glyph glyph-name="Eng" unicode="&#x14a;" horiz-adv-x="1419" 
d="M1077 -12v12l-735 1214v-1214h-135v1434h160l710 -1182v1182h135v-1432q0 -219 -104 -327.5t-281 -108.5v127q250 0 250 295z" />
    <glyph glyph-name="eng" unicode="&#x14b;" horiz-adv-x="1179" 
d="M868 692q0 115 -53 176.5t-158 61.5q-144 0 -238.5 -130.5t-94.5 -346.5v-453h-127v1032h127v-215q54 104 149 168t205 64q148 0 232.5 -89.5t84.5 -250.5v-840q0 -261 -256 -303l-28 119q85 24 121 67.5t36 134.5v805z" />
    <glyph glyph-name="Omacron" unicode="&#x14c;" horiz-adv-x="1499" 
d="M750 1450q126 0 240 -51.5t200 -144t137 -232t51 -305.5t-51 -305.5t-137 -232t-200 -144t-240 -51.5t-240 51.5t-200.5 144t-137.5 232t-51 305.5t51 305.5t137.5 232t200.5 144t240 51.5zM750 1323q-102 0 -189.5 -39t-154.5 -113t-105.5 -191t-38.5 -263t38.5 -263
t105.5 -191t154.5 -113t189.5 -39t189.5 39t154.5 113t105 191t38 263t-38 263t-105 191t-154.5 113t-189.5 39zM504 1665v115h493v-115h-493z" />
    <glyph glyph-name="omacron" unicode="&#x14d;" 
d="M115 516q0 102 33.5 197.5t94.5 170.5t153.5 120t201.5 45t201.5 -45t153.5 -120t94.5 -170.5t33.5 -197.5t-33.5 -197t-94.5 -170t-153.5 -120t-201.5 -45t-201.5 45t-153.5 120t-94.5 170t-33.5 197zM248 516q0 -79 22.5 -152t65 -132t110.5 -94.5t152 -35.5t152 35.5
t110.5 94.5t65 132t22.5 152t-22.5 152t-65 132t-110.5 94.5t-152 35.5t-152 -35.5t-110.5 -94.5t-65 -132t-22.5 -152zM352 1262v114h494v-114h-494z" />
    <glyph glyph-name="Obreve" unicode="&#x14e;" horiz-adv-x="1499" 
d="M750 1450q126 0 240 -51.5t200 -144t137 -232t51 -305.5t-51 -305.5t-137 -232t-200 -144t-240 -51.5t-240 51.5t-200.5 144t-137.5 232t-51 305.5t51 305.5t137.5 232t200.5 144t240 51.5zM750 1323q-102 0 -189.5 -39t-154.5 -113t-105.5 -191t-38.5 -263t38.5 -263
t105.5 -191t154.5 -113t189.5 -39t189.5 39t154.5 113t105 191t38 263t-38 263t-105 191t-154.5 113t-189.5 39zM860 1835h105q0 -100 -57 -161.5t-158 -61.5q-99 0 -157 61.5t-58 161.5h104q0 -55 28.5 -88t82.5 -33q56 0 83 32.5t27 88.5z" />
    <glyph glyph-name="obreve" unicode="&#x14f;" 
d="M115 516q0 102 33.5 197.5t94.5 170.5t153.5 120t201.5 45t201.5 -45t153.5 -120t94.5 -170.5t33.5 -197.5t-33.5 -197t-94.5 -170t-153.5 -120t-201.5 -45t-201.5 45t-153.5 120t-94.5 170t-33.5 197zM248 516q0 -79 22.5 -152t65 -132t110.5 -94.5t152 -35.5t152 35.5
t110.5 94.5t65 132t22.5 152t-22.5 152t-65 132t-110.5 94.5t-152 35.5t-152 -35.5t-110.5 -94.5t-65 -132t-22.5 -152zM709 1434h104q0 -100 -57 -162t-158 -62q-98 0 -156.5 62t-58.5 162h104q0 -54 28.5 -87.5t82.5 -33.5q56 0 83.5 33t27.5 88z" />
    <glyph glyph-name="Ohungarumlaut" unicode="&#x150;" horiz-adv-x="1499" 
d="M750 1450q126 0 240 -51.5t200 -144t137 -232t51 -305.5t-51 -305.5t-137 -232t-200 -144t-240 -51.5t-240 51.5t-200.5 144t-137.5 232t-51 305.5t51 305.5t137.5 232t200.5 144t240 51.5zM750 1323q-102 0 -189.5 -39t-154.5 -113t-105.5 -191t-38.5 -263t38.5 -263
t105.5 -191t154.5 -113t189.5 -39t189.5 39t154.5 113t105 191t38 263t-38 263t-105 191t-154.5 113t-189.5 39zM487 1548l144 287h190l-233 -287h-101zM799 1548l143 287h191l-234 -287h-100z" />
    <glyph glyph-name="ohungarumlaut" unicode="&#x151;" 
d="M115 516q0 102 33.5 197.5t94.5 170.5t153.5 120t201.5 45t201.5 -45t153.5 -120t94.5 -170.5t33.5 -197.5t-33.5 -197t-94.5 -170t-153.5 -120t-201.5 -45t-201.5 45t-153.5 120t-94.5 170t-33.5 197zM248 516q0 -79 22.5 -152t65 -132t110.5 -94.5t152 -35.5t152 35.5
t110.5 94.5t65 132t22.5 152t-22.5 152t-65 132t-110.5 94.5t-152 35.5t-152 -35.5t-110.5 -94.5t-65 -132t-22.5 -152zM336 1147l143 287h191l-234 -287h-100zM647 1147l144 287h190l-233 -287h-101z" />
    <glyph glyph-name="OE" unicode="&#x152;" horiz-adv-x="2199" 
d="M1243 1434h809v-127h-674v-480h551v-127h-551v-573h695v-127h-830v246q-87 -125 -216.5 -193.5t-276.5 -68.5q-126 0 -240 51.5t-200.5 144t-137.5 232t-51 305.5t51 305.5t137.5 232t200.5 144t240 51.5q147 0 276.5 -68.5t216.5 -193.5v246zM750 1323
q-102 0 -189.5 -39t-154.5 -113t-105.5 -191t-38.5 -263t38.5 -263t105.5 -191t154.5 -113t189.5 -39t189.5 39t154.5 113t105 191t38 263t-38 263t-105 191t-154.5 113t-189.5 39z" />
    <glyph glyph-name="oe" unicode="&#x153;" horiz-adv-x="1964" 
d="M1860 573v-57h-779v-18q5 -179 91 -287.5t235 -108.5q116 0 190 52t125 161l115 -47q-77 -154 -180 -219t-250 -65q-133 0 -236 66t-161 183q-63 -114 -169 -181.5t-243 -67.5q-109 0 -201.5 45t-153.5 120t-94.5 170t-33.5 197t33.5 197.5t94.5 170.5t153.5 120
t201.5 45q137 0 243 -68t169 -182q58 117 161 183.5t236 66.5q200 0 326.5 -131.5t126.5 -344.5zM248 516q0 -79 22.5 -152t65 -132t110.5 -94.5t152 -35.5t152 35.5t110.5 94.5t65 132t22.5 152t-22.5 152t-65 132t-110.5 94.5t-152 35.5t-152 -35.5t-110.5 -94.5t-65 -132
t-22.5 -152zM1407 930q-124 0 -205.5 -81.5t-109.5 -213.5h637q-19 137 -102 216t-220 79z" />
    <glyph glyph-name="Racute" unicode="&#x154;" horiz-adv-x="1302" 
d="M1059 0l-449 709h-268v-709h-135v1434h461q194 0 301.5 -91.5t107.5 -271.5q0 -156 -81.5 -245.5t-231.5 -110.5l446 -715h-151zM659 1307h-317v-471h317q140 0 210.5 57t70.5 178t-70.5 178.5t-210.5 57.5zM449 1548l143 287h190l-233 -287h-100z" />
    <glyph glyph-name="racute" unicode="&#x155;" horiz-adv-x="817" 
d="M782 1014l-28 -121q-67 37 -146 37q-124 0 -204 -138.5t-80 -392.5v-399h-127v1032h127v-184q97 201 303 201q66 0 155 -35zM385 1147l143 287h191l-234 -287h-100z" />
    <glyph glyph-name="uni0156" unicode="&#x156;" horiz-adv-x="1302" 
d="M1059 0l-449 709h-268v-709h-135v1434h461q194 0 301.5 -91.5t107.5 -271.5q0 -156 -81.5 -245.5t-231.5 -110.5l446 -715h-151zM659 1307h-317v-471h317q140 0 210.5 57t70.5 178t-70.5 178.5t-210.5 57.5zM494 -444l102 338h188l-196 -338h-94z" />
    <glyph glyph-name="uni0157" unicode="&#x157;" horiz-adv-x="817" 
d="M782 1014l-28 -121q-67 37 -146 37q-124 0 -204 -138.5t-80 -392.5v-399h-127v1032h127v-184q97 201 303 201q66 0 155 -35zM248 -444l102 338h189l-197 -338h-94z" />
    <glyph glyph-name="Rcaron" unicode="&#x158;" horiz-adv-x="1302" 
d="M1059 0l-449 709h-268v-709h-135v1434h461q194 0 301.5 -91.5t107.5 -271.5q0 -156 -81.5 -245.5t-231.5 -110.5l446 -715h-151zM659 1307h-317v-471h317q140 0 210.5 57t70.5 178t-70.5 178.5t-210.5 57.5zM565 1561l-295 309h148l170 -182l170 182h147l-295 -309h-45z
" />
    <glyph glyph-name="rcaron" unicode="&#x159;" horiz-adv-x="817" 
d="M782 1014l-28 -121q-67 37 -146 37q-124 0 -204 -138.5t-80 -392.5v-399h-127v1032h127v-184q97 201 303 201q66 0 155 -35zM446 1159l-294 309h147l170 -182l170 182h147l-294 -309h-46z" />
    <glyph glyph-name="Sacute" unicode="&#x15a;" horiz-adv-x="1036" 
d="M856 1229l-111 -70q-48 91 -106.5 127.5t-130.5 36.5q-94 0 -146.5 -63.5t-52.5 -145.5q0 -56 21.5 -101t57.5 -76t83 -57.5t99 -50.5t103.5 -49.5t98.5 -60t83 -76t57.5 -103t21.5 -137.5q0 -190 -116.5 -304.5t-293.5 -114.5q-174 0 -287.5 106.5t-150.5 280.5l117 69
q16 -56 32.5 -100t43.5 -89t59.5 -74t80 -47.5t105.5 -18.5q120 0 194.5 74t74.5 214q0 57 -21 103.5t-57 79t-82.5 60.5t-97.5 53t-102.5 50.5t-98 58.5t-82.5 72.5t-57 96t-21 125.5q0 156 97.5 254t236.5 98q61 0 110 -12t82.5 -30t64 -49t49 -59t42.5 -71zM412 1548
l143 287h190l-233 -287h-100z" />
    <glyph glyph-name="sacute" unicode="&#x15b;" horiz-adv-x="921" 
d="M471 1049q173 0 287 -160l-90 -78q-48 63 -95 91t-108 28q-67 0 -109.5 -43t-42.5 -113q0 -37 21 -67.5t55.5 -51.5t78.5 -42t90 -38.5t90 -43.5t78.5 -54.5t55.5 -72.5t21 -97q0 -149 -86 -236t-234 -87q-79 0 -144 24.5t-109.5 66.5t-73.5 89.5t-45 101.5l112 60
q39 -108 97 -166t163 -58q90 0 138.5 49.5t48.5 135.5q0 48 -27 84t-70 59.5t-95 44t-104 45t-95 55.5t-70 81t-27 116q0 123 82 200t207 77zM354 1147l144 287h190l-233 -287h-101z" />
    <glyph glyph-name="Scircumflex" unicode="&#x15c;" horiz-adv-x="1036" 
d="M856 1229l-111 -70q-48 91 -106.5 127.5t-130.5 36.5q-94 0 -146.5 -63.5t-52.5 -145.5q0 -56 21.5 -101t57.5 -76t83 -57.5t99 -50.5t103.5 -49.5t98.5 -60t83 -76t57.5 -103t21.5 -137.5q0 -190 -116.5 -304.5t-293.5 -114.5q-174 0 -287.5 106.5t-150.5 280.5l117 69
q16 -56 32.5 -100t43.5 -89t59.5 -74t80 -47.5t105.5 -18.5q120 0 194.5 74t74.5 214q0 57 -21 103.5t-57 79t-82.5 60.5t-97.5 53t-102.5 50.5t-98 58.5t-82.5 72.5t-57 96t-21 125.5q0 156 97.5 254t236.5 98q61 0 110 -12t82.5 -30t64 -49t49 -59t42.5 -71zM195 1561
l294 309h46l294 -309h-147l-170 182l-170 -182h-147z" />
    <glyph glyph-name="scircumflex" unicode="&#x15d;" horiz-adv-x="921" 
d="M471 1049q173 0 287 -160l-90 -78q-48 63 -95 91t-108 28q-67 0 -109.5 -43t-42.5 -113q0 -37 21 -67.5t55.5 -51.5t78.5 -42t90 -38.5t90 -43.5t78.5 -54.5t55.5 -72.5t21 -97q0 -149 -86 -236t-234 -87q-79 0 -144 24.5t-109.5 66.5t-73.5 89.5t-45 101.5l112 60
q39 -108 97 -166t163 -58q90 0 138.5 49.5t48.5 135.5q0 48 -27 84t-70 59.5t-95 44t-104 45t-95 55.5t-70 81t-27 116q0 123 82 200t207 77zM154 1159l295 309h45l294 -309h-147l-170 182l-170 -182h-147z" />
    <glyph glyph-name="Scedilla" unicode="&#x15e;" horiz-adv-x="1036" 
d="M856 1229l-111 -70q-48 91 -106.5 127.5t-130.5 36.5q-94 0 -146.5 -63.5t-52.5 -145.5q0 -56 21.5 -101t57.5 -76t83 -57.5t99 -50.5t103.5 -49.5t98.5 -60t83 -76t57.5 -103t21.5 -137.5q0 -190 -116.5 -304.5t-293.5 -114.5q-174 0 -287.5 106.5t-150.5 280.5l117 69
q16 -56 32.5 -100t43.5 -89t59.5 -74t80 -47.5t105.5 -18.5q120 0 194.5 74t74.5 214q0 57 -21 103.5t-57 79t-82.5 60.5t-97.5 53t-102.5 50.5t-98 58.5t-82.5 72.5t-57 96t-21 125.5q0 156 97.5 254t236.5 98q61 0 110 -12t82.5 -30t64 -49t49 -59t42.5 -71zM612 -123
l-166 -315l-147 63l201 252h112z" />
    <glyph glyph-name="scedilla" unicode="&#x15f;" horiz-adv-x="921" 
d="M471 1049q173 0 287 -160l-90 -78q-48 63 -95 91t-108 28q-67 0 -109.5 -43t-42.5 -113q0 -37 21 -67.5t55.5 -51.5t78.5 -42t90 -38.5t90 -43.5t78.5 -54.5t55.5 -72.5t21 -97q0 -149 -86 -236t-234 -87q-79 0 -144 24.5t-109.5 66.5t-73.5 89.5t-45 101.5l112 60
q39 -108 97 -166t163 -58q90 0 138.5 49.5t48.5 135.5q0 48 -27 84t-70 59.5t-95 44t-104 45t-95 55.5t-70 81t-27 116q0 123 82 200t207 77zM594 -123l-166 -315l-147 63l200 252h113z" />
    <glyph glyph-name="Scaron" unicode="&#x160;" horiz-adv-x="1036" 
d="M856 1229l-111 -70q-48 91 -106.5 127.5t-130.5 36.5q-94 0 -146.5 -63.5t-52.5 -145.5q0 -56 21.5 -101t57.5 -76t83 -57.5t99 -50.5t103.5 -49.5t98.5 -60t83 -76t57.5 -103t21.5 -137.5q0 -190 -116.5 -304.5t-293.5 -114.5q-174 0 -287.5 106.5t-150.5 280.5l117 69
q16 -56 32.5 -100t43.5 -89t59.5 -74t80 -47.5t105.5 -18.5q120 0 194.5 74t74.5 214q0 57 -21 103.5t-57 79t-82.5 60.5t-97.5 53t-102.5 50.5t-98 58.5t-82.5 72.5t-57 96t-21 125.5q0 156 97.5 254t236.5 98q61 0 110 -12t82.5 -30t64 -49t49 -59t42.5 -71zM494 1561
l-295 309h147l170 -182l170 182h148l-295 -309h-45z" />
    <glyph glyph-name="scaron" unicode="&#x161;" horiz-adv-x="921" 
d="M471 1049q173 0 287 -160l-90 -78q-48 63 -95 91t-108 28q-67 0 -109.5 -43t-42.5 -113q0 -37 21 -67.5t55.5 -51.5t78.5 -42t90 -38.5t90 -43.5t78.5 -54.5t55.5 -72.5t21 -97q0 -149 -86 -236t-234 -87q-79 0 -144 24.5t-109.5 66.5t-73.5 89.5t-45 101.5l112 60
q39 -108 97 -166t163 -58q90 0 138.5 49.5t48.5 135.5q0 48 -27 84t-70 59.5t-95 44t-104 45t-95 55.5t-70 81t-27 116q0 123 82 200t207 77zM449 1159l-295 309h147l170 -182l170 182h147l-294 -309h-45z" />
    <glyph glyph-name="uni0162" unicode="&#x162;" horiz-adv-x="1056" 
d="M33 1307v127h991v-127h-428v-1307h-135v1307h-428zM328 -444l102 338h188l-196 -338h-94z" />
    <glyph glyph-name="uni0163" unicode="&#x163;" horiz-adv-x="759" 
d="M55 913v119h183v334l127 84v-418h278v-119h-278v-641q0 -85 39 -127.5t108 -42.5q78 0 129 33l35 -115q-65 -36 -180 -36q-119 0 -188.5 76.5t-69.5 232.5v620h-183zM289 -444l102 338h189l-197 -338h-94z" />
    <glyph glyph-name="Tcaron" unicode="&#x164;" horiz-adv-x="1056" 
d="M33 1307v127h991v-127h-428v-1307h-135v1307h-428zM506 1561l-295 309h147l170 -182l170 182h148l-295 -309h-45z" />
    <glyph glyph-name="tcaron" unicode="&#x165;" horiz-adv-x="1130" 
d="M55 913v119h183v334l127 84v-418h278v-119h-278v-641q0 -85 39 -127.5t108 -42.5q78 0 129 33l35 -115q-65 -36 -180 -36q-119 0 -188.5 76.5t-69.5 232.5v620h-183zM805 1073l125 377h211l-236 -377h-100z" />
    <glyph glyph-name="Tbar" unicode="&#x166;" horiz-adv-x="1056" 
d="M96 821v119h365v367h-428v127h991v-127h-428v-367h365v-119h-365v-821h-135v821h-365z" />
    <glyph glyph-name="tbar" unicode="&#x167;" horiz-adv-x="759" 
d="M55 913v119h183v334l127 84v-418h278v-119h-278v-256h247v-114h-247v-271q0 -85 39 -127.5t108 -42.5q78 0 129 33l35 -115q-65 -36 -180 -36q-119 0 -188.5 76.5t-69.5 232.5v250h-152v114h152v256h-183z" />
    <glyph glyph-name="Utilde" unicode="&#x168;" horiz-adv-x="1339" 
d="M178 459v975h135v-988q0 -142 93 -238.5t264 -96.5t263.5 96t92.5 239v988h135v-975q0 -115 -40 -206.5t-108.5 -149.5t-156 -88.5t-186.5 -30.5q-79 0 -151 19t-134.5 58t-108.5 94.5t-72 133.5t-26 170zM408 1616l-82 63q36 66 89 104t113 38q58 0 104.5 -21t85.5 -42
t79 -21q77 0 137 73l82 -63q-36 -66 -89 -103.5t-114 -37.5q-46 0 -85.5 13t-63 29t-55.5 29t-64 13q-76 0 -137 -74z" />
    <glyph glyph-name="utilde" unicode="&#x169;" horiz-adv-x="1179" 
d="M184 324v708h127v-692q0 -115 53 -176.5t158 -61.5q144 0 239 131t95 347v452h127v-1032h-127v215q-54 -104 -149 -167.5t-205 -63.5q-148 0 -233 89.5t-85 250.5zM326 1214l-82 64q36 66 89 103.5t113 37.5q58 0 104.5 -21t85.5 -42t79 -21q76 0 137 74l82 -63
q-36 -66 -89.5 -104t-113.5 -38q-46 0 -85.5 13t-63 29t-55.5 29t-64 13q-76 0 -137 -74z" />
    <glyph glyph-name="Umacron" unicode="&#x16a;" horiz-adv-x="1339" 
d="M178 459v975h135v-988q0 -142 93 -238.5t264 -96.5t263.5 96t92.5 239v988h135v-975q0 -115 -40 -206.5t-108.5 -149.5t-156 -88.5t-186.5 -30.5q-79 0 -151 19t-134.5 58t-108.5 94.5t-72 133.5t-26 170zM424 1665v115h494v-115h-494z" />
    <glyph glyph-name="umacron" unicode="&#x16b;" horiz-adv-x="1179" 
d="M184 324v708h127v-692q0 -115 53 -176.5t158 -61.5q144 0 239 131t95 347v452h127v-1032h-127v215q-54 -104 -149 -167.5t-205 -63.5q-148 0 -233 89.5t-85 250.5zM332 1262v114h493v-114h-493z" />
    <glyph glyph-name="Ubreve" unicode="&#x16c;" horiz-adv-x="1339" 
d="M178 459v975h135v-988q0 -142 93 -238.5t264 -96.5t263.5 96t92.5 239v988h135v-975q0 -115 -40 -206.5t-108.5 -149.5t-156 -88.5t-186.5 -30.5q-79 0 -151 19t-134.5 58t-108.5 94.5t-72 133.5t-26 170zM780 1835h105q0 -100 -57 -161.5t-158 -61.5q-99 0 -157 61.5
t-58 161.5h104q0 -55 28.5 -88t82.5 -33q56 0 83 32.5t27 88.5z" />
    <glyph glyph-name="ubreve" unicode="&#x16d;" horiz-adv-x="1179" 
d="M184 324v708h127v-692q0 -115 53 -176.5t158 -61.5q144 0 239 131t95 347v452h127v-1032h-127v215q-54 -104 -149 -167.5t-205 -63.5q-148 0 -233 89.5t-85 250.5zM682 1434h104q0 -100 -57 -162t-158 -62q-98 0 -156.5 62t-58.5 162h105q0 -55 28 -88t82 -33
q56 0 83.5 33t27.5 88z" />
    <glyph glyph-name="Uring" unicode="&#x16e;" horiz-adv-x="1339" 
d="M178 459v975h135v-988q0 -142 93 -238.5t264 -96.5t263.5 96t92.5 239v988h135v-975q0 -115 -40 -206.5t-108.5 -149.5t-156 -88.5t-186.5 -30.5q-79 0 -151 19t-134.5 58t-108.5 94.5t-72 133.5t-26 170zM471 1739q0 85 57 142.5t142 57.5q87 0 142.5 -57t55.5 -143
q0 -83 -55.5 -138t-142.5 -55q-85 0 -142 55.5t-57 137.5zM565 1741q0 -46 29.5 -76.5t75.5 -30.5q47 0 75.5 30.5t28.5 76.5q0 48 -28.5 79t-75.5 31q-46 0 -75.5 -31.5t-29.5 -78.5z" />
    <glyph glyph-name="uring" unicode="&#x16f;" horiz-adv-x="1179" 
d="M184 324v708h127v-692q0 -115 53 -176.5t158 -61.5q144 0 239 131t95 347v452h127v-1032h-127v215q-54 -104 -149 -167.5t-205 -63.5q-148 0 -233 89.5t-85 250.5zM387 1337q0 85 57 143t142 58q87 0 142.5 -57.5t55.5 -143.5q0 -83 -55.5 -137.5t-142.5 -54.5
q-85 0 -142 55t-57 137zM481 1339q0 -46 29.5 -76t75.5 -30q47 0 75.5 30t28.5 76q0 48 -28.5 79.5t-75.5 31.5q-46 0 -75.5 -31.5t-29.5 -79.5z" />
    <glyph glyph-name="Uhungarumlaut" unicode="&#x170;" horiz-adv-x="1339" 
d="M178 459v975h135v-988q0 -142 93 -238.5t264 -96.5t263.5 96t92.5 239v988h135v-975q0 -115 -40 -206.5t-108.5 -149.5t-156 -88.5t-186.5 -30.5q-79 0 -151 19t-134.5 58t-108.5 94.5t-72 133.5t-26 170zM391 1548l144 287h190l-233 -287h-101zM702 1548l144 287h190
l-233 -287h-101z" />
    <glyph glyph-name="uhungarumlaut" unicode="&#x171;" horiz-adv-x="1179" 
d="M184 324v708h127v-692q0 -115 53 -176.5t158 -61.5q144 0 239 131t95 347v452h127v-1032h-127v215q-54 -104 -149 -167.5t-205 -63.5q-148 0 -233 89.5t-85 250.5zM322 1147l143 287h190l-233 -287h-100zM633 1147l143 287h191l-234 -287h-100z" />
    <glyph glyph-name="Uogonek" unicode="&#x172;" horiz-adv-x="1339" 
d="M178 459v975h135v-988q0 -142 93 -238.5t264 -96.5t263.5 96t92.5 239v988h135v-975q0 -187 -98.5 -305t-257.5 -154q-60 -57 -86.5 -92.5t-26.5 -71.5q0 -32 18.5 -49.5t49.5 -17.5q32 0 57.5 20.5t59.5 65.5l79 -64q-56 -74 -103 -105.5t-114 -31.5q-74 0 -117.5 43.5
t-43.5 114.5q0 96 94 172q-100 0 -188 30.5t-157 88.5t-109 149.5t-40 206.5z" />
    <glyph glyph-name="uogonek" unicode="&#x173;" horiz-adv-x="1179" 
d="M856 0v215q-54 -104 -149 -167.5t-205 -63.5q-148 0 -233 89.5t-85 250.5v708h127v-692q0 -115 53 -176.5t158 -61.5q144 0 239 131t95 347v452h127v-1032q-61 -56 -88 -92t-27 -72q0 -32 18.5 -49.5t49.5 -17.5q32 0 57.5 20.5t59.5 65.5l80 -64q-56 -74 -103.5 -105.5
t-114.5 -31.5q-74 0 -117.5 43.5t-43.5 114.5q0 104 102 188z" />
    <glyph glyph-name="Wcircumflex" unicode="&#x174;" horiz-adv-x="1841" 
d="M1636 1434h140l-394 -1434h-137l-325 1073l-324 -1073h-137l-393 1434h139l325 -1225l330 1073h121l330 -1073zM602 1561l295 309h45l295 -309h-147l-170 182l-170 -182h-148z" />
    <glyph glyph-name="wcircumflex" unicode="&#x175;" horiz-adv-x="1470" 
d="M1257 1032h134l-310 -1032h-131l-215 844l-215 -844h-131l-309 1032h133l242 -852l217 852h127l217 -852zM418 1159l295 309h45l295 -309h-148l-170 182l-170 -182h-147z" />
    <glyph glyph-name="Ycircumflex" unicode="&#x176;" horiz-adv-x="1024" 
d="M444 623l-432 811h158l342 -678l342 678h158l-432 -811v-623h-136v623zM195 1561l294 309h46l294 -309h-147l-170 182l-170 -182h-147z" />
    <glyph glyph-name="ycircumflex" unicode="&#x177;" horiz-adv-x="925" 
d="M762 1032h133l-512 -1450h-127l150 424l-371 1026h133l307 -835zM158 1159l295 309h45l295 -309h-148l-170 182l-170 -182h-147z" />
    <glyph glyph-name="Ydieresis" unicode="&#x178;" horiz-adv-x="1024" 
d="M444 623l-432 811h158l342 -678l342 678h158l-432 -811v-623h-136v623zM254 1733q0 43 28.5 72.5t71.5 29.5t72 -29.5t29 -72.5q0 -41 -29 -70t-72 -29q-42 0 -71 29t-29 70zM569 1733q0 42 29.5 72t69.5 30q43 0 72.5 -29.5t29.5 -72.5q0 -41 -29.5 -70t-72.5 -29
q-40 0 -69.5 29t-29.5 70z" />
    <glyph glyph-name="Zacute" unicode="&#x179;" horiz-adv-x="1122" 
d="M123 1307v127h876v-66l-712 -1241h727v-127h-916v66l721 1241h-696zM426 1548l143 287h191l-234 -287h-100z" />
    <glyph glyph-name="zacute" unicode="&#x17a;" horiz-adv-x="933" 
d="M139 913v119h670v-69l-520 -844h542v-119h-716v61l526 852h-502zM356 1147l144 287h190l-233 -287h-101z" />
    <glyph glyph-name="Zdotaccent" unicode="&#x17b;" horiz-adv-x="1122" 
d="M123 1307v127h876v-66l-712 -1241h727v-127h-916v66l721 1241h-696zM449 1722q0 44 30 74.5t74 30.5t74 -30.5t30 -74.5t-30 -74t-74 -30t-74 30t-30 74z" />
    <glyph glyph-name="zdotaccent" unicode="&#x17c;" horiz-adv-x="933" 
d="M139 913v119h670v-69l-520 -844h542v-119h-716v61l526 852h-502zM377 1329q0 44 30 74.5t74 30.5t74.5 -30.5t30.5 -74.5t-30.5 -74t-74.5 -30t-74 30t-30 74z" />
    <glyph glyph-name="Zcaron" unicode="&#x17d;" horiz-adv-x="1122" 
d="M123 1307v127h876v-66l-712 -1241h727v-127h-916v66l721 1241h-696zM555 1561l-295 309h148l170 -182l170 182h147l-295 -309h-45z" />
    <glyph glyph-name="zcaron" unicode="&#x17e;" horiz-adv-x="933" 
d="M139 913v119h670v-69l-520 -844h542v-119h-716v61l526 852h-502zM446 1159l-294 309h147l170 -182l170 182h147l-294 -309h-46z" />
    <glyph glyph-name="longs" unicode="&#x17f;" horiz-adv-x="735" 
d="M102 913v119h164v66q0 178 83 265t237 87q71 0 123 -27l-27 -116q-54 24 -107 24q-87 0 -134.5 -53.5t-47.5 -159.5v-1118h-127v913h-164z" />
    <glyph glyph-name="uni018E" unicode="&#x18e;" horiz-adv-x="1163" 
d="M956 0h-809v127h674v479h-551v127h551v574h-694v127h829v-1434z" />
    <glyph glyph-name="uni018F" unicode="&#x18f;" horiz-adv-x="1130" 
d="M104 459v57h779q0 185 -87 299.5t-239 114.5q-116 0 -187.5 -51.5t-129.5 -169.5l-113 55q77 154 180 219.5t250 65.5q204 0 331.5 -150.5t127.5 -382.5t-127.5 -382t-331.5 -150q-201 0 -327 131t-126 344zM557 102q124 0 207 81.5t110 213.5h-638q19 -137 102 -216
t219 -79z" />
    <glyph glyph-name="florin" unicode="&#x192;" horiz-adv-x="958" 
d="M236 913l24 119h184l13 66q35 190 129.5 271t251.5 81q77 0 125 -27l-50 -116q-46 24 -102 24q-180 0 -223 -213l-17 -86h250l-24 -119h-250l-193 -995q-37 -192 -126.5 -272t-245.5 -80q-88 0 -134 26l50 117q50 -24 102 -24q97 0 149 51t74 162l197 1015h-184z" />
    <glyph glyph-name="uni01B5" unicode="&#x1b5;" horiz-adv-x="1122" 
d="M123 1307v127h876v-66l-325 -567h274v-119h-344l-317 -555h727v-127h-916v66l359 616h-285v119h352l295 506h-696z" />
    <glyph glyph-name="uni01B6" unicode="&#x1b6;" horiz-adv-x="933" 
d="M139 913v119h670v-69l-225 -365h184v-115h-254l-225 -364h542v-119h-716v61l260 422h-205v115h276l195 315h-502z" />
    <glyph glyph-name="Aringacute" unicode="&#x1fa;" 
d="M539 1434h118l519 -1434h-140l-143 408h-590l-143 -408h-140zM598 1249l-252 -714h504zM399 1686q0 85 57 142.5t142 57.5q87 0 143 -57t56 -143q0 -83 -56 -138t-143 -55q-85 0 -142 55.5t-57 137.5zM494 1688q0 -46 29.5 -76.5t74.5 -30.5q47 0 75.5 30.5t28.5 76.5
q0 48 -28.5 79t-75.5 31q-45 0 -74.5 -31t-29.5 -79zM471 1962l143 287h191l-234 -287h-100z" />
    <glyph glyph-name="aringacute" unicode="&#x1fb;" horiz-adv-x="1036" 
d="M250 297q0 -94 53.5 -144.5t147.5 -50.5q53 0 105.5 20t100.5 62t77.5 118t29.5 175v39h-168q-173 0 -259.5 -57.5t-86.5 -161.5zM891 684v-684h-96l-31 160q-46 -80 -127.5 -128t-198.5 -48q-67 0 -123 17.5t-101.5 53.5t-71 98t-25.5 144q0 168 126 253t349 85h172v45
q0 129 -64.5 189.5t-173.5 60.5q-99 0 -159 -53.5t-86 -139.5l-123 29q21 128 124.5 205.5t243.5 77.5q158 0 261.5 -97.5t103.5 -267.5zM332 1337q0 85 57 143t141 58q87 0 143 -57.5t56 -143.5q0 -82 -56 -137t-143 -55q-85 0 -141.5 55t-56.5 137zM426 1339q0 -46 29 -76
t75 -30q47 0 76 30t29 76q0 48 -29 79.5t-76 31.5q-45 0 -74.5 -31.5t-29.5 -79.5zM446 1610l144 286h190l-233 -286h-101z" />
    <glyph glyph-name="AEacute" unicode="&#x1fc;" horiz-adv-x="1681" 
d="M643 1434h891v-127h-674v-480h551v-127h-551v-573h694v-127h-829v408h-391l-178 -408h-142zM702 1249l-313 -714h336v714h-23zM967 1548l143 287h190l-233 -287h-100z" />
    <glyph glyph-name="aeacute" unicode="&#x1fd;" horiz-adv-x="1779" 
d="M1675 573v-57h-778q0 -185 87 -299.5t239 -114.5q116 0 190 52t125 161l115 -47q-77 -154 -180 -219t-250 -65q-137 0 -243.5 70.5t-156.5 189.5q-48 -130 -150 -195t-235 -65q-67 0 -123 17.5t-101.5 53.5t-71 98t-25.5 144q0 168 126 253t349 85h172v45
q0 129 -64.5 189.5t-173.5 60.5q-99 0 -159 -53.5t-86 -139.5l-123 29q21 128 124.5 205.5t243.5 77.5q115 0 204.5 -53.5t129.5 -145.5q61 94 154.5 146.5t208.5 52.5q200 0 326 -131.5t126 -344.5zM250 297q0 -94 53.5 -144.5t147.5 -50.5q53 0 105.5 20t100.5 62
t77.5 118t29.5 175v39h-168q-173 0 -259.5 -57.5t-86.5 -161.5zM1223 930q-124 0 -207.5 -81.5t-110.5 -213.5h639q-19 137 -102 216t-219 79zM723 1147l143 287h191l-234 -287h-100z" />
    <glyph glyph-name="circumflex" unicode="&#x2c6;" horiz-adv-x="757" 
d="M61 1159l295 309h45l295 -309h-147l-170 182l-170 -182h-148z" />
    <glyph glyph-name="caron" unicode="&#x2c7;" horiz-adv-x="757" 
d="M356 1159l-295 309h148l170 -182l170 182h147l-295 -309h-45z" />
    <glyph glyph-name="breve" unicode="&#x2d8;" horiz-adv-x="489" 
d="M348 1434h105q0 -100 -57 -162t-158 -62q-98 0 -156.5 62t-58.5 162h104q0 -54 28.5 -87.5t82.5 -33.5q56 0 83 32.5t27 88.5z" />
    <glyph glyph-name="dotaccent" unicode="&#x2d9;" horiz-adv-x="512" 
d="M152 1329q0 44 30 74.5t74 30.5t74 -30.5t30 -74.5t-30 -74t-74 -30t-74 30t-30 74z" />
    <glyph glyph-name="ring" unicode="&#x2da;" horiz-adv-x="479" 
d="M41 1337q0 85 57 143t142 58q87 0 142.5 -57.5t55.5 -143.5q0 -83 -55.5 -137.5t-142.5 -54.5q-85 0 -142 55t-57 137zM135 1339q0 -46 29.5 -76t75.5 -30q47 0 75.5 30t28.5 76q0 48 -28.5 79.5t-75.5 31.5q-46 0 -75.5 -31.5t-29.5 -79.5z" />
    <glyph glyph-name="ogonek" unicode="&#x2db;" horiz-adv-x="425" 
d="M141 0h113q-61 -56 -88 -92t-27 -72q0 -32 18.5 -49.5t49.5 -17.5q32 0 57.5 20.5t59.5 65.5l79 -64q-56 -74 -103 -105.5t-114 -31.5q-74 0 -117.5 43.5t-43.5 114.5q0 106 116 188z" />
    <glyph glyph-name="tilde" unicode="&#x2dc;" horiz-adv-x="772" 
d="M123 1214l-82 64q36 66 89 103.5t114 37.5q46 0 85.5 -13t63 -29t55.5 -29t64 -13q76 0 137 74l82 -63q-36 -66 -89.5 -104t-113.5 -38q-46 0 -85.5 13t-63 29t-55.5 29t-64 13q-76 0 -137 -74z" />
    <glyph glyph-name="hungarumlaut" unicode="&#x2dd;" horiz-adv-x="731" 
d="M51 1147l144 287h190l-233 -287h-101zM362 1147l144 287h190l-233 -287h-101z" />
    <glyph glyph-name="pi" unicode="&#x3c0;" horiz-adv-x="1214" 
d="M115 918v114h985v-114h-182v-918h-127v918h-367v-918h-127v918h-182z" />
    <glyph glyph-name="uni0400" unicode="&#x400;" horiz-adv-x="1163" 
d="M207 1434h809v-127h-674v-480h551v-127h-551v-573h694v-127h-829v1434zM598 1835l143 -287h-100l-233 287h190z" />
    <glyph glyph-name="uni0401" unicode="&#x401;" horiz-adv-x="1163" 
d="M207 1434h809v-127h-674v-480h551v-127h-551v-573h694v-127h-829v1434zM375 1733q0 43 28.5 72.5t71.5 29.5t71.5 -29.5t28.5 -72.5q0 -41 -28.5 -70t-71.5 -29t-71.5 29t-28.5 70zM690 1733q0 42 29 72t69 30q43 0 73 -29.5t30 -72.5q0 -41 -30 -70t-73 -29
q-40 0 -69 29t-29 70z" />
    <glyph glyph-name="uni0402" unicode="&#x402;" horiz-adv-x="1462" 
d="M1286 709v-422q0 -261 -256 -303l-29 118q85 24 121.5 68t36.5 135v387q0 114 -55 176t-160 62q-145 0 -246.5 -136t-101.5 -354v-440h-135v1307h-428v127h991v-127h-428v-500q51 118 153.5 180t215.5 62q153 0 237 -89t84 -251z" />
    <glyph glyph-name="uni0403" unicode="&#x403;" horiz-adv-x="1069" 
d="M342 1307v-1307h-135v1434h829v-127h-694zM504 1548l143 287h191l-234 -287h-100z" />
    <glyph glyph-name="uni0404" unicode="&#x404;" horiz-adv-x="1349" 
d="M958 780v-127h-696q14 -257 130 -399.5t317 -142.5q153 0 262.5 88.5t150.5 232.5l129 -39q-53 -184 -199.5 -296.5t-342.5 -112.5q-124 0 -229.5 45.5t-186.5 133.5t-126.5 230t-45.5 324t45.5 324t126.5 230t186.5 133.5t229.5 45.5q196 0 342.5 -113t199.5 -297
l-129 -39q-41 144 -150.5 233t-262.5 89q-201 0 -317 -143t-130 -400h696z" />
    <glyph glyph-name="uni0405" unicode="&#x405;" horiz-adv-x="1036" 
d="M856 1229l-111 -70q-48 91 -106.5 127.5t-130.5 36.5q-94 0 -146.5 -63.5t-52.5 -145.5q0 -56 21.5 -101t57.5 -76t83 -57.5t99 -50.5t103.5 -49.5t98.5 -60t83 -76t57.5 -103t21.5 -137.5q0 -190 -116.5 -304.5t-293.5 -114.5q-174 0 -287.5 106.5t-150.5 280.5l117 69
q16 -56 32.5 -100t43.5 -89t59.5 -74t80 -47.5t105.5 -18.5q120 0 194.5 74t74.5 214q0 57 -21 103.5t-57 79t-82.5 60.5t-97.5 53t-102.5 50.5t-98 58.5t-82.5 72.5t-57 96t-21 125.5q0 156 97.5 254t236.5 98q61 0 110 -12t82.5 -30t64 -49t49 -59t42.5 -71z" />
    <glyph glyph-name="uni0406" unicode="&#x406;" horiz-adv-x="548" 
d="M342 1434v-1434h-135v1434h135z" />
    <glyph glyph-name="uni0407" unicode="&#x407;" horiz-adv-x="548" 
d="M342 1434v-1434h-135v1434h135zM16 1733q0 43 29 72.5t72 29.5t71.5 -29.5t28.5 -72.5q0 -41 -28.5 -70t-71.5 -29t-72 29t-29 70zM332 1733q0 42 29 72t69 30q43 0 72.5 -29.5t29.5 -72.5q0 -41 -29.5 -70t-72.5 -29q-40 0 -69 29t-29 70z" />
    <glyph glyph-name="uni0408" unicode="&#x408;" horiz-adv-x="1017" 
d="M705 406v1028h135v-1014q0 -104 -33.5 -188.5t-90 -137.5t-128.5 -81.5t-152 -28.5q-92 0 -166.5 30.5t-122.5 82.5t-76.5 116t-39.5 137l139 31q18 -127 84 -198.5t182 -71.5q120 0 194.5 74t74.5 221z" />
    <glyph glyph-name="uni0409" unicode="&#x409;" horiz-adv-x="1861" 
d="M262 367l74 1067h614v-607h350q202 0 321.5 -112t119.5 -301t-119.5 -301.5t-321.5 -112.5h-485v1307h-358l-66 -953q-12 -181 -95.5 -267.5t-262.5 -86.5v127q110 0 164.5 50.5t64.5 189.5zM950 700v-573h324q162 0 243.5 67t81.5 220t-81.5 219.5t-243.5 66.5h-324z
" />
    <glyph glyph-name="uni040A" unicode="&#x40a;" horiz-adv-x="1947" 
d="M1386 827q202 0 321.5 -112t119.5 -301t-119.5 -301.5t-321.5 -112.5h-466v700h-578v-700h-135v1434h135v-607h578v607h135v-607h331zM1055 700v-573h305q162 0 244 67t82 220t-82 219.5t-244 66.5h-305z" />
    <glyph glyph-name="uni040B" unicode="&#x40b;" horiz-adv-x="1470" 
d="M1286 709v-709h-127v692q0 114 -55 176t-160 62q-145 0 -246.5 -136t-101.5 -354v-440h-135v1307h-428v127h991v-127h-428v-500q51 118 153.5 180t215.5 62q153 0 237 -89t84 -251z" />
    <glyph glyph-name="uni040C" unicode="&#x40c;" horiz-adv-x="1157" 
d="M1124 0h-166l-616 760v-760h-135v1434h135v-613l559 613h172l-588 -643zM494 1548l143 287h190l-233 -287h-100z" />
    <glyph glyph-name="uni040D" unicode="&#x40d;" horiz-adv-x="1419" 
d="M207 1434h135v-1219l711 1219h159v-1434h-135v1214l-710 -1214h-160v1434zM682 1835l143 -287h-100l-233 287h190z" />
    <glyph glyph-name="uni040E" unicode="&#x40e;" horiz-adv-x="1011" 
d="M279 -16l159 395l-434 1055h141l363 -879l354 879h139l-591 -1450h-131zM588 1835h104q0 -100 -57 -161.5t-158 -61.5q-99 0 -157 61.5t-58 161.5h105q0 -55 28 -88t82 -33q56 0 83.5 33t27.5 88z" />
    <glyph glyph-name="uni040F" unicode="&#x40f;" horiz-adv-x="1396" 
d="M631 -254v254h-424v1434h135v-1307h713v1307h135v-1434h-424v-254h-135z" />
    <glyph glyph-name="uni0410" unicode="&#x410;" 
d="M539 1434h118l519 -1434h-140l-143 408h-590l-143 -408h-140zM598 1249l-252 -714h504z" />
    <glyph glyph-name="uni0411" unicode="&#x411;" horiz-adv-x="1261" 
d="M342 700v-573h332q162 0 243.5 67t81.5 220t-81.5 219.5t-243.5 66.5h-332zM700 827q202 0 321.5 -112t119.5 -301t-119.5 -301.5t-321.5 -112.5h-493v1434h797v-127h-662v-480h358z" />
    <glyph glyph-name="uni0412" unicode="&#x412;" horiz-adv-x="1261" 
d="M207 1434h461q189 0 294 -97.5t105 -271.5q0 -95 -53 -171.5t-127 -109.5q113 -40 183.5 -132.5t70.5 -237.5q0 -189 -119.5 -301.5t-321.5 -112.5h-493v1434zM342 700v-573h332q162 0 243.5 67t81.5 220t-81.5 219.5t-243.5 66.5h-332zM668 1307h-326v-480h326
q126 0 193 60t67 180t-67 180t-193 60z" />
    <glyph glyph-name="uni0413" unicode="&#x413;" horiz-adv-x="1069" 
d="M342 1307v-1307h-135v1434h829v-127h-694z" />
    <glyph glyph-name="uni0414" unicode="&#x414;" horiz-adv-x="1419" 
d="M147 -254l-24 381h100l211 1307h737v-1307h125l-24 -381h-131v254h-862v-254h-132zM1036 1307h-491l-178 -1180h669v1180z" />
    <glyph glyph-name="uni0415" unicode="&#x415;" horiz-adv-x="1163" 
d="M207 1434h809v-127h-674v-480h551v-127h-551v-573h694v-127h-829v1434z" />
    <glyph glyph-name="uni0416" unicode="&#x416;" horiz-adv-x="1765" 
d="M199 0h-166l639 791l-592 643h172l563 -613v613h135v-613l563 613h173l-592 -643l639 -791h-166l-617 760v-760h-135v760z" />
    <glyph glyph-name="uni0417" unicode="&#x417;" horiz-adv-x="1173" 
d="M129 393l127 19q16 -142 96.5 -228t216.5 -86q156 0 239 91t83 249q0 165 -84.5 253.5t-237.5 88.5q-69 0 -127 -37l-61 80l371 496h-551v115h749v-35l-387 -514q18 6 53 6q79 0 151.5 -30.5t129.5 -86.5t91 -143t34 -193q0 -204 -122 -329t-331 -125q-178 0 -299 108
t-141 301z" />
    <glyph glyph-name="uni0418" unicode="&#x418;" horiz-adv-x="1419" 
d="M207 1434h135v-1219l711 1219h159v-1434h-135v1214l-710 -1214h-160v1434z" />
    <glyph glyph-name="uni0419" unicode="&#x419;" horiz-adv-x="1419" 
d="M207 1434h135v-1219l711 1219h159v-1434h-135v1214l-710 -1214h-160v1434zM819 1835h105q0 -100 -57 -161.5t-158 -61.5q-99 0 -157 61.5t-58 161.5h104q0 -55 28.5 -88t82.5 -33q56 0 83 32.5t27 88.5z" />
    <glyph glyph-name="uni041A" unicode="&#x41a;" horiz-adv-x="1157" 
d="M1124 0h-166l-616 760v-760h-135v1434h135v-613l559 613h172l-588 -643z" />
    <glyph glyph-name="uni041B" unicode="&#x41b;" horiz-adv-x="1314" 
d="M266 367l78 1067h764v-1434h-135v1307h-508l-70 -953q-12 -178 -96 -266t-262 -88v127q108 0 163.5 51t65.5 189z" />
    <glyph glyph-name="uni041C" unicode="&#x41c;" horiz-adv-x="1601" 
d="M207 1434h168l426 -1080l426 1080h168v-1434h-135v1171l-416 -1040h-86l-416 1040v-1171h-135v1434z" />
    <glyph glyph-name="uni041D" unicode="&#x41d;" horiz-adv-x="1413" 
d="M1071 1434h135v-1434h-135v698h-729v-698h-135v1434h135v-609h729v609z" />
    <glyph glyph-name="uni041E" unicode="&#x41e;" horiz-adv-x="1499" 
d="M750 1450q126 0 240 -51.5t200 -144t137 -232t51 -305.5t-51 -305.5t-137 -232t-200 -144t-240 -51.5t-240 51.5t-200.5 144t-137.5 232t-51 305.5t51 305.5t137.5 232t200.5 144t240 51.5zM750 1323q-102 0 -189.5 -39t-154.5 -113t-105.5 -191t-38.5 -263t38.5 -263
t105.5 -191t154.5 -113t189.5 -39t189.5 39t154.5 113t105 191t38 263t-38 263t-105 191t-154.5 113t-189.5 39z" />
    <glyph glyph-name="uni041F" unicode="&#x41f;" horiz-adv-x="1390" 
d="M1049 0v1307h-707v-1307h-135v1434h977v-1434h-135z" />
    <glyph glyph-name="uni0420" unicode="&#x420;" horiz-adv-x="1183" 
d="M694 643h-352v-643h-135v1434h487q193 0 303.5 -105.5t110.5 -290.5t-110.5 -290t-303.5 -105zM696 770q140 0 205.5 73t65.5 195q0 123 -65.5 196t-205.5 73h-354v-537h354z" />
    <glyph glyph-name="uni0421" unicode="&#x421;" horiz-adv-x="1392" 
d="M1161 432l133 -39q-55 -190 -196 -299.5t-344 -109.5q-99 0 -190.5 28t-172.5 87t-140.5 144t-94.5 207t-35 267t35 267t95 207t141 144t172.5 87t189.5 28q202 0 343.5 -109.5t196.5 -300.5l-133 -39q-41 153 -143.5 237.5t-263.5 84.5q-221 0 -356.5 -159.5
t-135.5 -446.5t135.5 -446.5t356.5 -159.5q161 0 263.5 84t143.5 237z" />
    <glyph glyph-name="uni0422" unicode="&#x422;" horiz-adv-x="1056" 
d="M33 1307v127h991v-127h-428v-1307h-135v1307h-428z" />
    <glyph glyph-name="uni0423" unicode="&#x423;" horiz-adv-x="1011" 
d="M279 -16l159 395l-434 1055h141l363 -879l354 879h139l-591 -1450h-131z" />
    <glyph glyph-name="uni0424" unicode="&#x424;" horiz-adv-x="1560" 
d="M848 147v-147h-135v147h-15q-261 0 -424 156.5t-163 413.5q0 256 163 412.5t424 156.5h15v148h135v-148h20q261 0 421.5 -156t160.5 -413q0 -256 -163.5 -413t-424.5 -157h-14zM868 1167h-20v-901h20q205 0 327 126.5t122 324.5q0 197 -122 323.5t-327 126.5zM713 266
v901h-21q-205 0 -326.5 -126t-121.5 -324t121.5 -324.5t326.5 -126.5h21z" />
    <glyph glyph-name="uni0425" unicode="&#x425;" horiz-adv-x="1159" 
d="M887 1434h141l-379 -643l467 -791h-141l-395 672l-396 -672h-141l467 791l-379 643h141l308 -523z" />
    <glyph glyph-name="uni0426" unicode="&#x426;" horiz-adv-x="1413" 
d="M1049 127v1307h135v-1307h131l-25 -381h-131v254h-952v1434h135v-1307h707z" />
    <glyph glyph-name="uni0427" unicode="&#x427;" horiz-adv-x="1312" 
d="M971 0v522q-171 -121 -396 -121q-186 0 -291.5 103.5t-105.5 318.5v611h135v-600q0 -159 78.5 -232.5t216.5 -73.5q97 0 195.5 41.5t167.5 110.5v754h135v-1434h-135z" />
    <glyph glyph-name="uni0428" unicode="&#x428;" horiz-adv-x="1982" 
d="M1640 127v1307h136v-1434h-1569v1434h135v-1307h582v1307h135v-1307h581z" />
    <glyph glyph-name="uni0429" unicode="&#x429;" horiz-adv-x="1998" 
d="M1640 127v1307h136v-1307h125l-25 -381h-131v254h-1538v1434h135v-1307h582v1307h135v-1307h581z" />
    <glyph glyph-name="uni042A" unicode="&#x42a;" horiz-adv-x="1355" 
d="M45 1307v127h391v-607h359q202 0 321 -112t119 -301t-119 -301.5t-321 -112.5h-494v1307h-256zM436 700v-573h332q162 0 244 67t82 220t-82 219.5t-244 66.5h-332z" />
    <glyph glyph-name="uni042B" unicode="&#x42b;" horiz-adv-x="1712" 
d="M207 0v1434h135v-607h358q202 0 321.5 -112t119.5 -301t-119.5 -301.5t-321.5 -112.5h-493zM342 700v-573h332q162 0 243.5 67t81.5 220t-81.5 219.5t-243.5 66.5h-332zM1378 1450h127v-1450h-127v1450z" />
    <glyph glyph-name="uni042C" unicode="&#x42c;" horiz-adv-x="1261" 
d="M207 0v1434h135v-607h358q202 0 321.5 -112t119.5 -301t-119.5 -301.5t-321.5 -112.5h-493zM342 700v-573h332q162 0 243.5 67t81.5 220t-81.5 219.5t-243.5 66.5h-332z" />
    <glyph glyph-name="uni042D" unicode="&#x42d;" horiz-adv-x="1349" 
d="M391 653v127h694q-14 257 -128.5 400t-315.5 143q-153 0 -263 -89t-151 -233l-129 39q53 184 200 297t343 113q124 0 229.5 -45.5t186.5 -133.5t126.5 -230t45.5 -324t-45.5 -324t-126.5 -230t-186.5 -133.5t-229.5 -45.5q-196 0 -343 112.5t-200 296.5l129 39
q41 -144 151 -232.5t263 -88.5q201 0 315.5 142.5t128.5 399.5h-694z" />
    <glyph glyph-name="uni042E" unicode="&#x42e;" horiz-adv-x="2088" 
d="M1339 1450q126 0 240 -51.5t200.5 -144t137.5 -232t51 -305.5t-51 -305.5t-137.5 -232t-200.5 -144t-240 -51.5q-120 0 -229 46.5t-194 131t-139.5 212t-63.5 279.5h-371v-653h-135v1434h135v-654h371q9 152 63.5 279.5t139.5 212t194 131.5t229 47zM1339 1323
q-102 0 -189.5 -39t-154.5 -113t-105 -191t-38 -263t38 -263t105 -191t154.5 -113t189.5 -39t189.5 39t154.5 113t105.5 191t38.5 263t-38.5 263t-105.5 191t-154.5 113t-189.5 39z" />
    <glyph glyph-name="uni042F" unicode="&#x42f;" horiz-adv-x="1302" 
d="M692 709l-448 -709h-152l447 715q-151 21 -232.5 110.5t-81.5 245.5q0 180 107.5 271.5t302.5 91.5h461v-1434h-135v709h-269zM961 1307h-318q-140 0 -210.5 -57.5t-70.5 -178.5t70.5 -178t210.5 -57h318v471z" />
    <glyph glyph-name="uni0430" unicode="&#x430;" horiz-adv-x="1036" 
d="M250 297q0 -94 53.5 -144.5t147.5 -50.5q53 0 105.5 20t100.5 62t77.5 118t29.5 175v39h-168q-173 0 -259.5 -57.5t-86.5 -161.5zM891 684v-684h-96l-31 160q-46 -80 -127.5 -128t-198.5 -48q-67 0 -123 17.5t-101.5 53.5t-71 98t-25.5 144q0 168 126 253t349 85h172v45
q0 129 -64.5 189.5t-173.5 60.5q-99 0 -159 -53.5t-86 -139.5l-123 29q21 128 124.5 205.5t243.5 77.5q158 0 261.5 -97.5t103.5 -267.5z" />
    <glyph glyph-name="uni0431" unicode="&#x431;" horiz-adv-x="1202" 
d="M115 635q0 175 24.5 310.5t69 227t110.5 150.5t144.5 85t175.5 26h76q85 0 117.5 20t48.5 76h100q-7 -109 -68 -162t-163 -53h-101q-78 0 -141 -23t-106 -62.5t-73.5 -96t-46.5 -118.5t-22 -134q141 168 383 168q134 0 236.5 -73t155 -193t52.5 -267q0 -146 -57.5 -266.5
t-169.5 -193t-258 -72.5q-228 0 -357.5 166.5t-129.5 484.5zM250 516q0 -80 23 -153t66 -132t111 -94t152 -35t152 35t111 94t66 132t23 153t-23 153t-66 132t-111 94t-152 35t-152 -35t-111 -94t-66 -132t-23 -153z" />
    <glyph glyph-name="uni0432" unicode="&#x432;" horiz-adv-x="1026" 
d="M197 1032h387q129 0 207.5 -68.5t78.5 -187.5q0 -70 -33 -124.5t-83 -86.5q157 -77 157 -250q0 -139 -89.5 -227t-241.5 -88h-383v1032zM324 492v-373h249q104 0 157.5 47.5t53.5 138.5t-53.5 139t-157.5 48h-249zM582 913h-258v-303h258q80 0 120.5 39.5t40.5 112.5
q0 151 -161 151z" />
    <glyph glyph-name="uni0433" unicode="&#x433;" horiz-adv-x="874" 
d="M197 0v1032h634v-119h-503v-913h-131z" />
    <glyph glyph-name="uni0434" unicode="&#x434;" horiz-adv-x="1173" 
d="M911 -233v233h-667v-233h-127l-25 352h68l143 913h684v-913h72l-21 -352h-127zM416 913l-119 -794h563v794h-444z" />
    <glyph glyph-name="uni0435" unicode="&#x435;" horiz-adv-x="1130" 
d="M1026 573v-57h-778q0 -185 86.5 -299.5t238.5 -114.5q116 0 188 52t130 170l113 -56q-77 -154 -180.5 -219t-250.5 -65q-204 0 -331 150t-127 382t127 382.5t331 150.5q200 0 326.5 -131.5t126.5 -344.5zM573 930q-124 0 -207 -81.5t-110 -213.5h639q-19 137 -102 216
t-220 79z" />
    <glyph glyph-name="uni0436" unicode="&#x436;" horiz-adv-x="1454" 
d="M664 1032h127v-457l432 457h159l-446 -473l483 -559h-162l-466 543v-543h-127v543l-467 -543h-162l483 559l-446 473h159l433 -457v457z" />
    <glyph glyph-name="uni0437" unicode="&#x437;" horiz-adv-x="907" 
d="M117 283l125 14q12 -83 66 -139t147 -56t150 63t57 157q0 95 -51 157t-144 62q-39 0 -82 -17l-68 86l218 303h-371v119h575v-31l-270 -368q27 6 53 6q116 0 194.5 -88.5t78.5 -228.5q0 -138 -99.5 -238t-240.5 -100q-136 0 -231 83t-107 216z" />
    <glyph glyph-name="uni0438" unicode="&#x438;" horiz-adv-x="1200" 
d="M197 1032h127v-831l544 831h136v-1032h-127v831l-545 -831h-135v1032z" />
    <glyph glyph-name="uni0439" unicode="&#x439;" horiz-adv-x="1200" 
d="M197 1032h127v-831l544 831h136v-1032h-127v831l-545 -831h-135v1032zM711 1434h104q0 -100 -57 -162t-158 -62q-98 0 -156.5 62t-58.5 162h104q0 -54 28.5 -87.5t82.5 -33.5q56 0 83.5 33t27.5 88z" />
    <glyph glyph-name="uni043A" unicode="&#x43a;" horiz-adv-x="987" 
d="M197 1032h127v-457l432 457h159l-446 -473l483 -559h-161l-467 543v-543h-127v1032z" />
    <glyph glyph-name="uni043B" unicode="&#x43b;" horiz-adv-x="1220" 
d="M297 309l72 723h655v-1032h-127v913h-410l-65 -634q-15 -145 -91 -212t-237 -67v119q108 0 151 43.5t52 146.5z" />
    <glyph glyph-name="uni043C" unicode="&#x43c;" horiz-adv-x="1323" 
d="M197 1032h172l293 -729l292 729h172v-1032h-127v831l-292 -737h-91l-292 737v-831h-127v1032z" />
    <glyph glyph-name="uni043D" unicode="&#x43d;" horiz-adv-x="1150" 
d="M827 1032h127v-1032h-127v489h-503v-489h-127v1032h127v-424h503v424z" />
    <glyph glyph-name="uni043E" unicode="&#x43e;" 
d="M115 516q0 102 33.5 197.5t94.5 170.5t153.5 120t201.5 45t201.5 -45t153.5 -120t94.5 -170.5t33.5 -197.5t-33.5 -197t-94.5 -170t-153.5 -120t-201.5 -45t-201.5 45t-153.5 120t-94.5 170t-33.5 197zM248 516q0 -79 22.5 -152t65 -132t110.5 -94.5t152 -35.5t152 35.5
t110.5 94.5t65 132t22.5 152t-22.5 152t-65 132t-110.5 94.5t-152 35.5t-152 -35.5t-110.5 -94.5t-65 -132t-22.5 -152z" />
    <glyph glyph-name="uni043F" unicode="&#x43f;" horiz-adv-x="1153" 
d="M197 0v1032h759v-1032h-127v913h-505v-913h-127z" />
    <glyph glyph-name="uni0440" unicode="&#x440;" horiz-adv-x="1224" 
d="M324 -418h-127v1450h127v-135q41 62 134 107t191 45q146 0 252 -72.5t157.5 -191.5t51.5 -269t-51.5 -269t-157.5 -191t-252 -72q-85 0 -177 44.5t-148 116.5v-563zM977 516q0 182 -87.5 298t-246.5 116t-245.5 -116t-86.5 -298q0 -180 87 -297t245 -117t246 117t88 297z
" />
    <glyph glyph-name="uni0441" unicode="&#x441;" horiz-adv-x="1081" 
d="M872 313l115 -45q-110 -284 -416 -284q-110 0 -198.5 45t-143.5 120t-84.5 169.5t-29.5 197.5t29.5 197.5t84.5 170t143.5 120.5t198.5 45q306 0 416 -285l-115 -45q-86 211 -301 211q-106 0 -181 -58t-108.5 -149.5t-33.5 -206.5t33.5 -206.5t108.5 -149.5t181 -58
q215 0 301 211z" />
    <glyph glyph-name="uni0442" unicode="&#x442;" horiz-adv-x="880" 
d="M86 913v119h709v-119h-291v-913h-127v913h-291z" />
    <glyph glyph-name="uni0443" unicode="&#x443;" horiz-adv-x="925" 
d="M762 1032h133l-512 -1450h-127l150 424l-371 1026h133l307 -835z" />
    <glyph glyph-name="uni0444" unicode="&#x444;" horiz-adv-x="1429" 
d="M778 -16v-402h-127v402q-124 0 -226.5 43t-169.5 116.5t-103.5 169.5t-36.5 203t36.5 203t103.5 169.5t169.5 117t226.5 43.5v401h127v-401q124 0 227 -43.5t170 -117t103.5 -169.5t36.5 -203q0 -85 -23 -164t-68.5 -145.5t-109 -116.5t-150 -78t-186.5 -28zM793 930h-15
v-828h15q182 0 285.5 115t103.5 299t-103.5 299t-285.5 115zM651 102v828h-14q-182 0 -285.5 -115t-103.5 -299t103.5 -299t285.5 -115h14z" />
    <glyph glyph-name="uni0445" unicode="&#x445;" horiz-adv-x="913" 
d="M96 1032h142l219 -356l219 356h141l-291 -469l348 -563h-133l-284 451l-285 -451h-133l348 563z" />
    <glyph glyph-name="uni0446" unicode="&#x446;" horiz-adv-x="1142" 
d="M197 0v1032h127v-913h505v913h127v-913h72l-20 -352h-127v233h-684z" />
    <glyph glyph-name="uni0447" unicode="&#x447;" horiz-adv-x="1146" 
d="M950 0h-127v354q-141 -166 -348 -166q-132 0 -211.5 79.5t-79.5 211.5v553h127v-540q0 -95 52 -142t135 -47q185 0 325 213v516h127v-1032z" />
    <glyph glyph-name="uni0448" unicode="&#x448;" horiz-adv-x="1687" 
d="M197 0v1032h127v-913h456v913h127v-913h457v913h127v-1032h-1294z" />
    <glyph glyph-name="uni0449" unicode="&#x449;" horiz-adv-x="1677" 
d="M197 0v1032h127v-913h456v913h127v-913h457v913h127v-913h72l-21 -352h-127v233h-1218z" />
    <glyph glyph-name="uni044A" unicode="&#x44a;" horiz-adv-x="1110" 
d="M92 913v119h338v-393h221q166 0 255 -85t89 -235t-89 -234.5t-255 -84.5h-348v913h-211zM596 520h-166v-401h166q136 0 197 47.5t61 152.5q0 104 -61.5 152.5t-196.5 48.5z" />
    <glyph glyph-name="uni044B" unicode="&#x44b;" horiz-adv-x="1406" 
d="M197 0v1032h127v-393h221q166 0 255 -85t89 -235t-89 -234.5t-255 -84.5h-348zM489 520h-165v-401h165q136 0 197.5 47.5t61.5 152.5q0 104 -62 152.5t-197 48.5zM1100 1032h127v-1032h-127v1032z" />
    <glyph glyph-name="uni044C" unicode="&#x44c;" horiz-adv-x="1003" 
d="M197 0v1032h127v-393h221q166 0 255 -85t89 -235t-89 -234.5t-255 -84.5h-348zM489 520h-165v-401h165q136 0 197.5 47.5t61.5 152.5q0 104 -62 152.5t-197 48.5z" />
    <glyph glyph-name="uni044D" unicode="&#x44d;" horiz-adv-x="1071" 
d="M328 457v118h493q-5 76 -25 139t-56 112t-92.5 76.5t-129.5 27.5q-219 0 -305 -211l-119 53q61 136 168 206.5t252 70.5q110 0 196.5 -45t139 -121t79.5 -169.5t27 -197.5q0 -82 -16.5 -159t-52 -145t-86.5 -118.5t-125 -80t-162 -29.5q-145 0 -252 70t-168 206l119 53
q86 -211 305 -211q73 0 129.5 27.5t92.5 76.5t56 112t25 139h-493z" />
    <glyph glyph-name="uni044E" unicode="&#x44e;" horiz-adv-x="1714" 
d="M324 1032v-457h311q9 94 46.5 179t97.5 151t147.5 105t189.5 39q109 0 201.5 -45t153.5 -120t94.5 -170.5t33.5 -197.5t-33.5 -197t-94.5 -170t-153.5 -120t-201.5 -45q-102 0 -189.5 39t-147.5 105t-97.5 150.5t-46.5 178.5h-311v-457h-127v1032h127zM766 516
q0 -79 22.5 -152t65 -132t110.5 -94.5t152 -35.5t152 35.5t110.5 94.5t65 132t22.5 152t-22.5 152t-65 132t-110.5 94.5t-152 35.5t-152 -35.5t-110.5 -94.5t-65 -132t-22.5 -152z" />
    <glyph glyph-name="uni044F" unicode="&#x44f;" horiz-adv-x="999" 
d="M123 748q0 129 92.5 206.5t235.5 77.5h352v-1032h-127v463h-219l-250 -463h-141l266 475q-95 29 -152 99.5t-57 173.5zM444 582h232v331h-232q-194 0 -194 -165q0 -166 194 -166z" />
    <glyph glyph-name="uni0450" unicode="&#x450;" horiz-adv-x="1130" 
d="M1026 573v-57h-778q0 -185 86.5 -299.5t238.5 -114.5q116 0 188 52t130 170l113 -56q-77 -154 -180.5 -219t-250.5 -65q-204 0 -331 150t-127 382t127 382.5t331 150.5q200 0 326.5 -131.5t126.5 -344.5zM573 930q-124 0 -207 -81.5t-110 -213.5h639q-19 137 -102 216
t-220 79zM528 1434l144 -287h-101l-233 287h190z" />
    <glyph glyph-name="uni0451" unicode="&#x451;" horiz-adv-x="1130" 
d="M1026 573v-57h-778q0 -185 86.5 -299.5t238.5 -114.5q116 0 188 52t130 170l113 -56q-77 -154 -180.5 -219t-250.5 -65q-204 0 -331 150t-127 382t127 382.5t331 150.5q200 0 326.5 -131.5t126.5 -344.5zM573 930q-124 0 -207 -81.5t-110 -213.5h639q-19 137 -102 216
t-220 79zM319 1331q0 43 29 73t72 30q42 0 71 -30t29 -73q0 -41 -28.5 -69.5t-71.5 -28.5t-72 28.5t-29 69.5zM635 1331q0 43 29 73t69 30q43 0 73 -30t30 -73q0 -41 -30 -69.5t-73 -28.5q-40 0 -69 28.5t-29 69.5z" />
    <glyph glyph-name="uni0452" unicode="&#x452;" horiz-adv-x="1198" 
d="M47 1184v114h150v152h127v-152h276v-114h-276v-377q51 118 153 180t215 62q153 0 237.5 -89t84.5 -251v-840q0 -261 -256 -303l-29 119q85 24 121.5 67.5t36.5 134.5v805q0 114 -55 176t-160 62q-145 0 -246.5 -136t-101.5 -354v-440h-127v1184h-150z" />
    <glyph glyph-name="uni0453" unicode="&#x453;" horiz-adv-x="874" 
d="M197 0v1032h634v-119h-503v-913h-131zM399 1147l144 287h190l-233 -287h-101z" />
    <glyph glyph-name="uni0454" unicode="&#x454;" horiz-adv-x="1071" 
d="M743 575v-118h-493q5 -76 25 -139t56 -112t92.5 -76.5t129.5 -27.5q219 0 305 211l119 -53q-61 -136 -168 -206t-252 -70q-88 0 -162 29.5t-125 80t-86.5 118.5t-52 145t-16.5 159q0 104 27 197.5t79.5 169.5t139 121t196.5 45q145 0 252 -70.5t168 -206.5l-119 -53
q-86 211 -305 211q-73 0 -129.5 -27.5t-92.5 -76.5t-56 -112t-25 -139h493z" />
    <glyph glyph-name="uni0455" unicode="&#x455;" horiz-adv-x="921" 
d="M471 1049q173 0 287 -160l-90 -78q-48 63 -95 91t-108 28q-67 0 -109.5 -43t-42.5 -113q0 -37 21 -67.5t55.5 -51.5t78.5 -42t90 -38.5t90 -43.5t78.5 -54.5t55.5 -72.5t21 -97q0 -149 -86 -236t-234 -87q-79 0 -144 24.5t-109.5 66.5t-73.5 89.5t-45 101.5l112 60
q39 -108 97 -166t163 -58q90 0 138.5 49.5t48.5 135.5q0 48 -27 84t-70 59.5t-95 44t-104 45t-95 55.5t-70 81t-27 116q0 123 82 200t207 77z" />
    <glyph glyph-name="uni0456" unicode="&#x456;" horiz-adv-x="573" 
d="M184 1329q0 44 30.5 74.5t74.5 30.5t74 -30.5t30 -74.5t-30 -74t-74 -30t-74.5 30t-30.5 74zM225 1032h127v-1032h-127v1032z" />
    <glyph glyph-name="uni0457" unicode="&#x457;" horiz-adv-x="573" 
d="M221 1032h127v-1032h-127v1032zM29 1331q0 43 29 73t71 30t71 -30t29 -73q0 -41 -28.5 -69.5t-71.5 -28.5t-71.5 28.5t-28.5 69.5zM344 1331q0 43 29 73t69 30q43 0 73 -30t30 -73q0 -41 -30 -69.5t-73 -28.5q-40 0 -69 28.5t-29 69.5z" />
    <glyph glyph-name="uni0458" unicode="&#x458;" horiz-adv-x="573" 
d="M225 1032h127v-1163q0 -261 -256 -303l-28 119q85 24 121 67.5t36 134.5v1145zM184 1329q0 44 30.5 74.5t74.5 30.5t74 -30.5t30 -74.5t-30 -74t-74 -30t-74.5 30t-30.5 74z" />
    <glyph glyph-name="uni0459" unicode="&#x459;" horiz-adv-x="1607" 
d="M297 309l72 723h559v-393h221q166 0 255 -85t89 -235t-89 -234.5t-255 -84.5h-348v913h-314l-65 -634q-15 -145 -91 -212t-237 -67v119q108 0 151 43.5t52 146.5zM1094 520h-166v-401h166q136 0 197 47.5t61 152.5q0 104 -61.5 152.5t-196.5 48.5z" />
    <glyph glyph-name="uni045A" unicode="&#x45a;" horiz-adv-x="1644" 
d="M827 1032h127v-393h232q166 0 255 -85t89 -235t-89 -234.5t-255 -84.5h-359v520h-503v-520h-127v1032h127v-393h503v393zM1130 520h-176v-401h176q136 0 197.5 47.5t61.5 152.5q0 104 -62 152.5t-197 48.5z" />
    <glyph glyph-name="uni045B" unicode="&#x45b;" horiz-adv-x="1198" 
d="M47 1184v114h150v152h127v-152h276v-114h-276v-377q51 118 153 180t215 62q153 0 237.5 -89t84.5 -251v-709h-127v692q0 114 -55 176t-160 62q-145 0 -246.5 -136t-101.5 -354v-440h-127v1184h-150z" />
    <glyph glyph-name="uni045C" unicode="&#x45c;" horiz-adv-x="987" 
d="M197 1032h127v-457l432 457h159l-446 -473l483 -559h-161l-467 543v-543h-127v1032zM416 1147l143 287h191l-234 -287h-100z" />
    <glyph glyph-name="uni045D" unicode="&#x45d;" horiz-adv-x="1200" 
d="M197 1032h127v-831l544 831h136v-1032h-127v831l-545 -831h-135v1032zM553 1434l143 -287h-100l-234 287h191z" />
    <glyph glyph-name="uni045E" unicode="&#x45e;" horiz-adv-x="925" 
d="M762 1032h133l-512 -1450h-127l150 424l-371 1026h133l307 -835zM586 1434h104q0 -100 -57 -162t-158 -62q-98 0 -156.5 62t-58.5 162h105q0 -55 28 -88t82 -33q56 0 83.5 33t27.5 88z" />
    <glyph glyph-name="uni045F" unicode="&#x45f;" horiz-adv-x="1150" 
d="M197 0v1032h127v-913h503v913h127v-1032h-315v-233h-127v233h-315z" />
    <glyph glyph-name="endash" unicode="&#x2013;" horiz-adv-x="1140" 
d="M147 592v115h838v-115h-838z" />
    <glyph glyph-name="emdash" unicode="&#x2014;" horiz-adv-x="1560" 
d="M147 592v115h1258v-115h-1258z" />
    <glyph glyph-name="quoteleft" unicode="&#x2018;" horiz-adv-x="563" 
d="M334 1450l125 -377h-101l-235 377h211z" />
    <glyph glyph-name="quoteright" unicode="&#x2019;" horiz-adv-x="563" 
d="M104 1073l125 377h211l-235 -377h-101z" />
    <glyph glyph-name="quotesinglbase" unicode="&#x201a;" horiz-adv-x="563" 
d="M104 -29l125 377h211l-235 -377h-101z" />
    <glyph glyph-name="quotedblleft" unicode="&#x201c;" horiz-adv-x="856" 
d="M627 1450l125 -377h-101l-235 377h211zM334 1450l125 -377h-101l-235 377h211z" />
    <glyph glyph-name="quotedblright" unicode="&#x201d;" horiz-adv-x="856" 
d="M104 1073l125 377h211l-235 -377h-101zM397 1073l125 377h211l-235 -377h-101z" />
    <glyph glyph-name="quotedblbase" unicode="&#x201e;" horiz-adv-x="856" 
d="M104 -29l125 377h211l-235 -377h-101zM397 -29l125 377h211l-235 -377h-101z" />
    <glyph glyph-name="dagger" unicode="&#x2020;" horiz-adv-x="942" 
d="M133 918v114h277v504h122v-504h277v-114h-277v-1020h-122v1020h-277z" />
    <glyph glyph-name="daggerdbl" unicode="&#x2021;" horiz-adv-x="942" 
d="M133 918v114h277v504h122v-504h277v-114h-277v-402h277v-115h-277v-503h-122v503h-277v115h277v402h-277z" />
    <glyph glyph-name="bullet" unicode="&#x2022;" horiz-adv-x="622" 
d="M178 676q0 56 39 94.5t94 38.5t94 -38.5t39 -94.5t-39 -94.5t-94 -38.5t-94 38.5t-39 94.5z" />
    <glyph glyph-name="ellipsis" unicode="&#x2026;" horiz-adv-x="1593" 
d="M186 100q0 45 30 75t75 30q44 0 74 -30.5t30 -74.5q0 -45 -29.5 -74.5t-74.5 -29.5q-46 0 -75.5 29t-29.5 75zM692 100q0 45 30 75t75 30q44 0 74 -30.5t30 -74.5q0 -45 -29.5 -74.5t-74.5 -29.5q-46 0 -75.5 29t-29.5 75zM1198 100q0 45 30 75t75 30q44 0 74 -30.5
t30 -74.5q0 -45 -29.5 -74.5t-74.5 -29.5q-46 0 -75.5 29t-29.5 75z" />
    <glyph glyph-name="perthousand" unicode="&#x2030;" horiz-adv-x="2547" 
d="M127 1122q0 138 92 233t230 95t229.5 -95t91.5 -233t-91.5 -232.5t-229.5 -94.5t-230 94.5t-92 232.5zM238 1122q0 -94 57.5 -155.5t153.5 -61.5t153 61.5t57 155.5t-57 155.5t-153 61.5t-153.5 -61.5t-57.5 -155.5zM958 311q0 138 92 233t230 95t230 -95t92 -233
t-92 -232.5t-230 -94.5t-230 94.5t-92 232.5zM1069 311q0 -94 57.5 -155.5t153.5 -61.5t153.5 61.5t57.5 155.5t-57.5 155.5t-153.5 61.5t-153.5 -61.5t-57.5 -155.5zM1376 1483l86 -68l-1110 -1464l-86 67zM1778 311q0 138 91.5 233t229.5 95t230 -95t92 -233t-92 -232.5
t-230 -94.5t-229.5 94.5t-91.5 232.5zM1888 311q0 -94 57.5 -155.5t153.5 -61.5t153.5 61.5t57.5 155.5t-57.5 155.5t-153.5 61.5t-153.5 -61.5t-57.5 -155.5z" />
    <glyph glyph-name="guilsinglleft" unicode="&#x2039;" horiz-adv-x="763" 
d="M102 592v86l539 399v-139l-405 -303l405 -303v-139z" />
    <glyph glyph-name="guilsinglright" unicode="&#x203a;" horiz-adv-x="763" 
d="M662 678v-86l-539 -399v139l405 303l-405 303v139z" />
    <glyph glyph-name="fraction" unicode="&#x2044;" horiz-adv-x="1245" 
d="M1135 1483l86 -68l-1110 -1464l-86 67z" />
    <glyph glyph-name="zerosuperior" unicode="&#x2070;" horiz-adv-x="788" 
d="M395 1442q140 0 217.5 -113.5t77.5 -304.5t-77.5 -304.5t-217.5 -113.5q-142 0 -219.5 113t-77.5 305t77.5 305t219.5 113zM395 1343q-87 0 -136.5 -82t-49.5 -237t49.5 -237t136.5 -82t137 82t50 237t-50 237t-137 82z" />
    <glyph glyph-name="foursuperior" unicode="&#x2074;" horiz-adv-x="692" 
d="M422 614v170h-350v35l331 615h121v-551h107v-99h-107v-170h-102zM213 883h209v399z" />
    <glyph glyph-name="fivesuperior" unicode="&#x2075;" horiz-adv-x="681" 
d="M102 831l101 19q29 -145 151 -145q75 0 115.5 46.5t40.5 131.5q0 88 -41 134t-115 46q-92 0 -159 -92l-74 16l43 447h407v-99h-319l-27 -235q22 24 63 40.5t83 16.5q118 0 184 -73t66 -201q0 -126 -73 -201.5t-194 -75.5q-101 0 -169 58.5t-83 166.5z" />
    <glyph glyph-name="sixsuperior" unicode="&#x2076;" horiz-adv-x="747" 
d="M391 1145q115 0 184.5 -73t69.5 -195q0 -117 -73 -194t-193 -77q-122 0 -195 77t-73 194q0 88 49 174l223 391h111l-187 -318q24 21 84 21zM379 1047q-73 0 -115.5 -46t-42.5 -124q0 -75 43 -123.5t115 -48.5t114 48.5t42 123.5q0 79 -41.5 124.5t-114.5 45.5z" />
    <glyph glyph-name="sevensuperior" unicode="&#x2077;" horiz-adv-x="602" 
d="M244 614h-111l297 721h-336v99h467v-45z" />
    <glyph glyph-name="eightsuperior" unicode="&#x2078;" horiz-adv-x="724" 
d="M362 1442q100 0 163 -61t63 -156q0 -58 -27 -102t-69 -68q55 -21 90.5 -73.5t35.5 -125.5q0 -115 -73 -182.5t-183 -67.5t-183 67.5t-73 182.5q0 73 35.5 125.5t91.5 73.5q-42 24 -69 68t-27 102q0 95 62.5 156t162.5 61zM362 1001q-68 0 -106.5 -38t-38.5 -107
q0 -68 39 -109.5t106 -41.5t106.5 41.5t39.5 109.5q0 69 -39 107t-107 38zM362 1352q-58 0 -92 -35t-34 -92q0 -56 34 -90.5t92 -34.5t92.5 34.5t34.5 90.5q0 57 -34.5 92t-92.5 35z" />
    <glyph glyph-name="ninesuperior" unicode="&#x2079;" horiz-adv-x="747" 
d="M356 903q-115 0 -184.5 73t-69.5 195q0 117 73 194t194 77q122 0 195 -77t73 -194q0 -88 -49 -174l-223 -391h-111l186 318q-24 -21 -84 -21zM369 1001q73 0 115 46t42 124q0 75 -42.5 123.5t-114.5 48.5t-114 -48.5t-42 -123.5q0 -79 41.5 -124.5t114.5 -45.5z" />
    <glyph glyph-name="zeroinferior" unicode="&#x2080;" horiz-adv-x="788" 
d="M395 410q140 0 217.5 -113.5t77.5 -304.5t-77.5 -304.5t-217.5 -113.5q-142 0 -219.5 113t-77.5 305t77.5 305t219.5 113zM395 311q-87 0 -136.5 -82t-49.5 -237t49.5 -237.5t136.5 -82.5t137 82.5t50 237.5t-50 237t-137 82z" />
    <glyph glyph-name="oneinferior" unicode="&#x2081;" horiz-adv-x="581" 
d="M367 401h32v-819h-102v668l-174 -84v115z" />
    <glyph glyph-name="twoinferior" unicode="&#x2082;" horiz-adv-x="780" 
d="M133 -418v39l301 375q46 57 64 97.5t18 86.5q0 60 -32.5 93.5t-94.5 33.5q-56 0 -89.5 -42.5t-41.5 -112.5l-111 28q9 99 75.5 164.5t166.5 65.5q110 0 174 -64t64 -166q0 -112 -80 -215l-228 -280h328v-103h-514z" />
    <glyph glyph-name="threeinferior" unicode="&#x2083;" horiz-adv-x="788" 
d="M133 -186l111 16q8 -72 47 -115t106 -43q73 0 110.5 48t37.5 124t-37 121t-111 45q-39 0 -71 -20l-54 71l183 242h-277v98h436v-34l-204 -277q12 4 36 4q91 0 150 -67.5t59 -182.5q0 -114 -66.5 -192t-191.5 -78q-108 0 -181 64t-83 176z" />
    <glyph glyph-name="fourinferior" unicode="&#x2084;" horiz-adv-x="692" 
d="M422 -418v170h-350v35l331 614h121v-551h107v-98h-107v-170h-102zM213 -150h209v400z" />
    <glyph glyph-name="fiveinferior" unicode="&#x2085;" horiz-adv-x="681" 
d="M102 -201l101 19q29 -146 151 -146q75 0 115.5 46.5t40.5 131.5q0 88 -41 134.5t-115 46.5q-92 0 -159 -92l-74 16l43 446h407v-98h-319l-27 -235q22 24 63 40.5t83 16.5q118 0 184 -73.5t66 -201.5q0 -126 -72.5 -201t-194.5 -75q-101 0 -169 58.5t-83 166.5z" />
    <glyph glyph-name="sixinferior" unicode="&#x2086;" horiz-adv-x="747" 
d="M391 113q115 0 184.5 -73.5t69.5 -195.5q0 -117 -72.5 -193.5t-193.5 -76.5q-122 0 -195 76.5t-73 193.5q0 88 49 174l223 392h111l-187 -318q24 21 84 21zM379 14q-73 0 -115.5 -46t-42.5 -124q0 -75 43 -123.5t115 -48.5t114 48.5t42 123.5q0 79 -41.5 124.5
t-114.5 45.5z" />
    <glyph glyph-name="seveninferior" unicode="&#x2087;" horiz-adv-x="602" 
d="M244 -418h-111l297 721h-336v98h467v-45z" />
    <glyph glyph-name="eightinferior" unicode="&#x2088;" horiz-adv-x="724" 
d="M362 410q100 0 163 -61t63 -156q0 -58 -27 -102t-69 -68q55 -21 90.5 -73.5t35.5 -125.5q0 -115 -73 -182.5t-183 -67.5t-183 67.5t-73 182.5q0 73 35.5 125.5t91.5 73.5q-42 24 -69 68t-27 102q0 95 62.5 156t162.5 61zM362 -31q-68 0 -106.5 -38t-38.5 -107
q0 -68 39 -110t106 -42t106.5 42t39.5 110q0 69 -39 107t-107 38zM362 319q-58 0 -92 -34.5t-34 -91.5q0 -56 34 -90.5t92 -34.5t92.5 34.5t34.5 90.5q0 57 -34.5 91.5t-92.5 34.5z" />
    <glyph glyph-name="nineinferior" unicode="&#x2089;" horiz-adv-x="747" 
d="M356 -129q-115 0 -184.5 73t-69.5 195q0 117 73 194t194 77q122 0 195 -77t73 -194q0 -88 -49 -174l-223 -391h-111l186 317q-23 -20 -84 -20zM369 -31q73 0 115 46t42 124q0 75 -42.5 123.5t-114.5 48.5t-114 -48.5t-42 -123.5q0 -79 41.5 -124.5t114.5 -45.5z" />
    <glyph glyph-name="Euro" unicode="&#x20ac;" horiz-adv-x="1253" 
d="M72 809l59 115h111q33 239 170.5 382.5t359.5 143.5q135 0 229 -59t162 -179l-112 -61q-41 88 -114 136t-165 48q-160 0 -263 -106.5t-134 -304.5h528l-59 -115h-479v-184h538l-59 -115h-469q31 -198 134 -305t263 -107q91 0 164.5 48t114.5 137l112 -62
q-67 -120 -161.5 -178.5t-229.5 -58.5q-222 0 -359.5 143.5t-170.5 382.5h-170l59 115h102v184h-161z" />
    <glyph glyph-name="trademark" unicode="&#x2122;" horiz-adv-x="1660" 
d="M61 1343v91h568v-91h-234v-729h-100v729h-234zM784 1434h107l242 -578l241 578h107v-820h-101v605l-219 -529h-57l-219 529v-605h-101v820z" />
    <glyph glyph-name="Omega" unicode="&#x2126;" horiz-adv-x="1396" 
d="M164 0v115h282q-10 17 -26 46.5t-57.5 120.5t-73.5 180.5t-58 211t-26 227.5q0 243 134 396t359 153q150 0 262.5 -70.5t172 -195t59.5 -283.5q0 -106 -25 -225.5t-60.5 -215t-71 -176t-60.5 -124.5l-25 -45h283v-115h-430v39q10 18 26 50t57.5 130.5t73.5 196t58 232
t26 253.5q0 201 -95.5 317.5t-250.5 116.5t-250.5 -116.5t-95.5 -317.5q0 -119 25 -251.5t60.5 -236.5t71 -191.5t60.5 -135.5l25 -47v-39h-430z" />
    <glyph glyph-name="onethird" unicode="&#x2153;" horiz-adv-x="1849" 
d="M1374 1483l86 -68l-1110 -1464l-86 67zM426 1434h33v-820h-103v668l-174 -84v115zM1157 231l111 17q8 -72 47 -115t106 -43q73 0 110.5 48t37.5 124t-37 121t-111 45q-39 0 -71 -20l-54 71l183 242h-277v98h436v-35l-204 -276q12 4 36 4q91 0 150 -67.5t59 -182.5
q0 -114 -66.5 -192t-191.5 -78q-108 0 -181 63.5t-83 175.5z" />
    <glyph glyph-name="twothirds" unicode="&#x2154;" horiz-adv-x="1878" 
d="M1436 1483l86 -68l-1110 -1464l-86 67zM1219 231l110 17q8 -72 47.5 -115t106.5 -43q73 0 110 48t37 124t-36.5 121t-110.5 45q-40 0 -72 -20l-53 71l182 242h-276v98h436v-35l-205 -276q12 4 37 4q91 0 150 -67.5t59 -182.5q0 -114 -66.5 -192t-191.5 -78
q-108 0 -181 63.5t-83 175.5zM90 614v39l301 375q46 57 64 97.5t18 86.5q0 60 -32.5 93.5t-94.5 33.5q-56 0 -89.5 -42.5t-41.5 -112.5l-111 28q9 99 75.5 164.5t166.5 65.5q110 0 174 -64t64 -166q0 -112 -80 -215l-228 -280h328v-103h-514z" />
    <glyph glyph-name="oneeighth" unicode="&#x215b;" horiz-adv-x="1736" 
d="M1374 1483l86 -68l-1110 -1464l-86 67zM426 1434h33v-820h-103v668l-174 -84v115zM1389 827q100 0 162.5 -61t62.5 -156q0 -58 -27 -102t-69 -68q56 -21 91.5 -73t35.5 -125q0 -115 -73 -182.5t-183 -67.5t-183 67.5t-73 182.5q0 73 35.5 125t91.5 73q-42 24 -69.5 68
t-27.5 102q0 95 63 156t163 61zM1389 387q-68 0 -107 -38t-39 -107q0 -68 39.5 -110t106.5 -42t106 42t39 110q0 69 -38.5 107t-106.5 38zM1389 737q-58 0 -92.5 -35t-34.5 -92q0 -56 34.5 -90.5t92.5 -34.5t92.5 34.5t34.5 90.5q0 57 -34.5 92t-92.5 35z" />
    <glyph glyph-name="threeeighths" unicode="&#x215c;" horiz-adv-x="1789" 
d="M1442 827q100 0 162.5 -61t62.5 -156q0 -58 -27 -102t-69 -68q56 -21 91.5 -73t35.5 -125q0 -115 -73 -182.5t-183 -67.5t-183 67.5t-73 182.5q0 73 35.5 125t91.5 73q-42 24 -69 68t-27 102q0 95 62.5 156t162.5 61zM1442 387q-68 0 -107 -38t-39 -107q0 -68 39.5 -110
t106.5 -42t106 42t39 110q0 69 -38.5 107t-106.5 38zM1442 737q-58 0 -92.5 -35t-34.5 -92q0 -56 34.5 -90.5t92.5 -34.5t92.5 34.5t34.5 90.5q0 57 -34.5 92t-92.5 35zM1427 1483l86 -68l-1110 -1464l-86 67zM137 846l111 16q8 -72 47 -114.5t106 -42.5q73 0 110.5 48
t37.5 124q0 75 -37 120t-111 45q-39 0 -71 -20l-54 72l183 241h-277v99h436v-35l-204 -277q12 4 37 4q91 0 149.5 -67t58.5 -182q0 -114 -66.5 -192.5t-191.5 -78.5q-108 0 -181 64t-83 176z" />
    <glyph glyph-name="fiveeighths" unicode="&#x215d;" horiz-adv-x="1789" 
d="M1442 827q100 0 162.5 -61t62.5 -156q0 -58 -27 -102t-69 -68q56 -21 91.5 -73t35.5 -125q0 -115 -73 -182.5t-183 -67.5t-183 67.5t-73 182.5q0 73 35.5 125t91.5 73q-42 24 -69 68t-27 102q0 95 62.5 156t162.5 61zM1442 387q-68 0 -107 -38t-39 -107q0 -68 39.5 -110
t106.5 -42t106 42t39 110q0 69 -38.5 107t-106.5 38zM1442 737q-58 0 -92.5 -35t-34.5 -92q0 -56 34.5 -90.5t92.5 -34.5t92.5 34.5t34.5 90.5q0 57 -34.5 92t-92.5 35zM1427 1483l86 -68l-1110 -1464l-86 67zM113 831l100 19q29 -145 152 -145q75 0 115 46.5t40 131.5
q0 88 -40.5 134t-114.5 46q-93 0 -160 -92l-74 16l43 447h408v-99h-320l-26 -235q23 24 63 40.5t82 16.5q118 0 184 -73t66 -201q0 -126 -72.5 -201.5t-193.5 -75.5q-101 0 -169 58.5t-83 166.5z" />
    <glyph glyph-name="seveneighths" unicode="&#x215e;" horiz-adv-x="1660" 
d="M1313 827q100 0 162.5 -61t62.5 -156q0 -58 -27 -102t-69 -68q56 -21 91.5 -73t35.5 -125q0 -115 -73 -182.5t-183 -67.5t-183 67.5t-73 182.5q0 73 35.5 125t91.5 73q-42 24 -69.5 68t-27.5 102q0 95 63 156t163 61zM1313 387q-68 0 -107 -38t-39 -107q0 -68 39.5 -110
t106.5 -42t106 42t39 110q0 69 -38.5 107t-106.5 38zM1313 737q-58 0 -92.5 -35t-34.5 -92q0 -56 34.5 -90.5t92.5 -34.5t92.5 34.5t34.5 90.5q0 57 -34.5 92t-92.5 35zM1298 1483l86 -68l-1110 -1464l-86 67zM291 614h-111l297 721h-336v99h467v-45z" />
    <glyph glyph-name="partialdiff" unicode="&#x2202;" horiz-adv-x="1212" 
d="M352 1147l-133 35q56 122 160 195t250 73q219 0 335.5 -187t116.5 -536q0 -151 -35.5 -282.5t-104 -235.5t-180 -164.5t-253.5 -60.5q-181 0 -293.5 121t-112.5 317q0 124 39.5 237t110.5 200t178 138.5t234 51.5q84 0 165 -33t117 -84q-19 183 -107 291t-225 108
q-168 0 -262 -184zM645 930q-94 0 -172.5 -43.5t-129 -115t-78 -161t-27.5 -184.5q0 -143 74 -233.5t196 -90.5q126 0 226 71t153 185t53 246q0 153 -78.5 239.5t-216.5 86.5z" />
    <glyph glyph-name="Delta" unicode="&#x2206;" horiz-adv-x="1339" 
d="M119 0v33l483 1401h135l484 -1401v-33h-1102zM670 1243l-383 -1124h766z" />
    <glyph glyph-name="product" unicode="&#x220f;" horiz-adv-x="1107" 
d="M193 0v1434h722v-1434h-127v1319h-469v-1319h-126z" />
    <glyph glyph-name="summation" unicode="&#x2211;" horiz-adv-x="1110" 
d="M563 717l-440 686v31h852v-115h-660l375 -586v-33l-375 -585h660v-115h-852v31z" />
    <glyph glyph-name="minus" unicode="&#x2212;" horiz-adv-x="1114" 
d="M141 592v115h840v-115h-840z" />
    <glyph glyph-name="radical" unicode="&#x221a;" horiz-adv-x="1130" 
d="M958 1450h115l-440 -1450h-96l-222 682h-192v115h272l191 -576z" />
    <glyph glyph-name="infinity" unicode="&#x221e;" horiz-adv-x="1794" 
d="M1303 344q-122 0 -219 69t-187 203q-90 -134 -186.5 -203t-218.5 -69q-166 0 -267.5 108.5t-101.5 282.5t101.5 282.5t267.5 108.5q122 0 218.5 -69t186.5 -203q90 134 187 203t219 69q166 0 267 -108.5t101 -282.5t-101 -282.5t-267 -108.5zM518 459q91 0 174 70
t150 206q-67 136 -150 206.5t-174 70.5q-122 0 -195 -74.5t-73 -202.5t73 -202t195 -74zM1276 459q122 0 195 74t73 202t-73 202.5t-195 74.5q-91 0 -174 -70.5t-150 -206.5q67 -136 150 -206t174 -70z" />
    <glyph glyph-name="integral" unicode="&#x222b;" horiz-adv-x="958" 
d="M223 -102l234 1200q37 190 130.5 271t250.5 81q77 0 125 -27l-50 -116q-46 24 -102 24q-180 0 -223 -213l-234 -1200q-37 -192 -126.5 -272t-245.5 -80q-88 0 -134 26l50 117q50 -24 102 -24q97 0 149 51t74 162z" />
    <glyph glyph-name="approxequal" unicode="&#x2248;" horiz-adv-x="1171" 
d="M225 371l-82 80q50 70 115.5 114.5t134.5 44.5q53 0 103.5 -17t83.5 -38t82 -38t100 -17q108 0 184 92l82 -80q-50 -70 -115.5 -115t-134.5 -45q-53 0 -103 17.5t-83 38t-82 38t-100 17.5q-109 0 -185 -92zM225 780l-82 80q50 70 115.5 115t134.5 45q53 0 103.5 -17.5
t83.5 -38t82 -38t100 -17.5q108 0 184 92l82 -79q-50 -70 -115.5 -115t-134.5 -45q-53 0 -103 17t-83 38t-82 38t-100 17q-109 0 -185 -92z" />
    <glyph glyph-name="notequal" unicode="&#x2260;" horiz-adv-x="1136" 
d="M172 748v114h461l131 228l98 -58l-98 -170h201v-114h-267l-129 -226h396v-114h-461l-131 -228l-99 58l99 170h-201v114h266l129 226h-395z" />
    <glyph glyph-name="lessequal" unicode="&#x2264;" horiz-adv-x="1085" 
d="M115 0v115h837v-115h-837zM190 754v139l684 369v-127l-579 -312l579 -311v-127z" />
    <glyph glyph-name="greaterequal" unicode="&#x2265;" horiz-adv-x="1085" 
d="M971 115v-115h-838v115h838zM895 893v-139l-684 -369v127l580 311l-580 312v127z" />
    <glyph glyph-name="lozenge" unicode="&#x25ca;" horiz-adv-x="1146" 
d="M510 0l-369 717l369 717h127l369 -717l-369 -717h-127zM573 131l301 586l-301 586l-301 -586z" />
    <glyph glyph-name="apple" unicode="&#xf8ff;" horiz-adv-x="1626" 
d="M1419 1264v-1219q0 -18 -12.5 -31.5t-32.5 -13.5q-6 0 -14 2l-547 158l-547 -158q-8 -2 -14 -2q-20 0 -32.5 13.5t-12.5 31.5v1219q0 15 9.5 27.5t23.5 17.5l553 159q15 5 20 5q6 0 21 -5l552 -159q14 -5 23.5 -17.5t9.5 -27.5zM768 750v620l-471 -137q12 -192 146 -329
t325 -154zM858 1370v-620q191 17 325 154t146 329zM295 948v-844l473 138v417q-149 12 -274 89t-199 200zM1331 104v844q-76 -123 -200 -200t-273 -89v-417z" />
    <glyph glyph-name="No" horiz-adv-x="2486" 
d="M1077 1434h135v-1434h-159l-711 1214v-1214h-135v1434h160l710 -1219v1219zM1470 0v115h838v-115h-838zM1405 918q0 102 33.5 197t94.5 170t153.5 120t201.5 45q145 0 257.5 -77.5t169.5 -197.5t57 -257t-57 -257.5t-169.5 -198t-257.5 -77.5q-109 0 -201.5 45
t-153.5 120t-94.5 170.5t-33.5 197.5zM1538 918q0 -79 22.5 -152t65 -132t110.5 -94.5t152 -35.5t152 35.5t110.5 94.5t65 132t22.5 152q0 63 -14 122.5t-43 112.5t-70 92.5t-98.5 62.5t-124.5 23t-124.5 -23t-98.5 -62.5t-70 -92.5t-43 -112.5t-14 -122.5z" />
    <glyph glyph-name="zero.tn" horiz-adv-x="1159" 
d="M580 1450q241 0 367 -197.5t126 -535.5t-126 -535.5t-367 -197.5t-367.5 197.5t-126.5 535.5t126.5 535.5t367.5 197.5zM580 1335q-170 0 -266.5 -170.5t-96.5 -447.5t96.5 -448t266.5 -171q113 0 195.5 79.5t124.5 218.5t42 321q0 277 -96 447.5t-266 170.5z" />
    <glyph glyph-name="one.tn" horiz-adv-x="1159" 
d="M668 1434h32v-1434h-127v1217l-237 -150v156z" />
    <glyph glyph-name="two.tn" horiz-adv-x="1159" 
d="M158 0v47l522 676q98 126 129 193t31 157q0 122 -68 192t-186 70q-110 0 -185 -80t-94 -208l-119 22q15 168 125 274.5t273 106.5q169 0 277 -100.5t108 -280.5q0 -96 -44 -186.5t-130 -200.5l-439 -567h648v-115h-848z" />
    <glyph glyph-name="three.tn" horiz-adv-x="1159" 
d="M139 393l127 19q16 -142 97 -228t217 -86q155 0 238 91t83 249q0 165 -84 253.5t-237 88.5q-69 0 -127 -37l-62 80l371 496h-551v115h750v-35l-388 -514q18 6 54 6q79 0 151.5 -30.5t129 -86.5t90.5 -143t34 -193q0 -204 -121.5 -329t-330.5 -125q-178 0 -299.5 108
t-141.5 301z" />
    <glyph glyph-name="four.tn" horiz-adv-x="1159" 
d="M729 0v330h-633v35l604 1069h156v-990h191v-114h-191v-330h-127zM276 444h453v809z" />
    <glyph glyph-name="five.tn" horiz-adv-x="1159" 
d="M162 377l125 22q41 -301 295 -301q153 0 232 98.5t79 270.5q0 182 -81 275.5t-230 93.5q-94 0 -170 -54.5t-125 -138.5l-90 21l73 770h670v-115h-555l-51 -488q49 52 116 85.5t144 33.5q198 0 314 -129.5t116 -353.5q0 -216 -119 -349.5t-323 -133.5q-170 0 -283 100
t-137 293z" />
    <glyph glyph-name="six.tn" horiz-adv-x="1159" 
d="M580 918q197 0 321.5 -134t124.5 -333t-124.5 -333t-321.5 -134t-322 134t-125 333q0 128 76 264l424 735h133l-320 -567q20 16 60.5 25.5t73.5 9.5zM580 803q-140 0 -228 -95.5t-88 -256.5q0 -154 89 -253.5t227 -99.5t226.5 99.5t88.5 253.5q0 161 -87.5 256.5
t-227.5 95.5z" />
    <glyph glyph-name="seven.tn" horiz-adv-x="1159" 
d="M418 0h-133l549 1319h-644v115h795v-41z" />
    <glyph glyph-name="eight.tn" horiz-adv-x="1159" 
d="M580 1450q170 0 275.5 -104t105.5 -269q0 -106 -51 -184.5t-130 -120.5q99 -36 164.5 -138t65.5 -233q0 -132 -60.5 -228.5t-156.5 -142.5t-213 -46t-213 46t-156.5 142.5t-60.5 228.5q0 131 65 233t164 138q-78 42 -129 120.5t-51 184.5q0 165 105.5 269t275.5 104z
M580 705q-135 0 -217 -81.5t-82 -222.5t82 -222t217 -81q136 0 217.5 81t81.5 222t-82 222.5t-217 81.5zM580 1335q-115 0 -184.5 -70t-69.5 -188t69.5 -188t184.5 -70t184.5 70t69.5 188t-69.5 188t-184.5 70z" />
    <glyph glyph-name="nine.tn" horiz-adv-x="1159" 
d="M580 516q-197 0 -322 134t-125 333t125 333t322 134t321.5 -134t124.5 -333q0 -128 -76 -264l-424 -735h-133l320 567q-20 -16 -60 -25.5t-73 -9.5zM580 631q140 0 227.5 95.5t87.5 256.5q0 154 -88.5 253t-226.5 99t-227 -99t-89 -253q0 -161 88 -256.5t228 -95.5z" />
    <glyph glyph-name="edition" horiz-adv-x="5101" 
d="M1077 1434h135v-1434h-159l-711 1214v-1214h-135v1434h160l710 -1219v1219zM1470 0v115h838v-115h-838zM1405 918q0 102 33.5 197t94.5 170t153.5 120t201.5 45q145 0 257.5 -77.5t169.5 -197.5t57 -257t-57 -257.5t-169.5 -198t-257.5 -77.5q-109 0 -201.5 45
t-153.5 120t-94.5 170.5t-33.5 197.5zM1538 918q0 -79 22.5 -152t65 -132t110.5 -94.5t152 -35.5t152 35.5t110.5 94.5t65 132t22.5 152q0 63 -14 122.5t-43 112.5t-70 92.5t-98.5 62.5t-124.5 23t-124.5 -23t-98.5 -62.5t-70 -92.5t-43 -112.5t-14 -122.5zM2976 1442
q140 0 217.5 -113.5t77.5 -304.5t-77.5 -304.5t-217.5 -113.5q-142 0 -219.5 113t-77.5 305t77.5 305t219.5 113zM2976 1343q-87 0 -137 -82t-50 -237t50 -237t137 -82t136.5 82t49.5 237t-49.5 237t-136.5 82zM3809 1442q140 0 217.5 -113.5t77.5 -304.5t-77.5 -304.5
t-217.5 -113.5q-142 0 -219.5 113t-77.5 305t77.5 305t219.5 113zM3809 1343q-87 0 -136.5 -82t-49.5 -237t49.5 -237t136.5 -82t137 82t50 237t-50 237t-137 82zM4643 1442q140 0 217.5 -113.5t77.5 -304.5t-77.5 -304.5t-217.5 -113.5q-142 0 -219.5 113t-77.5 305
t77.5 305t219.5 113zM4643 1343q-87 0 -137 -82t-50 -237t50 -237t137 -82t136.5 82t49.5 237t-49.5 237t-136.5 82z" />
    <glyph glyph-name="quotedblleft.alt" horiz-adv-x="933" 
d="M373 1450l26 -31q-53 -37 -89 -92t-36 -106q53 -13 81 -44.5t28 -76.5q0 -48 -33 -81.5t-84 -33.5q-52 0 -87.5 37.5t-35.5 93.5q0 93 65.5 181t164.5 153zM748 1450l26 -31q-53 -37 -89 -92t-36 -106q53 -13 81 -44.5t28 -76.5q0 -48 -33 -81.5t-84 -33.5
q-52 0 -87.5 37.5t-35.5 93.5q0 93 65.5 181t164.5 153z" />
    <glyph glyph-name="quotedblright.alt" horiz-adv-x="933" 
d="M561 985l-26 31q53 36 88.5 91.5t35.5 106.5q-108 27 -108 121q0 48 33 81.5t84 33.5q52 0 87.5 -37.5t35.5 -93.5q0 -93 -65.5 -181t-164.5 -153zM186 985l-26 31q53 37 89 92t36 106q-53 13 -81 44.5t-28 76.5q0 48 33 81.5t84 33.5q52 0 87.5 -37.5t35.5 -93.5
q0 -93 -65.5 -181t-164.5 -153z" />
    <glyph glyph-name="quoteleft.alt" horiz-adv-x="542" 
d="M362 1450l27 -31q-53 -37 -89 -92t-36 -106q53 -13 81 -44.5t28 -76.5q0 -48 -33 -81.5t-84 -33.5q-52 0 -87.5 37.5t-35.5 93.5q0 93 65.5 181.5t163.5 152.5z" />
    <glyph glyph-name="quoteright.alt" horiz-adv-x="542" 
d="M180 985l-26 31q53 37 89 92t36 106q-53 13 -81 44.5t-28 76.5q0 48 33 81.5t84 33.5q52 0 87.5 -37.5t35.5 -93.5q0 -93 -65.5 -181t-164.5 -153z" />
    <glyph glyph-name="quotesinglbase.alt" horiz-adv-x="542" 
d="M180 -178l-26 31q53 37 89 92t36 106q-53 13 -81 44.5t-28 76.5q0 48 33 81.5t84 33.5q52 0 87.5 -37.5t35.5 -93.5q0 -93 -65.5 -181t-164.5 -153z" />
    <glyph glyph-name="quotedblbase.alt" horiz-adv-x="917" 
d="M555 -178l-27 31q53 37 89 92t36 106q-108 27 -108 121q0 48 33 81.5t84 33.5t86.5 -37.5t35.5 -93.5q0 -93 -65.5 -181.5t-163.5 -152.5zM180 -178l-26 31q53 37 89 92t36 106q-53 13 -81 44.5t-28 76.5q0 48 33 81.5t84 33.5q52 0 87.5 -37.5t35.5 -93.5
q0 -93 -65.5 -181t-164.5 -153z" />
    <glyph glyph-name="arrow.l" horiz-adv-x="1316" 
d="M563 256l-463 461l463 461l84 -86l-309 -316h858v-119h-858l309 -315z" />
    <glyph glyph-name="arrow.r" horiz-adv-x="1316" 
d="M1217 717l-463 -461l-84 86l309 315h-858v119h858l-309 316l84 86z" />
    <glyph glyph-name="arrow.u" horiz-adv-x="1290" 
d="M184 803l461 463l461 -463l-86 -84l-315 309v-860h-119v860l-316 -309z" />
    <glyph glyph-name="arrow.d" horiz-adv-x="1290" 
d="M645 168l-461 463l86 84l316 -309v860h119v-860l315 309l86 -84z" />
    <glyph glyph-name="arrow.ul" horiz-adv-x="1298" 
d="M236 473v653h651v-127h-441l607 -604l-88 -88l-605 606v-440h-124z" />
    <glyph glyph-name="arrow.ur" horiz-adv-x="1298" 
d="M1063 1126v-653h-125v440l-604 -606l-88 88l606 604h-440v127h651z" />
    <glyph glyph-name="arrow.dl" horiz-adv-x="1298" 
d="M236 307v654h124v-441l605 606l88 -88l-607 -604h441v-127h-651z" />
    <glyph glyph-name="arrow.dr" horiz-adv-x="1298" 
d="M1063 961v-654h-651v127h440l-606 604l88 88l604 -606v441h125z" />
    <glyph glyph-name="arrow.l.xl" horiz-adv-x="1624" 
d="M563 256l-463 461l463 461l84 -86l-309 -316h1165v-119h-1165l309 -315z" />
    <glyph glyph-name="arrow.r.xl" horiz-adv-x="1624" 
d="M1524 717l-463 -461l-84 86l309 315h-1165v119h1165l-309 316l84 86z" />
    <glyph glyph-name="arrow.u.xl" horiz-adv-x="1290" 
d="M645 1417l461 -463l-86 -84l-315 310v-1164h-119v1164l-316 -310l-86 84z" />
    <glyph glyph-name="arrow.d.xl" horiz-adv-x="1290" 
d="M1106 481l-461 -463l-461 463l86 84l316 -309v1165h119v-1165l315 309z" />
    <glyph glyph-name="arrow.ul.xl" horiz-adv-x="1515" 
d="M236 567v654h653v-127h-438l819 -820l-88 -88l-822 820v-439h-124z" />
    <glyph glyph-name="arrow.ur.xl" horiz-adv-x="1515" 
d="M1280 1221v-654h-125v439l-821 -820l-88 88l819 820h-438v127h653z" />
    <glyph glyph-name="arrow.dl.xl" horiz-adv-x="1515" 
d="M236 186v654h124v-439l822 820l88 -88l-819 -820h438v-127h-653z" />
    <glyph glyph-name="arrow.dr.xl" horiz-adv-x="1515" 
d="M1280 840v-654h-653v127h438l-819 820l88 88l821 -820v439h125z" />
    <glyph glyph-name="dcaron.alt" horiz-adv-x="1556" 
d="M901 1450h127v-1450h-127v135q-41 -62 -134 -106.5t-192 -44.5q-110 0 -198.5 41.5t-145 114t-86.5 168.5t-30 208q0 150 51 269t157 191.5t252 72.5q85 0 177.5 -45t148.5 -117v563zM248 516q0 -182 87.5 -298t246.5 -116t245 116t86 298q0 180 -86.5 297t-244.5 117
t-246 -117t-88 -297zM1317 985l-27 31q53 37 89 92t36 106q-108 27 -108 121q0 48 32.5 81.5t83.5 33.5q52 0 87.5 -37.5t35.5 -93.5q0 -93 -65.5 -181.5t-163.5 -152.5z" />
    <glyph glyph-name="uni0123.alt" horiz-adv-x="1005" 
d="M186 702q0 154 100.5 250.5t250.5 96.5q94 0 178 -48l184 105l59 -109l-143 -79q72 -91 72 -216q0 -155 -99.5 -250.5t-250.5 -95.5q-110 0 -193 50q-84 -37 -84 -115q0 -52 35.5 -75t91.5 -23h266q141 0 225.5 -67.5t84.5 -203.5q0 -181 -116 -268.5t-308 -87.5
q-197 0 -311.5 90.5t-114.5 249.5q0 71 29.5 126.5t76.5 90.5q-82 50 -82 168q0 62 35 110t92 74q-78 95 -78 227zM639 82h-211q-54 0 -100 6q-92 -59 -92 -186q0 -103 76.5 -162t226.5 -59q146 0 223.5 62.5t77.5 162.5q0 176 -201 176zM313 702q0 -108 65 -171.5
t159 -63.5t158.5 63.5t64.5 171.5t-65 172t-158 64q-94 0 -159 -64t-65 -172zM668 1616l26 -31q-53 -36 -89 -92t-36 -107q109 -27 109 -120q0 -48 -33 -81.5t-84 -33.5q-52 0 -87.5 37.5t-35.5 93.5q0 93 65.5 181t164.5 153z" />
    <glyph glyph-name="lcaron.alt" horiz-adv-x="870" 
d="M193 1450h126v-1450h-126v1450zM598 985l-27 31q53 37 89 92t36 106q-108 27 -108 121q0 48 33 81.5t84 33.5t86.5 -37.5t35.5 -93.5q0 -93 -65.5 -181.5t-163.5 -152.5z" />
    <glyph glyph-name="napostrophe.alt" horiz-adv-x="1353" 
d="M1210 709v-709h-127v692q0 115 -53 176.5t-158 61.5q-144 0 -238.5 -130.5t-94.5 -346.5v-453h-127v1032h127v-215q54 104 149 168t205 64q148 0 232.5 -89.5t84.5 -250.5zM166 985l-27 31q53 37 89 92t36 106q-108 27 -108 121q0 48 32.5 81.5t83.5 33.5
q52 0 87.5 -37.5t35.5 -93.5q0 -93 -65.5 -181.5t-163.5 -152.5z" />
    <glyph glyph-name="tcaron.alt" horiz-adv-x="1142" 
d="M55 913v119h183v334l127 84v-418h278v-119h-278v-641q0 -85 39 -127.5t108 -42.5q78 0 129 33l35 -115q-65 -36 -180 -36q-119 0 -188.5 76.5t-69.5 232.5v620h-183zM887 985l-27 31q53 37 89 92t36 106q-108 27 -108 121q0 48 32.5 81.5t83.5 33.5q52 0 87.5 -37.5
t35.5 -93.5q0 -93 -65.5 -181.5t-163.5 -152.5z" />
    </font>
</defs>
</svg>
