<?xml version="1.0" standalone="no"?>
<!DOCTYPE svg PUBLIC "-//W3C//DTD SVG 1.1//EN" "http://www.w3.org/Graphics/SVG/1.1/DTD/svg11.dtd" >
<svg xmlns="http://www.w3.org/2000/svg" xmlns:xlink="http://www.w3.org/1999/xlink" version="1.1">
<metadata>
Created by FontForge 20170731 at Tue Apr 27 22:29:50 2021
 By Aleksey,,,
Copyright (c) 2009 by The Entente (AS &#38; EH). All rights reserved.
</metadata>
<defs>
<font id="Apercu-Light" horiz-adv-x="1159" >
  <font-face 
    font-family="Apercu Light"
    font-weight="300"
    font-stretch="normal"
    units-per-em="2048"
    panose-1="2 0 5 6 3 0 0 2 0 4"
    ascent="1638"
    descent="-410"
    x-height="1032"
    cap-height="1434"
    bbox="-152 -469 4909 1939"
    underline-thickness="102"
    underline-position="-307"
    unicode-range="U+000D-FB02"
  />
<missing-glyph horiz-adv-x="1267" 
d="M1061 0h-854v1434h854v-1434zM930 119v1196h-592v-1196h592z" />
    <glyph glyph-name="fi" unicode="fi" horiz-adv-x="1101" 
d="M266 913h-164v119h164v33q0 178 115 281q116 104 287 104q130 0 225 -59l-27 -117q-99 57 -209 57q-118 0 -191 -68.5t-73 -177.5v-53h541v-1032h-127v913h-414v-913h-127v913z" />
    <glyph glyph-name="fl" unicode="fl" horiz-adv-x="1189" 
d="M262 913h-160v119h160v66q0 352 320 352h428v-1450h-127v1331h-312q-182 0 -182 -213v-86h250v-119h-250v-913h-127v913z" />
    <glyph glyph-name=".notdef" horiz-adv-x="1267" 
d="M1061 0h-854v1434h854v-1434zM930 119v1196h-592v-1196h592z" />
    <glyph glyph-name=".null" horiz-adv-x="0" 
 />
    <glyph glyph-name=".null" horiz-adv-x="0" 
 />
    <glyph glyph-name="nonmarkingreturn" horiz-adv-x="682" 
 />
    <glyph glyph-name="CR" unicode="&#xd;" horiz-adv-x="681" 
 />
    <glyph glyph-name="space" unicode=" " horiz-adv-x="516" 
 />
    <glyph glyph-name="exclam" unicode="!" horiz-adv-x="665" 
d="M297 377l-45 1057h172l-45 -1057h-82zM256 27q-31 32 -31 81t31 80q32 32 81.5 32t80.5 -32q32 -31 32 -80t-32 -81q-31 -31 -80.5 -31t-81.5 31z" />
    <glyph glyph-name="quotedbl" unicode="&#x22;" horiz-adv-x="856" 
d="M326 983h-97l-43 467h183zM627 983h-97l-43 467h183z" />
    <glyph glyph-name="numbersign" unicode="#" horiz-adv-x="1468" 
d="M489 885h-249v110h274l88 439h115l-88 -439h325l90 439h115l-90 -439h242v-110h-264l-68 -336h250v-111h-275l-88 -438h-114l88 438h-326l-90 -438h-115l90 438h-241v111h264zM932 885h-328l-67 -336h327z" />
    <glyph glyph-name="dollar" unicode="$" horiz-adv-x="1036" 
d="M856 1229l-111 -70q-86 164 -237 164q-90 0 -144.5 -61.5t-54.5 -147.5q0 -166 221 -268q98 -44 183 -88q98 -47 159.5 -139t61.5 -216q0 -171 -96 -285t-252 -134v-168h-123v168q-147 18 -245.5 121.5t-131.5 265.5l117 69q46 -165 119.5 -247t201.5 -82
q124 0 196.5 75.5t72.5 212.5q0 175 -220 277q-152 70 -210 107q-176 114 -188 283q-1 15 -1 32q0 141 82 235q86 98 207 113v172h123v-174q97 -13 154.5 -62t115.5 -153z" />
    <glyph glyph-name="percent" unicode="%" horiz-adv-x="1728" 
d="M217 889q-90 96 -90 233q0 136 90 232q93 96 232 96t229 -96q92 -95 92 -232q0 -138 -92 -233q-88 -94 -229 -94t-232 94zM295 1278q-57 -60 -57 -156q0 -95 57 -155q59 -62 154 -62q94 0 153 62q57 60 57 155q0 96 -57 156q-58 61 -153 61q-96 0 -154 -61zM1049 78
q-91 97 -91 233q0 135 91 232q93 96 231 96q139 0 229 -96q93 -96 93 -232q0 -137 -93 -233q-88 -94 -229 -94q-140 0 -231 94zM1126 467q-57 -60 -57 -156q0 -95 57 -155q59 -62 154 -62t154 62q57 60 57 155q0 96 -57 156q-58 61 -154 61t-154 -61zM266 18l1110 1465
l86 -68l-1110 -1464z" />
    <glyph glyph-name="ampersand" unicode="&#x26;" horiz-adv-x="1345" 
d="M580 -16q-191 0 -304.5 110t-113.5 303q0 151 79 264.5t205 178.5q-135 184 -135 305q0 139 88.5 222t221.5 83q142 0 227.5 -79.5t85.5 -207.5q0 -209 -303 -364l334 -428q49 92 108 262l88 -103q-55 -154 -117 -262l211 -268h-147l-133 168q-150 -184 -395 -184z
M580 102q194 0 317 164l-377 482q-231 -126 -231 -355q0 -130 81 -210.5t210 -80.5zM621 1339q-85 0 -134 -53t-49 -149q0 -94 119 -246q133 65 191.5 124.5t58.5 137.5q0 82 -49 134t-137 52z" />
    <glyph glyph-name="quotesingle" unicode="'" horiz-adv-x="555" 
d="M326 983h-97l-43 467h183z" />
    <glyph glyph-name="parenleft" unicode="(" horiz-adv-x="575" 
d="M369 1536h135q-217 -353 -217 -819t217 -819h-135q-224 361 -224 819t224 819z" />
    <glyph glyph-name="parenright" unicode=")" horiz-adv-x="575" 
d="M72 1536h135q223 -360 223 -819t-223 -819h-135q217 353 217 819t-217 819z" />
    <glyph glyph-name="asterisk" unicode="*" horiz-adv-x="1007" 
d="M446 1450h115v-299l285 94l37 -110l-285 -97l176 -237l-94 -70l-176 240l-176 -240l-95 70l177 237l-285 97l37 110l284 -94v299z" />
    <glyph glyph-name="plus" unicode="+" horiz-adv-x="1116" 
d="M618 705h363v-115h-363v-363h-114v363h-363v115h363v360h114v-360z" />
    <glyph glyph-name="comma" unicode="," horiz-adv-x="571" 
d="M229 -158h-94l103 338h188z" />
    <glyph glyph-name="hyphen" unicode="-" horiz-adv-x="964" 
d="M819 592h-674v115h674v-115z" />
    <glyph glyph-name="period" unicode="." horiz-adv-x="581" 
d="M186 100q0 44 30.5 74.5t74.5 30.5t74 -30.5t30 -74.5t-30 -74t-74 -30q-45 0 -75 29t-30 75z" />
    <glyph glyph-name="slash" unicode="/" horiz-adv-x="1079" 
d="M35 -102l893 1638h135l-893 -1638h-135z" />
    <glyph glyph-name="zero" unicode="0" horiz-adv-x="1261" 
d="M262 1251q126 199 369 199q240 0 366 -199q127 -198 127 -534t-127 -537q-126 -196 -366 -196q-243 0 -369 196q-125 198 -125 537t125 534zM897 1165q-95 170 -266 170t-266 -170q-97 -174 -97 -448q0 -275 97 -449q95 -170 266 -170t266 170q96 172 96 449
q0 276 -96 448z" />
    <glyph glyph-name="one" unicode="1" horiz-adv-x="708" 
d="M145 1223l332 211h33v-1434h-127v1217l-238 -150v156z" />
    <glyph glyph-name="two" unicode="2" horiz-adv-x="1165" 
d="M1001 0h-847v47l522 676q101 128 129 192q31 70 31 158q0 122 -68 192t-186 70q-109 0 -184.5 -79.5t-94.5 -208.5l-119 22q14 163 125 274q107 107 273 107q173 0 279 -102t106 -279q0 -164 -174 -387l-439 -567h647v-115z" />
    <glyph glyph-name="three" unicode="3" horiz-adv-x="1173" 
d="M129 393l127 19q18 -146 98.5 -230t214.5 -84q154 0 238 90t84 250q0 165 -84 253.5t-238 88.5q-69 0 -127 -37l-61 80l371 496h-551v115h749v-35l-387 -514q18 6 53 6q165 0 285 -123q121 -121 121 -330q0 -203 -123 -329q-119 -125 -330 -125q-180 0 -300 109.5
t-140 299.5z" />
    <glyph glyph-name="four" unicode="4" horiz-adv-x="1191" 
d="M881 0h-127v330h-633v35l604 1069h156v-990h190v-114h-190v-330zM754 1253l-453 -809h453v809z" />
    <glyph glyph-name="five" unicode="5" horiz-adv-x="1153" 
d="M147 377l125 22q40 -301 295 -301q152 0 232 97.5t80 271.5q0 181 -81.5 275t-230.5 94q-181 0 -295 -193l-90 21l74 770h670v-115h-555l-52 -488q110 119 261 119q198 0 314 -130t116 -353q0 -216 -119 -350q-121 -133 -324 -133q-174 0 -285 100.5t-135 292.5z" />
    <glyph glyph-name="six" unicode="6" horiz-adv-x="1175" 
d="M606 918q195 0 322 -136q125 -131 125 -331t-125 -334q-127 -133 -322 -133q-194 0 -321 133q-125 134 -125 334q0 130 76 264l423 735h134l-320 -567q47 35 133 35zM291 451q0 -153 88 -254q89 -99 227 -99q136 0 225 99q91 105 91 254q0 160 -87.5 256t-228.5 96
t-228 -96t-87 -256z" />
    <glyph glyph-name="seven" unicode="7" horiz-adv-x="978" 
d="M915 1393l-567 -1393h-133l549 1319h-643v115h794v-41z" />
    <glyph glyph-name="eight" unicode="8" horiz-adv-x="1183" 
d="M973 1077q0 -102 -49.5 -182t-130.5 -123q100 -37 164.5 -139.5t64.5 -231.5q0 -197 -125 -307q-122 -110 -305 -110q-182 0 -307 110q-123 111 -123 307q0 129 64.5 231.5t164.5 139.5q-81 43 -130.5 123t-49.5 182q0 168 104 269q107 104 277 104t274 -104
q107 -101 107 -269zM592 98q137 0 218 81.5t81 221.5t-81.5 222t-217.5 82t-217.5 -82t-81.5 -222t81.5 -221.5t217.5 -81.5zM776 1264q-71 71 -184 71t-184 -71q-70 -70 -70 -187q0 -118 70 -188t184 -70t184 70t70 188q0 117 -70 187z" />
    <glyph glyph-name="nine" unicode="9" horiz-adv-x="1161" 
d="M592 516q-195 0 -322 133q-125 134 -125 334q0 201 125 332q126 135 322 135q195 0 321 -135q125 -131 125 -332q0 -132 -75 -264l-424 -735h-133l319 567q-47 -35 -133 -35zM907 983q0 151 -90 252q-87 100 -225 100q-140 0 -227 -100q-89 -100 -89 -252
q0 -160 87.5 -256t228.5 -96t228 96t87 256z" />
    <glyph glyph-name="colon" unicode=":" horiz-adv-x="610" 
d="M201 100q0 33 19 59t46 37.5t58.5 6.5t54.5 -29q24 -23 29 -54.5t-6.5 -58.5t-37.5 -46t-59 -19q-47 0 -75.5 28.5t-28.5 75.5zM201 850q0 33 19 59t46 37.5t58.5 6.5t54.5 -29q24 -23 29 -54.5t-6.5 -58.5t-37.5 -46.5t-59 -19.5q-47 0 -75.5 29t-28.5 76z" />
    <glyph glyph-name="semicolon" unicode=";" horiz-adv-x="610" 
d="M201 850q0 33 19 59t46 37.5t58.5 6.5t54.5 -29q24 -23 29 -54.5t-6.5 -58.5t-37.5 -46.5t-59 -19.5q-47 0 -75.5 29t-28.5 76zM219 -158h-94l102 338h189z" />
    <glyph glyph-name="less" unicode="&#x3c;" horiz-adv-x="925" 
d="M799 197l-684 368v140l684 368v-127l-580 -311l580 -311v-127z" />
    <glyph glyph-name="equal" unicode="=" horiz-adv-x="1210" 
d="M1001 748h-792v114h792v-114zM1001 408h-792v114h792v-114z" />
    <glyph glyph-name="greater" unicode="&#x3e;" horiz-adv-x="925" 
d="M127 1073l684 -368v-140l-684 -368v127l580 311l-580 311v127z" />
    <glyph glyph-name="question" unicode="?" horiz-adv-x="897" 
d="M385 27q-31 32 -31 81t31 80q32 32 81.5 32t80.5 -32q32 -31 32 -80t-32 -81q-31 -31 -80.5 -31t-81.5 31zM621 657l102 -39q-59 -215 -260 -215q-110 0 -182 65.5t-72 182.5q0 164 180 262l168 93q107 58 107 151q0 82 -52.5 128t-148.5 46q-179 0 -232 -209l-129 23
q25 144 122 224.5t253 80.5q140 0 229 -80t89 -207q0 -159 -179 -254l-147 -80q-72 -38 -102.5 -79.5t-30.5 -102.5q0 -57 33 -91t90 -34q62 0 100.5 31.5t61.5 103.5z" />
    <glyph glyph-name="at" unicode="@" horiz-adv-x="1765" 
d="M1116 928l29 114h110l-49 -542q-1 -14 -2 -25t-1.5 -16t-0.5 -6q0 -117 113 -117q101 0 155 102.5t54 282.5q0 301 -162.5 468t-458.5 167q-100 -1 -196.5 -32t-181.5 -93.5t-149.5 -149.5t-101.5 -207t-36 -258q0 -324 186 -510q187 -184 477 -184q138 0 252.5 31.5
t251.5 109.5l45 -102q-155 -83 -279 -119q-119 -35 -270 -35q-345 0 -571 218t-226 591q0 204 67 371.5t185 272.5q236 210 557 210q333 0 539 -194q205 -193 205 -555q0 -243 -96 -371.5t-254 -128.5q-83 0 -142.5 45.5t-79.5 114.5q-106 -160 -276 -160q-164 0 -255 103.5
t-91 279.5q0 194 119 322q119 131 305 131q78 0 139 -34.5t90 -94.5zM872 942q-123 0 -198.5 -97t-75.5 -247q0 -126 59.5 -194t165.5 -68q125 0 195 102q74 103 74 242q0 122 -58 192t-162 70z" />
    <glyph glyph-name="A" unicode="A" horiz-adv-x="1196" 
d="M20 0l519 1434h118l519 -1434h-140l-143 408h-590l-143 -408h-140zM850 535l-252 714l-252 -714h504z" />
    <glyph glyph-name="B" unicode="B" horiz-adv-x="1261" 
d="M207 0v1434h461q189 0 294 -97.5t105 -271.5q0 -91 -52 -169.5t-128 -111.5q118 -43 186 -136t68 -234q0 -189 -119.5 -301.5t-321.5 -112.5h-493zM674 700h-332v-573h332q165 0 245 68t80 219t-80 218.5t-245 67.5zM668 1307h-326v-480h326q260 0 260 240t-260 240z" />
    <glyph glyph-name="C" unicode="C" horiz-adv-x="1392" 
d="M1161 432l133 -39q-56 -192 -197.5 -300.5t-342.5 -108.5q-262 0 -449 190q-184 190 -184 543q0 178 52 321.5t144 231.5q186 180 437 180q201 0 342.5 -109t197.5 -301l-133 -39q-42 155 -145.5 238.5t-261.5 83.5q-221 0 -357 -160q-135 -159 -135 -446
q0 -288 135 -447t357 -159q158 0 261.5 83t145.5 238z" />
    <glyph glyph-name="D" unicode="D" horiz-adv-x="1355" 
d="M207 0v1434h377q281 0 467 -195q184 -193 184 -522q0 -331 -184 -524t-467 -193h-377zM586 1307h-244v-1180h244q217 0 360 149q148 151 148 441q0 289 -148 440q-144 150 -360 150z" />
    <glyph glyph-name="E" unicode="E" horiz-adv-x="1163" 
d="M207 0v1434h809v-127h-674v-480h551v-127h-551v-573h694v-127h-829z" />
    <glyph glyph-name="F" unicode="F" horiz-adv-x="1153" 
d="M207 0v1434h823v-127h-688v-496h565v-127h-565v-684h-135z" />
    <glyph glyph-name="G" unicode="G" horiz-adv-x="1449" 
d="M1311 0h-119l-16 221q-57 -110 -171 -173.5t-255 -63.5q-262 0 -445 192q-184 193 -184 541q0 347 184 540t445 193q209 0 354 -110.5t199 -307.5l-134 -37q-50 159 -157 243.5t-262 84.5q-219 0 -355 -160q-133 -160 -133 -446q0 -287 133 -447q135 -159 355 -159
q205 0 315 124t111 361h-332v127h467v-723z" />
    <glyph glyph-name="H" unicode="H" horiz-adv-x="1413" 
d="M1071 825v609h135v-1434h-135v698h-729v-698h-135v1434h135v-609h729z" />
    <glyph glyph-name="I" unicode="I" horiz-adv-x="548" 
d="M207 1434h135v-1434h-135v1434z" />
    <glyph glyph-name="J" unicode="J" horiz-adv-x="1017" 
d="M705 406v1028h135v-1014q0 -206 -119 -322q-117 -114 -285 -114q-181 0 -282 104q-102 108 -123 262l139 31q40 -270 266 -270q123 0 196 75.5t73 219.5z" />
    <glyph glyph-name="K" unicode="K" horiz-adv-x="1157" 
d="M485 791l639 -791h-166l-616 760v-760h-135v1434h135v-613l559 613h172z" />
    <glyph glyph-name="L" unicode="L" horiz-adv-x="1054" 
d="M207 0v1434h135v-1307h672v-127h-807z" />
    <glyph glyph-name="M" unicode="M" horiz-adv-x="1601" 
d="M207 0v1434h168l426 -1080l426 1080h168v-1434h-135v1171l-416 -1040h-86l-416 1040v-1171h-135z" />
    <glyph glyph-name="N" unicode="N" horiz-adv-x="1419" 
d="M1077 215v1219h135v-1434h-159l-711 1214v-1214h-135v1434h160z" />
    <glyph glyph-name="O" unicode="O" horiz-adv-x="1499" 
d="M303 1247q185 203 447 203t444 -203q184 -199 184 -530t-184 -533q-182 -200 -444 -200t-447 200q-182 203 -182 533t182 530zM1098 1163q-139 160 -348 160q-212 0 -351 -160q-137 -155 -137 -446t137 -449q139 -157 351 -157q209 0 348 157q139 160 139 449t-139 446z
" />
    <glyph glyph-name="P" unicode="P" horiz-adv-x="1183" 
d="M694 643h-352v-643h-135v1434h487q192 0 303 -106t111 -290t-111 -289.5t-303 -105.5zM342 770h354q136 0 203.5 70.5t67.5 197.5t-67.5 198t-203.5 71h-354v-537z" />
    <glyph glyph-name="Q" unicode="Q" horiz-adv-x="1499" 
d="M1378 717q0 -310 -161 -506l137 -135l-92 -92l-136 135q-164 -135 -376 -135q-262 0 -447 200q-182 203 -182 533t182 530q185 203 447 203t444 -203q184 -199 184 -530zM1036 207l-151 153l92 93l147 -150q113 162 113 414q0 289 -139 446q-139 160 -348 160
q-212 0 -351 -160q-137 -155 -137 -446t137 -449q139 -157 351 -157q164 0 286 96z" />
    <glyph glyph-name="R" unicode="R" horiz-adv-x="1302" 
d="M1210 0h-151l-449 709h-268v-709h-135v1434h461q197 0 303 -92.5t106 -270.5q0 -154 -81 -245t-232 -111zM659 1307h-317v-471h317q281 0 281 235q0 236 -281 236z" />
    <glyph glyph-name="S" unicode="S" horiz-adv-x="1036" 
d="M856 1229l-111 -70q-86 164 -237 164q-90 0 -144.5 -61.5t-54.5 -147.5q0 -166 221 -268q98 -44 183 -88q98 -47 159.5 -139t61.5 -216q0 -191 -117 -305q-114 -114 -293 -114q-170 0 -285 105t-153 282l117 69q46 -165 119.5 -247t201.5 -82q124 0 196.5 75.5
t72.5 212.5q0 175 -220 277q-152 70 -210 107q-176 114 -188 283q-1 15 -1 32q0 153 96 254q98 98 238 98q101 0 168 -33q67 -30 100 -67.5t80 -120.5z" />
    <glyph glyph-name="T" unicode="T" horiz-adv-x="1056" 
d="M461 1307h-428v127h991v-127h-428v-1307h-135v1307z" />
    <glyph glyph-name="U" unicode="U" horiz-adv-x="1339" 
d="M178 459v975h135v-988q0 -147 95 -241t262 -94t261.5 94t94.5 241v988h135v-975q0 -225 -143 -350q-140 -125 -348 -125t-351 125q-141 126 -141 350z" />
    <glyph glyph-name="V" unicode="V" horiz-adv-x="1175" 
d="M588 193l434 1241h139l-502 -1434h-143l-502 1434h140z" />
    <glyph glyph-name="W" unicode="W" horiz-adv-x="1841" 
d="M1311 209l325 1225h140l-394 -1434h-137l-325 1073l-324 -1073h-137l-393 1434h139l325 -1225l330 1073h121z" />
    <glyph glyph-name="X" unicode="X" 
d="M580 911l307 523h141l-379 -643l467 -791h-141l-395 672l-396 -672h-141l467 791l-379 643h141z" />
    <glyph glyph-name="Y" unicode="Y" horiz-adv-x="1024" 
d="M444 0v623l-432 811h158l342 -678l342 678h158l-432 -811v-623h-136z" />
    <glyph glyph-name="Z" unicode="Z" horiz-adv-x="1122" 
d="M819 1307h-696v127h876v-66l-712 -1241h727v-127h-916v66z" />
    <glyph glyph-name="bracketleft" unicode="[" horiz-adv-x="659" 
d="M573 -102h-366v1638h366v-115h-243v-1409h243v-114z" />
    <glyph glyph-name="backslash" unicode="\" horiz-adv-x="1079" 
d="M909 -102l-893 1638h136l892 -1638h-135z" />
    <glyph glyph-name="bracketright" unicode="]" horiz-adv-x="659" 
d="M86 1536h367v-1638h-367v114h244v1409h-244v115z" />
    <glyph glyph-name="asciicircum" unicode="^" horiz-adv-x="1064" 
d="M106 879l377 555h99l376 -555h-141l-285 436l-284 -436h-142z" />
    <glyph glyph-name="underscore" unicode="_" horiz-adv-x="972" 
d="M905 -115h-837v115h837v-115z" />
    <glyph glyph-name="grave" unicode="`" horiz-adv-x="428" 
d="M43 1434h190l144 -287h-101z" />
    <glyph glyph-name="a" unicode="a" horiz-adv-x="1036" 
d="M250 297q0 -93 53.5 -144t147.5 -51q119 0 215 93q98 91 98 282v39h-168q-170 0 -258 -57t-88 -162zM891 684v-684h-96l-31 160q-102 -176 -326 -176q-147 0 -234 79t-87 234q0 165 124.5 251.5t350.5 86.5h172v45q0 126 -62.5 188t-175.5 62q-187 0 -245 -193l-123 29
q20 128 122.5 205.5t245.5 77.5q158 0 260 -99q105 -94 105 -266z" />
    <glyph glyph-name="b" unicode="b" horiz-adv-x="1224" 
d="M197 0v1450h131v-563q55 72 145.5 117t175.5 45q216 0 338 -152q123 -150 123 -381q0 -233 -123 -383q-119 -149 -338 -149q-96 0 -187.5 44t-133.5 107v-135h-131zM977 516q0 181 -88 297q-89 117 -246 117q-158 0 -246 -117q-86 -118 -86 -297q0 -187 87.5 -300.5
t244.5 -113.5t245.5 113.5t88.5 300.5z" />
    <glyph glyph-name="c" unicode="c" horiz-adv-x="1081" 
d="M872 313l115 -45q-108 -284 -416 -284q-216 0 -335 155q-121 157 -121 377q0 218 121 375q122 158 335 158q308 0 416 -285l-115 -45q-85 211 -301 211q-159 0 -241 -119q-82 -116 -82 -295q0 -178 82 -297q82 -117 241 -117q216 0 301 211z" />
    <glyph glyph-name="d" unicode="d" horiz-adv-x="1224" 
d="M897 887v563h131v-1450h-131v135q-42 -63 -134 -107t-188 -44q-217 0 -339 149q-121 151 -121 383q0 230 121 381q125 152 339 152q85 0 176 -45.5t146 -116.5zM248 516q0 -187 88.5 -300.5t245.5 -113.5t244 113.5t87 300.5q0 181 -88 297q-85 117 -243 117t-246 -117
q-88 -116 -88 -297z" />
    <glyph glyph-name="e" unicode="e" horiz-adv-x="1130" 
d="M1026 573v-57h-778q0 -187 87.5 -300.5t237.5 -113.5q116 0 188 51t130 171l113 -56q-77 -152 -179 -218t-252 -66q-206 0 -331 149q-127 151 -127 383q0 230 127 381q128 152 331 152q201 0 326 -131q127 -133 127 -345zM573 930q-122 0 -206 -81t-111 -214h639
q-19 138 -103 216.5t-219 78.5z" />
    <glyph glyph-name="f" unicode="f" horiz-adv-x="735" 
d="M266 913h-164v119h164v66q0 352 320 352q74 0 123 -27l-27 -116q-53 24 -107 24q-182 0 -182 -213v-86h250v-119h-250v-913h-127v913z" />
    <glyph glyph-name="g" unicode="g" horiz-adv-x="1005" 
d="M186 702q0 156 101 250q105 97 250 97q93 0 178 -48l184 105l59 -109l-143 -79q72 -93 72 -216q0 -157 -101 -251q-103 -95 -249 -95q-110 0 -193 50q-84 -38 -84 -115q0 -98 127 -98h266q145 0 227.5 -69t82.5 -202q0 -178 -112.5 -267t-311.5 -89q-197 0 -311.5 90.5
t-114.5 249.5q0 139 106 217q-82 49 -82 168q0 60 34.5 108.5t92.5 75.5q-78 96 -78 227zM639 82h-211q-54 0 -100 6q-92 -59 -92 -186q0 -104 78 -162.5t225 -58.5q143 0 222 61.5t79 163.5q0 176 -201 176zM377 874q-64 -64 -64 -172t64 -172q63 -63 160 -63q94 0 157 63
q66 66 66 172t-66 172q-64 64 -157 64q-96 0 -160 -64z" />
    <glyph glyph-name="h" unicode="h" horiz-adv-x="1198" 
d="M1014 709v-709h-127v692q0 113 -55.5 175.5t-159.5 62.5q-146 0 -248 -135q-100 -132 -100 -355v-440h-127v1450h127v-643q49 115 150 178.5t218 63.5q152 0 237 -89.5t85 -250.5z" />
    <glyph glyph-name="i" unicode="i" horiz-adv-x="573" 
d="M213 1253q-29 31 -29 76t29 74q31 31 75.5 31t73.5 -31q31 -29 31 -74t-31 -76q-29 -29 -73.5 -29t-75.5 29zM225 0v1032h127v-1032h-127z" />
    <glyph glyph-name="j" unicode="j" horiz-adv-x="573" 
d="M225 -113v1145h127v-1163q0 -262 -256 -303l-28 119q87 25 122 69t35 133zM213 1253q-29 31 -29 76t29 74q31 31 75.5 31t73.5 -31q31 -29 31 -74t-31 -76q-29 -29 -73.5 -29t-75.5 29z" />
    <glyph glyph-name="k" unicode="k" horiz-adv-x="987" 
d="M197 0v1450h127v-875l432 457h159l-446 -473l483 -559h-161l-467 543v-543h-127z" />
    <glyph glyph-name="l" unicode="l" horiz-adv-x="499" 
d="M193 0v1450h126v-1450h-126z" />
    <glyph glyph-name="m" unicode="m" horiz-adv-x="1744" 
d="M1561 709v-709h-127v692q0 124 -42 181t-143 57q-131 0 -219 -131t-88 -346v-453h-127v692q0 125 -41.5 181.5t-142.5 56.5q-131 0 -219 -131t-88 -346v-453h-127v1032h127v-215q51 108 135.5 170t191.5 62q235 0 281 -230q55 102 146.5 166t191.5 64q149 0 220 -84
t71 -256z" />
    <glyph glyph-name="n" unicode="n" horiz-adv-x="1179" 
d="M995 709v-709h-127v692q0 238 -211 238q-145 0 -239 -131t-94 -346v-453h-127v1032h127v-215q55 105 150 168.5t204 63.5q148 0 232.5 -89.5t84.5 -250.5z" />
    <glyph glyph-name="o" unicode="o" horiz-adv-x="1196" 
d="M248 143q-133 160 -133 373t133 373t350 160t350 -160t133 -373t-133 -373q-132 -159 -350 -159t-350 159zM340 807q-92 -124 -92 -291t92 -291q94 -123 258 -123t256 123q94 122 94 291t-94 291q-92 123 -256 123t-258 -123z" />
    <glyph glyph-name="p" unicode="p" horiz-adv-x="1224" 
d="M328 145v-563h-131v1450h131v-135q42 63 133.5 107.5t187.5 44.5q216 0 338 -152q123 -150 123 -381q0 -233 -123 -383q-119 -149 -338 -149q-86 0 -176 45t-145 116zM977 516q0 187 -88.5 300.5t-245.5 113.5t-244.5 -113.5t-87.5 -300.5q0 -179 86 -297
q88 -117 246 -117q157 0 246 117q88 116 88 297z" />
    <glyph glyph-name="q" unicode="q" horiz-adv-x="1224" 
d="M1028 1032v-1450h-131v563q-55 -71 -145.5 -116t-176.5 -45q-217 0 -339 149q-121 151 -121 383q0 230 121 381q125 152 339 152q96 0 188 -44.5t134 -107.5v135h131zM248 516q0 -181 88 -297q88 -117 246 -117t243 117q88 116 88 297q0 187 -87 300.5t-244 113.5
t-245.5 -113.5t-88.5 -300.5z" />
    <glyph glyph-name="r" unicode="r" horiz-adv-x="817" 
d="M782 1014l-28 -121q-67 37 -146 37q-127 0 -205.5 -141t-78.5 -390v-399h-127v1032h127v-184q95 201 303 201q68 0 155 -35z" />
    <glyph glyph-name="s" unicode="s" horiz-adv-x="921" 
d="M471 1049q172 0 287 -160l-90 -78q-88 119 -203 119q-67 0 -109.5 -43.5t-42.5 -112.5q0 -100 172 -170q142 -56 200 -96q118 -81 118 -201q0 -149 -86 -236t-234 -87q-145 0 -239.5 78.5t-132.5 203.5l112 60q41 -112 101 -168t159 -56q90 0 138.5 49t48.5 136
q0 60 -47.5 106t-124.5 74q-127 50 -169 75q-140 79 -147 215v15q0 122 82 199.5t207 77.5z" />
    <glyph glyph-name="t" unicode="t" horiz-adv-x="759" 
d="M238 913h-183v119h183v334l131 84v-418h274v-119h-274v-641q0 -170 143 -170q79 0 129 33l35 -115q-65 -36 -180 -36q-121 0 -189.5 78.5t-68.5 230.5v620z" />
    <glyph glyph-name="u" unicode="u" horiz-adv-x="1179" 
d="M184 324v708h127v-692q0 -238 211 -238q144 0 238 131q96 134 96 347v452h127v-1032h-127v215q-55 -105 -150 -168t-204 -63q-148 0 -233 90t-85 250z" />
    <glyph glyph-name="v" unicode="v" horiz-adv-x="917" 
d="M459 170l284 862h134l-349 -1032h-139l-348 1032h133z" />
    <glyph glyph-name="w" unicode="w" horiz-adv-x="1470" 
d="M1016 180l241 852h134l-310 -1032h-131l-215 844l-215 -844h-131l-309 1032h133l242 -852l217 852h127z" />
    <glyph glyph-name="x" unicode="x" horiz-adv-x="913" 
d="M387 563l-291 469h142l219 -356l219 356h141l-291 -469l348 -563h-133l-284 451l-285 -451h-133z" />
    <glyph glyph-name="y" unicode="y" horiz-adv-x="925" 
d="M475 197l287 835h133l-512 -1450h-127l150 424l-371 1026h133z" />
    <glyph glyph-name="z" unicode="z" horiz-adv-x="933" 
d="M641 913h-502v119h670v-69l-520 -844h542v-119h-716v61z" />
    <glyph glyph-name="braceleft" unicode="{" horiz-adv-x="649" 
d="M295 111v374q0 93 -37.5 133.5t-124.5 40.5v115q87 0 124.5 40.5t37.5 133.5v375q0 98 52.5 155.5t139.5 57.5h95v-115h-62q-54 0 -78 -24t-24 -78v-404q0 -85 -30 -128.5t-99 -69.5q68 -26 98.5 -70t30.5 -129v-403q0 -54 24 -78.5t78 -24.5h62v-114h-95
q-87 0 -139.5 57.5t-52.5 155.5z" />
    <glyph glyph-name="bar" unicode="|" horiz-adv-x="536" 
d="M207 -102v1638h123v-1638h-123z" />
    <glyph glyph-name="braceright" unicode="}" horiz-adv-x="649" 
d="M354 485v-374q0 -98 -52.5 -155.5t-139.5 -57.5h-94v114h61q54 0 78 24.5t24 78.5v403q0 85 30.5 129t98.5 70q-69 26 -99 69.5t-30 128.5v404q0 54 -24 78t-78 24h-61v115h94q87 0 139.5 -57.5t52.5 -155.5v-375q0 -93 37.5 -133.5t124.5 -40.5v-115q-87 0 -124.5 -40.5
t-37.5 -133.5z" />
    <glyph glyph-name="asciitilde" unicode="~" horiz-adv-x="1232" 
d="M256 575l-82 80q115 160 250 160q79 0 186 -55t183 -55q107 0 184 92l82 -80q-115 -160 -250 -160q-79 0 -186 55q-109 56 -183 56q-106 0 -184 -93z" />
    <glyph glyph-name="nbspace" unicode="&#xa0;" horiz-adv-x="516" 
 />
    <glyph glyph-name="exclamdown" unicode="&#xa1;" horiz-adv-x="665" 
d="M369 635l45 -1057h-172l45 1057h82zM246 821q-31 32 -31 81.5t31 80.5q32 32 81.5 32t80.5 -32q32 -31 32 -80.5t-32 -81.5q-31 -31 -80.5 -31t-81.5 31z" />
    <glyph glyph-name="cent" unicode="&#xa2;" horiz-adv-x="1122" 
d="M883 514l114 -45q-95 -253 -350 -283v-288h-123v288q-188 21 -295 174q-104 152 -104 357t104 354q107 155 295 176v289h123v-289q251 -27 350 -282l-114 -45q-85 210 -301 210q-161 0 -242 -118q-82 -116 -82 -295q0 -178 82 -297q83 -117 242 -117q216 0 301 211z" />
    <glyph glyph-name="sterling" unicode="&#xa3;" horiz-adv-x="1085" 
d="M297 686h-172v119h129q-51 128 -51 233q0 191 102.5 301.5t274.5 110.5q133 0 229.5 -75.5t148.5 -213.5l-112 -51q-53 116 -114 168.5t-152 52.5q-112 0 -179 -78t-67 -217q0 -88 47 -231h336v-119h-299q20 -79 20 -160q0 -99 -49 -209q-46 -110 -115 -170q82 46 175 46
q71 0 157 -50q85 -49 125 -49q67 0 108.5 34.5t98.5 137.5l96 -55q-66 -125 -133.5 -176t-165.5 -51q-81 0 -170 47t-145 47q-65 0 -111.5 -21t-109.5 -73l-101 112q226 218 226 434q0 76 -27 156z" />
    <glyph glyph-name="currency" unicode="&#xa4;" horiz-adv-x="1118" 
d="M172 129l-113 113l179 137q-78 113 -78 250t78 250l-179 137l113 112l135 -174q107 88 252 88t252 -88l135 174l113 -112l-178 -137q77 -112 77 -250t-77 -250l178 -137l-113 -113l-135 174q-107 -88 -252 -88t-252 88zM352 848q-78 -84 -78 -219t78 -219t207 -84t207 84
t78 219t-78 219t-207 84t-207 -84z" />
    <glyph glyph-name="yen" unicode="&#xa5;" horiz-adv-x="1024" 
d="M385 737l-358 697h157l328 -674l328 674h157l-358 -697h270v-114h-329v-179h329v-114h-329v-330h-136v330h-329v114h329v179h-329v114h270z" />
    <glyph glyph-name="brokenbar" unicode="&#xa6;" horiz-adv-x="536" 
d="M207 -102v714h123v-714h-123zM330 1536v-715h-123v715h123z" />
    <glyph glyph-name="section" unicode="&#xa7;" horiz-adv-x="1095" 
d="M963 434q0 -159 -166 -264q100 -100 100 -233q0 -172 -102 -271q-100 -100 -244 -100q-300 0 -371 299l115 39q65 -219 256 -219q96 0 155.5 65.5t59.5 181.5q0 99 -84 160q-60 45 -86 58l-121 61q-10 5 -129 70q-112 63 -159.5 130.5t-47.5 170.5q0 159 166 264
q-100 100 -100 233q0 174 100 271q100 100 246 100q300 0 371 -299l-115 -39q-65 219 -256 219q-96 0 -155.5 -66t-59.5 -182q0 -94 84 -161q51 -38 86 -56l44 -24q45 -23 77 -39q66 -33 129 -68q112 -63 159.5 -130.5t47.5 -170.5zM545 319l149 -71q146 71 146 188
q0 94 -105 160q-65 45 -112 68l-66 32l-149 72q-146 -71 -146 -188q0 -48 26 -85.5t79 -76.5q78 -50 112 -68z" />
    <glyph glyph-name="dieresis" unicode="&#xa8;" horiz-adv-x="602" 
d="M43 1331q0 43 29 73t71 30q43 0 72 -30t29 -73q0 -41 -29 -69.5t-72 -28.5t-71.5 28.5t-28.5 69.5zM358 1331q0 43 29 73t70 30q43 0 72.5 -30t29.5 -73q0 -41 -29.5 -69.5t-72.5 -28.5q-41 0 -70 28.5t-29 69.5z" />
    <glyph glyph-name="copyright" unicode="&#xa9;" horiz-adv-x="1847" 
d="M371 145q-217 230 -217 572t217 569q217 230 553 230q334 0 551 -230q219 -230 219 -569t-219 -572q-217 -227 -551 -227q-336 0 -553 227zM459 1196q-178 -193 -178 -479t178 -479t465 -193t465 193t178 479t-178 479t-465 193t-465 -193zM1157 573l109 -28
q-32 -128 -123 -199.5t-219 -71.5q-152 0 -277 113q-123 114 -123 330t123 330q124 112 277 112q128 0 219 -71t123 -199l-109 -29q-62 189 -233 189q-126 0 -202.5 -87t-76.5 -245t76.5 -245t202.5 -87q171 0 233 188z" />
    <glyph glyph-name="ordfeminine" unicode="&#xaa;" horiz-adv-x="880" 
d="M743 1155v-541h-75l-21 129q-79 -137 -260 -137q-112 0 -182 65t-70 181q0 129 97.5 197.5t275.5 68.5h135v35q0 190 -186 190q-145 0 -191 -147l-98 25q20 103 98.5 162t190.5 59q135 0 210.5 -71t75.5 -216zM250 852q0 -72 39 -109.5t108 -37.5q95 0 170 69
q76 70 76 219v31h-131q-262 0 -262 -172z" />
    <glyph glyph-name="guillemotleft" unicode="&#xab;" horiz-adv-x="1236" 
d="M641 193l-539 399v86l539 399v-139l-405 -303l405 -303v-139zM1114 193l-539 399v86l539 399v-139l-405 -303l405 -303v-139z" />
    <glyph glyph-name="logicalnot" unicode="&#xac;" horiz-adv-x="1173" 
d="M879 659h-736v119h867v-487h-131v368z" />
    <glyph glyph-name="uni00AD" unicode="&#xad;" horiz-adv-x="964" 
d="M819 592h-674v115h674v-115z" />
    <glyph glyph-name="registered" unicode="&#xae;" horiz-adv-x="1847" 
d="M371 145q-217 230 -217 572t217 569q217 230 553 230q334 0 551 -230q219 -230 219 -569t-219 -572q-217 -227 -551 -227q-336 0 -553 227zM459 1196q-178 -193 -178 -479t178 -479t465 -193t465 193t178 479t-178 479t-465 193t-465 -193zM1276 281h-127l-258 372h-125
v-372h-121v872h295q124 0 198 -68.5t74 -181.5q0 -91 -54.5 -157.5t-141.5 -83.5zM940 1042h-174v-278h174q73 0 112.5 36.5t39.5 102.5q0 139 -152 139z" />
    <glyph glyph-name="overscore" unicode="&#xaf;" horiz-adv-x="555" 
d="M524 1319h-493v115h493v-115z" />
    <glyph glyph-name="degree" unicode="&#xb0;" horiz-adv-x="720" 
d="M199 1051q-62 65 -62 163q0 97 62 162q66 66 161 66q97 0 160 -66q64 -64 64 -162q0 -99 -64 -163q-61 -64 -160 -64q-97 0 -161 64zM270 1307q-35 -35 -35 -92.5t35 -94.5q35 -35 90.5 -35t90.5 35q35 37 35 94.5t-35 92.5q-35 37 -90.5 37t-90.5 -37z" />
    <glyph glyph-name="plusminus" unicode="&#xb1;" horiz-adv-x="1107" 
d="M612 872h363v-114h-363v-363h-114v363h-363v114h363v361h114v-361zM975 0h-840v115h840v-115z" />
    <glyph glyph-name="twosuperior" unicode="&#xb2;" horiz-adv-x="780" 
d="M647 614h-514v39l301 375q82 101 82 184q0 60 -33 93.5t-94 33.5q-54 0 -88.5 -42t-42.5 -113l-111 28q11 101 77 165.5t165 64.5q109 0 173.5 -63t64.5 -167q0 -112 -80 -215l-228 -280h328v-103z" />
    <glyph glyph-name="threesuperior" unicode="&#xb3;" horiz-adv-x="788" 
d="M133 846l111 16q8 -73 47.5 -115t105.5 -42q71 0 109.5 47t38.5 125q0 77 -38 121t-110 44q-38 0 -71 -20l-54 72l183 241h-277v99h436v-35l-204 -277q16 4 36 4q93 0 151 -67.5t58 -181.5q0 -119 -68.5 -195t-189.5 -76q-110 0 -182 64.5t-82 175.5z" />
    <glyph glyph-name="acute" unicode="&#xb4;" horiz-adv-x="428" 
d="M152 1147h-101l144 287h190z" />
    <glyph glyph-name="mu" unicode="&#xb5;" horiz-adv-x="1179" 
d="M311 -418h-127v1450h127v-692q0 -238 211 -238q144 0 238 131q96 134 96 347v452h127v-1032h-127v215q-55 -105 -150 -168t-204 -63q-114 0 -191 53v-455z" />
    <glyph glyph-name="paragraph" unicode="&#xb6;" horiz-adv-x="1333" 
d="M479 1434h715v-127h-119v-1725h-135v1725h-326v-1725h-135v1143q-147 0 -252 102q-102 105 -102 252q0 148 102 250q105 105 252 105z" />
    <glyph glyph-name="middot" unicode="&#xb7;" horiz-adv-x="581" 
d="M186 715q0 44 30.5 74t74.5 30t74 -30t30 -74t-30 -74.5t-74 -30.5q-45 0 -75 29t-30 76z" />
    <glyph glyph-name="cedilla" unicode="&#xb8;" horiz-adv-x="358" 
d="M223 -123h113l-166 -315l-147 63z" />
    <glyph glyph-name="onesuperior" unicode="&#xb9;" horiz-adv-x="581" 
d="M123 1313l244 121h32v-820h-102v668l-174 -84v115z" />
    <glyph glyph-name="ordmasculine" unicode="&#xba;" horiz-adv-x="1048" 
d="M250 731q-105 126 -105 293t105 293q104 125 274 125q171 0 275 -125t104 -293t-104 -293t-275 -125q-170 0 -274 125zM326 1249q-70 -94 -70 -225t70 -225t198 -94q127 0 197 94q72 97 72 225t-72 225q-70 94 -197 94q-128 0 -198 -94z" />
    <glyph glyph-name="guillemotright" unicode="&#xbb;" horiz-adv-x="1236" 
d="M596 1077l539 -399v-86l-539 -399v139l405 303l-405 303v139zM123 1077l539 -399v-86l-539 -399v139l405 303l-405 303v139z" />
    <glyph glyph-name="onequarter" unicode="&#xbc;" horiz-adv-x="1617" 
d="M195 18l1110 1465l86 -68l-1110 -1464zM164 1313l244 121h32v-820h-102v668l-174 -84v115zM1329 0h-102v170h-350v35l331 614h121v-551h107v-98h-107v-170zM1227 668l-209 -400h209v400z" />
    <glyph glyph-name="onehalf" unicode="&#xbd;" horiz-adv-x="1755" 
d="M195 18l1110 1465l86 -68l-1110 -1464zM164 1313l244 121h32v-820h-102v668l-174 -84v115zM1542 0h-514v39l301 375q82 101 82 184q0 60 -33 93.5t-94 33.5q-54 0 -88.5 -42.5t-42.5 -113.5l-111 29q11 101 77 165t165 64q109 0 173.5 -62.5t64.5 -166.5q0 -112 -80 -215
l-228 -281h328v-102z" />
    <glyph glyph-name="threequarters" unicode="&#xbe;" horiz-adv-x="1720" 
d="M342 18l1110 1465l86 -68l-1110 -1464zM133 846l111 16q8 -73 47.5 -115t105.5 -42q71 0 109.5 47t38.5 125q0 77 -38 121t-110 44q-38 0 -71 -20l-54 72l183 241h-277v99h436v-35l-204 -277q16 4 36 4q93 0 151 -67.5t58 -181.5q0 -119 -68.5 -195t-189.5 -76
q-110 0 -182 64.5t-82 175.5zM1421 0h-102v170h-350v35l331 614h121v-551h107v-98h-107v-170zM1319 668l-209 -400h209v400z" />
    <glyph glyph-name="questiondown" unicode="&#xbf;" horiz-adv-x="897" 
d="M510 983q32 -31 32 -80.5t-32 -81.5q-31 -31 -80.5 -31t-81.5 31q-31 32 -31 81.5t31 80.5q32 32 81.5 32t80.5 -32zM276 354l-102 39q59 215 260 215q110 0 182 -65.5t72 -182.5q0 -164 -180 -262l-168 -92q-107 -58 -107 -151q0 -82 52.5 -128t148.5 -46q180 0 232 208
l129 -22q-25 -144 -122 -224.5t-253 -80.5q-140 0 -229 79.5t-89 206.5q0 159 179 254l147 80q72 38 102.5 80t30.5 103q0 57 -33 90.5t-90 33.5q-62 0 -100.5 -31.5t-61.5 -103.5z" />
    <glyph glyph-name="Agrave" unicode="&#xc0;" horiz-adv-x="1196" 
d="M20 0l519 1434h118l519 -1434h-140l-143 408h-590l-143 -408h-140zM850 535l-252 714l-252 -714h504zM375 1835h190l144 -287h-101z" />
    <glyph glyph-name="Aacute" unicode="&#xc1;" horiz-adv-x="1196" 
d="M20 0l519 1434h118l519 -1434h-140l-143 408h-590l-143 -408h-140zM850 535l-252 714l-252 -714h504zM584 1548h-101l144 287h190z" />
    <glyph glyph-name="Acircumflex" unicode="&#xc2;" horiz-adv-x="1196" 
d="M20 0l519 1434h118l519 -1434h-140l-143 408h-590l-143 -408h-140zM850 535l-252 714l-252 -714h504zM428 1561h-147l294 309h46l294 -309h-147l-170 182z" />
    <glyph glyph-name="Atilde" unicode="&#xc3;" horiz-adv-x="1196" 
d="M20 0l519 1434h118l519 -1434h-140l-143 408h-590l-143 -408h-140zM850 535l-252 714l-252 -714h504zM336 1616l-82 63q77 142 203 142q74 0 147 -43q77 -41 121 -41q79 0 137 73l82 -63q-76 -141 -203 -141q-72 0 -149 41q-73 43 -119 43q-78 0 -137 -74z" />
    <glyph glyph-name="Adieresis" unicode="&#xc4;" horiz-adv-x="1196" 
d="M20 0l519 1434h118l519 -1434h-140l-143 408h-590l-143 -408h-140zM850 535l-252 714l-252 -714h504zM340 1733q0 43 28.5 72.5t71.5 29.5t72 -29.5t29 -72.5q0 -41 -29 -70t-72 -29q-42 0 -71 29t-29 70zM655 1733q0 43 29 72.5t70 29.5q43 0 72.5 -29.5t29.5 -72.5
q0 -41 -29.5 -70t-72.5 -29q-41 0 -70 29t-29 70z" />
    <glyph glyph-name="Aring" unicode="&#xc5;" horiz-adv-x="1196" 
d="M20 0l519 1434h118l519 -1434h-140l-143 408h-590l-143 -408h-140zM850 535l-252 714l-252 -714h504zM406 1739q0 85 56.5 142.5t141.5 57.5q86 0 142.5 -57t56.5 -143q0 -82 -56.5 -137.5t-142.5 -55.5q-85 0 -141.5 55.5t-56.5 137.5zM604 1634q47 0 76 30t29 77
q0 49 -29 79.5t-76 30.5q-44 0 -74 -31.5t-30 -78.5t29.5 -77t74.5 -30z" />
    <glyph glyph-name="AE" unicode="&#xc6;" horiz-adv-x="1681" 
d="M14 0l629 1434h891v-127h-674v-480h551v-127h-551v-573h694v-127h-829v408h-391l-178 -408h-142zM725 1249h-23l-313 -714h336v714z" />
    <glyph glyph-name="Ccedilla" unicode="&#xc7;" horiz-adv-x="1392" 
d="M1161 432l133 -39q-56 -192 -197.5 -300.5t-342.5 -108.5q-262 0 -449 190q-184 190 -184 543q0 178 52 321.5t144 231.5q186 180 437 180q201 0 342.5 -109t197.5 -301l-133 -39q-42 155 -145.5 238.5t-261.5 83.5q-221 0 -357 -160q-135 -159 -135 -446
q0 -288 135 -447t357 -159q158 0 261.5 83t145.5 238zM758 -123h112l-165 -315l-148 63z" />
    <glyph glyph-name="Egrave" unicode="&#xc8;" horiz-adv-x="1163" 
d="M207 0v1434h809v-127h-674v-480h551v-127h-551v-573h694v-127h-829zM408 1835h190l143 -287h-100z" />
    <glyph glyph-name="Eacute" unicode="&#xc9;" horiz-adv-x="1163" 
d="M207 0v1434h809v-127h-674v-480h551v-127h-551v-573h694v-127h-829zM604 1548h-100l143 287h191z" />
    <glyph glyph-name="Ecircumflex" unicode="&#xca;" horiz-adv-x="1163" 
d="M207 0v1434h809v-127h-674v-480h551v-127h-551v-573h694v-127h-829zM440 1561h-147l295 309h45l295 -309h-148l-170 182z" />
    <glyph glyph-name="Edieresis" unicode="&#xcb;" horiz-adv-x="1163" 
d="M207 0v1434h809v-127h-674v-480h551v-127h-551v-573h694v-127h-829zM375 1733q0 43 28.5 72.5t71.5 29.5t71.5 -29.5t28.5 -72.5q0 -41 -28.5 -70t-71.5 -29t-71.5 29t-28.5 70zM690 1733q0 43 28.5 72.5t69.5 29.5q43 0 73 -29.5t30 -72.5q0 -41 -30 -70t-73 -29
q-41 0 -69.5 29t-28.5 70z" />
    <glyph glyph-name="Igrave" unicode="&#xcc;" horiz-adv-x="548" 
d="M207 1434h135v-1434h-135v1434zM51 1835h191l143 -287h-100z" />
    <glyph glyph-name="Iacute" unicode="&#xcd;" horiz-adv-x="548" 
d="M207 1434h135v-1434h-135v1434zM274 1548h-100l143 287h191z" />
    <glyph glyph-name="Icircumflex" unicode="&#xce;" horiz-adv-x="548" 
d="M207 1434h135v-1434h-135v1434zM104 1561h-147l295 309h45l295 -309h-148l-170 182z" />
    <glyph glyph-name="Idieresis" unicode="&#xcf;" horiz-adv-x="548" 
d="M207 1434h135v-1434h-135v1434zM16 1733q0 43 29 72.5t72 29.5t71.5 -29.5t28.5 -72.5q0 -41 -28.5 -70t-71.5 -29t-72 29t-29 70zM332 1733q0 43 28.5 72.5t69.5 29.5q43 0 72.5 -29.5t29.5 -72.5q0 -41 -29.5 -70t-72.5 -29q-41 0 -69.5 29t-28.5 70z" />
    <glyph glyph-name="Eth" unicode="&#xd0;" horiz-adv-x="1406" 
d="M258 653h-172v127h172v654h377q281 0 467 -195q184 -193 184 -522q0 -331 -184 -524t-467 -193h-377v653zM637 1307h-244v-527h172v-127h-172v-526h244q217 0 360 149q148 151 148 441q0 289 -148 440q-144 150 -360 150z" />
    <glyph glyph-name="Ntilde" unicode="&#xd1;" horiz-adv-x="1419" 
d="M1077 215v1219h135v-1434h-159l-711 1214v-1214h-135v1434h160zM436 1616l-82 63q77 142 203 142q75 0 148 -43q77 -41 120 -41q80 0 138 73l81 -63q-77 -141 -202 -141q-73 0 -150 41q-73 43 -119 43q-78 0 -137 -74z" />
    <glyph glyph-name="Ograve" unicode="&#xd2;" horiz-adv-x="1499" 
d="M303 1247q185 203 447 203t444 -203q184 -199 184 -530t-184 -533q-182 -200 -444 -200t-447 200q-182 203 -182 533t182 530zM1098 1163q-139 160 -348 160q-212 0 -351 -160q-137 -155 -137 -446t137 -449q139 -157 351 -157q209 0 348 157q139 160 139 449t-139 446z
M506 1835h190l144 -287h-101z" />
    <glyph glyph-name="Oacute" unicode="&#xd3;" horiz-adv-x="1499" 
d="M303 1247q185 203 447 203t444 -203q184 -199 184 -530t-184 -533q-182 -200 -444 -200t-447 200q-182 203 -182 533t182 530zM1098 1163q-139 160 -348 160q-212 0 -351 -160q-137 -155 -137 -446t137 -449q139 -157 351 -157q209 0 348 157q139 160 139 449t-139 446z
M688 1548h-100l143 287h191z" />
    <glyph glyph-name="Ocircumflex" unicode="&#xd4;" horiz-adv-x="1499" 
d="M303 1247q185 203 447 203t444 -203q184 -199 184 -530t-184 -533q-182 -200 -444 -200t-447 200q-182 203 -182 533t182 530zM1098 1163q-139 160 -348 160q-212 0 -351 -160q-137 -155 -137 -446t137 -449q139 -157 351 -157q209 0 348 157q139 160 139 449t-139 446z
M580 1561h-148l295 309h45l295 -309h-147l-170 182z" />
    <glyph glyph-name="Otilde" unicode="&#xd5;" horiz-adv-x="1499" 
d="M303 1247q185 203 447 203t444 -203q184 -199 184 -530t-184 -533q-182 -200 -444 -200t-447 200q-182 203 -182 533t182 530zM1098 1163q-139 160 -348 160q-212 0 -351 -160q-137 -155 -137 -446t137 -449q139 -157 351 -157q209 0 348 157q139 160 139 449t-139 446z
M487 1616l-81 63q77 142 202 142q75 0 148 -43q77 -41 121 -41q79 0 137 73l82 -63q-76 -141 -203 -141q-73 0 -150 41q-73 43 -118 43q-79 0 -138 -74z" />
    <glyph glyph-name="Odieresis" unicode="&#xd6;" horiz-adv-x="1499" 
d="M303 1247q185 203 447 203t444 -203q184 -199 184 -530t-184 -533q-182 -200 -444 -200t-447 200q-182 203 -182 533t182 530zM1098 1163q-139 160 -348 160q-212 0 -351 -160q-137 -155 -137 -446t137 -449q139 -157 351 -157q209 0 348 157q139 160 139 449t-139 446z
M492 1733q0 43 28.5 72.5t71.5 29.5t71.5 -29.5t28.5 -72.5q0 -41 -29 -70t-71 -29t-71 29t-29 70zM807 1733q0 43 28.5 72.5t69.5 29.5q43 0 73 -29.5t30 -72.5q0 -41 -30 -70t-73 -29q-41 0 -69.5 29t-28.5 70z" />
    <glyph glyph-name="multiply" unicode="&#xd7;" horiz-adv-x="1073" 
d="M616 647l316 -315l-82 -80l-313 313l-316 -313l-80 80l314 315l-314 314l80 81l316 -315l311 313l82 -82z" />
    <glyph glyph-name="Oslash" unicode="&#xd8;" horiz-adv-x="1499" 
d="M1133 1311l120 155l95 -71l-131 -170q161 -196 161 -508q0 -331 -184 -533q-182 -200 -444 -200q-218 0 -383 139l-121 -156l-94 72l131 170q-162 198 -162 508q0 330 182 530q185 203 447 203q218 0 383 -139zM750 1323q-212 0 -351 -160q-137 -155 -137 -446
q0 -244 103 -402l690 895q-125 113 -305 113zM1237 717q0 245 -102 401l-691 -895q124 -112 306 -112q209 0 348 157q139 160 139 449z" />
    <glyph glyph-name="Ugrave" unicode="&#xd9;" horiz-adv-x="1339" 
d="M178 459v975h135v-988q0 -147 95 -241t262 -94t261.5 94t94.5 241v988h135v-975q0 -225 -143 -350q-140 -125 -348 -125t-351 125q-141 126 -141 350zM440 1835h191l143 -287h-100z" />
    <glyph glyph-name="Uacute" unicode="&#xda;" horiz-adv-x="1339" 
d="M178 459v975h135v-988q0 -147 95 -241t262 -94t261.5 94t94.5 241v988h135v-975q0 -225 -143 -350q-140 -125 -348 -125t-351 125q-141 126 -141 350zM651 1548h-100l143 287h191z" />
    <glyph glyph-name="Ucircumflex" unicode="&#xdb;" horiz-adv-x="1339" 
d="M178 459v975h135v-988q0 -147 95 -241t262 -94t261.5 94t94.5 241v988h135v-975q0 -225 -143 -350q-140 -125 -348 -125t-351 125q-141 126 -141 350zM498 1561h-148l295 309h45l295 -309h-147l-170 182z" />
    <glyph glyph-name="Udieresis" unicode="&#xdc;" horiz-adv-x="1339" 
d="M178 459v975h135v-988q0 -147 95 -241t262 -94t261.5 94t94.5 241v988h135v-975q0 -225 -143 -350q-140 -125 -348 -125t-351 125q-141 126 -141 350zM412 1733q0 43 28.5 72.5t71.5 29.5t71.5 -29.5t28.5 -72.5q0 -41 -29 -70t-71 -29t-71 29t-29 70zM727 1733
q0 43 28.5 72.5t69.5 29.5q43 0 73 -29.5t30 -72.5q0 -41 -30 -70t-73 -29q-41 0 -69.5 29t-28.5 70z" />
    <glyph glyph-name="Yacute" unicode="&#xdd;" horiz-adv-x="1024" 
d="M444 0v623l-432 811h158l342 -678l342 678h158l-432 -811v-623h-136zM485 1548h-100l143 287h191z" />
    <glyph glyph-name="Thorn" unicode="&#xde;" horiz-adv-x="1183" 
d="M694 322h-352v-322h-135v1434h135v-322h352q192 0 303 -105.5t111 -289.5t-111 -289.5t-303 -105.5zM342 449h354q136 0 203.5 70.5t67.5 197.5t-67.5 197.5t-203.5 70.5h-354v-536z" />
    <glyph glyph-name="germandbls" unicode="&#xdf;" horiz-adv-x="1140" 
d="M193 725h-111v115h111v159q0 212 104 331.5t274 119.5t272.5 -98.5t102.5 -255.5q0 -115 -54.5 -200t-139.5 -105q112 -26 202 -125q86 -95 86 -240q0 -208 -117.5 -325t-316.5 -117q-84 0 -155 14v119q71 -15 143 -15q153 0 234 81.5t81 230.5q0 150 -96 230.5
t-258 80.5h-66v115h78q121 0 188.5 66t67.5 179q0 114 -69 180t-183 66q-117 0 -182 -86t-65 -248v-997h-131v725z" />
    <glyph glyph-name="agrave" unicode="&#xe0;" horiz-adv-x="1036" 
d="M250 297q0 -93 53.5 -144t147.5 -51q119 0 215 93q98 91 98 282v39h-168q-170 0 -258 -57t-88 -162zM891 684v-684h-96l-31 160q-102 -176 -326 -176q-147 0 -234 79t-87 234q0 165 124.5 251.5t350.5 86.5h172v45q0 126 -62.5 188t-175.5 62q-187 0 -245 -193l-123 29
q20 128 122.5 205.5t245.5 77.5q158 0 260 -99q105 -94 105 -266zM309 1434h191l143 -287h-100z" />
    <glyph glyph-name="aacute" unicode="&#xe1;" horiz-adv-x="1036" 
d="M250 297q0 -93 53.5 -144t147.5 -51q119 0 215 93q98 91 98 282v39h-168q-170 0 -258 -57t-88 -162zM891 684v-684h-96l-31 160q-102 -176 -326 -176q-147 0 -234 79t-87 234q0 165 124.5 251.5t350.5 86.5h172v45q0 126 -62.5 188t-175.5 62q-187 0 -245 -193l-123 29
q20 128 122.5 205.5t245.5 77.5q158 0 260 -99q105 -94 105 -266zM518 1147h-100l143 287h191z" />
    <glyph glyph-name="acircumflex" unicode="&#xe2;" horiz-adv-x="1036" 
d="M250 297q0 -93 53.5 -144t147.5 -51q119 0 215 93q98 91 98 282v39h-168q-170 0 -258 -57t-88 -162zM891 684v-684h-96l-31 160q-102 -176 -326 -176q-147 0 -234 79t-87 234q0 165 124.5 251.5t350.5 86.5h172v45q0 126 -62.5 188t-175.5 62q-187 0 -245 -193l-123 29
q20 128 122.5 205.5t245.5 77.5q158 0 260 -99q105 -94 105 -266zM365 1159h-148l295 309h45l295 -309h-147l-170 182z" />
    <glyph glyph-name="atilde" unicode="&#xe3;" horiz-adv-x="1036" 
d="M250 297q0 -93 53.5 -144t147.5 -51q119 0 215 93q98 91 98 282v39h-168q-170 0 -258 -57t-88 -162zM891 684v-684h-96l-31 160q-102 -176 -326 -176q-147 0 -234 79t-87 234q0 165 124.5 251.5t350.5 86.5h172v45q0 126 -62.5 188t-175.5 62q-187 0 -245 -193l-123 29
q20 128 122.5 205.5t245.5 77.5q158 0 260 -99q105 -94 105 -266zM272 1214l-82 64q77 141 203 141q75 0 148 -43q77 -41 121 -41q78 0 137 74l82 -63q-77 -142 -203 -142q-73 0 -150 41q-73 43 -118 43q-79 0 -138 -74z" />
    <glyph glyph-name="adieresis" unicode="&#xe4;" horiz-adv-x="1036" 
d="M250 297q0 -93 53.5 -144t147.5 -51q119 0 215 93q98 91 98 282v39h-168q-170 0 -258 -57t-88 -162zM891 684v-684h-96l-31 160q-102 -176 -326 -176q-147 0 -234 79t-87 234q0 165 124.5 251.5t350.5 86.5h172v45q0 126 -62.5 188t-175.5 62q-187 0 -245 -193l-123 29
q20 128 122.5 205.5t245.5 77.5q158 0 260 -99q105 -94 105 -266zM274 1331q0 43 29 73t72 30q42 0 71 -30t29 -73q0 -41 -28.5 -69.5t-71.5 -28.5t-72 28.5t-29 69.5zM590 1331q0 43 28.5 73t69.5 30q43 0 73 -30t30 -73q0 -41 -30 -69.5t-73 -28.5q-41 0 -69.5 28.5
t-28.5 69.5z" />
    <glyph glyph-name="aring" unicode="&#xe5;" horiz-adv-x="1036" 
d="M250 297q0 -93 53.5 -144t147.5 -51q119 0 215 93q98 91 98 282v39h-168q-170 0 -258 -57t-88 -162zM891 684v-684h-96l-31 160q-102 -176 -326 -176q-147 0 -234 79t-87 234q0 165 124.5 251.5t350.5 86.5h172v45q0 126 -62.5 188t-175.5 62q-187 0 -245 -193l-123 29
q20 128 122.5 205.5t245.5 77.5q158 0 260 -99q105 -94 105 -266zM328 1337q0 85 57 143t141 58q86 0 142.5 -57.5t56.5 -143.5q0 -82 -56.5 -137t-142.5 -55q-85 0 -141.5 55t-56.5 137zM526 1233q47 0 76 29.5t29 76.5q0 50 -29 80.5t-76 30.5q-44 0 -74 -32t-30 -79
t29.5 -76.5t74.5 -29.5z" />
    <glyph glyph-name="ae" unicode="&#xe6;" horiz-adv-x="1779" 
d="M1675 573v-57h-778q0 -187 87.5 -300.5t238.5 -113.5q114 0 188.5 51.5t126.5 161.5l115 -47q-77 -152 -178.5 -218t-251.5 -66q-136 0 -243 70.5t-157 189.5q-46 -128 -147 -194t-238 -66q-147 0 -234 79t-87 234q0 165 124.5 251.5t350.5 86.5h172v45q0 126 -62.5 188
t-175.5 62q-187 0 -245 -193l-123 29q20 128 122.5 205.5t245.5 77.5q115 0 204 -53t130 -146q129 199 363 199q200 0 325 -131q127 -133 127 -345zM250 297q0 -93 53.5 -144t147.5 -51q119 0 215 93q98 91 98 282v39h-168q-170 0 -258 -57t-88 -162zM1223 930
q-122 0 -206.5 -81t-111.5 -214h639q-19 138 -102.5 216.5t-218.5 78.5z" />
    <glyph glyph-name="ccedilla" unicode="&#xe7;" horiz-adv-x="1081" 
d="M872 313l115 -45q-108 -284 -416 -284q-216 0 -335 155q-121 157 -121 377q0 218 121 375q122 158 335 158q308 0 416 -285l-115 -45q-85 211 -301 211q-159 0 -241 -119q-82 -116 -82 -295q0 -178 82 -297q82 -117 241 -117q216 0 301 211zM578 -123h112l-166 -315
l-147 63z" />
    <glyph glyph-name="egrave" unicode="&#xe8;" horiz-adv-x="1130" 
d="M1026 573v-57h-778q0 -187 87.5 -300.5t237.5 -113.5q116 0 188 51t130 171l113 -56q-77 -152 -179 -218t-252 -66q-206 0 -331 149q-127 151 -127 383q0 230 127 381q128 152 331 152q201 0 326 -131q127 -133 127 -345zM573 930q-122 0 -206 -81t-111 -214h639
q-19 138 -103 216.5t-219 78.5zM371 1434h190l144 -287h-101z" />
    <glyph glyph-name="eacute" unicode="&#xe9;" horiz-adv-x="1130" 
d="M1026 573v-57h-778q0 -187 87.5 -300.5t237.5 -113.5q116 0 188 51t130 171l113 -56q-77 -152 -179 -218t-252 -66q-206 0 -331 149q-127 151 -127 383q0 230 127 381q128 152 331 152q201 0 326 -131q127 -133 127 -345zM573 930q-122 0 -206 -81t-111 -214h639
q-19 138 -103 216.5t-219 78.5zM520 1147h-100l143 287h191z" />
    <glyph glyph-name="ecircumflex" unicode="&#xea;" horiz-adv-x="1130" 
d="M1026 573v-57h-778q0 -187 87.5 -300.5t237.5 -113.5q116 0 188 51t130 171l113 -56q-77 -152 -179 -218t-252 -66q-206 0 -331 149q-127 151 -127 383q0 230 127 381q128 152 331 152q201 0 326 -131q127 -133 127 -345zM573 930q-122 0 -206 -81t-111 -214h639
q-19 138 -103 216.5t-219 78.5zM403 1159h-147l295 309h45l295 -309h-148l-170 182z" />
    <glyph glyph-name="edieresis" unicode="&#xeb;" horiz-adv-x="1130" 
d="M1026 573v-57h-778q0 -187 87.5 -300.5t237.5 -113.5q116 0 188 51t130 171l113 -56q-77 -152 -179 -218t-252 -66q-206 0 -331 149q-127 151 -127 383q0 230 127 381q128 152 331 152q201 0 326 -131q127 -133 127 -345zM573 930q-122 0 -206 -81t-111 -214h639
q-19 138 -103 216.5t-219 78.5zM328 1331q0 43 29 73t71 30t71 -30t29 -73q0 -41 -28.5 -69.5t-71.5 -28.5t-71.5 28.5t-28.5 69.5zM643 1331q0 43 28.5 73t69.5 30q43 0 73 -30t30 -73q0 -41 -30 -69.5t-73 -28.5q-41 0 -69.5 28.5t-28.5 69.5z" />
    <glyph glyph-name="igrave" unicode="&#xec;" horiz-adv-x="573" 
d="M225 0v1032h127v-1032h-127zM55 1434h191l143 -287h-100z" />
    <glyph glyph-name="iacute" unicode="&#xed;" horiz-adv-x="573" 
d="M225 0v1032h127v-1032h-127zM299 1147h-100l143 287h190z" />
    <glyph glyph-name="icircumflex" unicode="&#xee;" horiz-adv-x="573" 
d="M225 0v1032h127v-1032h-127zM117 1159h-148l295 309h45l295 -309h-147l-170 182z" />
    <glyph glyph-name="idieresis" unicode="&#xef;" horiz-adv-x="573" 
d="M225 0v1032h127v-1032h-127zM33 1331q0 43 29 73t71 30t71 -30t29 -73q0 -41 -28.5 -69.5t-71.5 -28.5t-71.5 28.5t-28.5 69.5zM348 1331q0 43 28.5 73t69.5 30q43 0 73 -30t30 -73q0 -41 -30 -69.5t-73 -28.5q-41 0 -69.5 28.5t-28.5 69.5z" />
    <glyph glyph-name="eth" unicode="&#xf0;" horiz-adv-x="1175" 
d="M592 1262l-90 -134l-86 62l90 131q-76 48 -166 86l59 88q104 -48 168 -84l78 115l86 -62l-76 -110q208 -142 307 -347t99 -491q0 -216 -129 -375q-130 -157 -344 -157t-344 157q-129 159 -129 375q0 217 129 373q130 160 344 160q170 0 278 -117q-55 162 -274 330z
M336 807q-88 -119 -88 -291q0 -171 88 -293q89 -121 252 -121t252 121q88 122 88 293q0 172 -88 291q-88 123 -252 123t-252 -123z" />
    <glyph glyph-name="ntilde" unicode="&#xf1;" horiz-adv-x="1179" 
d="M995 709v-709h-127v692q0 238 -211 238q-145 0 -239 -131t-94 -346v-453h-127v1032h127v-215q55 105 150 168.5t204 63.5q148 0 232.5 -89.5t84.5 -250.5zM342 1214l-82 64q77 141 203 141q74 0 147 -43q77 -41 121 -41q78 0 137 74l82 -63q-77 -142 -202 -142
q-73 0 -150 41q-73 43 -119 43q-78 0 -137 -74z" />
    <glyph glyph-name="ograve" unicode="&#xf2;" horiz-adv-x="1196" 
d="M248 143q-133 160 -133 373t133 373t350 160t350 -160t133 -373t-133 -373q-132 -159 -350 -159t-350 159zM340 807q-92 -124 -92 -291t92 -291q94 -123 258 -123t256 123q94 122 94 291t-94 291q-92 123 -256 123t-258 -123zM379 1434h190l144 -287h-101z" />
    <glyph glyph-name="oacute" unicode="&#xf3;" horiz-adv-x="1196" 
d="M248 143q-133 160 -133 373t133 373t350 160t350 -160t133 -373t-133 -373q-132 -159 -350 -159t-350 159zM340 807q-92 -124 -92 -291t92 -291q94 -123 258 -123t256 123q94 122 94 291t-94 291q-92 123 -256 123t-258 -123zM547 1147h-101l144 287h190z" />
    <glyph glyph-name="ocircumflex" unicode="&#xf4;" horiz-adv-x="1196" 
d="M248 143q-133 160 -133 373t133 373t350 160t350 -160t133 -373t-133 -373q-132 -159 -350 -159t-350 159zM340 807q-92 -124 -92 -291t92 -291q94 -123 258 -123t256 123q94 122 94 291t-94 291q-92 123 -256 123t-258 -123zM428 1159h-147l294 309h46l294 -309h-147
l-170 182z" />
    <glyph glyph-name="otilde" unicode="&#xf5;" horiz-adv-x="1196" 
d="M248 143q-133 160 -133 373t133 373t350 160t350 -160t133 -373t-133 -373q-132 -159 -350 -159t-350 159zM340 807q-92 -124 -92 -291t92 -291q94 -123 258 -123t256 123q94 122 94 291t-94 291q-92 123 -256 123t-258 -123zM336 1214l-82 64q76 141 203 141
q74 0 147 -43q77 -41 121 -41q78 0 137 74l82 -63q-77 -142 -203 -142q-72 0 -149 41q-73 43 -119 43q-78 0 -137 -74z" />
    <glyph glyph-name="odieresis" unicode="&#xf6;" horiz-adv-x="1196" 
d="M248 143q-133 160 -133 373t133 373t350 160t350 -160t133 -373t-133 -373q-132 -159 -350 -159t-350 159zM340 807q-92 -124 -92 -291t92 -291q94 -123 258 -123t256 123q94 122 94 291t-94 291q-92 123 -256 123t-258 -123zM340 1331q0 43 29 73t71 30q43 0 72 -30
t29 -73q0 -41 -29 -69.5t-72 -28.5t-71.5 28.5t-28.5 69.5zM655 1331q0 43 29 73t70 30q43 0 72.5 -30t29.5 -73q0 -41 -29.5 -69.5t-72.5 -28.5q-41 0 -70 28.5t-29 69.5z" />
    <glyph glyph-name="divide" unicode="&#xf7;" horiz-adv-x="1044" 
d="M444 199q-29 31 -29 75.5t29 73.5q31 31 76 31t74 -31q31 -29 31 -73.5t-31 -75.5q-29 -29 -74 -29t-76 29zM444 948q-29 31 -29 76t29 74q31 31 76 31t74 -31q31 -29 31 -74t-31 -76q-29 -29 -74 -29t-76 29zM942 592h-840v115h840v-115z" />
    <glyph glyph-name="oslash" unicode="&#xf8;" horiz-adv-x="1196" 
d="M115 516q0 213 133 373t350 160q158 0 274 -88l115 145l94 -72l-123 -155q123 -150 123 -363t-133 -373q-132 -159 -350 -159q-158 0 -274 88l-115 -146l-94 72l123 156q-123 150 -123 362zM948 516q0 154 -69 260l-482 -608q87 -66 201 -66q164 0 256 123q94 122 94 291
zM248 516q0 -154 69 -260l482 608q-87 66 -201 66q-164 0 -258 -123q-92 -124 -92 -291z" />
    <glyph glyph-name="ugrave" unicode="&#xf9;" 
d="M184 324v708h127v-692q0 -238 211 -238q144 0 238 131q96 134 96 347v452h127v-1032h-127v215q-55 -105 -150 -168t-204 -63q-148 0 -233 90t-85 250zM393 1434h191l143 -287h-100z" />
    <glyph glyph-name="uacute" unicode="&#xfa;" 
d="M184 324v708h127v-692q0 -238 211 -238q144 0 238 131q96 134 96 347v452h127v-1032h-127v215q-55 -105 -150 -168t-204 -63q-148 0 -233 90t-85 250zM543 1147h-101l144 287h190z" />
    <glyph glyph-name="ucircumflex" unicode="&#xfb;" 
d="M184 324v708h127v-692q0 -238 211 -238q144 0 238 131q96 134 96 347v452h127v-1032h-127v215q-55 -105 -150 -168t-204 -63q-148 0 -233 90t-85 250zM418 1159h-148l295 309h45l295 -309h-147l-170 182z" />
    <glyph glyph-name="udieresis" unicode="&#xfc;" 
d="M184 324v708h127v-692q0 -238 211 -238q144 0 238 131q96 134 96 347v452h127v-1032h-127v215q-55 -105 -150 -168t-204 -63q-148 0 -233 90t-85 250zM334 1331q0 43 29 73t71 30q43 0 72 -30t29 -73q0 -41 -29 -69.5t-72 -28.5t-71.5 28.5t-28.5 69.5zM649 1331
q0 43 29 73t70 30q43 0 72.5 -30t29.5 -73q0 -41 -29.5 -69.5t-72.5 -28.5q-41 0 -70 28.5t-29 69.5z" />
    <glyph glyph-name="yacute" unicode="&#xfd;" horiz-adv-x="925" 
d="M475 197l287 835h133l-512 -1450h-127l150 424l-371 1026h133zM455 1147h-101l144 287h190z" />
    <glyph glyph-name="thorn" unicode="&#xfe;" horiz-adv-x="1226" 
d="M199 -418v1868h131v-563q55 72 145.5 117t175.5 45q216 0 338 -152q123 -150 123 -381q0 -233 -123 -383q-119 -149 -338 -149q-96 0 -187.5 44t-133.5 107v-553h-131zM979 516q0 181 -88 297q-88 117 -246 117q-157 0 -246 -117q-86 -118 -86 -297q0 -187 87.5 -300.5
t244.5 -113.5t245.5 113.5t88.5 300.5z" />
    <glyph glyph-name="ydieresis" unicode="&#xff;" horiz-adv-x="925" 
d="M475 197l287 835h133l-512 -1450h-127l150 424l-371 1026h133zM217 1331q0 43 29 73t71 30q43 0 72 -30t29 -73q0 -41 -29 -69.5t-72 -28.5t-71.5 28.5t-28.5 69.5zM532 1331q0 43 29 73t70 30q43 0 72.5 -30t29.5 -73q0 -41 -29.5 -69.5t-72.5 -28.5q-41 0 -70 28.5
t-29 69.5z" />
    <glyph glyph-name="dotlessi" unicode="&#x131;" horiz-adv-x="573" 
d="M223 0v1032h127v-1032h-127z" />
    <glyph glyph-name="Lslash" unicode="&#x141;" horiz-adv-x="1054" 
d="M207 696v738h135v-662l262 152l55 -97l-317 -182v-518h672v-127h-807v569l-148 -86l-49 97z" />
    <glyph glyph-name="lslash" unicode="&#x142;" horiz-adv-x="663" 
d="M262 649l-158 -88l-55 96l213 119v674h127v-604l158 88l55 -96l-213 -119v-719h-127v649z" />
    <glyph glyph-name="OE" unicode="&#x152;" horiz-adv-x="2199" 
d="M1243 1188v246h809v-127h-674v-480h551v-127h-551v-573h695v-127h-830v246q-86 -124 -215.5 -193t-277.5 -69q-262 0 -447 200q-182 203 -182 533t182 530q185 203 447 203q148 0 277.5 -69t215.5 -193zM1098 1163q-139 160 -348 160q-212 0 -351 -160
q-137 -155 -137 -446t137 -449q139 -157 351 -157q209 0 348 157q139 160 139 449t-139 446z" />
    <glyph glyph-name="oe" unicode="&#x153;" horiz-adv-x="1964" 
d="M1860 573v-57h-779v-18q5 -181 91.5 -288.5t234.5 -107.5q114 0 188.5 51.5t126.5 161.5l115 -47q-77 -152 -178.5 -218t-251.5 -66q-133 0 -236.5 65.5t-160.5 183.5q-64 -117 -171 -183t-241 -66q-218 0 -350 159q-133 160 -133 373t133 373t350 160q134 0 241 -66
t171 -184q58 118 161.5 184t235.5 66q201 0 326 -131q127 -133 127 -345zM340 807q-92 -124 -92 -291t92 -291q94 -123 258 -123t256 123q94 122 94 291t-94 291q-92 123 -256 123t-258 -123zM1407 930q-122 0 -205 -80.5t-110 -214.5h637q-19 138 -103 216.5t-219 78.5z
" />
    <glyph glyph-name="Scaron" unicode="&#x160;" horiz-adv-x="1036" 
d="M856 1229l-111 -70q-86 164 -237 164q-90 0 -144.5 -61.5t-54.5 -147.5q0 -166 221 -268q98 -44 183 -88q98 -47 159.5 -139t61.5 -216q0 -191 -117 -305q-114 -114 -293 -114q-170 0 -285 105t-153 282l117 69q46 -165 119.5 -247t201.5 -82q124 0 196.5 75.5
t72.5 212.5q0 175 -220 277q-152 70 -210 107q-176 114 -188 283q-1 15 -1 32q0 153 96 254q98 98 238 98q101 0 168 -33q67 -30 100 -67.5t80 -120.5zM539 1561h-45l-295 309h147l170 -182l170 182h148z" />
    <glyph glyph-name="scaron" unicode="&#x161;" horiz-adv-x="921" 
d="M471 1049q172 0 287 -160l-90 -78q-88 119 -203 119q-67 0 -109.5 -43.5t-42.5 -112.5q0 -100 172 -170q142 -56 200 -96q118 -81 118 -201q0 -149 -86 -236t-234 -87q-145 0 -239.5 78.5t-132.5 203.5l112 60q41 -112 101 -168t159 -56q90 0 138.5 49t48.5 136
q0 60 -47.5 106t-124.5 74q-127 50 -169 75q-140 79 -147 215v15q0 122 82 199.5t207 77.5zM494 1159h-45l-295 309h147l170 -182l170 182h147z" />
    <glyph glyph-name="Ydieresis" unicode="&#x178;" horiz-adv-x="1024" 
d="M444 0v623l-432 811h158l342 -678l342 678h158l-432 -811v-623h-136zM254 1733q0 43 28.5 72.5t71.5 29.5t72 -29.5t29 -72.5q0 -41 -29 -70t-72 -29q-42 0 -71 29t-29 70zM569 1733q0 43 29 72.5t70 29.5q43 0 72.5 -29.5t29.5 -72.5q0 -41 -29.5 -70t-72.5 -29
q-41 0 -70 29t-29 70z" />
    <glyph glyph-name="Zcaron" unicode="&#x17d;" horiz-adv-x="1122" 
d="M819 1307h-696v127h876v-66l-712 -1241h727v-127h-916v66zM600 1561h-45l-295 309h148l170 -182l170 182h147z" />
    <glyph glyph-name="zcaron" unicode="&#x17e;" horiz-adv-x="933" 
d="M641 913h-502v119h670v-69l-520 -844h542v-119h-716v61zM492 1159h-46l-294 309h147l170 -182l170 182h147z" />
    <glyph glyph-name="florin" unicode="&#x192;" horiz-adv-x="958" 
d="M420 913h-184l24 119h184l13 66q35 187 127 269.5t254 82.5q79 0 125 -27l-50 -116q-46 24 -102 24q-179 0 -223 -213l-17 -86h250l-24 -119h-250l-193 -995q-36 -189 -125 -270.5t-247 -81.5q-89 0 -134 26l50 117q50 -24 102 -24q96 0 147.5 50.5t75.5 162.5z" />
    <glyph glyph-name="circumflex" unicode="&#x2c6;" horiz-adv-x="757" 
d="M209 1159h-148l295 309h45l295 -309h-147l-170 182z" />
    <glyph glyph-name="caron" unicode="&#x2c7;" horiz-adv-x="757" 
d="M401 1159h-45l-295 309h148l170 -182l170 182h147z" />
    <glyph glyph-name="breve" unicode="&#x2d8;" horiz-adv-x="489" 
d="M348 1434h105q0 -101 -58 -162.5t-157 -61.5q-98 0 -156.5 62t-58.5 162h104q0 -55 29 -88t82 -33q110 0 110 121z" />
    <glyph glyph-name="dotaccent" unicode="&#x2d9;" horiz-adv-x="512" 
d="M180 1253q-29 31 -29 76t29 74q31 31 76 31t74 -31q31 -29 31 -74t-31 -76q-29 -29 -74 -29t-76 29z" />
    <glyph glyph-name="ring" unicode="&#x2da;" horiz-adv-x="479" 
d="M41 1337q0 85 57 143t142 58q86 0 142 -57t56 -144q0 -82 -56 -137t-142 -55q-85 0 -142 55t-57 137zM240 1233q47 0 75.5 29.5t28.5 76.5q0 50 -28.5 80.5t-75.5 30.5q-44 0 -74.5 -32t-30.5 -79t30 -76.5t75 -29.5z" />
    <glyph glyph-name="ogonek" unicode="&#x2db;" horiz-adv-x="425" 
d="M141 -123h113q-115 -106 -115 -164q0 -67 68 -67q52 0 117 86l79 -64q-57 -76 -104 -106.5t-113 -30.5q-73 0 -117 43t-44 115q0 106 116 188z" />
    <glyph glyph-name="tilde" unicode="&#x2dc;" horiz-adv-x="772" 
d="M123 1214l-82 64q76 141 203 141q74 0 147 -43q77 -41 121 -41q78 0 137 74l82 -63q-77 -142 -203 -142q-72 0 -149 41q-73 43 -119 43q-78 0 -137 -74z" />
    <glyph glyph-name="hungarumlaut" unicode="&#x2dd;" horiz-adv-x="731" 
d="M152 1147h-101l144 287h190zM463 1147h-101l144 287h190z" />
    <glyph glyph-name="Omega" unicode="&#x3a9;" horiz-adv-x="1396" 
d="M594 0h-430v115h282q-34 55 -84 166q-24 54 -73 180q-31 92 -58 211q-26 118 -26 229q0 244 133 395q136 154 360 154q226 0 359 -154q135 -150 135 -395q0 -322 -209 -725l-33 -61h283v-115h-430v39q34 60 84 180q41 99 71 195q31 90 60 233q26 130 26 254
q0 200 -95 317t-251 117t-251 -117t-95 -317q0 -358 207 -795l35 -67v-39z" />
    <glyph glyph-name="pi" unicode="&#x3c0;" horiz-adv-x="1214" 
d="M297 918h-182v114h985v-114h-182v-918h-127v918h-367v-918h-127v918z" />
    <glyph glyph-name="endash" unicode="&#x2013;" horiz-adv-x="1140" 
d="M985 592h-838v115h838v-115z" />
    <glyph glyph-name="emdash" unicode="&#x2014;" horiz-adv-x="1560" 
d="M1405 592h-1258v115h1258v-115z" />
    <glyph glyph-name="quoteleft" unicode="&#x2018;" horiz-adv-x="563" 
d="M123 1450h211l125 -377h-101z" />
    <glyph glyph-name="quoteright" unicode="&#x2019;" horiz-adv-x="563" 
d="M205 1073h-101l125 377h211z" />
    <glyph glyph-name="quotesinglbase" unicode="&#x201a;" horiz-adv-x="563" 
d="M205 -29h-101l125 377h211z" />
    <glyph glyph-name="quotedblleft" unicode="&#x201c;" horiz-adv-x="856" 
d="M416 1450h211l125 -377h-101zM123 1450h211l125 -377h-101z" />
    <glyph glyph-name="quotedblright" unicode="&#x201d;" horiz-adv-x="856" 
d="M205 1073h-101l125 377h211zM498 1073h-101l125 377h211z" />
    <glyph glyph-name="quotedblbase" unicode="&#x201e;" horiz-adv-x="856" 
d="M205 -29h-101l125 377h211zM498 -29h-101l125 377h211z" />
    <glyph glyph-name="dagger" unicode="&#x2020;" horiz-adv-x="942" 
d="M410 918h-277v114h277v504h122v-504h277v-114h-277v-1020h-122v1020z" />
    <glyph glyph-name="daggerdbl" unicode="&#x2021;" horiz-adv-x="942" 
d="M410 918h-277v114h277v504h122v-504h277v-114h-277v-402h277v-115h-277v-503h-122v503h-277v115h277v402z" />
    <glyph glyph-name="bullet" unicode="&#x2022;" horiz-adv-x="622" 
d="M217 582q-38 38 -38 94t38 94t94.5 38t94.5 -38t38 -94t-38 -94t-94.5 -38t-94.5 38z" />
    <glyph glyph-name="ellipsis" unicode="&#x2026;" horiz-adv-x="1593" 
d="M186 100q0 44 30.5 74.5t74.5 30.5t74 -30.5t30 -74.5t-30 -74t-74 -30q-45 0 -75 29t-30 75zM692 100q0 33 19 59t46 37.5t58.5 6.5t54.5 -29q24 -23 29.5 -54.5t-6 -58.5t-37.5 -46t-59 -19q-47 0 -76 28.5t-29 75.5zM1198 100q0 44 30.5 74.5t74.5 30.5t74 -30.5
t30 -74.5t-30 -74t-74 -30q-45 0 -75 29t-30 75z" />
    <glyph glyph-name="perthousand" unicode="&#x2030;" horiz-adv-x="2547" 
d="M217 889q-90 96 -90 233q0 136 90 232q93 96 232 96t229 -96q92 -95 92 -232q0 -138 -92 -233q-88 -94 -229 -94t-232 94zM295 1278q-57 -60 -57 -156q0 -95 57 -155q59 -62 154 -62q94 0 153 62q57 60 57 155q0 96 -57 156q-58 61 -153 61q-96 0 -154 -61zM1049 78
q-91 97 -91 233q0 135 91 232q93 96 231 96q139 0 229 -96q93 -96 93 -232q0 -137 -93 -233q-88 -94 -229 -94q-140 0 -231 94zM1126 467q-57 -60 -57 -156q0 -95 57 -155q59 -62 154 -62t154 62q57 60 57 155q0 96 -57 156q-58 61 -154 61t-154 -61zM266 18l1110 1465
l86 -68l-1110 -1464zM1868 78q-90 96 -90 233q0 136 90 232q93 96 231 96q140 0 230 -96q92 -95 92 -232q0 -138 -92 -233q-88 -94 -230 -94q-140 0 -231 94zM1946 467q-58 -61 -58 -156q0 -94 58 -155q59 -62 153 -62q95 0 154 62q57 60 57 155q0 96 -57 156
q-58 61 -154 61q-95 0 -153 -61z" />
    <glyph glyph-name="guilsinglleft" unicode="&#x2039;" horiz-adv-x="763" 
d="M641 193l-539 399v86l539 399v-139l-405 -303l405 -303v-139z" />
    <glyph glyph-name="guilsinglright" unicode="&#x203a;" horiz-adv-x="763" 
d="M123 1077l539 -399v-86l-539 -399v139l405 303l-405 303v139z" />
    <glyph glyph-name="fraction" unicode="&#x2044;" horiz-adv-x="1245" 
d="M25 18l1110 1465l86 -68l-1110 -1464z" />
    <glyph glyph-name="zerosuperior" unicode="&#x2070;" horiz-adv-x="788" 
d="M176 1327q77 115 219 115q140 0 217 -115q78 -116 78 -303q0 -189 -78 -305q-76 -113 -217 -113q-143 0 -219 113q-78 116 -78 305q0 187 78 303zM530 1262q-49 81 -135 81q-85 0 -137 -81q-49 -82 -49 -238t49 -238q52 -81 137 -81q86 0 135 81q52 82 52 238t-52 238z
" />
    <glyph glyph-name="foursuperior" unicode="&#x2074;" horiz-adv-x="692" 
d="M524 614h-102v170h-350v35l331 615h121v-551h107v-99h-107v-170zM422 1282l-209 -399h209v399z" />
    <glyph glyph-name="fivesuperior" unicode="&#x2075;" horiz-adv-x="681" 
d="M102 831l101 19q30 -145 151 -145q75 0 115.5 46.5t40.5 131.5q0 180 -156 180q-94 0 -159 -92l-74 16l43 447h407v-99h-319l-27 -235q51 57 146 57q117 0 183.5 -72.5t66.5 -201.5q0 -127 -72.5 -202t-194.5 -75q-102 0 -170.5 59t-81.5 166z" />
    <glyph glyph-name="sixsuperior" unicode="&#x2076;" horiz-adv-x="747" 
d="M391 1145q115 0 184.5 -73t69.5 -195q0 -119 -73 -195t-193 -76t-194 76.5t-74 194.5q0 86 49 174l223 391h111l-187 -318q21 21 84 21zM221 877q0 -76 43.5 -124t114.5 -48t113.5 48t42.5 124q0 80 -41.5 125t-114.5 45t-115.5 -46t-42.5 -124z" />
    <glyph glyph-name="sevensuperior" unicode="&#x2077;" horiz-adv-x="602" 
d="M561 1389l-317 -775h-111l297 721h-336v99h467v-45z" />
    <glyph glyph-name="eightsuperior" unicode="&#x2078;" horiz-adv-x="724" 
d="M588 1225q0 -117 -96 -170q57 -21 91.5 -74t34.5 -125q0 -114 -72 -182t-184 -68t-184 68t-72 182q0 72 35 125t92 74q-96 53 -96 170q0 97 62.5 157t162.5 60t163 -60t63 -157zM217 856q0 -68 39 -109.5t106 -41.5t106.5 41.5t39.5 109.5q0 69 -39 107t-107 38
t-106.5 -38t-38.5 -107zM236 1225q0 -56 34.5 -90.5t91.5 -34.5t92 34.5t35 90.5q0 57 -35 92t-92 35t-91.5 -35t-34.5 -92z" />
    <glyph glyph-name="ninesuperior" unicode="&#x2079;" horiz-adv-x="747" 
d="M356 903q-115 0 -184.5 73t-69.5 195q0 119 73.5 195t193.5 76t194 -76.5t74 -194.5q0 -86 -49 -174l-223 -391h-111l186 318q-21 -21 -84 -21zM526 1171q0 76 -43 124t-114 48t-113.5 -48t-42.5 -124q0 -80 41.5 -125t114.5 -45t115 46t42 124z" />
    <glyph glyph-name="Euro" unicode="&#x20ac;" horiz-adv-x="1253" 
d="M233 809h-161l59 115h111q33 243 172.5 384.5t357.5 141.5q255 0 391 -238l-112 -61q-85 184 -279 184q-160 0 -263 -106.5t-134 -304.5h528l-59 -115h-479v-184h538l-59 -115h-469q31 -198 134 -305t263 -107q193 0 279 185l112 -62q-135 -237 -391 -237
q-218 0 -357.5 141.5t-172.5 384.5h-170l59 115h102v184z" />
    <glyph glyph-name="trademark" unicode="&#x2122;" horiz-adv-x="1660" 
d="M295 1343h-234v91h568v-91h-234v-729h-100v729zM784 614v820h107l242 -578l241 578h107v-820h-101v605l-219 -529h-57l-219 529v-605h-101z" />
    <glyph glyph-name="partialdiff" unicode="&#x2202;" horiz-adv-x="1212" 
d="M352 1147l-133 35q57 126 162 197t248 71q220 0 336 -186t116 -537q0 -204 -61 -369q-62 -170 -195.5 -272t-316.5 -102q-179 0 -293 120q-113 119 -113 318q0 256 154 442q156 185 408 185q85 0 165 -33t117 -84q-19 184 -107.5 291.5t-224.5 107.5q-168 0 -262 -184z
M645 930q-185 0 -297 -152q-110 -149 -110 -352q0 -143 74.5 -233.5t195.5 -90.5q189 0 309 150q123 150 123 352q0 154 -78 240t-217 86z" />
    <glyph glyph-name="Delta" unicode="&#x2206;" horiz-adv-x="1339" 
d="M1221 0h-1102v33l483 1401h135l484 -1401v-33zM1053 119l-383 1124l-383 -1124h766z" />
    <glyph glyph-name="product" unicode="&#x220f;" horiz-adv-x="1107" 
d="M319 0h-126v1434h722v-1434h-127v1319h-469v-1319z" />
    <glyph glyph-name="summation" unicode="&#x2211;" horiz-adv-x="1110" 
d="M123 31l440 686l-440 686v31h852v-115h-660l375 -586v-33l-375 -585h660v-115h-852v31z" />
    <glyph glyph-name="minus" unicode="&#x2212;" horiz-adv-x="1114" 
d="M981 592h-840v115h840v-115z" />
    <glyph glyph-name="radical" unicode="&#x221a;" horiz-adv-x="1130" 
d="M586 221l372 1229h115l-440 -1450h-96l-222 682h-192v115h272z" />
    <glyph glyph-name="infinity" unicode="&#x221e;" horiz-adv-x="1794" 
d="M1303 344q-225 0 -406 272q-181 -272 -405 -272q-166 0 -269 109q-100 106 -100 282q0 177 100 283q102 108 269 108q224 0 405 -272q181 272 406 272q164 0 266 -108t102 -283q0 -174 -102 -282q-103 -109 -266 -109zM518 459q186 0 324 276q-138 277 -324 277
q-123 0 -195.5 -74t-72.5 -203q0 -128 72 -202t196 -74zM1276 459q124 0 196 74t72 202q0 129 -72.5 203t-195.5 74q-186 0 -324 -277q138 -276 324 -276z" />
    <glyph glyph-name="integral" unicode="&#x222b;" horiz-adv-x="958" 
d="M223 -102l234 1200q36 187 128 269.5t253 82.5q79 0 125 -27l-50 -116q-46 24 -102 24q-179 0 -223 -213l-234 -1200q-36 -189 -125 -270.5t-247 -81.5q-89 0 -134 26l50 117q50 -24 102 -24q96 0 147.5 50.5t75.5 162.5z" />
    <glyph glyph-name="approxequal" unicode="&#x2248;" horiz-adv-x="1171" 
d="M225 371l-82 80q114 159 250 159q80 0 187 -55t182 -55q107 0 184 92l82 -80q-115 -160 -250 -160q-77 0 -186 56q-107 55 -182 55q-108 0 -185 -92zM225 780l-82 80q115 160 250 160q80 0 187 -55q109 -56 182 -56q107 0 184 92l82 -79q-115 -160 -250 -160
q-79 0 -186 55t-182 55q-108 0 -185 -92z" />
    <glyph glyph-name="notequal" unicode="&#x2260;" horiz-adv-x="1136" 
d="M567 748h-395v114h461l131 228l98 -58l-98 -170h201v-114h-267l-129 -226h396v-114h-461l-131 -228l-99 58l99 170h-201v114h266z" />
    <glyph glyph-name="lessequal" unicode="&#x2264;" horiz-adv-x="1085" 
d="M952 0h-837v115h837v-115zM874 385l-684 369v139l684 369v-127l-579 -312l579 -311v-127z" />
    <glyph glyph-name="greaterequal" unicode="&#x2265;" horiz-adv-x="1085" 
d="M133 115h838v-115h-838v115zM211 1262l684 -369v-139l-684 -369v127l580 311l-580 312v127z" />
    <glyph glyph-name="lozenge" unicode="&#x25ca;" horiz-adv-x="1146" 
d="M637 0h-127l-369 717l369 717h127l369 -717zM272 717l301 -586l301 586l-301 586z" />
    <glyph glyph-name="apple" unicode="&#xf8ff;" horiz-adv-x="1626" 
d="M1419 1264v-1219q0 -19 -13 -32t-32 -13q-8 0 -14 2l-547 158l-547 -158q-6 -2 -14 -2q-19 0 -32 13t-13 32v1219q0 36 33 45l553 159q21 8 41 0l552 -159q33 -9 33 -45zM768 750v620l-471 -137q12 -191 145 -330q135 -138 326 -153zM1329 1233l-471 137v-620
q192 15 324 153q135 138 147 330zM295 948v-844l473 138v417q-149 12 -274 89t-199 200zM858 242l473 -138v844q-75 -124 -200 -200.5t-273 -88.5v-417z" />
    <glyph glyph-name="No" horiz-adv-x="2486" 
d="M1077 215v1219h135v-1434h-159l-711 1214v-1214h-135v1434h160zM2308 0h-838v115h838v-115zM1538 545q-133 160 -133 373q0 212 133 372t350 160t350 -160q134 -161 134 -372q0 -212 -134 -373q-133 -160 -350 -160t-350 160zM1630 1208q-92 -124 -92 -290
q0 -167 92 -291q94 -123 258 -123t256 123q94 122 94 291q0 168 -94 290q-92 123 -256 123t-258 -123z" />
    <glyph glyph-name="zero.tn" 
d="M211 1251q126 199 369 199q240 0 366 -199q127 -198 127 -534t-127 -537q-126 -196 -366 -196q-243 0 -369 196q-125 198 -125 537t125 534zM846 1165q-95 170 -266 170q-172 0 -267 -170q-96 -172 -96 -448q0 -277 96 -449q95 -170 267 -170q171 0 266 170
q96 172 96 449q0 276 -96 448z" />
    <glyph glyph-name="one.tn" 
d="M336 1223l332 211h32v-1434h-127v1217l-237 -150v156z" />
    <glyph glyph-name="two.tn" 
d="M1006 0h-848v47l522 676q101 128 129 192q31 70 31 158q0 122 -68 192t-186 70q-109 0 -184.5 -79.5t-94.5 -208.5l-119 22q14 163 125 274q107 107 273 107q173 0 279 -102t106 -279q0 -164 -174 -387l-439 -567h648v-115z" />
    <glyph glyph-name="three.tn" 
d="M139 393l127 19q18 -146 99 -230t215 -84q154 0 237.5 90t83.5 250q0 165 -83.5 253.5t-237.5 88.5q-69 0 -127 -37l-62 80l371 496h-551v115h750v-35l-388 -514q18 6 54 6q164 0 284 -123q121 -121 121 -330q0 -203 -123 -329q-119 -125 -329 -125q-181 0 -301 109.5
t-140 299.5z" />
    <glyph glyph-name="four.tn" 
d="M856 0h-127v330h-633v35l604 1069h156v-990h191v-114h-191v-330zM729 1253l-453 -809h453v809z" />
    <glyph glyph-name="five.tn" 
d="M162 377l125 22q40 -301 295 -301q152 0 231.5 97.5t79.5 271.5q0 181 -81 275t-230 94q-181 0 -295 -193l-90 21l73 770h670v-115h-555l-51 -488q110 119 260 119q198 0 314 -130t116 -353q0 -216 -119 -350q-121 -133 -323 -133q-174 0 -285 100.5t-135 292.5z" />
    <glyph glyph-name="six.tn" 
d="M580 918q194 0 321 -136q125 -131 125 -331t-125 -334q-127 -133 -321 -133q-195 0 -322 133q-125 134 -125 334q0 130 76 264l424 735h133l-320 -567q47 35 134 35zM264 451q0 -153 88 -254q89 -99 228 -99q136 0 225 99q90 104 90 254q0 160 -87 256t-228 96
t-228.5 -96t-87.5 -256z" />
    <glyph glyph-name="seven.tn" 
d="M985 1393l-567 -1393h-133l549 1319h-644v115h795v-41z" />
    <glyph glyph-name="eight.tn" 
d="M961 1077q0 -102 -50 -182t-131 -123q100 -37 165 -140t65 -231q0 -197 -125 -307q-122 -110 -305 -110t-308 110q-122 110 -122 307q0 129 64.5 231.5t164.5 139.5q-81 43 -130.5 123t-49.5 182q0 168 104 269q107 104 277 104t274 -104q107 -101 107 -269zM580 98
q137 0 218 81.5t81 221.5t-81.5 222t-217.5 82t-217.5 -82t-81.5 -222t81.5 -221.5t217.5 -81.5zM764 1264q-71 71 -184 71q-114 0 -185 -71q-69 -69 -69 -187q0 -119 69 -188q70 -70 185 -70q114 0 184 70t70 188q0 117 -70 187z" />
    <glyph glyph-name="nine.tn" 
d="M580 516q-195 0 -322 133q-125 134 -125 334q0 201 125 332q126 135 322 135q195 0 321 -135q125 -131 125 -332q0 -130 -76 -264l-424 -735h-133l320 567q-47 -35 -133 -35zM895 983q0 151 -90 252q-87 100 -225 100q-141 0 -228 -100q-88 -98 -88 -252
q0 -160 87.5 -256t228.5 -96t228 96t87 256z" />
    <glyph glyph-name="edition" horiz-adv-x="5101" 
d="M1077 215v1219h135v-1434h-159l-711 1214v-1214h-135v1434h160zM2308 0h-838v115h838v-115zM1538 545q-133 160 -133 373q0 212 133 372t350 160t350 -160q134 -161 134 -372q0 -212 -134 -373q-133 -160 -350 -160t-350 160zM1630 1208q-92 -124 -92 -290
q0 -167 92 -291q94 -123 258 -123t256 123q94 122 94 291q0 168 -94 290q-92 123 -256 123t-258 -123zM2757 1327q77 115 219 115q140 0 217 -115q78 -116 78 -303q0 -189 -78 -305q-76 -113 -217 -113q-143 0 -219 113q-78 116 -78 305q0 187 78 303zM3111 1262
q-49 81 -135 81q-85 0 -137 -81q-50 -83 -50 -238t50 -238q52 -81 137 -81q86 0 135 81q51 80 51 238t-51 238zM3576 1327q77 115 219 115q140 0 217 -115q78 -116 78 -303q0 -189 -78 -305q-76 -113 -217 -113q-143 0 -219 113q-78 116 -78 305q0 187 78 303zM3930 1262
q-49 81 -135 81q-85 0 -137 -81q-49 -82 -49 -238t49 -238q52 -81 137 -81q86 0 135 81q51 80 51 238t-51 238zM4395 1327q77 115 219 115q140 0 217 -115q78 -116 78 -303q0 -189 -78 -305q-76 -113 -217 -113q-143 0 -219 113q-78 116 -78 305q0 187 78 303zM4749 1262
q-49 81 -135 81q-85 0 -137 -81q-49 -82 -49 -238t49 -238q52 -81 137 -81q86 0 135 81q52 82 52 238t-52 238z" />
    </font>
</defs>
</svg>
