<?xml version="1.0" standalone="no"?>
<!DOCTYPE svg PUBLIC "-//W3C//DTD SVG 1.1//EN" "http://www.w3.org/Graphics/SVG/1.1/DTD/svg11.dtd" >
<svg xmlns="http://www.w3.org/2000/svg" xmlns:xlink="http://www.w3.org/1999/xlink" version="1.1">
<metadata>
Created by FontForge 20170731 at Tue Apr 27 22:29:51 2021
 By Aleksey,,,
Copyright (c) 2009 by The Entente (AS &#38; EH). All rights reserved.
</metadata>
<defs>
<font id="Apercu-Italic" horiz-adv-x="1181" >
  <font-face 
    font-family="Apercu"
    font-weight="400"
    font-style="italic"
    font-stretch="normal"
    units-per-em="2048"
    panose-1="2 0 5 6 0 0 0 9 0 4"
    ascent="1638"
    descent="-410"
    x-height="1032"
    cap-height="1434"
    bbox="-231 -584 3953 2361"
    underline-thickness="102"
    underline-position="-307"
    slope="-12"
    unicode-range="U+000D-FB02"
  />
<missing-glyph horiz-adv-x="1271" 
d="M1073 0h-874v1434h874v-1434zM901 156v1122h-530v-1122h530z" />
    <glyph glyph-name="fi" unicode="fi" horiz-adv-x="1067" 
d="M231 877h-155l30 155h156l6 33q35 182 164 283.5t311 101.5q166 0 252 -68l-65 -147q-86 59 -217 59q-225 0 -271 -227l-6 -35h529l-201 -1032h-174l170 877h-354l-170 -877h-175z" />
    <glyph glyph-name="fl" unicode="fl" horiz-adv-x="1208" 
d="M231 877h-157l30 155h158l10 53q70 365 451 365h414l-281 -1450h-174l252 1294h-242q-205 0 -246 -207l-10 -55h238l-31 -155h-237l-170 -877h-175z" />
    <glyph glyph-name=".notdef" horiz-adv-x="1271" 
d="M1073 0h-874v1434h874v-1434zM901 156v1122h-530v-1122h530z" />
    <glyph glyph-name=".null" horiz-adv-x="0" 
 />
    <glyph glyph-name=".null" horiz-adv-x="0" 
 />
    <glyph glyph-name="nonmarkingreturn" horiz-adv-x="682" 
 />
    <glyph glyph-name="CR" unicode="&#xd;" horiz-adv-x="475" 
 />
    <glyph glyph-name="space" unicode=" " horiz-adv-x="475" 
 />
    <glyph glyph-name="exclam" unicode="!" horiz-adv-x="710" 
d="M250 410l149 1024h234l-248 -1024h-135zM123 133q0 62 41 104t102 42t102.5 -42t41.5 -104q0 -60 -41 -99.5t-103 -39.5t-102.5 39.5t-40.5 99.5z" />
    <glyph glyph-name="quotedbl" unicode="&#x22;" horiz-adv-x="907" 
d="M393 975h-127l41 475h230zM707 975h-127l41 475h229z" />
    <glyph glyph-name="numbersign" unicode="#" horiz-adv-x="1415" 
d="M461 868h-246l16 140h275l139 426h156l-139 -426h280l139 426h154l-139 -426h239l-16 -140h-268l-101 -303h248l-16 -139h-277l-137 -426h-154l138 426h-281l-135 -426h-158l137 426h-237l16 139h266zM897 868h-281l-100 -303h281z" />
    <glyph glyph-name="dollar" unicode="$" horiz-adv-x="1071" 
d="M997 1196l-155 -86q-62 170 -197 170q-93 0 -146 -54t-53 -147q0 -58 24.5 -101t70.5 -76.5t133 -78.5q143 -76 207 -149q63 -72 63 -217q0 -219 -133 -340q-125 -119 -311 -131l-33 -170h-164l35 180q-130 36 -209 139q-84 110 -84 242l164 88q11 -142 77.5 -225.5
t184.5 -83.5q127 0 207 71t80 197q0 94 -48 148t-171 114q-281 139 -281 367q0 169 98 272t262 121l35 172h164l-37 -184q83 -29 139.5 -92.5t77.5 -145.5z" />
    <glyph glyph-name="percent" unicode="%" horiz-adv-x="1798" 
d="M158 1077q0 169 118 275q107 98 269 98q117 0 195.5 -78.5t78.5 -204.5q0 -167 -119 -274q-107 -98 -268 -98q-118 0 -196 78.5t-78 203.5zM520 1307q-83 0 -143 -54q-68 -62 -68 -155q0 -76 40 -118t108 -42q84 0 143 53q68 62 68 156q0 76 -40 118t-108 42zM915 266
q0 168 119 275q107 98 269 98q117 0 195.5 -78.5t78.5 -204.5q0 -167 -119 -274q-107 -98 -268 -98q-118 0 -196.5 78.5t-78.5 203.5zM1278 496q-83 0 -143 -54q-68 -62 -68 -155q0 -77 40 -118.5t107 -41.5q85 0 144 53q67 61 67 156q0 77 -40 118.5t-107 41.5zM131 31
l1385 1470l94 -88l-1387 -1472z" />
    <glyph glyph-name="ampersand" unicode="&#x26;" horiz-adv-x="1271" 
d="M430 -16q-159 0 -262 100q-105 102 -105 266q0 327 379 506q-80 127 -80 244q0 164 99 257t270 93q132 0 208.5 -75t76.5 -195q0 -81 -45 -149.5t-119.5 -122t-192.5 -109.5l220 -373q56 80 147 250l96 -144q-84 -153 -157 -251l165 -281h-192l-88 152
q-180 -168 -420 -168zM461 139q166 0 307 150l-254 438q-278 -143 -278 -354q0 -114 61 -174t164 -60zM717 1303q-81 0 -135 -52t-54 -143t56 -186q264 120 264 245q0 136 -131 136z" />
    <glyph glyph-name="quotesingle" unicode="'" horiz-adv-x="593" 
d="M393 975h-127l41 475h230z" />
    <glyph glyph-name="parenleft" unicode="(" horiz-adv-x="583" 
d="M516 1536h182q-413 -506 -413 -1139q0 -278 96 -499h-182q-97 223 -97 497q0 669 414 1141z" />
    <glyph glyph-name="parenright" unicode=")" horiz-adv-x="583" 
d="M49 -102h-182q412 508 412 1138q0 277 -97 500h183q96 -221 96 -498q0 -669 -412 -1140z" />
    <glyph glyph-name="asterisk" unicode="*" horiz-adv-x="1001" 
d="M549 1450h139l-55 -283l285 88l26 -131l-293 -90l121 -227l-129 -80l-121 227l-203 -227l-104 80l207 227l-248 88l68 133l252 -88z" />
    <glyph glyph-name="plus" unicode="+" 
d="M502 729l71 375h154l-72 -375h373l-31 -151h-372l-72 -375h-154l72 375h-373l31 151h373z" />
    <glyph glyph-name="comma" unicode="," horiz-adv-x="673" 
d="M121 -219h-129l209 444h239z" />
    <glyph glyph-name="hyphen" unicode="-" horiz-adv-x="980" 
d="M807 573h-694l30 152h695z" />
    <glyph glyph-name="period" unicode="." horiz-adv-x="563" 
d="M51 121q0 54 37 91.5t92 37.5q54 0 91.5 -37.5t37.5 -91.5q0 -55 -37.5 -92t-91.5 -37q-56 0 -92.5 37t-36.5 92z" />
    <glyph glyph-name="slash" unicode="/" horiz-adv-x="1013" 
d="M-195 -102l1207 1638h182l-1206 -1638h-183z" />
    <glyph glyph-name="zero" unicode="0" horiz-adv-x="1191" 
d="M729 1450q187 0 289 -132.5t102 -381.5q0 -459 -215 -733q-174 -219 -442 -219q-186 0 -288.5 132.5t-102.5 381.5q0 459 215 733q174 219 442 219zM705 1286q-115 0 -208.5 -77.5t-144.5 -204.5q-98 -244 -98 -484q0 -193 57.5 -283t175.5 -90q97 -1 176.5 52.5t130 137
t84.5 188.5t47.5 203t12.5 185q0 193 -57.5 283t-175.5 90z" />
    <glyph glyph-name="one" unicode="1" horiz-adv-x="768" 
d="M184 1212l408 222h65l-280 -1434h-170l229 1176l-289 -152z" />
    <glyph glyph-name="two" unicode="2" horiz-adv-x="1110" 
d="M836 0h-850l14 80l659 700q54 57 89 97q35 42 61.5 99.5t26.5 110.5q0 199 -185 199q-91 0 -162 -67t-104 -179l-174 33q46 173 163.5 275t291.5 102q158 0 255 -89.5t97 -227.5q0 -118 -42.5 -206t-144.5 -196l-532 -567h567z" />
    <glyph glyph-name="three" unicode="3" horiz-adv-x="1110" 
d="M20 377v16l173 23v-13q0 -114 68 -185t185 -71q297 0 297 355q0 122 -62 187t-173 65q-72 0 -133 -27l-53 96l387 447h-498l31 164h780l-10 -56l-455 -493q21 6 53 6q150 0 233 -100.5t83 -284.5q0 -234 -133 -379q-131 -143 -367 -143q-180 0 -293 116t-113 277z" />
    <glyph glyph-name="four" unicode="4" horiz-adv-x="1138" 
d="M743 0h-182l60 305h-601l15 72l790 1057h199l-188 -965h170l-33 -164h-170zM780 1135l-493 -666h366z" />
    <glyph glyph-name="five" unicode="5" horiz-adv-x="1110" 
d="M43 354v23l168 31v-17q0 -111 58.5 -177.5t162.5 -66.5q148 0 240 105q94 107 94 276q0 258 -219 258q-79 0 -166.5 -42.5t-153.5 -116.5l-108 24l215 783h702l-30 -164h-547l-123 -416q110 96 254 96q169 0 263.5 -100.5t94.5 -294.5q0 -259 -145 -416
q-143 -155 -393 -155q-155 0 -263 102q-104 104 -104 268z" />
    <glyph glyph-name="six" unicode="6" horiz-adv-x="1134" 
d="M614 918q165 0 262 -100.5t97 -285.5q0 -237 -150 -393q-149 -155 -385 -155q-171 0 -269.5 103.5t-98.5 277.5q0 193 135 372l545 713h208l-417 -547q34 15 73 15zM569 756q-140 0 -229 -109q-88 -107 -88 -256q0 -244 211 -244q141 0 233 105q95 109 95 256
q0 121 -58.5 184.5t-163.5 63.5z" />
    <glyph glyph-name="seven" unicode="7" horiz-adv-x="1017" 
d="M1063 1358l-815 -1358h-197l770 1270h-655l33 164h880z" />
    <glyph glyph-name="eight" unicode="8" horiz-adv-x="1126" 
d="M705 1450q156 0 244.5 -89.5t88.5 -240.5q0 -120 -64.5 -212t-176.5 -140q71 -37 115 -114t44 -181q0 -221 -129 -350q-139 -139 -397 -139q-162 0 -270 102q-109 103 -109 264q0 141 75 251t216 171q-113 82 -113 248q0 194 148 321q133 109 328 109zM555 676
q-132 0 -227 -86q-95 -83 -95 -211q0 -106 61 -169t165 -63q138 0 226.5 84.5t88.5 219.5q0 105 -57 165t-162 60zM674 1294q-115 0 -193 -75q-78 -78 -78 -189q0 -88 49 -139t134 -51q111 0 194 71q84 72 84 185q0 95 -48.5 146.5t-141.5 51.5z" />
    <glyph glyph-name="nine" unicode="9" horiz-adv-x="1134" 
d="M524 516q-165 0 -261.5 100t-96.5 285q0 238 149 393q150 156 385 156q172 0 270.5 -104t98.5 -277q0 -195 -135 -373l-545 -712h-209l418 546q-32 -14 -74 -14zM569 678q141 0 230 108q88 107 88 256q0 244 -211 244q-143 0 -236 -106q-92 -106 -92 -254
q0 -121 58.5 -184.5t162.5 -63.5z" />
    <glyph glyph-name="colon" unicode=":" horiz-adv-x="608" 
d="M82 121q0 54 37 91.5t92 37.5q54 0 91.5 -37.5t37.5 -91.5q0 -55 -37.5 -92t-91.5 -37q-55 0 -92 37t-37 92zM217 825q0 54 37 91.5t92 37.5q54 0 91.5 -37.5t37.5 -91.5q0 -55 -37.5 -92t-91.5 -37q-56 0 -92.5 37t-36.5 92z" />
    <glyph glyph-name="semicolon" unicode=";" horiz-adv-x="608" 
d="M59 -219h-129l209 444h240zM217 825q0 54 37 91.5t92 37.5q54 0 91.5 -37.5t37.5 -91.5q0 -55 -37.5 -92t-91.5 -37q-56 0 -92.5 37t-36.5 92z" />
    <glyph glyph-name="less" unicode="&#x3c;" horiz-adv-x="935" 
d="M793 164l-715 381v180l715 381v-178l-547 -293l547 -293v-178z" />
    <glyph glyph-name="equal" unicode="=" horiz-adv-x="1189" 
d="M985 729h-817v152h817v-152zM985 389h-817v152h817v-152z" />
    <glyph glyph-name="greater" unicode="&#x3e;" horiz-adv-x="935" 
d="M143 1106l715 -381v-180l-715 -381v178l547 293l-547 293v178z" />
    <glyph glyph-name="question" unicode="?" horiz-adv-x="911" 
d="M565 688l133 -59q-63 -122 -128.5 -169.5t-168.5 -47.5q-110 0 -177.5 65t-67.5 168q0 102 55.5 166.5t173.5 116.5l201 88q125 58 125 158q0 62 -42.5 97.5t-109.5 35.5q-155 0 -237 -199l-158 43q48 138 157.5 218.5t258.5 80.5q139 0 220 -71.5t81 -194.5
q0 -99 -49 -163.5t-152 -113.5l-244 -116q-66 -33 -95.5 -64.5t-29.5 -79.5q0 -42 26.5 -67t65.5 -25q51 0 86 30.5t76 102.5zM186 129q0 60 39.5 99.5t96.5 39.5q60 0 99.5 -39.5t39.5 -99.5q0 -57 -39.5 -96t-99.5 -39q-57 0 -96.5 39t-39.5 96z" />
    <glyph glyph-name="at" unicode="@" horiz-adv-x="1855" 
d="M1204 940l35 102h133l-110 -516l-13 -67q0 -90 86 -90q60 1 106 38t73 98t40 135.5t11 156.5q0 257 -138.5 391.5t-402.5 134.5q-323 0 -524 -213t-201 -561q0 -277 166 -436q169 -158 424 -158q267 0 536 133l43 -143q-190 -83 -303 -107q-130 -31 -293 -31
q-330 0 -540 201q-209 200 -209 529q0 429 254 680q253 253 674 253q304 0 493 -174q191 -173 191 -481q0 -164 -37 -291q-38 -133 -137 -218t-236 -85q-78 0 -137 39t-80 100q-109 -139 -299 -139q-150 0 -235 95t-85 251q0 217 127 353q125 137 351 137q81 0 144.5 -31.5
t92.5 -85.5zM952 909q-127 0 -211 -96q-82 -94 -82 -233q0 -96 48 -153.5t137 -57.5q125 0 207 98q82 101 82 229q0 213 -181 213z" />
    <glyph glyph-name="A" unicode="A" horiz-adv-x="1175" 
d="M-117 0l762 1434h174l217 -1434h-182l-51 383h-535l-202 -383h-183zM778 555l-92 645l-328 -645h420z" />
    <glyph glyph-name="B" unicode="B" horiz-adv-x="1247" 
d="M72 0l280 1434h455q171 0 262.5 -83t91.5 -237q0 -116 -61 -203t-166 -131q82 -37 132 -112t50 -179q0 -237 -149 -362q-151 -127 -389 -127h-506zM684 678h-297l-98 -506h297q157 0 249.5 73t92.5 210q0 108 -63.5 165.5t-180.5 57.5zM782 1262h-282l-80 -412h287
q118 0 195 60t77 171q0 181 -197 181z" />
    <glyph glyph-name="C" unicode="C" horiz-adv-x="1355" 
d="M1059 469l160 -51q-200 -434 -619 -434q-234 0 -377 149t-143 424q0 231 92 432t277 330q183 131 425 131q201 0 328 -127q125 -125 137 -307l-174 -47q-49 309 -323 309q-182 0 -316 -107q-130 -101 -194 -254.5t-64 -338.5q0 -204 91 -313t264 -109q142 0 245.5 74
t190.5 239z" />
    <glyph glyph-name="D" unicode="D" horiz-adv-x="1370" 
d="M72 0l280 1434h369q262 0 413.5 -149t151.5 -423q0 -367 -229 -614q-227 -248 -588 -248h-397zM682 1262h-182l-211 -1090h182q282 0 451 190q170 194 170 482q0 207 -105 312.5t-305 105.5z" />
    <glyph glyph-name="E" unicode="E" horiz-adv-x="1153" 
d="M72 0l280 1434h811l-35 -172h-628l-80 -412h512l-33 -172h-512l-98 -506h649l-35 -172h-831z" />
    <glyph glyph-name="F" unicode="F" horiz-adv-x="1128" 
d="M72 0l280 1434h817l-34 -172h-635l-82 -428h512l-35 -172h-512l-129 -662h-182z" />
    <glyph glyph-name="G" unicode="G" horiz-adv-x="1429" 
d="M1079 551h-295l33 172h483l-141 -723h-155l18 197q-87 -113 -188.5 -163t-247.5 -50q-213 0 -359 149q-147 150 -147 434q0 229 90 432q90 197 276 324t426 127q205 0 332 -121q130 -121 139 -311l-180 -47q-40 307 -323 307q-253 0 -412 -203q-160 -204 -160 -481
q0 -213 91 -325.5t262 -112.5q166 0 286.5 105t171.5 290z" />
    <glyph glyph-name="H" unicode="H" horiz-adv-x="1423" 
d="M1055 848l114 586h183l-281 -1434h-182l133 676h-635l-133 -676h-182l280 1434h183l-115 -586h635z" />
    <glyph glyph-name="I" unicode="I" horiz-adv-x="606" 
d="M72 0l280 1434h183l-281 -1434h-182z" />
    <glyph glyph-name="J" unicode="J" horiz-adv-x="1107" 
d="M674 449l190 985h183l-205 -1055q-36 -192 -158.5 -293.5t-308.5 -101.5q-164 0 -264 112q-101 113 -101 262l183 39q0 -241 202 -241q220 0 279 293z" />
    <glyph glyph-name="K" unicode="K" horiz-adv-x="1222" 
d="M580 782l458 -782h-221l-422 723l-141 -723h-182l280 1434h183l-113 -576l610 576h246z" />
    <glyph glyph-name="L" unicode="L" horiz-adv-x="1036" 
d="M72 0l280 1434h183l-246 -1262h631l-35 -172h-813z" />
    <glyph glyph-name="M" unicode="M" horiz-adv-x="1617" 
d="M72 0l280 1434h213l189 -1010l571 1010h221l-280 -1434h-183l205 1044l-520 -913h-135l-174 913l-205 -1044h-182z" />
    <glyph glyph-name="N" unicode="N" horiz-adv-x="1445" 
d="M973 313l219 1121h182l-280 -1434h-203l-420 1116l-217 -1116h-182l280 1434h203z" />
    <glyph glyph-name="O" unicode="O" horiz-adv-x="1460" 
d="M870 1450q227 0 365 -156q141 -153 141 -424q0 -449 -309 -712q-201 -174 -481 -174q-226 0 -367 153q-139 157 -139 426q0 450 309 713q201 174 481 174zM840 1278q-216 0 -371 -168q-201 -213 -201 -530q0 -205 89 -314.5t259 -109.5q216 0 371 168q201 213 201 530
q0 205 -89 314.5t-259 109.5z" />
    <glyph glyph-name="P" unicode="P" horiz-adv-x="1196" 
d="M666 614h-291l-121 -614h-182l280 1434h459q174 0 278.5 -92.5t104.5 -247.5q0 -231 -140.5 -355.5t-387.5 -124.5zM408 786h313q129 0 206 73t77 202q0 96 -52 148.5t-153 52.5h-299z" />
    <glyph glyph-name="Q" unicode="Q" horiz-adv-x="1460" 
d="M870 1450q227 0 365 -156q141 -153 141 -424q0 -381 -229 -634l106 -132l-145 -120l-102 125q-177 -125 -420 -125q-226 0 -367 153q-139 157 -139 426q0 450 309 713q201 174 481 174zM840 1278q-216 0 -371 -168q-201 -213 -201 -530q0 -205 89 -314.5t259 -109.5
q156 0 281 88l-133 166l147 120l121 -151q156 206 156 475q0 205 -89 314.5t-259 109.5z" />
    <glyph glyph-name="R" unicode="R" horiz-adv-x="1220" 
d="M1085 0h-202l-285 676h-211l-133 -676h-182l280 1434h455q170 0 267 -86t97 -236q0 -178 -100 -289.5t-278 -134.5zM778 1262h-278l-80 -414h285q133 0 205.5 58.5t72.5 172.5q0 183 -205 183z" />
    <glyph glyph-name="S" unicode="S" horiz-adv-x="1071" 
d="M997 1196l-155 -86q-61 168 -197 168q-93 0 -146 -53t-53 -146q0 -58 24.5 -101t70.5 -76.5t133 -78.5q72 -37 113.5 -66t82.5 -71q76 -79 76 -229q0 -217 -135 -340q-80 -74 -167 -103.5t-212 -29.5q-153 0 -270 114q-117 117 -117 279l164 88q11 -142 77.5 -225.5
t184.5 -83.5q127 0 207 71t80 197q0 94 -48 148t-171 114q-281 139 -281 367q0 186 115.5 291.5t304.5 105.5q119 0 205.5 -72.5t113.5 -181.5z" />
    <glyph glyph-name="T" unicode="T" horiz-adv-x="1038" 
d="M528 1262h-403l35 172h989l-35 -172h-403l-246 -1262h-182z" />
    <glyph glyph-name="U" unicode="U" horiz-adv-x="1376" 
d="M156 487l182 947h182l-186 -959q-8 -47 -8 -82q0 -237 249 -237q155 0 253.5 83t127.5 236l187 959h182l-182 -947q-94 -503 -590 -503q-185 0 -297 100q-113 101 -113 266q0 67 13 137z" />
    <glyph glyph-name="V" unicode="V" horiz-adv-x="1142" 
d="M463 256l614 1178h195l-766 -1434h-182l-199 1434h190z" />
    <glyph glyph-name="W" unicode="W" horiz-adv-x="1814" 
d="M1182 266l510 1168h192l-653 -1434h-182l-113 983l-463 -983h-182l-107 1434h191l57 -1168l477 1016h170z" />
    <glyph glyph-name="X" unicode="X" horiz-adv-x="1087" 
d="M485 786l-241 648h192l176 -480l363 480h201l-498 -658l291 -776h-189l-229 608l-455 -608h-207z" />
    <glyph glyph-name="Y" unicode="Y" horiz-adv-x="991" 
d="M252 0l121 618l-258 816h192l187 -635l430 635h202l-571 -816l-121 -618h-182z" />
    <glyph glyph-name="Z" unicode="Z" horiz-adv-x="1126" 
d="M842 1262h-635l35 172h891l-19 -86l-868 -1176h678l-35 -172h-932l16 86z" />
    <glyph glyph-name="bracketleft" unicode="[" horiz-adv-x="657" 
d="M430 -102h-385l315 1638h388l-31 -156h-221l-256 -1327h221z" />
    <glyph glyph-name="backslash" unicode="\" horiz-adv-x="1013" 
d="M717 -102l-576 1638h172l576 -1638h-172z" />
    <glyph glyph-name="bracketright" unicode="]" horiz-adv-x="657" 
d="M197 1380l30 156h387l-317 -1638h-385l29 155h221l256 1327h-221z" />
    <glyph glyph-name="asciicircum" unicode="^" horiz-adv-x="1163" 
d="M143 862l381 572h140l380 -572h-170l-280 416l-281 -416h-170z" />
    <glyph glyph-name="underscore" unicode="_" horiz-adv-x="927" 
d="M727 -152h-817l31 152h817z" />
    <glyph glyph-name="grave" unicode="`" horiz-adv-x="421" 
d="M113 1442h247l99 -295h-140z" />
    <glyph glyph-name="a" unicode="a" horiz-adv-x="1200" 
d="M1085 1032l-198 -1032h-174l24 127q-128 -143 -305 -143q-182 0 -279.5 114t-97.5 305q0 268 148 457t411 189q95 0 174.5 -43t100.5 -97l22 123h174zM481 139q117 0 201 78q156 144 156 406q0 126 -62 198t-176 72q-174 0 -268 -135q-94 -134 -94 -307q0 -144 64.5 -228
t178.5 -84z" />
    <glyph glyph-name="b" unicode="b" horiz-adv-x="1220" 
d="M1087 614q0 -268 -143 -448q-144 -182 -412 -182q-83 0 -165 43q-83 48 -105 100l-26 -127h-175l283 1450h174l-104 -541q52 60 135.5 100t171.5 40q171 0 268.5 -112t97.5 -323zM547 139q167 0 262 135q96 137 96 316q0 303 -231 303q-153 0 -258 -141t-105 -320
q0 -139 64 -216t172 -77z" />
    <glyph glyph-name="c" unicode="c" horiz-adv-x="1105" 
d="M778 348l146 -76q-108 -163 -215 -227q-107 -61 -271 -61q-175 0 -278 118q-105 120 -105 314q0 247 158 440q159 193 430 193q300 0 371 -287l-156 -60q-53 191 -246 191q-166 0 -270 -137q-104 -134 -104 -322q0 -136 62.5 -215.5t168.5 -79.5q98 0 170 49.5t139 159.5
z" />
    <glyph glyph-name="d" unicode="d" horiz-adv-x="1253" 
d="M618 1049q95 0 172 -38.5t113 -101.5l105 541h174l-283 -1450h-174l27 127q-131 -143 -324 -143q-177 0 -275 106t-98 291q0 273 154 471q153 197 409 197zM238 426q0 -133 61.5 -210t175.5 -77q120 0 209 80q86 78 127 184t41 224q0 128 -66.5 197t-181.5 69
q-117 0 -205 -76q-161 -140 -161 -391z" />
    <glyph glyph-name="e" unicode="e" horiz-adv-x="1150" 
d="M1020 559l-16 -80h-764q-7 -47 -7 -73q0 -125 62.5 -196t177.5 -71q106 0 180 48.5t142 154.5l147 -72q-103 -152 -219.5 -219t-280.5 -67q-178 0 -284 118q-107 119 -107 316q0 243 172 436q174 195 426 195q176 0 278.5 -104.5t102.5 -282.5q0 -38 -10 -103zM618 893
q-111 0 -202.5 -70.5t-136.5 -187.5h569q0 258 -230 258z" />
    <glyph glyph-name="f" unicode="f" horiz-adv-x="694" 
d="M231 877h-147l31 155h147l12 68q32 183 124.5 266.5t258.5 83.5q73 0 148 -37l-64 -147q-54 28 -108 28q-76 0 -118 -41.5t-62 -138.5l-17 -82h230l-31 -155h-229l-170 -877h-175z" />
    <glyph glyph-name="g" unicode="g" horiz-adv-x="1044" 
d="M172 637q0 180 115 295q117 117 305 117q101 0 186 -48l193 99l61 -135l-153 -78q22 -55 22 -131q0 -172 -121 -287q-119 -113 -301 -113q-89 0 -166 41q-96 -38 -96 -112q0 -33 25 -55.5t67 -22.5h236q289 0 289 -248q0 -191 -150 -293q-144 -100 -362 -100
q-161 0 -265 82q-104 79 -104 213q0 152 135 260q-43 46 -43 129q0 143 172 231q-45 65 -45 156zM494 59h-199q-20 0 -74 4q-94 -49 -94 -165q0 -84 56.5 -134.5t168.5 -50.5q123 0 209 51q90 53 90 164q0 131 -157 131zM571 901q-98 0 -162.5 -65.5t-64.5 -167.5
q0 -78 42.5 -121t115.5 -43q98 0 162.5 63t64.5 164q0 83 -42 126.5t-116 43.5z" />
    <glyph glyph-name="h" unicode="h" horiz-adv-x="1196" 
d="M1028 717l-139 -717h-174l131 682q6 38 6 74q0 137 -141 137q-115 0 -236 -127q-115 -124 -156 -328l-83 -438h-175l281 1450h174l-119 -610q150 209 389 209q117 0 184.5 -60.5t67.5 -169.5q0 -37 -10 -102z" />
    <glyph glyph-name="i" unicode="i" horiz-adv-x="565" 
d="M61 0l201 1032h174l-200 -1032h-175zM270 1319q0 56 37 93.5t92 37.5t92 -37.5t37 -93.5q0 -54 -37 -90.5t-92 -36.5t-92 36.5t-37 90.5z" />
    <glyph glyph-name="j" unicode="j" horiz-adv-x="565" 
d="M-164 -434l-16 168q110 28 163 76t72 153l207 1069h174l-211 -1085q-35 -179 -125.5 -267t-263.5 -114zM270 1319q0 56 37 93.5t92 37.5t92 -37.5t37 -93.5q0 -54 -37 -90.5t-92 -36.5t-92 36.5t-37 90.5z" />
    <glyph glyph-name="k" unicode="k" horiz-adv-x="1040" 
d="M61 0l281 1450h174l-164 -850l443 432h235l-510 -483l350 -549h-211l-323 518l-100 -518h-175z" />
    <glyph glyph-name="l" unicode="l" horiz-adv-x="626" 
d="M100 0l281 1450h174l-281 -1450h-174z" />
    <glyph glyph-name="m" unicode="m" horiz-adv-x="1753" 
d="M1585 727l-141 -727h-174l133 690q8 44 8 78q0 125 -131 125q-105 0 -211 -127q-103 -123 -147 -342l-82 -424h-174l133 690q6 38 6 78q0 125 -129 125q-105 0 -211 -127q-104 -125 -148 -342l-81 -424h-175l201 1032h174l-37 -190q145 207 351 207q105 0 168 -57.5
t69 -157.5q156 215 367 215q239 0 239 -232q0 -51 -8 -90z" />
    <glyph glyph-name="n" unicode="n" 
d="M1016 727l-142 -727h-174l131 682q9 50 9 72q0 139 -138 139q-110 0 -227 -129q-115 -127 -156 -332l-83 -432h-175l201 1032h174l-37 -190q157 207 373 207q118 0 184 -60t66 -166q0 -49 -6 -96z" />
    <glyph glyph-name="o" unicode="o" horiz-adv-x="1173" 
d="M55 418q0 253 142 430q165 201 436 201q191 0 299 -115.5t108 -319.5q0 -255 -141 -430q-164 -200 -436 -200q-191 0 -299.5 115t-108.5 319zM616 893q-171 0 -286 -145q-92 -118 -92 -306q0 -144 62 -223.5t179 -79.5q171 0 287 146q92 118 92 305q0 144 -62.5 223.5
t-179.5 79.5z" />
    <glyph glyph-name="p" unicode="p" horiz-adv-x="1239" 
d="M543 -16q-193 0 -285 139l-104 -541h-174l282 1450h174l-26 -127q57 66 143.5 105t179.5 39q176 0 274.5 -106t98.5 -292q0 -273 -154 -471q-153 -196 -409 -196zM924 606q0 133 -62 210t-176 77q-121 0 -209 -82q-86 -76 -127 -181.5t-41 -223.5q0 -129 63.5 -198
t184.5 -69q118 0 203 76q84 72 124 174t40 217z" />
    <glyph glyph-name="q" unicode="q" horiz-adv-x="1183" 
d="M55 418q0 266 144 448q145 183 411 183q87 0 164 -45q83 -44 107 -99l26 127h174l-282 -1450h-174l104 541q-52 -60 -135 -99.5t-172 -39.5q-171 0 -269 111.5t-98 322.5zM596 893q-170 0 -264 -135q-94 -134 -94 -316q0 -303 231 -303q152 0 258 142q104 140 104 319
q0 139 -63.5 216t-171.5 77z" />
    <glyph glyph-name="r" unicode="r" horiz-adv-x="894" 
d="M877 1018l-64 -154q-56 29 -108 29q-115 0 -226 -105q-107 -104 -153 -331l-90 -457h-175l201 1032h174l-35 -176q123 193 334 193q91 0 142 -31z" />
    <glyph glyph-name="s" unicode="s" horiz-adv-x="942" 
d="M530 1049q97 0 176.5 -46t120.5 -126l-135 -101q-76 117 -182 117q-61 0 -100 -35t-39 -94q0 -51 34.5 -86t106.5 -68q62 -27 96 -46t74 -52q88 -64 88 -188q0 -156 -103 -248t-270 -92q-150 0 -250 86q-99 89 -114 206l151 74q43 -211 234 -211q77 0 123.5 42t46.5 110
q0 77 -53 117q-10 8 -20 14t-16.5 10.5t-20 11t-19.5 9t-27.5 12t-32.5 14.5q-202 88 -202 275q0 136 90 215.5t243 79.5z" />
    <glyph glyph-name="t" unicode="t" horiz-adv-x="716" 
d="M238 877h-179l29 155h178l62 309l192 109l-82 -418h260l-28 -155h-260l-107 -549q-10 -58 -10 -74q0 -115 110 -115q67 0 123 33l13 -149q-74 -39 -177 -39q-117 0 -180 61t-63 178q0 39 14 119z" />
    <glyph glyph-name="u" unicode="u" 
d="M113 305l141 727h174l-131 -682q-8 -44 -8 -71q0 -140 137 -140q110 0 227 129q115 127 156 332l84 432h174l-201 -1032h-174l37 190q-156 -206 -373 -206q-118 0 -184 59.5t-66 165.5q0 42 7 96z" />
    <glyph glyph-name="v" unicode="v" horiz-adv-x="899" 
d="M328 219l409 813h183l-535 -1032h-182l-146 1032h174z" />
    <glyph glyph-name="w" unicode="w" horiz-adv-x="1480" 
d="M922 231l360 801h182l-501 -1032h-168l-45 780l-351 -780h-168l-118 1032h176l63 -801l355 801h176z" />
    <glyph glyph-name="x" unicode="x" horiz-adv-x="946" 
d="M367 563l-201 469h188l138 -327l258 327h200l-393 -487l219 -545h-182l-156 389l-305 -389h-207z" />
    <glyph glyph-name="y" unicode="y" horiz-adv-x="954" 
d="M385 287l397 745h183l-789 -1450h-182l256 484l-166 966h182z" />
    <glyph glyph-name="z" unicode="z" horiz-adv-x="958" 
d="M633 877h-465l29 155h710l-14 -74l-635 -802h508l-29 -156h-747l14 74z" />
    <glyph glyph-name="braceleft" unicode="{" horiz-adv-x="645" 
d="M127 102l74 373q8 44 8 64q0 55 -32.5 77.5t-108.5 22.5l30 156q92 0 134 35.5t61 127.5l74 373q19 95 83 150t162 55h99l-31 -156h-47q-94 0 -109 -92l-71 -370q-18 -92 -62 -136.5t-121 -64.5q109 -27 109 -135q0 -28 -6 -66l-72 -371q-1 -6 -2 -13.5t-1.5 -11
t-0.5 -5.5q0 -33 18 -47.5t62 -14.5h47l-31 -155h-98q-84 0 -128 41.5t-44 117.5q0 4 0.5 9.5t1.5 16t2 19.5z" />
    <glyph glyph-name="bar" unicode="|" horiz-adv-x="501" 
d="M205 -102v1638h164v-1638h-164z" />
    <glyph glyph-name="braceright" unicode="}" horiz-adv-x="645" 
d="M348 475l-74 -373q-19 -97 -82 -150.5t-161 -53.5h-97l29 155h47q94 0 109 92l71 371q18 92 62 136.5t123 64.5q-111 27 -111 133q0 30 6 68l72 370q1 6 2 13.5t1.5 11.5t0.5 6q0 32 -18.5 46.5t-61.5 14.5h-47l31 156h98q170 0 170 -158q0 -19 -4 -47l-74 -373
q-8 -44 -8 -63q0 -55 32.5 -77.5t108.5 -22.5l-30 -156q-92 0 -135 -36t-60 -128z" />
    <glyph glyph-name="asciitilde" unicode="~" horiz-adv-x="1284" 
d="M205 549l-82 110q129 175 305 175q90 0 197 -52q105 -51 178 -51q112 0 207 92l82 -112q-126 -172 -306 -172q-91 0 -196 51t-178 51q-112 0 -207 -92z" />
    <glyph glyph-name="nbspace" unicode="&#xa0;" horiz-adv-x="475" 
 />
    <glyph glyph-name="exclamdown" unicode="&#xa1;" horiz-adv-x="710" 
d="M403 602l-149 -1024h-234l248 1024h135zM530 879q0 -62 -41 -104t-102 -42t-102 42t-41 104q0 60 40.5 99.5t102.5 39.5t102.5 -39.5t40.5 -99.5z" />
    <glyph glyph-name="cent" unicode="&#xa2;" horiz-adv-x="1132" 
d="M846 549l145 -76q-93 -145 -187 -210t-224 -77l-56 -288h-166l58 295q-137 29 -216 142.5t-79 280.5q0 224 133 410q134 183 364 217l58 293h166l-56 -293q230 -27 295 -280l-155 -60q-53 191 -246 191q-164 0 -272 -138q-105 -135 -105 -321q0 -136 64 -215.5t170 -79.5
q98 0 170 49.5t139 159.5z" />
    <glyph glyph-name="sterling" unicode="&#xa3;" horiz-adv-x="1150" 
d="M291 664h-164l33 163h108q-8 55 -8 138q0 225 131 355t357 130q128 0 223 -80q98 -83 119 -203l-160 -63q-29 97 -78 139.5t-135 42.5q-136 0 -211.5 -93.5t-75.5 -258.5q0 -70 6 -107h346l-32 -163h-293v-41q0 -151 -58 -242q-56 -89 -176 -197q79 43 180 43
q58 0 129 -41q68 -39 107 -39q59 0 98 33q47 40 113 123l117 -106q-85 -115 -166.5 -164t-182.5 -49q-81 0 -161 41q-77 41 -138 41q-122 0 -247 -82l-90 127q73 62 117 105.5t91 102.5q103 127 103 289q0 44 -2 56z" />
    <glyph glyph-name="currency" unicode="&#xa4;" horiz-adv-x="1165" 
d="M217 864l-180 137l141 142l137 -178q104 78 235.5 78t235.5 -78l138 178l141 -142l-180 -137q72 -104 72 -235.5t-72 -235.5l180 -137l-141 -141l-138 178q-104 -78 -235.5 -78t-235.5 78l-137 -178l-141 141l180 137q-72 104 -72 235.5t72 235.5zM377 815
q-66 -72 -66 -186q0 -115 66 -187q65 -71 174 -71t174 71q66 72 66 187q0 114 -66 186t-174 72t-174 -72z" />
    <glyph glyph-name="yen" unicode="&#xa5;" horiz-adv-x="1148" 
d="M455 793l-199 641h197l168 -619l415 619h205l-446 -641h237l-33 -164h-319l-31 -164h320l-33 -164h-320l-59 -301h-182l59 301h-319l32 164h320l31 164h-320l33 164h244z" />
    <glyph glyph-name="brokenbar" unicode="&#xa6;" horiz-adv-x="501" 
d="M205 -102v714h164v-714h-164zM369 1536v-715h-164v715h164z" />
    <glyph glyph-name="section" unicode="&#xa7;" horiz-adv-x="1163" 
d="M129 532q0 211 233 316q-67 91 -67 194q0 180 119 293q121 115 313 115q137 0 227 -82.5t97 -220.5l-164 -47q-18 186 -193 186q-95 0 -156 -57t-61 -152q0 -68 27.5 -120.5t62.5 -75.5q31 -22 113 -62q66 -32 121 -65q89 -52 131.5 -114.5t42.5 -156.5q0 -207 -238 -315
q68 -92 68 -195q0 -179 -119 -292q-121 -115 -313 -115q-137 0 -227 82.5t-97 220.5l164 47q18 -186 193 -186q95 0 156 57t61 152q0 68 -27.5 120.5t-63.5 75.5q-34 23 -112 62q-66 32 -121 65q-87 53 -128.5 114.5t-41.5 155.5zM467 752q-174 -64 -174 -195q0 -93 78 -147
q56 -38 75 -48q17 -9 57 -28.5t74 -37t56 -32.5q174 64 174 195q0 93 -78 147q-44 30 -78 47q-6 3 -80.5 41t-103.5 58z" />
    <glyph glyph-name="dieresis" unicode="&#xa8;" horiz-adv-x="618" 
d="M233 1450q51 0 84 -33.5t33 -83.5t-33 -82t-84 -32q-48 0 -81 32.5t-33 81.5t33.5 83t80.5 34zM573 1450q51 0 84 -33.5t33 -83.5t-33 -82t-84 -32q-48 0 -81 32.5t-33 81.5t33.5 83t80.5 34z" />
    <glyph glyph-name="copyright" unicode="&#xa9;" horiz-adv-x="1843" 
d="M365 145q-222 233 -222 572t222 569q224 230 557 230q335 0 555 -230q223 -226 223 -569t-223 -572q-220 -227 -555 -227q-333 0 -557 227zM477 1176q-170 -185 -170 -459t170 -459q169 -184 445 -184q275 0 444 184q170 185 170 459t-170 459q-169 184 -444 184
q-276 0 -445 -184zM1133 578l143 -35q-25 -123 -122 -196t-232 -73q-162 0 -281 113q-121 115 -121 330q0 212 121 327t281 115q135 0 232.5 -72.5t121.5 -195.5l-143 -35q-53 160 -211 160q-113 0 -179.5 -75.5t-66.5 -223.5t66.5 -223.5t179.5 -75.5q158 0 211 160z" />
    <glyph glyph-name="ordfeminine" unicode="&#xaa;" horiz-adv-x="860" 
d="M764 1149v-535h-115l-22 111q-88 -119 -252 -119q-119 0 -187.5 61.5t-68.5 180.5q0 131 104 198.5t293 67.5h102v37q0 164 -172 164q-131 0 -165 -125l-134 33q26 105 103.5 162t195.5 57q152 0 235 -72.5t83 -220.5zM268 848q0 -117 127 -117q92 0 157.5 60t65.5 167
v37h-83q-267 0 -267 -147z" />
    <glyph glyph-name="guillemotleft" unicode="&#xab;" horiz-adv-x="1261" 
d="M561 164l-489 407l26 127l647 418l-43 -219l-454 -276l348 -277zM1032 164l-489 407l26 127l648 418l-43 -219l-455 -276l348 -277z" />
    <glyph glyph-name="logicalnot" unicode="&#xac;" horiz-adv-x="1110" 
d="M801 641h-715v156h887v-506h-172v350z" />
    <glyph glyph-name="uni00AD" unicode="&#xad;" horiz-adv-x="980" 
d="M807 573h-694l30 152h695z" />
    <glyph glyph-name="registered" unicode="&#xae;" horiz-adv-x="1843" 
d="M365 145q-222 233 -222 572t222 569q224 230 557 230q335 0 555 -230q223 -226 223 -569t-223 -572q-220 -227 -555 -227q-333 0 -557 227zM477 1176q-170 -185 -170 -459t170 -459q169 -184 445 -184q275 0 444 184q170 185 170 459t-170 459q-169 184 -444 184
q-276 0 -445 -184zM1286 281h-168l-258 372h-78v-372h-147v872h313q129 0 200 -66.5t71 -183.5q0 -93 -53.5 -158.5t-139.5 -82.5zM946 1010h-164v-213h164q125 0 125 106q0 107 -125 107z" />
    <glyph glyph-name="overscore" unicode="&#xaf;" horiz-adv-x="585" 
d="M647 1294h-510l31 156h510z" />
    <glyph glyph-name="degree" unicode="&#xb0;" horiz-adv-x="718" 
d="M268 1051q-63 63 -63 163q0 99 63 162q66 66 166 66q98 0 164 -66t66 -162q0 -97 -66 -163q-64 -64 -164 -64q-102 0 -166 64zM362 1286q-26 -26 -26 -71t26 -74q26 -26 72 -26t72 26q26 29 26 74t-26 71q-26 29 -72 29t-72 -29z" />
    <glyph glyph-name="plusminus" unicode="&#xb1;" horiz-adv-x="1171" 
d="M510 893v375h152v-375h374v-152h-374v-374h-152v374h-375v152h375zM1036 0h-901v152h901v-152z" />
    <glyph glyph-name="twosuperior" unicode="&#xb2;" horiz-adv-x="915" 
d="M403 1178l-124 34q27 105 104 167.5t186 62.5q93 0 152 -51.5t59 -135.5q0 -83 -26 -141t-97 -129l-245 -248h299l-25 -123h-522l10 52l367 376q40 40 53 58q49 53 49 123q0 96 -92 96q-50 0 -89.5 -37.5t-58.5 -103.5z" />
    <glyph glyph-name="threesuperior" unicode="&#xb3;" horiz-adv-x="878" 
d="M197 850l135 18q0 -67 32.5 -103t88.5 -36q73 0 117 50t44 130q0 119 -110 119q-41 0 -80 -22l-47 84l203 221h-263l25 123h465l-10 -48l-242 -258q93 0 145 -54t52 -150q0 -141 -90.5 -229.5t-231.5 -88.5q-106 0 -169.5 67t-63.5 177z" />
    <glyph glyph-name="acute" unicode="&#xb4;" horiz-adv-x="430" 
d="M246 1147h-148l199 295h252z" />
    <glyph glyph-name="mu" unicode="&#xb5;" horiz-adv-x="1183" 
d="M326 6v-424h-172v1450h172v-682q0 -211 178 -211q121 0 207 127q88 125 88 334v432h172v-1032h-172v190q-117 -206 -342 -206q-70 0 -131 22z" />
    <glyph glyph-name="paragraph" unicode="&#xb6;" horiz-adv-x="1404" 
d="M164 983q0 213 137 332t342 119h719l-29 -156h-127l-329 -1696h-175l330 1696h-244l-329 -1696h-174l204 1061q-135 0 -231 96q-94 98 -94 244z" />
    <glyph glyph-name="middot" unicode="&#xb7;" horiz-adv-x="563" 
d="M164 715q0 54 37 91.5t92 37.5q54 0 91.5 -37.5t37.5 -91.5q0 -55 -37.5 -92t-91.5 -37q-55 0 -92 37t-37 92z" />
    <glyph glyph-name="cedilla" unicode="&#xb8;" horiz-adv-x="385" 
d="M135 -123h152l-228 -358l-182 92z" />
    <glyph glyph-name="onesuperior" unicode="&#xb9;" horiz-adv-x="679" 
d="M225 1309l281 125h51l-158 -820h-133l123 629l-192 -84z" />
    <glyph glyph-name="ordmasculine" unicode="&#xba;" horiz-adv-x="860" 
d="M864 1024q0 -176 -106 -297q-109 -121 -287 -121q-180 0 -289 121q-104 122 -104 297q0 177 106 295q108 123 287 123t287 -123q106 -121 106 -295zM289 1233q-62 -83 -62 -209t62 -209q64 -82 182 -82q119 0 180 82q62 83 62 209t-62 209q-63 84 -180 84
q-116 0 -182 -84z" />
    <glyph glyph-name="guillemotright" unicode="&#xbb;" horiz-adv-x="1261" 
d="M692 1116l490 -407l-27 -127l-647 -418l43 219l455 276l-349 277zM221 1116l490 -407l-27 -127l-647 -418l43 219l455 276l-349 277z" />
    <glyph glyph-name="onequarter" unicode="&#xbc;" horiz-adv-x="1847" 
d="M305 1309l281 125h51l-158 -820h-133l123 629l-193 -84zM164 31l1384 1470l94 -88l-1386 -1472zM1366 0h-131l31 158h-363l10 53l445 608h166l-105 -538h105l-23 -123h-104zM1356 629l-248 -348h180z" />
    <glyph glyph-name="onehalf" unicode="&#xbd;" horiz-adv-x="1880" 
d="M305 1309l281 125h51l-158 -820h-133l123 629l-193 -84zM1282 563l-125 35q26 105 104 167t187 62q93 0 152 -51t59 -135q0 -83 -26 -141t-97 -129l-246 -248h299l-24 -123h-523l11 51l366 377q46 46 54 57q49 53 49 123q0 97 -92 97q-50 0 -89.5 -38t-58.5 -104zM164 31
l1384 1470l94 -88l-1386 -1472z" />
    <glyph glyph-name="threequarters" unicode="&#xbe;" horiz-adv-x="1992" 
d="M309 31l1385 1470l94 -88l-1387 -1472zM197 850l135 18q0 -67 32.5 -103t88.5 -36q73 0 117 50t44 130q0 119 -110 119q-41 0 -80 -22l-47 84l203 221h-263l25 123h465l-10 -48l-242 -258q93 0 145 -54t52 -150q0 -141 -90.5 -229.5t-231.5 -88.5q-106 0 -169.5 67
t-63.5 177zM1505 0h-131l31 158h-363l11 53l444 608h166l-104 -538h104l-23 -123h-104zM1495 629l-248 -348h180z" />
    <glyph glyph-name="questiondown" unicode="&#xbf;" horiz-adv-x="911" 
d="M295 324l-133 59q63 122 128.5 169.5t168.5 47.5q110 0 178 -65t68 -168q0 -102 -56 -166.5t-174 -116.5l-201 -88q-124 -58 -124 -158q0 -62 42 -97.5t109 -35.5q156 0 238 199l157 -43q-48 -138 -157 -218.5t-258 -80.5q-139 0 -220 71.5t-81 194.5q0 99 48.5 163
t151.5 113l244 117q66 33 95.5 64.5t29.5 79.5q0 42 -26.5 67t-65.5 25q-51 0 -86 -30.5t-76 -102.5zM674 883q0 -60 -39 -100t-96 -40q-60 0 -100 40t-40 100q0 57 40 96t100 39q57 0 96 -39t39 -96z" />
    <glyph glyph-name="Agrave" unicode="&#xc0;" horiz-adv-x="1175" 
d="M-117 0l762 1434h174l217 -1434h-182l-51 383h-535l-202 -383h-183zM778 555l-92 645l-328 -645h420zM469 1843h248l98 -295h-139z" />
    <glyph glyph-name="Aacute" unicode="&#xc1;" horiz-adv-x="1175" 
d="M-117 0l762 1434h174l217 -1434h-182l-51 383h-535l-202 -383h-183zM778 555l-92 645l-328 -645h420zM760 1548h-148l199 295h252z" />
    <glyph glyph-name="Acircumflex" unicode="&#xc2;" horiz-adv-x="1175" 
d="M-117 0l762 1434h174l217 -1434h-182l-51 383h-535l-202 -383h-183zM778 555l-92 645l-328 -645h420zM604 1561h-201l367 335h64l253 -335h-182l-125 163z" />
    <glyph glyph-name="Atilde" unicode="&#xc3;" horiz-adv-x="1175" 
d="M-117 0l762 1434h174l217 -1434h-182l-51 383h-535l-202 -383h-183zM778 555l-92 645l-328 -645h420zM463 1599l-84 87q110 149 248 149q73 0 135 -41q65 -41 110 -41q78 0 150 72l84 -88q-112 -148 -248 -148q-72 0 -137 41q-62 41 -109 41q-77 0 -149 -72z" />
    <glyph glyph-name="Adieresis" unicode="&#xc4;" horiz-adv-x="1175" 
d="M-117 0l762 1434h174l217 -1434h-182l-51 383h-535l-202 -383h-183zM778 555l-92 645l-328 -645h420zM618 1851q51 0 84 -33t33 -83t-33 -82.5t-84 -32.5q-48 0 -81 33t-33 82t33 82.5t81 33.5zM958 1851q51 0 84 -33t33 -83t-33 -82.5t-84 -32.5q-48 0 -81 33t-33 82
t33 82.5t81 33.5z" />
    <glyph glyph-name="Aring" unicode="&#xc5;" horiz-adv-x="1175" 
d="M-117 0l762 1434h174l217 -1434h-182l-51 383h-535l-202 -383h-183zM778 555l-92 645l-328 -645h420zM592 1739q0 86 58.5 145.5t144.5 59.5q87 0 144.5 -59t57.5 -146q0 -85 -57 -141t-145 -56q-87 0 -145 56t-58 141zM707 1741q-5 -55 41.5 -78t93 0t41.5 78
q5 58 -41.5 82t-93 0t-41.5 -82z" />
    <glyph glyph-name="AE" unicode="&#xc6;" horiz-adv-x="1712" 
d="M-119 0l910 1434h931l-34 -172h-629l-80 -412h512l-33 -172h-512l-98 -506h649l-35 -172h-831l76 383h-383l-240 -383h-203zM864 1198h-33l-401 -643h309z" />
    <glyph glyph-name="Ccedilla" unicode="&#xc7;" horiz-adv-x="1355" 
d="M1059 469l160 -51q-200 -434 -619 -434q-234 0 -377 149t-143 424q0 231 92 432t277 330q183 131 425 131q201 0 328 -127q125 -125 137 -307l-174 -47q-49 309 -323 309q-182 0 -316 -107q-130 -101 -194 -254.5t-64 -338.5q0 -204 91 -313t264 -109q142 0 245.5 74
t190.5 239zM508 -123h151l-227 -358l-182 92z" />
    <glyph glyph-name="Egrave" unicode="&#xc8;" horiz-adv-x="1153" 
d="M72 0l280 1434h811l-35 -172h-628l-80 -412h512l-33 -172h-512l-98 -506h649l-35 -172h-831zM600 1843h248l98 -295h-139z" />
    <glyph glyph-name="Eacute" unicode="&#xc9;" horiz-adv-x="1153" 
d="M72 0l280 1434h811l-35 -172h-628l-80 -412h512l-33 -172h-512l-98 -506h649l-35 -172h-831zM762 1548h-148l199 295h252z" />
    <glyph glyph-name="Ecircumflex" unicode="&#xca;" horiz-adv-x="1153" 
d="M72 0l280 1434h811l-35 -172h-628l-80 -412h512l-33 -172h-512l-98 -506h649l-35 -172h-831zM635 1561h-201l367 335h63l254 -335h-182l-125 163z" />
    <glyph glyph-name="Edieresis" unicode="&#xcb;" horiz-adv-x="1153" 
d="M72 0l280 1434h811l-35 -172h-628l-80 -412h512l-33 -172h-512l-98 -506h649l-35 -172h-831zM612 1851q51 0 84 -33t33 -83t-33 -82.5t-84 -32.5q-48 0 -81 33t-33 82t33 82.5t81 33.5zM952 1851q51 0 84 -33t33 -83t-33 -82.5t-84 -32.5q-48 0 -81 33t-33 82t33 82.5
t81 33.5z" />
    <glyph glyph-name="Igrave" unicode="&#xcc;" horiz-adv-x="606" 
d="M72 0l280 1434h183l-281 -1434h-182zM233 1843h248l99 -295h-140z" />
    <glyph glyph-name="Iacute" unicode="&#xcd;" horiz-adv-x="606" 
d="M72 0l280 1434h183l-281 -1434h-182zM485 1548h-147l199 295h251z" />
    <glyph glyph-name="Icircumflex" unicode="&#xce;" horiz-adv-x="606" 
d="M72 0l280 1434h183l-281 -1434h-182zM313 1561h-200l366 335h64l254 -335h-183l-125 163z" />
    <glyph glyph-name="Idieresis" unicode="&#xcf;" horiz-adv-x="606" 
d="M72 0l280 1434h183l-281 -1434h-182zM319 1851q51 0 84 -33t33 -83t-33 -82.5t-84 -32.5q-48 0 -81 33t-33 82t33 82.5t81 33.5zM659 1851q51 0 84 -33t33 -83t-33 -82.5t-84 -32.5q-48 0 -81 33t-33 82t33 82.5t81 33.5z" />
    <glyph glyph-name="Eth" unicode="&#xd0;" horiz-adv-x="1370" 
d="M195 631h-119l35 172h116l125 631h369q262 0 413.5 -149t151.5 -423q0 -367 -229 -614q-227 -248 -588 -248h-397zM682 1262h-182l-90 -459h266l-35 -172h-264l-88 -459h182q282 0 451 190q170 194 170 482q0 207 -105 312.5t-305 105.5z" />
    <glyph glyph-name="Ntilde" unicode="&#xd1;" horiz-adv-x="1445" 
d="M973 313l219 1121h182l-280 -1434h-203l-420 1116l-217 -1116h-182l280 1434h203zM623 1599l-84 87q110 149 247 149q74 0 136 -41q65 -41 110 -41q78 0 150 72l84 -88q-112 -148 -248 -148q-72 0 -137 41q-62 41 -109 41q-77 0 -149 -72z" />
    <glyph glyph-name="Ograve" unicode="&#xd2;" horiz-adv-x="1460" 
d="M870 1450q227 0 365 -156q141 -153 141 -424q0 -449 -309 -712q-201 -174 -481 -174q-226 0 -367 153q-139 157 -139 426q0 450 309 713q201 174 481 174zM840 1278q-216 0 -371 -168q-201 -213 -201 -530q0 -205 89 -314.5t259 -109.5q216 0 371 168q201 213 201 530
q0 205 -89 314.5t-259 109.5zM643 1843h248l98 -295h-139z" />
    <glyph glyph-name="Oacute" unicode="&#xd3;" horiz-adv-x="1460" 
d="M870 1450q227 0 365 -156q141 -153 141 -424q0 -449 -309 -712q-201 -174 -481 -174q-226 0 -367 153q-139 157 -139 426q0 450 309 713q201 174 481 174zM840 1278q-216 0 -371 -168q-201 -213 -201 -530q0 -205 89 -314.5t259 -109.5q216 0 371 168q201 213 201 530
q0 205 -89 314.5t-259 109.5zM874 1548h-147l199 295h252z" />
    <glyph glyph-name="Ocircumflex" unicode="&#xd4;" horiz-adv-x="1460" 
d="M870 1450q227 0 365 -156q141 -153 141 -424q0 -449 -309 -712q-201 -174 -481 -174q-226 0 -367 153q-139 157 -139 426q0 450 309 713q201 174 481 174zM840 1278q-216 0 -371 -168q-201 -213 -201 -530q0 -205 89 -314.5t259 -109.5q216 0 371 168q201 213 201 530
q0 205 -89 314.5t-259 109.5zM731 1561h-201l367 335h64l253 -335h-182l-125 163z" />
    <glyph glyph-name="Otilde" unicode="&#xd5;" horiz-adv-x="1460" 
d="M870 1450q227 0 365 -156q141 -153 141 -424q0 -449 -309 -712q-201 -174 -481 -174q-226 0 -367 153q-139 157 -139 426q0 450 309 713q201 174 481 174zM840 1278q-216 0 -371 -168q-201 -213 -201 -530q0 -205 89 -314.5t259 -109.5q216 0 371 168q201 213 201 530
q0 205 -89 314.5t-259 109.5zM631 1599l-84 87q110 149 248 149q73 0 135 -41q65 -41 110 -41q78 0 150 72l84 -88q-112 -148 -248 -148q-72 0 -137 41q-62 41 -109 41q-77 0 -149 -72z" />
    <glyph glyph-name="Odieresis" unicode="&#xd6;" horiz-adv-x="1460" 
d="M870 1450q227 0 365 -156q141 -153 141 -424q0 -449 -309 -712q-201 -174 -481 -174q-226 0 -367 153q-139 157 -139 426q0 450 309 713q201 174 481 174zM840 1278q-216 0 -371 -168q-201 -213 -201 -530q0 -205 89 -314.5t259 -109.5q216 0 371 168q201 213 201 530
q0 205 -89 314.5t-259 109.5zM739 1851q51 0 84 -33t33 -83t-33 -82.5t-84 -32.5q-48 0 -81 33t-33 82t33 82.5t81 33.5zM1079 1851q51 0 84 -33t33 -83t-33 -82.5t-84 -32.5q-48 0 -81 33t-33 82t33 82.5t81 33.5z" />
    <glyph glyph-name="multiply" unicode="&#xd7;" horiz-adv-x="1130" 
d="M565 760l324 323l106 -106l-323 -324l323 -323l-106 -107l-324 324l-323 -324l-107 107l324 323l-324 324l107 106z" />
    <glyph glyph-name="Oslash" unicode="&#xd8;" horiz-adv-x="1460" 
d="M872 1450q207 0 342 -129l166 172l103 -98l-183 -189q78 -147 78 -336q0 -449 -309 -712q-201 -174 -481 -174q-207 0 -342 129l-166 -172l-103 98l181 188q-76 137 -76 336q0 450 309 713q201 174 481 174zM1190 854q0 107 -31 205l-784 -813q90 -90 243 -90
q216 0 371 168q201 213 201 530zM842 1278q-216 0 -371 -168q-201 -213 -201 -530q0 -119 31 -207l782 813q-86 92 -241 92z" />
    <glyph glyph-name="Ugrave" unicode="&#xd9;" horiz-adv-x="1376" 
d="M156 487l182 947h182l-186 -959q-8 -47 -8 -82q0 -237 249 -237q155 0 253.5 83t127.5 236l187 959h182l-182 -947q-94 -503 -590 -503q-185 0 -297 100q-113 101 -113 266q0 67 13 137zM627 1843h247l99 -295h-139z" />
    <glyph glyph-name="Uacute" unicode="&#xda;" horiz-adv-x="1376" 
d="M156 487l182 947h182l-186 -959q-8 -47 -8 -82q0 -237 249 -237q155 0 253.5 83t127.5 236l187 959h182l-182 -947q-94 -503 -590 -503q-185 0 -297 100q-113 101 -113 266q0 67 13 137zM844 1548h-148l199 295h252z" />
    <glyph glyph-name="Ucircumflex" unicode="&#xdb;" horiz-adv-x="1376" 
d="M156 487l182 947h182l-186 -959q-8 -47 -8 -82q0 -237 249 -237q155 0 253.5 83t127.5 236l187 959h182l-182 -947q-94 -503 -590 -503q-185 0 -297 100q-113 101 -113 266q0 67 13 137zM700 1561h-200l366 335h64l254 -335h-183l-124 163z" />
    <glyph glyph-name="Udieresis" unicode="&#xdc;" horiz-adv-x="1374" 
d="M156 487l182 947h182l-186 -959q-8 -47 -8 -82q0 -237 249 -237q155 0 253.5 83t127.5 236l187 959h182l-182 -947q-94 -503 -590 -503q-185 0 -297 100q-113 101 -113 266q0 67 13 137zM705 1851q51 0 83.5 -33t32.5 -83t-32.5 -82.5t-83.5 -32.5q-48 0 -81.5 33
t-33.5 82t33.5 82.5t81.5 33.5zM1044 1851q51 0 84 -33t33 -83t-33 -82.5t-84 -32.5q-48 0 -81 33t-33 82t33 82.5t81 33.5z" />
    <glyph glyph-name="Yacute" unicode="&#xdd;" horiz-adv-x="991" 
d="M252 0l121 618l-258 816h192l187 -635l430 635h202l-571 -816l-121 -618h-182zM633 1548h-148l199 295h252z" />
    <glyph glyph-name="Thorn" unicode="&#xde;" horiz-adv-x="1183" 
d="M254 0h-182l278 1434h182l-59 -308h277q174 0 278.5 -92.5t104.5 -247.5q0 -230 -140.5 -354.5t-388.5 -124.5h-291zM346 479h313q129 0 206 73t77 202q0 95 -52 147.5t-153 52.5h-299z" />
    <glyph glyph-name="germandbls" unicode="&#xdf;" horiz-adv-x="1183" 
d="M215 705h-102l28 155h103l35 174q41 201 167 307q130 109 299 109q147 0 232.5 -84t85.5 -227q0 -265 -238 -351q93 -28 151 -111t58 -212q0 -227 -145 -354t-365 -127q-115 0 -170 14l31 156q67 -15 143 -15q160 0 246 77.5t86 223.5q0 127 -69 196t-189 69h-55l28 155
h72q113 0 181.5 65t68.5 177q0 92 -47.5 142t-134.5 50q-100 0 -170.5 -69.5t-95.5 -196.5l-201 -1028h-170z" />
    <glyph glyph-name="agrave" unicode="&#xe0;" horiz-adv-x="1200" 
d="M713 0l24 127q-128 -143 -305 -143q-182 0 -279.5 114t-97.5 305q0 268 148 457t411 189q95 0 174.5 -43t100.5 -97l22 123h174l-198 -1032h-174zM481 139q112 0 198.5 76t123.5 188q35 110 35 220q0 126 -62 198t-176 72q-174 0 -268 -135q-94 -134 -94 -307
q0 -144 64.5 -228t178.5 -84zM432 1442h248l98 -295h-139z" />
    <glyph glyph-name="aacute" unicode="&#xe1;" horiz-adv-x="1200" 
d="M713 0l24 127q-128 -143 -305 -143q-182 0 -279.5 114t-97.5 305q0 268 148 457t411 189q95 0 174.5 -43t100.5 -97l22 123h174l-198 -1032h-174zM481 139q112 0 198.5 76t123.5 188q35 110 35 220q0 126 -62 198t-176 72q-174 0 -268 -135q-94 -134 -94 -307
q0 -144 64.5 -228t178.5 -84zM659 1147h-147l199 295h252z" />
    <glyph glyph-name="acircumflex" unicode="&#xe2;" horiz-adv-x="1200" 
d="M713 0l24 127q-128 -143 -305 -143q-182 0 -279.5 114t-97.5 305q0 268 148 457t411 189q95 0 174.5 -43t100.5 -97l22 123h174l-198 -1032h-174zM481 139q112 0 198.5 76t123.5 188q35 110 35 220q0 126 -62 198t-176 72q-174 0 -268 -135q-94 -134 -94 -307
q0 -144 64.5 -228t178.5 -84zM549 1159h-201l367 336h63l254 -336h-182l-125 164z" />
    <glyph glyph-name="atilde" unicode="&#xe3;" horiz-adv-x="1200" 
d="M713 0l24 127q-128 -143 -305 -143q-182 0 -279.5 114t-97.5 305q0 268 148 457t411 189q95 0 174.5 -43t100.5 -97l22 123h174l-198 -1032h-174zM481 139q112 0 198.5 76t123.5 188q35 110 35 220q0 126 -62 198t-176 72q-174 0 -268 -135q-94 -134 -94 -307
q0 -144 64.5 -228t178.5 -84zM438 1198l-84 86q111 150 248 150q73 0 135 -41q65 -41 111 -41q78 0 149 71l84 -88q-111 -147 -247 -147q-73 0 -138 41q-62 41 -108 41q-78 0 -150 -72z" />
    <glyph glyph-name="adieresis" unicode="&#xe4;" horiz-adv-x="1200" 
d="M713 0l24 127q-128 -143 -305 -143q-182 0 -279.5 114t-97.5 305q0 268 148 457t411 189q95 0 174.5 -43t100.5 -97l22 123h174l-198 -1032h-174zM481 139q112 0 198.5 76t123.5 188q35 110 35 220q0 126 -62 198t-176 72q-174 0 -268 -135q-94 -134 -94 -307
q0 -144 64.5 -228t178.5 -84zM555 1450q51 0 84 -33.5t33 -83.5t-33 -82t-84 -32q-48 0 -81.5 32.5t-33.5 81.5t33.5 83t81.5 34zM895 1450q51 0 84 -33.5t33 -83.5t-33 -82t-84 -32q-48 0 -81.5 32.5t-33.5 81.5t33.5 83t81.5 34z" />
    <glyph glyph-name="aring" unicode="&#xe5;" horiz-adv-x="1200" 
d="M713 0l24 127q-128 -143 -305 -143q-182 0 -279.5 114t-97.5 305q0 268 148 457t411 189q95 0 174.5 -43t100.5 -97l22 123h174l-198 -1032h-174zM481 139q112 0 198.5 76t123.5 188q35 110 35 220q0 126 -62 198t-176 72q-174 0 -268 -135q-94 -134 -94 -307
q0 -144 64.5 -228t178.5 -84zM518 1337q0 86 58.5 145.5t144.5 59.5q87 0 145 -59t58 -146q0 -85 -57.5 -140.5t-145.5 -55.5q-87 0 -145 56t-58 140zM633 1339q-5 -55 41.5 -78t93 0t41.5 78q5 58 -41.5 82t-93 0t-41.5 -82z" />
    <glyph glyph-name="ae" unicode="&#xe6;" horiz-adv-x="1824" 
d="M1694 559l-17 -80h-766q-6 -41 -6 -73q0 -124 63 -195.5t179 -71.5q106 0 179.5 48.5t141.5 154.5l148 -72q-103 -152 -219.5 -219t-280.5 -67q-122 0 -213.5 59t-136.5 164q-137 -223 -383 -223q-153 0 -240.5 77.5t-87.5 206.5q0 184 123 275.5t336 91.5h250l10 45
q4 28 4 49q0 164 -190 164q-162 0 -232 -166l-155 39q50 135 158 209t259 74q107 0 188.5 -44.5t117.5 -125.5q170 170 399 170q176 0 278.5 -104.5t102.5 -282.5q0 -38 -10 -103zM403 139q119 0 206 79.5t116 236.5l4 24h-252q-109 0 -174 -47.5t-65 -138.5
q0 -72 44.5 -113t120.5 -41zM1292 893q-111 0 -203 -70.5t-137 -187.5h570q0 258 -230 258z" />
    <glyph glyph-name="ccedilla" unicode="&#xe7;" horiz-adv-x="1105" 
d="M778 348l146 -76q-108 -163 -215 -227q-107 -61 -271 -61q-175 0 -278 118q-105 120 -105 314q0 247 158 440q159 193 430 193q300 0 371 -287l-156 -60q-53 191 -246 191q-166 0 -270 -137q-104 -134 -104 -322q0 -136 62.5 -215.5t168.5 -79.5q98 0 170 49.5t139 159.5
zM412 -123h151l-227 -358l-182 92z" />
    <glyph glyph-name="egrave" unicode="&#xe8;" horiz-adv-x="1150" 
d="M1020 559l-16 -80h-764q-7 -47 -7 -73q0 -125 62.5 -196t177.5 -71q106 0 180 48.5t142 154.5l147 -72q-103 -152 -219.5 -219t-280.5 -67q-178 0 -284 118q-107 119 -107 316q0 243 172 436q174 195 426 195q176 0 278.5 -104.5t102.5 -282.5q0 -38 -10 -103zM618 893
q-111 0 -202.5 -70.5t-136.5 -187.5h569q0 258 -230 258zM461 1442h248l98 -295h-139z" />
    <glyph glyph-name="eacute" unicode="&#xe9;" horiz-adv-x="1150" 
d="M1020 559l-16 -80h-764q-7 -47 -7 -73q0 -125 62.5 -196t177.5 -71q106 0 180 48.5t142 154.5l147 -72q-103 -152 -219.5 -219t-280.5 -67q-178 0 -284 118q-107 119 -107 316q0 243 172 436q174 195 426 195q176 0 278.5 -104.5t102.5 -282.5q0 -38 -10 -103zM618 893
q-111 0 -202.5 -70.5t-136.5 -187.5h569q0 258 -230 258zM676 1147h-148l199 295h252z" />
    <glyph glyph-name="ecircumflex" unicode="&#xea;" horiz-adv-x="1150" 
d="M1020 559l-16 -80h-764q-7 -47 -7 -73q0 -125 62.5 -196t177.5 -71q106 0 180 48.5t142 154.5l147 -72q-103 -152 -219.5 -219t-280.5 -67q-178 0 -284 118q-107 119 -107 316q0 243 172 436q174 195 426 195q176 0 278.5 -104.5t102.5 -282.5q0 -38 -10 -103zM618 893
q-111 0 -202.5 -70.5t-136.5 -187.5h569q0 258 -230 258zM547 1159h-201l367 336h63l254 -336h-182l-125 164z" />
    <glyph glyph-name="edieresis" unicode="&#xeb;" horiz-adv-x="1150" 
d="M1020 559l-16 -80h-764q-7 -47 -7 -73q0 -125 62.5 -196t177.5 -71q106 0 180 48.5t142 154.5l147 -72q-103 -152 -219.5 -219t-280.5 -67q-178 0 -284 118q-107 119 -107 316q0 243 172 436q174 195 426 195q176 0 278.5 -104.5t102.5 -282.5q0 -38 -10 -103zM618 893
q-111 0 -202.5 -70.5t-136.5 -187.5h569q0 258 -230 258zM520 1450q51 0 84 -33.5t33 -83.5t-33 -82t-84 -32q-48 0 -81 32.5t-33 81.5t33.5 83t80.5 34zM860 1450q51 0 84 -33.5t33 -83.5t-33 -82t-84 -32q-48 0 -81.5 32.5t-33.5 81.5t33.5 83t81.5 34z" />
    <glyph glyph-name="igrave" unicode="&#xec;" horiz-adv-x="565" 
d="M61 0l201 1032h174l-200 -1032h-175zM154 1442h247l99 -295h-140z" />
    <glyph glyph-name="iacute" unicode="&#xed;" horiz-adv-x="565" 
d="M61 0l201 1032h174l-200 -1032h-175zM403 1147h-147l199 295h252z" />
    <glyph glyph-name="icircumflex" unicode="&#xee;" horiz-adv-x="565" 
d="M61 0l201 1032h174l-200 -1032h-175zM223 1159h-200l366 336h64l254 -336h-183l-125 164z" />
    <glyph glyph-name="idieresis" unicode="&#xef;" horiz-adv-x="565" 
d="M61 0l201 1032h174l-200 -1032h-175zM225 1450q51 0 84 -33.5t33 -83.5t-33 -82t-84 -32q-48 0 -81 32.5t-33 81.5t33.5 83t80.5 34zM565 1450q51 0 84 -33.5t33 -83.5t-33 -82t-84 -32q-48 0 -81 32.5t-33 81.5t33.5 83t80.5 34z" />
    <glyph glyph-name="eth" unicode="&#xf0;" horiz-adv-x="1177" 
d="M682 1237l-109 -127l-104 86l104 123q-63 42 -145 78l100 119q96 -44 148 -80l98 110l100 -86l-88 -104q122 -92 190 -253t68 -345q0 -338 -151 -557q-150 -217 -453 -217q-183 0 -284 125t-101 315q0 258 156 440q156 185 412 185q70 0 134 -25t93 -66q-30 174 -168 279
zM606 893q-168 0 -270 -141q-98 -140 -98 -326q0 -133 59 -210t174 -77q170 0 274 137q105 138 105 320q0 297 -244 297z" />
    <glyph glyph-name="ntilde" unicode="&#xf1;" 
d="M1016 727l-142 -727h-174l131 682q9 50 9 72q0 139 -138 139q-110 0 -227 -129q-115 -127 -156 -332l-83 -432h-175l201 1032h174l-37 -190q157 207 373 207q118 0 184 -60t66 -166q0 -49 -6 -96zM424 1198l-84 86q111 150 248 150q73 0 135 -41q65 -41 111 -41
q78 0 149 71l84 -88q-111 -147 -248 -147q-72 0 -137 41q-62 41 -109 41q-77 0 -149 -72z" />
    <glyph glyph-name="ograve" unicode="&#xf2;" horiz-adv-x="1173" 
d="M55 418q0 253 142 430q165 201 436 201q191 0 299 -115.5t108 -319.5q0 -255 -141 -430q-164 -200 -436 -200q-191 0 -299.5 115t-108.5 319zM616 893q-171 0 -286 -145q-92 -118 -92 -306q0 -144 62 -223.5t179 -79.5q171 0 287 146q92 118 92 305q0 144 -62.5 223.5
t-179.5 79.5zM459 1442h248l98 -295h-139z" />
    <glyph glyph-name="oacute" unicode="&#xf3;" horiz-adv-x="1173" 
d="M55 418q0 253 142 430q165 201 436 201q191 0 299 -115.5t108 -319.5q0 -255 -141 -430q-164 -200 -436 -200q-191 0 -299.5 115t-108.5 319zM616 893q-171 0 -286 -145q-92 -118 -92 -306q0 -144 62 -223.5t179 -79.5q171 0 287 146q92 118 92 305q0 144 -62.5 223.5
t-179.5 79.5zM680 1147h-148l199 295h252z" />
    <glyph glyph-name="ocircumflex" unicode="&#xf4;" horiz-adv-x="1173" 
d="M55 418q0 253 142 430q165 201 436 201q191 0 299 -115.5t108 -319.5q0 -255 -141 -430q-164 -200 -436 -200q-191 0 -299.5 115t-108.5 319zM616 893q-171 0 -286 -145q-92 -118 -92 -306q0 -144 62 -223.5t179 -79.5q171 0 287 146q92 118 92 305q0 144 -62.5 223.5
t-179.5 79.5zM506 1159h-201l367 336h63l254 -336h-182l-125 164z" />
    <glyph glyph-name="otilde" unicode="&#xf5;" horiz-adv-x="1173" 
d="M55 418q0 253 142 430q165 201 436 201q191 0 299 -115.5t108 -319.5q0 -255 -141 -430q-164 -200 -436 -200q-191 0 -299.5 115t-108.5 319zM616 893q-171 0 -286 -145q-92 -118 -92 -306q0 -144 62 -223.5t179 -79.5q171 0 287 146q92 118 92 305q0 144 -62.5 223.5
t-179.5 79.5zM410 1198l-84 86q111 150 247 150q74 0 136 -41q65 -41 110 -41q79 0 150 71l84 -88q-111 -147 -248 -147q-72 0 -137 41q-62 41 -109 41q-77 0 -149 -72z" />
    <glyph glyph-name="odieresis" unicode="&#xf6;" horiz-adv-x="1173" 
d="M55 418q0 253 142 430q165 201 436 201q191 0 299 -115.5t108 -319.5q0 -255 -141 -430q-164 -200 -436 -200q-191 0 -299.5 115t-108.5 319zM616 893q-171 0 -286 -145q-92 -118 -92 -306q0 -144 62 -223.5t179 -79.5q171 0 287 146q92 118 92 305q0 144 -62.5 223.5
t-179.5 79.5zM539 1450q51 0 83.5 -33.5t32.5 -83.5t-32.5 -82t-83.5 -32q-48 0 -81.5 32.5t-33.5 81.5t33.5 83t81.5 34zM879 1450q51 0 83.5 -33.5t32.5 -83.5t-32.5 -82t-83.5 -32q-48 0 -81.5 32.5t-33.5 81.5t33.5 83t81.5 34z" />
    <glyph glyph-name="divide" unicode="&#xf7;" horiz-adv-x="1179" 
d="M465 262q0 54 37 91.5t92 37.5q54 0 91.5 -37.5t37.5 -91.5q0 -55 -37.5 -92t-91.5 -37q-56 0 -92.5 36.5t-36.5 92.5zM465 1028q0 54 37 91.5t92 37.5q54 0 91.5 -37.5t37.5 -91.5q0 -55 -37.5 -92t-91.5 -37q-56 0 -92.5 36.5t-36.5 92.5zM1044 573h-901v152h901v-152z
" />
    <glyph glyph-name="oslash" unicode="&#xf8;" horiz-adv-x="1173" 
d="M55 418q0 253 142 430q165 201 436 201q154 0 260 -80l151 155l105 -98l-164 -168q55 -98 55 -244q0 -253 -139 -430q-164 -200 -438 -200q-155 0 -256 79l-152 -155l-104 98l162 166q-58 101 -58 246zM616 893q-171 0 -286 -145q-92 -118 -92 -306q0 -94 12 -131
l520 531q-57 51 -154 51zM858 590q0 80 -12 127l-518 -531q59 -47 151 -47q171 0 287 146q92 118 92 305z" />
    <glyph glyph-name="ugrave" unicode="&#xf9;" 
d="M113 305l141 727h174l-131 -682q-8 -44 -8 -71q0 -140 137 -140q110 0 227 129q115 127 156 332l84 432h174l-201 -1032h-174l37 190q-156 -206 -373 -206q-118 0 -184 59.5t-66 165.5q0 42 7 96zM483 1442h248l98 -295h-139z" />
    <glyph glyph-name="uacute" unicode="&#xfa;" 
d="M113 305l141 727h174l-131 -682q-8 -44 -8 -71q0 -140 137 -140q110 0 227 129q115 127 156 332l84 432h174l-201 -1032h-174l37 190q-156 -206 -373 -206q-118 0 -184 59.5t-66 165.5q0 42 7 96zM670 1147h-148l199 295h252z" />
    <glyph glyph-name="ucircumflex" unicode="&#xfb;" 
d="M113 305l141 727h174l-131 -682q-8 -44 -8 -71q0 -140 137 -140q110 0 227 129q115 127 156 332l84 432h174l-201 -1032h-174l37 190q-156 -206 -373 -206q-118 0 -184 59.5t-66 165.5q0 42 7 96zM559 1159h-201l367 336h63l254 -336h-182l-125 164z" />
    <glyph glyph-name="udieresis" unicode="&#xfc;" 
d="M113 305l141 727h174l-131 -682q-8 -44 -8 -71q0 -140 137 -140q110 0 227 129q115 127 156 332l84 432h174l-201 -1032h-174l37 190q-156 -206 -373 -206q-118 0 -184 59.5t-66 165.5q0 42 7 96zM528 1450q51 0 84 -33.5t33 -83.5t-33 -82t-84 -32q-48 0 -81 32.5
t-33 81.5t33.5 83t80.5 34zM868 1450q51 0 84 -33.5t33 -83.5t-33 -82t-84 -32q-48 0 -81 32.5t-33 81.5t33.5 83t80.5 34z" />
    <glyph glyph-name="yacute" unicode="&#xfd;" horiz-adv-x="966" 
d="M385 287l397 745h183l-789 -1450h-182l256 484l-166 966h182zM530 1147h-147l199 295h252z" />
    <glyph glyph-name="thorn" unicode="&#xfe;" horiz-adv-x="1216" 
d="M1083 614q0 -268 -143 -448q-144 -182 -412 -182q-84 0 -166 43q-81 48 -104 100l-106 -545h-172l360 1868h174l-104 -541q52 60 135.5 100t171.5 40q171 0 268.5 -112t97.5 -323zM543 139q167 0 262 135q96 137 96 316q0 303 -231 303q-153 0 -258 -141t-105 -320
q0 -139 64 -216t172 -77z" />
    <glyph glyph-name="ydieresis" unicode="&#xff;" horiz-adv-x="954" 
d="M385 287l397 745h183l-789 -1450h-182l256 484l-166 966h182zM387 1450q51 0 84 -33.5t33 -83.5t-33 -82t-84 -32q-48 0 -81.5 32.5t-33.5 81.5t33.5 83t81.5 34zM727 1450q51 0 84 -33.5t33 -83.5t-33 -82t-84 -32q-48 0 -81.5 32.5t-33.5 81.5t33.5 83t81.5 34z" />
    <glyph glyph-name="Amacron" unicode="&#x100;" horiz-adv-x="1175" 
d="M1014 1573h-510l31 156h509zM-117 0l762 1434h174l217 -1434h-182l-51 383h-535l-202 -383h-183zM778 555l-92 645l-328 -645h420z" />
    <glyph glyph-name="amacron" unicode="&#x101;" horiz-adv-x="1200" 
d="M893 1171h-510l31 156h510zM1085 1032l-198 -1032h-174l24 127q-128 -143 -305 -143q-182 0 -279.5 114t-97.5 305q0 268 148 457t411 189q95 0 174.5 -43t100.5 -97l22 123h174zM481 139q117 0 201 78q156 144 156 406q0 126 -62 198t-176 72q-174 0 -268 -135
q-94 -134 -94 -307q0 -144 64.5 -228t178.5 -84z" />
    <glyph glyph-name="Abreve" unicode="&#x102;" horiz-adv-x="1175" 
d="M893 1796h137q-26 -105 -98 -164t-172 -59q-82 0 -135.5 49.5t-53.5 128.5q0 9 4 45h138q-2 -6 -2 -20q0 -32 20.5 -52t52.5 -20q91 0 109 92zM-117 0l762 1434h174l217 -1434h-182l-51 383h-535l-202 -383h-183zM778 555l-92 645l-328 -645h420z" />
    <glyph glyph-name="abreve" unicode="&#x103;" horiz-adv-x="1200" 
d="M772 1395h137q-26 -105 -98 -164.5t-172 -59.5q-82 0 -135 50t-53 129q0 9 4 45h137q-2 -6 -2 -21q0 -32 20.5 -51.5t53.5 -19.5q90 0 108 92zM1085 1032l-198 -1032h-174l24 127q-128 -143 -305 -143q-182 0 -279.5 114t-97.5 305q0 268 148 457t411 189q95 0 174.5 -43
t100.5 -97l22 123h174zM481 139q117 0 201 78q156 144 156 406q0 126 -62 198t-176 72q-174 0 -268 -135q-94 -134 -94 -307q0 -144 64.5 -228t178.5 -84z" />
    <glyph glyph-name="Aogonek" unicode="&#x104;" horiz-adv-x="1175" 
d="M395 12h127q-149 -101 -149 -174q0 -51 51 -51q32 0 58.5 18t70.5 66l74 -72q-63 -78 -120.5 -111.5t-129.5 -33.5q-66 0 -106 37t-40 100q0 116 164 221zM-117 0l762 1434h174l217 -1434h-182l-51 383h-535l-202 -383h-183zM778 555l-92 645l-328 -645h420z" />
    <glyph glyph-name="aogonek" unicode="&#x105;" horiz-adv-x="1200" 
d="M1085 1032l-198 -1032h-174l24 127q-109 -124 -258 -139q-135 -95 -135 -166q0 -51 51 -51q32 0 58.5 18t70.5 66l74 -72q-63 -78 -120.5 -111.5t-129.5 -33.5q-66 0 -105.5 37t-39.5 100q0 113 153 215q-146 23 -223.5 133t-77.5 280q0 268 148 457t411 189
q95 0 174.5 -43t100.5 -97l22 123h174zM481 139q117 0 201 78q156 144 156 406q0 126 -62 198t-176 72q-174 0 -268 -135q-94 -134 -94 -307q0 -144 64.5 -228t178.5 -84z" />
    <glyph glyph-name="Cacute" unicode="&#x106;" horiz-adv-x="1355" 
d="M973 1573h-148l199 295h252zM1059 469l160 -51q-200 -434 -619 -434q-234 0 -377 149t-143 424q0 231 92 432t277 330q183 131 425 131q201 0 328 -127q125 -125 137 -307l-174 -47q-49 309 -323 309q-182 0 -316 -107q-130 -101 -194 -254.5t-64 -338.5q0 -204 91 -313
t264 -109q142 0 245.5 74t190.5 239z" />
    <glyph glyph-name="cacute" unicode="&#x107;" horiz-adv-x="1105" 
d="M741 1171h-147l199 295h251zM778 348l146 -76q-108 -163 -215 -227q-107 -61 -271 -61q-175 0 -278 118q-105 120 -105 314q0 247 158 440q159 193 430 193q300 0 371 -287l-156 -60q-53 191 -246 191q-166 0 -270 -137q-104 -134 -104 -322q0 -136 62.5 -215.5
t168.5 -79.5q98 0 170 49.5t139 159.5z" />
    <glyph glyph-name="Ccircumflex" unicode="&#x108;" horiz-adv-x="1355" 
d="M758 1573h-201l367 336h63l254 -336h-182l-125 164zM1059 469l160 -51q-200 -434 -619 -434q-234 0 -377 149t-143 424q0 231 92 432t277 330q183 131 425 131q201 0 328 -127q125 -125 137 -307l-174 -47q-49 309 -323 309q-182 0 -316 -107q-130 -101 -194 -254.5
t-64 -338.5q0 -204 91 -313t264 -109q142 0 245.5 74t190.5 239z" />
    <glyph glyph-name="ccircumflex" unicode="&#x109;" horiz-adv-x="1105" 
d="M526 1171h-200l366 336h64l254 -336h-183l-125 164zM778 348l146 -76q-108 -163 -215 -227q-107 -61 -271 -61q-175 0 -278 118q-105 120 -105 314q0 247 158 440q159 193 430 193q300 0 371 -287l-156 -60q-53 191 -246 191q-166 0 -270 -137q-104 -134 -104 -322
q0 -136 62.5 -215.5t168.5 -79.5q98 0 170 49.5t139 159.5z" />
    <glyph glyph-name="Cdotaccent" unicode="&#x10a;" horiz-adv-x="1355" 
d="M795 1700q0 55 37.5 93t91.5 38q55 0 92 -37.5t37 -93.5q0 -54 -37 -90.5t-92 -36.5q-54 0 -91.5 36.5t-37.5 90.5zM1059 469l160 -51q-200 -434 -619 -434q-234 0 -377 149t-143 424q0 231 92 432t277 330q183 131 425 131q201 0 328 -127q125 -125 137 -307l-174 -47
q-49 309 -323 309q-182 0 -316 -107q-130 -101 -194 -254.5t-64 -338.5q0 -204 91 -313t264 -109q142 0 245.5 74t190.5 239z" />
    <glyph glyph-name="cdotaccent" unicode="&#x10b;" horiz-adv-x="1105" 
d="M563 1298q0 55 37.5 93.5t91.5 38.5q55 0 92 -38t37 -94q0 -54 -37 -90.5t-92 -36.5q-54 0 -91.5 36.5t-37.5 90.5zM778 348l146 -76q-108 -163 -215 -227q-107 -61 -271 -61q-175 0 -278 118q-105 120 -105 314q0 247 158 440q159 193 430 193q300 0 371 -287l-156 -60
q-53 191 -246 191q-166 0 -270 -137q-104 -134 -104 -322q0 -136 62.5 -215.5t168.5 -79.5q98 0 170 49.5t139 159.5z" />
    <glyph glyph-name="Ccaron" unicode="&#x10c;" horiz-adv-x="1355" 
d="M1106 1909h201l-367 -336h-63l-254 336h182l125 -164zM1059 469l160 -51q-200 -434 -619 -434q-234 0 -377 149t-143 424q0 231 92 432t277 330q183 131 425 131q201 0 328 -127q125 -125 137 -307l-174 -47q-49 309 -323 309q-182 0 -316 -107q-130 -101 -194 -254.5
t-64 -338.5q0 -204 91 -313t264 -109q142 0 245.5 74t190.5 239z" />
    <glyph glyph-name="ccaron" unicode="&#x10d;" horiz-adv-x="1105" 
d="M874 1507h201l-366 -336h-64l-254 336h182l125 -164zM778 348l146 -76q-108 -163 -215 -227q-107 -61 -271 -61q-175 0 -278 118q-105 120 -105 314q0 247 158 440q159 193 430 193q300 0 371 -287l-156 -60q-53 191 -246 191q-166 0 -270 -137q-104 -134 -104 -322
q0 -136 62.5 -215.5t168.5 -79.5q98 0 170 49.5t139 159.5z" />
    <glyph glyph-name="Dcaron" unicode="&#x10e;" horiz-adv-x="1370" 
d="M1108 1909h201l-367 -336h-63l-254 336h182l125 -164zM72 0l280 1434h369q262 0 413.5 -149t151.5 -423q0 -367 -229 -614q-227 -248 -588 -248h-397zM682 1262h-182l-211 -1090h182q282 0 451 190q170 194 170 482q0 207 -105 312.5t-305 105.5z" />
    <glyph glyph-name="dcaron" unicode="&#x10f;" horiz-adv-x="1253" 
d="M1409 1006h-129l209 444h240zM618 1049q95 0 172 -38.5t113 -101.5l105 541h174l-283 -1450h-174l27 127q-131 -143 -324 -143q-177 0 -275 106t-98 291q0 273 154 471q153 197 409 197zM238 426q0 -133 61.5 -210t175.5 -77q120 0 209 80q86 78 127 184t41 224
q0 128 -66.5 197t-181.5 69q-117 0 -205 -76q-161 -140 -161 -391z" />
    <glyph glyph-name="Dcroat" unicode="&#x110;" horiz-adv-x="1370" 
d="M195 631h-119l35 172h116l125 631h369q262 0 413.5 -149t151.5 -423q0 -367 -229 -614q-227 -248 -588 -248h-397zM682 1262h-182l-90 -459h266l-35 -172h-264l-88 -459h182q282 0 451 190q170 194 170 482q0 207 -105 312.5t-305 105.5z" />
    <glyph glyph-name="Emacron" unicode="&#x112;" horiz-adv-x="1153" 
d="M1040 1573h-510l31 156h510zM72 0l280 1434h811l-35 -172h-628l-80 -412h512l-33 -172h-512l-98 -506h649l-35 -172h-831z" />
    <glyph glyph-name="emacron" unicode="&#x113;" horiz-adv-x="1150" 
d="M928 1171h-510l31 156h509zM1020 559l-16 -80h-764q-7 -47 -7 -73q0 -125 62.5 -196t177.5 -71q106 0 180 48.5t142 154.5l147 -72q-103 -152 -219.5 -219t-280.5 -67q-178 0 -284 118q-107 119 -107 316q0 243 172 436q174 195 426 195q176 0 278.5 -104.5t102.5 -282.5
q0 -38 -10 -103zM618 893q-111 0 -202.5 -70.5t-136.5 -187.5h569q0 258 -230 258z" />
    <glyph glyph-name="Ebreve" unicode="&#x114;" horiz-adv-x="1153" 
d="M920 1796h137q-26 -105 -98.5 -164t-172.5 -59q-82 0 -135 49.5t-53 128.5q0 9 4 45h137q-2 -6 -2 -20q0 -32 21 -52t53 -20q91 0 109 92zM72 0l280 1434h811l-35 -172h-628l-80 -412h512l-33 -172h-512l-98 -506h649l-35 -172h-831z" />
    <glyph glyph-name="ebreve" unicode="&#x115;" horiz-adv-x="1150" 
d="M807 1395h137q-26 -105 -98 -164.5t-172 -59.5q-82 0 -135.5 50t-53.5 129q0 9 4 45h138q-2 -6 -2 -21q0 -32 20.5 -51.5t52.5 -19.5q91 0 109 92zM1020 559l-16 -80h-764q-7 -47 -7 -73q0 -125 62.5 -196t177.5 -71q106 0 180 48.5t142 154.5l147 -72
q-103 -152 -219.5 -219t-280.5 -67q-178 0 -284 118q-107 119 -107 316q0 243 172 436q174 195 426 195q176 0 278.5 -104.5t102.5 -282.5q0 -38 -10 -103zM618 893q-111 0 -202.5 -70.5t-136.5 -187.5h569q0 258 -230 258z" />
    <glyph glyph-name="Edotaccent" unicode="&#x116;" horiz-adv-x="1153" 
d="M682 1700q0 55 37.5 93t91.5 38q55 0 92 -37.5t37 -93.5q0 -54 -37 -90.5t-92 -36.5q-54 0 -91.5 36.5t-37.5 90.5zM72 0l280 1434h811l-35 -172h-628l-80 -412h512l-33 -172h-512l-98 -506h649l-35 -172h-831z" />
    <glyph glyph-name="edotaccent" unicode="&#x117;" horiz-adv-x="1150" 
d="M569 1298q0 55 37.5 93.5t91.5 38.5q55 0 92 -38t37 -94q0 -54 -37 -90.5t-92 -36.5q-54 0 -91.5 36.5t-37.5 90.5zM1020 559l-16 -80h-764q-7 -47 -7 -73q0 -125 62.5 -196t177.5 -71q106 0 180 48.5t142 154.5l147 -72q-103 -152 -219.5 -219t-280.5 -67
q-178 0 -284 118q-107 119 -107 316q0 243 172 436q174 195 426 195q176 0 278.5 -104.5t102.5 -282.5q0 -38 -10 -103zM618 893q-111 0 -202.5 -70.5t-136.5 -187.5h569q0 258 -230 258z" />
    <glyph glyph-name="Eogonek" unicode="&#x118;" horiz-adv-x="1153" 
d="M72 0l280 1434h811l-35 -172h-628l-80 -412h512l-33 -172h-512l-98 -506h649l-35 -172h-373q-131 -91 -131 -162q0 -51 52 -51q32 0 58.5 18t70.5 66l73 -72q-63 -78 -120.5 -111.5t-129.5 -33.5q-66 0 -105.5 37t-39.5 100q0 111 143 209h-329z" />
    <glyph glyph-name="eogonek" unicode="&#x119;" horiz-adv-x="1150" 
d="M1020 559l-16 -80h-764q-7 -47 -7 -73q0 -125 62.5 -196t177.5 -71q106 0 180 48.5t142 154.5l147 -72q-103 -152 -219.5 -219t-280.5 -67h-20q-131 -91 -131 -162q0 -51 51 -51q32 0 58.5 18t70.5 66l74 -72q-63 -78 -120.5 -111.5t-129.5 -33.5q-66 0 -105.5 37
t-39.5 100q0 116 163 221h21q-106 24 -176 106q-107 119 -107 316q0 243 172 436q174 195 426 195q176 0 278.5 -104.5t102.5 -282.5q0 -38 -10 -103zM618 893q-111 0 -202.5 -70.5t-136.5 -187.5h569q0 258 -230 258z" />
    <glyph glyph-name="Ecaron" unicode="&#x11a;" horiz-adv-x="1153" 
d="M993 1909h201l-367 -336h-63l-254 336h182l125 -164zM72 0l280 1434h811l-35 -172h-628l-80 -412h512l-33 -172h-512l-98 -506h649l-35 -172h-831z" />
    <glyph glyph-name="ecaron" unicode="&#x11b;" horiz-adv-x="1150" 
d="M881 1507h200l-366 -336h-64l-254 336h183l125 -164zM1020 559l-16 -80h-764q-7 -47 -7 -73q0 -125 62.5 -196t177.5 -71q106 0 180 48.5t142 154.5l147 -72q-103 -152 -219.5 -219t-280.5 -67q-178 0 -284 118q-107 119 -107 316q0 243 172 436q174 195 426 195
q176 0 278.5 -104.5t102.5 -282.5q0 -38 -10 -103zM618 893q-111 0 -202.5 -70.5t-136.5 -187.5h569q0 258 -230 258z" />
    <glyph glyph-name="Gcircumflex" unicode="&#x11c;" horiz-adv-x="1429" 
d="M756 1573h-201l367 336h63l254 -336h-182l-125 164zM1079 551h-295l33 172h483l-141 -723h-155l18 197q-87 -113 -188.5 -163t-247.5 -50q-213 0 -359 149q-147 150 -147 434q0 229 90 432q90 197 276 324t426 127q205 0 332 -121q130 -121 139 -311l-180 -47
q-40 307 -323 307q-253 0 -412 -203q-160 -204 -160 -481q0 -213 91 -325.5t262 -112.5q166 0 286.5 105t171.5 290z" />
    <glyph glyph-name="gcircumflex" unicode="&#x11d;" horiz-adv-x="1044" 
d="M854 1223h-201l367 336h63l254 -336h-182l-125 163zM172 637q0 180 115 295q117 117 305 117q101 0 186 -48l193 99l61 -135l-153 -78q22 -55 22 -131q0 -172 -121 -287q-119 -113 -301 -113q-89 0 -166 41q-96 -38 -96 -112q0 -33 25 -55.5t67 -22.5h236q289 0 289 -248
q0 -191 -150 -293q-144 -100 -362 -100q-161 0 -265 82q-104 79 -104 213q0 152 135 260q-43 46 -43 129q0 143 172 231q-45 65 -45 156zM494 59h-199q-20 0 -74 4q-94 -49 -94 -165q0 -84 56.5 -134.5t168.5 -50.5q123 0 209 51q90 53 90 164q0 131 -157 131zM571 901
q-98 0 -162.5 -65.5t-64.5 -167.5q0 -78 42.5 -121t115.5 -43q98 0 162.5 63t64.5 164q0 83 -42 126.5t-116 43.5z" />
    <glyph glyph-name="Gbreve" unicode="&#x11e;" horiz-adv-x="1429" 
d="M1030 1796h137q-26 -105 -98 -164t-172 -59q-82 0 -135 49.5t-53 128.5q0 9 4 45h137q-2 -6 -2 -20q0 -32 21 -52t53 -20q90 0 108 92zM1079 551h-295l33 172h483l-141 -723h-155l18 197q-87 -113 -188.5 -163t-247.5 -50q-213 0 -359 149q-147 150 -147 434
q0 229 90 432q90 197 276 324t426 127q205 0 332 -121q130 -121 139 -311l-180 -47q-40 307 -323 307q-253 0 -412 -203q-160 -204 -160 -481q0 -213 91 -325.5t262 -112.5q166 0 286.5 105t171.5 290z" />
    <glyph glyph-name="gbreve" unicode="&#x11f;" horiz-adv-x="1044" 
d="M1128 1446h138q-26 -105 -98.5 -164t-172.5 -59q-82 0 -135 49.5t-53 128.5q0 9 4 45h137q-2 -6 -2 -21q0 -32 20.5 -51.5t53.5 -19.5q90 0 108 92zM172 637q0 180 115 295q117 117 305 117q101 0 186 -48l193 99l61 -135l-153 -78q22 -55 22 -131q0 -172 -121 -287
q-119 -113 -301 -113q-89 0 -166 41q-96 -38 -96 -112q0 -33 25 -55.5t67 -22.5h236q289 0 289 -248q0 -191 -150 -293q-144 -100 -362 -100q-161 0 -265 82q-104 79 -104 213q0 152 135 260q-43 46 -43 129q0 143 172 231q-45 65 -45 156zM494 59h-199q-20 0 -74 4
q-94 -49 -94 -165q0 -84 56.5 -134.5t168.5 -50.5q123 0 209 51q90 53 90 164q0 131 -157 131zM571 901q-98 0 -162.5 -65.5t-64.5 -167.5q0 -78 42.5 -121t115.5 -43q98 0 162.5 63t64.5 164q0 83 -42 126.5t-116 43.5z" />
    <glyph glyph-name="Gdotaccent" unicode="&#x120;" horiz-adv-x="1429" 
d="M793 1700q0 55 37.5 93t91.5 38q55 0 92 -37.5t37 -93.5q0 -54 -37 -90.5t-92 -36.5q-54 0 -91.5 36.5t-37.5 90.5zM1079 551h-295l33 172h483l-141 -723h-155l18 197q-87 -113 -188.5 -163t-247.5 -50q-213 0 -359 149q-147 150 -147 434q0 229 90 432q90 197 276 324
t426 127q205 0 332 -121q130 -121 139 -311l-180 -47q-40 307 -323 307q-253 0 -412 -203q-160 -204 -160 -481q0 -213 91 -325.5t262 -112.5q166 0 286.5 105t171.5 290z" />
    <glyph glyph-name="gdotaccent" unicode="&#x121;" horiz-adv-x="1044" 
d="M891 1350q0 55 37.5 93t91.5 38q55 0 92 -37.5t37 -93.5q0 -54 -37 -90.5t-92 -36.5q-54 0 -91.5 36.5t-37.5 90.5zM172 637q0 180 115 295q117 117 305 117q101 0 186 -48l193 99l61 -135l-153 -78q22 -55 22 -131q0 -172 -121 -287q-119 -113 -301 -113q-89 0 -166 41
q-96 -38 -96 -112q0 -33 25 -55.5t67 -22.5h236q289 0 289 -248q0 -191 -150 -293q-144 -100 -362 -100q-161 0 -265 82q-104 79 -104 213q0 152 135 260q-43 46 -43 129q0 143 172 231q-45 65 -45 156zM494 59h-199q-20 0 -74 4q-94 -49 -94 -165q0 -84 56.5 -134.5
t168.5 -50.5q123 0 209 51q90 53 90 164q0 131 -157 131zM571 901q-98 0 -162.5 -65.5t-64.5 -167.5q0 -78 42.5 -121t115.5 -43q98 0 162.5 63t64.5 164q0 83 -42 126.5t-116 43.5z" />
    <glyph glyph-name="Gcommaaccent" unicode="&#x122;" horiz-adv-x="1429" 
d="M424 -584h-129l209 445h239zM1079 551h-295l33 172h483l-141 -723h-155l18 197q-87 -113 -188.5 -163t-247.5 -50q-213 0 -359 149q-147 150 -147 434q0 229 90 432q90 197 276 324t426 127q205 0 332 -121q130 -121 139 -311l-180 -47q-40 307 -323 307
q-253 0 -412 -203q-160 -204 -160 -481q0 -213 91 -325.5t262 -112.5q166 0 286.5 105t171.5 290z" />
    <glyph glyph-name="Hcircumflex" unicode="&#x124;" horiz-adv-x="1423" 
d="M739 1573h-200l366 336h64l254 -336h-183l-125 164zM1055 848l114 586h183l-281 -1434h-182l133 676h-635l-133 -676h-182l280 1434h183l-115 -586h635z" />
    <glyph glyph-name="hcircumflex" unicode="&#x125;" horiz-adv-x="1196" 
d="M641 1573h-201l367 336h63l254 -336h-182l-125 164zM1028 717l-139 -717h-174l131 682q6 38 6 74q0 137 -141 137q-115 0 -236 -127q-115 -124 -156 -328l-83 -438h-175l281 1450h174l-119 -610q150 209 389 209q117 0 184.5 -60.5t67.5 -169.5q0 -37 -10 -102z" />
    <glyph glyph-name="Itilde" unicode="&#x128;" horiz-adv-x="606" 
d="M215 1583l-84 86q111 150 248 150q73 0 135 -41q65 -41 111 -41q78 0 149 71l84 -88q-111 -147 -248 -147q-72 0 -137 41q-62 41 -108 41q-78 0 -150 -72zM72 0l280 1434h183l-281 -1434h-182z" />
    <glyph glyph-name="itilde" unicode="&#x129;" horiz-adv-x="565" 
d="M121 1182l-84 86q110 149 248 149q73 0 135 -41q65 -41 110 -41q78 0 150 72l84 -88q-112 -148 -248 -148q-72 0 -137 41q-62 41 -109 41q-78 0 -149 -71zM61 0l201 1032h174l-200 -1032h-175z" />
    <glyph glyph-name="Imacron" unicode="&#x12a;" horiz-adv-x="606" 
d="M725 1573h-510l31 156h510zM72 0l280 1434h183l-281 -1434h-182z" />
    <glyph glyph-name="imacron" unicode="&#x12b;" horiz-adv-x="565" 
d="M631 1171h-510l31 156h510zM61 0l201 1032h174l-200 -1032h-175z" />
    <glyph glyph-name="Ibreve" unicode="&#x12c;" horiz-adv-x="606" 
d="M604 1796h137q-26 -105 -98 -164t-172 -59q-82 0 -135 49.5t-53 128.5q0 9 4 45h137q-2 -6 -2 -20q0 -32 21 -52t53 -20q90 0 108 92zM72 0l280 1434h183l-281 -1434h-182z" />
    <glyph glyph-name="ibreve" unicode="&#x12d;" horiz-adv-x="565" 
d="M510 1395h137q-26 -105 -98 -164.5t-172 -59.5q-82 0 -135.5 50t-53.5 129l5 45h137q-2 -6 -2 -21q0 -32 20.5 -51.5t52.5 -19.5q91 0 109 92zM61 0l201 1032h174l-200 -1032h-175z" />
    <glyph glyph-name="Iogonek" unicode="&#x12e;" horiz-adv-x="606" 
d="M35 12h39l278 1422h183l-281 -1434h-111q-131 -91 -131 -162q0 -51 51 -51q32 0 59.5 18t70.5 66l73 -72q-63 -78 -120.5 -111.5t-129.5 -33.5q-66 0 -105.5 37t-39.5 100q0 116 164 221z" />
    <glyph glyph-name="iogonek" unicode="&#x12f;" horiz-adv-x="565" 
d="M20 12h43l199 1020h174l-200 -1032h-107q-131 -91 -131 -162q0 -51 51 -51q32 0 58.5 18t70.5 66l74 -72q-63 -78 -120.5 -111.5t-129.5 -33.5q-66 0 -105.5 37t-39.5 100q0 116 163 221zM270 1319q0 56 37 93.5t92 37.5t92 -37.5t37 -93.5q0 -54 -37 -90.5t-92 -36.5
t-92 36.5t-37 90.5z" />
    <glyph glyph-name="Idot" unicode="&#x130;" horiz-adv-x="606" 
d="M367 1700q0 55 37.5 93t91.5 38q55 0 92 -37.5t37 -93.5q0 -54 -37 -90.5t-92 -36.5q-54 0 -91.5 36.5t-37.5 90.5zM72 0l280 1434h183l-281 -1434h-182z" />
    <glyph glyph-name="dotlessi" unicode="&#x131;" horiz-adv-x="565" 
d="M61 0l201 1032h174l-200 -1032h-175z" />
    <glyph glyph-name="IJ" unicode="&#x132;" horiz-adv-x="1714" 
d="M1280 449l190 985h183l-205 -1055q-36 -192 -158.5 -293.5t-308.5 -101.5q-164 0 -264 112q-101 113 -101 262l183 39q0 -241 202 -241q220 0 279 293zM72 0l280 1434h183l-281 -1434h-182z" />
    <glyph glyph-name="ij" unicode="&#x133;" horiz-adv-x="1130" 
d="M401 -434l-16 168q110 28 163.5 76.5t72.5 152.5l206 1069h174l-210 -1085q-35 -179 -126 -267t-264 -114zM836 1319q0 56 37 93.5t92 37.5t92 -37.5t37 -93.5q0 -54 -37 -90.5t-92 -36.5t-92 36.5t-37 90.5zM61 0l201 1032h174l-200 -1032h-175zM270 1319q0 56 37 93.5
t92 37.5t92 -37.5t37 -93.5q0 -54 -37 -90.5t-92 -36.5t-92 36.5t-37 90.5z" />
    <glyph glyph-name="Jcircumflex" unicode="&#x134;" horiz-adv-x="1107" 
d="M842 1573h-201l367 336h63l254 -336h-182l-125 164zM674 449l190 985h183l-205 -1055q-36 -192 -158.5 -293.5t-308.5 -101.5q-164 0 -264 112q-101 113 -101 262l183 39q0 -241 202 -241q220 0 279 293z" />
    <glyph glyph-name="jcircumflex" unicode="&#x135;" horiz-adv-x="565" 
d="M283 1573h-201l367 336h63l254 -336h-182l-125 164zM-164 -434l-16 168q110 28 163 76t72 153l207 1069h174l-211 -1085q-35 -179 -125.5 -267t-263.5 -114zM270 1319q0 56 37 93.5t92 37.5t92 -37.5t37 -93.5q0 -54 -37 -90.5t-92 -36.5t-92 36.5t-37 90.5z" />
    <glyph glyph-name="Kcommaaccent" unicode="&#x136;" horiz-adv-x="1222" 
d="M393 -567h-129l209 444h240zM580 782l458 -782h-221l-422 723l-141 -723h-182l280 1434h183l-113 -576l610 576h246z" />
    <glyph glyph-name="kcommaaccent" unicode="&#x137;" horiz-adv-x="1040" 
d="M303 -567h-129l209 444h240zM61 0l281 1450h174l-164 -850l443 432h235l-510 -483l350 -549h-211l-323 518l-100 -518h-175z" />
    <glyph glyph-name="Lacute" unicode="&#x139;" horiz-adv-x="1036" 
d="M860 1573h-147l198 295h252zM72 0l280 1434h183l-246 -1262h631l-35 -172h-813z" />
    <glyph glyph-name="lacute" unicode="&#x13a;" horiz-adv-x="626" 
d="M565 1573h-147l198 295h252zM100 0l281 1450h174l-281 -1450h-174z" />
    <glyph glyph-name="Lcommaaccent" unicode="&#x13b;" horiz-adv-x="1036" 
d="M315 -567h-129l209 444h240zM72 0l280 1434h183l-246 -1262h631l-35 -172h-813z" />
    <glyph glyph-name="lcommaaccent" unicode="&#x13c;" horiz-adv-x="626" 
d="M25 -567h-129l208 444h240zM100 0l281 1450h174l-281 -1450h-174z" />
    <glyph glyph-name="Lcaron" unicode="&#x13d;" horiz-adv-x="1036" 
d="M1393 1006h-129l209 444h239zM72 0l280 1434h183l-246 -1262h631l-35 -172h-813z" />
    <glyph glyph-name="lcaron" unicode="&#x13e;" horiz-adv-x="626" 
d="M782 1006h-129l209 444h240zM100 0l281 1450h174l-281 -1450h-174z" />
    <glyph glyph-name="Ldot" unicode="&#x13f;" horiz-adv-x="1036" 
d="M489 725q0 54 37 91.5t92 37.5q54 0 92 -37.5t38 -91.5q0 -55 -38 -92t-92 -37q-56 0 -92.5 37t-36.5 92zM72 0l280 1434h183l-246 -1262h631l-35 -172h-813z" />
    <glyph glyph-name="ldot" unicode="&#x140;" horiz-adv-x="1189" 
d="M791 715q0 54 37 91.5t92 37.5q54 0 91.5 -37.5t37.5 -91.5q0 -55 -37.5 -92t-91.5 -37q-56 0 -92.5 37t-36.5 92zM100 0l281 1450h174l-281 -1450h-174z" />
    <glyph glyph-name="Lslash" unicode="&#x141;" horiz-adv-x="1036" 
d="M211 715l141 719h183l-121 -619l264 133l49 -133l-348 -174l-90 -469h631l-35 -172h-813l106 541l-147 -74l-47 133z" />
    <glyph glyph-name="lslash" unicode="&#x142;" horiz-adv-x="663" 
d="M266 778l129 672h174l-112 -578l151 76l47 -133l-231 -115l-135 -700h-174l116 604l-149 -74l-45 134z" />
    <glyph glyph-name="Nacute" unicode="&#x143;" horiz-adv-x="1445" 
d="M965 1573h-148l199 295h252zM973 313l219 1121h182l-280 -1434h-203l-420 1116l-217 -1116h-182l280 1434h203z" />
    <glyph glyph-name="nacute" unicode="&#x144;" 
d="M770 1171h-147l198 295h252zM1016 727l-142 -727h-174l131 682q9 50 9 72q0 139 -138 139q-110 0 -227 -129q-115 -127 -156 -332l-83 -432h-175l201 1032h174l-37 -190q157 207 373 207q118 0 184 -60t66 -166q0 -49 -6 -96z" />
    <glyph glyph-name="Ncommaaccent" unicode="&#x145;" horiz-adv-x="1445" 
d="M420 -567h-129l209 444h239zM973 313l219 1121h182l-280 -1434h-203l-420 1116l-217 -1116h-182l280 1434h203z" />
    <glyph glyph-name="ncommaaccent" unicode="&#x146;" 
d="M305 -567h-129l209 444h240zM1016 727l-142 -727h-174l131 682q9 50 9 72q0 139 -138 139q-110 0 -227 -129q-115 -127 -156 -332l-83 -432h-175l201 1032h174l-37 -190q157 207 373 207q118 0 184 -60t66 -166q0 -49 -6 -96z" />
    <glyph glyph-name="Ncaron" unicode="&#x147;" horiz-adv-x="1445" 
d="M1098 1909h200l-366 -336h-64l-254 336h183l125 -164zM973 313l219 1121h182l-280 -1434h-203l-420 1116l-217 -1116h-182l280 1434h203z" />
    <glyph glyph-name="ncaron" unicode="&#x148;" 
d="M903 1507h201l-367 -336h-63l-254 336h182l125 -164zM1016 727l-142 -727h-174l131 682q9 50 9 72q0 139 -138 139q-110 0 -227 -129q-115 -127 -156 -332l-83 -432h-175l201 1032h174l-37 -190q157 207 373 207q118 0 184 -60t66 -166q0 -49 -6 -96z" />
    <glyph glyph-name="Omacron" unicode="&#x14c;" horiz-adv-x="1460" 
d="M1149 1573h-510l31 156h510zM870 1450q227 0 365 -156q141 -153 141 -424q0 -449 -309 -712q-201 -174 -481 -174q-226 0 -367 153q-139 157 -139 426q0 450 309 713q201 174 481 174zM840 1278q-216 0 -371 -168q-201 -213 -201 -530q0 -205 89 -314.5t259 -109.5
q216 0 371 168q201 213 201 530q0 205 -89 314.5t-259 109.5z" />
    <glyph glyph-name="omacron" unicode="&#x14d;" horiz-adv-x="1173" 
d="M911 1171h-510l31 156h510zM55 418q0 253 142 430q165 201 436 201q191 0 299 -115.5t108 -319.5q0 -255 -141 -430q-164 -200 -436 -200q-191 0 -299.5 115t-108.5 319zM616 893q-171 0 -286 -145q-92 -118 -92 -306q0 -144 62 -223.5t179 -79.5q171 0 287 146
q92 118 92 305q0 144 -62.5 223.5t-179.5 79.5z" />
    <glyph glyph-name="Obreve" unicode="&#x14e;" horiz-adv-x="1460" 
d="M1028 1796h137q-26 -105 -98 -164t-172 -59q-82 0 -135 49.5t-53 128.5q0 9 4 45h137q-2 -6 -2 -20q0 -32 21 -52t53 -20q90 0 108 92zM870 1450q227 0 365 -156q141 -153 141 -424q0 -449 -309 -712q-201 -174 -481 -174q-226 0 -367 153q-139 157 -139 426
q0 450 309 713q201 174 481 174zM840 1278q-216 0 -371 -168q-201 -213 -201 -530q0 -205 89 -314.5t259 -109.5q216 0 371 168q201 213 201 530q0 205 -89 314.5t-259 109.5z" />
    <glyph glyph-name="obreve" unicode="&#x14f;" horiz-adv-x="1173" 
d="M791 1395h137q-26 -105 -98.5 -164.5t-172.5 -59.5q-82 0 -135 50t-53 129q0 9 4 45h137q-2 -6 -2 -21q0 -32 20.5 -51.5t53.5 -19.5q91 0 109 92zM55 418q0 253 142 430q165 201 436 201q191 0 299 -115.5t108 -319.5q0 -255 -141 -430q-164 -200 -436 -200
q-191 0 -299.5 115t-108.5 319zM616 893q-171 0 -286 -145q-92 -118 -92 -306q0 -144 62 -223.5t179 -79.5q171 0 287 146q92 118 92 305q0 144 -62.5 223.5t-179.5 79.5z" />
    <glyph glyph-name="Ohungarumlaut" unicode="&#x150;" horiz-adv-x="1460" 
d="M784 1573h-147l199 295h251zM1153 1573h-147l198 295h252zM870 1450q227 0 365 -156q141 -153 141 -424q0 -449 -309 -712q-201 -174 -481 -174q-226 0 -367 153q-139 157 -139 426q0 450 309 713q201 174 481 174zM840 1278q-216 0 -371 -168q-201 -213 -201 -530
q0 -205 89 -314.5t259 -109.5q216 0 371 168q201 213 201 530q0 205 -89 314.5t-259 109.5z" />
    <glyph glyph-name="ohungarumlaut" unicode="&#x151;" horiz-adv-x="1173" 
d="M547 1171h-148l199 295h252zM915 1171h-147l199 295h252zM55 418q0 253 142 430q165 201 436 201q191 0 299 -115.5t108 -319.5q0 -255 -141 -430q-164 -200 -436 -200q-191 0 -299.5 115t-108.5 319zM616 893q-171 0 -286 -145q-92 -118 -92 -306q0 -144 62 -223.5
t179 -79.5q171 0 287 146q92 118 92 305q0 144 -62.5 223.5t-179.5 79.5z" />
    <glyph glyph-name="OE" unicode="&#x152;" horiz-adv-x="2125" 
d="M1284 1229l41 205h811l-35 -172h-628l-80 -412h512l-33 -172h-512l-98 -506h649l-35 -172h-832l33 166l-10 -8q-201 -174 -481 -174q-226 0 -367 153q-139 157 -139 426q0 450 309 713q201 174 481 174q279 0 414 -221zM840 1278q-216 0 -371 -168q-201 -213 -201 -530
q0 -205 89 -314.5t259 -109.5q219 0 375 166q197 209 197 532q0 205 -89 314.5t-259 109.5z" />
    <glyph glyph-name="oe" unicode="&#x153;" horiz-adv-x="1945" 
d="M1815 559l-17 -80h-766q-6 -41 -6 -73q0 -124 63 -195.5t179 -71.5q106 0 179.5 48.5t141.5 154.5l148 -72q-103 -152 -219.5 -219t-280.5 -67q-237 0 -338 198q-162 -198 -436 -198q-185 0 -296.5 116.5t-111.5 317.5q0 253 142 430q165 201 436 201t366 -222
q183 222 445 222q176 0 278.5 -104.5t102.5 -282.5q0 -38 -10 -103zM616 893q-171 0 -286 -145q-92 -118 -92 -306q0 -146 62 -224.5t179 -78.5q173 0 289 146q90 116 90 305q0 146 -62.5 224.5t-179.5 78.5zM1413 893q-111 0 -203 -70.5t-137 -187.5h569q0 258 -229 258z
" />
    <glyph glyph-name="Racute" unicode="&#x154;" horiz-adv-x="1220" 
d="M682 1573h-147l198 295h252zM1085 0h-202l-285 676h-211l-133 -676h-182l280 1434h455q170 0 267 -86t97 -236q0 -178 -100 -289.5t-278 -134.5zM778 1262h-278l-80 -414h285q133 0 205.5 58.5t72.5 172.5q0 183 -205 183z" />
    <glyph glyph-name="racute" unicode="&#x155;" horiz-adv-x="894" 
d="M672 1171h-148l199 295h252zM877 1018l-64 -154q-56 29 -108 29q-115 0 -226 -105q-107 -104 -153 -331l-90 -457h-175l201 1032h174l-35 -176q123 193 334 193q91 0 142 -31z" />
    <glyph glyph-name="Rcommaaccent" unicode="&#x156;" horiz-adv-x="1220" 
d="M416 -567h-129l209 444h239zM1085 0h-202l-285 676h-211l-133 -676h-182l280 1434h455q170 0 267 -86t97 -236q0 -178 -100 -289.5t-278 -134.5zM778 1262h-278l-80 -414h285q133 0 205.5 58.5t72.5 172.5q0 183 -205 183z" />
    <glyph glyph-name="rcommaaccent" unicode="&#x157;" horiz-adv-x="894" 
d="M-14 -567h-129l209 444h239zM877 1018l-64 -154q-56 29 -108 29q-115 0 -226 -105q-107 -104 -153 -331l-90 -457h-175l201 1032h174l-35 -176q123 193 334 193q91 0 142 -31z" />
    <glyph glyph-name="Rcaron" unicode="&#x158;" horiz-adv-x="1220" 
d="M815 1909h201l-367 -336h-63l-254 336h182l125 -164zM1085 0h-202l-285 676h-211l-133 -676h-182l280 1434h455q170 0 267 -86t97 -236q0 -178 -100 -289.5t-278 -134.5zM778 1262h-278l-80 -414h285q133 0 205.5 58.5t72.5 172.5q0 183 -205 183z" />
    <glyph glyph-name="rcaron" unicode="&#x159;" horiz-adv-x="894" 
d="M805 1507h201l-367 -336h-64l-253 336h182l125 -164zM877 1018l-64 -154q-56 29 -108 29q-115 0 -226 -105q-107 -104 -153 -331l-90 -457h-175l201 1032h174l-35 -176q123 193 334 193q91 0 142 -31z" />
    <glyph glyph-name="Sacute" unicode="&#x15a;" horiz-adv-x="1071" 
d="M776 1573h-147l198 295h252zM997 1196l-155 -86q-61 168 -197 168q-93 0 -146 -53t-53 -146q0 -58 24.5 -101t70.5 -76.5t133 -78.5q72 -37 113.5 -66t82.5 -71q76 -79 76 -229q0 -217 -135 -340q-80 -74 -167 -103.5t-212 -29.5q-153 0 -270 114q-117 117 -117 279
l164 88q11 -142 77.5 -225.5t184.5 -83.5q127 0 207 71t80 197q0 94 -48 148t-171 114q-281 139 -281 367q0 186 115.5 291.5t304.5 105.5q119 0 205.5 -72.5t113.5 -181.5z" />
    <glyph glyph-name="sacute" unicode="&#x15b;" horiz-adv-x="942" 
d="M629 1171h-148l199 295h252zM530 1049q97 0 176.5 -46t120.5 -126l-135 -101q-76 117 -182 117q-61 0 -100 -35t-39 -94q0 -51 34.5 -86t106.5 -68q62 -27 96 -46t74 -52q88 -64 88 -188q0 -156 -103 -248t-270 -92q-150 0 -250 86q-99 89 -114 206l151 74
q43 -211 234 -211q77 0 123.5 42t46.5 110q0 77 -53 117q-10 8 -20 14t-16.5 10.5t-20 11t-19.5 9t-27.5 12t-32.5 14.5q-202 88 -202 275q0 136 90 215.5t243 79.5z" />
    <glyph glyph-name="Scircumflex" unicode="&#x15c;" horiz-adv-x="1071" 
d="M561 1573h-201l367 336h64l253 -336h-182l-125 164zM997 1196l-155 -86q-61 168 -197 168q-93 0 -146 -53t-53 -146q0 -58 24.5 -101t70.5 -76.5t133 -78.5q72 -37 113.5 -66t82.5 -71q76 -79 76 -229q0 -217 -135 -340q-80 -74 -167 -103.5t-212 -29.5q-153 0 -270 114
q-117 117 -117 279l164 88q11 -142 77.5 -225.5t184.5 -83.5q127 0 207 71t80 197q0 94 -48 148t-171 114q-281 139 -281 367q0 186 115.5 291.5t304.5 105.5q119 0 205.5 -72.5t113.5 -181.5z" />
    <glyph glyph-name="scircumflex" unicode="&#x15d;" horiz-adv-x="942" 
d="M414 1171h-201l367 336h63l254 -336h-182l-125 164zM530 1049q97 0 176.5 -46t120.5 -126l-135 -101q-76 117 -182 117q-61 0 -100 -35t-39 -94q0 -51 34.5 -86t106.5 -68q62 -27 96 -46t74 -52q88 -64 88 -188q0 -156 -103 -248t-270 -92q-150 0 -250 86
q-99 89 -114 206l151 74q43 -211 234 -211q77 0 123.5 42t46.5 110q0 77 -53 117q-10 8 -20 14t-16.5 10.5t-20 11t-19.5 9t-27.5 12t-32.5 14.5q-202 88 -202 275q0 136 90 215.5t243 79.5z" />
    <glyph glyph-name="Scedilla" unicode="&#x15e;" horiz-adv-x="1071" 
d="M997 1196l-155 -86q-61 168 -197 168q-93 0 -146 -53t-53 -146q0 -58 24.5 -101t70.5 -76.5t133 -78.5q72 -37 113.5 -66t82.5 -71q76 -79 76 -229q0 -217 -135 -340q-80 -74 -166.5 -103.5t-210.5 -29.5l-219 -346l-182 92l258 266h45q-97 25 -174 102
q-117 117 -117 279l164 88q11 -142 77.5 -225.5t184.5 -83.5q127 0 207 71t80 197q0 94 -48 148t-171 114q-281 139 -281 367q0 186 115.5 291.5t304.5 105.5q119 0 205.5 -72.5t113.5 -181.5z" />
    <glyph glyph-name="scedilla" unicode="&#x15f;" horiz-adv-x="942" 
d="M530 1049q97 0 176.5 -46t120.5 -126l-135 -101q-76 117 -182 117q-61 0 -100 -35t-39 -94q0 -51 34.5 -86t106.5 -68q62 -27 96 -46t74 -52q88 -64 88 -188q0 -156 -102.5 -247t-268.5 -93l-219 -346l-182 92l258 266h33q-79 17 -142 74q-99 89 -114 206l151 74
q43 -211 234 -211q77 0 123.5 42t46.5 110q0 77 -53 117q-10 8 -20 14t-16.5 10.5t-20 11t-19.5 9t-27.5 12t-32.5 14.5q-202 88 -202 275q0 136 90 215.5t243 79.5z" />
    <glyph glyph-name="Scaron" unicode="&#x160;" horiz-adv-x="1071" 
d="M997 1196l-155 -86q-61 168 -197 168q-93 0 -146 -53t-53 -146q0 -58 24.5 -101t70.5 -76.5t133 -78.5q72 -37 113.5 -66t82.5 -71q76 -79 76 -229q0 -217 -135 -340q-80 -74 -167 -103.5t-212 -29.5q-153 0 -270 114q-117 117 -117 279l164 88q11 -142 77.5 -225.5
t184.5 -83.5q127 0 207 71t80 197q0 94 -48 148t-171 114q-281 139 -281 367q0 186 115.5 291.5t304.5 105.5q119 0 205.5 -72.5t113.5 -181.5zM881 1896h200l-366 -335h-64l-254 335h183l125 -163z" />
    <glyph glyph-name="scaron" unicode="&#x161;" horiz-adv-x="942" 
d="M530 1049q97 0 176.5 -46t120.5 -126l-135 -101q-76 117 -182 117q-61 0 -100 -35t-39 -94q0 -51 34.5 -86t106.5 -68q62 -27 96 -46t74 -52q88 -64 88 -188q0 -156 -103 -248t-270 -92q-150 0 -250 86q-99 89 -114 206l151 74q43 -211 234 -211q77 0 123.5 42t46.5 110
q0 77 -53 117q-10 8 -20 14t-16.5 10.5t-20 11t-19.5 9t-27.5 12t-32.5 14.5q-202 88 -202 275q0 136 90 215.5t243 79.5zM772 1495h201l-367 -336h-63l-254 336h182l125 -164z" />
    <glyph glyph-name="Tcommaaccent" unicode="&#x162;" horiz-adv-x="1038" 
d="M528 1262h-403l35 172h989l-35 -172h-403l-246 -1262h-88l-219 -346l-183 92l258 266h52z" />
    <glyph glyph-name="tcommaaccent" unicode="&#x163;" horiz-adv-x="716" 
d="M238 877h-179l29 155h178l62 309l192 109l-82 -418h260l-28 -155h-260l-107 -549q-10 -58 -10 -74q0 -115 110 -115q67 0 123 33l13 -149q-74 -39 -174 -39l-220 -346l-182 92l258 266h47q-149 45 -149 227q0 39 14 119z" />
    <glyph glyph-name="Tcaron" unicode="&#x164;" horiz-adv-x="1038" 
d="M889 1909h201l-367 -336h-64l-253 336h182l125 -164zM528 1262h-403l35 172h989l-35 -172h-403l-246 -1262h-182z" />
    <glyph glyph-name="tcaron" unicode="&#x165;" horiz-adv-x="716" 
d="M238 877h-179l29 155h178l62 309l192 109l-82 -418h193l196 418h240l-319 -444h-56l-22 -129h-260l-107 -549q-10 -58 -10 -74q0 -115 110 -115q67 0 123 33l13 -149q-74 -39 -177 -39q-117 0 -180 61t-63 178q0 39 14 119z" />
    <glyph glyph-name="Utilde" unicode="&#x168;" horiz-adv-x="1376" 
d="M604 1583l-84 86q111 150 248 150q73 0 135 -41q65 -41 111 -41q78 0 149 71l84 -88q-111 -147 -248 -147q-72 0 -137 41q-62 41 -108 41q-78 0 -150 -72zM156 487l182 947h182l-186 -959q-8 -47 -8 -82q0 -237 249 -237q155 0 253.5 83t127.5 236l187 959h182l-182 -947
q-94 -503 -590 -503q-185 0 -297 100q-113 101 -113 266q0 67 13 137z" />
    <glyph glyph-name="utilde" unicode="&#x169;" 
d="M432 1182l-84 86q110 149 248 149q73 0 135 -41q65 -41 111 -41q77 0 149 72l84 -88q-112 -148 -248 -148q-72 0 -137 41q-62 41 -108 41q-79 0 -150 -71zM113 305l141 727h174l-131 -682q-8 -44 -8 -71q0 -140 137 -140q110 0 227 129q115 127 156 332l84 432h174
l-201 -1032h-174l37 190q-156 -206 -373 -206q-118 0 -184 59.5t-66 165.5q0 42 7 96z" />
    <glyph glyph-name="Umacron" unicode="&#x16a;" horiz-adv-x="1376" 
d="M1114 1573h-510l31 156h510zM156 487l182 947h182l-186 -959q-8 -47 -8 -82q0 -237 249 -237q155 0 253.5 83t127.5 236l187 959h182l-182 -947q-94 -503 -590 -503q-185 0 -297 100q-113 101 -113 266q0 67 13 137z" />
    <glyph glyph-name="umacron" unicode="&#x16b;" 
d="M942 1171h-510l31 156h510zM113 305l141 727h174l-131 -682q-8 -44 -8 -71q0 -140 137 -140q110 0 227 129q115 127 156 332l84 432h174l-201 -1032h-174l37 190q-156 -206 -373 -206q-118 0 -184 59.5t-66 165.5q0 42 7 96z" />
    <glyph glyph-name="Ubreve" unicode="&#x16c;" horiz-adv-x="1376" 
d="M993 1796h137q-26 -105 -98 -164t-172 -59q-82 0 -135 49.5t-53 128.5q0 9 4 45h137q-2 -6 -2 -20q0 -32 21 -52t53 -20q90 0 108 92zM156 487l182 947h182l-186 -959q-8 -47 -8 -82q0 -237 249 -237q155 0 253.5 83t127.5 236l187 959h182l-182 -947q-94 -503 -590 -503
q-185 0 -297 100q-113 101 -113 266q0 67 13 137z" />
    <glyph glyph-name="ubreve" unicode="&#x16d;" 
d="M821 1395h137q-26 -105 -98 -164.5t-172 -59.5q-82 0 -135 50t-53 129q0 9 4 45h137q-2 -6 -2 -21q0 -32 20.5 -51.5t53.5 -19.5q90 0 108 92zM113 305l141 727h174l-131 -682q-8 -44 -8 -71q0 -140 137 -140q110 0 227 129q115 127 156 332l84 432h174l-201 -1032h-174
l37 190q-156 -206 -373 -206q-118 0 -184 59.5t-66 165.5q0 42 7 96z" />
    <glyph glyph-name="Uring" unicode="&#x16e;" horiz-adv-x="1376" 
d="M694 1769q0 86 58.5 145.5t144.5 59.5q87 0 145 -59t58 -146q0 -85 -57.5 -140.5t-145.5 -55.5q-87 0 -145 56t-58 140zM809 1772q-5 -55 41.5 -78t93 0t41.5 78q5 58 -41.5 82t-93 0t-41.5 -82zM156 487l182 947h182l-186 -959q-8 -47 -8 -82q0 -237 249 -237
q155 0 253.5 83t127.5 236l187 959h182l-182 -947q-94 -503 -590 -503q-185 0 -297 100q-113 101 -113 266q0 67 13 137z" />
    <glyph glyph-name="uring" unicode="&#x16f;" 
d="M524 1368q0 86 58.5 145.5t144.5 59.5q87 0 145 -59t58 -146q0 -85 -57.5 -141t-145.5 -56q-87 0 -145 56t-58 141zM639 1370q-5 -55 41.5 -78t93 0t41.5 78q5 58 -41.5 82t-93 0t-41.5 -82zM113 305l141 727h174l-131 -682q-8 -44 -8 -71q0 -140 137 -140q110 0 227 129
q115 127 156 332l84 432h174l-201 -1032h-174l37 190q-156 -206 -373 -206q-118 0 -184 59.5t-66 165.5q0 42 7 96z" />
    <glyph glyph-name="Uhungarumlaut" unicode="&#x170;" horiz-adv-x="1376" 
d="M750 1573h-148l199 295h252zM1118 1573h-147l198 295h252zM156 487l182 947h182l-186 -959q-8 -47 -8 -82q0 -237 249 -237q155 0 253.5 83t127.5 236l187 959h182l-182 -947q-94 -503 -590 -503q-185 0 -297 100q-113 101 -113 266q0 67 13 137z" />
    <glyph glyph-name="uhungarumlaut" unicode="&#x171;" 
d="M578 1171h-148l199 295h252zM946 1171h-147l198 295h252zM113 305l141 727h174l-131 -682q-8 -44 -8 -71q0 -140 137 -140q110 0 227 129q115 127 156 332l84 432h174l-201 -1032h-174l37 190q-156 -206 -373 -206q-118 0 -184 59.5t-66 165.5q0 42 7 96z" />
    <glyph glyph-name="Uogonek" unicode="&#x172;" horiz-adv-x="1376" 
d="M156 487l182 947h182l-186 -959q-8 -47 -8 -82q0 -237 249 -237q155 0 253.5 83t127.5 236l187 959h182l-182 -947q-94 -503 -590 -503h-21q-131 -91 -131 -162q0 -51 52 -51q32 0 58.5 18t70.5 66l73 -72q-63 -78 -120 -111.5t-129 -33.5q-66 0 -106 37t-40 100
q0 116 164 221h6q-96 20 -174 88q-113 101 -113 266q0 67 13 137z" />
    <glyph glyph-name="uogonek" unicode="&#x173;" 
d="M113 305l141 727h174l-131 -682q-8 -44 -8 -71q0 -140 137 -140q110 0 227 129q115 127 156 332l84 432h174l-201 -1032h-174l37 190q-140 -183 -326 -204q-135 -94 -135 -164q0 -51 51 -51q32 0 59.5 18t70.5 66l73 -72q-63 -78 -120.5 -111.5t-129.5 -33.5
q-66 0 -105.5 37t-39.5 100q0 114 154 217q-84 17 -129.5 73t-45.5 144q0 42 7 96z" />
    <glyph glyph-name="Wcircumflex" unicode="&#x174;" horiz-adv-x="1814" 
d="M922 1573h-201l366 336h64l254 -336h-182l-125 164zM1182 266l510 1168h192l-653 -1434h-182l-113 983l-463 -983h-182l-107 1434h191l57 -1168l477 1016h170z" />
    <glyph glyph-name="wcircumflex" unicode="&#x175;" horiz-adv-x="1480" 
d="M676 1171h-201l367 336h63l254 -336h-182l-125 164zM922 231l360 801h182l-501 -1032h-168l-45 780l-351 -780h-168l-118 1032h176l63 -801l355 801h176z" />
    <glyph glyph-name="Ycircumflex" unicode="&#x176;" horiz-adv-x="991" 
d="M508 1573h-201l367 336h63l254 -336h-182l-125 164zM252 0l121 618l-258 816h192l187 -635l430 635h202l-571 -816l-121 -618h-182z" />
    <glyph glyph-name="ycircumflex" unicode="&#x177;" horiz-adv-x="954" 
d="M412 1171h-201l367 336h63l254 -336h-182l-125 164zM385 287l397 745h183l-789 -1450h-182l256 484l-166 966h182z" />
    <glyph glyph-name="Ydieresis" unicode="&#x178;" horiz-adv-x="991" 
d="M252 0l121 618l-258 816h192l187 -635l430 635h202l-571 -816l-121 -618h-182zM473 1851q51 0 84 -33t33 -83t-33 -82.5t-84 -32.5q-48 0 -81.5 33t-33.5 82t33.5 82.5t81.5 33.5zM813 1851q51 0 84 -33t33 -83t-33 -82.5t-84 -32.5q-48 0 -81.5 33t-33.5 82t33.5 82.5
t81.5 33.5z" />
    <glyph glyph-name="Zacute" unicode="&#x179;" horiz-adv-x="1126" 
d="M788 1573h-147l199 295h252zM842 1262h-635l35 172h891l-19 -86l-868 -1176h678l-35 -172h-932l16 86z" />
    <glyph glyph-name="zacute" unicode="&#x17a;" horiz-adv-x="958" 
d="M653 1171h-147l199 295h251zM633 877h-465l29 155h710l-14 -74l-635 -802h508l-29 -156h-747l14 74z" />
    <glyph glyph-name="Zdotaccent" unicode="&#x17b;" horiz-adv-x="1126" 
d="M610 1700q0 55 37.5 93t91.5 38q55 0 92 -37.5t37 -93.5q0 -54 -37 -90.5t-92 -36.5q-54 0 -91.5 36.5t-37.5 90.5zM842 1262h-635l35 172h891l-19 -86l-868 -1176h678l-35 -172h-932l16 86z" />
    <glyph glyph-name="zdotaccent" unicode="&#x17c;" horiz-adv-x="958" 
d="M475 1298q0 55 37.5 93.5t91.5 38.5q55 0 92 -38t37 -94q0 -54 -37 -90.5t-92 -36.5q-54 0 -91.5 36.5t-37.5 90.5zM633 877h-465l29 155h710l-14 -74l-635 -802h508l-29 -156h-747l14 74z" />
    <glyph glyph-name="Zcaron" unicode="&#x17d;" horiz-adv-x="1126" 
d="M842 1262h-635l35 172h891l-19 -86l-868 -1176h678l-35 -172h-932l16 86zM877 1896h200l-366 -335h-64l-254 335h182l125 -163z" />
    <glyph glyph-name="zcaron" unicode="&#x17e;" horiz-adv-x="958" 
d="M633 877h-465l29 155h710l-14 -74l-635 -802h508l-29 -156h-747l14 74zM762 1495h201l-367 -336h-64l-253 336h182l125 -164z" />
    <glyph glyph-name="longs" unicode="&#x17f;" horiz-adv-x="942" 
d="M530 1049q97 0 176.5 -46t120.5 -126l-135 -101q-76 117 -182 117q-61 0 -100 -35t-39 -94q0 -51 34.5 -86t106.5 -68q62 -27 96 -46t74 -52q88 -64 88 -188q0 -156 -103 -248t-270 -92q-150 0 -250 86q-99 89 -114 206l151 74q43 -211 234 -211q77 0 123.5 42t46.5 110
q0 77 -53 117q-10 8 -20 14t-16.5 10.5t-20 11t-19.5 9t-27.5 12t-32.5 14.5q-202 88 -202 275q0 136 90 215.5t243 79.5z" />
    <glyph glyph-name="uni0189" unicode="&#x189;" horiz-adv-x="1370" 
d="M195 631h-119l35 172h116l125 631h369q262 0 413.5 -149t151.5 -423q0 -367 -229 -614q-227 -248 -588 -248h-397zM682 1262h-182l-90 -459h266l-35 -172h-264l-88 -459h182q282 0 451 190q170 194 170 482q0 207 -105 312.5t-305 105.5z" />
    <glyph glyph-name="florin" unicode="&#x192;" horiz-adv-x="897" 
d="M434 877h-182l29 155h182l14 68q38 181 138 265.5t264 84.5q85 0 141 -33l-64 -151q-54 28 -110 28q-84 0 -130.5 -46.5t-66.5 -147.5l-14 -68h233l-28 -155h-234l-186 -961q-68 -350 -402 -350q-85 0 -141 33l64 151q56 -29 110 -29q84 0 130 47t67 148z" />
    <glyph glyph-name="Ohorn" unicode="&#x1a0;" horiz-adv-x="1460" 
d="M870 1450q83 0 172 -27l13 27h239l-90 -125l31 -31q141 -153 141 -424q0 -449 -309 -712q-201 -174 -481 -174q-226 0 -367 153q-139 157 -139 426q0 450 309 713q201 174 481 174zM975 1006h-129l119 254q-56 18 -125 18q-216 0 -371 -168q-201 -213 -201 -530
q0 -205 89 -314.5t259 -109.5q216 0 371 168q201 213 201 530q0 206 -94 317z" />
    <glyph glyph-name="ohorn" unicode="&#x1a1;" horiz-adv-x="1173" 
d="M55 418q0 253 142 430q165 201 436 201q91 0 170 -31l14 31h240l-103 -142q86 -116 86 -293q0 -255 -141 -430q-164 -200 -436 -200q-191 0 -299.5 115t-108.5 319zM737 604h-129l123 262q-49 27 -115 27q-171 0 -286 -145q-92 -118 -92 -306q0 -144 62 -223.5t179 -79.5
q171 0 287 146q92 118 92 305q0 85 -22 149z" />
    <glyph glyph-name="Uhorn" unicode="&#x1af;" horiz-adv-x="1376" 
d="M1432 1006h-129l208 444h240zM156 487l182 947h182l-186 -959q-8 -47 -8 -82q0 -237 249 -237q155 0 253.5 83t127.5 236l187 959h182l-182 -947q-94 -503 -590 -503q-185 0 -297 100q-113 101 -113 266q0 67 13 137z" />
    <glyph glyph-name="uhorn" unicode="&#x1b0;" 
d="M1174 604h-130l209 445h240zM113 305l141 727h174l-131 -682q-8 -44 -8 -71q0 -140 137 -140q110 0 227 129q115 127 156 332l84 432h174l-201 -1032h-174l37 190q-156 -206 -373 -206q-118 0 -184 59.5t-66 165.5q0 42 7 96z" />
    <glyph glyph-name="uni01C0" unicode="&#x1c0;" horiz-adv-x="501" 
d="M205 -102v1638h164v-1638h-164z" />
    <glyph glyph-name="uni01C1" unicode="&#x1c1;" horiz-adv-x="1003" 
d="M707 -102v1638h163v-1638h-163zM205 -102v1638h164v-1638h-164z" />
    <glyph glyph-name="uni01C4" unicode="&#x1c4;" horiz-adv-x="2496" 
d="M2212 1262h-635l35 172h891l-19 -86l-868 -1176h678l-35 -172h-932l16 86zM2247 1896h200l-366 -335h-64l-254 335h183l125 -163zM72 0l280 1434h369q262 0 413.5 -149t151.5 -423q0 -367 -229 -614q-227 -248 -588 -248h-397zM682 1262h-182l-211 -1090h182
q282 0 451 190q170 194 170 482q0 207 -105 312.5t-305 105.5z" />
    <glyph glyph-name="uni01C5" unicode="&#x1c5;" horiz-adv-x="2328" 
d="M2003 877h-465l29 155h710l-14 -74l-635 -802h508l-29 -156h-747l14 74zM2132 1495h201l-367 -336h-63l-254 336h182l125 -164zM72 0l280 1434h369q262 0 413.5 -149t151.5 -423q0 -367 -229 -614q-227 -248 -588 -248h-397zM682 1262h-182l-211 -1090h182q282 0 451 190
q170 194 170 482q0 207 -105 312.5t-305 105.5z" />
    <glyph glyph-name="uni01C6" unicode="&#x1c6;" horiz-adv-x="2211" 
d="M1886 877h-465l29 155h711l-15 -74l-635 -802h508l-28 -156h-748l14 74zM2015 1495h201l-367 -336h-63l-254 336h182l125 -164zM618 1049q95 0 172 -38.5t113 -101.5l105 541h174l-283 -1450h-174l27 127q-131 -143 -324 -143q-177 0 -275 106t-98 291q0 273 154 471
q153 197 409 197zM238 426q0 -133 61.5 -210t175.5 -77q120 0 209 80q86 78 127 184t41 224q0 128 -66.5 197t-181.5 69q-117 0 -205 -76q-161 -140 -161 -391z" />
    <glyph glyph-name="uni01C7" unicode="&#x1c7;" horiz-adv-x="2144" 
d="M1710 449l191 985h182l-205 -1055q-36 -192 -158.5 -293.5t-308.5 -101.5q-164 0 -264 112t-100 262l182 39q0 -241 203 -241q219 0 278 293zM72 0l280 1434h183l-246 -1262h631l-35 -172h-813z" />
    <glyph glyph-name="uni01C8" unicode="&#x1c8;" horiz-adv-x="1601" 
d="M872 -434l-16 168q110 28 163.5 76.5t72.5 152.5l206 1069h175l-211 -1085q-35 -179 -126 -267t-264 -114zM1307 1319q0 56 37 93.5t92 37.5t92 -37.5t37 -93.5q0 -54 -37 -90.5t-92 -36.5t-92 36.5t-37 90.5zM72 0l280 1434h183l-246 -1262h631l-35 -172h-813z" />
    <glyph glyph-name="uni01C9" unicode="&#x1c9;" horiz-adv-x="1191" 
d="M463 -434l-17 168q110 28 163.5 76.5t72.5 152.5l207 1069h174l-211 -1085q-35 -179 -125.5 -267t-263.5 -114zM897 1319q0 56 37 93.5t92 37.5t92 -37.5t37 -93.5q0 -54 -37 -90.5t-92 -36.5t-92 36.5t-37 90.5zM100 0l281 1450h174l-281 -1450h-174z" />
    <glyph glyph-name="uni01CA" unicode="&#x1ca;" horiz-adv-x="2553" 
d="M2120 449l190 985h182l-204 -1055q-36 -192 -158.5 -293.5t-308.5 -101.5q-165 0 -265 112t-100 262l182 39q0 -241 203 -241q220 0 279 293zM973 313l219 1121h182l-280 -1434h-203l-420 1116l-217 -1116h-182l280 1434h203z" />
    <glyph glyph-name="uni01CB" unicode="&#x1cb;" horiz-adv-x="2011" 
d="M1282 -434l-16 168q110 28 163 76t72 153l207 1069h174l-211 -1085q-35 -179 -125.5 -267t-263.5 -114zM1716 1319q0 56 37 93.5t92 37.5t92 -37.5t37 -93.5q0 -54 -37 -90.5t-92 -36.5t-92 36.5t-37 90.5zM973 313l219 1121h182l-280 -1434h-203l-420 1116l-217 -1116
h-182l280 1434h203z" />
    <glyph glyph-name="uni01CC" unicode="&#x1cc;" horiz-adv-x="1746" 
d="M1018 -434l-17 168q110 28 163.5 76.5t72.5 152.5l207 1069h174l-211 -1085q-35 -179 -125.5 -267t-263.5 -114zM1452 1319q0 56 37 93.5t92 37.5t92 -37.5t37 -93.5q0 -54 -37 -90.5t-92 -36.5t-92 36.5t-37 90.5zM1016 727l-142 -727h-174l131 682q9 50 9 72
q0 139 -138 139q-110 0 -227 -129q-115 -127 -156 -332l-83 -432h-175l201 1032h174l-37 -190q157 207 373 207q118 0 184 -60t66 -166q0 -49 -6 -96z" />
    <glyph glyph-name="uni01CD" unicode="&#x1cd;" horiz-adv-x="1175" 
d="M967 1909h200l-366 -336h-64l-254 336h183l125 -164zM-117 0l762 1434h174l217 -1434h-182l-51 383h-535l-202 -383h-183zM778 555l-92 645l-328 -645h420z" />
    <glyph glyph-name="uni01CE" unicode="&#x1ce;" horiz-adv-x="1200" 
d="M846 1507h201l-367 -336h-64l-254 336h183l125 -164zM1085 1032l-198 -1032h-174l24 127q-128 -143 -305 -143q-182 0 -279.5 114t-97.5 305q0 268 148 457t411 189q95 0 174.5 -43t100.5 -97l22 123h174zM481 139q117 0 201 78q156 144 156 406q0 126 -62 198t-176 72
q-174 0 -268 -135q-94 -134 -94 -307q0 -144 64.5 -228t178.5 -84z" />
    <glyph glyph-name="uni01CF" unicode="&#x1cf;" horiz-adv-x="606" 
d="M678 1909h201l-367 -336h-63l-254 336h182l125 -164zM72 0l280 1434h183l-281 -1434h-182z" />
    <glyph glyph-name="uni01D0" unicode="&#x1d0;" horiz-adv-x="565" 
d="M584 1507h200l-366 -336h-64l-254 336h183l125 -164zM61 0l201 1032h174l-200 -1032h-175z" />
    <glyph glyph-name="uni01D1" unicode="&#x1d1;" horiz-adv-x="1460" 
d="M1102 1909h201l-367 -336h-64l-254 336h183l125 -164zM870 1450q227 0 365 -156q141 -153 141 -424q0 -449 -309 -712q-201 -174 -481 -174q-226 0 -367 153q-139 157 -139 426q0 450 309 713q201 174 481 174zM840 1278q-216 0 -371 -168q-201 -213 -201 -530
q0 -205 89 -314.5t259 -109.5q216 0 371 168q201 213 201 530q0 205 -89 314.5t-259 109.5z" />
    <glyph glyph-name="uni01D2" unicode="&#x1d2;" horiz-adv-x="1173" 
d="M864 1507h201l-367 -336h-63l-254 336h182l125 -164zM55 418q0 253 142 430q165 201 436 201q191 0 299 -115.5t108 -319.5q0 -255 -141 -430q-164 -200 -436 -200q-191 0 -299.5 115t-108.5 319zM616 893q-171 0 -286 -145q-92 -118 -92 -306q0 -144 62 -223.5
t179 -79.5q171 0 287 146q92 118 92 305q0 144 -62.5 223.5t-179.5 79.5z" />
    <glyph glyph-name="uni01D3" unicode="&#x1d3;" horiz-adv-x="1376" 
d="M1067 1909h201l-367 -336h-63l-254 336h182l125 -164zM156 487l182 947h182l-186 -959q-8 -47 -8 -82q0 -237 249 -237q155 0 253.5 83t127.5 236l187 959h182l-182 -947q-94 -503 -590 -503q-185 0 -297 100q-113 101 -113 266q0 67 13 137z" />
    <glyph glyph-name="uni01D4" unicode="&#x1d4;" 
d="M895 1507h201l-367 -336h-63l-254 336h182l125 -164zM113 305l141 727h174l-131 -682q-8 -44 -8 -71q0 -140 137 -140q110 0 227 129q115 127 156 332l84 432h174l-201 -1032h-174l37 190q-156 -206 -373 -206q-118 0 -184 59.5t-66 165.5q0 42 7 96z" />
    <glyph glyph-name="uni01D5" unicode="&#x1d5;" horiz-adv-x="1374" 
d="M1153 1974h-510l31 156h510zM156 487l182 947h182l-186 -959q-8 -47 -8 -82q0 -237 249 -237q155 0 253.5 83t127.5 236l187 959h182l-182 -947q-94 -503 -590 -503q-185 0 -297 100q-113 101 -113 266q0 67 13 137zM705 1851q51 0 83.5 -33t32.5 -83t-32.5 -82.5
t-83.5 -32.5q-48 0 -81.5 33t-33.5 82t33.5 82.5t81.5 33.5zM1044 1851q51 0 84 -33t33 -83t-33 -82.5t-84 -32.5q-48 0 -81 33t-33 82t33 82.5t81 33.5z" />
    <glyph glyph-name="uni01D6" unicode="&#x1d6;" 
d="M977 1573h-510l31 156h510zM113 305l141 727h174l-131 -682q-8 -44 -8 -71q0 -140 137 -140q110 0 227 129q115 127 156 332l84 432h174l-201 -1032h-174l37 190q-156 -206 -373 -206q-118 0 -184 59.5t-66 165.5q0 42 7 96zM528 1450q51 0 84 -33.5t33 -83.5t-33 -82
t-84 -32q-48 0 -81 32.5t-33 81.5t33.5 83t80.5 34zM868 1450q51 0 84 -33.5t33 -83.5t-33 -82t-84 -32q-48 0 -81 32.5t-33 81.5t33.5 83t80.5 34z" />
    <glyph glyph-name="uni01D7" unicode="&#x1d7;" horiz-adv-x="1374" 
d="M973 1974h-148l199 295h252zM156 487l182 947h182l-186 -959q-8 -47 -8 -82q0 -237 249 -237q155 0 253.5 83t127.5 236l187 959h182l-182 -947q-94 -503 -590 -503q-185 0 -297 100q-113 101 -113 266q0 67 13 137zM705 1851q51 0 83.5 -33t32.5 -83t-32.5 -82.5
t-83.5 -32.5q-48 0 -81.5 33t-33.5 82t33.5 82.5t81.5 33.5zM1044 1851q51 0 84 -33t33 -83t-33 -82.5t-84 -32.5q-48 0 -81 33t-33 82t33 82.5t81 33.5z" />
    <glyph glyph-name="uni01D8" unicode="&#x1d8;" 
d="M797 1573h-148l199 295h252zM113 305l141 727h174l-131 -682q-8 -44 -8 -71q0 -140 137 -140q110 0 227 129q115 127 156 332l84 432h174l-201 -1032h-174l37 190q-156 -206 -373 -206q-118 0 -184 59.5t-66 165.5q0 42 7 96zM528 1450q51 0 84 -33.5t33 -83.5t-33 -82
t-84 -32q-48 0 -81 32.5t-33 81.5t33.5 83t80.5 34zM868 1450q51 0 84 -33.5t33 -83.5t-33 -82t-84 -32q-48 0 -81 32.5t-33 81.5t33.5 83t80.5 34z" />
    <glyph glyph-name="uni01D9" unicode="&#x1d9;" horiz-adv-x="1374" 
d="M1106 2310h201l-367 -336h-63l-254 336h182l125 -164zM156 487l182 947h182l-186 -959q-8 -47 -8 -82q0 -237 249 -237q155 0 253.5 83t127.5 236l187 959h182l-182 -947q-94 -503 -590 -503q-185 0 -297 100q-113 101 -113 266q0 67 13 137zM705 1851q51 0 83.5 -33
t32.5 -83t-32.5 -82.5t-83.5 -32.5q-48 0 -81.5 33t-33.5 82t33.5 82.5t81.5 33.5zM1044 1851q51 0 84 -33t33 -83t-33 -82.5t-84 -32.5q-48 0 -81 33t-33 82t33 82.5t81 33.5z" />
    <glyph glyph-name="uni01DA" unicode="&#x1da;" 
d="M930 1909h200l-366 -336h-64l-254 336h183l125 -164zM113 305l141 727h174l-131 -682q-8 -44 -8 -71q0 -140 137 -140q110 0 227 129q115 127 156 332l84 432h174l-201 -1032h-174l37 190q-156 -206 -373 -206q-118 0 -184 59.5t-66 165.5q0 42 7 96zM528 1450
q51 0 84 -33.5t33 -83.5t-33 -82t-84 -32q-48 0 -81 32.5t-33 81.5t33.5 83t80.5 34zM868 1450q51 0 84 -33.5t33 -83.5t-33 -82t-84 -32q-48 0 -81 32.5t-33 81.5t33.5 83t80.5 34z" />
    <glyph glyph-name="uni01DB" unicode="&#x1db;" horiz-adv-x="1374" 
d="M623 2269h247l99 -295h-140zM156 487l182 947h182l-186 -959q-8 -47 -8 -82q0 -237 249 -237q155 0 253.5 83t127.5 236l187 959h182l-182 -947q-94 -503 -590 -503q-185 0 -297 100q-113 101 -113 266q0 67 13 137zM705 1851q51 0 83.5 -33t32.5 -83t-32.5 -82.5
t-83.5 -32.5q-48 0 -81.5 33t-33.5 82t33.5 82.5t81.5 33.5zM1044 1851q51 0 84 -33t33 -83t-33 -82.5t-84 -32.5q-48 0 -81 33t-33 82t33 82.5t81 33.5z" />
    <glyph glyph-name="uni01DC" unicode="&#x1dc;" 
d="M446 1868h248l99 -295h-140zM113 305l141 727h174l-131 -682q-8 -44 -8 -71q0 -140 137 -140q110 0 227 129q115 127 156 332l84 432h174l-201 -1032h-174l37 190q-156 -206 -373 -206q-118 0 -184 59.5t-66 165.5q0 42 7 96zM528 1450q51 0 84 -33.5t33 -83.5t-33 -82
t-84 -32q-48 0 -81 32.5t-33 81.5t33.5 83t80.5 34zM868 1450q51 0 84 -33.5t33 -83.5t-33 -82t-84 -32q-48 0 -81 32.5t-33 81.5t33.5 83t80.5 34z" />
    <glyph glyph-name="uni01DE" unicode="&#x1de;" horiz-adv-x="1175" 
d="M1067 1974h-510l31 156h510zM-117 0l762 1434h174l217 -1434h-182l-51 383h-535l-202 -383h-183zM778 555l-92 645l-328 -645h420zM618 1851q51 0 84 -33t33 -83t-33 -82.5t-84 -32.5q-48 0 -81 33t-33 82t33 82.5t81 33.5zM958 1851q51 0 84 -33t33 -83t-33 -82.5
t-84 -32.5q-48 0 -81 33t-33 82t33 82.5t81 33.5z" />
    <glyph glyph-name="uni01DF" unicode="&#x1df;" horiz-adv-x="1200" 
d="M1004 1573h-510l30 156h510zM713 0l24 127q-128 -143 -305 -143q-182 0 -279.5 114t-97.5 305q0 268 148 457t411 189q95 0 174.5 -43t100.5 -97l22 123h174l-198 -1032h-174zM481 139q112 0 198.5 76t123.5 188q35 110 35 220q0 126 -62 198t-176 72q-174 0 -268 -135
q-94 -134 -94 -307q0 -144 64.5 -228t178.5 -84zM555 1450q51 0 84 -33.5t33 -83.5t-33 -82t-84 -32q-48 0 -81.5 32.5t-33.5 81.5t33.5 83t81.5 34zM895 1450q51 0 84 -33.5t33 -83.5t-33 -82t-84 -32q-48 0 -81.5 32.5t-33.5 81.5t33.5 83t81.5 34z" />
    <glyph glyph-name="uni01E2" unicode="&#x1e2;" horiz-adv-x="1712" 
d="M1538 1573h-510l31 156h510zM-119 0l910 1434h931l-34 -172h-629l-80 -412h512l-33 -172h-512l-98 -506h649l-35 -172h-831l76 383h-383l-240 -383h-203zM864 1198h-33l-401 -643h309z" />
    <glyph glyph-name="uni01E3" unicode="&#x1e3;" horiz-adv-x="1824" 
d="M1249 1171h-510l31 156h510zM1694 559l-17 -80h-766q-6 -41 -6 -73q0 -124 63 -195.5t179 -71.5q106 0 179.5 48.5t141.5 154.5l148 -72q-103 -152 -219.5 -219t-280.5 -67q-122 0 -213.5 59t-136.5 164q-137 -223 -383 -223q-153 0 -240.5 77.5t-87.5 206.5
q0 184 123 275.5t336 91.5h250l10 45q4 28 4 49q0 164 -190 164q-162 0 -232 -166l-155 39q50 135 158 209t259 74q107 0 188.5 -44.5t117.5 -125.5q170 170 399 170q176 0 278.5 -104.5t102.5 -282.5q0 -38 -10 -103zM403 139q119 0 206 79.5t116 236.5l4 24h-252
q-109 0 -174 -47.5t-65 -138.5q0 -72 44.5 -113t120.5 -41zM1292 893q-111 0 -203 -70.5t-137 -187.5h570q0 258 -230 258z" />
    <glyph glyph-name="Gcaron" unicode="&#x1e6;" horiz-adv-x="1429" 
d="M1104 1909h201l-367 -336h-64l-253 336h182l125 -164zM1079 551h-295l33 172h483l-141 -723h-155l18 197q-87 -113 -188.5 -163t-247.5 -50q-213 0 -359 149q-147 150 -147 434q0 229 90 432q90 197 276 324t426 127q205 0 332 -121q130 -121 139 -311l-180 -47
q-40 307 -323 307q-253 0 -412 -203q-160 -204 -160 -481q0 -213 91 -325.5t262 -112.5q166 0 286.5 105t171.5 290z" />
    <glyph glyph-name="gcaron" unicode="&#x1e7;" horiz-adv-x="1044" 
d="M1202 1559h201l-367 -336h-63l-254 336h182l125 -164zM172 637q0 180 115 295q117 117 305 117q101 0 186 -48l193 99l61 -135l-153 -78q22 -55 22 -131q0 -172 -121 -287q-119 -113 -301 -113q-89 0 -166 41q-96 -38 -96 -112q0 -33 25 -55.5t67 -22.5h236
q289 0 289 -248q0 -191 -150 -293q-144 -100 -362 -100q-161 0 -265 82q-104 79 -104 213q0 152 135 260q-43 46 -43 129q0 143 172 231q-45 65 -45 156zM494 59h-199q-20 0 -74 4q-94 -49 -94 -165q0 -84 56.5 -134.5t168.5 -50.5q123 0 209 51q90 53 90 164
q0 131 -157 131zM571 901q-98 0 -162.5 -65.5t-64.5 -167.5q0 -78 42.5 -121t115.5 -43q98 0 162.5 63t64.5 164q0 83 -42 126.5t-116 43.5z" />
    <glyph glyph-name="uni01E8" unicode="&#x1e8;" horiz-adv-x="1222" 
d="M1051 1909h200l-366 -336h-64l-254 336h183l124 -164zM580 782l458 -782h-221l-422 723l-141 -723h-182l280 1434h183l-113 -576l610 576h246z" />
    <glyph glyph-name="uni01E9" unicode="&#x1e9;" horiz-adv-x="1040" 
d="M662 1909h200l-366 -336h-64l-254 336h182l125 -164zM61 0l281 1450h174l-164 -850l443 432h235l-510 -483l350 -549h-211l-323 518l-100 -518h-175z" />
    <glyph glyph-name="uni01EA" unicode="&#x1ea;" horiz-adv-x="1460" 
d="M870 1450q227 0 365 -156q141 -153 141 -424q0 -449 -309 -712q-201 -174 -481 -174h-21q-131 -91 -131 -162q0 -51 51 -51q32 0 58.5 18t70.5 66l74 -72q-63 -78 -120.5 -111.5t-129.5 -33.5q-66 0 -105.5 37t-39.5 100q0 116 164 221h6q-142 29 -244 141
q-139 157 -139 426q0 450 309 713q201 174 481 174zM840 1278q-216 0 -371 -168q-201 -213 -201 -530q0 -205 89 -314.5t259 -109.5q216 0 371 168q201 213 201 530q0 205 -89 314.5t-259 109.5z" />
    <glyph glyph-name="uni01EB" unicode="&#x1eb;" horiz-adv-x="1173" 
d="M55 418q0 253 142 430q165 201 436 201q191 0 299 -115.5t108 -319.5q0 -255 -141 -430q-164 -200 -436 -200h-21q-131 -91 -131 -162q0 -51 51 -51q32 0 59.5 18t70.5 66l73 -72q-63 -78 -120.5 -111.5t-129.5 -33.5q-66 0 -105.5 37t-39.5 100q0 116 164 221h12
q-139 32 -215 141.5t-76 280.5zM616 893q-171 0 -286 -145q-92 -118 -92 -306q0 -144 62 -223.5t179 -79.5q171 0 287 146q92 118 92 305q0 144 -62.5 223.5t-179.5 79.5z" />
    <glyph glyph-name="uni01EC" unicode="&#x1ec;" horiz-adv-x="1460" 
d="M870 1450q227 0 365 -156q141 -153 141 -424q0 -449 -309 -712q-201 -174 -481 -174h-21q-131 -91 -131 -162q0 -51 51 -51q32 0 58.5 18t70.5 66l74 -72q-63 -78 -120.5 -111.5t-129.5 -33.5q-66 0 -105.5 37t-39.5 100q0 116 164 221h6q-142 29 -244 141
q-139 157 -139 426q0 450 309 713q201 174 481 174zM840 1278q-216 0 -371 -168q-201 -213 -201 -530q0 -205 89 -314.5t259 -109.5q216 0 371 168q201 213 201 530q0 205 -89 314.5t-259 109.5zM1149 1573h-510l31 156h510z" />
    <glyph glyph-name="uni01ED" unicode="&#x1ed;" horiz-adv-x="1173" 
d="M55 418q0 253 142 430q165 201 436 201q191 0 299 -115.5t108 -319.5q0 -255 -141 -430q-164 -200 -436 -200h-21q-131 -91 -131 -162q0 -51 51 -51q32 0 59.5 18t70.5 66l73 -72q-63 -78 -120.5 -111.5t-129.5 -33.5q-66 0 -105.5 37t-39.5 100q0 116 164 221h12
q-139 32 -215 141.5t-76 280.5zM616 893q-171 0 -286 -145q-92 -118 -92 -306q0 -144 62 -223.5t179 -79.5q171 0 287 146q92 118 92 305q0 144 -62.5 223.5t-179.5 79.5zM911 1171h-510l31 156h510z" />
    <glyph glyph-name="uni01F0" unicode="&#x1f0;" horiz-adv-x="565" 
d="M631 1909h200l-366 -336h-64l-254 336h183l125 -164zM-164 -434l-16 168q110 28 163 76t72 153l207 1069h174l-211 -1085q-35 -179 -125.5 -267t-263.5 -114zM270 1319q0 56 37 93.5t92 37.5t92 -37.5t37 -93.5q0 -54 -37 -90.5t-92 -36.5t-92 36.5t-37 90.5z" />
    <glyph glyph-name="uni01F1" unicode="&#x1f1;" horiz-adv-x="2496" 
d="M2212 1262h-635l35 172h891l-19 -86l-868 -1176h678l-35 -172h-932l16 86zM72 0l280 1434h369q262 0 413.5 -149t151.5 -423q0 -367 -229 -614q-227 -248 -588 -248h-397zM682 1262h-182l-211 -1090h182q282 0 451 190q170 194 170 482q0 207 -105 312.5t-305 105.5z" />
    <glyph glyph-name="uni01F2" unicode="&#x1f2;" horiz-adv-x="2328" 
d="M2003 877h-465l29 155h710l-14 -74l-635 -802h508l-29 -156h-747l14 74zM72 0l280 1434h369q262 0 413.5 -149t151.5 -423q0 -367 -229 -614q-227 -248 -588 -248h-397zM682 1262h-182l-211 -1090h182q282 0 451 190q170 194 170 482q0 207 -105 312.5t-305 105.5z" />
    <glyph glyph-name="uni01F3" unicode="&#x1f3;" horiz-adv-x="2211" 
d="M1886 877h-465l29 155h711l-15 -74l-635 -802h508l-28 -156h-748l14 74zM618 1049q95 0 172 -38.5t113 -101.5l105 541h174l-283 -1450h-174l27 127q-131 -143 -324 -143q-177 0 -275 106t-98 291q0 273 154 471q153 197 409 197zM238 426q0 -133 61.5 -210t175.5 -77
q120 0 209 80q86 78 127 184t41 224q0 128 -66.5 197t-181.5 69q-117 0 -205 -76q-161 -140 -161 -391z" />
    <glyph glyph-name="uni01F4" unicode="&#x1f4;" horiz-adv-x="1429" 
d="M971 1573h-148l199 295h252zM1079 551h-295l33 172h483l-141 -723h-155l18 197q-87 -113 -188.5 -163t-247.5 -50q-213 0 -359 149q-147 150 -147 434q0 229 90 432q90 197 276 324t426 127q205 0 332 -121q130 -121 139 -311l-180 -47q-40 307 -323 307
q-253 0 -412 -203q-160 -204 -160 -481q0 -213 91 -325.5t262 -112.5q166 0 286.5 105t171.5 290z" />
    <glyph glyph-name="uni01F5" unicode="&#x1f5;" horiz-adv-x="1044" 
d="M1069 1223h-147l198 295h252zM172 637q0 180 115 295q117 117 305 117q101 0 186 -48l193 99l61 -135l-153 -78q22 -55 22 -131q0 -172 -121 -287q-119 -113 -301 -113q-89 0 -166 41q-96 -38 -96 -112q0 -33 25 -55.5t67 -22.5h236q289 0 289 -248q0 -191 -150 -293
q-144 -100 -362 -100q-161 0 -265 82q-104 79 -104 213q0 152 135 260q-43 46 -43 129q0 143 172 231q-45 65 -45 156zM494 59h-199q-20 0 -74 4q-94 -49 -94 -165q0 -84 56.5 -134.5t168.5 -50.5q123 0 209 51q90 53 90 164q0 131 -157 131zM571 901q-98 0 -162.5 -65.5
t-64.5 -167.5q0 -78 42.5 -121t115.5 -43q98 0 162.5 63t64.5 164q0 83 -42 126.5t-116 43.5z" />
    <glyph glyph-name="uni01F8" unicode="&#x1f8;" horiz-adv-x="1445" 
d="M614 1868h248l99 -295h-140zM973 313l219 1121h182l-280 -1434h-203l-420 1116l-217 -1116h-182l280 1434h203z" />
    <glyph glyph-name="uni01F9" unicode="&#x1f9;" 
d="M420 1466h248l98 -295h-139zM1016 727l-142 -727h-174l131 682q9 50 9 72q0 139 -138 139q-110 0 -227 -129q-115 -127 -156 -332l-83 -432h-175l201 1032h174l-37 -190q157 207 373 207q118 0 184 -60t66 -166q0 -49 -6 -96z" />
    <glyph glyph-name="Aringacute" unicode="&#x1fa;" horiz-adv-x="1175" 
d="M893 2066h-148l199 295h252zM-117 0l762 1434h174l217 -1434h-182l-51 383h-535l-202 -383h-183zM778 555l-92 645l-328 -645h420zM592 1739q0 86 58.5 145.5t144.5 59.5q87 0 144.5 -59t57.5 -146q0 -85 -57 -141t-145 -56q-87 0 -145 56t-58 141zM707 1741
q-5 -55 41.5 -78t93 0t41.5 78q5 58 -41.5 82t-93 0t-41.5 -82z" />
    <glyph glyph-name="aringacute" unicode="&#x1fb;" horiz-adv-x="1200" 
d="M819 1665h-147l198 295h252zM713 0l24 127q-128 -143 -305 -143q-182 0 -279.5 114t-97.5 305q0 268 148 457t411 189q95 0 174.5 -43t100.5 -97l22 123h174l-198 -1032h-174zM481 139q112 0 198.5 76t123.5 188q35 110 35 220q0 126 -62 198t-176 72q-174 0 -268 -135
q-94 -134 -94 -307q0 -144 64.5 -228t178.5 -84zM518 1337q0 86 58.5 145.5t144.5 59.5q87 0 145 -59t58 -146q0 -85 -57.5 -140.5t-145.5 -55.5q-87 0 -145 56t-58 140zM633 1339q-5 -55 41.5 -78t93 0t41.5 78q5 58 -41.5 82t-93 0t-41.5 -82z" />
    <glyph glyph-name="AEacute" unicode="&#x1fc;" horiz-adv-x="1712" 
d="M1358 1573h-148l199 295h252zM-119 0l910 1434h931l-34 -172h-629l-80 -412h512l-33 -172h-512l-98 -506h649l-35 -172h-831l76 383h-383l-240 -383h-203zM864 1198h-33l-401 -643h309z" />
    <glyph glyph-name="aeacute" unicode="&#x1fd;" horiz-adv-x="1824" 
d="M1069 1171h-147l198 295h252zM1694 559l-17 -80h-766q-6 -41 -6 -73q0 -124 63 -195.5t179 -71.5q106 0 179.5 48.5t141.5 154.5l148 -72q-103 -152 -219.5 -219t-280.5 -67q-122 0 -213.5 59t-136.5 164q-137 -223 -383 -223q-153 0 -240.5 77.5t-87.5 206.5
q0 184 123 275.5t336 91.5h250l10 45q4 28 4 49q0 164 -190 164q-162 0 -232 -166l-155 39q50 135 158 209t259 74q107 0 188.5 -44.5t117.5 -125.5q170 170 399 170q176 0 278.5 -104.5t102.5 -282.5q0 -38 -10 -103zM403 139q119 0 206 79.5t116 236.5l4 24h-252
q-109 0 -174 -47.5t-65 -138.5q0 -72 44.5 -113t120.5 -41zM1292 893q-111 0 -203 -70.5t-137 -187.5h570q0 258 -230 258z" />
    <glyph glyph-name="Oslashacute" unicode="&#x1fe;" horiz-adv-x="1460" 
d="M981 1616h-147l198 295h252zM872 1450q207 0 342 -129l166 172l103 -98l-183 -189q78 -147 78 -336q0 -449 -309 -712q-201 -174 -481 -174q-207 0 -342 129l-166 -172l-103 98l181 188q-76 137 -76 336q0 450 309 713q201 174 481 174zM1190 854q0 107 -31 205
l-784 -813q90 -90 243 -90q216 0 371 168q201 213 201 530zM842 1278q-216 0 -371 -168q-201 -213 -201 -530q0 -119 31 -207l782 813q-86 92 -241 92z" />
    <glyph glyph-name="oslashacute" unicode="&#x1ff;" horiz-adv-x="1173" 
d="M768 1247h-147l198 295h252zM55 418q0 253 142 430q165 201 436 201q154 0 260 -80l151 155l105 -98l-164 -168q55 -98 55 -244q0 -253 -139 -430q-164 -200 -438 -200q-155 0 -256 79l-152 -155l-104 98l162 166q-58 101 -58 246zM616 893q-171 0 -286 -145
q-92 -118 -92 -306q0 -94 12 -131l520 531q-57 51 -154 51zM858 590q0 80 -12 127l-518 -531q59 -47 151 -47q171 0 287 146q92 118 92 305z" />
    <glyph glyph-name="uni0202" unicode="&#x202;" horiz-adv-x="1175" 
d="M-117 0l762 1434h174l217 -1434h-182l-51 383h-535l-202 -383h-183zM778 555l-92 645l-328 -645h420z" />
    <glyph glyph-name="uni0203" unicode="&#x203;" horiz-adv-x="1200" 
d="M1085 1032l-198 -1032h-174l24 127q-128 -143 -305 -143q-182 0 -279.5 114t-97.5 305q0 268 148 457t411 189q95 0 174.5 -43t100.5 -97l22 123h174zM481 139q117 0 201 78q156 144 156 406q0 126 -62 198t-176 72q-174 0 -268 -135q-94 -134 -94 -307q0 -144 64.5 -228
t178.5 -84z" />
    <glyph glyph-name="uni0206" unicode="&#x206;" horiz-adv-x="1153" 
d="M72 0l280 1434h811l-35 -172h-628l-80 -412h512l-33 -172h-512l-98 -506h649l-35 -172h-831z" />
    <glyph glyph-name="uni0207" unicode="&#x207;" horiz-adv-x="1150" 
d="M1020 559l-16 -80h-764q-7 -47 -7 -73q0 -125 62.5 -196t177.5 -71q106 0 180 48.5t142 154.5l147 -72q-103 -152 -219.5 -219t-280.5 -67q-178 0 -284 118q-107 119 -107 316q0 243 172 436q174 195 426 195q176 0 278.5 -104.5t102.5 -282.5q0 -38 -10 -103zM618 893
q-111 0 -202.5 -70.5t-136.5 -187.5h569q0 258 -230 258z" />
    <glyph glyph-name="uni020A" unicode="&#x20a;" horiz-adv-x="606" 
d="M72 0l280 1434h183l-281 -1434h-182z" />
    <glyph glyph-name="uni020B" unicode="&#x20b;" horiz-adv-x="565" 
d="M61 0l201 1032h174l-200 -1032h-175z" />
    <glyph glyph-name="uni020E" unicode="&#x20e;" horiz-adv-x="1460" 
d="M870 1450q227 0 365 -156q141 -153 141 -424q0 -449 -309 -712q-201 -174 -481 -174q-226 0 -367 153q-139 157 -139 426q0 450 309 713q201 174 481 174zM840 1278q-216 0 -371 -168q-201 -213 -201 -530q0 -205 89 -314.5t259 -109.5q216 0 371 168q201 213 201 530
q0 205 -89 314.5t-259 109.5z" />
    <glyph glyph-name="uni020F" unicode="&#x20f;" horiz-adv-x="1173" 
d="M55 418q0 253 142 430q165 201 436 201q191 0 299 -115.5t108 -319.5q0 -255 -141 -430q-164 -200 -436 -200q-191 0 -299.5 115t-108.5 319zM616 893q-171 0 -286 -145q-92 -118 -92 -306q0 -144 62 -223.5t179 -79.5q171 0 287 146q92 118 92 305q0 144 -62.5 223.5
t-179.5 79.5z" />
    <glyph glyph-name="uni0212" unicode="&#x212;" horiz-adv-x="1220" 
d="M1085 0h-202l-285 676h-211l-133 -676h-182l280 1434h455q170 0 267 -86t97 -236q0 -178 -100 -289.5t-278 -134.5zM778 1262h-278l-80 -414h285q133 0 205.5 58.5t72.5 172.5q0 183 -205 183z" />
    <glyph glyph-name="uni0213" unicode="&#x213;" horiz-adv-x="894" 
d="M877 1018l-64 -154q-56 29 -108 29q-115 0 -226 -105q-107 -104 -153 -331l-90 -457h-175l201 1032h174l-35 -176q123 193 334 193q91 0 142 -31z" />
    <glyph glyph-name="uni0216" unicode="&#x216;" horiz-adv-x="1376" 
d="M156 487l182 947h182l-186 -959q-8 -47 -8 -82q0 -237 249 -237q155 0 253.5 83t127.5 236l187 959h182l-182 -947q-94 -503 -590 -503q-185 0 -297 100q-113 101 -113 266q0 67 13 137z" />
    <glyph glyph-name="uni0217" unicode="&#x217;" 
d="M113 305l141 727h174l-131 -682q-8 -44 -8 -71q0 -140 137 -140q110 0 227 129q115 127 156 332l84 432h174l-201 -1032h-174l37 190q-156 -206 -373 -206q-118 0 -184 59.5t-66 165.5q0 42 7 96z" />
    <glyph glyph-name="Scommaaccent" unicode="&#x218;" horiz-adv-x="1071" 
d="M270 -584h-129l209 445h240zM997 1196l-155 -86q-61 168 -197 168q-93 0 -146 -53t-53 -146q0 -58 24.5 -101t70.5 -76.5t133 -78.5q72 -37 113.5 -66t82.5 -71q76 -79 76 -229q0 -217 -135 -340q-80 -74 -167 -103.5t-212 -29.5q-153 0 -270 114q-117 117 -117 279
l164 88q11 -142 77.5 -225.5t184.5 -83.5q127 0 207 71t80 197q0 94 -48 148t-171 114q-281 139 -281 367q0 186 115.5 291.5t304.5 105.5q119 0 205.5 -72.5t113.5 -181.5z" />
    <glyph glyph-name="scommaaccent" unicode="&#x219;" horiz-adv-x="942" 
d="M236 -584h-130l209 445h240zM530 1049q97 0 176.5 -46t120.5 -126l-135 -101q-76 117 -182 117q-61 0 -100 -35t-39 -94q0 -51 34.5 -86t106.5 -68q62 -27 96 -46t74 -52q88 -64 88 -188q0 -156 -103 -248t-270 -92q-150 0 -250 86q-99 89 -114 206l151 74
q43 -211 234 -211q77 0 123.5 42t46.5 110q0 77 -53 117q-10 8 -20 14t-16.5 10.5t-20 11t-19.5 9t-27.5 12t-32.5 14.5q-202 88 -202 275q0 136 90 215.5t243 79.5z" />
    <glyph glyph-name="uni021A" unicode="&#x21a;" horiz-adv-x="1038" 
d="M211 -567h-129l209 444h239zM528 1262h-403l35 172h989l-35 -172h-403l-246 -1262h-182z" />
    <glyph glyph-name="uni021B" unicode="&#x21b;" horiz-adv-x="716" 
d="M201 -584h-129l209 445h239zM238 877h-179l29 155h178l62 309l192 109l-82 -418h260l-28 -155h-260l-107 -549q-10 -58 -10 -74q0 -115 110 -115q67 0 123 33l13 -149q-74 -39 -177 -39q-117 0 -180 61t-63 178q0 39 14 119z" />
    <glyph glyph-name="uni021E" unicode="&#x21e;" horiz-adv-x="1423" 
d="M1087 1909h201l-366 -336h-64l-254 336h182l125 -164zM1055 848l114 586h183l-281 -1434h-182l133 676h-635l-133 -676h-182l280 1434h183l-115 -586h635z" />
    <glyph glyph-name="uni021F" unicode="&#x21f;" horiz-adv-x="1196" 
d="M989 1909h201l-367 -336h-63l-254 336h182l125 -164zM1028 717l-139 -717h-174l131 682q6 38 6 74q0 137 -141 137q-115 0 -236 -127q-115 -124 -156 -328l-83 -438h-175l281 1450h174l-119 -610q150 209 389 209q117 0 184.5 -60.5t67.5 -169.5q0 -37 -10 -102z" />
    <glyph glyph-name="uni0226" unicode="&#x226;" horiz-adv-x="1175" 
d="M655 1700q0 55 37.5 93t91.5 38q55 0 92 -37.5t37 -93.5q0 -54 -37 -90.5t-92 -36.5q-54 0 -91.5 36.5t-37.5 90.5zM-117 0l762 1434h174l217 -1434h-182l-51 383h-535l-202 -383h-183zM778 555l-92 645l-328 -645h420z" />
    <glyph glyph-name="uni0227" unicode="&#x227;" horiz-adv-x="1200" 
d="M535 1298q0 55 37.5 93.5t91.5 38.5q55 0 92 -38t37 -94q0 -54 -37 -90.5t-92 -36.5q-54 0 -91.5 36.5t-37.5 90.5zM1085 1032l-198 -1032h-174l24 127q-128 -143 -305 -143q-182 0 -279.5 114t-97.5 305q0 268 148 457t411 189q95 0 174.5 -43t100.5 -97l22 123h174z
M481 139q117 0 201 78q156 144 156 406q0 126 -62 198t-176 72q-174 0 -268 -135q-94 -134 -94 -307q0 -144 64.5 -228t178.5 -84z" />
    <glyph glyph-name="uni0228" unicode="&#x228;" horiz-adv-x="1153" 
d="M72 0l280 1434h811l-35 -172h-628l-80 -412h512l-33 -172h-512l-98 -506h649l-35 -172h-414l-219 -346l-182 92l246 254h-262z" />
    <glyph glyph-name="uni0229" unicode="&#x229;" horiz-adv-x="1150" 
d="M1020 559l-16 -80h-764q-7 -47 -7 -73q0 -125 62.5 -196t177.5 -71q106 0 180 48.5t142 154.5l147 -72q-102 -152 -218.5 -218t-279.5 -68l-219 -346l-182 92l258 266h33q-106 24 -176 106q-107 119 -107 316q0 243 172 436q174 195 426 195q176 0 278.5 -104.5
t102.5 -282.5q0 -38 -10 -103zM618 893q-111 0 -202.5 -70.5t-136.5 -187.5h569q0 258 -230 258z" />
    <glyph glyph-name="uni022A" unicode="&#x22a;" horiz-adv-x="1460" 
d="M1188 1974h-510l31 156h510zM870 1450q227 0 365 -156q141 -153 141 -424q0 -449 -309 -712q-201 -174 -481 -174q-226 0 -367 153q-139 157 -139 426q0 450 309 713q201 174 481 174zM840 1278q-216 0 -371 -168q-201 -213 -201 -530q0 -205 89 -314.5t259 -109.5
q216 0 371 168q201 213 201 530q0 205 -89 314.5t-259 109.5zM739 1851q51 0 84 -33t33 -83t-33 -82.5t-84 -32.5q-48 0 -81 33t-33 82t33 82.5t81 33.5zM1079 1851q51 0 84 -33t33 -83t-33 -82.5t-84 -32.5q-48 0 -81 33t-33 82t33 82.5t81 33.5z" />
    <glyph glyph-name="uni022B" unicode="&#x22b;" horiz-adv-x="1173" 
d="M987 1573h-510l31 156h510zM55 418q0 253 142 430q165 201 436 201q191 0 299 -115.5t108 -319.5q0 -255 -141 -430q-164 -200 -436 -200q-191 0 -299.5 115t-108.5 319zM616 893q-171 0 -286 -145q-92 -118 -92 -306q0 -144 62 -223.5t179 -79.5q171 0 287 146
q92 118 92 305q0 144 -62.5 223.5t-179.5 79.5zM539 1450q51 0 83.5 -33.5t32.5 -83.5t-32.5 -82t-83.5 -32q-48 0 -81.5 32.5t-33.5 81.5t33.5 83t81.5 34zM879 1450q51 0 83.5 -33.5t32.5 -83.5t-32.5 -82t-83.5 -32q-48 0 -81.5 32.5t-33.5 81.5t33.5 83t81.5 34z" />
    <glyph glyph-name="uni022C" unicode="&#x22c;" horiz-adv-x="1460" 
d="M1073 1958h-510l31 156h510zM870 1450q227 0 365 -156q141 -153 141 -424q0 -449 -309 -712q-201 -174 -481 -174q-226 0 -367 153q-139 157 -139 426q0 450 309 713q201 174 481 174zM840 1278q-216 0 -371 -168q-201 -213 -201 -530q0 -205 89 -314.5t259 -109.5
q216 0 371 168q201 213 201 530q0 205 -89 314.5t-259 109.5zM631 1599l-84 87q110 149 248 149q73 0 135 -41q65 -41 110 -41q78 0 150 72l84 -88q-112 -148 -248 -148q-72 0 -137 41q-62 41 -109 41q-77 0 -149 -72z" />
    <glyph glyph-name="uni022D" unicode="&#x22d;" horiz-adv-x="1173" 
d="M852 1556h-510l31 156h510zM55 418q0 253 142 430q165 201 436 201q191 0 299 -115.5t108 -319.5q0 -255 -141 -430q-164 -200 -436 -200q-191 0 -299.5 115t-108.5 319zM616 893q-171 0 -286 -145q-92 -118 -92 -306q0 -144 62 -223.5t179 -79.5q171 0 287 146
q92 118 92 305q0 144 -62.5 223.5t-179.5 79.5zM410 1198l-84 86q111 150 247 150q74 0 136 -41q65 -41 110 -41q79 0 150 71l84 -88q-111 -147 -248 -147q-72 0 -137 41q-62 41 -109 41q-77 0 -149 -72z" />
    <glyph glyph-name="uni022E" unicode="&#x22e;" horiz-adv-x="1460" 
d="M791 1700q0 55 37.5 93t91.5 38q55 0 92 -37.5t37 -93.5q0 -54 -37 -90.5t-92 -36.5q-54 0 -91.5 36.5t-37.5 90.5zM870 1450q227 0 365 -156q141 -153 141 -424q0 -449 -309 -712q-201 -174 -481 -174q-226 0 -367 153q-139 157 -139 426q0 450 309 713q201 174 481 174
zM840 1278q-216 0 -371 -168q-201 -213 -201 -530q0 -205 89 -314.5t259 -109.5q216 0 371 168q201 213 201 530q0 205 -89 314.5t-259 109.5z" />
    <glyph glyph-name="uni022F" unicode="&#x22f;" horiz-adv-x="1173" 
d="M553 1298q0 55 37.5 93.5t91.5 38.5q55 0 92 -38t37 -94q0 -54 -37 -90.5t-92 -36.5q-54 0 -91.5 36.5t-37.5 90.5zM55 418q0 253 142 430q165 201 436 201q191 0 299 -115.5t108 -319.5q0 -255 -141 -430q-164 -200 -436 -200q-191 0 -299.5 115t-108.5 319zM616 893
q-171 0 -286 -145q-92 -118 -92 -306q0 -144 62 -223.5t179 -79.5q171 0 287 146q92 118 92 305q0 144 -62.5 223.5t-179.5 79.5z" />
    <glyph glyph-name="uni0230" unicode="&#x230;" horiz-adv-x="1460" 
d="M1198 1954h-510l31 155h510zM791 1700q0 55 37.5 93t91.5 38q55 0 92 -37.5t37 -93.5q0 -54 -37 -90.5t-92 -36.5q-54 0 -91.5 36.5t-37.5 90.5zM870 1450q227 0 365 -156q141 -153 141 -424q0 -449 -309 -712q-201 -174 -481 -174q-226 0 -367 153q-139 157 -139 426
q0 450 309 713q201 174 481 174zM840 1278q-216 0 -371 -168q-201 -213 -201 -530q0 -205 89 -314.5t259 -109.5q216 0 371 168q201 213 201 530q0 205 -89 314.5t-259 109.5z" />
    <glyph glyph-name="circumflex" unicode="&#x2c6;" horiz-adv-x="811" 
d="M340 1159h-201l367 336h63l254 -336h-182l-125 164z" />
    <glyph glyph-name="caron" unicode="&#x2c7;" horiz-adv-x="763" 
d="M655 1495h201l-367 -336h-63l-254 336h182l125 -164z" />
    <glyph glyph-name="breve" unicode="&#x2d8;" horiz-adv-x="501" 
d="M465 1434h137q-26 -105 -98 -164.5t-172 -59.5q-82 0 -135.5 50t-53.5 129q0 9 4 45h138q-2 -6 -2 -21q0 -32 20.5 -52t52.5 -20q91 0 109 93z" />
    <glyph glyph-name="dotaccent" unicode="&#x2d9;" horiz-adv-x="565" 
d="M270 1319q0 55 37.5 93t91.5 38q55 0 92 -37.5t37 -93.5q0 -54 -37 -90.5t-92 -36.5q-54 0 -91.5 36.5t-37.5 90.5z" />
    <glyph glyph-name="ring" unicode="&#x2da;" horiz-adv-x="428" 
d="M119 1337q0 86 58.5 145.5t144.5 59.5q87 0 144.5 -59t57.5 -146q0 -85 -57 -140.5t-145 -55.5q-87 0 -145 56t-58 140zM233 1339q-5 -55 42 -78t93.5 0t41.5 78q5 58 -41.5 82t-93.5 0t-42 -82z" />
    <glyph glyph-name="ogonek" unicode="&#x2db;" horiz-adv-x="460" 
d="M90 -123h127q-149 -101 -149 -174q0 -51 51 -51q32 0 58.5 18t70.5 66l74 -72q-63 -78 -120.5 -111.5t-129.5 -33.5q-66 0 -106 37t-40 100q0 116 164 221z" />
    <glyph glyph-name="tilde" unicode="&#x2dc;" horiz-adv-x="792" 
d="M221 1198l-84 86q111 150 248 150q73 0 135 -41q65 -41 111 -41q78 0 149 71l84 -88q-111 -147 -248 -147q-72 0 -137 41q-62 41 -108 41q-78 0 -150 -72z" />
    <glyph glyph-name="hungarumlaut" unicode="&#x2dd;" horiz-adv-x="808" 
d="M246 1147h-148l199 295h252zM614 1147h-147l199 295h252z" />
    <glyph glyph-name="Omega" unicode="&#x3a9;" horiz-adv-x="1396" 
d="M604 0h-450v156h264l-62 114q-34 67 -98 271q-61 195 -61 360q0 244 133 395q136 154 368 154q234 0 367 -154q135 -150 135 -395q0 -164 -55 -350q-54 -184 -111 -291l-55 -104h264v-156h-450v47l24 49q4 9 11.5 26t19 46t22.5 55q47 116 70 195q31 99 55 229
q25 141 25 254q0 184 -85 288.5t-237 104.5t-236.5 -104.5t-84.5 -288.5q0 -195 57 -401q61 -222 115 -332l55 -121v-47z" />
    <glyph glyph-name="pi" unicode="&#x3c0;" horiz-adv-x="1239" 
d="M293 877h-180v155h1011v-155h-180v-877h-172v877h-307v-877h-172v877z" />
    <glyph glyph-name="uni2010" unicode="&#x2010;" horiz-adv-x="980" 
d="M838 573h-725v152h725v-152z" />
    <glyph glyph-name="uni2011" unicode="&#x2011;" horiz-adv-x="980" 
d="M838 573h-725v152h725v-152z" />
    <glyph glyph-name="figuredash" unicode="&#x2012;" horiz-adv-x="1191" 
d="M1049 573h-936v152h936v-152z" />
    <glyph glyph-name="endash" unicode="&#x2013;" horiz-adv-x="1116" 
d="M956 573h-843l30 152h844z" />
    <glyph glyph-name="emdash" unicode="&#x2014;" horiz-adv-x="1507" 
d="M1348 573h-1235l30 152h1235z" />
    <glyph glyph-name="afii00208" unicode="&#x2015;" horiz-adv-x="4096" 
d="M3953 573h-3840v152h3840v-152z" />
    <glyph glyph-name="uni2016" unicode="&#x2016;" horiz-adv-x="1003" 
d="M707 -102v1638h163v-1638h-163zM205 -102v1638h164v-1638h-164z" />
    <glyph glyph-name="quoteleft" unicode="&#x2018;" horiz-adv-x="495" 
d="M145 1450h244l60 -420h-125z" />
    <glyph glyph-name="quoteright" unicode="&#x2019;" horiz-adv-x="497" 
d="M287 1030h-131l211 420h256z" />
    <glyph glyph-name="quotesinglbase" unicode="&#x201a;" horiz-adv-x="671" 
d="M121 -29h-131l211 420h256z" />
    <glyph glyph-name="quotedblleft" unicode="&#x201c;" horiz-adv-x="843" 
d="M145 1450h244l60 -420h-125zM494 1450h243l60 -420h-125z" />
    <glyph glyph-name="quotedblright" unicode="&#x201d;" horiz-adv-x="866" 
d="M287 1030h-131l211 420h256zM655 1030h-131l211 420h256z" />
    <glyph glyph-name="quotedblbase" unicode="&#x201e;" horiz-adv-x="1040" 
d="M121 -29h-131l211 420h256zM489 -29h-131l211 420h256z" />
    <glyph glyph-name="dagger" unicode="&#x2020;" horiz-adv-x="929" 
d="M408 868h-265l29 164h266l99 504h165l-98 -504h266l-30 -164h-267l-188 -970h-166z" />
    <glyph glyph-name="daggerdbl" unicode="&#x2021;" horiz-adv-x="929" 
d="M408 868h-265l29 164h266l99 504h165l-98 -504h266l-30 -164h-267l-59 -303h266l-30 -164h-267l-98 -503h-166l98 503h-264l31 164h264z" />
    <glyph glyph-name="bullet" unicode="&#x2022;" horiz-adv-x="657" 
d="M199 563q-44 47 -44 113t44 110q47 47 113 47t110 -47q47 -44 47 -110t-47 -113q-44 -44 -110 -44t-113 44z" />
    <glyph glyph-name="onedotenleader" unicode="&#x2024;" horiz-adv-x="563" 
d="M51 121q0 54 37 91.5t92 37.5q54 0 91.5 -37.5t37.5 -91.5q0 -55 -37.5 -92t-91.5 -37q-56 0 -92.5 37t-36.5 92z" />
    <glyph glyph-name="twodotenleader" unicode="&#x2025;" horiz-adv-x="1126" 
d="M614 121q0 54 37 91.5t92 37.5q54 0 91.5 -37.5t37.5 -91.5q0 -55 -37.5 -92t-91.5 -37q-55 0 -92 37t-37 92zM51 121q0 54 37 91.5t92 37.5q54 0 91.5 -37.5t37.5 -91.5q0 -55 -37.5 -92t-91.5 -37q-56 0 -92.5 37t-36.5 92z" />
    <glyph glyph-name="ellipsis" unicode="&#x2026;" horiz-adv-x="1648" 
d="M51 121q0 54 37 91.5t92 37.5q54 0 91.5 -37.5t37.5 -91.5q0 -55 -37.5 -92t-91.5 -37q-56 0 -92.5 37t-36.5 92zM594 121q0 54 37 91.5t92 37.5q54 0 91.5 -37.5t37.5 -91.5q0 -55 -37.5 -92t-91.5 -37q-55 0 -92 37t-37 92zM1137 121q0 54 37 91.5t92 37.5
q54 0 91.5 -37.5t37.5 -91.5q0 -55 -37.5 -92t-91.5 -37q-56 0 -92.5 37t-36.5 92z" />
    <glyph glyph-name="perthousand" unicode="&#x2030;" horiz-adv-x="2568" 
d="M158 1077q0 169 118 275q107 98 269 98q117 0 195.5 -78.5t78.5 -204.5q0 -167 -119 -274q-107 -98 -268 -98q-118 0 -196 78.5t-78 203.5zM520 1307q-83 0 -143 -54q-68 -62 -68 -155q0 -76 40 -118t108 -42q84 0 143 53q68 62 68 156q0 76 -40 118t-108 42zM915 266
q0 168 119 275q107 98 269 98q117 0 195.5 -78.5t78.5 -204.5q0 -167 -119 -274q-107 -98 -268 -98q-118 0 -196.5 78.5t-78.5 203.5zM1278 496q-83 0 -143 -54q-68 -62 -68 -155q0 -77 40 -118.5t107 -41.5q85 0 144 53q67 61 67 156q0 77 -40 118.5t-107 41.5zM1735 266
q0 169 118 275q107 98 269 98q117 0 195.5 -78.5t78.5 -204.5q0 -167 -119 -274q-107 -98 -268 -98q-117 0 -195.5 78t-78.5 204zM2097 496q-83 0 -143 -54q-68 -62 -68 -155q0 -76 40 -118t108 -42q84 0 143 53q68 62 68 156q0 76 -40 118t-108 42zM145 31l1385 1470
l94 -88l-1386 -1472z" />
    <glyph glyph-name="minute" unicode="&#x2032;" horiz-adv-x="593" 
d="M393 975h-127l41 475h230z" />
    <glyph glyph-name="second" unicode="&#x2033;" horiz-adv-x="1187" 
d="M987 975h-127l41 475h229zM393 975h-127l41 475h230z" />
    <glyph glyph-name="uni2034" unicode="&#x2034;" horiz-adv-x="1781" 
d="M1581 975h-127l41 475h229zM987 975h-127l41 475h229zM393 975h-127l41 475h230z" />
    <glyph glyph-name="uni2035" unicode="&#x2035;" horiz-adv-x="421" 
d="M113 1442h247l99 -295h-140z" />
    <glyph glyph-name="uni2036" unicode="&#x2036;" horiz-adv-x="843" 
d="M535 1442h247l99 -295h-140zM113 1442h247l99 -295h-140z" />
    <glyph glyph-name="uni2037" unicode="&#x2037;" horiz-adv-x="1265" 
d="M956 1442h248l99 -295h-140zM535 1442h247l99 -295h-140zM113 1442h247l99 -295h-140z" />
    <glyph glyph-name="guilsinglleft" unicode="&#x2039;" horiz-adv-x="790" 
d="M561 164l-489 407l26 127l647 418l-43 -219l-454 -276l348 -277z" />
    <glyph glyph-name="guilsinglright" unicode="&#x203a;" horiz-adv-x="790" 
d="M221 1116l490 -407l-27 -127l-647 -418l43 219l455 276l-349 277z" />
    <glyph glyph-name="exclamdbl" unicode="&#x203c;" horiz-adv-x="1421" 
d="M961 410l149 1024h233l-247 -1024h-135zM834 133q0 62 41 104t102 42t102 -42t41 -104q0 -60 -40.5 -99.5t-102.5 -39.5t-102.5 39.5t-40.5 99.5zM250 410l149 1024h234l-248 -1024h-135zM123 133q0 62 41 104t102 42t102.5 -42t41.5 -104q0 -60 -41 -99.5t-103 -39.5
t-102.5 39.5t-40.5 99.5z" />
    <glyph glyph-name="uni203E" unicode="&#x203e;" horiz-adv-x="475" 
d="M279 123h-510l30 156h510z" />
    <glyph glyph-name="fraction" unicode="&#x2044;" horiz-adv-x="1519" 
d="M20 31l1385 1470l94 -88l-1386 -1472z" />
    <glyph glyph-name="uni2047" unicode="&#x2047;" horiz-adv-x="1822" 
d="M1477 688l133 -59q-63 -122 -128.5 -169.5t-168.5 -47.5q-110 0 -178 65t-68 168q0 102 55.5 166.5t173.5 116.5l201 88q125 58 125 158q0 62 -42.5 97.5t-109.5 35.5q-155 0 -237 -199l-158 43q48 138 157.5 218.5t258.5 80.5q139 0 220 -71.5t81 -194.5
q0 -99 -49 -163.5t-152 -113.5l-243 -116q-66 -33 -95.5 -64.5t-29.5 -79.5q0 -42 26.5 -67t65.5 -25q51 0 86 30.5t76 102.5zM1098 129q0 60 39 99.5t96 39.5q60 0 99.5 -39.5t39.5 -99.5q0 -57 -39.5 -96t-99.5 -39q-57 0 -96 39t-39 96zM565 688l133 -59
q-63 -122 -128.5 -169.5t-168.5 -47.5q-110 0 -177.5 65t-67.5 168q0 102 55.5 166.5t173.5 116.5l201 88q125 58 125 158q0 62 -42.5 97.5t-109.5 35.5q-155 0 -237 -199l-158 43q48 138 157.5 218.5t258.5 80.5q139 0 220 -71.5t81 -194.5q0 -99 -49 -163.5t-152 -113.5
l-244 -116q-66 -33 -95.5 -64.5t-29.5 -79.5q0 -42 26.5 -67t65.5 -25q51 0 86 30.5t76 102.5zM186 129q0 60 39.5 99.5t96.5 39.5q60 0 99.5 -39.5t39.5 -99.5q0 -57 -39.5 -96t-99.5 -39q-57 0 -96.5 39t-39.5 96z" />
    <glyph glyph-name="uni2048" unicode="&#x2048;" horiz-adv-x="1622" 
d="M1161 410l150 1024h233l-248 -1024h-135zM1034 133q0 62 41.5 104t102.5 42t102 -42t41 -104q0 -60 -40.5 -99.5t-102.5 -39.5t-103 39.5t-41 99.5zM565 688l133 -59q-63 -122 -128.5 -169.5t-168.5 -47.5q-110 0 -177.5 65t-67.5 168q0 102 55.5 166.5t173.5 116.5
l201 88q125 58 125 158q0 62 -42.5 97.5t-109.5 35.5q-155 0 -237 -199l-158 43q48 138 157.5 218.5t258.5 80.5q139 0 220 -71.5t81 -194.5q0 -99 -49 -163.5t-152 -113.5l-244 -116q-66 -33 -95.5 -64.5t-29.5 -79.5q0 -42 26.5 -67t65.5 -25q51 0 86 30.5t76 102.5z
M186 129q0 60 39.5 99.5t96.5 39.5q60 0 99.5 -39.5t39.5 -99.5q0 -57 -39.5 -96t-99.5 -39q-57 0 -96.5 39t-39.5 96z" />
    <glyph glyph-name="uni2049" unicode="&#x2049;" horiz-adv-x="1622" 
d="M1276 688l133 -59q-63 -122 -128.5 -169.5t-168.5 -47.5q-110 0 -178 65t-68 168q0 102 56 166.5t174 116.5l200 88q125 58 125 158q0 62 -42 97.5t-109 35.5q-156 0 -238 -199l-158 43q48 138 157.5 218.5t258.5 80.5q139 0 220 -71.5t81 -194.5q0 -99 -49 -163.5
t-151 -113.5l-244 -116q-66 -33 -95.5 -64.5t-29.5 -79.5q0 -42 26.5 -67t65.5 -25q51 0 86 30.5t76 102.5zM897 129q0 60 39 99.5t96 39.5q60 0 99.5 -39.5t39.5 -99.5q0 -57 -39.5 -96t-99.5 -39q-57 0 -96 39t-39 96zM250 410l149 1024h234l-248 -1024h-135zM123 133
q0 62 41 104t102 42t102.5 -42t41.5 -104q0 -60 -41 -99.5t-103 -39.5t-102.5 39.5t-40.5 99.5z" />
    <glyph glyph-name="uni2057" unicode="&#x2057;" horiz-adv-x="2375" 
d="M2175 975h-127l41 475h229zM1581 975h-127l41 475h229zM987 975h-127l41 475h229zM393 975h-127l41 475h230z" />
    <glyph glyph-name="uni20A8" unicode="&#x20a8;" horiz-adv-x="2162" 
d="M1751 1049q97 0 176.5 -46t120.5 -126l-135 -101q-77 117 -182 117q-61 0 -100.5 -35t-39.5 -94q0 -51 34.5 -86t107.5 -68q62 -27 96 -46t74 -52q88 -64 88 -188q0 -156 -103 -248t-270 -92q-150 0 -250 86q-100 90 -115 206l152 74q43 -211 233 -211q77 0 123.5 42
t46.5 110q0 77 -53 117q-9 7 -16 12t-16.5 10t-14 8t-17.5 9t-18.5 8.5t-24.5 11t-28 12.5q-203 89 -203 275q0 136 90.5 215.5t243.5 79.5zM1085 0h-202l-285 676h-211l-133 -676h-182l280 1434h455q170 0 267 -86t97 -236q0 -178 -100 -289.5t-278 -134.5zM778 1262h-278
l-80 -414h285q133 0 205.5 58.5t72.5 172.5q0 183 -205 183z" />
    <glyph glyph-name="Euro" unicode="&#x20ac;" horiz-adv-x="1234" 
d="M264 793h-184l113 163h116q172 494 619 494q134 0 227.5 -61t130.5 -172l-153 -76q-62 145 -236 145q-284 0 -414 -330h484l-113 -163h-418l-30 -152h499l-112 -164h-402q0 -330 293 -330q85 0 148.5 34.5t130.5 115.5l129 -80q-166 -233 -439 -233q-203 0 -319.5 130
t-116.5 363h-197l111 164h102z" />
    <glyph glyph-name="trademark" unicode="&#x2122;" horiz-adv-x="1675" 
d="M381 1313h-215l22 121h578l-23 -121h-215l-135 -699h-147zM758 614l157 820h154l109 -529l315 529h160l-158 -820h-147l98 512l-262 -436h-86l-92 443l-101 -519h-147z" />
    <glyph glyph-name="partialdiff" unicode="&#x2202;" horiz-adv-x="1230" 
d="M98 432q0 261 162 438q164 179 418 179q165 0 248 -103q-17 163 -97 255.5t-202 92.5q-166 0 -242 -172l-168 43q52 132 161 208.5t255 76.5q235 0 353 -186.5t118 -532.5q0 -112 -20.5 -217t-66 -202t-112 -169.5t-165.5 -115.5t-220 -43q-189 0 -305 125
q-117 126 -117 323zM662 893q-174 0 -281 -143q-107 -140 -107 -322q0 -130 69.5 -209.5t186.5 -79.5q174 0 279 135q104 137 104 332q0 135 -65 211t-186 76z" />
    <glyph glyph-name="Delta" unicode="&#x2206;" horiz-adv-x="1368" 
d="M1255 0h-1142v41l491 1393h160l491 -1393v-41zM1040 156l-356 1030l-356 -1030h712z" />
    <glyph glyph-name="product" unicode="&#x220f;" horiz-adv-x="1130" 
d="M360 0h-172v1434h754v-1434h-172v1278h-410v-1278z" />
    <glyph glyph-name="summation" unicode="&#x2211;" horiz-adv-x="1126" 
d="M993 1278h-614l346 -541v-41l-346 -540h614v-156h-874v41l434 676l-434 676v41h874v-156z" />
    <glyph glyph-name="minus" unicode="&#x2212;" horiz-adv-x="1167" 
d="M1038 573h-901v152h901v-152z" />
    <glyph glyph-name="radical" unicode="&#x221a;" horiz-adv-x="1171" 
d="M608 270l348 1180h164l-444 -1450h-135l-209 641h-213v156h313z" />
    <glyph glyph-name="infinity" unicode="&#x221e;" horiz-adv-x="1802" 
d="M1307 344q-109 0 -218.5 59.5t-187.5 167.5q-78 -108 -187 -167.5t-218 -59.5q-175 0 -276 106t-101 285t101 285t276 106q109 0 218 -59.5t187 -167.5q78 108 187.5 167.5t218.5 59.5q175 0 275.5 -106t100.5 -285t-100.5 -285t-275.5 -106zM526 500q75 0 155 63
t134 172q-54 109 -134 172.5t-155 63.5q-106 0 -168.5 -63t-62.5 -173t62.5 -172.5t168.5 -62.5zM1276 500q106 0 168.5 62.5t62.5 172.5t-62.5 173t-168.5 63q-75 0 -155 -63.5t-134 -172.5q54 -109 134 -172t155 -63z" />
    <glyph glyph-name="integral" unicode="&#x222b;" horiz-adv-x="978" 
d="M197 -84l229 1184q68 350 401 350q86 0 142 -33l-64 -151q-51 28 -110 28q-84 0 -130.5 -46.5t-66.5 -147.5l-229 -1184q-68 -350 -402 -350q-85 0 -141 33l63 151q53 -29 111 -29q84 0 130 47t67 148z" />
    <glyph glyph-name="approxequal" unicode="&#x2248;" horiz-adv-x="1236" 
d="M240 344l-101 102q44 85 116.5 134t154.5 49q91 0 208 -51q119 -52 189 -52q113 0 190 92l101 -104q-44 -85 -115.5 -132.5t-155.5 -47.5q-92 0 -209 51q-114 51 -188 51q-113 0 -190 -92zM240 754l-101 102q44 85 116.5 133.5t154.5 48.5q91 0 208 -51t189 -51
q113 0 190 92l101 -104q-45 -85 -116 -133t-155 -48q-90 0 -209 52q-114 51 -188 51q-113 0 -190 -92z" />
    <glyph glyph-name="notequal" unicode="&#x2260;" horiz-adv-x="1144" 
d="M539 729h-375v152h461l120 209l132 -76l-76 -133h180v-152h-270l-105 -188h375v-152h-461l-121 -209l-131 76l76 133h-180v152h270z" />
    <glyph glyph-name="lessequal" unicode="&#x2264;" horiz-adv-x="1140" 
d="M1014 0h-901v152h901v-152zM922 354l-715 379v180l715 379v-176l-547 -293l547 -293v-176z" />
    <glyph glyph-name="greaterequal" unicode="&#x2265;" horiz-adv-x="1140" 
d="M127 152h901v-152h-901v152zM219 1292l715 -379v-180l-715 -379v176l547 293l-547 293v176z" />
    <glyph glyph-name="lozenge" unicode="&#x25ca;" horiz-adv-x="1048" 
d="M608 0h-168l-368 717l368 717h168l369 -717zM244 717l280 -561l281 561l-281 561z" />
    <glyph glyph-name="apple" unicode="&#xf8ff;" horiz-adv-x="1609" 
d="M1411 1264v-1219q0 -19 -13 -32t-32 -13q-8 0 -14 2l-547 158l-547 -158q-6 -2 -14 -2q-19 0 -32 13t-13 32v1219q0 37 32 45l553 159q20 8 41 0l553 -159q33 -9 33 -45zM760 750v620l-471 -137q12 -191 145 -330q135 -138 326 -153zM1321 1233l-471 137v-620
q192 15 324 153q135 138 147 330zM287 948v-844l473 138v417q-149 12 -274 89t-199 200zM850 242l473 -138v844q-75 -124 -200 -200.5t-273 -88.5v-417z" />
    <glyph glyph-name="zero.tn" horiz-adv-x="1146" 
d="M727 1450q187 0 289 -132.5t102 -381.5q0 -459 -215 -733q-174 -219 -442 -219q-186 0 -288.5 132.5t-102.5 381.5q0 459 215 733q174 219 442 219zM702 1286q-115 0 -208 -77.5t-144 -204.5q-98 -244 -98 -484q0 -193 57.5 -283t175.5 -90q97 -1 176.5 52.5t130 137
t84.5 188.5t47.5 203t12.5 185q0 193 -58 283t-176 90z" />
    <glyph glyph-name="one.tn" horiz-adv-x="1146" 
d="M387 1212l408 222h65l-280 -1434h-170l229 1176l-289 -152z" />
    <glyph glyph-name="two.tn" horiz-adv-x="1146" 
d="M891 0h-850l14 80l660 700q43 45 88 97q35 42 61.5 99.5t26.5 110.5q0 199 -184 199q-91 0 -162.5 -67t-104.5 -179l-174 33q46 173 163.5 275t291.5 102q158 0 255 -89.5t97 -227.5q0 -118 -42 -206t-144 -196l-533 -567h568z" />
    <glyph glyph-name="three.tn" horiz-adv-x="1146" 
d="M106 377v16l173 23v-13q0 -114 68 -185t185 -71q297 0 297 355q0 122 -62 187t-173 65q-72 0 -133 -27l-53 96l387 447h-498l31 164h780l-10 -56l-455 -493q21 6 53 6q150 0 233 -100.5t83 -284.5q0 -234 -133 -379q-131 -143 -367 -143q-180 0 -293 116t-113 277z" />
    <glyph glyph-name="four.tn" horiz-adv-x="1146" 
d="M758 0h-183l60 305h-600l14 72l791 1057h198l-188 -965h170l-33 -164h-170zM795 1135l-494 -666h367z" />
    <glyph glyph-name="five.tn" horiz-adv-x="1146" 
d="M78 354v23l168 31v-17q0 -111 58.5 -177.5t162.5 -66.5q149 0 240 105q94 107 94 276q0 258 -219 258q-79 0 -166.5 -42.5t-153.5 -116.5l-108 24l215 783h702l-31 -164h-546l-123 -416q110 96 254 96q169 0 263.5 -100.5t94.5 -294.5q0 -259 -145 -416
q-143 -155 -394 -155q-154 0 -262 102q-104 104 -104 268z" />
    <glyph glyph-name="six.tn" horiz-adv-x="1146" 
d="M635 918q165 0 261.5 -100.5t96.5 -285.5q0 -238 -149 -393t-385 -155q-172 0 -270.5 104t-98.5 277q0 193 135 372l545 713h209l-418 -547q35 15 74 15zM590 756q-141 0 -230 -109q-88 -107 -88 -256q0 -244 211 -244q143 0 234 105q94 107 94 256q0 121 -58.5 184.5
t-162.5 63.5z" />
    <glyph glyph-name="seven.tn" horiz-adv-x="1146" 
d="M1153 1358l-815 -1358h-186l766 1270h-586l33 164h804z" />
    <glyph glyph-name="eight.tn" horiz-adv-x="1146" 
d="M739 1450q157 0 245.5 -89.5t88.5 -240.5q0 -120 -65 -211.5t-177 -140.5q71 -37 115.5 -114t44.5 -181q0 -221 -129 -350q-139 -139 -397 -139q-162 0 -270 102q-109 103 -109 264q0 141 75 251t216 171q-113 82 -113 248q0 194 148 321q133 109 327 109zM590 676
q-133 0 -228 -86q-94 -82 -94 -211q0 -106 61 -169t165 -63q138 0 226.5 84.5t88.5 219.5q0 105 -57 165t-162 60zM709 1294q-115 0 -193 -75q-78 -78 -78 -189q0 -88 49 -139t134 -51q111 0 194 71q84 72 84 185q0 95 -48.5 146.5t-141.5 51.5z" />
    <glyph glyph-name="nine.tn" horiz-adv-x="1146" 
d="M539 516q-165 0 -262 100t-97 285q0 237 150 393t385 156q171 0 269.5 -103.5t98.5 -277.5q0 -195 -135 -373l-545 -712h-208l417 546q-32 -14 -73 -14zM584 678q140 0 229 108q88 107 88 256q0 244 -211 244q-142 0 -235 -106q-93 -107 -93 -254q0 -121 58.5 -184.5
t163.5 -63.5z" />
    <glyph glyph-name="No" horiz-adv-x="2568" 
d="M2410 0h-897v156h897v-156zM1602 541q-136 157 -136 377q0 217 136 374q140 158 360 158q221 0 358 -158q138 -156 138 -374q0 -221 -138 -377q-135 -156 -358 -156q-222 0 -360 156zM1726 1182q-84 -113 -84 -264t84 -267q85 -110 236 -110t233 110q86 115 86 267
t-86 264q-81 112 -233 112t-236 -112zM1057 313v1121h180v-1434h-211l-647 1116v-1116h-180v1434h211z" />
    </font>
</defs>
</svg>
