<?xml version="1.0" standalone="no"?>
<!DOCTYPE svg PUBLIC "-//W3C//DTD SVG 1.1//EN" "http://www.w3.org/Graphics/SVG/1.1/DTD/svg11.dtd" >
<svg xmlns="http://www.w3.org/2000/svg" xmlns:xlink="http://www.w3.org/1999/xlink" version="1.1">
<metadata>
Created by FontForge 20170731 at Tue Apr 27 22:29:56 2021
 By Aleksey,,,
Copyright (c) 2010-2012 by The Entente (AS&#38;EH). All rights reserved.
</metadata>
<defs>
<font id="ApercuPro-Mono" horiz-adv-x="1269" >
  <font-face 
    font-family="Apercu Pro Mono"
    font-weight="400"
    font-stretch="normal"
    units-per-em="2048"
    panose-1="2 0 5 9 3 0 0 2 0 4"
    ascent="1638"
    descent="-410"
    x-height="1032"
    cap-height="1434"
    bbox="-23 -551 1403 2257"
    underline-thickness="102"
    underline-position="-307"
    unicode-range="U+000D-FB02"
  />
<missing-glyph 
d="M176 0v1434h916v-1434h-916zM920 1278h-572v-1122h572v1122z" />
    <glyph glyph-name="fi" unicode="fi" 
d="M96 877v155h189v53q0 177 106 271t273 94q118 0 201.5 -38.5t160.5 -117.5l-119 -112q-68 63 -120 87.5t-125 24.5q-97 0 -151 -48.5t-54 -145.5v-68h608v-1032h-172v877h-436v-877h-172v877h-189z" />
    <glyph glyph-name="fl" unicode="fl" 
d="M600 1278q-73 0 -108 -47.5t-35 -147.5v-51h213v-155h-213v-877h-172v877h-189v155h189v37q0 365 317 365h467v-1434h-172v1278h-297z" />
    <glyph glyph-name=".notdef" 
d="M176 0v1434h916v-1434h-916zM920 1278h-572v-1122h572v1122z" />
    <glyph glyph-name=".null" horiz-adv-x="0" 
 />
    <glyph glyph-name=".null" horiz-adv-x="0" 
 />
    <glyph glyph-name="nonmarkingreturn" 
 />
    <glyph glyph-name="CR" unicode="&#xd;" 
 />
    <glyph glyph-name="space" unicode=" " 
 />
    <glyph glyph-name="exclam" unicode="!" 
d="M518 1434h234l-50 -1024h-135zM492 133q0 62 41 104t102 42t102 -42t41 -104q0 -59 -41 -99t-102 -40t-102 40t-41 99z" />
    <glyph glyph-name="quotedbl" unicode="&#x22;" 
d="M373 946l-51 504h233l-51 -504h-131zM764 946l-51 504h233l-51 -504h-131z" />
    <glyph glyph-name="numbersign" unicode="#" 
d="M164 856v152h233l68 426h160l-68 -426h268l70 426h160l-70 -426h201v-152h-225l-46 -278h209v-152h-233l-68 -426h-159l67 426h-268l-70 -426h-160l70 426h-201v152h226l45 278h-209zM532 856l-45 -278h269l45 278h-269z" />
    <glyph glyph-name="dollar" unicode="$" 
d="M1106 1143l-158 -80q-94 217 -291 217q-119 0 -188.5 -59t-69.5 -164q0 -28 6 -52.5t20 -44t28.5 -35t40.5 -30t48 -24.5t57.5 -21t62 -18.5t69.5 -18.5q54 -14 92 -25.5t84 -29.5t77 -37t62.5 -47t50.5 -60.5t30.5 -77t11.5 -96.5q0 -205 -105.5 -318t-288.5 -134v-193
h-163v193q-177 21 -297 129t-156 293l168 65q84 -319 367 -319q135 0 214.5 66.5t79.5 193.5q0 32 -7.5 57.5t-18.5 44.5t-35 36t-45 28t-61.5 24t-71 21t-86.5 22q-53 13 -87.5 23t-82.5 28.5t-79 38t-65 50t-54 66.5t-33 86t-13 110q0 157 96 265.5t267 129.5v192h163
v-196q137 -22 228 -104.5t133 -194.5z" />
    <glyph glyph-name="percent" unicode="%" 
d="M27 1122q0 137 94 232.5t233 95.5t233.5 -95.5t94.5 -232.5t-94.5 -232t-233.5 -95t-233 95t-94 232zM176 1122q0 -80 48.5 -132t129.5 -52t129.5 52t48.5 132t-48.5 132.5t-129.5 52.5t-129.5 -52.5t-48.5 -132.5zM588 311q0 137 94 232.5t233 95.5t233.5 -95.5
t94.5 -232.5t-94.5 -232t-233.5 -95t-233 95t-94 232zM737 311q0 -80 48.5 -132t129.5 -52q82 0 130.5 52t48.5 132t-49 132.5t-130 52.5t-129.5 -52.5t-48.5 -132.5zM1120 1130l70 -98l-1038 -723l-70 99z" />
    <glyph glyph-name="ampersand" unicode="&#x26;" 
d="M543 -16q-196 0 -315 114t-119 312q0 102 42 192t102.5 148t133.5 96q-35 48 -57 83.5t-45 97t-23 118.5q0 133 91 219t227 86q144 0 231.5 -86t87.5 -201q0 -86 -51 -174q-56 -99 -227 -186l299 -379q37 77 96 244l114 -125q-50 -145 -106 -252l229 -291h-206l-121 152
q-148 -168 -383 -168zM543 139q171 0 284 137l-352 453q-90 -50 -142 -131.5t-52 -191.5q0 -124 76.5 -195.5t185.5 -71.5zM580 1303q-69 0 -111.5 -47.5t-42.5 -118.5q0 -93 100 -224q103 51 157 106.5t54 133.5q0 64 -44 107t-113 43z" />
    <glyph glyph-name="quotesingle" unicode="'" 
d="M569 946l-51 504h234l-52 -504h-131z" />
    <glyph glyph-name="parenleft" unicode="(" 
d="M705 1536h172q-109 -173 -163.5 -369t-54.5 -450t54.5 -450t163.5 -369h-172q-105 166 -163.5 360t-58.5 459t58.5 459t163.5 360z" />
    <glyph glyph-name="parenright" unicode=")" 
d="M401 1536h172q105 -166 163.5 -360t58.5 -459t-58.5 -459t-163.5 -360h-172q108 172 162.5 368.5t54.5 450.5t-54.5 450.5t-162.5 368.5z" />
    <glyph glyph-name="asterisk" unicode="*" 
d="M705 1450v-283l268 88l43 -133l-266 -88l163 -227l-112 -80l-166 227l-166 -227l-113 80l164 227l-266 88l43 133l268 -88v283h140z" />
    <glyph glyph-name="plus" unicode="+" 
d="M559 1104h152v-375h374v-151h-374v-375h-152v375h-375v151h375v375z" />
    <glyph glyph-name="comma" unicode="," 
d="M406 -219l196 444h252l-299 -444h-149z" />
    <glyph glyph-name="hyphen" unicode="-" 
d="M279 573v152h714v-152h-714z" />
    <glyph glyph-name="period" unicode="." 
d="M471 156q0 70 46.5 116.5t117.5 46.5t117.5 -46.5t46.5 -116.5t-46.5 -117t-117.5 -47t-117.5 47t-46.5 117z" />
    <glyph glyph-name="slash" unicode="/" 
d="M958 1536h177l-832 -1638h-176z" />
    <glyph glyph-name="zero" unicode="0" 
d="M635 -16q-248 0 -386 197.5t-138 535.5t138 535.5t386 197.5t386 -197.5t138 -535.5t-138 -535.5t-386 -197.5zM291 717q0 -237 76 -389l426 911q-68 47 -158 47q-163 0 -253.5 -152t-90.5 -417zM635 147q163 0 253.5 152.5t90.5 417.5q0 240 -76 389l-426 -911
q70 -48 158 -48z" />
    <glyph glyph-name="one" unicode="1" 
d="M715 1434h65v-1278h369v-156h-909v156h368v1020l-358 -213v188z" />
    <glyph glyph-name="two" unicode="2" 
d="M244 0v80l565 700q68 85 92.5 144t24.5 129q0 101 -54 164q-59 69 -172 69q-101 0 -167 -71t-84 -189l-175 33q17 168 139.5 279.5t286.5 111.5q200 0 312 -125q90 -103 90 -272q0 -167 -115 -312l-463 -577h604v-164h-884z" />
    <glyph glyph-name="three" unicode="3" 
d="M164 393l172 23q19 -130 90.5 -199.5t194.5 -69.5q128 0 207 80t79 224q0 145 -78 224t-208 79q-69 0 -127 -27l-72 96l326 447h-517v164h779v-56l-365 -493q18 6 57 6q166 0 273.5 -122t107.5 -318q0 -206 -129 -336.5t-333 -130.5q-181 0 -310 112t-147 297z" />
    <glyph glyph-name="four" unicode="4" 
d="M750 0v305h-623v72l606 1057h193v-965h217v-164h-217v-305h-176zM360 469h390v694z" />
    <glyph glyph-name="five" unicode="5" 
d="M195 375l174 33q18 -126 92 -193.5t184 -67.5q130 0 210.5 88.5t80.5 231.5q0 145 -72 232t-202 87q-96 0 -182 -45t-140 -114l-113 24l82 783h701v-164h-551l-53 -416q42 41 119.5 68.5t148.5 27.5q205 0 321.5 -130t116.5 -353q0 -213 -130 -348t-337 -135
q-182 0 -306 101.5t-144 289.5z" />
    <glyph glyph-name="six" unicode="6" 
d="M674 918q196 0 320 -130.5t124 -336.5q0 -199 -127.5 -333t-324.5 -134t-325 134t-128 333q0 142 74 268l424 731h196l-311 -547q35 15 78 15zM666 754q-120 0 -196.5 -82.5t-76.5 -220.5q0 -132 77 -218t196 -86q118 0 195 86t77 218q0 138 -76 220.5t-196 82.5z" />
    <glyph glyph-name="seven" unicode="7" 
d="M500 0h-191l604 1270h-694v164h920v-76z" />
    <glyph glyph-name="eight" unicode="8" 
d="M635 1450q171 0 283 -110.5t112 -272.5q0 -91 -46 -174t-118 -121q97 -44 155 -137.5t58 -222.5q0 -131 -62 -230t-161.5 -148.5t-220.5 -49.5q-186 0 -315.5 116.5t-129.5 311.5q0 129 58 222.5t155 137.5q-72 38 -117.5 121t-45.5 174q0 162 112 272.5t283 110.5z
M635 676q-116 0 -190 -71.5t-74 -192.5t74 -193t190 -72t190 72t74 193t-74 192.5t-190 71.5zM635 1294q-100 0 -159.5 -63.5t-59.5 -163.5t59.5 -163.5t159.5 -63.5t159.5 63.5t59.5 163.5t-59.5 163.5t-159.5 63.5z" />
    <glyph glyph-name="nine" unicode="9" 
d="M612 516q-196 0 -320 130.5t-124 336.5q0 199 128 333t325 134t324.5 -134t127.5 -333q0 -142 -74 -268l-424 -731h-196l311 546q-32 -14 -78 -14zM621 680q120 0 196 82.5t76 220.5q0 132 -77 217.5t-195 85.5q-119 0 -196 -85.5t-77 -217.5q0 -138 76.5 -220.5
t196.5 -82.5z" />
    <glyph glyph-name="colon" unicode=":" 
d="M471 156q0 70 46.5 116.5t117.5 46.5t117.5 -46.5t46.5 -116.5t-46.5 -117t-117.5 -47t-117.5 47t-46.5 117zM471 856q0 70 46.5 117t117.5 47t117.5 -47t46.5 -117t-46.5 -117t-117.5 -47t-117.5 47t-46.5 117z" />
    <glyph glyph-name="semicolon" unicode=";" 
d="M330 -219l196 444h252l-299 -444h-149zM471 856q0 70 46.5 117t117.5 47t117.5 -47t46.5 -117t-46.5 -117t-117.5 -47t-117.5 47t-46.5 117z" />
    <glyph glyph-name="less" unicode="&#x3c;" 
d="M201 545v180l837 401v-178l-665 -313l665 -313v-179z" />
    <glyph glyph-name="equal" unicode="=" 
d="M227 729v152h817v-152h-817zM227 389v152h817v-152h-817z" />
    <glyph glyph-name="greater" unicode="&#x3e;" 
d="M1069 725v-180l-838 -402v179l666 313l-666 313v178z" />
    <glyph glyph-name="question" unicode="?" 
d="M915 629q-35 -104 -106 -159.5t-168 -55.5q-124 0 -197 68t-73 186q0 168 174 258q45 24 101 46t87 38q51 27 69.5 61.5t18.5 83.5q0 70 -43 107q-49 43 -133 43q-78 0 -134.5 -51.5t-80.5 -137.5l-160 27q25 140 123.5 223.5t251.5 83.5q157 0 254 -90q94 -88 94 -215
q0 -167 -157 -244l-207 -100q-101 -56 -101 -142q0 -49 28.5 -76.5t78.5 -27.5q95 0 147 121zM506 129q0 59 39 99t96 40q59 0 99 -40t40 -99q0 -57 -40 -96t-99 -39q-57 0 -96 39t-39 96z" />
    <glyph glyph-name="at" unicode="@" 
d="M1186 219h-160l-16 90q-78 -106 -222 -106q-165 0 -266.5 120.5t-101.5 299.5q0 185 100.5 301t267.5 116q72 0 137 -24.5t103 -65.5v43q0 154 -92.5 242t-249.5 88q-196 0 -312 -172t-116 -500v-69q0 -298 117 -463.5t342 -165.5q117 0 204 36t162 111l80 -125
q-77 -76 -191.5 -122t-254.5 -46q-300 0 -465.5 201.5t-165.5 569.5v79q0 392 157 602.5t443 210.5q232 0 366 -119t134 -345v-787zM805 889q-101 0 -159 -73t-58 -193t58 -194.5t159 -74.5t159 74.5t58 194.5t-58 193t-159 73z" />
    <glyph glyph-name="A" unicode="A" 
d="M549 1434h172l510 -1434h-187l-129 383h-561l-129 -383h-186zM635 1200l-221 -645h442z" />
    <glyph glyph-name="B" unicode="B" 
d="M197 1434h503q192 0 300 -96.5t108 -272.5q0 -91 -46.5 -166.5t-117.5 -114.5q107 -43 171.5 -136t64.5 -222q0 -199 -119 -312.5t-328 -113.5h-536v1434zM377 678v-506h330q144 0 215 61.5t71 192.5q0 129 -71 190.5t-215 61.5h-330zM696 1262h-319v-412h319
q104 0 165 52t61 153t-61.5 154t-164.5 53z" />
    <glyph glyph-name="C" unicode="C" 
d="M1036 471l170 -51q-49 -199 -181.5 -317.5t-332.5 -118.5q-124 0 -230 45.5t-187.5 134t-128 230.5t-46.5 323t46.5 323t128 230.5t187.5 134t230 45.5q200 0 332.5 -118.5t181.5 -317.5l-170 -51q-48 160 -130 237.5t-214 77.5q-190 0 -297.5 -138.5t-107.5 -422.5
t107.5 -422.5t297.5 -138.5q132 0 214 77.5t130 237.5z" />
    <glyph glyph-name="D" unicode="D" 
d="M160 1434h362q142 0 257.5 -44.5t200.5 -131.5t132 -225t47 -316t-47 -316t-132 -225t-200.5 -131.5t-257.5 -44.5h-362v1434zM504 1262h-164v-1090h164q225 0 344 128t119 417t-119 417t-344 128z" />
    <glyph glyph-name="E" unicode="E" 
d="M186 1434h910v-172h-729v-412h626v-172h-626v-506h749v-172h-930v1434z" />
    <glyph glyph-name="F" unicode="F" 
d="M186 1434h895v-172h-714v-428h614v-172h-614v-662h-181v1434z" />
    <glyph glyph-name="G" unicode="G" 
d="M1040 0l-10 193q-48 -103 -144.5 -156t-215.5 -53t-222.5 45.5t-184 134t-127 231t-46.5 322.5q0 181 46.5 323t128 230.5t187.5 134t230 45.5q204 0 334 -118t180 -318l-170 -51q-48 160 -130 237.5t-214 77.5q-190 0 -298 -138.5t-108 -422.5t108 -422.5t298 -138.5
q146 0 227 101t95 294h-322v172h508v-723h-150z" />
    <glyph glyph-name="H" unicode="H" 
d="M950 1434h180v-1434h-180v676h-631v-676h-180v1434h180v-586h631v586z" />
    <glyph glyph-name="I" unicode="I" 
d="M1071 0h-872v156h346v1122h-346v156h872v-156h-346v-1122h346v-156z" />
    <glyph glyph-name="J" unicode="J" 
d="M856 455v979h180v-975q0 -118 -33.5 -209.5t-93.5 -149t-139.5 -87t-173.5 -29.5q-186 0 -303 110.5t-143 278.5l182 39q25 -120 93 -188t171 -68q122 0 191 74t69 225z" />
    <glyph glyph-name="K" unicode="K" 
d="M1210 0h-229l-600 719v-719h-180v1434h180v-576l549 576h235l-618 -646z" />
    <glyph glyph-name="L" unicode="L" 
d="M1184 0h-912v1434h181v-1262h731v-172z" />
    <glyph glyph-name="M" unicode="M" 
d="M137 1434h193l305 -795l305 795h193v-1434h-181v1051l-250 -639h-135l-250 639v-1051h-180v1434z" />
    <glyph glyph-name="N" unicode="N" 
d="M942 1434h180v-1434h-196l-600 1106v-1106h-181v1434h197l600 -1106v1106z" />
    <glyph glyph-name="O" unicode="O" 
d="M635 1450q118 0 218.5 -46t176.5 -135t119 -230.5t43 -321.5t-43 -321.5t-119 -230.5t-176.5 -135t-218.5 -46t-218.5 46t-176.5 135t-119 230.5t-43 321.5t43 321.5t119 230.5t176.5 135t218.5 46zM635 1278q-170 0 -270.5 -136t-100.5 -425t100.5 -425t270.5 -136
t270.5 136t100.5 425t-100.5 425t-270.5 136z" />
    <glyph glyph-name="P" unicode="P" 
d="M745 614h-362v-614h-180v1434h542q204 0 315 -110t111 -300t-111 -300t-315 -110zM741 786q119 0 181.5 60t62.5 178t-62.5 178t-181.5 60h-358v-476h358z" />
    <glyph glyph-name="Q" unicode="Q" 
d="M635 1450q118 0 218.5 -46t176.5 -135t119 -230.5t43 -321.5q0 -287 -107 -471l134 -133l-125 -129l-123 122q-137 -122 -336 -122q-118 0 -218.5 46t-176.5 135t-119 230.5t-43 321.5t43 321.5t119 230.5t176.5 135t218.5 46zM700 381l125 129l127 -129q54 137 54 336
q0 289 -100.5 425t-270.5 136t-270.5 -136t-100.5 -425t100.5 -425t270.5 -136q129 0 213 73z" />
    <glyph glyph-name="R" unicode="R" 
d="M1004 0l-420 676h-240v-676h-180v1434h502q196 0 308.5 -96.5t112.5 -282.5q0 -154 -77.5 -245.5t-221.5 -121.5l429 -688h-213zM670 1262h-326v-414h326q231 0 231 207t-231 207z" />
    <glyph glyph-name="S" unicode="S" 
d="M1098 1143l-158 -80q-93 215 -291 215q-120 0 -189 -58t-69 -163q0 -28 6 -52.5t20 -44t28.5 -35t40.5 -30t48 -24.5t57.5 -21t62 -18.5t69.5 -18.5q64 -17 107 -30.5t95 -35.5t85 -48.5t62.5 -63t43.5 -85.5t14 -110q0 -227 -128.5 -341.5t-346.5 -114.5
q-208 0 -351 110t-183 316l168 65q84 -319 366 -319q135 0 215 66.5t80 193.5q0 32 -7.5 57.5t-18.5 44.5t-35 36t-45 28t-61.5 24t-71 21t-86.5 22q-53 13 -87.5 23t-82.5 28.5t-79 38t-65 50t-54 66.5t-33 86t-13 110q0 176 116.5 287.5t321.5 111.5q174 0 287.5 -88
t161.5 -219z" />
    <glyph glyph-name="T" unicode="T" 
d="M98 1262v172h1073v-172h-446v-1262h-180v1262h-447z" />
    <glyph glyph-name="U" unicode="U" 
d="M127 498v936h180v-949q0 -147 86 -238t242 -91t242 91t86 238v949h180v-936q0 -160 -68 -278t-182 -177t-258 -59t-258 59t-182 177t-68 278z" />
    <glyph glyph-name="V" unicode="V" 
d="M1036 1434h187l-502 -1434h-172l-502 1434h186l402 -1178z" />
    <glyph glyph-name="W" unicode="W" 
d="M1020 1434h186l-137 -1434h-223l-211 842l-211 -842h-223l-138 1434h187l86 -1168l217 875h164l217 -875z" />
    <glyph glyph-name="X" unicode="X" 
d="M143 1434h207l285 -488l285 488h206l-389 -664l453 -770h-207l-348 594l-348 -594h-207l452 770z" />
    <glyph glyph-name="Y" unicode="Y" 
d="M545 565l-461 869h199l352 -689l352 689h199l-461 -869v-565h-180v565z" />
    <glyph glyph-name="Z" unicode="Z" 
d="M178 1262v172h934v-86l-702 -1176h725v-172h-985v86l702 1176h-674z" />
    <glyph glyph-name="bracketleft" unicode="[" 
d="M420 -102v1638h549v-156h-385v-1327h385v-155h-549z" />
    <glyph glyph-name="backslash" unicode="\" 
d="M137 1536h176l832 -1638h-176z" />
    <glyph glyph-name="bracketright" unicode="]" 
d="M850 1536v-1638h-549v155h385v1327h-385v156h549z" />
    <glyph glyph-name="asciicircum" unicode="^" 
d="M567 1434h135l383 -572h-176l-274 416l-275 -416h-176z" />
    <glyph glyph-name="underscore" unicode="_" 
d="M143 -164v164h983v-164h-983z" />
    <glyph glyph-name="grave" unicode="`" 
d="M688 1442l137 -295h-135l-250 295h248z" />
    <glyph glyph-name="a" unicode="a" 
d="M403 297q0 -73 46.5 -115.5t123.5 -42.5q42 0 85.5 10t88 34.5t79 59.5t56 90t21.5 122v32h-225q-131 0 -203 -50.5t-72 -139.5zM1075 651v-651h-139l-25 145q-50 -71 -150 -116t-214 -45q-137 0 -228.5 81t-91.5 232q0 167 124 252.5t343 85.5h209v45q0 112 -66.5 162.5
t-170.5 50.5q-88 0 -153 -49t-91 -127l-152 41q35 133 144 212t252 79q191 0 300 -96.5t109 -301.5z" />
    <glyph glyph-name="b" unicode="b" 
d="M1165 516q0 -241 -125 -386.5t-348 -145.5q-100 0 -184.5 44t-130.5 109v-137h-172v1450h172v-549q46 63 130 105.5t185 42.5q223 0 348 -146t125 -387zM989 516q0 169 -84 273t-229 104t-229.5 -104t-84.5 -273t84.5 -273t229.5 -104t229 104t84 273z" />
    <glyph glyph-name="c" unicode="c" 
d="M963 330l149 -62q-63 -145 -169.5 -214.5t-266.5 -69.5q-115 0 -209.5 43.5t-156 117.5t-95 169.5t-33.5 201.5q0 143 56.5 262.5t171 195t266.5 75.5q159 0 266 -70t170 -215l-149 -62q-81 191 -287 191q-149 0 -233.5 -106t-84.5 -271t84.5 -271t233.5 -106
q206 0 287 191z" />
    <glyph glyph-name="d" unicode="d" 
d="M143 516q0 241 125 387t348 146q102 0 186 -42.5t130 -105.5v549h172v-1450h-172v137q-46 -65 -131 -109t-185 -44q-223 0 -348 145.5t-125 386.5zM319 516q0 -169 84.5 -273t229.5 -104t229 104t84 273t-84 273t-229 104t-229.5 -104t-84.5 -273z" />
    <glyph glyph-name="e" unicode="e" 
d="M1139 551v-72h-807q8 -154 94.5 -247t222.5 -93q221 0 332 205l137 -72q-81 -155 -198 -221.5t-271 -66.5q-147 0 -260.5 70.5t-173 191t-59.5 270.5q0 109 34 206t96 169.5t156 115t207 42.5q93 0 173 -26t137.5 -71.5t98.5 -108.5t61 -137t20 -155zM649 893
q-122 0 -200 -69t-105 -189h612q-23 124 -102.5 191t-204.5 67z" />
    <glyph glyph-name="f" unicode="f" 
d="M1018 1391l-43 -152q-85 55 -166 55q-152 0 -152 -194v-68h402v-155h-402v-877h-172v877h-290v155h290v64q0 354 318 354q119 0 215 -59z" />
    <glyph glyph-name="g" unicode="g" 
d="M291 702q0 157 103 252t261 95q110 0 203 -54l215 111l78 -141l-174 -91q43 -73 43 -172q0 -158 -102.5 -252t-262.5 -94q-108 0 -190 43q-94 -37 -94 -106q0 -43 39 -64.5t106 -21.5h268q167 0 256.5 -73t89.5 -212q0 -75 -28 -136.5t-74 -101.5t-109 -67t-131 -39
t-141 -12q-225 0 -351 87t-126 253q0 69 29 126.5t77 94.5q-73 57 -73 158q0 69 40 125t111 82q-63 85 -63 210zM780 59h-243q-57 0 -107 9q-88 -46 -88 -156q0 -90 83 -142.5t222 -52.5q146 0 226.5 50t80.5 139q0 83 -44 118t-130 35zM459 702q0 -93 56 -145.5t140 -52.5
q85 0 141 52.5t56 145.5t-56 146t-141 53q-83 0 -139.5 -53t-56.5 -146z" />
    <glyph glyph-name="h" unicode="h" 
d="M1083 713v-713h-172v676q0 217 -190 217q-130 0 -229 -125.5t-99 -335.5v-432h-172v1450h172v-608q61 90 160.5 148.5t214.5 58.5q161 0 238 -88t77 -248z" />
    <glyph glyph-name="i" unicode="i" 
d="M264 881v151h488v-880h381v-152h-910v152h357v729h-316zM512 1307q0 60 41 101.5t100 41.5q60 0 101 -41.5t41 -101.5q0 -59 -41 -99.5t-101 -40.5q-59 0 -100 41t-41 99z" />
    <glyph glyph-name="j" unicode="j" 
d="M494 -434l-58 164q147 50 212 135.5t65 236.5v779h-406v151h578v-975q0 -87 -22.5 -162t-60 -128t-89 -94.5t-105.5 -66.5t-114 -40zM645 1307q0 60 41 101.5t100 41.5q60 0 101 -41.5t41 -101.5q0 -59 -41 -99.5t-101 -40.5q-59 0 -100 41t-41 99z" />
    <glyph glyph-name="k" unicode="k" 
d="M227 1450h172v-850l441 432h225l-481 -473l528 -559h-225l-488 518v-518h-172v1450z" />
    <glyph glyph-name="l" unicode="l" 
d="M412 1278h-285v156h457v-1045q0 -250 217 -250q95 0 157 61.5t82 188.5l156 -31q-27 -184 -130.5 -279t-264.5 -95q-181 0 -285 106t-104 299v889z" />
    <glyph glyph-name="m" unicode="m" 
d="M1204 770v-770h-172v733q0 85 -26 121.5t-86 36.5q-80 0 -131.5 -100.5t-51.5 -305.5v-485h-172v733q0 85 -26 121.5t-86 36.5q-80 0 -131.5 -100.5t-51.5 -305.5v-485h-172v1032h172v-131q42 68 104 108t138 40q165 0 213 -168q41 76 108 122t146 46q101 0 163 -69
t62 -210z" />
    <glyph glyph-name="n" unicode="n" 
d="M1069 719v-719h-172v682q0 211 -190 211q-127 0 -215.5 -129.5t-88.5 -347.5v-416h-172v1032h172v-190q58 93 151 150t200 57q157 0 236 -88t79 -242z" />
    <glyph glyph-name="o" unicode="o" 
d="M127 516q0 107 35.5 203.5t99.5 170t161 116.5t212 43t212 -43t161 -116.5t99.5 -170t35.5 -203.5t-35.5 -203.5t-100 -169.5t-161 -116t-211.5 -43t-211.5 43t-161 116t-100 169.5t-35.5 203.5zM303 516q0 -157 90 -267t242 -110t242 110t90 267t-90 267t-242 110
t-242 -110t-90 -267z" />
    <glyph glyph-name="p" unicode="p" 
d="M1174 516q0 -241 -125.5 -386.5t-348.5 -145.5q-102 0 -185.5 42t-129.5 105v-549h-172v1450h172v-137q46 65 130.5 109.5t184.5 44.5q223 0 348.5 -146t125.5 -387zM997 516q0 169 -84 273t-229 104t-229 -104t-84 -273t84 -273t229 -104t229 104t84 273z" />
    <glyph glyph-name="q" unicode="q" 
d="M117 516q0 241 125 387t348 146q100 0 184.5 -44.5t130.5 -109.5v137h172v-1450h-172v549q-46 -63 -129.5 -105t-185.5 -42q-223 0 -348 145.5t-125 386.5zM293 516q0 -169 84 -273t229 -104t229.5 104t84.5 273t-84.5 273t-229.5 104t-229 -104t-84 -273z" />
    <glyph glyph-name="r" unicode="r" 
d="M1145 705h-172q-22 188 -199 188q-69 0 -131 -33t-111.5 -95t-78.5 -163.5t-29 -228.5v-373h-172v1032h172v-190q62 97 159 152t222 55q154 0 242.5 -89.5t97.5 -254.5z" />
    <glyph glyph-name="s" unicode="s" 
d="M631 1049q135 0 225.5 -57t151.5 -167l-136 -96q-47 86 -105.5 125t-141.5 39q-74 0 -126.5 -33.5t-52.5 -103.5q0 -63 58.5 -99t181.5 -61q66 -13 113.5 -26t99.5 -36t84 -51t53 -71t21 -97q0 -103 -55.5 -179.5t-145 -114t-197.5 -37.5q-160 0 -281 77.5t-167 221.5
l164 61q34 -97 107 -151t177 -54q94 0 157 41t63 119q0 26 -13 46.5t-33 35t-57 27.5t-72.5 22t-91.5 21q-59 13 -102.5 26t-89.5 36.5t-75 54t-47.5 77t-18.5 105.5q0 134 102.5 216.5t249.5 82.5z" />
    <glyph glyph-name="t" unicode="t" 
d="M135 877v155h275v309l172 109v-418h503v-155h-503v-529q0 -209 178 -209q70 0 129.5 27.5t124.5 95.5l63 -145q-70 -70 -145 -101.5t-172 -31.5q-171 0 -260.5 90t-89.5 268v535h-275z" />
    <glyph glyph-name="u" unicode="u" 
d="M211 313v719h172v-682q0 -211 190 -211q127 0 215.5 129.5t88.5 347.5v416h172v-1032h-172v190q-57 -92 -150.5 -149t-200.5 -57q-157 0 -236 87.5t-79 241.5z" />
    <glyph glyph-name="v" unicode="v" 
d="M967 1032h186l-432 -1032h-172l-432 1032h186l332 -827z" />
    <glyph glyph-name="w" unicode="w" 
d="M1038 1032h176l-225 -1032h-155l-199 725l-199 -725h-155l-226 1032h176l142 -764l176 662h172l176 -662z" />
    <glyph glyph-name="x" unicode="x" 
d="M862 1032h203l-336 -485l375 -547h-195l-274 406l-275 -406h-194l375 547l-336 485h203l227 -342z" />
    <glyph glyph-name="y" unicode="y" 
d="M991 1032h187l-613 -1450h-172l201 488l-447 962h193l346 -756z" />
    <glyph glyph-name="z" unicode="z" 
d="M252 877v155h774v-74l-547 -802h572v-156h-826v74l541 803h-514z" />
    <glyph glyph-name="braceleft" unicode="{" 
d="M543 102v353q0 101 -52.5 142.5t-152.5 41.5v156q100 0 152.5 41.5t52.5 142.5v352q0 92 56.5 148.5t148.5 56.5h282v-156h-231q-49 0 -70.5 -21t-21.5 -71v-370q0 -96 -37 -140t-107 -61q70 -17 107 -61t37 -140v-371q0 -49 21.5 -70.5t70.5 -21.5h231v-155h-282
q-92 0 -148.5 56t-56.5 148z" />
    <glyph glyph-name="bar" unicode="|" 
d="M553 1536h164v-1638h-164v1638z" />
    <glyph glyph-name="braceright" unicode="}" 
d="M727 455v-353q0 -92 -56.5 -148t-148.5 -56h-282v155h231q49 0 70.5 21.5t21.5 70.5v371q0 96 37 140t107 61q-70 17 -107 61t-37 140v370q0 50 -21.5 71t-70.5 21h-231v156h282q92 0 148.5 -56.5t56.5 -148.5v-352q0 -101 52.5 -142.5t152.5 -41.5v-156
q-100 0 -152.5 -41.5t-52.5 -142.5z" />
    <glyph glyph-name="asciitilde" unicode="~" 
d="M256 549l-100 104q45 84 115.5 132.5t154.5 48.5q58 0 114.5 -16t94 -35.5t88.5 -35.5t100 -16q54 0 105 24.5t86 67.5l100 -104q-45 -84 -115.5 -132t-154.5 -48q-58 0 -114.5 16t-94.5 35t-89 35t-100 16q-54 0 -104.5 -24.5t-85.5 -67.5z" />
    <glyph glyph-name="nbspace" unicode="&#xa0;" 
 />
    <glyph glyph-name="exclamdown" unicode="&#xa1;" 
d="M752 -418h-234l49 1024h135zM492 883q0 59 41 99t102 40t102 -40t41 -99q0 -62 -41 -104t-102 -42t-102 42t-41 104z" />
    <glyph glyph-name="cent" unicode="&#xa2;" 
d="M950 530l150 -61q-56 -126 -142.5 -195t-212.5 -86v-290h-163v292q-128 19 -223 96.5t-142 189t-47 241.5q0 129 47 240t142 188.5t223 97.5v293h163v-293q244 -29 355 -278l-150 -62q-81 191 -286 191q-149 0 -233.5 -106t-84.5 -271t84.5 -271t233.5 -106
q205 0 286 190z" />
    <glyph glyph-name="sterling" unicode="&#xa3;" 
d="M229 664v163h109q-45 119 -45 211q0 187 115 299.5t288 112.5q147 0 249 -74t153 -209l-154 -71q-45 102 -103 146t-145 44q-99 0 -165 -64t-66 -186q0 -96 41 -209h336v-163h-283q14 -65 14 -129q0 -206 -161 -363q91 55 178 55q50 0 94.5 -20t83.5 -40t74 -20
q55 0 95 30t89 110l135 -74q-64 -120 -138 -174.5t-171 -54.5q-67 0 -123.5 20.5t-102.5 41t-89 20.5q-66 0 -119 -19t-113 -63l-117 127q121 116 174.5 208t53.5 195q0 60 -23 150h-164z" />
    <glyph glyph-name="currency" unicode="&#xa4;" 
d="M301 864l-180 137l141 142l137 -178q104 77 236 77q131 0 235 -77l138 178l141 -142l-180 -137q71 -104 71 -235q0 -132 -71 -236l180 -137l-141 -141l-138 178q-105 -78 -235 -78q-131 0 -236 78l-137 -178l-141 141l180 137q-72 106 -72 236q0 129 72 235zM395 629
q0 -115 66 -186.5t174 -71.5t173.5 71.5t65.5 186.5t-65.5 186.5t-173.5 71.5t-174 -71.5t-66 -186.5z" />
    <glyph glyph-name="yen" unicode="&#xa5;" 
d="M225 238v147h320v180h-320v148h242l-375 721h199l344 -689l344 689h199l-375 -721h241v-148h-319v-180h319v-147h-319v-238h-180v238h-320z" />
    <glyph glyph-name="brokenbar" unicode="&#xa6;" 
d="M553 612h164v-714h-164v714zM717 821h-164v715h164v-715z" />
    <glyph glyph-name="section" unicode="&#xa7;" 
d="M1094 455q0 -172 -144 -279q88 -93 88 -229q0 -177 -108.5 -279t-278.5 -102q-166 0 -273.5 85.5t-144.5 237.5l158 52q37 -103 103 -157t157 -54q98 0 156.5 56t58.5 153q0 45 -17.5 81.5t-43.5 61.5t-71 50.5t-85.5 42.5t-103 44.5t-107.5 50.5q-123 63 -176 128
t-53 163q0 173 143 279q-88 93 -88 229q0 177 108.5 279t278.5 102q166 0 273 -86t145 -238l-158 -51q-37 103 -103 157t-157 54q-98 0 -156.5 -56t-58.5 -153q0 -45 17.5 -81.5t43.5 -61.5t71 -50.5t85.5 -43t103 -45t107.5 -50.5q124 -63 177 -128t53 -162zM932 436
q0 47 -28 85t-79.5 67.5t-104.5 52t-123 52.5t-114 55q-56 -35 -84 -73.5t-28 -94.5q0 -47 28 -85t79.5 -67.5t104 -52l122.5 -52.5t114 -55q57 35 85 74t28 94z" />
    <glyph glyph-name="dieresis" unicode="&#xa8;" 
d="M330 1333q0 49 33.5 83t80.5 34q51 0 84 -33.5t33 -83.5t-33 -82t-84 -32q-48 0 -81 32.5t-33 81.5zM707 1333q0 49 33.5 83t80.5 34q51 0 84 -33.5t33 -83.5t-33 -82t-84 -32q-48 0 -81 32.5t-33 81.5z" />
    <glyph glyph-name="copyright" unicode="&#xa9;" 
d="M80 717q0 161 71.5 291t199 204t284.5 74t284.5 -74t199 -204t71.5 -291t-71.5 -291.5t-199 -204.5t-284.5 -74t-284.5 74t-199 204.5t-71.5 291.5zM211 717q0 -124 52 -225t149.5 -160.5t222.5 -59.5t222.5 59.5t149.5 160.5t52 225t-52 224.5t-149.5 160t-222.5 59.5
t-222.5 -59.5t-149.5 -160t-52 -224.5zM780 618l105 -24q-17 -89 -85 -138.5t-165 -49.5q-53 0 -102.5 18.5t-92 54.5t-68.5 97.5t-26 140.5t26 140.5t68.5 97.5t92 54.5t102.5 18.5q97 0 165 -49.5t85 -138.5l-105 -25q-22 55 -56.5 80t-88.5 25q-76 0 -122 -50t-46 -153
t46 -153t122 -50q54 0 88.5 24.5t56.5 79.5z" />
    <glyph glyph-name="ordfeminine" unicode="&#xaa;" 
d="M440 850q0 -57 34.5 -89t98.5 -32q33 0 67 8t68.5 26.5t61.5 46t44 70.5t17 95v26h-178q-101 0 -157 -40.5t-56 -110.5zM967 1128v-514h-111l-18 119q-38 -57 -117 -92t-170 -35q-108 0 -179 61t-71 183q0 128 98.5 197t268.5 69h163v35q0 88 -55.5 128t-138.5 40
q-65 0 -114 -38t-70 -99l-117 30q26 105 108 167.5t193 62.5q151 0 240.5 -77t89.5 -237z" />
    <glyph glyph-name="guillemotleft" unicode="&#xab;" 
d="M88 571v127l602 408v-184l-428 -287l428 -287v-184zM580 571v127l602 408v-184l-428 -287l428 -287v-184z" />
    <glyph glyph-name="logicalnot" unicode="&#xac;" 
d="M190 641v156h922v-506h-172v350h-750z" />
    <glyph glyph-name="registered" unicode="&#xae;" 
d="M80 717q0 161 71.5 291t199 204t284.5 74t284.5 -74t199 -204t71.5 -291t-71.5 -291.5t-199 -204.5t-284.5 -74t-284.5 74t-199 204.5t-71.5 291.5zM211 717q0 -124 52 -225t149.5 -160.5t222.5 -59.5t222.5 59.5t149.5 160.5t52 225t-52 224.5t-149.5 160t-222.5 59.5
t-222.5 -59.5t-149.5 -160t-52 -224.5zM772 414l-180 258h-49v-258h-107v606h217q92 0 142.5 -48t50.5 -126q0 -65 -37.5 -110.5t-97.5 -57.5l182 -264h-121zM647 920h-104v-148h104q88 0 88 74t-88 74z" />
    <glyph glyph-name="macron" unicode="&#xaf;" 
d="M381 1294v156h510v-156h-510z" />
    <glyph glyph-name="degree" unicode="&#xb0;" 
d="M319 1133q0 136 88.5 224.5t227.5 88.5t227 -88.5t88 -224.5t-88 -225t-227 -89t-227.5 89t-88.5 225zM461 1133q0 -79 47.5 -129t126.5 -50t126.5 50t47.5 129t-47.5 128.5t-126.5 49.5t-126.5 -49.5t-47.5 -128.5z" />
    <glyph glyph-name="plusminus" unicode="&#xb1;" 
d="M184 0v152h901v-152h-901zM559 1268h152v-375h374v-152h-374v-374h-152v374h-375v152h375v375z" />
    <glyph glyph-name="twosuperior" unicode="&#xb2;" 
d="M535 1233l-121 31q14 86 73.5 140t153.5 54q106 0 162.5 -56.5t56.5 -148.5q0 -102 -69 -186l-152 -190h238v-123h-461v51l258 317q28 35 39.5 61.5t11.5 67.5q0 36 -21.5 60t-62.5 24t-68 -27t-38 -75z" />
    <glyph glyph-name="threesuperior" unicode="&#xb3;" 
d="M416 956l131 31q6 -54 38 -86.5t79 -32.5q100 0 100 113q0 119 -100 119q-33 0 -68 -27l-59 84l135 170h-219v123h413v-47l-172 -213q99 0 152 -56.5t53 -152.5q0 -108 -64.5 -172t-170.5 -64q-103 0 -171.5 58.5t-76.5 152.5z" />
    <glyph glyph-name="acute" unicode="&#xb4;" 
d="M444 1147l138 295h247l-249 -295h-136z" />
    <glyph glyph-name="mu" unicode="&#xb5;" 
d="M217 -418v1450h172v-682q0 -211 191 -211q127 0 215 129.5t88 347.5v416h172v-1032h-172v190q-57 -92 -150.5 -149t-200.5 -57q-84 0 -143 24v-426h-172z" />
    <glyph glyph-name="paragraph" unicode="&#xb6;" 
d="M106 1038q0 164 116 280t280 116h639v-156h-127v-1696h-172v1696h-168v-1696h-172v1061q-164 0 -280 115.5t-116 279.5z" />
    <glyph glyph-name="periodcentered" unicode="&#xb7;" 
d="M471 721q0 71 46.5 117.5t117.5 46.5t117.5 -46.5t46.5 -117.5t-46.5 -117.5t-117.5 -46.5t-117.5 46.5t-46.5 117.5z" />
    <glyph glyph-name="cedilla" unicode="&#xb8;" 
d="M817 -123l-170 -358l-194 92l221 266h143z" />
    <glyph glyph-name="onesuperior" unicode="&#xb9;" 
d="M408 754v114h161v400l-153 -70v145l231 107h49v-582h162v-114h-450z" />
    <glyph glyph-name="ordmasculine" unicode="&#xba;" 
d="M236 1024q0 113 46.5 207t138.5 152.5t212 58.5t212.5 -58.5t139.5 -152.5t47 -207t-47 -207t-139.5 -152.5t-212.5 -58.5t-212 58.5t-138.5 152.5t-46.5 207zM373 1024q0 -123 70 -210t190 -87t190 87t70 210t-70 209t-190 86t-190 -86t-70 -209z" />
    <glyph glyph-name="guillemotright" unicode="&#xbb;" 
d="M1182 698v-127l-602 -407v184l428 287l-428 287v184zM690 698v-127l-602 -407v184l428 287l-428 287v184z" />
    <glyph glyph-name="onequarter" unicode="&#xbc;" 
d="M948 -16v125h-307v55l285 516h149v-449h103v-122h-103v-125h-127zM807 231h141v269zM1163 1124l70 -98l-1038 -723l-70 98zM59 754v114h162v400l-153 -70v145l231 107h49v-582h162v-114h-451z" />
    <glyph glyph-name="onehalf" unicode="&#xbd;" 
d="M59 754v114h162v400l-153 -70v145l231 107h49v-582h162v-114h-451zM1163 1124l70 -98l-1038 -723l-70 98zM854 479l-121 31q14 86 74 140.5t154 54.5q106 0 162.5 -56.5t56.5 -148.5q0 -102 -70 -187l-152 -190h238v-123h-461v51l258 318q28 35 39.5 61.5t11.5 67.5
q0 36 -21 60t-62 24t-68.5 -27.5t-38.5 -75.5z" />
    <glyph glyph-name="threequarters" unicode="&#xbe;" 
d="M47 956l131 31q6 -54 38 -86.5t79 -32.5q100 0 100 113q0 119 -100 119q-33 0 -68 -27l-59 84l135 170h-219v123h414v-47l-172 -213q99 0 151.5 -56.5t52.5 -152.5q0 -108 -64.5 -172t-170.5 -64q-103 0 -171.5 58.5t-76.5 152.5zM1163 1124l70 -98l-1038 -723l-70 98z
M948 -16v125h-307v55l285 516h149v-449h103v-122h-103v-125h-127zM807 231h141v269z" />
    <glyph glyph-name="questiondown" unicode="&#xbf;" 
d="M385 387q35 104 106 159.5t168 55.5q124 0 197.5 -68t73.5 -186q0 -168 -174 -258q-45 -24 -101.5 -46t-87.5 -38q-51 -27 -69.5 -61.5t-18.5 -83.5q0 -70 43 -107q49 -43 133 -43q78 0 134.5 51.5t80.5 137.5l160 -27q-25 -140 -123.5 -223.5t-251.5 -83.5
q-157 0 -254 90q-94 88 -94 215q0 80 40.5 143t117.5 101l207 100q100 55 100 141q0 49 -28 77t-78 28q-96 0 -148 -121zM795 887q0 -58 -39.5 -98.5t-96.5 -40.5q-59 0 -99 40t-40 99q0 57 40 96t99 39q57 0 96.5 -39t39.5 -96z" />
    <glyph glyph-name="Agrave" unicode="&#xc0;" 
d="M549 1434h172l510 -1434h-187l-129 383h-561l-129 -383h-186zM635 1200l-221 -645h442zM606 1843l137 -295h-135l-250 295h248z" />
    <glyph glyph-name="Aacute" unicode="&#xc1;" 
d="M549 1434h172l510 -1434h-187l-129 383h-561l-129 -383h-186zM635 1200l-221 -645h442zM524 1548l138 295h247l-250 -295h-135z" />
    <glyph glyph-name="Acircumflex" unicode="&#xc2;" 
d="M549 1434h172l510 -1434h-187l-129 383h-561l-129 -383h-186zM635 1200l-221 -645h442zM293 1561l315 335h54l315 -335h-178l-164 174l-164 -174h-178z" />
    <glyph glyph-name="Atilde" unicode="&#xc3;" 
d="M549 1434h172l510 -1434h-187l-129 383h-561l-129 -383h-186zM635 1200l-221 -645h442zM375 1602l-101 77q37 69 96 112.5t124 43.5q47 0 86 -13t62 -28t54.5 -28t65.5 -13q74 0 135 74l100 -80q-37 -68 -95.5 -111t-123.5 -43q-47 0 -86 13t-62 28t-54.5 28t-65.5 13
q-75 0 -135 -73z" />
    <glyph glyph-name="Adieresis" unicode="&#xc4;" 
d="M549 1434h172l510 -1434h-187l-129 383h-561l-129 -383h-186zM635 1200l-221 -645h442zM332 1735q0 49 33 82.5t81 33.5q51 0 84 -33t33 -83t-33 -82.5t-84 -32.5q-48 0 -81 33t-33 82zM709 1735q0 49 33 82.5t81 33.5q51 0 84 -33t33 -83t-33 -82.5t-84 -32.5
q-48 0 -81 33t-33 82z" />
    <glyph glyph-name="Aring" unicode="&#xc5;" 
d="M549 1434h172l510 -1434h-187l-129 383h-561l-129 -383h-186zM635 1200l-221 -645h442zM432 1739q0 86 58.5 145.5t144.5 59.5q88 0 145.5 -59t57.5 -146q0 -84 -57.5 -140.5t-145.5 -56.5q-86 0 -144.5 57t-58.5 140zM547 1741q0 -38 25 -64t63 -26q39 0 63.5 25.5
t24.5 64.5q0 40 -24.5 67t-63.5 27q-38 0 -63 -27t-25 -67z" />
    <glyph glyph-name="AE" unicode="&#xc6;" 
d="M375 1434h803v-172h-422v-412h340v-172h-340v-506h442v-172h-623v383h-311l-106 -383h-181zM479 1200l-174 -645h270v645h-96z" />
    <glyph glyph-name="Ccedilla" unicode="&#xc7;" 
d="M1036 471l170 -51q-49 -199 -181.5 -317.5t-332.5 -118.5q-124 0 -230 45.5t-187.5 134t-128 230.5t-46.5 323t46.5 323t128 230.5t187.5 134t230 45.5q200 0 332.5 -118.5t181.5 -317.5l-170 -51q-48 160 -130 237.5t-214 77.5q-190 0 -297.5 -138.5t-107.5 -422.5
t107.5 -422.5t297.5 -138.5q132 0 214 77.5t130 237.5zM803 -123l-170 -358l-195 92l221 266h144z" />
    <glyph glyph-name="Egrave" unicode="&#xc8;" 
d="M186 1434h910v-172h-729v-412h626v-172h-626v-506h749v-172h-930v1434zM643 1843l137 -295h-135l-250 295h248z" />
    <glyph glyph-name="Eacute" unicode="&#xc9;" 
d="M186 1434h910v-172h-729v-412h626v-172h-626v-506h749v-172h-930v1434zM504 1548l137 295h248l-250 -295h-135z" />
    <glyph glyph-name="Ecircumflex" unicode="&#xca;" 
d="M186 1434h910v-172h-729v-412h626v-172h-626v-506h749v-172h-930v1434zM293 1561l315 335h54l315 -335h-178l-164 174l-164 -174h-178z" />
    <glyph glyph-name="Edieresis" unicode="&#xcb;" 
d="M186 1434h910v-172h-729v-412h626v-172h-626v-506h749v-172h-930v1434zM340 1735q0 49 33.5 82.5t81.5 33.5q51 0 83.5 -33t32.5 -83t-32.5 -82.5t-83.5 -32.5q-48 0 -81.5 33t-33.5 82zM717 1735q0 49 33 82.5t81 33.5q51 0 84 -33t33 -83t-33 -82.5t-84 -32.5
q-48 0 -81 33t-33 82z" />
    <glyph glyph-name="Igrave" unicode="&#xcc;" 
d="M1071 0h-872v156h346v1122h-346v156h872v-156h-346v-1122h346v-156zM668 1843l137 -295h-135l-250 295h248z" />
    <glyph glyph-name="Iacute" unicode="&#xcd;" 
d="M1071 0h-872v156h346v1122h-346v156h872v-156h-346v-1122h346v-156zM463 1548l137 295h248l-250 -295h-135z" />
    <glyph glyph-name="Icircumflex" unicode="&#xce;" 
d="M1071 0h-872v156h346v1122h-346v156h872v-156h-346v-1122h346v-156zM295 1561l315 335h54l315 -335h-178l-164 174l-164 -174h-178z" />
    <glyph glyph-name="Idieresis" unicode="&#xcf;" 
d="M1071 0h-872v156h346v1122h-346v156h872v-156h-346v-1122h346v-156zM334 1735q0 49 33.5 82.5t81.5 33.5q51 0 83.5 -33t32.5 -83t-32.5 -82.5t-83.5 -32.5q-48 0 -81.5 33t-33.5 82zM711 1735q0 49 33 82.5t81 33.5q51 0 84 -33t33 -83t-33 -82.5t-84 -32.5
q-48 0 -81 33t-33 82z" />
    <glyph glyph-name="Eth" unicode="&#xd0;" 
d="M53 631v172h101v631h387q142 0 257.5 -44.5t200.5 -131.5t132 -225t47 -316t-47 -316t-132 -225t-200.5 -131.5t-257.5 -44.5h-387v631h-101zM522 1262h-188v-459h223v-172h-223v-459h188q225 0 344 128t119 417t-119 417t-344 128z" />
    <glyph glyph-name="Ntilde" unicode="&#xd1;" 
d="M942 1434h180v-1434h-196l-600 1106v-1106h-181v1434h197l600 -1106v1106zM381 1602l-100 77q37 69 95.5 112.5t123.5 43.5q47 0 86 -13t62 -28t54.5 -28t65.5 -13q74 0 135 74l101 -80q-37 -68 -95.5 -111t-124.5 -43q-47 0 -86 13t-62 28t-54.5 28t-65.5 13
q-75 0 -135 -73z" />
    <glyph glyph-name="Ograve" unicode="&#xd2;" 
d="M635 1450q118 0 218.5 -46t176.5 -135t119 -230.5t43 -321.5t-43 -321.5t-119 -230.5t-176.5 -135t-218.5 -46t-218.5 46t-176.5 135t-119 230.5t-43 321.5t43 321.5t119 230.5t176.5 135t218.5 46zM635 1278q-170 0 -270.5 -136t-100.5 -425t100.5 -425t270.5 -136
t270.5 136t100.5 425t-100.5 425t-270.5 136zM631 1843l137 -295h-135l-250 295h248z" />
    <glyph glyph-name="Oacute" unicode="&#xd3;" 
d="M635 1450q118 0 218.5 -46t176.5 -135t119 -230.5t43 -321.5t-43 -321.5t-119 -230.5t-176.5 -135t-218.5 -46t-218.5 46t-176.5 135t-119 230.5t-43 321.5t43 321.5t119 230.5t176.5 135t218.5 46zM635 1278q-170 0 -270.5 -136t-100.5 -425t100.5 -425t270.5 -136
t270.5 136t100.5 425t-100.5 425t-270.5 136zM483 1548l138 295h247l-250 -295h-135z" />
    <glyph glyph-name="Ocircumflex" unicode="&#xd4;" 
d="M635 1450q118 0 218.5 -46t176.5 -135t119 -230.5t43 -321.5t-43 -321.5t-119 -230.5t-176.5 -135t-218.5 -46t-218.5 46t-176.5 135t-119 230.5t-43 321.5t43 321.5t119 230.5t176.5 135t218.5 46zM635 1278q-170 0 -270.5 -136t-100.5 -425t100.5 -425t270.5 -136
t270.5 136t100.5 425t-100.5 425t-270.5 136zM293 1561l315 335h54l315 -335h-178l-164 174l-164 -174h-178z" />
    <glyph glyph-name="Otilde" unicode="&#xd5;" 
d="M635 1450q118 0 218.5 -46t176.5 -135t119 -230.5t43 -321.5t-43 -321.5t-119 -230.5t-176.5 -135t-218.5 -46t-218.5 46t-176.5 135t-119 230.5t-43 321.5t43 321.5t119 230.5t176.5 135t218.5 46zM635 1278q-170 0 -270.5 -136t-100.5 -425t100.5 -425t270.5 -136
t270.5 136t100.5 425t-100.5 425t-270.5 136zM375 1602l-101 77q37 69 96 112.5t124 43.5q47 0 86 -13t62 -28t54.5 -28t65.5 -13q74 0 135 74l100 -80q-37 -68 -95.5 -111t-123.5 -43q-47 0 -86 13t-62 28t-54.5 28t-65.5 13q-75 0 -135 -73z" />
    <glyph glyph-name="Odieresis" unicode="&#xd6;" 
d="M635 1450q118 0 218.5 -46t176.5 -135t119 -230.5t43 -321.5t-43 -321.5t-119 -230.5t-176.5 -135t-218.5 -46t-218.5 46t-176.5 135t-119 230.5t-43 321.5t43 321.5t119 230.5t176.5 135t218.5 46zM635 1278q-170 0 -270.5 -136t-100.5 -425t100.5 -425t270.5 -136
t270.5 136t100.5 425t-100.5 425t-270.5 136zM332 1735q0 49 33 82.5t81 33.5q51 0 84 -33t33 -83t-33 -82.5t-84 -32.5q-48 0 -81 33t-33 82zM709 1735q0 49 33 82.5t81 33.5q51 0 84 -33t33 -83t-33 -82.5t-84 -32.5q-48 0 -81 33t-33 82z" />
    <glyph glyph-name="multiply" unicode="&#xd7;" 
d="M958 1083l107 -106l-324 -324l324 -323l-107 -107l-323 324l-324 -324l-106 107l323 323l-323 324l106 106l324 -323z" />
    <glyph glyph-name="Oslash" unicode="&#xd8;" 
d="M1122 1489l129 -90l-164 -217q105 -186 105 -465q0 -180 -43 -321.5t-119 -230.5t-176.5 -135t-218.5 -46q-212 0 -352 137l-136 -176l-129 90l164 217q-104 184 -104 465q0 180 43 321.5t119 230.5t176.5 135t218.5 46q212 0 352 -137zM635 1278q-170 0 -270.5 -136
t-100.5 -425q0 -182 41 -303l576 757q-91 107 -246 107zM1006 717q0 182 -41 303l-576 -758q90 -106 246 -106q170 0 270.5 136t100.5 425z" />
    <glyph glyph-name="Ugrave" unicode="&#xd9;" 
d="M127 498v936h180v-949q0 -147 86 -238t242 -91t242 91t86 238v949h180v-936q0 -160 -68 -278t-182 -177t-258 -59t-258 59t-182 177t-68 278zM647 1843l137 -295h-135l-250 295h248z" />
    <glyph glyph-name="Uacute" unicode="&#xda;" 
d="M127 498v936h180v-949q0 -147 86 -238t242 -91t242 91t86 238v949h180v-936q0 -160 -68 -278t-182 -177t-258 -59t-258 59t-182 177t-68 278zM504 1548l137 295h248l-250 -295h-135z" />
    <glyph glyph-name="Ucircumflex" unicode="&#xdb;" 
d="M127 498v936h180v-949q0 -147 86 -238t242 -91t242 91t86 238v949h180v-936q0 -160 -68 -278t-182 -177t-258 -59t-258 59t-182 177t-68 278zM293 1561l315 335h54l315 -335h-178l-164 174l-164 -174h-178z" />
    <glyph glyph-name="Udieresis" unicode="&#xdc;" 
d="M127 498v936h180v-949q0 -147 86 -238t242 -91t242 91t86 238v949h180v-936q0 -160 -68 -278t-182 -177t-258 -59t-258 59t-182 177t-68 278zM332 1735q0 49 33 82.5t81 33.5q51 0 84 -33t33 -83t-33 -82.5t-84 -32.5q-48 0 -81 33t-33 82zM709 1735q0 49 33 82.5
t81 33.5q51 0 84 -33t33 -83t-33 -82.5t-84 -32.5q-48 0 -81 33t-33 82z" />
    <glyph glyph-name="Yacute" unicode="&#xdd;" 
d="M545 565l-461 869h199l352 -689l352 689h199l-461 -869v-565h-180v565zM502 1548l137 295h248l-250 -295h-135z" />
    <glyph glyph-name="Thorn" unicode="&#xde;" 
d="M721 307h-326v-307h-180v1434h180v-308h326q204 0 315 -109.5t111 -299.5t-111 -300t-315 -110zM717 479q119 0 181.5 60t62.5 178t-62.5 177.5t-181.5 59.5h-322v-475h322z" />
    <glyph glyph-name="germandbls" unicode="&#xdf;" 
d="M141 705v155h103v174q0 200 110.5 308t276.5 108q185 0 283 -103t98 -264q0 -113 -51.5 -186t-133.5 -98q122 -24 201.5 -117t79.5 -248q0 -223 -117 -336.5t-323 -113.5q-85 0 -146 14v156q77 -15 133 -15q136 0 208.5 72t72.5 211t-76.5 211t-212.5 72h-72v155h72
q105 0 153 58.5t48 158.5q0 104 -59 160.5t-158 56.5q-100 0 -157.5 -69.5t-57.5 -196.5v-1028h-172v705h-103z" />
    <glyph glyph-name="agrave" unicode="&#xe0;" 
d="M403 297q0 -73 46.5 -115.5t123.5 -42.5q42 0 85.5 10t88 34.5t79 59.5t56 90t21.5 122v32h-225q-131 0 -203 -50.5t-72 -139.5zM1075 651v-651h-139l-25 145q-50 -71 -150 -116t-214 -45q-137 0 -228.5 81t-91.5 232q0 167 124 252.5t343 85.5h209v45q0 112 -66.5 162.5
t-170.5 50.5q-88 0 -153 -49t-91 -127l-152 41q35 133 144 212t252 79q191 0 300 -96.5t109 -301.5zM649 1442l137 -295h-135l-250 295h248z" />
    <glyph glyph-name="aacute" unicode="&#xe1;" 
d="M403 297q0 -73 46.5 -115.5t123.5 -42.5q42 0 85.5 10t88 34.5t79 59.5t56 90t21.5 122v32h-225q-131 0 -203 -50.5t-72 -139.5zM1075 651v-651h-139l-25 145q-50 -71 -150 -116t-214 -45q-137 0 -228.5 81t-91.5 232q0 167 124 252.5t343 85.5h209v45q0 112 -66.5 162.5
t-170.5 50.5q-88 0 -153 -49t-91 -127l-152 41q35 133 144 212t252 79q191 0 300 -96.5t109 -301.5zM512 1147l137 295h248l-250 -295h-135z" />
    <glyph glyph-name="acircumflex" unicode="&#xe2;" 
d="M403 297q0 -73 46.5 -115.5t123.5 -42.5q42 0 85.5 10t88 34.5t79 59.5t56 90t21.5 122v32h-225q-131 0 -203 -50.5t-72 -139.5zM1075 651v-651h-139l-25 145q-50 -71 -150 -116t-214 -45q-137 0 -228.5 81t-91.5 232q0 167 124 252.5t343 85.5h209v45q0 112 -66.5 162.5
t-170.5 50.5q-88 0 -153 -49t-91 -127l-152 41q35 133 144 212t252 79q191 0 300 -96.5t109 -301.5zM324 1159l315 336h53l316 -336h-179l-163 174l-164 -174h-178z" />
    <glyph glyph-name="atilde" unicode="&#xe3;" 
d="M403 297q0 -73 46.5 -115.5t123.5 -42.5q42 0 85.5 10t88 34.5t79 59.5t56 90t21.5 122v32h-225q-131 0 -203 -50.5t-72 -139.5zM1075 651v-651h-139l-25 145q-50 -71 -150 -116t-214 -45q-137 0 -228.5 81t-91.5 232q0 167 124 252.5t343 85.5h209v45q0 112 -66.5 162.5
t-170.5 50.5q-88 0 -153 -49t-91 -127l-152 41q35 133 144 212t252 79q191 0 300 -96.5t109 -301.5zM403 1200l-100 78q37 69 95.5 112.5t123.5 43.5q47 0 86.5 -13t62 -28t54.5 -28t66 -13q75 0 135 73l100 -79q-37 -68 -95.5 -111t-123.5 -43q-47 0 -86 13t-62 28
t-54.5 28t-65.5 13q-75 0 -136 -74z" />
    <glyph glyph-name="adieresis" unicode="&#xe4;" 
d="M403 297q0 -73 46.5 -115.5t123.5 -42.5q42 0 85.5 10t88 34.5t79 59.5t56 90t21.5 122v32h-225q-131 0 -203 -50.5t-72 -139.5zM1075 651v-651h-139l-25 145q-50 -71 -150 -116t-214 -45q-137 0 -228.5 81t-91.5 232q0 167 124 252.5t343 85.5h209v45q0 112 -66.5 162.5
t-170.5 50.5q-88 0 -153 -49t-91 -127l-152 41q35 133 144 212t252 79q191 0 300 -96.5t109 -301.5zM373 1333q0 49 33.5 83t80.5 34q51 0 84 -33.5t33 -83.5t-33 -82t-84 -32q-48 0 -81 32.5t-33 81.5zM750 1333q0 49 33.5 83t80.5 34q51 0 84 -33.5t33 -83.5t-33 -82
t-84 -32q-48 0 -81 32.5t-33 81.5z" />
    <glyph glyph-name="aring" unicode="&#xe5;" 
d="M403 297q0 -73 46.5 -115.5t123.5 -42.5q42 0 85.5 10t88 34.5t79 59.5t56 90t21.5 122v32h-225q-131 0 -203 -50.5t-72 -139.5zM1075 651v-651h-139l-25 145q-50 -71 -150 -116t-214 -45q-137 0 -228.5 81t-91.5 232q0 167 124 252.5t343 85.5h209v45q0 112 -66.5 162.5
t-170.5 50.5q-88 0 -153 -49t-91 -127l-152 41q35 133 144 212t252 79q191 0 300 -96.5t109 -301.5zM457 1337q0 87 58 146t144 59q88 0 145.5 -59t57.5 -146q0 -84 -57 -140t-146 -56q-86 0 -144 56.5t-58 139.5zM571 1339q0 -38 25 -64t63 -26q39 0 64 25.5t25 64.5
q0 40 -25 67.5t-64 27.5q-38 0 -63 -27.5t-25 -67.5z" />
    <glyph glyph-name="ae" unicode="&#xe6;" 
d="M1243 582v-103h-495q0 -161 42 -250.5t119 -89.5q66 0 105.5 48.5t68.5 154.5l148 -43q-46 -160 -121.5 -237.5t-200.5 -77.5q-90 0 -152.5 50.5t-90.5 133.5q-38 -86 -113.5 -135t-181.5 -49q-134 0 -215.5 81t-81.5 230q0 164 106.5 252t278.5 88h112v65
q0 87 -36.5 140t-102.5 53q-65 0 -107 -46t-57 -130l-151 41q15 124 101 207.5t212 83.5q182 0 240 -156q38 72 106.5 114t145.5 42q154 0 237.5 -121.5t83.5 -345.5zM250 301q0 -74 37 -118t100 -44q93 0 138.5 77.5t45.5 191.5v79h-90q-113 0 -172 -47.5t-59 -138.5z
M909 893q-70 0 -115.5 -70.5t-45.5 -187.5h323q0 111 -43 184.5t-119 73.5z" />
    <glyph glyph-name="ccedilla" unicode="&#xe7;" 
d="M963 330l149 -62q-63 -145 -169.5 -214.5t-266.5 -69.5q-115 0 -209.5 43.5t-156 117.5t-95 169.5t-33.5 201.5q0 143 56.5 262.5t171 195t266.5 75.5q159 0 266 -70t170 -215l-149 -62q-81 191 -287 191q-149 0 -233.5 -106t-84.5 -271t84.5 -271t233.5 -106
q206 0 287 191zM797 -123l-170 -358l-195 92l221 266h144z" />
    <glyph glyph-name="egrave" unicode="&#xe8;" 
d="M1139 551v-72h-807q8 -154 94.5 -247t222.5 -93q221 0 332 205l137 -72q-81 -155 -198 -221.5t-271 -66.5q-147 0 -260.5 70.5t-173 191t-59.5 270.5q0 109 34 206t96 169.5t156 115t207 42.5q93 0 173 -26t137.5 -71.5t98.5 -108.5t61 -137t20 -155zM649 893
q-122 0 -200 -69t-105 -189h612q-23 124 -102.5 191t-204.5 67zM641 1442l137 -295h-135l-250 295h248z" />
    <glyph glyph-name="eacute" unicode="&#xe9;" 
d="M1139 551v-72h-807q8 -154 94.5 -247t222.5 -93q221 0 332 205l137 -72q-81 -155 -198 -221.5t-271 -66.5q-147 0 -260.5 70.5t-173 191t-59.5 270.5q0 109 34 206t96 169.5t156 115t207 42.5q93 0 173 -26t137.5 -71.5t98.5 -108.5t61 -137t20 -155zM649 893
q-122 0 -200 -69t-105 -189h612q-23 124 -102.5 191t-204.5 67zM479 1147l137 295h248l-250 -295h-135z" />
    <glyph glyph-name="ecircumflex" unicode="&#xea;" 
d="M1139 551v-72h-807q8 -154 94.5 -247t222.5 -93q221 0 332 205l137 -72q-81 -155 -198 -221.5t-271 -66.5q-147 0 -260.5 70.5t-173 191t-59.5 270.5q0 109 34 206t96 169.5t156 115t207 42.5q93 0 173 -26t137.5 -71.5t98.5 -108.5t61 -137t20 -155zM649 893
q-122 0 -200 -69t-105 -189h612q-23 124 -102.5 191t-204.5 67zM307 1159l316 336h53l315 -336h-178l-164 174l-164 -174h-178z" />
    <glyph glyph-name="edieresis" unicode="&#xeb;" 
d="M1139 551v-72h-807q8 -154 94.5 -247t222.5 -93q221 0 332 205l137 -72q-81 -155 -198 -221.5t-271 -66.5q-147 0 -260.5 70.5t-173 191t-59.5 270.5q0 109 34 206t96 169.5t156 115t207 42.5q93 0 173 -26t137.5 -71.5t98.5 -108.5t61 -137t20 -155zM649 893
q-122 0 -200 -69t-105 -189h612q-23 124 -102.5 191t-204.5 67zM346 1333q0 49 33.5 83t81.5 34q51 0 84 -33.5t33 -83.5t-33 -82t-84 -32q-48 0 -81.5 32.5t-33.5 81.5zM723 1333q0 49 33.5 83t81.5 34q51 0 83.5 -33.5t32.5 -83.5t-32.5 -82t-83.5 -32q-48 0 -81.5 32.5
t-33.5 81.5z" />
    <glyph glyph-name="igrave" unicode="&#xec;" 
d="M264 881v151h488v-880h381v-152h-910v152h357v729h-316zM604 1442l137 -295h-135l-250 295h248z" />
    <glyph glyph-name="iacute" unicode="&#xed;" 
d="M264 881v151h488v-880h381v-152h-910v152h357v729h-316zM420 1147l137 295h248l-250 -295h-135z" />
    <glyph glyph-name="icircumflex" unicode="&#xee;" 
d="M264 881v151h488v-880h381v-152h-910v152h357v729h-316zM264 1159l316 336h53l315 -336h-178l-164 174l-164 -174h-178z" />
    <glyph glyph-name="idieresis" unicode="&#xef;" 
d="M264 881v151h488v-880h381v-152h-910v152h357v729h-316zM305 1333q0 49 33.5 83t81.5 34q51 0 84 -33.5t33 -83.5t-33 -82t-84 -32q-48 0 -81.5 32.5t-33.5 81.5zM682 1333q0 49 33.5 83t81.5 34q51 0 83.5 -33.5t32.5 -83.5t-32.5 -82t-83.5 -32q-48 0 -81.5 32.5
t-33.5 81.5z" />
    <glyph glyph-name="eth" unicode="&#xf0;" 
d="M567 1110l-121 86l78 117q-56 33 -164 78l82 125q101 -43 164 -80l76 110l119 -86l-70 -104q214 -160 308 -353.5t94 -465.5q0 -153 -57.5 -277.5t-171 -200t-263.5 -75.5q-113 0 -206.5 43.5t-155 117t-95.5 169.5t-34 202t34 202t95 170t155 117.5t207 43.5
q68 0 137.5 -26.5t100.5 -64.5q-30 81 -85.5 142.5t-146.5 130.5zM326 516q0 -73 20 -139.5t58 -120t99.5 -85.5t137.5 -32t137.5 32t99.5 85.5t58 120t20 139.5q0 158 -84 267.5t-231 109.5q-76 0 -137.5 -32t-99.5 -85.5t-58 -120t-20 -139.5z" />
    <glyph glyph-name="ntilde" unicode="&#xf1;" 
d="M1069 719v-719h-172v682q0 211 -190 211q-127 0 -215.5 -129.5t-88.5 -347.5v-416h-172v1032h172v-190q58 93 151 150t200 57q157 0 236 -88t79 -242zM406 1200l-101 78q37 69 95.5 112.5t123.5 43.5q47 0 86.5 -13t62 -28t54.5 -28t66 -13q75 0 135 73l100 -79
q-37 -68 -95.5 -111t-123.5 -43q-47 0 -86 13t-62 28t-54.5 28t-65.5 13q-74 0 -135 -74z" />
    <glyph glyph-name="ograve" unicode="&#xf2;" 
d="M127 516q0 107 35.5 203.5t99.5 170t161 116.5t212 43t212 -43t161 -116.5t99.5 -170t35.5 -203.5t-35.5 -203.5t-100 -169.5t-161 -116t-211.5 -43t-211.5 43t-161 116t-100 169.5t-35.5 203.5zM303 516q0 -157 90 -267t242 -110t242 110t90 267t-90 267t-242 110
t-242 -110t-90 -267zM635 1442l137 -295h-135l-250 295h248z" />
    <glyph glyph-name="oacute" unicode="&#xf3;" 
d="M127 516q0 107 35.5 203.5t99.5 170t161 116.5t212 43t212 -43t161 -116.5t99.5 -170t35.5 -203.5t-35.5 -203.5t-100 -169.5t-161 -116t-211.5 -43t-211.5 43t-161 116t-100 169.5t-35.5 203.5zM303 516q0 -157 90 -267t242 -110t242 110t90 267t-90 267t-242 110
t-242 -110t-90 -267zM471 1147l137 295h248l-250 -295h-135z" />
    <glyph glyph-name="ocircumflex" unicode="&#xf4;" 
d="M127 516q0 107 35.5 203.5t99.5 170t161 116.5t212 43t212 -43t161 -116.5t99.5 -170t35.5 -203.5t-35.5 -203.5t-100 -169.5t-161 -116t-211.5 -43t-211.5 43t-161 116t-100 169.5t-35.5 203.5zM303 516q0 -157 90 -267t242 -110t242 110t90 267t-90 267t-242 110
t-242 -110t-90 -267zM293 1159l315 336h54l315 -336h-178l-164 174l-164 -174h-178z" />
    <glyph glyph-name="otilde" unicode="&#xf5;" 
d="M127 516q0 107 35.5 203.5t99.5 170t161 116.5t212 43t212 -43t161 -116.5t99.5 -170t35.5 -203.5t-35.5 -203.5t-100 -169.5t-161 -116t-211.5 -43t-211.5 43t-161 116t-100 169.5t-35.5 203.5zM303 516q0 -157 90 -267t242 -110t242 110t90 267t-90 267t-242 110
t-242 -110t-90 -267zM373 1200l-101 78q37 69 96 112.5t124 43.5q47 0 86 -13t62 -28t54.5 -28t65.5 -13q75 0 135 73l100 -79q-37 -68 -95.5 -111t-123.5 -43q-47 0 -86 13t-62 28t-54.5 28t-65.5 13q-74 0 -135 -74z" />
    <glyph glyph-name="odieresis" unicode="&#xf6;" 
d="M127 516q0 107 35.5 203.5t99.5 170t161 116.5t212 43t212 -43t161 -116.5t99.5 -170t35.5 -203.5t-35.5 -203.5t-100 -169.5t-161 -116t-211.5 -43t-211.5 43t-161 116t-100 169.5t-35.5 203.5zM303 516q0 -157 90 -267t242 -110t242 110t90 267t-90 267t-242 110
t-242 -110t-90 -267zM332 1333q0 49 33.5 83t80.5 34q51 0 84 -33.5t33 -83.5t-33 -82t-84 -32q-48 0 -81 32.5t-33 81.5zM709 1333q0 49 33.5 83t80.5 34q51 0 84 -33.5t33 -83.5t-33 -82t-84 -32q-48 0 -81 32.5t-33 81.5z" />
    <glyph glyph-name="divide" unicode="&#xf7;" 
d="M500 1006q0 58 38 96.5t97 38.5t97 -38.5t38 -96.5q0 -59 -38.5 -97.5t-96.5 -38.5t-96.5 38.5t-38.5 97.5zM184 573v152h901v-152h-901zM500 293q0 59 38 97t97 38t97 -38t38 -97t-38 -97t-97 -38t-97 38t-38 97z" />
    <glyph glyph-name="oslash" unicode="&#xf8;" 
d="M1012 1120l125 -88l-121 -153q127 -149 127 -363q0 -107 -35.5 -203.5t-100 -169.5t-161 -116t-211.5 -43q-147 0 -264 71l-113 -143l-125 88l121 154q-127 149 -127 362q0 107 35.5 203.5t99.5 170t161 116.5t212 43q146 0 264 -72zM967 516q0 126 -60 223l-436 -557
q75 -43 164 -43q152 0 242 110t90 267zM303 516q0 -128 59 -223l437 557q-75 43 -164 43q-152 0 -242 -110t-90 -267z" />
    <glyph glyph-name="ugrave" unicode="&#xf9;" 
d="M211 313v719h172v-682q0 -211 190 -211q127 0 215.5 129.5t88.5 347.5v416h172v-1032h-172v190q-57 -92 -150.5 -149t-200.5 -57q-157 0 -236 87.5t-79 241.5zM653 1442l138 -295h-136l-249 295h247z" />
    <glyph glyph-name="uacute" unicode="&#xfa;" 
d="M211 313v719h172v-682q0 -211 190 -211q127 0 215.5 129.5t88.5 347.5v416h172v-1032h-172v190q-57 -92 -150.5 -149t-200.5 -57q-157 0 -236 87.5t-79 241.5zM496 1147l137 295h248l-250 -295h-135z" />
    <glyph glyph-name="ucircumflex" unicode="&#xfb;" 
d="M211 313v719h172v-682q0 -211 190 -211q127 0 215.5 129.5t88.5 347.5v416h172v-1032h-172v190q-57 -92 -150.5 -149t-200.5 -57q-157 0 -236 87.5t-79 241.5zM293 1159l315 336h54l315 -336h-178l-164 174l-164 -174h-178z" />
    <glyph glyph-name="udieresis" unicode="&#xfc;" 
d="M211 313v719h172v-682q0 -211 190 -211q127 0 215.5 129.5t88.5 347.5v416h172v-1032h-172v190q-57 -92 -150.5 -149t-200.5 -57q-157 0 -236 87.5t-79 241.5zM332 1333q0 49 33.5 83t80.5 34q51 0 84 -33.5t33 -83.5t-33 -82t-84 -32q-48 0 -81 32.5t-33 81.5zM709 1333
q0 49 33.5 83t80.5 34q51 0 84 -33.5t33 -83.5t-33 -82t-84 -32q-48 0 -81 32.5t-33 81.5z" />
    <glyph glyph-name="yacute" unicode="&#xfd;" 
d="M991 1032h187l-613 -1450h-172l201 488l-447 962h193l346 -756zM541 1147l137 295h248l-250 -295h-135z" />
    <glyph glyph-name="thorn" unicode="&#xfe;" 
d="M1141 516q0 -241 -125 -386.5t-348 -145.5q-100 0 -185 44t-131 109v-555h-172v1868h172v-549q53 64 134.5 106t181.5 42q223 0 348 -146t125 -387zM965 516q0 169 -84.5 273t-229.5 104t-229 -104t-84 -273t84 -273t229 -104t229.5 104t84.5 273z" />
    <glyph glyph-name="ydieresis" unicode="&#xff;" 
d="M991 1032h187l-613 -1450h-172l201 488l-447 962h193l346 -756zM362 1333q0 49 33.5 83t81.5 34q51 0 84 -33.5t33 -83.5t-33 -82t-84 -32q-48 0 -81.5 32.5t-33.5 81.5zM739 1333q0 49 33.5 83t81.5 34q51 0 84 -33.5t33 -83.5t-33 -82t-84 -32q-48 0 -81.5 32.5
t-33.5 81.5z" />
    <glyph glyph-name="Amacron" unicode="&#x100;" 
d="M549 1434h172l510 -1434h-187l-129 383h-561l-129 -383h-186zM635 1200l-221 -645h442zM381 1655v155h510v-155h-510z" />
    <glyph glyph-name="amacron" unicode="&#x101;" 
d="M403 297q0 -73 46.5 -115.5t123.5 -42.5q42 0 85.5 10t88 34.5t79 59.5t56 90t21.5 122v32h-225q-131 0 -203 -50.5t-72 -139.5zM1075 651v-651h-139l-25 145q-50 -71 -150 -116t-214 -45q-137 0 -228.5 81t-91.5 232q0 167 124 252.5t343 85.5h209v45q0 112 -66.5 162.5
t-170.5 50.5q-88 0 -153 -49t-91 -127l-152 41q35 133 144 212t252 79q191 0 300 -96.5t109 -301.5zM412 1253v156h510v-156h-510z" />
    <glyph glyph-name="Abreve" unicode="&#x102;" 
d="M549 1434h172l510 -1434h-187l-129 383h-561l-129 -383h-186zM635 1200l-221 -645h442zM725 1835h137q0 -95 -64 -159t-163 -64q-96 0 -161.5 64.5t-65.5 158.5h137q0 -40 25 -66t65 -26q41 0 65.5 26t24.5 66z" />
    <glyph glyph-name="abreve" unicode="&#x103;" 
d="M403 297q0 -73 46.5 -115.5t123.5 -42.5q42 0 85.5 10t88 34.5t79 59.5t56 90t21.5 122v32h-225q-131 0 -203 -50.5t-72 -139.5zM1075 651v-651h-139l-25 145q-50 -71 -150 -116t-214 -45q-137 0 -228.5 81t-91.5 232q0 167 124 252.5t343 85.5h209v45q0 112 -66.5 162.5
t-170.5 50.5q-88 0 -153 -49t-91 -127l-152 41q35 133 144 212t252 79q191 0 300 -96.5t109 -301.5zM756 1434h137q0 -95 -64 -159.5t-163 -64.5q-96 0 -162 65t-66 159h137q0 -40 25.5 -66.5t65.5 -26.5q41 0 65.5 26.5t24.5 66.5z" />
    <glyph glyph-name="Aogonek" unicode="&#x104;" 
d="M1090 0h-46l-129 383h-561l-129 -383h-186l510 1434h172l510 -1434q-64 -55 -95.5 -95.5t-31.5 -76.5q0 -31 18 -48.5t49 -17.5q36 0 61 19t66 69l97 -73q-59 -82 -112.5 -118t-133.5 -36q-88 0 -141.5 48.5t-53.5 129.5q0 52 35.5 104t100.5 95zM635 1200l-221 -645h442
z" />
    <glyph glyph-name="aogonek" unicode="&#x105;" 
d="M936 0l-25 145q-50 -71 -150 -116t-214 -45q-137 0 -228.5 81t-91.5 232q0 167 124 252.5t343 85.5h209v45q0 112 -66.5 162.5t-170.5 50.5q-88 0 -153 -49t-91 -127l-152 41q35 133 144 212t252 79q191 0 300 -96.5t109 -301.5v-651q-64 -55 -95.5 -95.5t-31.5 -76.5
q0 -31 18.5 -48.5t49.5 -17.5q36 0 61 19t66 69l96 -73q-59 -82 -112.5 -118t-133.5 -36q-88 0 -141 48.5t-53 129.5q0 52 36 104t101 95zM403 297q0 -73 46.5 -115.5t123.5 -42.5q42 0 85.5 10t88 34.5t79 59.5t56 90t21.5 122v32h-225q-131 0 -203 -50.5t-72 -139.5z" />
    <glyph glyph-name="Cacute" unicode="&#x106;" 
d="M1036 471l170 -51q-49 -199 -181.5 -317.5t-332.5 -118.5q-124 0 -230 45.5t-187.5 134t-128 230.5t-46.5 323t46.5 323t128 230.5t187.5 134t230 45.5q200 0 332.5 -118.5t181.5 -317.5l-170 -51q-48 160 -130 237.5t-214 77.5q-190 0 -297.5 -138.5t-107.5 -422.5
t107.5 -422.5t297.5 -138.5q132 0 214 77.5t130 237.5zM524 1548l138 295h247l-250 -295h-135z" />
    <glyph glyph-name="cacute" unicode="&#x107;" 
d="M963 330l149 -62q-63 -145 -169.5 -214.5t-266.5 -69.5q-115 0 -209.5 43.5t-156 117.5t-95 169.5t-33.5 201.5q0 143 56.5 262.5t171 195t266.5 75.5q159 0 266 -70t170 -215l-149 -62q-81 191 -287 191q-149 0 -233.5 -106t-84.5 -271t84.5 -271t233.5 -106
q206 0 287 191zM539 1147l137 295h248l-250 -295h-135z" />
    <glyph glyph-name="Ccircumflex" unicode="&#x108;" 
d="M1036 471l170 -51q-49 -199 -181.5 -317.5t-332.5 -118.5q-124 0 -230 45.5t-187.5 134t-128 230.5t-46.5 323t46.5 323t128 230.5t187.5 134t230 45.5q200 0 332.5 -118.5t181.5 -317.5l-170 -51q-48 160 -130 237.5t-214 77.5q-190 0 -297.5 -138.5t-107.5 -422.5
t107.5 -422.5t297.5 -138.5q132 0 214 77.5t130 237.5zM348 1561l316 335h53l315 -335h-178l-164 174l-164 -174h-178z" />
    <glyph glyph-name="ccircumflex" unicode="&#x109;" 
d="M963 330l149 -62q-63 -145 -169.5 -214.5t-266.5 -69.5q-115 0 -209.5 43.5t-156 117.5t-95 169.5t-33.5 201.5q0 143 56.5 262.5t171 195t266.5 75.5q159 0 266 -70t170 -215l-149 -62q-81 191 -287 191q-149 0 -233.5 -106t-84.5 -271t84.5 -271t233.5 -106
q206 0 287 191zM330 1159l315 336h53l316 -336h-178l-164 174l-164 -174h-178z" />
    <glyph glyph-name="Cdotaccent" unicode="&#x10a;" 
d="M1036 471l170 -51q-49 -199 -181.5 -317.5t-332.5 -118.5q-124 0 -230 45.5t-187.5 134t-128 230.5t-46.5 323t46.5 323t128 230.5t187.5 134t230 45.5q200 0 332.5 -118.5t181.5 -317.5l-170 -51q-48 160 -130 237.5t-214 77.5q-190 0 -297.5 -138.5t-107.5 -422.5
t107.5 -422.5t297.5 -138.5q132 0 214 77.5t130 237.5zM549 1708q0 60 41 101.5t100 41.5q60 0 100.5 -41.5t40.5 -101.5q0 -59 -40.5 -99t-100.5 -40q-59 0 -100 40.5t-41 98.5z" />
    <glyph glyph-name="cdotaccent" unicode="&#x10b;" 
d="M963 330l149 -62q-63 -145 -169.5 -214.5t-266.5 -69.5q-115 0 -209.5 43.5t-156 117.5t-95 169.5t-33.5 201.5q0 143 56.5 262.5t171 195t266.5 75.5q159 0 266 -70t170 -215l-149 -62q-81 191 -287 191q-149 0 -233.5 -106t-84.5 -271t84.5 -271t233.5 -106
q206 0 287 191zM541 1307q0 60 41 101.5t100 41.5q60 0 100.5 -41.5t40.5 -101.5q0 -59 -40.5 -99.5t-100.5 -40.5q-59 0 -100 41t-41 99z" />
    <glyph glyph-name="Ccaron" unicode="&#x10c;" 
d="M1036 471l170 -51q-49 -199 -181.5 -317.5t-332.5 -118.5q-124 0 -230 45.5t-187.5 134t-128 230.5t-46.5 323t46.5 323t128 230.5t187.5 134t230 45.5q200 0 332.5 -118.5t181.5 -317.5l-170 -51q-48 160 -130 237.5t-214 77.5q-190 0 -297.5 -138.5t-107.5 -422.5
t107.5 -422.5t297.5 -138.5q132 0 214 77.5t130 237.5zM657 1561l-315 335h178l164 -174l164 174h178l-315 -335h-54z" />
    <glyph glyph-name="ccaron" unicode="&#x10d;" 
d="M963 330l149 -62q-63 -145 -169.5 -214.5t-266.5 -69.5q-115 0 -209.5 43.5t-156 117.5t-95 169.5t-33.5 201.5q0 143 56.5 262.5t171 195t266.5 75.5q159 0 266 -70t170 -215l-149 -62q-81 191 -287 191q-149 0 -233.5 -106t-84.5 -271t84.5 -271t233.5 -106
q206 0 287 191zM651 1159l-315 336h178l164 -174l164 174h178l-315 -336h-54z" />
    <glyph glyph-name="Dcaron" unicode="&#x10e;" 
d="M160 1434h362q142 0 257.5 -44.5t200.5 -131.5t132 -225t47 -316t-47 -316t-132 -225t-200.5 -131.5t-257.5 -44.5h-362v1434zM504 1262h-164v-1090h164q225 0 344 128t119 417t-119 417t-344 128zM485 1561l-315 335h178l164 -174l164 174h178l-315 -335h-54z" />
    <glyph glyph-name="dcaron" unicode="&#x10f;" 
d="M80 516q0 241 125 387t348 146q101 0 185 -42.5t130 -105.5v549h172v-1450h-172v137q-46 -65 -130.5 -109t-184.5 -44q-223 0 -348 145.5t-125 386.5zM256 516q0 -169 84 -273t229 -104t229.5 104t84.5 273t-84.5 273t-229.5 104t-229 -104t-84 -273zM1133 942v508h221
l-127 -508h-94z" />
    <glyph glyph-name="Dcroat" unicode="&#x110;" 
d="M53 631v172h101v631h387q142 0 257.5 -44.5t200.5 -131.5t132 -225t47 -316t-47 -316t-132 -225t-200.5 -131.5t-257.5 -44.5h-387v631h-101zM522 1262h-188v-459h223v-172h-223v-459h188q225 0 344 128t119 417t-119 417t-344 128z" />
    <glyph glyph-name="dcroat" unicode="&#x111;" 
d="M649 1171v140h283v139h172v-139h145v-140h-145v-1171h-172v137q-46 -65 -131 -109t-185 -44q-223 0 -348 145.5t-125 386.5t125 387t348 146q102 0 186 -42.5t130 -105.5v270h-283zM319 516q0 -169 84.5 -273t229.5 -104t229 104t84 273t-84 273t-229 104t-229.5 -104
t-84.5 -273z" />
    <glyph glyph-name="Emacron" unicode="&#x112;" 
d="M186 1434h910v-172h-729v-412h626v-172h-626v-506h749v-172h-930v1434zM395 1655v155h510v-155h-510z" />
    <glyph glyph-name="emacron" unicode="&#x113;" 
d="M1139 551v-72h-807q8 -154 94.5 -247t222.5 -93q221 0 332 205l137 -72q-81 -155 -198 -221.5t-271 -66.5q-147 0 -260.5 70.5t-173 191t-59.5 270.5q0 109 34 206t96 169.5t156 115t207 42.5q93 0 173 -26t137.5 -71.5t98.5 -108.5t61 -137t20 -155zM649 893
q-122 0 -200 -69t-105 -189h612q-23 124 -102.5 191t-204.5 67zM397 1253v156h510v-156h-510z" />
    <glyph glyph-name="Ebreve" unicode="&#x114;" 
d="M186 1434h910v-172h-729v-412h626v-172h-626v-506h749v-172h-930v1434zM725 1835h137q0 -95 -64 -159t-163 -64q-96 0 -161.5 64.5t-65.5 158.5h137q0 -40 25 -66t65 -26q41 0 65.5 26t24.5 66z" />
    <glyph glyph-name="ebreve" unicode="&#x115;" 
d="M1139 551v-72h-807q8 -154 94.5 -247t222.5 -93q221 0 332 205l137 -72q-81 -155 -198 -221.5t-271 -66.5q-147 0 -260.5 70.5t-173 191t-59.5 270.5q0 109 34 206t96 169.5t156 115t207 42.5q93 0 173 -26t137.5 -71.5t98.5 -108.5t61 -137t20 -155zM649 893
q-122 0 -200 -69t-105 -189h612q-23 124 -102.5 191t-204.5 67zM741 1434h138q0 -95 -64.5 -159.5t-163.5 -64.5q-96 0 -161.5 65t-65.5 159h137q0 -40 25.5 -66.5t64.5 -26.5q41 0 65.5 26.5t24.5 66.5z" />
    <glyph glyph-name="Edotaccent" unicode="&#x116;" 
d="M186 1434h910v-172h-729v-412h626v-172h-626v-506h749v-172h-930v1434zM489 1708q0 60 41.5 101.5t100.5 41.5q60 0 100.5 -41.5t40.5 -101.5q0 -59 -40.5 -99t-100.5 -40q-59 0 -100.5 40.5t-41.5 98.5z" />
    <glyph glyph-name="edotaccent" unicode="&#x117;" 
d="M1139 551v-72h-807q8 -154 94.5 -247t222.5 -93q221 0 332 205l137 -72q-81 -155 -198 -221.5t-271 -66.5q-147 0 -260.5 70.5t-173 191t-59.5 270.5q0 109 34 206t96 169.5t156 115t207 42.5q93 0 173 -26t137.5 -71.5t98.5 -108.5t61 -137t20 -155zM649 893
q-122 0 -200 -69t-105 -189h612q-23 124 -102.5 191t-204.5 67zM508 1307q0 60 41 101.5t100 41.5q60 0 101 -41.5t41 -101.5q0 -59 -41 -99.5t-101 -40.5q-59 0 -100 41t-41 99z" />
    <glyph glyph-name="Eogonek" unicode="&#x118;" 
d="M975 0h-789v1434h910v-172h-729v-412h626v-172h-626v-506h749v-172q-64 -55 -95.5 -95.5t-31.5 -76.5q0 -31 18.5 -48.5t49.5 -17.5q36 0 61 19t66 69l96 -73q-59 -82 -112.5 -118t-133.5 -36q-88 0 -141 48.5t-53 129.5q0 52 35 104t100 95z" />
    <glyph glyph-name="eogonek" unicode="&#x119;" 
d="M1139 551v-72h-807q8 -154 94.5 -247t222.5 -93q221 0 332 205l137 -72q-115 -222 -325 -272q-63 -55 -94 -95.5t-31 -76.5q0 -31 18 -48.5t49 -17.5q36 0 61 19t66 69l96 -73q-59 -83 -112 -118.5t-133 -35.5q-88 0 -141.5 48.5t-53.5 129.5q0 101 111 183
q-142 5 -250 76t-165.5 190t-57.5 266q0 109 34 206t96 169.5t156 115t207 42.5q93 0 173 -26t137.5 -71.5t98.5 -108.5t61 -137t20 -155zM649 893q-122 0 -200 -69t-105 -189h612q-23 124 -102.5 191t-204.5 67z" />
    <glyph glyph-name="Ecaron" unicode="&#x11a;" 
d="M186 1434h910v-172h-729v-412h626v-172h-626v-506h749v-172h-930v1434zM608 1561l-315 335h178l164 -174l164 174h178l-315 -335h-54z" />
    <glyph glyph-name="ecaron" unicode="&#x11b;" 
d="M1139 551v-72h-807q8 -154 94.5 -247t222.5 -93q221 0 332 205l137 -72q-81 -155 -198 -221.5t-271 -66.5q-147 0 -260.5 70.5t-173 191t-59.5 270.5q0 109 34 206t96 169.5t156 115t207 42.5q93 0 173 -26t137.5 -71.5t98.5 -108.5t61 -137t20 -155zM649 893
q-122 0 -200 -69t-105 -189h612q-23 124 -102.5 191t-204.5 67zM608 1159l-315 336h178l164 -174l164 174h178l-315 -336h-54z" />
    <glyph glyph-name="Gcircumflex" unicode="&#x11c;" 
d="M1040 0l-10 193q-48 -103 -144.5 -156t-215.5 -53t-222.5 45.5t-184 134t-127 231t-46.5 322.5q0 181 46.5 323t128 230.5t187.5 134t230 45.5q204 0 334 -118t180 -318l-170 -51q-48 160 -130 237.5t-214 77.5q-190 0 -298 -138.5t-108 -422.5t108 -422.5t298 -138.5
q146 0 227 101t95 294h-322v172h508v-723h-150zM338 1561l315 335h54l315 -335h-178l-164 174l-164 -174h-178z" />
    <glyph glyph-name="gcircumflex" unicode="&#x11d;" 
d="M291 702q0 157 103 252t261 95q110 0 203 -54l215 111l78 -141l-174 -91q43 -73 43 -172q0 -158 -102.5 -252t-262.5 -94q-108 0 -190 43q-94 -37 -94 -106q0 -43 39 -64.5t106 -21.5h268q167 0 256.5 -73t89.5 -212q0 -75 -28 -136.5t-74 -101.5t-109 -67t-131 -39
t-141 -12q-225 0 -351 87t-126 253q0 69 29 126.5t77 94.5q-73 57 -73 158q0 69 40 125t111 82q-63 85 -63 210zM780 59h-243q-57 0 -107 9q-88 -46 -88 -156q0 -90 83 -142.5t222 -52.5q146 0 226.5 50t80.5 139q0 83 -44 118t-130 35zM459 702q0 -93 56 -145.5t140 -52.5
q85 0 141 52.5t56 145.5t-56 146t-141 53q-83 0 -139.5 -53t-56.5 -146zM313 1159l316 336h53l315 -336h-178l-164 174l-163 -174h-179z" />
    <glyph glyph-name="Gbreve" unicode="&#x11e;" 
d="M1040 0l-10 193q-48 -103 -144.5 -156t-215.5 -53t-222.5 45.5t-184 134t-127 231t-46.5 322.5q0 181 46.5 323t128 230.5t187.5 134t230 45.5q204 0 334 -118t180 -318l-170 -51q-48 160 -130 237.5t-214 77.5q-190 0 -298 -138.5t-108 -422.5t108 -422.5t298 -138.5
q146 0 227 101t95 294h-322v172h508v-723h-150zM774 1835h137q0 -95 -64 -159t-163 -64q-96 0 -161.5 64.5t-65.5 158.5h137q0 -40 25 -66t65 -26q41 0 65.5 26t24.5 66z" />
    <glyph glyph-name="gbreve" unicode="&#x11f;" 
d="M291 702q0 157 103 252t261 95q110 0 203 -54l215 111l78 -141l-174 -91q43 -73 43 -172q0 -158 -102.5 -252t-262.5 -94q-108 0 -190 43q-94 -37 -94 -106q0 -43 39 -64.5t106 -21.5h268q167 0 256.5 -73t89.5 -212q0 -75 -28 -136.5t-74 -101.5t-109 -67t-131 -39
t-141 -12q-225 0 -351 87t-126 253q0 69 29 126.5t77 94.5q-73 57 -73 158q0 69 40 125t111 82q-63 85 -63 210zM780 59h-243q-57 0 -107 9q-88 -46 -88 -156q0 -90 83 -142.5t222 -52.5q146 0 226.5 50t80.5 139q0 83 -44 118t-130 35zM459 702q0 -93 56 -145.5t140 -52.5
q85 0 141 52.5t56 145.5t-56 146t-141 53q-83 0 -139.5 -53t-56.5 -146zM725 1434h137q0 -95 -64 -159.5t-163 -64.5q-96 0 -161.5 65t-65.5 159h137q0 -40 25.5 -66.5t64.5 -26.5q41 0 65.5 26.5t24.5 66.5z" />
    <glyph glyph-name="Gdotaccent" unicode="&#x120;" 
d="M1040 0l-10 193q-48 -103 -144.5 -156t-215.5 -53t-222.5 45.5t-184 134t-127 231t-46.5 322.5q0 181 46.5 323t128 230.5t187.5 134t230 45.5q204 0 334 -118t180 -318l-170 -51q-48 160 -130 237.5t-214 77.5q-190 0 -298 -138.5t-108 -422.5t108 -422.5t298 -138.5
q146 0 227 101t95 294h-322v172h508v-723h-150zM543 1708q0 60 41 101.5t100 41.5q60 0 100.5 -41.5t40.5 -101.5q0 -59 -40.5 -99t-100.5 -40q-59 0 -100 40.5t-41 98.5z" />
    <glyph glyph-name="gdotaccent" unicode="&#x121;" 
d="M291 702q0 157 103 252t261 95q110 0 203 -54l215 111l78 -141l-174 -91q43 -73 43 -172q0 -158 -102.5 -252t-262.5 -94q-108 0 -190 43q-94 -37 -94 -106q0 -43 39 -64.5t106 -21.5h268q167 0 256.5 -73t89.5 -212q0 -75 -28 -136.5t-74 -101.5t-109 -67t-131 -39
t-141 -12q-225 0 -351 87t-126 253q0 69 29 126.5t77 94.5q-73 57 -73 158q0 69 40 125t111 82q-63 85 -63 210zM780 59h-243q-57 0 -107 9q-88 -46 -88 -156q0 -90 83 -142.5t222 -52.5q146 0 226.5 50t80.5 139q0 83 -44 118t-130 35zM459 702q0 -93 56 -145.5t140 -52.5
q85 0 141 52.5t56 145.5t-56 146t-141 53q-83 0 -139.5 -53t-56.5 -146zM516 1307q0 60 41 101.5t100 41.5q60 0 101 -41.5t41 -101.5q0 -59 -41 -99.5t-101 -40.5q-59 0 -100 41t-41 99z" />
    <glyph glyph-name="uni0122" unicode="&#x122;" 
d="M1040 0l-10 193q-48 -103 -144.5 -156t-215.5 -53t-222.5 45.5t-184 134t-127 231t-46.5 322.5q0 181 46.5 323t128 230.5t187.5 134t230 45.5q204 0 334 -118t180 -318l-170 -51q-48 160 -130 237.5t-214 77.5q-190 0 -298 -138.5t-108 -422.5t108 -422.5t298 -138.5
q146 0 227 101t95 294h-322v172h508v-723h-150zM397 -551l197 445h252l-299 -445h-150z" />
    <glyph glyph-name="uni0123" unicode="&#x123;" 
d="M291 702q0 157 103 252t261 95q110 0 203 -54l215 111l78 -141l-174 -91q43 -73 43 -172q0 -158 -102.5 -252t-262.5 -94q-108 0 -190 43q-94 -37 -94 -106q0 -43 39 -64.5t106 -21.5h268q167 0 256.5 -73t89.5 -212q0 -75 -28 -136.5t-74 -101.5t-109 -67t-131 -39
t-141 -12q-225 0 -351 87t-126 253q0 69 29 126.5t77 94.5q-73 57 -73 158q0 69 40 125t111 82q-63 85 -63 210zM780 59h-243q-57 0 -107 9q-88 -46 -88 -156q0 -90 83 -142.5t222 -52.5q146 0 226.5 50t80.5 139q0 83 -44 118t-130 35zM459 702q0 -93 56 -145.5t140 -52.5
q85 0 141 52.5t56 145.5t-56 146t-141 53q-83 0 -139.5 -53t-56.5 -146zM545 1673l194 -508h-131l-321 508h258z" />
    <glyph glyph-name="Hcircumflex" unicode="&#x124;" 
d="M950 1434h180v-1434h-180v676h-631v-676h-180v1434h180v-586h631v586zM293 1561l315 335h54l315 -335h-178l-164 174l-164 -174h-178z" />
    <glyph glyph-name="hcircumflex" unicode="&#x125;" 
d="M1083 713v-713h-172v676q0 217 -190 217q-130 0 -229 -125.5t-99 -335.5v-432h-172v1450h172v-608q61 90 160.5 148.5t214.5 58.5q161 0 238 -88t77 -248zM231 1561l316 335h53l315 -335h-178l-164 174l-163 -174h-179z" />
    <glyph glyph-name="Hbar" unicode="&#x126;" 
d="M950 1434h180v-222h109v-155h-109v-1057h-180v676h-631v-676h-180v1057h-106v155h106v222h180v-222h631v222zM319 848h631v209h-631v-209z" />
    <glyph glyph-name="hbar" unicode="&#x127;" 
d="M76 1171v140h145v139h172v-139h283v-140h-283v-329q61 90 160.5 148.5t214.5 58.5q161 0 238 -88t77 -248v-713h-172v676q0 217 -190 217q-130 0 -229 -125.5t-99 -335.5v-432h-172v1171h-145z" />
    <glyph glyph-name="Itilde" unicode="&#x128;" 
d="M1071 0h-872v156h346v1122h-346v156h872v-156h-346v-1122h346v-156zM373 1602l-101 77q37 69 96 112.5t124 43.5q47 0 86 -13t62 -28t54.5 -28t65.5 -13q74 0 135 74l100 -80q-37 -68 -95.5 -111t-123.5 -43q-47 0 -86 13t-62 28t-54.5 28t-65.5 13q-75 0 -135 -73z" />
    <glyph glyph-name="itilde" unicode="&#x129;" 
d="M264 881v151h488v-880h381v-152h-910v152h357v729h-316zM373 1200l-101 78q37 69 96 112.5t124 43.5q47 0 86 -13t62 -28t54.5 -28t65.5 -13q75 0 135 73l100 -79q-37 -68 -95.5 -111t-123.5 -43q-47 0 -86 13t-62 28t-54.5 28t-65.5 13q-74 0 -135 -74z" />
    <glyph glyph-name="Imacron" unicode="&#x12a;" 
d="M1071 0h-872v156h346v1122h-346v156h872v-156h-346v-1122h346v-156zM381 1655v155h510v-155h-510z" />
    <glyph glyph-name="imacron" unicode="&#x12b;" 
d="M264 881v151h488v-880h381v-152h-910v152h357v729h-316zM381 1253v156h510v-156h-510z" />
    <glyph glyph-name="Ibreve" unicode="&#x12c;" 
d="M1071 0h-872v156h346v1122h-346v156h872v-156h-346v-1122h346v-156zM725 1835h137q0 -95 -64 -159t-163 -64q-96 0 -161.5 64.5t-65.5 158.5h137q0 -40 25 -66t65 -26q41 0 65.5 26t24.5 66z" />
    <glyph glyph-name="ibreve" unicode="&#x12d;" 
d="M264 881v151h488v-880h381v-152h-910v152h357v729h-316zM725 1434h137q0 -95 -64 -159.5t-163 -64.5q-96 0 -161.5 65t-65.5 159h137q0 -40 25.5 -66.5t64.5 -26.5q41 0 65.5 26.5t24.5 66.5z" />
    <glyph glyph-name="Iogonek" unicode="&#x12e;" 
d="M930 0h-731v156h346v1122h-346v156h872v-156h-346v-1122h346v-156q-64 -55 -95.5 -95.5t-31.5 -76.5q0 -31 18.5 -48.5t49.5 -17.5q36 0 61 19t66 69l96 -73q-59 -82 -112.5 -118t-133.5 -36q-88 0 -141 48.5t-53 129.5q0 52 35 104t100 95z" />
    <glyph glyph-name="iogonek" unicode="&#x12f;" 
d="M991 0h-768v152h357v729h-316v151h488v-880h381v-152q-64 -55 -95.5 -95.5t-31.5 -76.5q0 -31 18 -48.5t49 -17.5q36 0 61 19t66 69l96 -73q-59 -83 -112 -118.5t-133 -35.5q-88 0 -141.5 48.5t-53.5 129.5q0 52 35 104t100 95zM512 1307q0 60 41 101.5t100 41.5
q60 0 101 -41.5t41 -101.5q0 -59 -41 -99.5t-101 -40.5q-59 0 -100 41t-41 99z" />
    <glyph glyph-name="Idotaccent" unicode="&#x130;" 
d="M1071 0h-872v156h346v1122h-346v156h872v-156h-346v-1122h346v-156zM494 1708q0 60 41 101.5t100 41.5q60 0 100.5 -41.5t40.5 -101.5q0 -59 -40.5 -99t-100.5 -40q-59 0 -100 40.5t-41 98.5z" />
    <glyph glyph-name="dotlessi" unicode="&#x131;" 
d="M264 881v151h488v-880h381v-152h-910v152h357v729h-316z" />
    <glyph glyph-name="IJ" unicode="&#x132;" 
d="M291 0h-180v1434h180v-1434zM971 455v979h180v-975q0 -223 -104 -349t-293 -126q-152 0 -258 93t-134 247l183 38q22 -102 78 -154t131 -52q217 0 217 299z" />
    <glyph glyph-name="ij" unicode="&#x133;" 
d="M274 0v1032h172v-1032h-172zM207 1307q0 60 41 101.5t100 41.5q60 0 100.5 -41.5t40.5 -101.5q0 -59 -40.5 -99.5t-100.5 -40.5q-59 0 -100 41t-41 99zM690 -434l-57 164q147 50 211.5 135t64.5 237v779h-200v151h372v-975q0 -87 -22.5 -162t-60 -128t-89 -94.5
t-105.5 -66.5t-114 -40zM842 1307q0 60 41 101.5t100 41.5q60 0 100.5 -41.5t40.5 -101.5q0 -59 -40.5 -99.5t-100.5 -40.5q-59 0 -100 41t-41 99z" />
    <glyph glyph-name="Jcircumflex" unicode="&#x134;" 
d="M856 455v979h180v-975q0 -118 -33.5 -209.5t-93.5 -149t-139.5 -87t-173.5 -29.5q-186 0 -303 110.5t-143 278.5l182 39q25 -120 93 -188t171 -68q122 0 191 74t69 225zM606 1561l316 335h53l315 -335h-178l-164 174l-164 -174h-178z" />
    <glyph glyph-name="jcircumflex" unicode="&#x135;" 
d="M494 -434l-58 164q147 50 212 135.5t65 236.5v779h-406v151h578v-975q0 -87 -22.5 -162t-60 -128t-89 -94.5t-105.5 -66.5t-114 -40zM459 1159l315 336h53l316 -336h-178l-164 174l-164 -174h-178z" />
    <glyph glyph-name="uni0136" unicode="&#x136;" 
d="M1210 0h-229l-600 719v-719h-180v1434h180v-576l549 576h235l-618 -646zM377 -551l196 445h252l-299 -445h-149z" />
    <glyph glyph-name="uni0137" unicode="&#x137;" 
d="M227 1450h172v-850l441 432h225l-481 -473l528 -559h-225l-488 518v-518h-172v1450zM356 -551l197 445h252l-299 -445h-150z" />
    <glyph glyph-name="kgreenlandic" unicode="&#x138;" 
d="M227 1032h172v-432l441 432h225l-481 -473l528 -559h-225l-488 518v-518h-172v1032z" />
    <glyph glyph-name="Lacute" unicode="&#x139;" 
d="M1184 0h-912v1434h181v-1262h731v-172zM285 1548l137 295h248l-250 -295h-135z" />
    <glyph glyph-name="lacute" unicode="&#x13a;" 
d="M412 1278h-285v156h457v-1045q0 -250 217 -250q95 0 157 61.5t82 188.5l156 -31q-27 -184 -130.5 -279t-264.5 -95q-181 0 -285 106t-104 299v889zM416 1548l137 295h248l-250 -295h-135z" />
    <glyph glyph-name="uni013B" unicode="&#x13b;" 
d="M1184 0h-912v1434h181v-1262h731v-172zM438 -551l197 445h252l-299 -445h-150z" />
    <glyph glyph-name="uni013C" unicode="&#x13c;" 
d="M412 1278h-285v156h457v-1045q0 -250 217 -250q95 0 157 61.5t82 188.5l156 -31q-27 -184 -130.5 -279t-264.5 -95q-181 0 -285 106t-104 299v889zM500 -551l196 445h252l-299 -445h-149z" />
    <glyph glyph-name="Lcaron" unicode="&#x13d;" 
d="M1184 0h-912v1434h181v-1262h731v-172zM778 926l195 508h258l-322 -508h-131z" />
    <glyph glyph-name="lcaron" unicode="&#x13e;" 
d="M412 1278h-285v156h457v-1045q0 -250 217 -250q95 0 157 61.5t82 188.5l156 -31q-27 -184 -130.5 -279t-264.5 -95q-181 0 -285 106t-104 299v889zM768 942l195 508h258l-322 -508h-131z" />
    <glyph glyph-name="Ldot" unicode="&#x13f;" 
d="M1184 0h-912v1434h181v-1262h731v-172zM860 819q0 71 47 117.5t117 46.5t117 -46.5t47 -117.5t-47 -117.5t-117 -46.5t-117 46.5t-47 117.5z" />
    <glyph glyph-name="ldot" unicode="&#x140;" 
d="M412 1278h-285v156h457v-1045q0 -250 217 -250q95 0 157 61.5t82 188.5l156 -31q-27 -184 -130.5 -279t-264.5 -95q-181 0 -285 106t-104 299v889zM844 721q0 71 47 117.5t117 46.5t116.5 -46.5t46.5 -117.5t-46.5 -117.5t-116.5 -46.5t-117 46.5t-47 117.5z" />
    <glyph glyph-name="Lslash" unicode="&#x141;" 
d="M162 477l-74 133l184 105v719h181v-617l225 127l74 -133l-299 -170v-469h731v-172h-912v539z" />
    <glyph glyph-name="lslash" unicode="&#x142;" 
d="M428 1278h-285v156h457v-588l172 98l74 -131l-246 -139v-285q0 -250 217 -250q96 0 158 61t82 187l155 -31q-27 -184 -130 -278t-265 -94q-180 0 -284.5 108t-104.5 299v184l-172 -96l-74 131l246 140v528z" />
    <glyph glyph-name="Nacute" unicode="&#x143;" 
d="M942 1434h180v-1434h-196l-600 1106v-1106h-181v1434h197l600 -1106v1106zM512 1548l137 295h248l-250 -295h-135z" />
    <glyph glyph-name="nacute" unicode="&#x144;" 
d="M1069 719v-719h-172v682q0 211 -190 211q-127 0 -215.5 -129.5t-88.5 -347.5v-416h-172v1032h172v-190q58 93 151 150t200 57q157 0 236 -88t79 -242zM543 1147l137 295h248l-250 -295h-135z" />
    <glyph glyph-name="uni0145" unicode="&#x145;" 
d="M942 1434h180v-1434h-196l-600 1106v-1106h-181v1434h197l600 -1106v1106zM356 -551l197 445h252l-299 -445h-150z" />
    <glyph glyph-name="uni0146" unicode="&#x146;" 
d="M1069 719v-719h-172v682q0 211 -190 211q-127 0 -215.5 -129.5t-88.5 -347.5v-416h-172v1032h172v-190q58 93 151 150t200 57q157 0 236 -88t79 -242zM356 -551l197 445h252l-299 -445h-150z" />
    <glyph glyph-name="Ncaron" unicode="&#x147;" 
d="M942 1434h180v-1434h-196l-600 1106v-1106h-181v1434h197l600 -1106v1106zM608 1561l-315 335h178l164 -174l164 174h178l-315 -335h-54z" />
    <glyph glyph-name="ncaron" unicode="&#x148;" 
d="M1069 719v-719h-172v682q0 211 -190 211q-127 0 -215.5 -129.5t-88.5 -347.5v-416h-172v1032h172v-190q58 93 151 150t200 57q157 0 236 -88t79 -242zM625 1159l-316 336h178l164 -174l164 174h178l-315 -336h-53z" />
    <glyph glyph-name="napostrophe" unicode="&#x149;" 
d="M70 942v508h217l-127 -508h-90zM1135 719v-719h-172v682q0 211 -191 211q-127 0 -215 -129.5t-88 -347.5v-416h-172v1032h172v-190q58 93 150.5 150t199.5 57q157 0 236.5 -88t79.5 -242z" />
    <glyph glyph-name="Eng" unicode="&#x14a;" 
d="M942 0l-616 1106v-1106h-181v1434h197l600 -1080v1080h180v-1434q0 -117 -33.5 -203t-94.5 -135.5t-138 -72.5t-174 -23v172q129 0 194.5 56t65.5 206z" />
    <glyph glyph-name="eng" unicode="&#x14b;" 
d="M678 -434l-57 164q147 50 211.5 135t64.5 237v580q0 211 -190 211q-127 0 -215.5 -129.5t-88.5 -347.5v-416h-172v1032h172v-190q58 93 151 150t200 57q157 0 236 -88t79 -242v-662q0 -87 -22.5 -162t-60 -128t-89 -94.5t-105.5 -66.5t-114 -40z" />
    <glyph glyph-name="Omacron" unicode="&#x14c;" 
d="M635 1450q118 0 218.5 -46t176.5 -135t119 -230.5t43 -321.5t-43 -321.5t-119 -230.5t-176.5 -135t-218.5 -46t-218.5 46t-176.5 135t-119 230.5t-43 321.5t43 321.5t119 230.5t176.5 135t218.5 46zM635 1278q-170 0 -270.5 -136t-100.5 -425t100.5 -425t270.5 -136
t270.5 136t100.5 425t-100.5 425t-270.5 136zM381 1655v155h510v-155h-510z" />
    <glyph glyph-name="omacron" unicode="&#x14d;" 
d="M127 516q0 107 35.5 203.5t99.5 170t161 116.5t212 43t212 -43t161 -116.5t99.5 -170t35.5 -203.5t-35.5 -203.5t-100 -169.5t-161 -116t-211.5 -43t-211.5 43t-161 116t-100 169.5t-35.5 203.5zM303 516q0 -157 90 -267t242 -110t242 110t90 267t-90 267t-242 110
t-242 -110t-90 -267zM381 1253v156h510v-156h-510z" />
    <glyph glyph-name="Obreve" unicode="&#x14e;" 
d="M635 1450q118 0 218.5 -46t176.5 -135t119 -230.5t43 -321.5t-43 -321.5t-119 -230.5t-176.5 -135t-218.5 -46t-218.5 46t-176.5 135t-119 230.5t-43 321.5t43 321.5t119 230.5t176.5 135t218.5 46zM635 1278q-170 0 -270.5 -136t-100.5 -425t100.5 -425t270.5 -136
t270.5 136t100.5 425t-100.5 425t-270.5 136zM725 1835h137q0 -95 -64 -159t-163 -64q-96 0 -161.5 64.5t-65.5 158.5h137q0 -40 25 -66t65 -26q41 0 65.5 26t24.5 66z" />
    <glyph glyph-name="obreve" unicode="&#x14f;" 
d="M127 516q0 107 35.5 203.5t99.5 170t161 116.5t212 43t212 -43t161 -116.5t99.5 -170t35.5 -203.5t-35.5 -203.5t-100 -169.5t-161 -116t-211.5 -43t-211.5 43t-161 116t-100 169.5t-35.5 203.5zM303 516q0 -157 90 -267t242 -110t242 110t90 267t-90 267t-242 110
t-242 -110t-90 -267zM725 1434h137q0 -95 -64 -159.5t-163 -64.5q-96 0 -161.5 65t-65.5 159h137q0 -40 25.5 -66.5t64.5 -26.5q41 0 65.5 26.5t24.5 66.5z" />
    <glyph glyph-name="Ohungarumlaut" unicode="&#x150;" 
d="M635 1450q118 0 218.5 -46t176.5 -135t119 -230.5t43 -321.5t-43 -321.5t-119 -230.5t-176.5 -135t-218.5 -46t-218.5 46t-176.5 135t-119 230.5t-43 321.5t43 321.5t119 230.5t176.5 135t218.5 46zM635 1278q-170 0 -270.5 -136t-100.5 -425t100.5 -425t270.5 -136
t270.5 136t100.5 425t-100.5 425t-270.5 136zM295 1548l139 295h248l-248 -295h-139zM684 1548l139 295h248l-248 -295h-139z" />
    <glyph glyph-name="ohungarumlaut" unicode="&#x151;" 
d="M127 516q0 107 35.5 203.5t99.5 170t161 116.5t212 43t212 -43t161 -116.5t99.5 -170t35.5 -203.5t-35.5 -203.5t-100 -169.5t-161 -116t-211.5 -43t-211.5 43t-161 116t-100 169.5t-35.5 203.5zM303 516q0 -157 90 -267t242 -110t242 110t90 267t-90 267t-242 110
t-242 -110t-90 -267zM307 1147l139 295h248l-248 -295h-139zM696 1147l140 295h247l-247 -295h-140z" />
    <glyph glyph-name="OE" unicode="&#x152;" 
d="M612 1434h537v-172h-375v-412h320v-172h-320v-506h395v-172h-557q-118 0 -214.5 43.5t-168.5 130t-111.5 225t-39.5 318.5t39.5 318.5t111.5 225t168.5 130t214.5 43.5zM264 717q0 -150 21.5 -256t65 -169t103 -91.5t140.5 -28.5v1106q-164 0 -247 -132.5t-83 -428.5z
" />
    <glyph glyph-name="oe" unicode="&#x153;" 
d="M657 -16q-153 0 -270 74t-177 194t-60 264q0 107 35.5 203.5t99.5 170t160.5 116.5t211.5 43q93 0 173 -26t137.5 -71.5t98.5 -108.5t61 -137t20 -155v-72h-404v-332q157 35 246 197l137 -72q-81 -155 -198 -221.5t-271 -66.5zM326 516q0 -133 62.5 -234t178.5 -132v731
q-115 -30 -178 -131.5t-63 -233.5zM965 635q-22 108 -76 170t-146 80v-250h222z" />
    <glyph glyph-name="Racute" unicode="&#x154;" 
d="M1004 0l-420 676h-240v-676h-180v1434h502q196 0 308.5 -96.5t112.5 -282.5q0 -154 -77.5 -245.5t-221.5 -121.5l429 -688h-213zM670 1262h-326v-414h326q231 0 231 207t-231 207zM442 1548l138 295h247l-249 -295h-136z" />
    <glyph glyph-name="racute" unicode="&#x155;" 
d="M1145 705h-172q-22 188 -199 188q-69 0 -131 -33t-111.5 -95t-78.5 -163.5t-29 -228.5v-373h-172v1032h172v-190q62 97 159 152t222 55q154 0 242.5 -89.5t97.5 -254.5zM524 1147l138 295h247l-250 -295h-135z" />
    <glyph glyph-name="uni0156" unicode="&#x156;" 
d="M1004 0l-420 676h-240v-676h-180v1434h502q196 0 308.5 -96.5t112.5 -282.5q0 -154 -77.5 -245.5t-221.5 -121.5l429 -688h-213zM670 1262h-326v-414h326q231 0 231 207t-231 207zM340 -551l197 445h251l-299 -445h-149z" />
    <glyph glyph-name="uni0157" unicode="&#x157;" 
d="M1145 705h-172q-22 188 -199 188q-69 0 -131 -33t-111.5 -95t-78.5 -163.5t-29 -228.5v-373h-172v1032h172v-190q62 97 159 152t222 55q154 0 242.5 -89.5t97.5 -254.5zM360 -551l197 445h252l-299 -445h-150z" />
    <glyph glyph-name="Rcaron" unicode="&#x158;" 
d="M1004 0l-420 676h-240v-676h-180v1434h502q196 0 308.5 -96.5t112.5 -282.5q0 -154 -77.5 -245.5t-221.5 -121.5l429 -688h-213zM670 1262h-326v-414h326q231 0 231 207t-231 207zM553 1561l-315 335h178l164 -174l163 174h179l-316 -335h-53z" />
    <glyph glyph-name="rcaron" unicode="&#x159;" 
d="M1145 705h-172q-22 188 -199 188q-69 0 -131 -33t-111.5 -95t-78.5 -163.5t-29 -228.5v-373h-172v1032h172v-190q62 97 159 152t222 55q154 0 242.5 -89.5t97.5 -254.5zM666 1159l-316 336h178l164 -174l164 174h178l-315 -336h-53z" />
    <glyph glyph-name="Sacute" unicode="&#x15a;" 
d="M1098 1143l-158 -80q-93 215 -291 215q-120 0 -189 -58t-69 -163q0 -28 6 -52.5t20 -44t28.5 -35t40.5 -30t48 -24.5t57.5 -21t62 -18.5t69.5 -18.5q64 -17 107 -30.5t95 -35.5t85 -48.5t62.5 -63t43.5 -85.5t14 -110q0 -227 -128.5 -341.5t-346.5 -114.5
q-208 0 -351 110t-183 316l168 65q84 -319 366 -319q135 0 215 66.5t80 193.5q0 32 -7.5 57.5t-18.5 44.5t-35 36t-45 28t-61.5 24t-71 21t-86.5 22q-53 13 -87.5 23t-82.5 28.5t-79 38t-65 50t-54 66.5t-33 86t-13 110q0 176 116.5 287.5t321.5 111.5q174 0 287.5 -88
t161.5 -219zM520 1548l137 295h248l-250 -295h-135z" />
    <glyph glyph-name="sacute" unicode="&#x15b;" 
d="M631 1049q135 0 225.5 -57t151.5 -167l-136 -96q-47 86 -105.5 125t-141.5 39q-74 0 -126.5 -33.5t-52.5 -103.5q0 -63 58.5 -99t181.5 -61q66 -13 113.5 -26t99.5 -36t84 -51t53 -71t21 -97q0 -103 -55.5 -179.5t-145 -114t-197.5 -37.5q-160 0 -281 77.5t-167 221.5
l164 61q34 -97 107 -151t177 -54q94 0 157 41t63 119q0 26 -13 46.5t-33 35t-57 27.5t-72.5 22t-91.5 21q-59 13 -102.5 26t-89.5 36.5t-75 54t-47.5 77t-18.5 105.5q0 134 102.5 216.5t249.5 82.5zM504 1147l137 295h248l-250 -295h-135z" />
    <glyph glyph-name="Scircumflex" unicode="&#x15c;" 
d="M1098 1143l-158 -80q-93 215 -291 215q-120 0 -189 -58t-69 -163q0 -28 6 -52.5t20 -44t28.5 -35t40.5 -30t48 -24.5t57.5 -21t62 -18.5t69.5 -18.5q64 -17 107 -30.5t95 -35.5t85 -48.5t62.5 -63t43.5 -85.5t14 -110q0 -227 -128.5 -341.5t-346.5 -114.5
q-208 0 -351 110t-183 316l168 65q84 -319 366 -319q135 0 215 66.5t80 193.5q0 32 -7.5 57.5t-18.5 44.5t-35 36t-45 28t-61.5 24t-71 21t-86.5 22q-53 13 -87.5 23t-82.5 28.5t-79 38t-65 50t-54 66.5t-33 86t-13 110q0 176 116.5 287.5t321.5 111.5q174 0 287.5 -88
t161.5 -219zM309 1561l316 335h53l315 -335h-178l-164 174l-164 -174h-178z" />
    <glyph glyph-name="scircumflex" unicode="&#x15d;" 
d="M631 1049q135 0 225.5 -57t151.5 -167l-136 -96q-47 86 -105.5 125t-141.5 39q-74 0 -126.5 -33.5t-52.5 -103.5q0 -63 58.5 -99t181.5 -61q66 -13 113.5 -26t99.5 -36t84 -51t53 -71t21 -97q0 -103 -55.5 -179.5t-145 -114t-197.5 -37.5q-160 0 -281 77.5t-167 221.5
l164 61q34 -97 107 -151t177 -54q94 0 157 41t63 119q0 26 -13 46.5t-33 35t-57 27.5t-72.5 22t-91.5 21q-59 13 -102.5 26t-89.5 36.5t-75 54t-47.5 77t-18.5 105.5q0 134 102.5 216.5t249.5 82.5zM305 1159l316 336h53l315 -336h-178l-164 174l-164 -174h-178z" />
    <glyph glyph-name="Scedilla" unicode="&#x15e;" 
d="M1098 1143l-158 -80q-93 215 -291 215q-120 0 -189 -58t-69 -163q0 -28 6 -52.5t20 -44t28.5 -35t40.5 -30t48 -24.5t57.5 -21t62 -18.5t69.5 -18.5q64 -17 107 -30.5t95 -35.5t85 -48.5t62.5 -63t43.5 -85.5t14 -110q0 -227 -128.5 -341.5t-346.5 -114.5
q-208 0 -351 110t-183 316l168 65q84 -319 366 -319q135 0 215 66.5t80 193.5q0 32 -7.5 57.5t-18.5 44.5t-35 36t-45 28t-61.5 24t-71 21t-86.5 22q-53 13 -87.5 23t-82.5 28.5t-79 38t-65 50t-54 66.5t-33 86t-13 110q0 176 116.5 287.5t321.5 111.5q174 0 287.5 -88
t161.5 -219zM784 -123l-170 -358l-194 92l221 266h143z" />
    <glyph glyph-name="scedilla" unicode="&#x15f;" 
d="M631 1049q135 0 225.5 -57t151.5 -167l-136 -96q-47 86 -105.5 125t-141.5 39q-74 0 -126.5 -33.5t-52.5 -103.5q0 -63 58.5 -99t181.5 -61q66 -13 113.5 -26t99.5 -36t84 -51t53 -71t21 -97q0 -103 -55.5 -179.5t-145 -114t-197.5 -37.5q-160 0 -281 77.5t-167 221.5
l164 61q34 -97 107 -151t177 -54q94 0 157 41t63 119q0 26 -13 46.5t-33 35t-57 27.5t-72.5 22t-91.5 21q-59 13 -102.5 26t-89.5 36.5t-75 54t-47.5 77t-18.5 105.5q0 134 102.5 216.5t249.5 82.5zM768 -123l-170 -358l-195 92l222 266h143z" />
    <glyph glyph-name="Scaron" unicode="&#x160;" 
d="M1098 1143l-158 -80q-93 215 -291 215q-120 0 -189 -58t-69 -163q0 -28 6 -52.5t20 -44t28.5 -35t40.5 -30t48 -24.5t57.5 -21t62 -18.5t69.5 -18.5q64 -17 107 -30.5t95 -35.5t85 -48.5t62.5 -63t43.5 -85.5t14 -110q0 -227 -128.5 -341.5t-346.5 -114.5
q-208 0 -351 110t-183 316l168 65q84 -319 366 -319q135 0 215 66.5t80 193.5q0 32 -7.5 57.5t-18.5 44.5t-35 36t-45 28t-61.5 24t-71 21t-86.5 22q-53 13 -87.5 23t-82.5 28.5t-79 38t-65 50t-54 66.5t-33 86t-13 110q0 176 116.5 287.5t321.5 111.5q174 0 287.5 -88
t161.5 -219zM621 1561l-316 335h178l164 -174l164 174h178l-315 -335h-53z" />
    <glyph glyph-name="scaron" unicode="&#x161;" 
d="M629 1049q135 0 225.5 -57t151.5 -167l-136 -96q-47 86 -105.5 125t-141.5 39q-74 0 -126.5 -33.5t-52.5 -103.5q0 -63 58.5 -99t181.5 -61q66 -13 113.5 -26t99.5 -36t84 -51t53 -71t21 -97q0 -103 -55.5 -179.5t-145 -114t-197.5 -37.5q-160 0 -281 77.5t-167 221.5
l164 61q34 -97 107 -151t177 -54q94 0 157 41t63 119q0 26 -13 46.5t-33 35t-57 27.5t-72.5 22t-91.5 21q-59 13 -102.5 26t-89.5 36.5t-75 54t-48 77t-19 105.5q0 134 103 216.5t250 82.5zM608 1159l-315 336h178l164 -174l164 174h178l-315 -336h-54z" />
    <glyph glyph-name="uni0162" unicode="&#x162;" 
d="M98 1262v172h1073v-172h-446v-1262h-180v1262h-447zM315 -551l197 445h252l-299 -445h-150z" />
    <glyph glyph-name="uni0163" unicode="&#x163;" 
d="M135 877v155h275v309l172 109v-418h503v-155h-503v-529q0 -209 178 -209q70 0 129.5 27.5t124.5 95.5l63 -145q-70 -70 -145 -101.5t-172 -31.5q-171 0 -260.5 90t-89.5 268v535h-275zM459 -551l196 445h252l-299 -445h-149z" />
    <glyph glyph-name="Tcaron" unicode="&#x164;" 
d="M98 1262v172h1073v-172h-446v-1262h-180v1262h-447zM608 1561l-315 335h178l164 -174l164 174h178l-315 -335h-54z" />
    <glyph glyph-name="tcaron" unicode="&#x165;" 
d="M135 877v155h227v309l173 109v-418h374v-155h-374v-529q0 -209 178 -209q70 0 129.5 27.5t124.5 95.5l63 -145q-70 -70 -145 -101.5t-172 -31.5q-171 0 -261 90t-90 268v535h-227zM1008 942v508h231l-127 -508h-104z" />
    <glyph glyph-name="Tbar" unicode="&#x166;" 
d="M170 803v155h375v304h-447v172h1073v-172h-446v-304h375v-155h-375v-803h-180v803h-375z" />
    <glyph glyph-name="tbar" unicode="&#x167;" 
d="M227 530v140h183v207h-275v155h275v309l172 109v-418h503v-155h-503v-207h295v-140h-295v-182q0 -209 178 -209q70 0 129.5 27.5t124.5 95.5l63 -145q-70 -70 -145 -101.5t-172 -31.5q-171 0 -260.5 90t-89.5 268v188h-183z" />
    <glyph glyph-name="Utilde" unicode="&#x168;" 
d="M127 498v936h180v-949q0 -147 86 -238t242 -91t242 91t86 238v949h180v-936q0 -160 -68 -278t-182 -177t-258 -59t-258 59t-182 177t-68 278zM373 1602l-101 77q37 69 96 112.5t124 43.5q47 0 86 -13t62 -28t54.5 -28t65.5 -13q74 0 135 74l100 -80q-37 -68 -95.5 -111
t-123.5 -43q-47 0 -86 13t-62 28t-54.5 28t-65.5 13q-75 0 -135 -73z" />
    <glyph glyph-name="utilde" unicode="&#x169;" 
d="M211 313v719h172v-682q0 -211 190 -211q127 0 215.5 129.5t88.5 347.5v416h172v-1032h-172v190q-57 -92 -150.5 -149t-200.5 -57q-157 0 -236 87.5t-79 241.5zM373 1200l-101 78q37 69 96 112.5t124 43.5q47 0 86 -13t62 -28t54.5 -28t65.5 -13q75 0 135 73l100 -79
q-37 -68 -95.5 -111t-123.5 -43q-47 0 -86 13t-62 28t-54.5 28t-65.5 13q-74 0 -135 -74z" />
    <glyph glyph-name="Umacron" unicode="&#x16a;" 
d="M127 498v936h180v-949q0 -147 86 -238t242 -91t242 91t86 238v949h180v-936q0 -160 -68 -278t-182 -177t-258 -59t-258 59t-182 177t-68 278zM381 1655v155h510v-155h-510z" />
    <glyph glyph-name="umacron" unicode="&#x16b;" 
d="M211 313v719h172v-682q0 -211 190 -211q127 0 215.5 129.5t88.5 347.5v416h172v-1032h-172v190q-57 -92 -150.5 -149t-200.5 -57q-157 0 -236 87.5t-79 241.5zM381 1253v156h510v-156h-510z" />
    <glyph glyph-name="Ubreve" unicode="&#x16c;" 
d="M127 498v936h180v-949q0 -147 86 -238t242 -91t242 91t86 238v949h180v-936q0 -160 -68 -278t-182 -177t-258 -59t-258 59t-182 177t-68 278zM725 1835h137q0 -95 -64 -159t-163 -64q-96 0 -161.5 64.5t-65.5 158.5h137q0 -40 25 -66t65 -26q41 0 65.5 26t24.5 66z" />
    <glyph glyph-name="ubreve" unicode="&#x16d;" 
d="M211 313v719h172v-682q0 -211 190 -211q127 0 215.5 129.5t88.5 347.5v416h172v-1032h-172v190q-57 -92 -150.5 -149t-200.5 -57q-157 0 -236 87.5t-79 241.5zM725 1434h137q0 -95 -64 -159.5t-163 -64.5q-96 0 -161.5 65t-65.5 159h137q0 -40 25.5 -66.5t64.5 -26.5
q41 0 65.5 26.5t24.5 66.5z" />
    <glyph glyph-name="Uring" unicode="&#x16e;" 
d="M127 498v936h180v-949q0 -147 86 -238t242 -91t242 91t86 238v949h180v-936q0 -160 -68 -278t-182 -177t-258 -59t-258 59t-182 177t-68 278zM432 1739q0 86 58.5 145.5t144.5 59.5q88 0 145.5 -59t57.5 -146q0 -84 -57.5 -140.5t-145.5 -56.5q-86 0 -144.5 57t-58.5 140
zM547 1741q0 -38 25 -64t63 -26q39 0 63.5 25.5t24.5 64.5q0 40 -24.5 67t-63.5 27q-38 0 -63 -27t-25 -67z" />
    <glyph glyph-name="uring" unicode="&#x16f;" 
d="M211 313v719h172v-682q0 -211 190 -211q127 0 215.5 129.5t88.5 347.5v416h172v-1032h-172v190q-57 -92 -150.5 -149t-200.5 -57q-157 0 -236 87.5t-79 241.5zM432 1337q0 86 58.5 145.5t144.5 59.5q88 0 145.5 -59t57.5 -146q0 -84 -57 -140t-146 -56q-86 0 -144.5 56.5
t-58.5 139.5zM547 1339q0 -38 25 -64t63 -26q39 0 63.5 25.5t24.5 64.5q0 41 -24.5 68t-63.5 27q-38 0 -63 -27.5t-25 -67.5z" />
    <glyph glyph-name="Uhungarumlaut" unicode="&#x170;" 
d="M127 498v936h180v-949q0 -147 86 -238t242 -91t242 91t86 238v949h180v-936q0 -160 -68 -278t-182 -177t-258 -59t-258 59t-182 177t-68 278zM303 1548l139 295h248l-248 -295h-139zM692 1548l139 295h248l-248 -295h-139z" />
    <glyph glyph-name="uhungarumlaut" unicode="&#x171;" 
d="M211 313v719h172v-682q0 -211 190 -211q127 0 215.5 129.5t88.5 347.5v416h172v-1032h-172v190q-57 -92 -150.5 -149t-200.5 -57q-157 0 -236 87.5t-79 241.5zM313 1147l140 295h247l-247 -295h-140zM702 1147l140 295h248l-248 -295h-140z" />
    <glyph glyph-name="Uogonek" unicode="&#x172;" 
d="M127 498v936h180v-949q0 -147 86 -238t242 -91t242 91t86 238v949h180v-936q0 -199 -101.5 -329.5t-269.5 -168.5q-63 -55 -94 -95.5t-31 -76.5q0 -31 18.5 -48.5t49.5 -17.5q36 0 61 19t66 69l96 -73q-59 -82 -112.5 -118t-133.5 -36q-88 0 -141 48.5t-53 129.5
q0 48 29 95.5t83 87.5q-212 8 -347.5 144.5t-135.5 369.5z" />
    <glyph glyph-name="uogonek" unicode="&#x173;" 
d="M907 0h-30v190q-57 -92 -150.5 -149t-200.5 -57q-157 0 -236 87.5t-79 241.5v719h172v-682q0 -211 190 -211q127 0 215.5 129.5t88.5 347.5v416h172v-1032q-64 -55 -95.5 -95.5t-31.5 -76.5q0 -31 18 -48.5t49 -17.5q36 0 61 19t66 69l96 -73q-59 -83 -112 -118.5
t-133 -35.5q-88 0 -141.5 48.5t-53.5 129.5q0 52 35 104t100 95z" />
    <glyph glyph-name="Wcircumflex" unicode="&#x174;" 
d="M1020 1434h186l-137 -1434h-223l-211 842l-211 -842h-223l-138 1434h187l86 -1168l217 875h164l217 -875zM293 1561l315 335h54l315 -335h-178l-164 174l-164 -174h-178z" />
    <glyph glyph-name="wcircumflex" unicode="&#x175;" 
d="M1038 1032h176l-225 -1032h-155l-199 725l-199 -725h-155l-226 1032h176l142 -764l176 662h172l176 -662zM293 1159l315 336h54l315 -336h-178l-164 174l-164 -174h-178z" />
    <glyph glyph-name="Ycircumflex" unicode="&#x176;" 
d="M545 565l-461 869h199l352 -689l352 689h199l-461 -869v-565h-180v565zM293 1561l315 335h54l315 -335h-178l-164 174l-164 -174h-178z" />
    <glyph glyph-name="ycircumflex" unicode="&#x177;" 
d="M991 1032h187l-613 -1450h-172l201 488l-447 962h193l346 -756zM344 1159l315 336h54l315 -336h-178l-164 174l-164 -174h-178z" />
    <glyph glyph-name="Ydieresis" unicode="&#x178;" 
d="M545 565l-461 869h199l352 -689l352 689h199l-461 -869v-565h-180v565zM332 1735q0 49 33 82.5t81 33.5q51 0 84 -33t33 -83t-33 -82.5t-84 -32.5q-48 0 -81 33t-33 82zM709 1735q0 49 33 82.5t81 33.5q51 0 84 -33t33 -83t-33 -82.5t-84 -32.5q-48 0 -81 33t-33 82z" />
    <glyph glyph-name="Zacute" unicode="&#x179;" 
d="M178 1262v172h934v-86l-702 -1176h725v-172h-985v86l702 1176h-674zM477 1548l137 295h248l-250 -295h-135z" />
    <glyph glyph-name="zacute" unicode="&#x17a;" 
d="M252 877v155h774v-74l-547 -802h572v-156h-826v74l541 803h-514zM496 1147l137 295h248l-250 -295h-135z" />
    <glyph glyph-name="Zdotaccent" unicode="&#x17b;" 
d="M178 1262v172h934v-86l-702 -1176h725v-172h-985v86l702 1176h-674zM496 1708q0 60 41 101.5t100 41.5q60 0 100.5 -41.5t40.5 -101.5q0 -59 -40.5 -99t-100.5 -40q-59 0 -100 40.5t-41 98.5z" />
    <glyph glyph-name="zdotaccent" unicode="&#x17c;" 
d="M252 877v155h774v-74l-547 -802h572v-156h-826v74l541 803h-514zM506 1307q0 60 41 101.5t100 41.5q60 0 100.5 -41.5t40.5 -101.5q0 -59 -40.5 -99.5t-100.5 -40.5q-59 0 -100 41t-41 99z" />
    <glyph glyph-name="Zcaron" unicode="&#x17d;" 
d="M158 1262v172h934v-86l-703 -1176h725v-172h-985v86l702 1176h-673zM600 1561l-315 335h178l164 -174l164 174h178l-316 -335h-53z" />
    <glyph glyph-name="zcaron" unicode="&#x17e;" 
d="M252 877v155h774v-74l-547 -802h572v-156h-826v74l541 803h-514zM618 1159l-315 336h178l164 -174l164 174h178l-315 -336h-54z" />
    <glyph glyph-name="longs" unicode="&#x17f;" 
d="M1018 1391l-43 -152q-85 55 -166 55q-152 0 -152 -194v-1100h-172v877h-290v155h290v64q0 354 318 354q119 0 215 -59z" />
    <glyph glyph-name="uni018E" unicode="&#x18e;" 
d="M1083 0h-909v172h729v412h-627v172h627v506h-749v172h929v-1434z" />
    <glyph glyph-name="uni018F" unicode="&#x18f;" 
d="M131 481v72h807q-8 154 -94.5 247t-222.5 93q-221 0 -332 -205l-137 72q81 155 198 222t271 67q147 0 260.5 -70.5t173 -191.5t59.5 -271q0 -147 -58 -267t-171.5 -192.5t-263.5 -72.5q-116 0 -210.5 39.5t-155 108t-92.5 158t-32 191.5zM621 139q122 0 200 69t105 189
h-613q23 -124 103 -191t205 -67z" />
    <glyph glyph-name="florin" unicode="&#x192;" 
d="M16 -375l74 152q67 -56 154 -56q150 0 190 195l187 961h-291l30 155h291l13 64q38 195 129.5 274.5t242.5 79.5q132 0 217 -59l-73 -152q-66 55 -154 55q-151 0 -190 -194l-13 -68h402l-31 -155h-401l-187 -957q-38 -195 -130 -274.5t-243 -79.5q-132 0 -217 59z" />
    <glyph glyph-name="uni01B5" unicode="&#x1b5;" 
d="M178 1262v172h934v-86l-317 -531h258v-155h-353l-290 -490h725v-172h-985v86l344 576h-275v155h367l266 445h-674z" />
    <glyph glyph-name="uni01B6" unicode="&#x1b6;" 
d="M252 877v155h774v-74l-238 -348h191v-139h-287l-213 -315h572v-156h-826v74l267 397h-191v139h285l180 267h-514z" />
    <glyph glyph-name="Aringacute" unicode="&#x1fa;" 
d="M549 1434h172l510 -1434h-187l-129 383h-561l-129 -383h-186zM635 1200l-221 -645h442zM432 1686q0 86 58.5 145t144.5 59q88 0 145.5 -58.5t57.5 -145.5q0 -84 -57.5 -140.5t-145.5 -56.5q-86 0 -144.5 57t-58.5 140zM547 1688q0 -39 25 -65t63 -26q39 0 63.5 26
t24.5 65q0 40 -24.5 67t-63.5 27q-38 0 -63 -27t-25 -67zM508 1962l137 295h248l-250 -295h-135z" />
    <glyph glyph-name="aringacute" unicode="&#x1fb;" 
d="M403 297q0 -73 46.5 -115.5t123.5 -42.5q42 0 85.5 10t88 34.5t79 59.5t56 90t21.5 122v32h-225q-131 0 -203 -50.5t-72 -139.5zM1075 651v-651h-139l-25 145q-50 -71 -150 -116t-214 -45q-137 0 -228.5 81t-91.5 232q0 167 124 252.5t343 85.5h209v45q0 112 -66.5 162.5
t-170.5 50.5q-88 0 -153 -49t-91 -127l-152 41q35 133 144 212t252 79q191 0 300 -96.5t109 -301.5zM471 1337q0 86 58.5 145.5t144.5 59.5q88 0 145.5 -59t57.5 -146q0 -84 -57 -140t-146 -56q-86 0 -144.5 56.5t-58.5 139.5zM586 1339q0 -38 25 -64t63 -26q39 0 63.5 25.5
t24.5 64.5q0 41 -24.5 68t-63.5 27q-38 0 -63 -27.5t-25 -67.5zM545 1610l137 295h248l-250 -295h-135z" />
    <glyph glyph-name="AEacute" unicode="&#x1fc;" 
d="M375 1434h803v-172h-422v-412h340v-172h-340v-506h442v-172h-623v383h-311l-106 -383h-181zM479 1200l-174 -645h270v645h-96zM600 1548l137 295h248l-250 -295h-135z" />
    <glyph glyph-name="aeacute" unicode="&#x1fd;" 
d="M1243 582v-103h-495q0 -161 42 -250.5t119 -89.5q66 0 105.5 48.5t68.5 154.5l148 -43q-46 -160 -121.5 -237.5t-200.5 -77.5q-90 0 -152.5 50.5t-90.5 133.5q-38 -86 -113.5 -135t-181.5 -49q-134 0 -215.5 81t-81.5 230q0 164 106.5 252t278.5 88h112v65
q0 87 -36.5 140t-102.5 53q-65 0 -107 -46t-57 -130l-151 41q15 124 101 207.5t212 83.5q182 0 240 -156q38 72 106.5 114t145.5 42q154 0 237.5 -121.5t83.5 -345.5zM250 301q0 -74 37 -118t100 -44q93 0 138.5 77.5t45.5 191.5v79h-90q-113 0 -172 -47.5t-59 -138.5z
M909 893q-70 0 -115.5 -70.5t-45.5 -187.5h323q0 111 -43 184.5t-119 73.5zM539 1147l137 295h248l-250 -295h-135z" />
    <glyph glyph-name="circumflex" unicode="&#x2c6;" 
d="M293 1159l315 336h54l315 -336h-178l-164 174l-164 -174h-178z" />
    <glyph glyph-name="caron" unicode="&#x2c7;" 
d="M608 1159l-315 336h178l164 -174l164 174h178l-315 -336h-54z" />
    <glyph glyph-name="breve" unicode="&#x2d8;" 
d="M725 1434h137q0 -95 -64 -159.5t-163 -64.5q-96 0 -161.5 65t-65.5 159h137q0 -40 25.5 -66.5t64.5 -26.5q41 0 65.5 26.5t24.5 66.5z" />
    <glyph glyph-name="dotaccent" unicode="&#x2d9;" 
d="M494 1307q0 60 41 101.5t100 41.5q60 0 100.5 -41.5t40.5 -101.5q0 -59 -40.5 -99.5t-100.5 -40.5q-59 0 -100 41t-41 99z" />
    <glyph glyph-name="ring" unicode="&#x2da;" 
d="M432 1337q0 86 58.5 145.5t144.5 59.5q88 0 145.5 -59t57.5 -146q0 -84 -57 -140t-146 -56q-86 0 -144.5 56.5t-58.5 139.5zM547 1339q0 -38 25 -64t63 -26q39 0 63.5 25.5t24.5 64.5q0 41 -24.5 68t-63.5 27q-38 0 -63 -27.5t-25 -67.5z" />
    <glyph glyph-name="ogonek" unicode="&#x2db;" 
d="M549 0h141q-64 -55 -95.5 -95.5t-31.5 -76.5q0 -31 18.5 -48.5t49.5 -17.5q36 0 61 19t66 69l96 -73q-59 -82 -112.5 -118t-133.5 -36q-88 0 -141 48.5t-53 129.5q0 52 35 104t100 95z" />
    <glyph glyph-name="tilde" unicode="&#x2dc;" 
d="M373 1200l-101 78q37 69 96 112.5t124 43.5q47 0 86 -13t62 -28t54.5 -28t65.5 -13q75 0 135 73l100 -79q-37 -68 -95.5 -111t-123.5 -43q-47 0 -86 13t-62 28t-54.5 28t-65.5 13q-74 0 -135 -74z" />
    <glyph glyph-name="hungarumlaut" unicode="&#x2dd;" 
d="M246 1147l139 295h248l-248 -295h-139zM635 1147l139 295h248l-248 -295h-139z" />
    <glyph glyph-name="pi" unicode="&#x3c0;" 
d="M94 877v155h1082v-155h-181v-877h-172v877h-377v-877h-172v877h-180z" />
    <glyph glyph-name="uni0400" unicode="&#x400;" 
d="M186 1434h910v-172h-729v-412h626v-172h-626v-506h749v-172h-930v1434zM643 1843l137 -295h-135l-250 295h248z" />
    <glyph glyph-name="uni0401" unicode="&#x401;" 
d="M186 1434h910v-172h-729v-412h626v-172h-626v-506h749v-172h-930v1434zM340 1735q0 49 33.5 82.5t81.5 33.5q51 0 83.5 -33t32.5 -83t-32.5 -82.5t-83.5 -32.5q-48 0 -81.5 33t-33.5 82zM717 1735q0 49 33 82.5t81 33.5q51 0 84 -33t33 -83t-33 -82.5t-84 -32.5
q-48 0 -81 33t-33 82z" />
    <glyph glyph-name="uni0402" unicode="&#x402;" 
d="M770 -16l-57 163q147 50 211.5 135.5t64.5 237.5v156q0 113 -41.5 165t-130.5 52q-122 0 -204.5 -123.5t-82.5 -337.5v-432h-180v1262h-280v172h856v-172h-396v-410q49 86 139.5 141.5t194.5 55.5q152 0 224.5 -84t72.5 -226v-264q0 -87 -22.5 -162t-60 -128t-89 -94.5
t-105.5 -66.5t-114 -40z" />
    <glyph glyph-name="uni0403" unicode="&#x403;" 
d="M242 0v1434h874v-172h-694v-1262h-180zM545 1548l137 295h248l-250 -295h-135z" />
    <glyph glyph-name="uni0404" unicode="&#x404;" 
d="M870 803v-172h-579q26 -475 381 -475q133 0 219.5 78t134.5 237l166 -51q-49 -198 -184 -317t-336 -119q-123 0 -225.5 45.5t-179.5 134.5t-120 230t-43 323t43 323t120 230t179.5 134.5t225.5 45.5q201 0 336 -119t184 -317l-166 -51q-48 159 -134.5 237t-219.5 78
q-355 0 -381 -475h579z" />
    <glyph glyph-name="uni0405" unicode="&#x405;" 
d="M1098 1143l-158 -80q-93 215 -291 215q-120 0 -189 -58t-69 -163q0 -28 6 -52.5t20 -44t28.5 -35t40.5 -30t48 -24.5t57.5 -21t62 -18.5t69.5 -18.5q64 -17 107 -30.5t95 -35.5t85 -48.5t62.5 -63t43.5 -85.5t14 -110q0 -227 -128.5 -341.5t-346.5 -114.5
q-208 0 -351 110t-183 316l168 65q84 -319 366 -319q135 0 215 66.5t80 193.5q0 32 -7.5 57.5t-18.5 44.5t-35 36t-45 28t-61.5 24t-71 21t-86.5 22q-53 13 -87.5 23t-82.5 28.5t-79 38t-65 50t-54 66.5t-33 86t-13 110q0 176 116.5 287.5t321.5 111.5q174 0 287.5 -88
t161.5 -219z" />
    <glyph glyph-name="uni0406" unicode="&#x406;" 
d="M1071 0h-872v156h346v1122h-346v156h872v-156h-346v-1122h346v-156z" />
    <glyph glyph-name="uni0407" unicode="&#x407;" 
d="M1071 0h-872v156h346v1122h-346v156h872v-156h-346v-1122h346v-156zM334 1735q0 49 33.5 82.5t81.5 33.5q51 0 83.5 -33t32.5 -83t-32.5 -82.5t-83.5 -32.5q-48 0 -81.5 33t-33.5 82zM711 1735q0 49 33 82.5t81 33.5q51 0 84 -33t33 -83t-33 -82.5t-84 -32.5
q-48 0 -81 33t-33 82z" />
    <glyph glyph-name="uni0408" unicode="&#x408;" 
d="M856 455v979h180v-975q0 -118 -33.5 -209.5t-93.5 -149t-139.5 -87t-173.5 -29.5q-186 0 -303 110.5t-143 278.5l182 39q25 -120 93 -188t171 -68q122 0 191 74t69 225z" />
    <glyph glyph-name="uni0409" unicode="&#x409;" 
d="M416 1262l-51 -918q-3 -66 -12.5 -114.5t-31.5 -94t-57.5 -73.5t-92.5 -45t-134 -17v172q89 0 121 40.5t37 137.5l53 1084h547v-584h57q169 0 275 -110t106 -314q0 -205 -105.5 -315.5t-275.5 -110.5h-238v1262h-198zM795 678v-506h43q209 0 209 254q0 252 -209 252h-43z
" />
    <glyph glyph-name="uni040A" unicode="&#x40a;" 
d="M299 1434v-586h303v586h180v-586h58q170 0 275.5 -109t105.5 -313q0 -205 -105.5 -315.5t-275.5 -110.5h-238v676h-303v-676h-180v1434h180zM782 676v-504h43q209 0 209 254q0 129 -52.5 189.5t-156.5 60.5h-43z" />
    <glyph glyph-name="uni040B" unicode="&#x40b;" 
d="M1161 0h-172v676q0 113 -41.5 165t-130.5 52q-122 0 -204.5 -123.5t-82.5 -337.5v-432h-180v1262h-280v172h856v-172h-396v-410q49 86 139.5 141.5t194.5 55.5q152 0 224.5 -84t72.5 -226v-739z" />
    <glyph glyph-name="uni040C" unicode="&#x40c;" 
d="M1210 0h-229l-600 719v-719h-180v1434h180v-576l549 576h235l-618 -646zM520 1548l137 295h248l-250 -295h-135z" />
    <glyph glyph-name="uni040D" unicode="&#x40d;" 
d="M145 1434h181v-1106l600 1106h196v-1434h-180v1106l-600 -1106h-197v1434zM629 1843l137 -295h-135l-250 295h248z" />
    <glyph glyph-name="uni040E" unicode="&#x40e;" 
d="M991 1434h187l-613 -1450h-172l201 487l-447 963h193l346 -756zM776 1835h137q0 -95 -64 -159t-163 -64q-96 0 -161.5 64.5t-65.5 158.5h137q0 -40 25 -66t65 -26q41 0 65.5 26t24.5 66z" />
    <glyph glyph-name="uni040F" unicode="&#x40f;" 
d="M545 0h-377v1434h180v-1262h574v1262h180v-1434h-377v-254h-180v254z" />
    <glyph glyph-name="uni0410" unicode="&#x410;" 
d="M549 1434h172l510 -1434h-187l-129 383h-561l-129 -383h-186zM635 1200l-221 -645h442z" />
    <glyph glyph-name="uni0411" unicode="&#x411;" 
d="M377 850h356q209 0 328 -113t119 -311q0 -199 -119 -312.5t-328 -113.5h-536v1434h837v-172h-657v-412zM377 678v-506h330q144 0 215 61.5t71 192.5q0 129 -71 190.5t-215 61.5h-330z" />
    <glyph glyph-name="uni0412" unicode="&#x412;" 
d="M197 1434h503q192 0 300 -96.5t108 -272.5q0 -91 -46.5 -166.5t-117.5 -114.5q107 -43 171.5 -136t64.5 -222q0 -199 -119 -312.5t-328 -113.5h-536v1434zM377 678v-506h330q144 0 215 61.5t71 192.5q0 129 -71 190.5t-215 61.5h-330zM696 1262h-319v-412h319
q104 0 165 52t61 153t-61.5 154t-164.5 53z" />
    <glyph glyph-name="uni0413" unicode="&#x413;" 
d="M242 0v1434h874v-172h-694v-1262h-180z" />
    <glyph glyph-name="uni0414" unicode="&#x414;" 
d="M137 -254l-24 426h69l158 1262h776v-1262h90l-24 -426h-172v254h-701v-254h-172zM936 1262h-434l-131 -1090h565v1090z" />
    <glyph glyph-name="uni0415" unicode="&#x415;" 
d="M186 1434h910v-172h-729v-412h626v-172h-626v-506h749v-172h-930v1434z" />
    <glyph glyph-name="uni0416" unicode="&#x416;" 
d="M1260 0h-187l-348 719v-719h-180v719l-348 -719h-187l389 788l-342 646h195l293 -576v576h180v-576l293 576h194l-342 -646z" />
    <glyph glyph-name="uni0417" unicode="&#x417;" 
d="M164 393l172 23q19 -130 90.5 -199.5t194.5 -69.5q128 0 207 80t79 224q0 145 -78 224t-208 79q-69 0 -127 -27l-72 96l326 447h-517v164h779v-56l-365 -493q18 6 57 6q166 0 273.5 -122t107.5 -318q0 -206 -129 -336.5t-333 -130.5q-181 0 -310 112t-147 297z" />
    <glyph glyph-name="uni0418" unicode="&#x418;" 
d="M145 1434h181v-1106l600 1106h196v-1434h-180v1106l-600 -1106h-197v1434z" />
    <glyph glyph-name="uni0419" unicode="&#x419;" 
d="M145 1434h181v-1106l600 1106h196v-1434h-180v1106l-600 -1106h-197v1434zM725 1835h137q0 -95 -64 -159t-163 -64q-96 0 -161.5 64.5t-65.5 158.5h137q0 -40 25 -66t65 -26q41 0 65.5 26t24.5 66z" />
    <glyph glyph-name="uni041A" unicode="&#x41a;" 
d="M1210 0h-229l-600 719v-719h-180v1434h180v-576l549 576h235l-618 -646z" />
    <glyph glyph-name="uni041B" unicode="&#x41b;" 
d="M248 387l63 1047h832v-1434h-180v1262h-484l-53 -881q-11 -190 -103.5 -285.5t-285.5 -95.5v172q105 0 154.5 44.5t56.5 170.5z" />
    <glyph glyph-name="uni041C" unicode="&#x41c;" 
d="M137 1434h193l305 -795l305 795h193v-1434h-181v1051l-250 -639h-135l-250 639v-1051h-180v1434z" />
    <glyph glyph-name="uni041D" unicode="&#x41d;" 
d="M950 1434h180v-1434h-180v676h-631v-676h-180v1434h180v-586h631v586z" />
    <glyph glyph-name="uni041E" unicode="&#x41e;" 
d="M635 1450q118 0 218.5 -46t176.5 -135t119 -230.5t43 -321.5t-43 -321.5t-119 -230.5t-176.5 -135t-218.5 -46t-218.5 46t-176.5 135t-119 230.5t-43 321.5t43 321.5t119 230.5t176.5 135t218.5 46zM635 1278q-170 0 -270.5 -136t-100.5 -425t100.5 -425t270.5 -136
t270.5 136t100.5 425t-100.5 425t-270.5 136z" />
    <glyph glyph-name="uni041F" unicode="&#x41f;" 
d="M139 1434h991v-1434h-180v1262h-631v-1262h-180v1434z" />
    <glyph glyph-name="uni0420" unicode="&#x420;" 
d="M745 614h-362v-614h-180v1434h542q204 0 315 -110t111 -300t-111 -300t-315 -110zM741 786q119 0 181.5 60t62.5 178t-62.5 178t-181.5 60h-358v-476h358z" />
    <glyph glyph-name="uni0421" unicode="&#x421;" 
d="M1036 471l170 -51q-49 -199 -181.5 -317.5t-332.5 -118.5q-124 0 -230 45.5t-187.5 134t-128 230.5t-46.5 323t46.5 323t128 230.5t187.5 134t230 45.5q200 0 332.5 -118.5t181.5 -317.5l-170 -51q-48 160 -130 237.5t-214 77.5q-190 0 -297.5 -138.5t-107.5 -422.5
t107.5 -422.5t297.5 -138.5q132 0 214 77.5t130 237.5z" />
    <glyph glyph-name="uni0422" unicode="&#x422;" 
d="M98 1262v172h1073v-172h-446v-1262h-180v1262h-447z" />
    <glyph glyph-name="uni0423" unicode="&#x423;" 
d="M1016 1434h186l-637 -1450h-172l205 479l-475 971h192l373 -760z" />
    <glyph glyph-name="uni0424" unicode="&#x424;" 
d="M721 147v-147h-172v147q-137 0 -251.5 82.5t-177.5 213t-63 274.5t63 274.5t177.5 212.5t251.5 82v148h172v-148q103 0 195.5 -48.5t156.5 -127.5t101.5 -182t37.5 -211t-37.5 -211t-101.5 -182.5t-156.5 -128t-195.5 -48.5zM1036 717q0 110 -35.5 202.5t-108.5 151.5
t-171 59v-827q98 0 171 59.5t108.5 152t35.5 202.5zM549 303v827q-98 0 -171 -59t-109 -151.5t-36 -202.5t36 -202.5t109 -152t171 -59.5z" />
    <glyph glyph-name="uni0425" unicode="&#x425;" 
d="M143 1434h207l285 -488l285 488h206l-389 -664l453 -770h-207l-348 594l-348 -594h-207l452 770z" />
    <glyph glyph-name="uni0426" unicode="&#x426;" 
d="M948 0h-825v1434h180v-1262h571v1262h181v-1262h90l-25 -426h-172v254z" />
    <glyph glyph-name="uni0427" unicode="&#x427;" 
d="M920 0v514q-155 -113 -342 -113q-190 0 -303 114.5t-113 348.5v570h180v-539q0 -171 71 -246.5t203 -75.5q173 0 304 148v713h180v-1434h-180z" />
    <glyph glyph-name="uni0428" unicode="&#x428;" 
d="M1147 0h-1024v1434h180v-1262h242v1262h180v-1262h242v1262h180v-1434z" />
    <glyph glyph-name="uni0429" unicode="&#x429;" 
d="M1040 0h-917v1434h180v-1262h242v1262h180v-1262h242v1262h180v-1262h90l-25 -426h-172v254z" />
    <glyph glyph-name="uni042A" unicode="&#x42a;" 
d="M20 1262v172h424v-584h289q209 0 328 -113t119 -311q0 -199 -119 -312.5t-328 -113.5h-469v1262h-244zM444 678v-506h263q144 0 215 61.5t71 192.5q0 129 -71 190.5t-215 61.5h-263z" />
    <glyph glyph-name="uni042B" unicode="&#x42b;" 
d="M301 678v-506h107q144 0 215 61.5t71 192.5q0 129 -71 190.5t-215 61.5h-107zM301 850h133q209 0 328 -113t119 -311q0 -199 -119 -312.5t-328 -113.5h-313v1434h180v-584zM991 0v1434h172v-1434h-172z" />
    <glyph glyph-name="uni042C" unicode="&#x42c;" 
d="M301 678v-506h309q144 0 215.5 61.5t71.5 192.5q0 129 -71.5 190.5t-215.5 61.5h-309zM301 850h336q209 0 327.5 -113t118.5 -311q0 -200 -118.5 -313t-327.5 -113h-516v1434h180v-584z" />
    <glyph glyph-name="uni042D" unicode="&#x42d;" 
d="M426 631v172h580q-29 475 -381 475q-134 0 -220.5 -78.5t-134.5 -236.5l-166 51q49 198 184.5 317t336.5 119q123 0 225.5 -45.5t179 -134.5t119.5 -230t43 -323t-43 -323t-119.5 -230t-179 -134.5t-225.5 -45.5q-201 0 -336.5 119t-184.5 317l166 51
q48 -158 134.5 -236.5t220.5 -78.5q352 0 381 475h-580z" />
    <glyph glyph-name="uni042E" unicode="&#x42e;" 
d="M797 1450q91 0 167.5 -44.5t134.5 -132t91 -230t33 -326.5t-33 -326.5t-91 -230t-134.5 -132t-167.5 -44.5q-176 0 -293 164t-131 483h-135v-631h-181v1434h181v-631h135q14 319 131 483t293 164zM797 1278q-108 0 -174 -136.5t-66 -424.5t66 -424.5t174 -136.5
t173.5 136.5t65.5 424.5t-65.5 424.5t-173.5 136.5z" />
    <glyph glyph-name="uni042F" unicode="&#x42f;" 
d="M674 676l-420 -676h-213l428 688q-144 30 -221.5 121.5t-77.5 245.5q0 186 113 282.5t309 96.5h502v-1434h-181v676h-239zM913 1262h-325q-232 0 -232 -207t232 -207h325v414z" />
    <glyph glyph-name="uni0430" unicode="&#x430;" 
d="M403 297q0 -73 46.5 -115.5t123.5 -42.5q42 0 85.5 10t88 34.5t79 59.5t56 90t21.5 122v32h-225q-131 0 -203 -50.5t-72 -139.5zM1075 651v-651h-139l-25 145q-50 -71 -150 -116t-214 -45q-137 0 -228.5 81t-91.5 232q0 167 124 252.5t343 85.5h209v45q0 112 -66.5 162.5
t-170.5 50.5q-88 0 -153 -49t-91 -127l-152 41q35 133 144 212t252 79q191 0 300 -96.5t109 -301.5z" />
    <glyph glyph-name="uni0431" unicode="&#x431;" 
d="M123 635q0 170 24.5 304.5t69 226.5t109.5 152.5t143.5 88t173.5 27.5h127q71 0 103 20.5t47 75.5h112q0 -129 -65 -190.5t-174 -61.5h-158q-144 0 -232 -105.5t-96 -273.5q146 150 367 150q136 0 245 -74.5t166.5 -195.5t57.5 -263q0 -146 -61 -266.5t-178.5 -193
t-270.5 -72.5q-236 0 -373 168.5t-137 482.5zM299 516q0 -102 37 -186t114.5 -137.5t182.5 -53.5t182.5 53.5t114.5 137.5t37 186t-37 186t-114.5 137.5t-182.5 53.5t-182.5 -53.5t-114.5 -137.5t-37 -186z" />
    <glyph glyph-name="uni0432" unicode="&#x432;" 
d="M184 1032h447q131 0 219 -69.5t88 -186.5q0 -137 -115 -211q71 -31 114.5 -95t43.5 -155q0 -137 -96.5 -226t-245.5 -89h-455v1032zM356 471v-315h267q182 0 182 157q0 158 -182 158h-267zM623 877h-267v-250h267q68 0 107.5 33t39.5 92t-39.5 92t-107.5 33z" />
    <glyph glyph-name="uni0433" unicode="&#x433;" 
d="M438 877v-877h-172v1032h709v-155h-537z" />
    <glyph glyph-name="uni0434" unicode="&#x434;" 
d="M940 -233v233h-621v-233h-151l-27 389h70l143 876h690v-876h70l-22 -389h-152zM481 877l-110 -721h501v721h-391z" />
    <glyph glyph-name="uni0435" unicode="&#x435;" 
d="M1139 551v-72h-807q8 -154 94.5 -247t222.5 -93q221 0 332 205l137 -72q-81 -155 -198 -221.5t-271 -66.5q-147 0 -260.5 70.5t-173 191t-59.5 270.5q0 109 34 206t96 169.5t156 115t207 42.5q93 0 173 -26t137.5 -71.5t98.5 -108.5t61 -137t20 -155zM649 893
q-122 0 -200 -69t-105 -189h612q-23 124 -102.5 191t-204.5 67z" />
    <glyph glyph-name="uni0436" unicode="&#x436;" 
d="M549 1032h172v-432l283 432h202l-317 -473l356 -559h-201l-323 518v-518h-172v518l-324 -518h-200l356 559l-318 473h203l283 -432v432z" />
    <glyph glyph-name="uni0437" unicode="&#x437;" 
d="M264 283l168 20q15 -75 64.5 -119.5t119.5 -44.5q78 0 129.5 50t51.5 133q0 93 -47 142.5t-132 49.5q-42 0 -79 -18l-86 106l194 275h-330v155h590v-57l-258 -340q20 4 39 4q131 0 204 -83.5t73 -233.5q0 -146 -100.5 -242t-248.5 -96q-142 0 -237.5 80.5t-114.5 218.5z
" />
    <glyph glyph-name="uni0438" unicode="&#x438;" 
d="M188 1032h172v-776l535 776h186v-1032h-172v776l-534 -776h-187v1032z" />
    <glyph glyph-name="uni0439" unicode="&#x439;" 
d="M188 1032h172v-776l535 776h186v-1032h-172v776l-534 -776h-187v1032zM725 1434h137q0 -95 -64 -159.5t-163 -64.5q-96 0 -161.5 65t-65.5 159h137q0 -40 25.5 -66.5t64.5 -26.5q41 0 65.5 26.5t24.5 66.5z" />
    <glyph glyph-name="uni043A" unicode="&#x43a;" 
d="M227 1032h172v-432l441 432h225l-481 -473l528 -559h-225l-488 518v-518h-172v1032z" />
    <glyph glyph-name="uni043B" unicode="&#x43b;" 
d="M289 344l67 688h754v-1032h-172v877h-438l-62 -596q-15 -143 -104.5 -212t-255.5 -69v156q104 0 153 44t58 144z" />
    <glyph glyph-name="uni043C" unicode="&#x43c;" 
d="M217 1032h186l230 -534l229 534h187v-1032h-172v731l-195 -448h-98l-195 448v-731h-172v1032z" />
    <glyph glyph-name="uni043D" unicode="&#x43d;" 
d="M881 1032h172v-1032h-172v471h-492v-471h-172v1032h172v-405h492v405z" />
    <glyph glyph-name="uni043E" unicode="&#x43e;" 
d="M127 516q0 107 35.5 203.5t99.5 170t161 116.5t212 43t212 -43t161 -116.5t99.5 -170t35.5 -203.5t-35.5 -203.5t-100 -169.5t-161 -116t-211.5 -43t-211.5 43t-161 116t-100 169.5t-35.5 203.5zM303 516q0 -157 90 -267t242 -110t242 110t90 267t-90 267t-242 110
t-242 -110t-90 -267z" />
    <glyph glyph-name="uni043F" unicode="&#x43f;" 
d="M217 1032h836v-1032h-172v877h-492v-877h-172v1032z" />
    <glyph glyph-name="uni0440" unicode="&#x440;" 
d="M1174 516q0 -241 -125.5 -386.5t-348.5 -145.5q-102 0 -185.5 42t-129.5 105v-549h-172v1450h172v-137q46 65 130.5 109.5t184.5 44.5q223 0 348.5 -146t125.5 -387zM997 516q0 169 -84 273t-229 104t-229 -104t-84 -273t84 -273t229 -104t229 104t84 273z" />
    <glyph glyph-name="uni0441" unicode="&#x441;" 
d="M963 330l149 -62q-63 -145 -169.5 -214.5t-266.5 -69.5q-115 0 -209.5 43.5t-156 117.5t-95 169.5t-33.5 201.5q0 143 56.5 262.5t171 195t266.5 75.5q159 0 266 -70t170 -215l-149 -62q-81 191 -287 191q-149 0 -233.5 -106t-84.5 -271t84.5 -271t233.5 -106
q206 0 287 191z" />
    <glyph glyph-name="uni0442" unicode="&#x442;" 
d="M170 877v155h930v-155h-379v-877h-172v877h-379z" />
    <glyph glyph-name="uni0443" unicode="&#x443;" 
d="M991 1032h187l-613 -1450h-172l201 488l-447 962h193l346 -756z" />
    <glyph glyph-name="uni0444" unicode="&#x444;" 
d="M721 -16v-402h-172v402q-145 0 -256.5 74t-169 194t-57.5 264t57.5 264.5t169 194.5t256.5 74v385h172v-385q145 0 256.5 -74t169 -194.5t57.5 -264.5t-57.5 -264t-169 -194t-256.5 -74zM1028 516q0 102 -33.5 186t-104.5 137.5t-169 53.5v-754q98 0 169 53.5
t104.5 137.5t33.5 186zM549 139v754q-98 0 -169 -53.5t-104.5 -137.5t-33.5 -186t33.5 -186t104.5 -137.5t169 -53.5z" />
    <glyph glyph-name="uni0445" unicode="&#x445;" 
d="M862 1032h203l-336 -485l375 -547h-195l-274 406l-275 -406h-194l375 547l-336 485h203l227 -342z" />
    <glyph glyph-name="uni0446" unicode="&#x446;" 
d="M1053 1032v-876h69l-22 -389h-152v233h-731v1032h172v-876h492v876h172z" />
    <glyph glyph-name="uni0447" unicode="&#x447;" 
d="M1085 0h-172v348q-67 -78 -165.5 -119t-215.5 -41q-141 0 -225 81.5t-84 244.5v518h172v-487q0 -101 47 -151t127 -50q96 0 190 55.5t154 153.5v479h172v-1032z" />
    <glyph glyph-name="uni0448" unicode="&#x448;" 
d="M549 156v876h172v-876h274v876h172v-1032h-1065v1032h172v-876h275z" />
    <glyph glyph-name="uni0449" unicode="&#x449;" 
d="M549 156v876h172v-876h274v876h172v-876h70l-23 -389h-151v233h-961v1032h172v-876h275z" />
    <glyph glyph-name="uni044A" unicode="&#x44a;" 
d="M106 877v155h375v-393h260q163 0 253.5 -86.5t90.5 -233.5t-90.5 -233t-253.5 -86h-432v877h-203zM698 483h-217v-327h217q114 0 164.5 37.5t50.5 125.5q0 87 -51 125.5t-164 38.5z" />
    <glyph glyph-name="uni044B" unicode="&#x44b;" 
d="M102 0v1032h172v-393h213q163 0 253.5 -86.5t90.5 -233.5t-90.5 -233t-253.5 -86h-385zM444 483h-170v-327h170q114 0 164.5 37.5t50.5 125.5q0 87 -51 125.5t-164 38.5zM948 0v1032h172v-1032h-172z" />
    <glyph glyph-name="uni044C" unicode="&#x44c;" 
d="M188 0v1032h172v-393h330q163 0 253.5 -86.5t90.5 -233.5t-90.5 -233t-253.5 -86h-502zM647 483h-287v-327h287q114 0 164.5 37.5t50.5 125.5q0 87 -51 125.5t-164 38.5z" />
    <glyph glyph-name="uni044D" unicode="&#x44d;" 
d="M465 438v156h489q-16 135 -92 217t-211 82q-104 0 -181.5 -50t-117.5 -141l-143 76q142 271 442 271q114 0 207.5 -44t153 -119t91.5 -170t32 -200t-32 -200t-91.5 -169.5t-153 -118.5t-207.5 -44q-301 0 -442 270l143 76q40 -91 117.5 -141t181.5 -50q135 0 211 82
t92 217h-489z" />
    <glyph glyph-name="uni044E" unicode="&#x44e;" 
d="M96 1032h172v-438h138q18 208 117.5 331.5t269.5 123.5q185 0 287 -147t102 -386q0 -156 -43.5 -275t-132.5 -188t-213 -69q-170 0 -269.5 123t-117.5 331h-138v-438h-172v1032zM580 516q0 -175 55.5 -276t157.5 -101t157.5 101t55.5 276t-55.5 276t-157.5 101
t-157.5 -101t-55.5 -276z" />
    <glyph glyph-name="uni044F" unicode="&#x44f;" 
d="M299 748q0 130 90.5 207t237.5 77h393v-1032h-172v463h-191l-264 -463h-174l283 475q-95 28 -149 99t-54 174zM621 618h227v259h-227q-75 0 -117.5 -32t-42.5 -97t42.5 -97.5t117.5 -32.5z" />
    <glyph glyph-name="uni0450" unicode="&#x450;" 
d="M1139 551v-72h-807q8 -154 94.5 -247t222.5 -93q221 0 332 205l137 -72q-81 -155 -198 -221.5t-271 -66.5q-147 0 -260.5 70.5t-173 191t-59.5 270.5q0 109 34 206t96 169.5t156 115t207 42.5q93 0 173 -26t137.5 -71.5t98.5 -108.5t61 -137t20 -155zM649 893
q-122 0 -200 -69t-105 -189h612q-23 124 -102.5 191t-204.5 67zM641 1442l137 -295h-135l-250 295h248z" />
    <glyph glyph-name="uni0451" unicode="&#x451;" 
d="M1139 551v-72h-807q8 -154 94.5 -247t222.5 -93q221 0 332 205l137 -72q-81 -155 -198 -221.5t-271 -66.5q-147 0 -260.5 70.5t-173 191t-59.5 270.5q0 109 34 206t96 169.5t156 115t207 42.5q93 0 173 -26t137.5 -71.5t98.5 -108.5t61 -137t20 -155zM649 893
q-122 0 -200 -69t-105 -189h612q-23 124 -102.5 191t-204.5 67zM346 1333q0 49 33.5 83t81.5 34q51 0 84 -33.5t33 -83.5t-33 -82t-84 -32q-48 0 -81.5 32.5t-33.5 81.5zM723 1333q0 49 33.5 83t81.5 34q51 0 83.5 -33.5t32.5 -83.5t-32.5 -82t-83.5 -32q-48 0 -81.5 32.5
t-33.5 81.5z" />
    <glyph glyph-name="uni0452" unicode="&#x452;" 
d="M76 1171v140h145v139h172v-139h283v-140h-283v-329q61 90 160.5 148.5t214.5 58.5q161 0 238 -88t77 -248v-656q0 -87 -22.5 -162t-60 -128t-89 -94.5t-105.5 -66.5t-114 -40l-57 164q147 50 211.5 135t64.5 237v574q0 217 -190 217q-130 0 -229 -125.5t-99 -335.5v-432
h-172v1171h-145z" />
    <glyph glyph-name="uni0453" unicode="&#x453;" 
d="M438 877v-877h-172v1032h709v-155h-537zM475 1147l137 295h248l-250 -295h-135z" />
    <glyph glyph-name="uni0454" unicode="&#x454;" 
d="M805 594v-156h-490q16 -135 92 -217t211 -82q104 0 182 50.5t118 140.5l143 -76q-141 -270 -443 -270q-114 0 -207.5 44t-152.5 118.5t-91 169.5t-32 200t32 200t91 170t152.5 119t207.5 44q301 0 443 -271l-143 -76q-40 90 -118 140.5t-182 50.5q-135 0 -211 -82
t-92 -217h490z" />
    <glyph glyph-name="uni0455" unicode="&#x455;" 
d="M631 1049q135 0 225.5 -57t151.5 -167l-136 -96q-47 86 -105.5 125t-141.5 39q-74 0 -126.5 -33.5t-52.5 -103.5q0 -63 58.5 -99t181.5 -61q66 -13 113.5 -26t99.5 -36t84 -51t53 -71t21 -97q0 -103 -55.5 -179.5t-145 -114t-197.5 -37.5q-160 0 -281 77.5t-167 221.5
l164 61q34 -97 107 -151t177 -54q94 0 157 41t63 119q0 26 -13 46.5t-33 35t-57 27.5t-72.5 22t-91.5 21q-59 13 -102.5 26t-89.5 36.5t-75 54t-47.5 77t-18.5 105.5q0 134 102.5 216.5t249.5 82.5z" />
    <glyph glyph-name="uni0456" unicode="&#x456;" 
d="M264 881v151h488v-880h381v-152h-910v152h357v729h-316zM512 1307q0 60 41 101.5t100 41.5q60 0 101 -41.5t41 -101.5q0 -59 -41 -99.5t-101 -40.5q-59 0 -100 41t-41 99z" />
    <glyph glyph-name="uni0457" unicode="&#x457;" 
d="M264 881v151h488v-880h381v-152h-910v152h357v729h-316zM305 1333q0 49 33.5 83t81.5 34q51 0 84 -33.5t33 -83.5t-33 -82t-84 -32q-48 0 -81.5 32.5t-33.5 81.5zM682 1333q0 49 33.5 83t81.5 34q51 0 83.5 -33.5t32.5 -83.5t-32.5 -82t-83.5 -32q-48 0 -81.5 32.5
t-33.5 81.5z" />
    <glyph glyph-name="uni0458" unicode="&#x458;" 
d="M494 -434l-58 164q147 50 212 135.5t65 236.5v779h-406v151h578v-975q0 -87 -22.5 -162t-60 -128t-89 -94.5t-105.5 -66.5t-114 -40zM645 1307q0 60 41 101.5t100 41.5q60 0 101 -41.5t41 -101.5q0 -59 -41 -99.5t-101 -40.5q-59 0 -100 41t-41 99z" />
    <glyph glyph-name="uni0459" unicode="&#x459;" 
d="M598 0v877h-192l-39 -619q-8 -131 -85 -194.5t-233 -63.5v156q89 0 126 41.5t42 124.5l41 710h512v-393h104q164 0 256.5 -86.5t92.5 -233.5q0 -146 -92.5 -232.5t-256.5 -86.5h-276zM836 483h-66v-327h66q114 0 164.5 37.5t50.5 125.5q0 87 -51 125.5t-164 38.5z" />
    <glyph glyph-name="uni045A" unicode="&#x45a;" 
d="M541 0v483h-308v-483h-172v1032h172v-393h308v393h172v-393h190q154 0 238 -86.5t84 -233.5t-84 -233t-238 -86h-362zM860 483h-147v-327h147q100 0 146.5 38.5t46.5 124.5q0 85 -46.5 124.5t-146.5 39.5z" />
    <glyph glyph-name="uni045B" unicode="&#x45b;" 
d="M76 1171v140h145v139h172v-139h283v-140h-283v-329q61 90 160.5 148.5t214.5 58.5q161 0 238 -88t77 -248v-713h-172v676q0 217 -190 217q-130 0 -229 -125.5t-99 -335.5v-432h-172v1171h-145z" />
    <glyph glyph-name="uni045C" unicode="&#x45c;" 
d="M227 1032h172v-432l441 432h225l-481 -473l528 -559h-225l-488 518v-518h-172v1032zM485 1147l138 295h247l-249 -295h-136z" />
    <glyph glyph-name="uni045D" unicode="&#x45d;" 
d="M188 1032h172v-776l535 776h186v-1032h-172v776l-534 -776h-187v1032zM625 1442l137 -295h-135l-250 295h248z" />
    <glyph glyph-name="uni045E" unicode="&#x45e;" 
d="M991 1032h187l-613 -1450h-172l201 488l-447 962h193l346 -756zM776 1434h137q0 -95 -64 -159.5t-163 -64.5q-96 0 -161.5 65t-65.5 159h137q0 -40 25.5 -66.5t64.5 -26.5q41 0 65.5 26.5t24.5 66.5z" />
    <glyph glyph-name="uni045F" unicode="&#x45f;" 
d="M555 -233v233h-338v1032h172v-876h492v876h172v-1032h-338v-233h-160z" />
    <glyph glyph-name="endash" unicode="&#x2013;" 
d="M215 573v152h838v-152h-838z" />
    <glyph glyph-name="emdash" unicode="&#x2014;" 
d="M133 573v152h1004v-152h-1004z" />
    <glyph glyph-name="quoteleft" unicode="&#x2018;" 
d="M668 1450l194 -508h-131l-321 508h258z" />
    <glyph glyph-name="quoteright" unicode="&#x2019;" 
d="M408 942l194 508h258l-321 -508h-131z" />
    <glyph glyph-name="quotesinglbase" unicode="&#x201a;" 
d="M412 -180l-33 39q81 63 143 140t66 140q-103 35 -103 127q0 53 35.5 89t91.5 36q60 0 98 -40.5t38 -102.5q0 -103 -100 -222.5t-236 -205.5z" />
    <glyph glyph-name="quotedblleft" unicode="&#x201c;" 
d="M889 1450l194 -508h-131l-321 508h258zM446 1450l195 -508h-131l-322 508h258z" />
    <glyph glyph-name="quotedblright" unicode="&#x201d;" 
d="M186 942l195 508h258l-322 -508h-131zM629 942l194 508h258l-321 -508h-131z" />
    <glyph glyph-name="quotedblbase" unicode="&#x201e;" 
d="M248 -180l-33 39q81 63 143 140t66 140q-102 34 -102 127q0 53 35.5 89t91.5 36q60 0 97.5 -40.5t37.5 -102.5q0 -103 -100 -222.5t-236 -205.5zM657 -180l-32 39q81 63 143 140t66 140q-103 35 -103 127q0 53 35.5 89t91.5 36q60 0 97.5 -40.5t37.5 -102.5
q0 -103 -100 -222.5t-236 -205.5z" />
    <glyph glyph-name="dagger" unicode="&#x2020;" 
d="M184 868v164h369v504h164v-504h368v-164h-368v-970h-164v970h-369z" />
    <glyph glyph-name="daggerdbl" unicode="&#x2021;" 
d="M184 868v164h369v504h164v-504h368v-164h-368v-303h368v-164h-368v-503h-164v503h-369v164h369v303h-369z" />
    <glyph glyph-name="bullet" unicode="&#x2022;" 
d="M408 676q0 95 66 161t161 66t161 -66t66 -161t-66 -161t-161 -66t-161 66t-66 161z" />
    <glyph glyph-name="ellipsis" unicode="&#x2026;" 
d="M61 152q0 70 46 118.5t114 48.5q71 0 119.5 -48.5t48.5 -118.5q0 -67 -48.5 -113.5t-119.5 -46.5q-67 0 -113.5 46t-46.5 114zM471 152q0 70 46 118.5t114 48.5q71 0 119.5 -48.5t48.5 -118.5q0 -67 -48.5 -113.5t-119.5 -46.5q-67 0 -113.5 46t-46.5 114zM881 152
q0 71 46 119t113 48q71 0 119.5 -48.5t48.5 -118.5q0 -67 -48.5 -113.5t-119.5 -46.5q-67 0 -113 46t-46 114z" />
    <glyph glyph-name="perthousand" unicode="&#x2030;" 
d="M1229 256q0 -114 -78 -193t-193 -79q-127 0 -210 96q-83 -96 -211 -96q-115 0 -193 79t-78 193t78 193t193 79q128 0 211 -96q83 96 210 96q115 0 193 -79t78 -193zM76 1178q0 114 78.5 193t193.5 79q116 0 194.5 -78.5t78.5 -193.5t-78.5 -194t-194.5 -79
q-115 0 -193.5 79.5t-78.5 193.5zM1104 256q0 66 -39.5 109t-106.5 43q-64 0 -105.5 -43.5t-41.5 -108.5t41.5 -108.5t105.5 -43.5q67 0 106.5 43t39.5 109zM201 1178q0 -66 40 -109t107 -43q66 0 106 43t40 109t-40 108.5t-106 42.5q-68 0 -107.5 -42.5t-39.5 -108.5z
M684 256q0 65 -41.5 108.5t-105.5 43.5q-67 0 -106.5 -43t-39.5 -109t39.5 -109t106.5 -43q64 0 105.5 43.5t41.5 108.5zM1130 1260l70 -99l-1038 -723l-70 99z" />
    <glyph glyph-name="guilsinglleft" unicode="&#x2039;" 
d="M324 571v127l602 408v-184l-428 -287l428 -287v-184z" />
    <glyph glyph-name="guilsinglright" unicode="&#x203a;" 
d="M946 698v-127l-602 -407v184l428 287l-428 287v184z" />
    <glyph glyph-name="fraction" unicode="&#x2044;" 
d="M1120 1124l70 -98l-1038 -723l-70 98z" />
    <glyph glyph-name="zerosuperior" unicode="&#x2070;" 
d="M623 729q-123 0 -196 96.5t-73 259.5t73 260t196 97t195.5 -97t72.5 -260t-72.5 -259.5t-195.5 -96.5zM768 1085q0 85 -23 146l-174 -369q27 -10 52 -10q68 0 106.5 58t38.5 175zM477 1085q0 -84 23 -145l174 369q-27 10 -51 10q-68 0 -107 -58.5t-39 -175.5z" />
    <glyph glyph-name="foursuperior" unicode="&#x2074;" 
d="M647 737v125h-307v56l285 516h149v-449h103v-123h-103v-125h-127zM506 985h141v268z" />
    <glyph glyph-name="fivesuperior" unicode="&#x2075;" 
d="M408 924l127 28q9 -46 37 -73t67 -27q47 0 73.5 29.5t26.5 85.5q0 118 -100 118q-65 0 -113 -51l-100 19l37 381h360v-123h-254l-18 -146q42 33 104 33q102 0 160.5 -58t58.5 -173q0 -114 -64 -176t-171 -62q-91 0 -155 51.5t-76 143.5z" />
    <glyph glyph-name="sixsuperior" unicode="&#x2076;" 
d="M635 1182q86 0 147.5 -58.5t61.5 -167.5q0 -95 -66.5 -161t-163.5 -66q-98 0 -164.5 65.5t-66.5 161.5q0 72 37 142l184 344h135l-139 -264q20 4 35 4zM614 1059q-44 0 -70 -26.5t-26 -76.5q0 -49 26.5 -76.5t69.5 -27.5q41 0 68 28t27 76q0 49 -26.5 76t-68.5 27z" />
    <glyph glyph-name="sevensuperior" unicode="&#x2077;" 
d="M633 737h-146l258 574h-317v123h494v-48z" />
    <glyph glyph-name="eightsuperior" unicode="&#x2078;" 
d="M633 1450q94 0 149.5 -51t55.5 -135q0 -50 -23.5 -88.5t-56.5 -57.5q100 -47 100 -172q0 -102 -61 -159.5t-164 -57.5t-164 57.5t-61 159.5q0 124 98 172q-32 20 -55 58t-23 88q0 84 56 135t149 51zM633 1047q-46 0 -70 -28t-24 -73t24 -72.5t70 -27.5t70 27.5t24 72.5
t-24 73t-70 28zM633 1339q-40 0 -61 -23t-21 -63t21 -63t61 -23t61 23t21 63t-21 63t-61 23z" />
    <glyph glyph-name="ninesuperior" unicode="&#x2079;" 
d="M616 989q-86 0 -147 58t-61 167q0 96 66 162t163 66q98 0 164.5 -66t66.5 -162q0 -71 -37 -141l-184 -344h-135l139 264q-20 -4 -35 -4zM637 1112q44 0 70 26t26 76q0 49 -26.5 77t-69.5 28q-41 0 -67.5 -28.5t-26.5 -76.5q0 -49 26 -75.5t68 -26.5z" />
    <glyph glyph-name="zeroinferior" unicode="&#x2080;" 
d="M623 -426q-123 0 -196 96.5t-73 259.5t73 260t196 97t195.5 -97t72.5 -260t-72.5 -259.5t-195.5 -96.5zM768 -70q0 85 -23 146l-174 -369q27 -10 52 -10q68 0 106.5 58t38.5 175zM477 -70q0 -84 23 -145l174 369q-27 10 -51 10q-68 0 -107 -58.5t-39 -175.5z" />
    <glyph glyph-name="oneinferior" unicode="&#x2081;" 
d="M408 -418v115h161v399l-153 -69v145l231 107h49v-582h162v-115h-450z" />
    <glyph glyph-name="twoinferior" unicode="&#x2082;" 
d="M535 61l-121 31q14 87 73.5 141t153.5 54q106 0 162.5 -56.5t56.5 -148.5q0 -102 -69 -186l-152 -191h238v-123h-461v51l258 318q28 35 39.5 61.5t11.5 67.5q0 36 -21.5 60t-62.5 24q-82 0 -106 -103z" />
    <glyph glyph-name="threeinferior" unicode="&#x2083;" 
d="M416 -215l131 31q6 -54 38 -86.5t79 -32.5q100 0 100 113q0 118 -100 118q-35 0 -68 -26l-59 84l135 170h-219v123h413v-48l-172 -213q99 0 152 -56t53 -152q0 -108 -64.5 -172t-170.5 -64q-103 0 -171.5 58.5t-76.5 152.5z" />
    <glyph glyph-name="fourinferior" unicode="&#x2084;" 
d="M647 -418v125h-307v55l285 517h149v-449h103v-123h-103v-125h-127zM506 -170h141v268z" />
    <glyph glyph-name="fiveinferior" unicode="&#x2085;" 
d="M408 -231l127 28q9 -46 37 -73t67 -27q47 0 73.5 29.5t26.5 85.5q0 118 -100 118q-65 0 -113 -51l-100 19l37 381h360v-123h-254l-18 -146q42 33 104 33q102 0 160.5 -58t58.5 -173q0 -114 -64 -176t-171 -62q-91 0 -155 51.5t-76 143.5z" />
    <glyph glyph-name="sixinferior" unicode="&#x2086;" 
d="M635 27q86 0 147.5 -58.5t61.5 -167.5q0 -95 -66.5 -161t-163.5 -66q-98 0 -164.5 65.5t-66.5 161.5q0 72 37 142l184 344h135l-139 -264q20 4 35 4zM614 -96q-44 0 -70 -26.5t-26 -76.5q0 -49 26.5 -76.5t69.5 -27.5q41 0 68 28t27 76q0 49 -26.5 76t-68.5 27z" />
    <glyph glyph-name="seveninferior" unicode="&#x2087;" 
d="M633 -418h-146l258 574h-317v123h494v-48z" />
    <glyph glyph-name="eightinferior" unicode="&#x2088;" 
d="M633 295q94 0 149.5 -51t55.5 -135q0 -50 -23.5 -88.5t-56.5 -57.5q100 -47 100 -172q0 -102 -61 -159.5t-164 -57.5t-164 57.5t-61 159.5q0 124 98 172q-32 20 -55 58t-23 88q0 84 56 135t149 51zM633 -109q-46 0 -70 -27.5t-24 -72.5t24 -72.5t70 -27.5t70 27.5
t24 72.5t-24 72.5t-70 27.5zM633 184q-40 0 -61 -23t-21 -63t21 -63t61 -23t61 23t21 63t-21 63t-61 23z" />
    <glyph glyph-name="nineinferior" unicode="&#x2089;" 
d="M616 -166q-86 0 -147 58t-61 167q0 95 66 161.5t163 66.5q98 0 164.5 -66t66.5 -162q0 -71 -37 -141l-184 -344h-135l139 264q-20 -4 -35 -4zM637 -43q44 0 70 26t26 76q0 49 -26.5 77t-69.5 28q-41 0 -67.5 -28.5t-26.5 -76.5q0 -49 26 -75.5t68 -26.5z" />
    <glyph glyph-name="Euro" unicode="&#x20ac;" 
d="M104 805l70 151h105q45 234 174 364t329 130q290 0 414 -262l-152 -82q-88 180 -262 180q-124 0 -206.5 -84.5t-116.5 -245.5h518l-70 -151h-467q-2 -29 -2 -88t2 -88h537l-70 -152h-448q34 -161 116.5 -245.5t206.5 -84.5q174 0 262 181l152 -82q-124 -262 -414 -262
q-200 0 -329 129.5t-174 363.5h-175l70 152h86q-2 29 -2 88t2 88h-156z" />
    <glyph glyph-name="trademark" unicode="&#x2122;" 
d="M25 1315v119h507v-119h-190v-701h-127v701h-190zM627 1434h137l158 -424l157 424h142v-820h-131v572l-129 -336h-78l-129 336v-572h-127v820z" />
    <glyph glyph-name="Omega" unicode="&#x2126;" 
d="M98 0v156h277q-9 15 -24 43t-54 113t-68.5 169t-54 200.5t-24.5 219.5q0 253 125.5 401t359.5 148t359.5 -148t125.5 -401q0 -103 -23 -217.5t-56 -204.5t-66.5 -165.5t-56.5 -116.5l-23 -41h276v-156h-462v47q9 18 25 49.5t55.5 128.5t70 193.5t55.5 230t25 252.5
q0 190 -77 291.5t-228 101.5t-228 -101.5t-77 -291.5q0 -119 24 -250.5t58 -234.5t67.5 -189t57.5 -133l24 -47v-47h-463z" />
    <glyph glyph-name="onethird" unicode="&#x2153;" 
d="M1120 1124l70 -98l-1038 -723l-70 98zM59 754v114h162v400l-153 -70v145l231 107h49v-582h162v-114h-451zM750 203l131 30q6 -54 37.5 -86t78.5 -32q50 0 75.5 29t25.5 83q0 119 -101 119q-32 0 -67 -27l-60 84l136 170h-220v123h414v-47l-172 -213q99 0 152 -56.5
t53 -152.5q0 -108 -64.5 -171.5t-171.5 -63.5q-103 0 -171 58.5t-76 152.5z" />
    <glyph glyph-name="twothirds" unicode="&#x2154;" 
d="M1120 1124l70 -98l-1038 -723l-70 98zM160 1233l-121 31q14 86 73.5 140t153.5 54q106 0 162.5 -56.5t56.5 -148.5q0 -102 -69 -186l-152 -190h238v-123h-461v51l258 317q28 35 39.5 61.5t11.5 67.5q0 36 -21.5 60t-62.5 24t-68 -27t-38 -75zM754 203l131 30
q6 -54 37.5 -86t78.5 -32q50 0 75.5 29t25.5 83q0 119 -101 119q-32 0 -67 -27l-60 84l136 170h-219v123h413v-47l-172 -213q99 0 152 -56.5t53 -152.5q0 -108 -64.5 -171.5t-171.5 -63.5q-103 0 -171 58.5t-76 152.5z" />
    <glyph glyph-name="oneeighth" unicode="&#x215b;" 
d="M1120 1124l70 -98l-1038 -723l-70 98zM59 754v114h162v400l-153 -70v145l231 107h49v-582h162v-114h-451zM961 713q94 0 149 -51.5t55 -135.5q0 -50 -23.5 -87.5t-56.5 -57.5q101 -48 101 -172q0 -102 -61 -159.5t-164 -57.5t-164.5 58t-61.5 159q0 123 99 172
q-32 20 -55 57.5t-23 87.5q0 84 56 135.5t149 51.5zM961 309q-46 0 -70.5 -28t-24.5 -72t24.5 -72t70.5 -28t70 27.5t24 72.5t-24 72.5t-70 27.5zM961 602q-40 0 -61 -23t-21 -63t21 -63t61 -23t60.5 23t20.5 63t-20.5 63t-60.5 23z" />
    <glyph glyph-name="threeeighths" unicode="&#x215c;" 
d="M1120 1124l70 -98l-1038 -723l-70 98zM68 956l131 31q6 -54 37.5 -86.5t78.5 -32.5q50 0 75.5 29.5t25.5 83.5q0 119 -101 119q-32 0 -67 -27l-60 84l136 170h-220v123h414v-47l-172 -213q99 0 152 -56.5t53 -152.5q0 -108 -65 -172t-171 -64q-103 0 -171 58.5t-76 152.5
zM961 713q94 0 149 -51.5t55 -135.5q0 -50 -23.5 -87.5t-56.5 -57.5q101 -48 101 -172q0 -102 -61 -159.5t-164 -57.5t-164.5 58t-61.5 159q0 123 99 172q-32 20 -55 57.5t-23 87.5q0 84 56 135.5t149 51.5zM961 309q-46 0 -70.5 -28t-24.5 -72t24.5 -72t70.5 -28t70 27.5
t24 72.5t-24 72.5t-70 27.5zM961 602q-40 0 -61 -23t-21 -63t21 -63t61 -23t60.5 23t20.5 63t-20.5 63t-60.5 23z" />
    <glyph glyph-name="fiveeighths" unicode="&#x215d;" 
d="M1120 1124l70 -98l-1038 -723l-70 98zM74 924l127 28q9 -46 37 -73t67 -27q47 0 74 29.5t27 85.5q0 118 -101 118q-64 0 -112 -51l-101 19l37 381h360v-123h-253l-19 -146q42 33 105 33q102 0 160.5 -58t58.5 -173q0 -114 -64.5 -176t-171.5 -62q-91 0 -155 51.5
t-76 143.5zM961 713q94 0 149 -51.5t55 -135.5q0 -50 -23.5 -87.5t-56.5 -57.5q101 -48 101 -172q0 -102 -61 -159.5t-164 -57.5t-164.5 58t-61.5 159q0 123 99 172q-32 20 -55 57.5t-23 87.5q0 84 56 135.5t149 51.5zM961 309q-46 0 -70.5 -28t-24.5 -72t24.5 -72t70.5 -28
t70 27.5t24 72.5t-24 72.5t-70 27.5zM961 602q-40 0 -61 -23t-21 -63t21 -63t61 -23t60.5 23t20.5 63t-20.5 63t-60.5 23z" />
    <glyph glyph-name="seveneighths" unicode="&#x215e;" 
d="M1120 1124l70 -98l-1038 -723l-70 98zM346 737h-145l258 574h-318v123h494v-48zM961 713q94 0 149 -51.5t55 -135.5q0 -50 -23.5 -87.5t-56.5 -57.5q101 -48 101 -172q0 -102 -61 -159.5t-164 -57.5t-164.5 58t-61.5 159q0 123 99 172q-32 20 -55 57.5t-23 87.5
q0 84 56 135.5t149 51.5zM961 309q-46 0 -70.5 -28t-24.5 -72t24.5 -72t70.5 -28t70 27.5t24 72.5t-24 72.5t-70 27.5zM961 602q-40 0 -61 -23t-21 -63t21 -63t61 -23t60.5 23t20.5 63t-20.5 63t-60.5 23z" />
    <glyph glyph-name="partialdiff" unicode="&#x2202;" 
d="M182 432q0 171 67.5 311t196.5 223t297 83q163 0 238 -103q-20 172 -94 260t-195 88q-166 0 -241 -172l-160 41q51 132 156 209.5t251 77.5q457 0 457 -719q0 -112 -18.5 -215.5t-62 -201.5t-107.5 -170.5t-162 -116t-219 -43.5q-180 0 -292 121t-112 327zM727 893
q-87 0 -158.5 -41t-116.5 -107.5t-69.5 -148.5t-24.5 -168q0 -131 60.5 -210t177.5 -79q87 0 159 38t118 102.5t71 148.5t25 178q0 138 -61 212.5t-181 74.5z" />
    <glyph glyph-name="Delta" unicode="&#x2206;" 
d="M125 0v41l430 1393h160l430 -1393v-41h-1020zM635 1190l-316 -1034h631z" />
    <glyph glyph-name="product" unicode="&#x220f;" 
d="M217 0v1434h836v-1434h-172v1278h-492v-1278h-172z" />
    <glyph glyph-name="summation" unicode="&#x2211;" 
d="M803 696l-357 -540h656v-156h-934v41l459 676l-459 676v41h934v-156h-656l357 -541v-41z" />
    <glyph glyph-name="minus" unicode="&#x2212;" 
d="M184 573v152h901v-152h-901z" />
    <glyph glyph-name="radical" unicode="&#x221a;" 
d="M1067 1450h164l-473 -1450h-135l-207 641h-213v156h313l176 -553z" />
    <glyph glyph-name="infinity" unicode="&#x221e;" 
d="M635 866q28 89 108.5 148t180.5 59q142 0 228.5 -87.5t86.5 -250.5t-86.5 -250.5t-228.5 -87.5q-100 0 -180.5 59t-108.5 148q-28 -89 -108.5 -148t-180.5 -59q-142 0 -228.5 87.5t-86.5 250.5t86.5 250.5t228.5 87.5q100 0 180.5 -59t108.5 -148zM903 553
q73 0 116.5 48.5t43.5 133.5t-43.5 134t-116.5 49q-64 0 -117 -54.5t-73 -128.5q20 -74 73 -128t117 -54zM367 918q-73 0 -116.5 -49t-43.5 -134t43.5 -133.5t116.5 -48.5q64 0 117 54t73 128q-20 74 -73 128.5t-117 54.5z" />
    <glyph glyph-name="integral" unicode="&#x222b;" 
d="M16 -375l74 152q67 -56 154 -56q150 0 190 195l230 1180q38 195 129.5 274.5t242.5 79.5q132 0 217 -59l-73 -152q-66 55 -154 55q-151 0 -190 -194l-230 -1180q-38 -195 -130 -274.5t-243 -79.5q-132 0 -217 59z" />
    <glyph glyph-name="approxequal" unicode="&#x2248;" 
d="M256 344l-100 102q45 84 116 133.5t154 49.5q58 0 114.5 -16t94 -35.5t88.5 -35.5t100 -16q54 0 105 24.5t86 67.5l100 -104q-45 -84 -115.5 -132t-154.5 -48q-73 0 -141 25.5t-131.5 51t-125.5 25.5q-54 0 -104.5 -24.5t-85.5 -67.5zM256 754l-100 102q45 84 116 133
t154 49q73 0 141.5 -25.5t131.5 -51t124 -25.5q54 0 105 24.5t86 67.5l100 -104q-45 -84 -115.5 -132.5t-154.5 -48.5q-58 0 -114.5 16t-94 35.5t-88.5 35.5t-101 16q-54 0 -104.5 -24.5t-85.5 -67.5z" />
    <glyph glyph-name="notequal" unicode="&#x2260;" 
d="M227 729v152h461l121 209l131 -76l-76 -133h180v-152h-268l-106 -188h374v-152h-460l-121 -209l-131 76l76 133h-181v152h269l106 188h-375z" />
    <glyph glyph-name="lessequal" unicode="&#x2264;" 
d="M215 733v180l838 402v-178l-666 -314l666 -313v-178zM184 0v152h901v-152h-901z" />
    <glyph glyph-name="greaterequal" unicode="&#x2265;" 
d="M1055 913v-180l-838 -401v178l666 313l-666 314v178zM1085 152v-152h-901v152h901z" />
    <glyph glyph-name="lozenge" unicode="&#x25ca;" 
d="M551 0l-426 717l426 717h168l426 -717l-426 -717h-168zM635 166l326 551l-326 551l-326 -551z" />
    <glyph glyph-name="apple" unicode="&#xf8ff;" 
d="M1241 1264v-1219q0 -18 -12.5 -31.5t-32.5 -13.5q-6 0 -14 2l-547 158l-547 -158q-8 -2 -14 -2q-20 0 -32.5 13.5t-12.5 31.5v1219q0 15 9 27.5t23 17.5l553 159q15 5 21 5q5 0 20 -5l553 -159q14 -5 23.5 -17.5t9.5 -27.5zM590 750v620l-471 -137q12 -192 146 -329
t325 -154zM680 1370v-620q191 17 325 154t146 329zM117 948v-844l473 138v417q-149 12 -274 89t-199 200zM1153 104v844q-76 -123 -200 -200t-273 -89v-417z" />
    <glyph glyph-name="quotesinglbase.001" 
d="M408 -117l194 508h258l-321 -508h-131z" />
    <glyph glyph-name="No" 
d="M584 1434h118v-1086h-124l-385 828v-828h-119v1086h125l385 -828v828zM780 1223q0 91 57 155t152 64t152 -64t57 -155t-57 -155t-152 -64t-152 64t-57 155zM881 1223q0 -50 29 -86.5t79 -36.5t79.5 36.5t29.5 86.5t-29.5 86.5t-79.5 36.5t-79 -36.5t-29 -86.5zM780 854
v86h418v-86h-418z" />
    <glyph glyph-name="quotedblleft.alt" 
d="M1055 918l-33 -39q-136 86 -236 205.5t-100 222.5q0 62 37.5 102.5t97.5 40.5q56 0 91.5 -36t35.5 -89q0 -93 -102 -127q4 -63 66 -140t143 -140zM645 918l-33 -39q-136 86 -236 205.5t-100 222.5q0 62 38 102.5t98 40.5q56 0 91.5 -36t35.5 -89q0 -92 -103 -127
q4 -63 66 -140t143 -140z" />
    <glyph glyph-name="quotedblright.alt" 
d="M248 879l-33 39q81 63 143 140t66 140q-102 34 -102 127q0 53 35.5 89t91.5 36q60 0 97.5 -40.5t37.5 -102.5q0 -103 -100 -222.5t-236 -205.5zM657 879l-32 39q81 63 143 140t66 140q-103 35 -103 127q0 53 35.5 89t91.5 36q60 0 97.5 -40.5t37.5 -102.5
q0 -103 -100 -222.5t-236 -205.5z" />
    <glyph glyph-name="quoteleft.alt" 
d="M891 918l-33 -39q-136 86 -236 205.5t-100 222.5q0 62 37.5 102.5t97.5 40.5q56 0 91.5 -36t35.5 -89q0 -93 -102 -127q4 -63 66 -140t143 -140z" />
    <glyph glyph-name="quoteright.alt" 
d="M412 879l-33 39q81 63 143 140t66 140q-103 35 -103 127q0 53 35.5 89t91.5 36q60 0 98 -40.5t38 -102.5q0 -103 -100 -222.5t-236 -205.5z" />
    <glyph glyph-name="quotesinglbase.alt" 
d="M408 -117l194 508h258l-321 -508h-131z" />
    <glyph glyph-name="quotedblbase.alt" 
d="M186 -117l195 508h258l-322 -508h-131zM629 -117l194 508h258l-321 -508h-131z" />
    <glyph glyph-name="arrow.l" 
d="M563 233l-483 484l483 483l109 -110l-289 -295h786v-156h-786l289 -295z" />
    <glyph glyph-name="arrow.r" 
d="M1190 717l-483 -484l-109 111l289 295h-787v156h787l-289 295l109 110z" />
    <glyph glyph-name="arrow.u" 
d="M152 778l483 484l483 -484l-110 -108l-295 288v-786h-156v786l-295 -288z" />
    <glyph glyph-name="arrow.d" 
d="M635 172l-483 483l110 109l295 -289v787h156v-787l295 289l110 -109z" />
    <glyph glyph-name="arrow.ul" 
d="M244 457v682h682v-158h-414l575 -575l-110 -111l-576 575v-413h-157z" />
    <glyph glyph-name="arrow.ur" 
d="M1026 1139v-682h-158v413l-575 -575l-111 111l576 575h-414v158h682z" />
    <glyph glyph-name="arrow.dl" 
d="M244 295v682h157v-414l576 576l110 -111l-575 -575h414v-158h-682z" />
    <glyph glyph-name="arrow.dr" 
d="M1026 977v-682h-682v158h414l-576 575l111 111l575 -576v414h158z" />
    <glyph glyph-name="dcaron.alt" 
d="M80 516q0 241 125 387t348 146q101 0 185 -42.5t130 -105.5v549h172v-1450h-172v137q-46 -65 -130.5 -109t-184.5 -44q-223 0 -348 145.5t-125 386.5zM256 516q0 -169 84 -273t229 -104t229.5 104t84.5 273t-84.5 273t-229.5 104t-229 -104t-84 -273zM1155 899l-33 39
q56 53 88.5 122.5t32.5 137.5q-102 34 -102 127q0 53 35.5 89t91.5 36q60 0 97.5 -40.5t37.5 -102.5q0 -99 -72 -209.5t-176 -198.5z" />
    <glyph glyph-name="uni0123.alt" 
d="M776 1702l33 -39q-56 -53 -88.5 -122.5t-32.5 -137.5q103 -35 103 -127q0 -53 -35.5 -89t-91.5 -36q-60 0 -98 40.5t-38 102.5q0 99 72 209.5t176 198.5zM291 702q0 157 103 252t261 95q110 0 203 -54l215 111l78 -141l-174 -91q43 -73 43 -172q0 -158 -102.5 -252
t-262.5 -94q-108 0 -190 43q-94 -37 -94 -106q0 -43 39 -64.5t106 -21.5h268q167 0 256.5 -73t89.5 -212q0 -75 -28 -136.5t-74 -101.5t-109 -67t-131 -39t-141 -12q-225 0 -351 87t-126 253q0 69 29 126.5t77 94.5q-73 57 -73 158q0 69 40 125t111 82q-63 85 -63 210z
M780 59h-243q-57 0 -107 9q-88 -46 -88 -156q0 -90 83 -142.5t222 -52.5q146 0 226.5 50t80.5 139q0 83 -44 118t-130 35zM459 702q0 -93 56 -145.5t140 -52.5q85 0 141 52.5t56 145.5t-56 146t-141 53q-83 0 -139.5 -53t-56.5 -146z" />
    <glyph glyph-name="lcaron.alt" 
d="M412 1278h-285v156h457v-1045q0 -250 217 -250q95 0 157 61.5t82 188.5l156 -31q-27 -184 -130.5 -279t-264.5 -95q-181 0 -285 106t-104 299v889zM877 879l-33 39q81 63 143 140t66 140q-103 35 -103 127q0 53 35.5 89t91.5 36q60 0 97.5 -40.5t37.5 -102.5
q0 -103 -100 -222.5t-235 -205.5z" />
    <glyph glyph-name="napostrophe.alt" 
d="M45 899l-33 39q56 53 88.5 122.5t32.5 137.5q-102 34 -102 127q0 53 35.5 89t91.5 36q60 0 97.5 -40.5t37.5 -102.5q0 -99 -72 -209.5t-176 -198.5zM1130 719v-719h-172v682q0 211 -190 211q-127 0 -215 -129.5t-88 -347.5v-416h-172v1032h172v-190q58 93 150.5 150
t199.5 57q157 0 236 -88t79 -242z" />
    <glyph glyph-name="tcaron.alt" 
d="M135 877v155h227v309l173 109v-418h374v-155h-374v-529q0 -209 178 -209q70 0 129.5 27.5t124.5 95.5l63 -145q-70 -70 -145 -101.5t-172 -31.5q-171 0 -261 90t-90 268v535h-227zM1012 899l-33 39q56 53 88.5 122.5t32.5 137.5q-103 35 -103 127q0 53 35.5 89t91.5 36
q60 0 98 -40.5t38 -102.5q0 -99 -72 -209.5t-176 -198.5z" />
  </font>
</defs>
</svg>
