<?xml version="1.0" standalone="no"?>
<!DOCTYPE svg PUBLIC "-//W3C//DTD SVG 1.1//EN" "http://www.w3.org/Graphics/SVG/1.1/DTD/svg11.dtd" >
<svg xmlns="http://www.w3.org/2000/svg" xmlns:xlink="http://www.w3.org/1999/xlink" version="1.1">
<metadata>
Created by FontForge 20170731 at Sun Sep 13 21:12:52 2020
 By Aleksey,,,
Copyright (c) 2020 by Arterfak Project. All rights reserved.
</metadata>
<defs>
<font id="RanilleNormal-Regular" horiz-adv-x="716" >
  <font-face 
    font-family="Ranille Normal"
    font-weight="400"
    font-stretch="normal"
    units-per-em="1000"
    panose-1="0 0 0 0 0 0 0 0 0 0"
    ascent="750"
    descent="-250"
    x-height="523"
    cap-height="725"
    bbox="-802.533 -383 1188 1025"
    underline-thickness="50"
    underline-position="-150"
    unicode-range="U+000D-2260"
  />
<missing-glyph horiz-adv-x="250" 
 />
    <glyph glyph-name=".notdef" horiz-adv-x="250" 
 />
    <glyph glyph-name=".null" horiz-adv-x="0" 
 />
    <glyph glyph-name="nonmarkingreturn" unicode="&#xd;" horiz-adv-x="250" 
 />
    <glyph glyph-name="NULL" horiz-adv-x="0" 
 />
    <glyph glyph-name="NULL" horiz-adv-x="0" 
 />
    <glyph glyph-name="space" unicode=" " horiz-adv-x="250" 
 />
    <glyph glyph-name="exclam" unicode="!" horiz-adv-x="302" 
d="M221 725q18 0 30 -13.5t10 -30.5l-42 -405q-2 -16 -13 -26t-27 -10h-56q-16 0 -27 10t-13 26l-42 405q-2 17 10 30.5t30 13.5h140zM151 176q19 0 36 -7.5t29.5 -20t19.5 -29.5t7 -36t-7 -36t-19.5 -29.5t-29.5 -19.5t-36 -7t-36 7t-29.5 19.5t-19.5 29.5t-7 36t7 36
t19.5 29.5t29.5 20t36 7.5z" />
    <glyph glyph-name="quotedbl" unicode="&#x22;" horiz-adv-x="485" 
d="M132 765q39 0 66.5 -27t27.5 -66v-2q0 -40 -12 -74t-28.5 -61.5t-35 -48.5t-33.5 -34q-10 -9 -23.5 -8.5t-22.5 11.5q-8 10 -7.5 23t10.5 22q5 5 11 10.5t12 12.5q14 16 11 37.5t-21 32.5q-21 12 -34 33.5t-12 47.5q1 38 27.5 64t63.5 27zM351 765q39 0 66.5 -27
t27.5 -66v-2q-1 -40 -12.5 -74t-28.5 -61.5t-35.5 -48.5t-32.5 -34q-10 -9 -23.5 -8.5t-22.5 11.5q-9 10 -8 23t11 22q5 5 11 10.5t12 12.5q14 16 11 37.5t-22 32.5q-20 12 -33 33.5t-12 47.5q1 38 27 64t64 27z" />
    <glyph glyph-name="numbersign" unicode="#" horiz-adv-x="689" 
d="M618 530q14 0 23 -10.5t7 -24.5l-8 -45q-2 -11 -10 -17.5t-19 -6.5h-88l-22 -126h77q14 0 23 -10.5t7 -24.5l-8 -45q-2 -11 -10 -18t-19 -7h-88l-29 -169q-5 -25 -30 -25h-44q-14 0 -22.5 10.5t-6.5 24.5l27 159h-125l-30 -169q-2 -11 -10 -18t-19 -7h-44q-14 0 -23 10.5
t-7 24.5l28 159h-77q-14 0 -23 10.5t-7 24.5l8 45q5 25 30 25h87l22 126h-77q-14 0 -23 10.5t-7 24.5l8 45q2 11 10.5 17.5t19.5 6.5h87l30 170q2 11 10 18t19 7h44q14 0 23 -11t7 -25l-28 -159h126l29 170q2 11 10.5 18t19.5 7h43q14 0 23 -11t7 -25l-28 -159h77zM418 426
h-125l-22 -126h126z" />
    <glyph glyph-name="dollar" unicode="$" horiz-adv-x="604" 
d="M219 572q0 -34 25.5 -57.5t64 -43.5t83 -40.5t83 -49t64 -68t25.5 -98.5q0 -54 -18.5 -93.5t-49.5 -66t-71 -41.5t-83 -20v-123q0 -13 -8.5 -21.5t-21.5 -8.5h-20q-13 0 -21.5 8.5t-8.5 21.5v121q-65 4 -110 19.5t-70 29.5q-32 18 -32 53v139q0 9 7 16t17 7q14 0 21 -14
q7 -16 23 -45t39.5 -57t55 -48.5t69.5 -20.5q49 0 75.5 22.5t26.5 69.5q0 40 -25.5 66t-63.5 46.5t-83 40.5t-83 48t-63.5 68t-25.5 101q0 51 21.5 85.5t54.5 56.5t72 33t74 14v76q0 13 8.5 21.5t21.5 8.5h20q13 0 21.5 -8.5t8.5 -21.5v-75q58 -4 100 -16t67 -24
q16 -7 25.5 -22t9.5 -32v-106q0 -10 -6.5 -16.5t-16.5 -6.5h-1q-13 0 -20 12q-7 13 -21.5 35.5t-38 44t-54.5 37.5t-71 16q-43 0 -69.5 -19.5t-26.5 -53.5z" />
    <glyph glyph-name="percent" unicode="%" horiz-adv-x="809" 
d="M564 725q8 0 12.5 -6.5t1.5 -14.5l-287 -694q-4 -9 -13 -9h-43q-8 0 -12.5 6.5t-1.5 14.5l297 694q4 9 13 9h33zM607 372q36 0 66 -15.5t51 -41t33 -59t12 -70.5q0 -36 -12 -69.5t-33 -59t-51 -41t-66 -15.5t-65.5 15.5t-50.5 41t-33 59t-12 69.5q0 37 12 70.5t33 59
t50.5 41t65.5 15.5zM607 57q10 0 20 6t18 20.5t12.5 39.5t4.5 63t-4.5 63t-12.5 40t-18 21t-20 6t-20 -6t-17.5 -21t-12 -40t-4.5 -63t4.5 -63t12 -39.5t17.5 -20.5t20 -6zM363 539q0 -36 -12 -69.5t-33 -59t-51 -41t-66 -15.5t-65.5 15.5t-50.5 41t-33 59t-12 69.5
q0 37 12 70.5t33 59t50.5 41t65.5 15.5t66 -15.5t51 -41t33 -59t12 -70.5zM201 410q10 0 20 6t18 21t12.5 39.5t4.5 62.5t-4.5 63t-12.5 40t-18 21t-20 6t-20 -6t-17.5 -21t-12 -40t-4.5 -63t4.5 -62.5t12 -39.5t17.5 -21t20 -6z" />
    <glyph glyph-name="ampersand" unicode="&#x26;" horiz-adv-x="833" 
d="M681 529q36 7 63 -9.5t39.5 -43.5t7 -58.5t-34.5 -53.5q-26 -21 -62.5 -37t-80.5 -30q50 0 80 -26.5t37.5 -66t-8 -86t-56.5 -86t-107.5 -66t-160.5 -26.5q-68 0 -132.5 18t-114.5 52.5t-80.5 85t-30.5 115.5q0 36 12 72.5t36 68t59.5 57t82.5 39.5q-35 20 -57 52t-18 81
q5 67 57 105.5t149 38.5q44 0 79 -8t61.5 -21.5t46 -30t32.5 -32.5q10 -12 12.5 -26.5t-1 -28t-13 -24.5t-23.5 -17q-24 -10 -48 0t-34 35q-5 13 -12.5 26t-17.5 23.5t-23.5 17t-29.5 6.5q-23 0 -39 -19.5t-16 -63.5q0 -42 24.5 -70.5t68.5 -28.5h12q5 0 5 -6
q0 -23 -15.5 -38.5t-38.5 -15.5h-5q-40 0 -71 -13.5t-52 -37t-32 -55t-11 -67.5q0 -48 15.5 -88.5t43 -69t67 -44.5t87.5 -16t81 18t52 45.5t26 59t2 59t-21 45.5t-41 18q-26 0 -41 -11.5t-22.5 -28t-10 -35t-3.5 -33.5q-1 -11 -9.5 -19t-19.5 -7q-21 0 -39 10t-30 25.5
t-16.5 35.5t0.5 41q11 43 40 71.5t66 48.5t76.5 34.5t71.5 30t51.5 35t15.5 49.5q-2 9 4 16t15 9z" />
    <glyph glyph-name="quotesingle" unicode="'" horiz-adv-x="266" 
d="M132 765q39 0 66.5 -27t27.5 -66v-2q0 -40 -12 -74t-28.5 -61.5t-35 -48.5t-33.5 -34q-10 -9 -23.5 -8.5t-22.5 11.5q-8 10 -7.5 23t10.5 22q5 5 11 10.5t12 12.5q14 16 11 37.5t-22 32.5q-20 12 -33 33.5t-12 47.5q1 38 27.5 64t63.5 27z" />
    <glyph glyph-name="parenleft" unicode="(" horiz-adv-x="330" 
d="M274 715q8 0 13 -7.5t0 -15.5q-48 -83 -71.5 -183.5t-23.5 -204.5t23.5 -204.5t71.5 -183.5q5 -8 0 -15t-13 -7h-81q-15 0 -24 11q-37 46 -61.5 97t-39.5 103t-21.5 102.5t-6.5 96.5t6.5 97t21.5 102.5t39.5 102.5t61.5 97q10 12 24 12h81v0z" />
    <glyph glyph-name="parenright" unicode=")" horiz-adv-x="330" 
d="M137 715q14 0 23 -12q37 -46 62 -97t40 -102.5t21.5 -102.5t6.5 -97t-6.5 -96.5t-21.5 -102.5t-40 -103t-62 -97q-8 -11 -23 -11h-81q-9 0 -13.5 7t0.5 15q47 83 70.5 183.5t23.5 204.5t-23.5 204.5t-70.5 183.5q-5 8 -0.5 15.5t13.5 7.5h81v0z" />
    <glyph glyph-name="asterisk" unicode="*" horiz-adv-x="388" 
d="M347 631q2 -7 -1.5 -12.5t-9.5 -7.5l-92 -18l63 -69q5 -5 4 -11.5t-6 -11.5l-43 -31q-5 -4 -12 -2.5t-10 7.5l-46 81l-46 -81q-4 -6 -10.5 -7.5t-11.5 2.5l-43 31q-5 5 -6 11.5t4 11.5l63 69l-92 18q-16 4 -11 20l16 50q2 7 8.5 9.5t12.5 -0.5l85 -39l-11 94q-1 6 3.5 11
t11.5 5h53q7 0 11.5 -5t3.5 -11l-10 -94l85 39q6 3 12 0.5t8 -9.5z" />
    <glyph glyph-name="plus" unicode="+" horiz-adv-x="531" 
d="M471 415q9 0 14.5 -6t5.5 -14v-50q0 -8 -5.5 -14t-14.5 -6h-160v-160q0 -8 -6 -14t-14 -6h-50q-8 0 -14 6t-6 14v160h-161q-8 0 -14 6t-6 14v50q0 8 6 14t14 6h161v161q0 8 6 14t14 6h50q8 0 14 -6t6 -14v-161h160v0z" />
    <glyph glyph-name="comma" unicode="," horiz-adv-x="265" 
d="M131 176q39 0 66.5 -27t27.5 -66v-2q0 -40 -12 -74t-28.5 -61.5t-35 -48.5t-32.5 -34q-11 -9 -24 -8.5t-22 11.5q-9 10 -8.5 23t10.5 22q6 5 12 10.5t11 12.5q15 16 12 37.5t-22 32.5q-21 12 -33.5 33.5t-11.5 47.5q1 38 27 64t63 27z" />
    <glyph glyph-name="hyphen" unicode="-" horiz-adv-x="464" 
d="M424 337q0 -12 -8.5 -21t-21.5 -9h-324q-12 0 -21 9t-9 21v55q0 13 9 21.5t21 8.5h324q13 0 21.5 -8.5t8.5 -21.5v-55v0z" />
    <glyph glyph-name="period" unicode="." horiz-adv-x="264" 
d="M132 176q19 0 36 -7.5t29.5 -20t19.5 -29.5t7 -36t-7 -36t-19.5 -29.5t-29.5 -19.5t-36 -7t-36 7t-29.5 19.5t-19.5 29.5t-7 36t7 36t19.5 29.5t29.5 20t36 7.5z" />
    <glyph glyph-name="slash" unicode="/" horiz-adv-x="444" 
d="M383 725q11 0 17 -9t2 -19l-292 -684q-5 -12 -19 -12h-31q-11 0 -17 9t-1 19l291 683q6 13 19 13h31v0z" />
    <glyph glyph-name="zero" unicode="0" horiz-adv-x="691" 
d="M345 724q70 0 128 -29.5t100 -79.5t65 -115.5t23 -136.5q0 -72 -23 -137.5t-65 -115.5t-100 -79.5t-128 -29.5t-128 29.5t-99.5 79.5t-64.5 115.5t-23 137.5q0 71 23 136.5t64.5 115.5t99.5 79.5t128 29.5zM345 84q25 0 49 13t42.5 45t29.5 85.5t11 135.5q0 81 -11 135
t-29.5 86t-42.5 45t-49 13t-48.5 -13t-42 -45t-29.5 -86t-11 -135q0 -82 11 -135.5t29.5 -85.5t42 -45t48.5 -13z" />
    <glyph glyph-name="one" unicode="1" horiz-adv-x="365" 
d="M329 47q6 -8 6 -18q0 -12 -8 -20t-20 -8h-203q-12 0 -20 8t-8 20q0 10 6 18l39 45v477l-71 12q-9 2 -14.5 8.5t-5.5 15.5q0 16 14 22l208 95q4 2 12 2q11 0 19 -7.5t8 -18.5v-606z" />
    <glyph glyph-name="two" unicode="2" horiz-adv-x="603" 
d="M543 216q14 0 22.5 -10.5t6.5 -24.5l-25 -155q-2 -11 -10 -18t-19 -7h-457q-13 0 -22 9.5t-8 22.5q6 74 34.5 128.5t68 96t84 74.5t82 65t62 66.5t24.5 79.5q0 19 -4 38t-12 33.5t-21 23.5t-31 9q-34 0 -51.5 -37.5t-23.5 -108.5q-2 -24 -14.5 -43t-31 -30t-41 -13.5
t-44.5 6.5q-34 14 -50 46t-7 67q14 52 43.5 88.5t66 59t77 32.5t76.5 10q48 0 93 -12t80.5 -37t57 -63t21.5 -89q0 -61 -26.5 -100t-67.5 -65t-90 -43.5t-94 -36.5t-80 -43.5t-48 -63.5h257q28 0 54.5 9.5t48.5 28.5q9 7 19 7z" />
    <glyph glyph-name="three" unicode="3" horiz-adv-x="581" 
d="M366 359q39 -7 72.5 -24t58.5 -43t39.5 -59.5t14.5 -72.5q0 -52 -20 -92.5t-55 -69t-83.5 -43.5t-106.5 -15q-47 0 -84 8t-66 21t-50 30.5t-36 36.5q-17 22 -19 47t8.5 46.5t31.5 35.5t48 14q34 0 58.5 -22t29.5 -55q2 -15 6.5 -29.5t12.5 -26.5t21 -19t31 -7
q15 0 31.5 7.5t30 24.5t22.5 44.5t9 68.5q0 61 -33.5 99.5t-97.5 38.5h-47q-11 0 -18 7t-7 17v51q0 11 7 18t18 7h47q51 0 81 29.5t30 90.5q0 66 -21 93.5t-52 27.5q-16 0 -27 -7t-17.5 -18t-10 -25t-4.5 -29q-2 -34 -26.5 -56.5t-57.5 -22.5q-25 0 -44 12t-29.5 31
t-11 41.5t12.5 43.5t33 41t48 35.5t65.5 24.5t85.5 9t89.5 -12t73 -34t51 -54.5t22.5 -72.5t-8.5 -72t-34 -56.5t-54 -40.5t-68.5 -23z" />
    <glyph glyph-name="four" unicode="4" horiz-adv-x="640" 
d="M580 320q13 0 21.5 -8.5t8.5 -21.5v-80q0 -12 -8.5 -21t-21.5 -9h-46v-88l39 -45q6 -8 6 -18q0 -12 -8 -20t-20 -8h-203q-12 0 -20 8t-8 20q0 10 6 18l38 45v88h-265q-19 0 -35 9.5t-25 26.5q-10 18 -8.5 38t14.5 36l321 411q8 11 20.5 17t26.5 6h91q13 0 21.5 -8.5
t8.5 -21.5v-374h46zM364 581l-202 -261h202v261z" />
    <glyph glyph-name="five" unicode="5" horiz-adv-x="620" 
d="M304 461q58 0 110 -15.5t91 -47.5t62 -81t23 -116q0 -52 -20 -99t-57.5 -83t-90 -57.5t-118.5 -21.5q-69 0 -117 15t-79.5 39t-48.5 54t-25 60q-6 21 -1 41.5t17 36.5t30.5 26t41.5 10q34 0 59.5 -22t30.5 -55q3 -21 9.5 -43.5t17.5 -40.5t27.5 -29.5t40.5 -11.5
q44 0 73.5 43.5t29.5 138.5q0 85 -35 134.5t-104 49.5q-44 0 -76 -16.5t-50 -36.5q-12 -13 -28.5 -15.5t-31.5 5.5q-14 8 -21.5 22t-4.5 31l52 299q4 22 20.5 35.5t38.5 13.5h373q14 0 22.5 -10t6.5 -24l-20 -129q-2 -14 -12.5 -22.5t-24.5 -8.5t-23 9q-43 35 -99 35h-190
l-24 -137q26 11 57 17.5t68 6.5z" />
    <glyph glyph-name="six" unicode="6" horiz-adv-x="676" 
d="M406 487q52 0 96.5 -17.5t76 -50t49.5 -80t18 -107.5q0 -57 -22 -109.5t-62 -93t-94.5 -65t-120.5 -24.5q-87 0 -147.5 32t-98 86t-54.5 125t-17 149q0 105 23 189t64.5 142.5t99.5 89.5t128 31q72 0 137 -25.5t104 -82.5q12 -18 15 -39t-3 -40.5t-20 -35t-34 -24.5
q-21 -8 -41.5 -6.5t-38.5 11.5t-30.5 26.5t-16.5 38.5q-8 43 -25 69t-47 26q-16 0 -38 -15t-42.5 -49t-34.5 -88t-14 -133q20 19 48 35q24 13 59 24t83 11zM343 32q29 0 52 14t38.5 38.5t24 58.5t8.5 74q0 41 -9 75.5t-25 59t-39 38t-51 13.5q-43 0 -70.5 -27.5t-40 -68.5
t-11.5 -89.5t15.5 -89.5t41.5 -68.5t66 -27.5z" />
    <glyph glyph-name="seven" unicode="7" horiz-adv-x="632" 
d="M596 697q7 -11 5 -28q-5 -32 -25.5 -64.5t-49 -70.5t-61.5 -84t-62.5 -106t-52 -136t-30.5 -174q-3 -40 -32.5 -67t-69.5 -27q-24 0 -44.5 10t-34.5 27t-20 39t-1 46q13 65 37 118.5t55.5 98.5t66.5 83.5t69.5 73.5t65 68.5t52.5 69.5h-282q-58 0 -103 -37q-7 -7 -19 -7
q-14 0 -22.5 10t-6.5 24l21 135q5 25 30 25h471q14 0 25.5 -7t17.5 -20z" />
    <glyph glyph-name="eight" unicode="8" horiz-adv-x="614" 
d="M438 435q29 -21 55.5 -45.5t46.5 -53t32 -61.5t12 -73q0 -62 -26 -101t-66.5 -61t-90.5 -30.5t-98 -8.5q-54 0 -103 11t-87 33.5t-60.5 57.5t-22.5 83q0 40 14 72.5t35.5 58.5t46.5 45t46 31q-23 18 -43.5 38t-35.5 44.5t-23.5 53.5t-8.5 64q0 59 26.5 96t65.5 58
t82.5 29t76.5 8q108 0 169.5 -38.5t61.5 -120.5q0 -60 -28 -103.5t-77 -86.5zM335 704q-42 0 -69 -19t-27 -53q0 -22 11.5 -42t31 -38.5t44.5 -37t53 -37.5q30 32 41.5 71.5t6 74t-28.5 58t-63 23.5zM276 81q24 0 47 5.5t41 17t29 28.5t11 40q0 29 -14 52.5t-37 44t-53 39.5
t-61 39q-12 -11 -26 -26t-26 -35.5t-19.5 -47t-7.5 -58.5q0 -18 7 -36t21.5 -32t36 -22.5t51.5 -8.5z" />
    <glyph glyph-name="nine" unicode="9" horiz-adv-x="677" 
d="M329 784q87 0 148 -32t98.5 -86t54.5 -125t17 -149q0 -105 -23 -189t-65 -142.5t-100 -89.5t-128 -31q-72 0 -137 25.5t-104 83.5q-12 18 -15 39t3 40t20 35t34 24q21 8 41.5 6.5t38.5 -11.5t30.5 -26.5t16.5 -38.5q8 -43 25 -68.5t47 -25.5q16 0 38 15t42.5 48.5
t34.5 87.5t14 133q-20 -20 -48 -35q-24 -14 -59 -24.5t-83 -10.5q-53 0 -97 17.5t-75.5 50t-49.5 80t-18 107.5q0 57 22 109.5t62 93t94.5 65t120.5 24.5zM335 321q42 0 69.5 27.5t40 68.5t11.5 89.5t-15.5 89.5t-41.5 68.5t-66 27.5q-29 0 -51.5 -14t-38.5 -38.5
t-24.5 -58.5t-8.5 -74q0 -41 9 -75t25 -59t39 -38.5t52 -13.5z" />
    <glyph glyph-name="colon" unicode=":" horiz-adv-x="264" 
d="M132 176q19 0 36 -7.5t29.5 -20t19.5 -29.5t7 -36t-7 -36t-19.5 -29.5t-29.5 -19.5t-36 -7t-36 7t-29.5 19.5t-19.5 29.5t-7 36t7 36t19.5 29.5t29.5 20t36 7.5zM132 523q19 0 36 -7t29.5 -19.5t19.5 -29.5t7 -36t-7 -36t-19.5 -29.5t-29.5 -20t-36 -7.5t-36 7.5
t-29.5 20t-19.5 29.5t-7 36t7 36t19.5 29.5t29.5 19.5t36 7z" />
    <glyph glyph-name="semicolon" unicode=";" horiz-adv-x="265" 
d="M133 523q19 0 36 -7t29.5 -19.5t19.5 -29.5t7 -36t-7 -36t-19.5 -29.5t-29.5 -20t-36 -7.5t-36 7.5t-29.5 20t-19.5 29.5t-7 36t7 36t19.5 29.5t29.5 19.5t36 7zM132 176q19 0 36 -7t29.5 -20t20 -30t7.5 -36v-2q0 -40 -12 -74t-28.5 -61.5t-35 -48.5t-32.5 -34
q-10 -9 -23.5 -8.5t-22.5 11.5q-9 10 -8 23t11 22q5 5 11 10.5t12 12.5q14 16 11 37.5t-22 32.5q-20 12 -33 33.5t-12 47.5q1 38 27 64t64 27z" />
    <glyph glyph-name="less" unicode="&#x3c;" horiz-adv-x="417" 
d="M353 628q8 5 16 1t8 -13v-76q0 -23 -19 -37l-234 -163l234 -164q19 -13 19 -37v-75q0 -9 -8 -13t-16 1l-300 210q-13 10 -13 25v106q0 15 13 25l300 210v0z" />
    <glyph glyph-name="equal" unicode="=" horiz-adv-x="531" 
d="M471 503q8 0 14 -6t6 -14v-59q0 -8 -6 -14t-14 -6h-411q-8 0 -14 6t-6 14v59q0 8 6 14t14 6h411zM471 336q8 0 14 -6t6 -14v-59q0 -8 -6 -14t-14 -6h-411q-8 0 -14 6t-6 14v59q0 8 6 14t14 6h411z" />
    <glyph glyph-name="greater" unicode="&#x3e;" horiz-adv-x="417" 
d="M364 418q13 -10 13 -25v-106q0 -15 -13 -25l-301 -210q-8 -5 -15.5 -1t-7.5 13v75q0 24 19 37l234 164l-234 163q-19 14 -19 37v76q0 9 7.5 13t15.5 -1l301 -210v0z" />
    <glyph glyph-name="question" unicode="?" horiz-adv-x="506" 
d="M172 176q19 0 36 -7.5t29.5 -20t20 -29.5t7.5 -36t-7.5 -36t-20 -29.5t-29.5 -19.5t-36 -7t-36 7t-29.5 19.5t-19.5 29.5t-7 36t7 36t19.5 29.5t29.5 20t36 7.5zM466 571q0 -39 -14.5 -65t-36.5 -46t-48.5 -37t-50.5 -37.5t-43 -46.5t-25 -64q-2 -15 -14 -25t-28 -10h-55
q-12 0 -21 5.5t-15 14t-7 19t4 21.5q10 23 27.5 41.5t37.5 35.5t40.5 34t36.5 37.5t26.5 47t10.5 62.5q0 39 -13 64t-38 25q-23 0 -33 -22t-14 -55q-2 -19 -12 -34t-25 -24t-32.5 -10.5t-34.5 5.5l-1 1q-17 7 -28.5 19.5t-16 28t-2.5 32.5t12 32q34 53 84.5 79t113.5 26
q48 0 87.5 -9.5t68 -29t44 -48t15.5 -67.5z" />
    <glyph glyph-name="at" unicode="@" horiz-adv-x="827" 
d="M483 725q73 0 134 -25t102 -72t58 -116t3 -156q-8 -47 -29 -88.5t-51 -72.5t-66.5 -49t-73.5 -18q-104 0 -114 106q-14 -9 -39.5 -18.5t-57.5 -9.5q-29 0 -54 9.5t-41.5 29.5t-23 52t1.5 76q7 45 25 76.5t42 52t52 30t57 9.5q11 0 21 -1t18 -3q57 -14 116 3q12 3 20 -3
q10 -7 7 -20l-36 -222q-9 -57 -4 -86t33 -29q17 0 34.5 15t33.5 40.5t28 60t19 73.5q10 60 2.5 114t-33 94t-70 63.5t-110.5 23.5t-123.5 -22.5t-102.5 -65.5t-76 -105t-44 -141q-8 -48 -2 -96.5t29 -86.5t65.5 -62t108.5 -24q22 0 43 4t39 9t32.5 11t23.5 11q6 2 12.5 0.5
t10.5 -6.5q5 -6 3.5 -13t-7.5 -12q-10 -8 -28 -19t-42.5 -21t-56.5 -17t-70 -7q-68 0 -120.5 26.5t-86 71t-47.5 103t-3 123.5q15 89 55 163t98.5 126.5t131.5 81.5t153 29zM477 479q-7 8 -18.5 14.5t-30.5 6.5q-27 0 -52.5 -30t-36.5 -97q-11 -66 5 -96t42 -30q17 0 33 7.5
t26 15.5q1 8 1.5 17t2.5 18v4l1 2q0 5 1 8z" />
    <glyph glyph-name="A" unicode="A" horiz-adv-x="780" 
d="M762 47q8 -8 8 -19t-8.5 -19t-19.5 -8h-275q-11 0 -19 8t-8 19t8 19l55 52l-49 112h-222l-50 -113l53 -51q8 -8 8 -19t-8 -19t-19 -8h-179q-11 0 -19 8t-8 19q0 10 7 19l69 71l268 604q11 23 36 23t35 -23l268 -604zM420 291l-75 175l-78 -175h153z" />
    <glyph glyph-name="B" unicode="B" horiz-adv-x="649" 
d="M459 367q45 -12 80 -37q30 -21 55 -56.5t25 -90.5q0 -41 -16.5 -74.5t-48 -57.5t-77 -37t-102.5 -13h-131h-186q-12 0 -20 8.5t-8 19.5q0 10 6 18l38 45v541l-38 46q-6 7 -6 18t8 19.5t20 8.5h186h101q57 0 102.5 -13.5t77 -37.5t48 -57.5t16.5 -73.5q0 -53 -20.5 -87
t-44.5 -54q-29 -24 -65 -35zM244 403h43q25 0 47.5 4.5t39 17.5t26 36.5t9.5 61.5t-9.5 61.5t-26 37t-39 18.5t-47.5 5h-43v-242zM317 81q25 0 47.5 5t39 18.5t26 37t9.5 61.5q0 37 -9.5 60.5t-26 37t-39 18t-47.5 4.5h-73v-182q0 -25 17.5 -42.5t42.5 -17.5h13z" />
    <glyph glyph-name="C" unicode="C" horiz-adv-x="701" 
d="M653 226q12 -6 16 -18.5t-2 -24.5q-12 -23 -34.5 -56t-58.5 -63t-86 -51.5t-116 -21.5q-48 0 -107 18t-111.5 60.5t-88 113t-35.5 175.5t35.5 175.5t88 113t111.5 60.5t107 18q42 0 83 -8.5t78.5 -28t69 -52.5t54.5 -81q9 -20 9.5 -40.5t-6.5 -39t-21 -33t-34 -22.5
l-1 -1q-21 -9 -42.5 -7.5t-39.5 10.5t-32 25.5t-20 38.5q-20 75 -63.5 110.5t-95.5 30.5q-27 -3 -46 -21t-30 -47t-16 -65.5t-5 -76.5q0 -56 16 -110.5t45.5 -98.5t72 -71t96.5 -27q33 0 60.5 11t48.5 27t36 34t24 32q6 10 17.5 13.5t22.5 -1.5z" />
    <glyph glyph-name="D" unicode="D" horiz-adv-x="689" 
d="M276 725q117 0 191.5 -32t117 -83.5t58.5 -116t16 -130.5t-16 -130.5t-58.5 -116t-117 -83.5t-191.5 -32h-218q-12 0 -20 8.5t-8 19.5q0 10 6 18l38 45v541l-38 46q-6 7 -6 18t8 19.5t20 8.5h218zM290 81q52 0 88.5 21t58.5 58.5t32 89t10 113.5t-10 113.5t-32 89
t-58.5 58.5t-88.5 21h-46v-564h46z" />
    <glyph glyph-name="E" unicode="E" horiz-adv-x="640" 
d="M582 161q11 0 19.5 -8t8.5 -20v-102q0 -13 -8.5 -21.5t-21.5 -8.5h-522q-11 0 -19.5 8.5t-8.5 19.5q0 9 7 18l38 45v541l-38 46q-7 9 -7 18q0 11 8.5 19.5t19.5 8.5h502q13 0 21.5 -9t8.5 -21v-103q0 -11 -8.5 -19.5t-19.5 -8.5q-9 0 -18 7q-43 36 -94.5 55t-107.5 19
h-97v-242h160l65 66q7 8 19 8q11 0 19 -7.5t8 -18.5v-176q0 -11 -8 -19t-19 -8t-19 8l-65 67h-160v-182q0 -25 17.5 -42.5t42.5 -17.5h57q56 0 107.5 19t94.5 55q7 6 18 6z" />
    <glyph glyph-name="F" unicode="F" horiz-adv-x="620" 
d="M560 725q12 0 21 -9t9 -21v-103q0 -11 -8.5 -19.5t-19.5 -8.5q-9 0 -18 7l-32 26q-56 48 -129 48h-138v-242h160l65 66q7 8 19 8q11 0 19 -7.5t8 -18.5v-176q0 -11 -8 -19t-19 -8t-19 8l-65 67h-160v-231l38 -45q7 -9 7 -18q0 -11 -8.5 -19.5t-19.5 -8.5h-204
q-11 0 -19.5 8.5t-8.5 19.5q0 9 7 18l38 45v541l-38 46q-7 9 -7 18q0 11 8.5 19.5t19.5 8.5h502v0z" />
    <glyph glyph-name="G" unicode="G" horiz-adv-x="790" 
d="M716 389q18 0 31 -13t13 -32q0 -18 -13 -31t-31 -13h-35q0 -21 -2.5 -52t-12.5 -65t-30 -68.5t-54.5 -62t-86 -44.5t-123.5 -17q-48 0 -107 18t-111.5 60.5t-88 113t-35.5 175.5t35.5 175.5t88 113t111.5 60.5t107 18q37 0 73 -6t69 -18.5t62.5 -32.5t53.5 -48
q16 -19 21 -42t-0.5 -45t-20.5 -40.5t-38 -27.5q-37 -15 -74 0.5t-53 52.5q-22 53 -63 83.5t-90 25.5q-51 -5 -74 -60.5t-23 -149.5q0 -56 15.5 -110.5t43.5 -98.5t68 -71t88 -27q39 0 58.5 20t24.5 49t-1 62t-18 59h-57q-19 0 -32 13t-13 31q0 19 13 32t32 13h279v0z" />
    <glyph glyph-name="H" unicode="H" 
d="M658 725q12 0 20 -8.5t8 -19.5t-6 -18l-38 -46v-541l38 -45q6 -8 6 -18q0 -11 -8 -19.5t-20 -8.5h-203q-11 0 -19.5 8.5t-8.5 19.5t7 18l38 45v231h-227v-231l38 -45q6 -8 6 -18q0 -11 -8 -19.5t-20 -8.5h-203q-11 0 -19.5 8.5t-8.5 19.5t7 18l38 45v541l-38 46
q-7 7 -7 18t8.5 19.5t19.5 8.5h203q12 0 20 -8.5t8 -19.5t-6 -18l-38 -46v-230h227v230l-38 46q-7 7 -7 18t8.5 19.5t19.5 8.5h203v0z" />
    <glyph glyph-name="I" unicode="I" horiz-adv-x="320" 
d="M262 725q11 0 19.5 -8.5t8.5 -19.5q0 -9 -7 -18l-38 -46v-541l38 -45q7 -9 7 -18q0 -11 -8.5 -19.5t-19.5 -8.5h-204q-11 0 -19.5 8.5t-8.5 19.5q0 9 7 18l38 45v541l-38 46q-7 9 -7 18q0 11 8.5 19.5t19.5 8.5h204v0z" />
    <glyph glyph-name="J" unicode="J" horiz-adv-x="579" 
d="M521 725q11 0 19.5 -8.5t8.5 -19.5q0 -9 -7 -18l-38 -46v-407q0 -54 -14 -97.5t-44 -74t-78 -47t-116 -16.5q-69 0 -124 26t-86 83q-13 24 -11.5 49t13.5 45.5t33.5 33.5t48.5 13q36 0 63 -24t32 -59q5 -45 19 -66t37 -21q27 0 42 36t15 119v407l-38 46q-7 9 -7 18
q0 11 8.5 19.5t19.5 8.5h204v0z" />
    <glyph glyph-name="K" unicode="K" horiz-adv-x="728" 
d="M707 47q11 -8 11 -21q0 -11 -7 -18t-18 -7h-219q-31 0 -49 26l-174 254l-6 -7v-182l38 -45q6 -8 6 -18q0 -11 -8 -19.5t-20 -8.5h-203q-12 0 -20 8.5t-8 19.5q0 10 6 18l39 45v541l-39 46q-6 7 -6 18t8 19.5t20 8.5h203q12 0 20 -8.5t8 -19.5t-6 -18l-38 -46v-235
l236 235l-49 45q-8 8 -8 20q0 11 7.5 19t18.5 8h186q11 0 19 -8t8 -19q0 -12 -8 -20l-275 -271l145 -191q78 -100 182 -169z" />
    <glyph glyph-name="L" unicode="L" horiz-adv-x="599" 
d="M540 161q12 1 20.5 -7.5t8.5 -20.5v-102q0 -13 -8.5 -21.5t-21.5 -8.5h-481q-12 0 -20 8.5t-8 19.5q0 10 6 18l39 45v541l-39 46q-6 7 -6 18t8 19.5t20 8.5h203q12 0 20 -8.5t8 -19.5t-6 -18l-38 -46v-492q0 -25 17 -42.5t43 -17.5h58q35 0 68.5 12t60.5 35l31 26
q9 7 17 7z" />
    <glyph glyph-name="M" unicode="M" horiz-adv-x="928" 
d="M870 725q12 0 20 -8.5t8 -19.5t-6 -18l-39 -46v-541l39 -45q6 -8 6 -18q0 -11 -8 -19.5t-20 -8.5h-203q-12 0 -20 8.5t-8 19.5q0 10 6 18l38 45v438l-240 -514q-7 -15 -23 -15q-17 0 -24 15l-231 495v-419l64 -45q13 -10 10 -26q-2 -9 -9 -14.5t-16 -5.5h-156
q-11 0 -19.5 8.5t-8.5 19.5q0 9 7 18l38 45v541l-38 46q-7 9 -7 18q0 11 8.5 19.5t19.5 8.5h179q17 0 31.5 -9.5t22.5 -25.5l189 -403l188 403q8 16 22.5 25.5t32.5 9.5h147v0z" />
    <glyph glyph-name="N" unicode="N" horiz-adv-x="700" 
d="M642 725q12 0 20 -8.5t8 -19.5t-6 -18l-38 -46v-546q0 -40 -28 -68t-68 -28q-26 0 -47.5 12.5t-34.5 34.5l-283 475v-421l38 -45q7 -9 7 -18q0 -11 -8.5 -19.5t-19.5 -8.5h-124q-11 0 -19.5 8.5t-8.5 19.5q0 9 7 18l38 45v541l-38 46q-7 9 -7 18q0 11 8.5 19.5t19.5 8.5
h188q17 0 30.5 -8t21.5 -22l238 -405v343l-39 46q-6 7 -6 18t8 19.5t20 8.5h123v0z" />
    <glyph glyph-name="O" unicode="O" horiz-adv-x="744" 
d="M372 730q48 0 107 -18t111.5 -60.5t88 -113t35.5 -175.5t-35.5 -175.5t-88 -113t-111.5 -60.5t-107 -18t-107 18t-111.5 60.5t-88 113t-35.5 175.5t35.5 175.5t88 113t111.5 60.5t107 18zM429 92q25 5 49 22.5t39.5 53t18 90.5t-14.5 136t-42 130.5t-53.5 75.5t-57 32.5
t-53.5 1.5q-25 -6 -49 -23.5t-39.5 -52.5t-18 -90.5t14.5 -136.5t42 -130t53.5 -75t57 -32.5t53.5 -1.5z" />
    <glyph glyph-name="P" unicode="P" horiz-adv-x="619" 
d="M295 725q58 0 111 -10t93.5 -35.5t65 -68.5t24.5 -109t-24.5 -109t-65 -68.5t-93.5 -35.5t-111 -10h-51v-187l39 -45q6 -8 6 -18q0 -11 -8 -19.5t-20 -8.5h-203q-12 0 -20 8.5t-8 19.5q0 10 6 18l38 45v541l-38 46q-6 7 -6 18t8 19.5t20 8.5h237zM261 359q84 0 116 36.5
t32 106.5t-32 106.5t-116 36.5h-17v-270q0 -7 5 -11.5t12 -4.5z" />
    <glyph glyph-name="Q" unicode="Q" horiz-adv-x="744" 
d="M802 -40q11 -7 13 -19t-6 -23q-12 -17 -31.5 -40.5t-47 -44.5t-62 -35.5t-75.5 -14.5q-57 0 -104 17t-89.5 38t-83 38t-83.5 17q-35 0 -56.5 -9.5t-32.5 -19.5q-8 -7 -18.5 -7.5t-18.5 5.5v1q-10 7 -12.5 18t3.5 22q8 13 21 29.5t32.5 33t45 30.5t58.5 21q-42 15 -82 42
t-72 69t-51.5 100t-19.5 135q0 105 35.5 175.5t88 113t111.5 60.5t107 18t107 -18t111.5 -60.5t88 -113t35.5 -175.5q0 -91 -27 -156t-69 -108t-92.5 -66.5t-97.5 -31.5q27 -11 51.5 -24t50.5 -24.5t56 -19.5t68 -8q39 0 67.5 12.5t44.5 23.5q18 12 36 -1zM223 331
q17 -81 42 -130t53.5 -75t57 -32.5t53.5 -1.5t49 22.5t39.5 53t18 90.5t-14.5 136t-42 130.5t-53.5 75.5t-57 32.5t-53.5 1.5q-25 -6 -49 -23.5t-39.5 -52.5t-18 -90.5t14.5 -136.5z" />
    <glyph glyph-name="R" unicode="R" horiz-adv-x="671" 
d="M639 46q12 -7 12 -20q0 -11 -7 -18t-18 -7h-184q-15 0 -28.5 7t-21.5 20l-147 228v-164l38 -45q6 -8 6 -18q0 -11 -8 -19.5t-20 -8.5h-203q-11 0 -19.5 8.5t-8.5 19.5t7 18l38 45v541l-38 46q-7 7 -7 18t8.5 19.5t19.5 8.5h237q58 0 111 -10t94 -35.5t65.5 -68.5
t24.5 -109q0 -47 -13 -82t-35.5 -60t-53 -41.5t-66.5 -25.5l93 -131q49 -70 124 -116zM261 359q84 0 116.5 36.5t32.5 106.5t-32.5 106.5t-116.5 36.5h-16v-270q0 -16 16 -16z" />
    <glyph glyph-name="S" unicode="S" horiz-adv-x="584" 
d="M209 572q0 -34 25.5 -57.5t64 -43.5t83 -40.5t83 -49t64 -68t25.5 -98.5q0 -62 -24 -104.5t-62 -69t-86 -38.5t-96 -12q-78 0 -132 17t-82 33q-32 18 -32 53v139q0 9 7 16t17 7q14 0 21 -14q7 -16 23 -45t39.5 -57t55 -48.5t69.5 -20.5q49 0 75.5 22.5t26.5 69.5
q0 40 -25.5 66t-63.5 46.5t-83 40.5t-83 48t-63.5 68t-25.5 101q0 59 28.5 96.5t69 58.5t86 29t78.5 8q74 0 126 -14t81 -28q16 -7 25.5 -22t9.5 -32v-106q0 -10 -6.5 -16.5t-16.5 -6.5h-1q-13 0 -20 12q-7 13 -21.5 35.5t-38 44t-54.5 37.5t-71 16q-43 0 -69.5 -19.5
t-26.5 -53.5z" />
    <glyph glyph-name="T" unicode="T" horiz-adv-x="656" 
d="M596 725q13 0 21.5 -9t8.5 -21v-170q0 -11 -7 -18t-18 -7q-13 0 -21 11l-57 87q-14 22 -37 34.5t-49 12.5h-24v-553l38 -45q7 -9 7 -18q0 -11 -8.5 -19.5t-19.5 -8.5h-204q-11 0 -19.5 8.5t-8.5 19.5q0 9 7 18l38 45v553h-24q-26 0 -49 -12.5t-37 -34.5l-57 -87
q-8 -11 -21 -11q-11 0 -18 7t-7 18v170q0 12 9 21t21 9h536v0z" />
    <glyph glyph-name="U" unicode="U" 
d="M658 725q12 0 20 -8.5t8 -19.5t-6 -18l-38 -46v-371q0 -60 -16 -110t-49.5 -85.5t-86.5 -55.5t-126 -20q-74 0 -128.5 19.5t-90.5 54.5t-53.5 83t-17.5 104v381l-38 46q-6 7 -6 18t8 19.5t20 8.5h203q12 0 20 -8.5t8 -19.5t-7 -18l-38 -46v-401q0 -69 39.5 -111
t114.5 -42t114.5 42t39.5 111v401l-38 46q-7 7 -7 18t8.5 19.5t19.5 8.5h123v0z" />
    <glyph glyph-name="V" unicode="V" horiz-adv-x="782" 
d="M745 725q11 0 19 -8.5t8 -19.5t-7 -19l-69 -71l-256 -594q-6 -14 -19 -23t-30 -9q-16 0 -29 9t-20 23l-255 594l-69 71q-8 10 -8 19q0 11 8.5 19.5t19.5 8.5h275q11 0 19 -8t8 -19q0 -13 -9 -20l-54 -52l159 -389l165 390l-54 51q-8 8 -8 20q0 11 8 19t19 8h78h101v0z
" />
    <glyph glyph-name="W" unicode="W" horiz-adv-x="1198" 
d="M1161 725q11 0 19 -8t8 -19v-1q0 -11 -7 -18l-69 -72l-260 -603q-10 -23 -35 -23t-35 23l-183 426l-183 -426q-10 -23 -35 -23t-35 23l-259 603l-69 71q-8 10 -8 19q0 11 8 19.5t19 8.5h275q11 0 19 -8t8 -19q0 -12 -8 -20l-54 -52l149 -365l122 289l-25 57l-69 71
q-8 10 -8 19q0 11 8 19.5t19 8.5h276q11 0 19 -8t8 -19q0 -13 -9 -20l-54 -52l149 -365l154 366l-53 51q-8 8 -8 20q0 11 8 19t19 8h179v0z" />
    <glyph glyph-name="X" unicode="X" horiz-adv-x="765" 
d="M725 47q10 -8 10 -20q0 -11 -7.5 -18.5t-18.5 -7.5h-268q-12 0 -20 8.5t-8 19.5q0 10 6 18l36 45l-105 170l-130 -170l31 -45q6 -8 6 -17q0 -12 -8.5 -20.5t-21.5 -8.5h-172q-11 0 -18 7t-7 18q0 13 11 21l69 45l191 249l-181 292l-60 46q-10 8 -10 20q0 11 7.5 18.5
t18.5 7.5h268q12 0 20.5 -8.5t8.5 -20.5q0 -8 -7 -17l-36 -46l87 -140l108 140l-32 46q-5 8 -5 17q0 12 8.5 20.5t20.5 8.5h173q11 0 18 -7.5t7 -17.5q0 -13 -11 -21l-69 -46l-169 -220l199 -321l60 -45v0z" />
    <glyph glyph-name="Y" unicode="Y" horiz-adv-x="722" 
d="M687 725q11 0 18 -7.5t7 -18.5q0 -12 -10 -20l-75 -53l-172 -279v-255l38 -45q7 -7 7 -18t-8.5 -19.5t-19.5 -8.5h-203q-12 0 -20 8.5t-8 19.5q0 10 6 18l38 45v225l-190 309l-74 53q-11 8 -11 20q0 11 7.5 18.5t18.5 7.5h297q11 0 19 -8t8 -19q0 -13 -9 -20l-44 -43
l107 -186l116 188l-43 41q-8 8 -8 20q0 11 8 19t19 8h181v0z" />
    <glyph glyph-name="Z" unicode="Z" horiz-adv-x="619" 
d="M240 96q-3 -5 0 -10t8 -5h88q57 0 105.5 26t79.5 74l22 33q9 12 21 12q11 0 18 -7.5t7 -17.5v-170q0 -13 -9 -21.5t-21 -8.5h-467q-26 0 -44 18t-18 44q0 16 10 33l339 533q3 5 0 10.5t-8 5.5h-63q-56 0 -104.5 -26.5t-79.5 -73.5l-23 -34q-6 -11 -20 -11q-11 0 -18 7
t-7 18v170q0 12 8.5 21t21.5 9h441q26 0 44 -18t18 -44q0 -17 -10 -34z" />
    <glyph glyph-name="bracketleft" unicode="[" horiz-adv-x="311" 
d="M256 749q6 0 10.5 -4.5t4.5 -10.5v-56q0 -6 -4.5 -10.5t-10.5 -4.5h-63v-662h63q6 0 10.5 -4t4.5 -11v-55q0 -7 -4.5 -11t-10.5 -4h-186q-12 0 -21 8.5t-9 21.5v773q0 12 9 21t21 9h186v0z" />
    <glyph glyph-name="backslash" unicode="\" horiz-adv-x="244" 
d="M203 24q1 -9 -5 -16t-15 -7h-35q-17 0 -20 17l-87 684q-2 9 4 16t15 7h35q8 0 13.5 -5t6.5 -13z" />
    <glyph glyph-name="bracketright" unicode="]" horiz-adv-x="310" 
d="M240 749q13 0 21.5 -9t8.5 -21v-773q0 -13 -8.5 -21.5t-21.5 -8.5h-185q-15 0 -15 15v55q0 15 15 15h63v662h-63q-7 0 -11 4.5t-4 10.5v56q0 6 4 10.5t11 4.5h185v0z" />
    <glyph glyph-name="asciicircum" unicode="^" horiz-adv-x="463" 
d="M420 425q7 -14 -1.5 -28t-25.5 -14h-39q-20 0 -28 18l-94 232l-95 -232q-7 -18 -28 -18h-38q-17 0 -26 14t-2 28l127 272q8 18 28 18h68q19 0 27 -18z" />
    <glyph glyph-name="underscore" unicode="_" horiz-adv-x="563" 
d="M503 1q8 0 14 -6t6 -14v-30q0 -8 -6 -14t-14 -6h-443q-8 0 -14 6t-6 14v30q0 8 6 14t14 6h443v0z" />
    <glyph glyph-name="grave" unicode="`" horiz-adv-x="333" 
d="M291 614q5 -9 -0.5 -17.5t-16.5 -8.5h-60q-20 0 -34 14l-134 134q-9 9 -4.5 20.5t17.5 11.5h134q15 0 27 -8t18 -22z" />
    <glyph glyph-name="a" unicode="a" horiz-adv-x="596" 
d="M559 47q7 -7 7 -18t-8.5 -19.5t-19.5 -8.5h-114q-26 0 -46 16.5t-25 41.5q-29 -26 -69.5 -47t-90.5 -21q-34 0 -64 8.5t-52 25t-34.5 41.5t-12.5 58q0 34 17 61.5t45 48t63 35.5t71 25t68.5 16t56.5 9v32q0 35 -7 59.5t-19 39.5t-27 22t-31 7q-17 0 -29.5 -7.5
t-20.5 -19.5t-13 -28.5t-8 -34.5q-3 -23 -21 -39t-42 -16q-20 0 -35 10t-23 25t-7 33t13 34q32 44 88 66t115 22q51 0 94.5 -9.5t75 -33t49.5 -62t18 -95.5v-232zM210 141q0 -72 57 -72q22 0 44 13.5t40 30.5v163q-24 -4 -49 -13t-45.5 -25t-33.5 -40t-13 -57z" />
    <glyph glyph-name="b" unicode="b" horiz-adv-x="615" 
d="M397 523q42 0 76.5 -14.5t59 -43t38.5 -71t14 -98.5q0 -74 -21 -129t-58.5 -92t-90.5 -55.5t-117 -18.5h-224h-16q-12 0 -20 8.5t-8 19.5q0 10 6 18l38 45v499l-34 30q-10 10 -10 24q0 11 6 19.5t16 11.5l22 7l121 36q17 6 33 -5t16 -31v-218q23 20 60.5 39t92.5 19z
M278 57q37 0 63.5 12t42.5 38.5t23.5 67.5t7.5 99q0 80 -22.5 122t-64.5 42q-30 0 -50.5 -15.5t-33.5 -33.5v-299q0 -14 10 -23.5t24 -9.5z" />
    <glyph glyph-name="c" unicode="c" horiz-adv-x="564" 
d="M519 178q10 -5 13 -15t-2 -20q-9 -18 -27 -44t-47 -50t-69.5 -41t-94.5 -17q-60 0 -108.5 19.5t-82.5 55t-52.5 84t-18.5 107.5q0 58 20 107.5t56 84.5t86 55t110 20q65 0 118.5 -21.5t90.5 -73.5q12 -17 15 -37t-3 -38.5t-20 -33.5t-34 -22q-17 -6 -34 -5.5t-32 7
t-27 19t-18 29.5q-13 33 -25.5 55t-25.5 35t-26 18t-26 5q-29 0 -46.5 -26.5t-23 -66.5t1.5 -86t27.5 -86t56 -66.5t86.5 -26.5q24 0 44 7.5t36.5 18t28.5 22.5t20 21q6 7 15 9t18 -3z" />
    <glyph glyph-name="d" unicode="d" horiz-adv-x="616" 
d="M579 47q7 -9 7 -18q0 -11 -8.5 -19.5t-19.5 -8.5h-17h-98q-19 0 -34 8.5t-25 22.5q-16 -11 -48.5 -26t-79.5 -15q-44 0 -84.5 15t-72 47.5t-50.5 82.5t-19 121q0 70 20.5 120.5t52 83t69.5 47.5t73 15q49 0 80 -11.5t46 -21.5v101l-34 30q-11 9 -11 24q0 11 6.5 19.5
t16.5 11.5l22 7l121 36q17 6 32 -5q17 -11 17 -31v-591zM296 56q18 0 31.5 5t23.5 12q11 7 20 17v-1v336q-7 9 -17 16q-8 6 -21.5 11.5t-30.5 5.5q-18 0 -36 -11.5t-32.5 -36.5t-24 -63t-9.5 -90q0 -106 25 -153.5t71 -47.5z" />
    <glyph glyph-name="e" unicode="e" horiz-adv-x="563" 
d="M518 178q10 -5 13.5 -15t-1.5 -20q-9 -18 -27.5 -44t-47 -50t-69.5 -41t-95 -17q-60 0 -108.5 19.5t-82 55t-52 84t-18.5 107.5q0 58 20 107.5t55.5 84.5t85.5 55t110 20q71 0 130.5 -43t90.5 -137q4 -11 -1.5 -22t-16.5 -15l-1 -1l-296 -109q22 -40 58.5 -67t91.5 -27
q24 0 44 7.5t36.5 18t28.5 22.5t20 21q5 7 14.5 9t17.5 -3zM228 456q-18 -6 -30.5 -27t-18 -50t-4 -63t11.5 -68l190 71q-33 86 -73 117.5t-76 19.5z" />
    <glyph glyph-name="f" unicode="f" horiz-adv-x="378" 
d="M198 678q-23 0 -33.5 -13.5t-10.5 -30.5q0 -27 12.5 -47t28 -33.5t30 -21t18.5 -8.5l66 -1q11 0 19 -8t8 -19q0 -12 -8 -20t-19 -8l-64 1v-377l38 -45q6 -8 6 -18q0 -11 -8 -19.5t-20 -8.5h-203q-12 0 -20 8.5t-8 19.5q0 10 6 18l39 45v377h-18q-11 1 -19 9t-8 19t8 19.5
t20 7.5h17q0 48 12.5 85t35 63t53 39.5t65.5 13.5q30 0 52.5 -13t39.5 -30q8 -9 11.5 -19.5t2.5 -21.5t-6.5 -21t-15.5 -17q-11 -7 -23 -8.5t-23 2.5t-20 12.5t-13 20.5q-6 19 -17 33.5t-31 14.5z" />
    <glyph glyph-name="g" unicode="g" horiz-adv-x="557" 
d="M476 584q22 9 41.5 -4t19.5 -37q0 -17 -12 -29.5t-29 -14.5q-14 -1 -30.5 -4.5t-32.5 -11.5q42 -25 65 -62t23 -82q0 -39 -18.5 -73t-51 -59t-77.5 -39t-98 -14q-52 0 -97 14q-5 -7 -8 -15.5t-3 -17.5t2 -16t11 -11t28 -6t52 -2h84q30 0 60 -10t53.5 -29.5t38 -47.5
t14.5 -63t-16.5 -65t-47.5 -51.5t-75.5 -34t-100.5 -12.5q-38 0 -75.5 6.5t-67 20t-48 33t-18.5 46.5q0 31 19 49.5t42 29.5q-44 15 -60 43.5t-16 52.5t9 43.5t22 34.5t27 25.5t24 16.5q-46 26 -72.5 64.5t-26.5 86.5q0 39 18.5 73t51.5 58.5t78 39t98 14.5q29 0 56.5 -5
t51.5 -13q21 32 45.5 50.5t46.5 27.5zM351 339q0 39 -7 64t-17.5 39.5t-24 20.5t-26.5 6t-26.5 -6t-24.5 -20.5t-18 -39.5t-7 -64t7 -64t18 -39.5t24.5 -20.5t26.5 -6t26.5 6t24 20.5t17.5 39.5t7 64zM207 -38q-21 -11 -28 -30.5t1.5 -39.5t32.5 -34.5t66 -14.5q48 0 75 16
t27 48q0 24 -18.5 39.5t-50.5 15.5h-105z" />
    <glyph glyph-name="h" unicode="h" horiz-adv-x="621" 
d="M585 47q6 -8 6 -18q0 -11 -8 -19.5t-20 -8.5h-203q-12 0 -20 8.5t-8 19.5q0 10 6 18l38 45v205q0 45 -2.5 75.5t-9 49.5t-17.5 27.5t-28 8.5q-20 0 -39 -15t-35 -35v-316l38 -45q7 -9 7 -18q0 -11 -8.5 -19.5t-19.5 -8.5h-204q-11 0 -19.5 8.5t-8.5 19.5q0 9 7 18l38 45
v499l-34 30q-11 9 -11 24q0 11 6.5 19.5t16.5 11.5l22 7l121 36q17 6 32 -5q17 -11 17 -31v-216q23 23 54.5 39.5t70.5 16.5q28 0 59 -9.5t57 -32.5t43 -63t17 -101v-225z" />
    <glyph glyph-name="i" unicode="i" horiz-adv-x="319" 
d="M283 47q6 -8 6 -18q0 -11 -8 -19.5t-20 -8.5h-203q-11 0 -19.5 8.5t-8.5 19.5t7 18l38 45v303l-34 30q-11 9 -11 24q0 23 23 31l22 6l121 37q19 5 32 -5q17 -11 17 -31v-395zM171 555q-20 -5 -39.5 -2t-36 12.5t-28 24t-15.5 33.5q-5 19 -1 37.5t14.5 34t26.5 27t37 16.5
q20 4 39.5 1t36 -12t28 -24t16.5 -34q8 -38 -14 -71t-64 -43z" />
    <glyph glyph-name="j" unicode="j" horiz-adv-x="291" 
d="M238 518q16 -11 16 -31v-462q0 -54 -20 -92.5t-48.5 -64.5t-59 -40.5t-51.5 -21.5q-11 -4 -22 0t-17 14q-13 22 3 40q14 16 29.5 50t15.5 91v394l-33 30q-11 9 -11 24q0 23 22 31l22 6l121 37q19 5 33 -5zM138 738q21 4 40.5 1t35.5 -12t27.5 -24t16.5 -34
q9 -38 -13.5 -71t-63.5 -43q-21 -5 -40.5 -2t-35.5 12.5t-28 24t-16 33.5q-5 19 -1 37.5t14.5 34t27 27t36.5 16.5z" />
    <glyph glyph-name="k" unicode="k" horiz-adv-x="662" 
d="M654 47q8 -8 8 -19t-8.5 -19t-19.5 -8h-246q-13 0 -21.5 8.5t-8.5 20.5q0 9 5 17l24 37l-135 137l-7 -6v-123l38 -45q7 -9 7 -18q0 -11 -8.5 -19.5t-19.5 -8.5h-204q-11 0 -19.5 8.5t-8.5 19.5q0 9 7 18l38 45v499l-34 30q-11 9 -11 24q0 11 6.5 19.5t16.5 11.5l22 7
l121 36q17 6 32 -5q17 -11 17 -31v-386l193 162l-13 18q-6 7 -6 17q0 12 8.5 20.5t19.5 8.5h108q10 0 17 -7t7 -17q0 -15 -12 -21l-53 -31l-136 -117z" />
    <glyph glyph-name="l" unicode="l" horiz-adv-x="320" 
d="M283 47q7 -9 7 -18q0 -11 -8.5 -19.5t-19.5 -8.5h-204q-11 0 -19.5 8.5t-8.5 19.5q0 9 7 18l38 45v499l-34 30q-11 9 -11 24q0 11 6.5 19.5t16.5 11.5l22 7l121 36q17 6 32 -5q17 -11 17 -31v-591z" />
    <glyph glyph-name="m" unicode="m" horiz-adv-x="922" 
d="M886 47q6 -8 6 -18q0 -11 -8 -19.5t-20 -8.5h-203q-12 0 -20 8.5t-8 19.5q0 10 6 18l39 45v205q0 89 -12 125t-46 36q-24 0 -45 -19.5t-38 -43.5q9 -33 9 -78v-225l38 -45q7 -7 7 -18t-8.5 -19.5t-19.5 -8.5h-203q-12 0 -20.5 8.5t-8.5 19.5q0 9 7 18l38 45v205
q0 89 -12 125t-45 36q-21 0 -40 -15t-34 -35v-316l38 -45q6 -8 6 -18q0 -11 -8 -19.5t-20 -8.5h-203q-11 0 -19.5 8.5t-8.5 19.5t7 18l38 45v303l-34 30q-11 9 -11 24q0 23 23 31l22 6l121 37q19 5 32 -5q17 -11 17 -31v-20q23 23 54 39.5t71 16.5q19 0 39.5 -4t41 -14
t38.5 -26.5t31 -41.5q12 15 27 30.5t34 27.5t41.5 20t48.5 8q28 0 59 -9.5t57 -32.5t43.5 -63t17.5 -101v-225z" />
    <glyph glyph-name="n" unicode="n" horiz-adv-x="621" 
d="M584 47q7 -7 7 -18t-8.5 -19.5t-19.5 -8.5h-203q-12 0 -20 8.5t-8 19.5q0 10 6 18l38 45v205q0 89 -12 125t-45 36q-20 0 -39 -15t-35 -35v-316l38 -45q7 -9 7 -18q0 -11 -8.5 -19.5t-19.5 -8.5h-204q-11 0 -19.5 8.5t-8.5 19.5q0 9 7 18l38 45v303l-34 30q-11 9 -11 24
q0 23 23 31l22 6l121 37q19 5 32 -5q17 -11 17 -31v-20q23 23 54.5 39.5t70.5 16.5q28 0 59 -9.5t57 -32.5t43 -63t17 -101v-225z" />
    <glyph glyph-name="o" unicode="o" horiz-adv-x="603" 
d="M301 524q60 0 110 -20t86 -55t56 -84.5t20 -107.5q0 -59 -20 -107.5t-56 -84t-86 -55t-110 -19.5t-110 19.5t-85.5 55t-55.5 84t-20 107.5q0 58 20 107.5t55.5 84.5t85.5 55t110 20zM338 49q46 8 59.5 59.5t-5.5 164.5q-10 57 -23 95.5t-28.5 61.5t-34.5 31t-42 4
t-37.5 -18t-21.5 -41t-5.5 -67.5t11.5 -97.5q20 -113 51 -156.5t76 -35.5z" />
    <glyph glyph-name="p" unicode="p" horiz-adv-x="591" 
d="M373 523q41 0 75.5 -14.5t59.5 -43t39 -71t14 -98.5q0 -74 -21 -129t-59 -92t-90.5 -55.5t-116.5 -18.5h-30v-144l39 -45q6 -8 6 -18q0 -11 -8 -19.5t-20 -8.5h-203q-12 0 -20 8.5t-8 19.5q0 10 6 18l38 45v538l-33 30q-11 9 -11 24q0 23 23 31l21 6l121 37q19 5 33 -5
q16 -11 16 -31v-2q23 15 55 26.5t74 11.5zM253 57q38 0 64 12t42.5 38.5t24 67.5t7.5 99q0 80 -23 122t-65 42q-18 0 -32.5 -6t-26.5 -16v-358q3 -1 9 -1z" />
    <glyph glyph-name="q" unicode="q" horiz-adv-x="616" 
d="M575 -134q11 -9 11 -24q0 -23 -23 -30l-145 -45q-15 -3 -28 5l-4 3q-15 10 -15 26v223q-14 -10 -45.5 -21.5t-79.5 -11.5q-35 0 -73 15t-70 47.5t-52.5 82.5t-20.5 121q0 70 19 120.5t50.5 83t72.5 47.5t85 15q41 0 71.5 -12.5t47.5 -23.5l119 36q15 5 27 -4l5 -3
q14 -9 14 -27v-593zM371 89v336q-8 9 -19 16q-10 6 -24 11.5t-31 5.5q-47 0 -72 -47.5t-25 -153.5q0 -53 9.5 -90.5t24.5 -62.5t33 -36.5t36 -11.5q17 0 30 5t21 12q10 7 17 17v-1z" />
    <glyph glyph-name="r" unicode="r" horiz-adv-x="479" 
d="M378 527q32 1 56.5 -17t32.5 -47q4 -17 0.5 -35.5t-14 -33.5t-27.5 -24.5t-40 -9.5q-14 0 -26 8.5t-23 19.5t-21.5 21t-21.5 13t-23 -5t-26 -32v-293l38 -45q7 -9 7 -18q0 -11 -8.5 -19.5t-19.5 -8.5h-204q-11 0 -19.5 8.5t-8.5 19.5q0 9 7 18l38 45v303l-34 30
q-11 9 -11 24q0 23 23 31l22 6l121 37q19 5 32 -5q17 -11 17 -31v-47q11 16 24.5 31.5t30 28t36 20t42.5 7.5z" />
    <glyph glyph-name="s" unicode="s" horiz-adv-x="467" 
d="M204 426q0 -30 18 -49t45 -33t58.5 -27.5t58.5 -33.5t45 -50.5t18 -77.5q0 -39 -19.5 -69t-52.5 -51t-76 -31.5t-89 -10.5q-61 0 -101.5 10.5t-60.5 19.5q-18 7 -18 27v97q0 11 8.5 19.5t19.5 8.5q19 0 26 -19q5 -14 15 -34t25 -39t35.5 -32t47.5 -13q32 0 49.5 21.5
t17.5 50.5q0 30 -18 47.5t-45 31t-59 26.5t-59 32.5t-45 50t-18 78.5q0 38 17 66t46 46.5t66.5 27.5t79.5 9q57 0 102 -11t68 -19q9 -3 14.5 -11t5.5 -17v-78q0 -10 -7 -17t-17 -7q-14 0 -21 12q-6 11 -18.5 29t-29 34.5t-36.5 28.5t-43 12q-20 0 -36.5 -11.5t-16.5 -43.5z
" />
    <glyph glyph-name="t" unicode="t" horiz-adv-x="410" 
d="M373 96q7 -8 7 -18t-8 -17q-10 -10 -26 -22t-37 -22.5t-47 -18t-57 -7.5q-21 0 -42.5 8t-38.5 23.5t-27.5 39t-10.5 54.5v353h-24q-13 1 -22.5 10t-9.5 23q0 10 6 18t15 12q68 25 105.5 58.5t54.5 57.5q5 7 14 9.5t17 -1.5q14 -6 14 -23v-109l76 -1q11 0 19 -8t8 -19
q0 -12 -8 -20t-19 -8l-76 1v-319q0 -27 12 -44t37 -17q10 0 18.5 3t15.5 8q8 5 17.5 4.5t15.5 -7.5z" />
    <glyph glyph-name="u" unicode="u" horiz-adv-x="622" 
d="M580 90q10 -10 11 -22q1 -11 -5.5 -20.5t-17.5 -13.5l-143 -43q-18 -5 -32 5q-17 12 -17 31v28q-23 -26 -54 -45t-71 -19q-27 0 -58 9.5t-57.5 32.5t-43.5 63t-17 101v235l-38 45q-7 9 -7 18q0 11 8.5 19.5t19.5 8.5h157q13 0 21.5 -8.5t8.5 -21.5v-276q0 -45 2.5 -74.5
t9.5 -47.5t17.5 -25.5t27.5 -7.5q21 0 40 16.5t34 38.5v315l-38 45q-6 7 -6 18t8 19.5t20 8.5h156q13 0 21.5 -8.5t8.5 -21.5v-374l34 -29v0z" />
    <glyph glyph-name="v" unicode="v" horiz-adv-x="596" 
d="M559 523q11 0 19 -8t8 -19t-8 -19l-45 -45l-118 -367q-12 -38 -44 -61t-71 -23h-4q-40 0 -71.5 23t-43.5 61l-118 367l-45 45q-8 7 -8 19q0 11 8 19t19 8h213q12 0 20.5 -8.5t8.5 -20.5q0 -9 -5 -17l-33 -45l94 -313q2 -7 9.5 -7t9.5 7l102 322l-32 36q-9 9 -7 22
q2 11 9.5 17.5t18.5 6.5h114v0z" />
    <glyph glyph-name="w" unicode="w" horiz-adv-x="920" 
d="M883 523q11 0 19 -8t8 -19t-8 -19l-46 -45l-109 -365q-11 -38 -43 -62t-72 -24q-41 0 -73 24t-43 63l-56 193l-56 -193q-11 -39 -43 -63t-73 -24q-40 0 -72 24t-43 62l-109 365l-46 45q-8 8 -8 19t8 19t19 8h214q12 0 20.5 -8.5t8.5 -20.5q0 -10 -6 -17l-32 -45l83 -302
q2 -8 10 -8t10 8l75 258l-62 89q-5 8 -5 17q0 12 8.5 20.5t20.5 8.5h212q12 0 20 -8.5t8 -20.5q0 -11 -5 -17l-32 -45l83 -302q2 -8 9.5 -8t9.5 8l92 311l-32 36q-7 9 -7 18q0 12 8.5 20t19.5 8h115v0z" />
    <glyph glyph-name="x" unicode="x" horiz-adv-x="639" 
d="M600 47q9 -8 9 -20q0 -11 -7 -18.5t-18 -7.5h-276q-11 0 -19.5 8t-8.5 20q0 10 8 18l41 45l-55 90l-86 -90l40 -45q7 -9 7 -18q0 -12 -8 -20t-20 -8h-150q-11 0 -19 8t-8 19q0 12 7 19l194 204l-6 11l-93 150l-83 65q-9 7 -9 20q0 11 7 18.5t18 7.5h253q13 0 22 -9t9 -22
q0 -6 -4 -14l-25 -46l48 -77l73 77l-40 45q-7 9 -7 18q0 12 8 20t20 8h150q11 0 19 -8t8 -19q0 -12 -7 -19l-182 -191l15 -24l92 -150l83 -65v0z" />
    <glyph glyph-name="y" unicode="y" horiz-adv-x="618" 
d="M581 523q11 0 19 -8t8 -19t-8 -19l-45 -45l-220 -485q-15 -35 -37 -68t-50.5 -59.5t-64.5 -42.5t-80 -16q-35 -1 -62.5 19t-35.5 52q-5 19 -1 37.5t14.5 34t27 27t36.5 16.5q9 2 14.5 2h22.5q26 0 46.5 -6t37 -8t29.5 4.5t24 31.5l14 30l-195 431l-45 45q-8 7 -8 19
q0 11 8 19t19 8h233q12 0 20.5 -8.5t8.5 -20.5q0 -9 -5 -17l-33 -45l85 -195q2 -6 8.5 -6t9.5 6l92 204l-32 36q-9 9 -7 22q2 11 9.5 17.5t18.5 6.5h124v0z" />
    <glyph glyph-name="z" unicode="z" horiz-adv-x="491" 
d="M461 479q0 -12 -4 -20l-209 -403h5q38 0 72 15t60 43l31 33q6 8 18 8q11 0 19 -8t7 -19l-7 -99q-1 -12 -9.5 -20t-20.5 -8h-349q-18 0 -31 13t-13 31q0 10 5 20l208 402q-69 -6 -117 -57l-30 -33q-8 -8 -19 -8t-18.5 8t-6.5 19l6 99q1 12 9.5 20t20.5 8h183h146
q19 0 31.5 -13t12.5 -31z" />
    <glyph glyph-name="braceleft" unicode="{" horiz-adv-x="358" 
d="M96 563q0 50 15 85.5t43.5 58t70 32.5t93.5 10v-59q-21 0 -34.5 -6t-21.5 -15t-11 -20.5t-3 -22.5v-150q0 -36 -14 -63t-36 -45t-48 -27t-51 -9q25 0 51 -9t48 -27t36 -44.5t14 -62.5v-151q0 -11 3 -22.5t11 -20.5t21.5 -15t34.5 -6v-58q-52 0 -93.5 10t-70 32
t-43.5 57.5t-15 85.5v112q0 42 -9.5 61t-46.5 19v78q37 0 46.5 19t9.5 61v112v0z" />
    <glyph glyph-name="bar" unicode="|" horiz-adv-x="160" 
d="M95 828q11 0 18 -7t7 -18v-937q0 -11 -7 -18t-18 -7h-30q-11 0 -18 7t-7 18v937q0 11 7 18t18 7h30v0z" />
    <glyph glyph-name="braceright" unicode="}" horiz-adv-x="358" 
d="M263 451q0 -42 9.5 -61t45.5 -19v-78q-36 0 -45.5 -19t-9.5 -61v-112q0 -50 -15 -85.5t-44 -57.5t-70.5 -32t-93.5 -10v58q21 0 34.5 6t22 15t11.5 20.5t3 22.5q0 25 -0.5 52t-0.5 49v50q0 36 14 62.5t36 44.5t48.5 27t50.5 9q-24 0 -50.5 9t-48.5 27t-36 45t-14 63v50
q0 22 0.5 48.5t0.5 51.5q0 11 -3 22.5t-11.5 20.5t-22 15t-34.5 6v59q105 0 164 -43t59 -143v-112v0z" />
    <glyph glyph-name="asciitilde" unicode="~" horiz-adv-x="610" 
d="M429 460q30 0 53 -16t40 -39.5t28.5 -49t17.5 -44.5q4 -12 -1.5 -24t-16.5 -17t-21.5 -2.5t-18.5 10.5q-14 17 -39.5 30.5t-57.5 13.5q-31 0 -56 -13t-50 -28t-53.5 -28t-65.5 -13q-32 0 -56.5 15t-42.5 36.5t-29.5 45.5t-17.5 42q-5 14 0.5 27t17.5 19t25 3.5t22 -12.5
q13 -16 36 -27t59 -11q29 0 54.5 13t51.5 28t55 28t66 13z" />
    <glyph glyph-name="exclamdown" unicode="&#xa1;" horiz-adv-x="302" 
d="M221 -108.956q18 0 30 13.499q12 13.5 10 30.499l-42 404.975q-2 15.999 -13 25.999q-11 9.99902 -27 9.99902h-56q-16 0 -27 -9.99902q-11 -10 -13 -25.999l-42 -404.975q-2 -16.999 10 -30.499q12 -13.499 30 -13.499h140zM151 440.011q19 0 36 7.5
q17 7.49902 29.5 19.998t19.5 29.498t7 35.998t-7 35.998t-19.5 29.498t-29.5 19.499q-17 6.99902 -36 6.99902t-36 -6.99902q-17 -7 -29.5 -19.499t-19.5 -29.498t-7 -35.998t7 -35.998t19.5 -29.498t29.5 -19.998q17 -7.5 36 -7.5z" />
    <glyph glyph-name="cent" unicode="&#xa2;" horiz-adv-x="584" 
d="M529 284q10 -5 13 -15.5t-2 -20.5q-8 -16 -22.5 -38t-37.5 -44t-54.5 -40t-73.5 -25v-134q0 -10 -6.5 -16.5t-16.5 -6.5h-36q-9 0 -15.5 6.5t-6.5 16.5v131q-53 5 -96 26.5t-73 56t-46 81t-16 101.5q0 53 16.5 98.5t47 80t73 56.5t94.5 29v95q0 10 6.5 16.5t15.5 6.5h36
q10 0 16.5 -6.5t6.5 -16.5v-95q52 -5 95 -27t74 -65q12 -18 15 -38t-3 -38.5t-19.5 -33.5t-33.5 -22q-34 -13 -66.5 2t-45.5 48t-25.5 55t-25.5 35t-26 18t-26 5q-28 0 -45.5 -26.5t-23 -66t1 -86t27.5 -86t56 -66t86 -26.5q24 0 44.5 7t36.5 17.5t28 22.5t20 21q14 17 33 7
z" />
    <glyph glyph-name="sterling" unicode="&#xa3;" horiz-adv-x="628" 
d="M561 166q11 0 19 -8t8 -19q0 -20 -4 -49t-17 -55.5t-39 -45.5t-69 -19q-37 0 -64 13.5t-54.5 29.5t-59 29.5t-77.5 13.5q-37 0 -58 -13.5t-31 -26.5q-12 -15 -30 -10q-12 4 -18 14.5t-2 22.5q5 16 14 37t23.5 40.5t34.5 34.5t47 20q14 13 23.5 32.5t9.5 46.5q0 22 -7 45
t-18 46h-130q-9 0 -15.5 6.5t-6.5 15.5v36q0 9 6.5 15.5t15.5 6.5h91q-12 26 -21 50.5t-9 47.5q0 50 22 87.5t58 63t82.5 38.5t95.5 13q57 0 94.5 -13.5t59 -33.5t28 -43.5t2 -43.5t-17.5 -33.5t-31 -13.5q-29 0 -45 16.5t-29.5 36.5t-28 36.5t-39.5 16.5q-30 0 -53 -27.5
t-23 -85.5q0 -32 11 -58.5t25 -53.5h170q11 0 18 -7t7 -18v-30q0 -11 -7 -18t-18 -7h-142q3 -17 3 -36q0 -46 -27 -80.5t-63 -59.5q27 -6 50 -15t44.5 -17.5t43.5 -14.5t47 -6q38 0 54.5 12.5t21.5 23.5q8 14 25 14z" />
    <glyph glyph-name="currency" unicode="&#xa4;" horiz-adv-x="729" 
d="M680 146q8 -6 8.5 -15.5t-6.5 -16.5l-63 -63q-7 -7 -16.5 -6.5t-15.5 8.5l-98 114q-56 -36 -124 -36q-69 0 -125 36l-98 -114q-6 -8 -15.5 -8.5t-16.5 6.5l-62 63q-8 7 -7.5 16.5t8.5 15.5l114 100q-16 26 -24.5 56.5t-8.5 62.5q0 50 20 95l-101 89q-8 6 -8.5 15.5
t7.5 16.5l62 62q7 7 16.5 7t15.5 -8l79 -92q29 23 65.5 36.5t78.5 13.5q41 0 77.5 -13.5t65.5 -36.5l79 92q6 8 15.5 8t16.5 -7l63 -62q7 -7 6.5 -16.5t-8.5 -15.5l-101 -89q20 -45 20 -95q0 -32 -8.5 -62.5t-24.5 -56.5zM365 227q18 0 33.5 11t27 29.5t18 43.5t6.5 54
t-6.5 54t-18 44t-27 29.5t-33.5 10.5t-33.5 -10.5t-27.5 -29.5t-18.5 -44t-6.5 -54t6.5 -54t18.5 -43.5t27.5 -29.5t33.5 -11z" />
    <glyph glyph-name="yen" unicode="&#xa5;" horiz-adv-x="782" 
d="M742 699q0 -12 -11 -20l-74 -53l-172 -279v-2h101q11 0 18 -7t7 -18v-30q0 -11 -7 -18t-18 -7h-101v-56h101q11 0 18 -7.5t7 -17.5v-31q0 -11 -7 -18t-18 -7h-101v-36l38 -45q6 -8 6 -18q0 -11 -8 -19.5t-20 -8.5h-203q-12 0 -20 8.5t-8 19.5t7 18l38 45v36h-105
q-9 0 -15.5 6.5t-6.5 15.5v36q0 10 6.5 16.5t15.5 6.5h105v56h-105q-9 0 -15.5 6.5t-6.5 15.5v36q0 10 6.5 16t15.5 6h87l-172 281l-75 53q-10 8 -10 20q0 11 7 18.5t18 7.5h297q11 0 19 -8t8 -19q0 -12 -8 -20l-45 -43l108 -186l115 188l-42 41q-9 7 -9 20q0 11 8 19t19 8
h181q11 0 18.5 -7.5t7.5 -18.5z" />
    <glyph glyph-name="brokenbar" unicode="&#xa6;" horiz-adv-x="160" 
d="M95 289q11 0 18 -7t7 -18v-398q0 -11 -7 -18t-18 -7h-30q-11 0 -18 7t-7 18v398q0 11 7 18t18 7h30zM95 828q11 0 18 -7t7 -18v-402q0 -11 -7 -18t-18 -7h-30q-11 0 -18 7t-7 18v402q0 11 7 18t18 7h30z" />
    <glyph glyph-name="section" unicode="&#xa7;" horiz-adv-x="559" 
d="M519 282q0 -66 -30.5 -107t-76.5 -62q35 -26 59 -61t24 -89q0 -53 -20.5 -90t-54 -60t-75 -33.5t-83.5 -10.5q-68 0 -114.5 14.5t-71.5 28.5q-12 7 -19.5 19.5t-7.5 26.5v121q0 8 6 14t14 6q13 0 18 -12q6 -14 20 -39t35 -49.5t48.5 -42.5t60.5 -18q42 0 65 19.5t23 60.5
q0 35 -22 57.5t-55.5 40.5t-72 35.5t-72 41.5t-55.5 59t-22 88q0 33 11 58.5t29.5 44t42 30.5t48.5 19q-22 13 -41.5 28.5t-34 35t-23 45t-8.5 57.5q0 51 24.5 83.5t60 50.5t75 25t68.5 7q63 0 108 -12t71 -23q14 -7 22.5 -19.5t8.5 -28.5v-92q0 -8 -6 -14t-14 -6h-1
q-12 0 -18 11q-6 12 -19 31t-33 38t-47 32.5t-62 13.5q-36 0 -59.5 -17t-23.5 -46t22 -49.5t55.5 -38t72.5 -35.5t72.5 -42.5t55.5 -59t22 -85.5zM195 273q0 -20 10 -35t27 -27.5t39.5 -23.5t46.5 -23q45 17 45 72q0 36 -23.5 59t-58.5 41h-2q-37 0 -60.5 -17t-23.5 -46z
" />
    <glyph glyph-name="dieresis" unicode="&#xa8;" horiz-adv-x="461" 
d="M204 670q0 -34 -24 -58t-58 -24t-58 24t-24 58q0 35 24 59t58 24t58 -24t24 -59zM339 753q34 0 58 -24t24 -59q0 -34 -24 -58t-58 -24q-35 0 -58.5 24t-23.5 58q0 35 23.5 59t58.5 24z" />
    <glyph glyph-name="copyright" unicode="&#xa9;" horiz-adv-x="694" 
d="M502 470q7 -4 9.5 -11t-1.5 -14q-6 -13 -18.5 -31t-33 -34.5t-48.5 -28.5t-66 -12q-42 0 -75.5 13.5t-57 38.5t-36 58.5t-12.5 74.5t14 75t38.5 59t59 38.5t76.5 13.5q45 0 82.5 -15.5t62.5 -50.5q9 -12 10.5 -26t-2 -27t-13 -23.5t-23.5 -15.5q-23 -8 -46 2t-32 33
q-18 47 -35 63t-36 16q-20 0 -32 -18.5t-16 -46t0.5 -60t19 -60t39 -46t60.5 -18.5q16 0 30 5t25.5 12.5t20 15.5t13.5 15q10 12 23 5zM347 831q63 0 119 -24t98 -65.5t66 -97.5t24 -120q0 -63 -24 -119t-66 -97.5t-98 -65.5t-119 -24t-119 24t-98 65.5t-66 97.5t-24 119
q0 64 24 120t66 97.5t98 65.5t119 24zM604 524q0 52 -20 100q-10 23 -24 43.5t-31 38.5q-18 18 -38.5 31.5t-43.5 23.5q-49 20 -100 20t-100 -20q-23 -10 -43.5 -23.5t-38.5 -31.5q-17 -18 -31 -38.5t-24 -43.5q-20 -48 -20 -100q0 -51 20 -99q19 -47 55 -82
q18 -18 38.5 -31.5t43.5 -23.5q46 -20 100 -20t100 20q23 10 43.5 23.5t38.5 31.5q35 35 55 82q20 48 20 99z" />
    <glyph glyph-name="guillemotleft" unicode="&#xab;" horiz-adv-x="626" 
d="M581 143q8 -8 4 -17t-14 -9h-82q-13 0 -22 9l-202 205q-6 6 -6 14t6 14l202 205q9 9 22 9h82q10 0 14 -9t-4 -17l-199 -202zM362 143q8 -8 4 -17t-14 -9h-82q-14 0 -21 9l-203 205q-12 14 0 28l203 205q7 9 21 9h82q10 0 14 -9t-4 -17l-199 -202z" />
    <glyph glyph-name="registered" unicode="&#xae;" horiz-adv-x="694" 
d="M347 831q63 0 119 -24t98 -65.5t66 -97.5t24 -120q0 -63 -24 -119t-66 -97.5t-98 -65.5t-119 -24t-119 24t-98 65.5t-66 97.5t-24 119q0 64 24 120t66 97.5t98 65.5t119 24zM604 524q0 52 -20 100q-10 23 -24 43.5t-31 38.5q-36 35 -82 55q-49 20 -100 20t-100 -20
q-23 -10 -43.5 -23.5t-37.5 -31.5q-37 -37 -56 -82q-20 -48 -20 -100q0 -51 20 -99q20 -47 56 -82q17 -18 37.5 -31.5t43.5 -23.5q46 -20 100 -20t100 20q46 19 82 55q35 35 55 82q20 48 20 99zM507 363q6 -6 6 -11q0 -13 -13 -13h-94q-16 0 -26 14l-75 117v-84l19 -23
q4 -6 4 -9q0 -6 -4.5 -10.5t-10.5 -4.5h-104q-6 0 -10 4.5t-4 10.5q0 4 3 9l20 23v277l-20 23q-3 4 -3 9q0 6 4 10.5t10 4.5h122q29 0 56 -5.5t48 -18.5t33.5 -35t12.5 -55q0 -48 -24 -73t-61 -34l47 -68q26 -35 64 -58zM305 531q0 -8 8 -8q44 0 60 18.5t16 54.5
q0 35 -16 54t-60 19h-8v-138z" />
    <glyph glyph-name="macron" unicode="&#xaf;" horiz-adv-x="420" 
d="M362 678q8 0 13 -5.5t5 -13.5v-52q0 -8 -5 -13.5t-13 -5.5h-303q-8 0 -13.5 5.5t-5.5 13.5v52q0 8 5.5 13.5t13.5 5.5h303v0z" />
    <glyph glyph-name="degree" unicode="&#xb0;" horiz-adv-x="359" 
d="M180 514q-29 0 -54.5 11t-44.5 29.5t-30 44t-11 54.5t11 54.5t30 44t44.5 29.5t54.5 11q28 0 53.5 -11t44.5 -29.5t30 -44t11 -54.5t-11 -54.5t-30 -44t-44.5 -29.5t-53.5 -11zM180 710q-24 0 -41 -16.5t-17 -40.5q0 -23 17 -40t41 -17q23 0 40 17t17 40q0 24 -17 40.5
t-40 16.5z" />
    <glyph glyph-name="plusminus" unicode="&#xb1;" horiz-adv-x="531" 
d="M471 438q8 0 14 -6t6 -14v-50q0 -8 -6 -14t-14 -6h-160v-161q0 -8 -6 -14t-14 -6h-50q-8 0 -14 6t-6 14v161h-161q-8 0 -14 6t-6 14v50q0 8 6 14t14 6h161v161q0 8 6 14t14 6h50q8 0 14 -6t6 -14v-161h160zM471 91q8 0 14 -6t6 -14v-50q0 -8 -6 -14t-14 -6h-411
q-8 0 -14 6t-6 14v50q0 8 6 14t14 6h411z" />
    <glyph glyph-name="twosuperior" unicode="&#xb2;" horiz-adv-x="375" 
d="M318 449q8 0 12.5 -5.5t3.5 -13.5l-14 -84q-2 -14 -16 -14h-247q-8 0 -12.5 5t-4.5 13q3 40 18.5 69.5t37 52t45.5 40.5t44.5 35t34 36t13.5 43q0 22 -8.5 39.5t-28.5 17.5q-18 0 -27.5 -21t-13.5 -59q-1 -13 -8 -23t-17 -16t-22 -7.5t-24 3.5q-18 8 -26.5 25t-3.5 36
q7 28 23 48t36 32t41.5 17.5t41.5 5.5q26 0 50.5 -6.5t44 -20t31 -34t11.5 -48.5q0 -33 -14.5 -54t-36.5 -35t-49 -23.5t-51.5 -20t-43.5 -24t-26 -34.5h140q31 0 55 21q6 4 11 4z" />
    <glyph glyph-name="threesuperior" unicode="&#xb3;" horiz-adv-x="362" 
d="M222 526q42 -8 71 -36.5t29 -71.5q0 -56 -40.5 -87.5t-103.5 -31.5q-51 0 -81 15.5t-47 36.5q-9 12 -10 25.5t5 25t17 19.5t26 8q18 0 31.5 -12t16.5 -30q2 -17 10 -31t28 -14q8 0 17 4t16.5 13.5t12 24.5t4.5 37q0 33 -17.5 54t-52.5 21h-26q-13 0 -13 13v28q0 13 13 13
h26q28 0 44 16.5t16 48.5q0 35 -11.5 50.5t-28.5 15.5t-23.5 -13.5t-8.5 -29.5q-2 -18 -14.5 -30.5t-30.5 -12.5q-14 0 -24 6.5t-16 17t-6 22.5t7 24q14 23 43 41t82 18q52 0 88 -24.5t40 -68.5t-22.5 -70.5t-66.5 -34.5z" />
    <glyph glyph-name="acute" unicode="&#xb4;" horiz-adv-x="334" 
d="M275 768q12 0 16.5 -11.5t-3.5 -20.5l-135 -134q-14 -14 -34 -14h-60q-10 0 -15.5 8.5t-1.5 17.5l53 124q6 14 18.5 22t26.5 8h135v0z" />
    <glyph glyph-name="periodcentered" unicode="&#xb7;" horiz-adv-x="237" 
d="M118 451q33 0 56 -23t23 -55q0 -33 -23 -56t-56 -23q-32 0 -55 23t-23 56q0 32 23 55t55 23z" />
    <glyph glyph-name="cedilla" unicode="&#xb8;" horiz-adv-x="395" 
d="M190 -73q61 -9 100 -34.5t54.5 -58t7 -68.5t-43 -66t-96 -51t-151.5 -23q-8 0 -14.5 6t-6.5 14v58q0 8 6 14t14 6q77 3 111 25t35 47t-26.5 45.5t-72.5 20.5v178h83v-113v0z" />
    <glyph glyph-name="onesuperior" unicode="&#xb9;" horiz-adv-x="245" 
d="M202 357q3 -5 3 -10q0 -6 -4.5 -10.5t-10.5 -4.5h-110q-7 0 -11 4.5t-4 10.5q0 5 3 10l21 25v258l-39 7q-10 2 -10 13q0 8 7 11l113 52q2 1 6 1q6 0 10.5 -4t4.5 -10v-328z" />
    <glyph glyph-name="guillemotright" unicode="&#xbb;" horiz-adv-x="626" 
d="M361 359q6 -6 6 -14t-6 -14l-202 -205q-9 -9 -22 -9h-82q-10 0 -14 9t4 17l200 202l-200 202q-8 8 -4 17t14 9h82q13 0 22 -9zM580 359q14 -14 0 -28l-202 -205q-9 -9 -22 -9h-82q-10 0 -14 9t4 17l200 202l-200 202q-8 8 -4 17t14 9h82q13 0 22 -9z" />
    <glyph glyph-name="onequarter" unicode="&#xbc;" horiz-adv-x="696" 
d="M479 724q11 0 17 -8.5t2 -18.5l-292 -684q-5 -12 -19 -12h-31q-11 0 -17 9t-2 19l292 683q6 12 19 12h31zM205 347q0 -6 -4 -10.5t-11 -4.5h-110q-6 0 -10.5 4.5t-4.5 10.5q0 5 3 10l21 25v258l-38 7q-11 2 -11 13q0 7 7 11l114 52q1 1 6 1q14 0 14 -14v-328l21 -25
q3 -5 3 -10zM640 174q16 0 16 -16v-44q0 -16 -16 -16h-25v-48l21 -24q4 -6 4 -10q0 -6 -4.5 -10.5t-11.5 -4.5h-110q-6 0 -10.5 4.5t-4.5 10.5t4 10l20 24v48h-144q-22 0 -32 20q-11 21 3 40l174 223q9 12 26 12h49q16 0 16 -16v-203h25zM523 316l-110 -142h110v142z" />
    <glyph glyph-name="onehalf" unicode="&#xbd;" horiz-adv-x="722" 
d="M480 724q11 0 17 -8.5t1 -18.5l-292 -684q-5 -12 -18 -12h-32q-11 0 -17 9t-1 19l292 683q4 12 18 12h32zM206 347q0 -6 -4.5 -10.5t-10.5 -4.5h-111q-6 0 -10.5 4.5t-4.5 10.5t4 10l20 25v258l-38 7q-11 2 -11 13q0 8 8 11l113 52q2 1 6 1q14 0 14 -14v-328l21 -25
q4 -6 4 -10zM665 117q8 0 13 -5.5t3 -12.5l-13 -84q-2 -14 -16 -14h-248q-7 0 -12 5t-4 12q3 41 18.5 70t36.5 52t45.5 40.5t44.5 35t33.5 36t13.5 43.5q0 21 -8.5 38.5t-28.5 17.5q-34 0 -40 -79q-3 -26 -25 -39.5t-46 -3.5q-19 8 -27.5 25t-3.5 36q7 28 23 48t36 32
t41.5 17.5t41.5 5.5q26 0 50.5 -6.5t44 -20t31 -34t11.5 -48.5q0 -33 -14.5 -54t-36.5 -35.5t-48.5 -24t-51 -19.5t-43.5 -23.5t-26 -34.5h139q31 0 56 20q4 4 10 4z" />
    <glyph glyph-name="threequarters" unicode="&#xbe;" horiz-adv-x="813" 
d="M596 724q11 0 17 -8.5t2 -18.5l-292 -684q-5 -12 -19 -12h-31q-11 0 -17 9t-2 19l292 683q2 6 7.5 9t11.5 3h31zM322 418q0 -56 -40 -87.5t-103 -31.5q-51 0 -81 15.5t-47 36.5q-9 12 -10 25.5t4.5 25t16.5 19.5t26 8q18 0 32 -12t16 -30q2 -17 10 -31t28 -14
q17 0 34 17.5t17 61.5q0 33 -18 54t-53 21h-26q-13 0 -13 13v28q0 13 13 13h26q28 0 44 16.5t16 48.5q0 35 -11.5 50.5t-28.5 15.5t-23.5 -13.5t-7.5 -29.5q-2 -18 -15 -30.5t-31 -12.5q-14 0 -24 6.5t-16 17t-6 22.5t7 24q14 23 43.5 41t82.5 18q52 0 88 -24.5t40 -68.5
q2 -22 -4.5 -39.5t-19 -30.5t-29.5 -22t-37 -13q42 -8 71 -36.5t29 -71.5zM757 174q16 0 16 -16v-44q0 -16 -16 -16h-25v-48l21 -24q4 -6 4 -10q0 -6 -4.5 -10.5t-11.5 -4.5h-110q-6 0 -10.5 4.5t-4.5 10.5q0 5 3 10l21 24v48h-144q-21 0 -33 20q-10 21 4 40l174 223
q9 12 26 12h49q16 0 16 -16v-203h25zM640 316l-110 -142h110v142z" />
    <glyph glyph-name="questiondown" unicode="&#xbf;" horiz-adv-x="506" 
d="M320.011 440.011q-18.999 0 -35.998 7.5q-16.999 7.49902 -29.498 19.998t-19.999 29.498q-7.49902 16.999 -7.49902 35.998t7.49902 35.998q7.5 16.999 19.999 29.498t29.498 19.499q16.999 6.99902 35.998 6.99902t35.9971 -6.99902q16.999 -7 29.499 -19.499
q12.499 -12.499 19.498 -29.498q7 -16.999 7 -35.998t-7 -35.998q-6.99902 -16.999 -19.498 -29.498q-12.5 -12.499 -29.499 -19.998q-16.998 -7.5 -35.9971 -7.5zM26.0283 45.0352q0 38.9971 14.499 64.9961q14.499 25.998 36.498 45.9971t48.4971 36.9971
q26.498 16.999 50.4971 37.498q23.998 20.499 42.9971 46.4971q18.999 25.999 24.999 63.9961q1.99902 14.999 13.999 24.999q11.999 9.99902 27.998 9.99902h54.9961q12 0 20.999 -5.5q9 -5.49902 14.999 -13.999q6 -8.49902 7 -18.999q1 -10.499 -4 -21.498
q-9.99902 -22.999 -27.498 -41.498t-37.498 -35.4971q-19.999 -16.999 -40.4971 -33.998q-20.499 -16.999 -36.498 -37.498t-26.498 -46.9971q-10.5 -26.498 -10.5 -62.4961q0 -38.998 12.999 -63.9961q13 -24.999 37.998 -24.999q22.999 0 32.998 21.999t13.999 54.9971
q2 18.998 11.999 33.998q10 14.999 24.999 23.998t32.498 10.499t34.498 -5.49902l1 -1q16.998 -7 28.498 -19.499q11.499 -12.499 15.999 -27.998q4.49902 -15.499 2.5 -32.498q-2 -16.999 -12 -31.998q-33.998 -52.9971 -84.4941 -78.9951
q-50.4971 -25.999 -113.493 -25.999q-47.9971 0 -87.4951 9.5q-39.4971 9.49902 -67.9961 28.998q-28.498 19.499 -43.9971 47.9971t-15.499 67.4961z" />
    <glyph glyph-name="Agrave" unicode="&#xc0;" horiz-adv-x="780" 
d="M762 47q8 -8 8 -19t-8.5 -19t-19.5 -8h-275q-11 0 -19 8t-8 19t8 19l55 52l-49 112h-222l-50 -113l53 -51q8 -8 8 -19t-8 -19t-19 -8h-179q-11 0 -19 8t-8 19q0 10 7 19l69 71l268 604q11 23 36 23t35 -23l268 -604zM420 291l-75 175l-78 -175h153zM446 814
q5 -9 -0.5 -17.5t-16.5 -8.5h-60q-20 0 -34 14l-134 134q-9 9 -4.5 20.5t17.5 11.5h134q15 0 27 -8t18 -22z" />
    <glyph glyph-name="Aacute" unicode="&#xc1;" horiz-adv-x="780" 
d="M762 47q8 -8 8 -19t-8.5 -19t-19.5 -8h-275q-11 0 -19 8t-8 19t8 19l55 52l-49 112h-222l-50 -113l53 -51q8 -8 8 -19t-8 -19t-19 -8h-179q-11 0 -19 8t-8 19q0 10 7 19l69 71l268 604q11 23 36 23t35 -23l268 -604zM420 291l-75 175l-78 -175h153zM551 968
q12 0 16.5 -11.5t-3.5 -20.5l-135 -134q-14 -14 -34 -14h-60q-10 0 -15.5 8.5t-1.5 17.5l53 124q6 14 18.5 22t26.5 8h135v0z" />
    <glyph glyph-name="Acircumflex" unicode="&#xc2;" horiz-adv-x="780" 
d="M762 47q8 -8 8 -19t-8.5 -19t-19.5 -8h-275q-11 0 -19 8t-8 19t8 19l55 52l-49 112h-222l-50 -113l53 -51q8 -8 8 -19t-8 -19t-19 -8h-179q-11 0 -19 8t-8 19q0 10 7 19l69 71l268 604q11 23 36 23t35 -23l268 -604zM420 291l-75 175l-78 -175h153zM589 812q5 -8 1 -16
t-13 -8h-89q-16 0 -24 13l-74 107l-73 -107q-10 -13 -25 -13h-88q-10 0 -14 8t2 16l123 166q10 12 24 12h102q14 0 24 -12z" />
    <glyph glyph-name="Atilde" unicode="&#xc3;" horiz-adv-x="780" 
d="M762 47q8 -8 8 -19t-8.5 -19t-19.5 -8h-275q-11 0 -19 8t-8 19t8 19l55 52l-49 112h-222l-50 -113l53 -51q8 -8 8 -19t-8 -19t-19 -8h-179q-11 0 -19 8t-8 19q0 10 7 19l69 71l268 604q11 23 36 23t35 -23l268 -604zM420 291l-75 175l-78 -175h153zM487 973
q28 0 49 -16.5t35.5 -40t23.5 -48.5t13 -43q3 -10 -1.5 -18.5t-13.5 -12.5q-8 -4 -17 -2.5t-15 9.5q-14 16 -37 31.5t-49 15.5q-25 0 -45.5 -10.5t-41.5 -23.5t-44 -23.5t-52 -10.5q-27 0 -47 15t-35 37t-24.5 46t-14.5 41q-3 11 1.5 21.5t14.5 15.5h1q10 5 20.5 2.5
t17.5 -10.5q12 -16 33 -32.5t49 -16.5q23 0 43 11.5t40.5 25.5t43.5 25.5t52 11.5z" />
    <glyph glyph-name="Adieresis" unicode="&#xc4;" horiz-adv-x="780" 
d="M762 47q8 -8 8 -19t-8.5 -19t-19.5 -8h-275q-11 0 -19 8t-8 19t8 19l55 52l-49 112h-222l-50 -113l53 -51q8 -8 8 -19t-8 -19t-19 -8h-179q-11 0 -19 8t-8 19q0 10 7 19l69 71l268 604q11 23 36 23t35 -23l268 -604zM420 291l-75 175l-78 -175h153zM363 870
q0 -34 -24 -58t-58 -24t-58 24t-24 58q0 35 24 59t58 24t58 -24t24 -59zM498 953q34 0 58 -24t24 -59q0 -34 -24 -58t-58 -24q-35 0 -58.5 24t-23.5 58q0 35 23.5 59t58.5 24z" />
    <glyph glyph-name="Aring" unicode="&#xc5;" horiz-adv-x="780" 
d="M762 47q8 -8 8 -19t-8.5 -19t-19.5 -8h-275q-11 0 -19 8t-8 19t8 19l55 52l-49 112h-222l-50 -113l53 -51q8 -8 8 -19t-8 -19t-19 -8h-179q-11 0 -19 8t-8 19q0 10 7 19l69 71l268 604q11 23 36 23t35 -23l268 -604zM420 291l-75 175l-78 -175h153zM390 1025
q24 0 45.5 -9.5t37.5 -25.5t25.5 -37.5t9.5 -45.5q0 -25 -9.5 -46.5t-25.5 -37.5t-37.5 -25.5t-45.5 -9.5t-45.5 9.5t-37.5 25.5t-25.5 37.5t-9.5 46.5q0 24 9.5 45.5t25.5 37.5t37.5 25.5t45.5 9.5zM390 857q16 0 26.5 14.5t10.5 35.5q0 20 -10.5 34.5t-26.5 14.5
t-26.5 -14.5t-10.5 -34.5q0 -21 10.5 -35.5t26.5 -14.5z" />
    <glyph glyph-name="AE" unicode="&#xc6;" horiz-adv-x="1076" 
d="M1018 161q11 0 19.5 -8t8.5 -20v-102q0 -13 -9 -21.5t-21 -8.5h-522q-11 0 -19.5 8.5t-8.5 19.5q0 9 7 18l38 45v99h-269l-60 -93l53 -51q8 -8 8 -19t-8 -19t-19 -8h-179q-11 0 -19 8t-8 19q0 12 7 19l69 71l373 565q13 20 34 31t44 11h459q12 0 21 -9t9 -21v-103
q0 -11 -8.5 -19.5t-19.5 -8.5q-9 0 -18 7q-43 36 -94.5 55t-107.5 19h-97v-242h160l65 66q7 8 19 8q11 0 19 -7.5t8 -18.5v-176q0 -11 -8 -19t-19 -8t-19 8l-65 67h-160v-182q0 -25 17.5 -42.5t42.5 -17.5h57q56 0 107.5 19t94.5 55q7 6 18 6zM511 271v331l-216 -331h216z
" />
    <glyph glyph-name="Ccedilla" unicode="&#xc7;" horiz-adv-x="701" 
d="M653 226q12 -6 16 -18.5t-2 -24.5q-12 -23 -34.5 -56t-58.5 -63t-86 -51.5t-116 -21.5q-48 0 -107 18t-111.5 60.5t-88 113t-35.5 175.5t35.5 175.5t88 113t111.5 60.5t107 18q42 0 83 -8.5t78.5 -28t69 -52.5t54.5 -81q9 -20 9.5 -40.5t-6.5 -39t-21 -33t-34 -22.5
l-1 -1q-21 -9 -42.5 -7.5t-39.5 10.5t-32 25.5t-20 38.5q-20 75 -63.5 110.5t-95.5 30.5q-27 -3 -46 -21t-30 -47t-16 -65.5t-5 -76.5q0 -56 16 -110.5t45.5 -98.5t72 -71t96.5 -27q33 0 60.5 11t48.5 27t36 34t24 32q6 10 17.5 13.5t22.5 -1.5zM400 -73q61 -9 100 -34.5
t54.5 -58t7 -68.5t-43 -66t-96 -51t-151.5 -23q-8 0 -14.5 6t-6.5 14v58q0 8 6 14t14 6q77 3 111 25t35 47t-26.5 45.5t-72.5 20.5v178h83v-113v0z" />
    <glyph glyph-name="Egrave" unicode="&#xc8;" horiz-adv-x="640" 
d="M582 161q11 0 19.5 -8t8.5 -20v-102q0 -13 -8.5 -21.5t-21.5 -8.5h-522q-11 0 -19.5 8.5t-8.5 19.5q0 9 7 18l38 45v541l-38 46q-7 9 -7 18q0 11 8.5 19.5t19.5 8.5h502q13 0 21.5 -9t8.5 -21v-103q0 -11 -8.5 -19.5t-19.5 -8.5q-9 0 -18 7q-43 36 -94.5 55t-107.5 19
h-97v-242h160l65 66q7 8 19 8q11 0 19 -7.5t8 -18.5v-176q0 -11 -8 -19t-19 -8t-19 8l-65 67h-160v-182q0 -25 17.5 -42.5t42.5 -17.5h57q56 0 107.5 19t94.5 55q7 6 18 6zM397 814q5 -9 -0.5 -17.5t-16.5 -8.5h-60q-20 0 -34 14l-134 134q-9 9 -4.5 20.5t17.5 11.5h134
q15 0 27 -8t18 -22z" />
    <glyph glyph-name="Eacute" unicode="&#xc9;" horiz-adv-x="640" 
d="M582 161q11 0 19.5 -8t8.5 -20v-102q0 -13 -8.5 -21.5t-21.5 -8.5h-522q-11 0 -19.5 8.5t-8.5 19.5q0 9 7 18l38 45v541l-38 46q-7 9 -7 18q0 11 8.5 19.5t19.5 8.5h502q13 0 21.5 -9t8.5 -21v-103q0 -11 -8.5 -19.5t-19.5 -8.5q-9 0 -18 7q-43 36 -94.5 55t-107.5 19
h-97v-242h160l65 66q7 8 19 8q11 0 19 -7.5t8 -18.5v-176q0 -11 -8 -19t-19 -8t-19 8l-65 67h-160v-182q0 -25 17.5 -42.5t42.5 -17.5h57q56 0 107.5 19t94.5 55q7 6 18 6zM468 968q12 0 16.5 -11.5t-3.5 -20.5l-135 -134q-14 -14 -34 -14h-60q-10 0 -15.5 8.5t-1.5 17.5
l53 124q6 14 18.5 22t26.5 8h135v0z" />
    <glyph glyph-name="Ecircumflex" unicode="&#xca;" horiz-adv-x="640" 
d="M582 161q11 0 19.5 -8t8.5 -20v-102q0 -13 -8.5 -21.5t-21.5 -8.5h-522q-11 0 -19.5 8.5t-8.5 19.5q0 9 7 18l38 45v541l-38 46q-7 9 -7 18q0 11 8.5 19.5t19.5 8.5h502q13 0 21.5 -9t8.5 -21v-103q0 -11 -8.5 -19.5t-19.5 -8.5q-9 0 -18 7q-43 36 -94.5 55t-107.5 19
h-97v-242h160l65 66q7 8 19 8q11 0 19 -7.5t8 -18.5v-176q0 -11 -8 -19t-19 -8t-19 8l-65 67h-160v-182q0 -25 17.5 -42.5t42.5 -17.5h57q56 0 107.5 19t94.5 55q7 6 18 6zM519 812q5 -8 1 -16t-13 -8h-89q-16 0 -24 13l-74 107l-73 -107q-10 -13 -25 -13h-88q-10 0 -14 8
t2 16l123 166q10 12 24 12h102q14 0 24 -12z" />
    <glyph glyph-name="Edieresis" unicode="&#xcb;" horiz-adv-x="640" 
d="M582 161q11 0 19.5 -8t8.5 -20v-102q0 -13 -8.5 -21.5t-21.5 -8.5h-522q-11 0 -19.5 8.5t-8.5 19.5q0 9 7 18l38 45v541l-38 46q-7 9 -7 18q0 11 8.5 19.5t19.5 8.5h502q13 0 21.5 -9t8.5 -21v-103q0 -11 -8.5 -19.5t-19.5 -8.5q-9 0 -18 7q-43 36 -94.5 55t-107.5 19
h-97v-242h160l65 66q7 8 19 8q11 0 19 -7.5t8 -18.5v-176q0 -11 -8 -19t-19 -8t-19 8l-65 67h-160v-182q0 -25 17.5 -42.5t42.5 -17.5h57q56 0 107.5 19t94.5 55q7 6 18 6zM293 870q0 -34 -24 -58t-58 -24t-58 24t-24 58q0 35 24 59t58 24t58 -24t24 -59zM428 953
q34 0 58 -24t24 -59q0 -34 -24 -58t-58 -24q-35 0 -58.5 24t-23.5 58q0 35 23.5 59t58.5 24z" />
    <glyph glyph-name="Igrave" unicode="&#xcc;" horiz-adv-x="320" 
d="M262 725q11 0 19.5 -8.5t8.5 -19.5q0 -9 -7 -18l-38 -46v-541l38 -45q7 -9 7 -18q0 -11 -8.5 -19.5t-19.5 -8.5h-204q-11 0 -19.5 8.5t-8.5 19.5q0 9 7 18l38 45v541l-38 46q-7 9 -7 18q0 11 8.5 19.5t19.5 8.5h204v0zM227 814q5 -9 -0.5 -17.5t-16.5 -8.5h-60
q-20 0 -34 14l-134 134q-9 9 -4.5 20.5t17.5 11.5h134q15 0 27 -8t18 -22z" />
    <glyph glyph-name="Iacute" unicode="&#xcd;" horiz-adv-x="320" 
d="M262 725q11 0 19.5 -8.5t8.5 -19.5q0 -9 -7 -18l-38 -46v-541l38 -45q7 -9 7 -18q0 -11 -8.5 -19.5t-19.5 -8.5h-204q-11 0 -19.5 8.5t-8.5 19.5q0 9 7 18l38 45v541l-38 46q-7 9 -7 18q0 11 8.5 19.5t19.5 8.5h204v0zM312 968q12 0 16.5 -11.5t-3.5 -20.5l-135 -134
q-14 -14 -34 -14h-60q-10 0 -15.5 8.5t-1.5 17.5l53 124q6 14 18.5 22t26.5 8h135v0z" />
    <glyph glyph-name="Icircumflex" unicode="&#xce;" horiz-adv-x="320" 
d="M262 725q11 0 19.5 -8.5t8.5 -19.5q0 -9 -7 -18l-38 -46v-541l38 -45q7 -9 7 -18q0 -11 -8.5 -19.5t-19.5 -8.5h-204q-11 0 -19.5 8.5t-8.5 19.5q0 9 7 18l38 45v541l-38 46q-7 9 -7 18q0 11 8.5 19.5t19.5 8.5h204v0zM359 812q5 -8 1 -16t-13 -8h-89q-16 0 -24 13
l-74 107l-73 -107q-10 -13 -25 -13h-88q-10 0 -14 8t2 16l123 166q10 12 24 12h102q14 0 24 -12z" />
    <glyph glyph-name="Idieresis" unicode="&#xcf;" horiz-adv-x="320" 
d="M262 725q11 0 19.5 -8.5t8.5 -19.5q0 -9 -7 -18l-38 -46v-541l38 -45q7 -9 7 -18q0 -11 -8.5 -19.5t-19.5 -8.5h-204q-11 0 -19.5 8.5t-8.5 19.5q0 9 7 18l38 45v541l-38 46q-7 9 -7 18q0 11 8.5 19.5t19.5 8.5h204v0zM134 870q0 -34 -24 -58t-58 -24t-58 24t-24 58
q0 35 24 59t58 24t58 -24t24 -59zM269 953q34 0 58 -24t24 -59q0 -34 -24 -58t-58 -24q-35 0 -58.5 24t-23.5 58q0 35 23.5 59t58.5 24z" />
    <glyph glyph-name="Eth" unicode="&#xd0;" horiz-adv-x="689" 
d="M276 725q117 0 191.5 -32t117 -83.5t58.5 -116t16 -130.5t-16 -130.5t-58.5 -116t-117 -83.5t-191.5 -32h-218q-12 0 -20 8.5t-8 19.5q0 10 6 18l38 45v541l-38 46q-6 7 -6 18t8 19.5t20 8.5h218zM290 81q52 0 88.5 21t58.5 58.5t32 89t10 113.5t-10 113.5t-32 89
t-58.5 58.5t-88.5 21h-46v-564h46zM366 327q0 -12 -8.5 -21t-21.5 -9h-324q-12 0 -21 9t-9 21v55q0 13 9 21.5t21 8.5h324q13 0 21.5 -8.5t8.5 -21.5v-55z" />
    <glyph glyph-name="Ntilde" unicode="&#xd1;" horiz-adv-x="700" 
d="M642 725q12 0 20 -8.5t8 -19.5t-6 -18l-38 -46v-546q0 -40 -28 -68t-68 -28q-26 0 -47.5 12.5t-34.5 34.5l-283 475v-421l38 -45q7 -9 7 -18q0 -11 -8.5 -19.5t-19.5 -8.5h-124q-11 0 -19.5 8.5t-8.5 19.5q0 9 7 18l38 45v541l-38 46q-7 9 -7 18q0 11 8.5 19.5t19.5 8.5
h188q17 0 30.5 -8t21.5 -22l238 -405v343l-39 46q-6 7 -6 18t8 19.5t20 8.5h123v0zM447 973q28 0 49 -16.5t35.5 -40t23.5 -48.5t13 -43q3 -10 -1.5 -18.5t-13.5 -12.5q-8 -4 -17 -2.5t-15 9.5q-14 16 -37 31.5t-49 15.5q-25 0 -45.5 -10.5t-41.5 -23.5t-44 -23.5t-52 -10.5
q-27 0 -47 15t-35 37t-24.5 46t-14.5 41q-3 11 1.5 21.5t14.5 15.5h1q10 5 20.5 2.5t17.5 -10.5q12 -16 33 -32.5t49 -16.5q23 0 43 11.5t40.5 25.5t43.5 25.5t52 11.5z" />
    <glyph glyph-name="Ograve" unicode="&#xd2;" horiz-adv-x="744" 
d="M372 730q48 0 107 -18t111.5 -60.5t88 -113t35.5 -175.5t-35.5 -175.5t-88 -113t-111.5 -60.5t-107 -18t-107 18t-111.5 60.5t-88 113t-35.5 175.5t35.5 175.5t88 113t111.5 60.5t107 18zM429 92q25 5 49 22.5t39.5 53t18 90.5t-14.5 136t-42 130.5t-53.5 75.5t-57 32.5
t-53.5 1.5q-25 -6 -49 -23.5t-39.5 -52.5t-18 -90.5t14.5 -136.5t42 -130t53.5 -75t57 -32.5t53.5 -1.5zM413 814q5 -9 -0.5 -17.5t-16.5 -8.5h-60q-20 0 -34 14l-134 134q-9 9 -4.5 20.5t17.5 11.5h134q15 0 27 -8t18 -22z" />
    <glyph glyph-name="Oacute" unicode="&#xd3;" horiz-adv-x="744" 
d="M372 730q48 0 107 -18t111.5 -60.5t88 -113t35.5 -175.5t-35.5 -175.5t-88 -113t-111.5 -60.5t-107 -18t-107 18t-111.5 60.5t-88 113t-35.5 175.5t35.5 175.5t88 113t111.5 60.5t107 18zM429 92q25 5 49 22.5t39.5 53t18 90.5t-14.5 136t-42 130.5t-53.5 75.5t-57 32.5
t-53.5 1.5q-25 -6 -49 -23.5t-39.5 -52.5t-18 -90.5t14.5 -136.5t42 -130t53.5 -75t57 -32.5t53.5 -1.5zM513 968q12 0 16.5 -11.5t-3.5 -20.5l-135 -134q-14 -14 -34 -14h-60q-10 0 -15.5 8.5t-1.5 17.5l53 124q6 14 18.5 22t26.5 8h135v0z" />
    <glyph glyph-name="Ocircumflex" unicode="&#xd4;" horiz-adv-x="744" 
d="M372 730q48 0 107 -18t111.5 -60.5t88 -113t35.5 -175.5t-35.5 -175.5t-88 -113t-111.5 -60.5t-107 -18t-107 18t-111.5 60.5t-88 113t-35.5 175.5t35.5 175.5t88 113t111.5 60.5t107 18zM429 92q25 5 49 22.5t39.5 53t18 90.5t-14.5 136t-42 130.5t-53.5 75.5t-57 32.5
t-53.5 1.5q-25 -6 -49 -23.5t-39.5 -52.5t-18 -90.5t14.5 -136.5t42 -130t53.5 -75t57 -32.5t53.5 -1.5zM571 812q5 -8 1 -16t-13 -8h-89q-16 0 -24 13l-74 107l-73 -107q-10 -13 -25 -13h-88q-10 0 -14 8t2 16l123 166q10 12 24 12h102q14 0 24 -12z" />
    <glyph glyph-name="Otilde" unicode="&#xd5;" horiz-adv-x="744" 
d="M372 730q48 0 107 -18t111.5 -60.5t88 -113t35.5 -175.5t-35.5 -175.5t-88 -113t-111.5 -60.5t-107 -18t-107 18t-111.5 60.5t-88 113t-35.5 175.5t35.5 175.5t88 113t111.5 60.5t107 18zM429 92q25 5 49 22.5t39.5 53t18 90.5t-14.5 136t-42 130.5t-53.5 75.5t-57 32.5
t-53.5 1.5q-25 -6 -49 -23.5t-39.5 -52.5t-18 -90.5t14.5 -136.5t42 -130t53.5 -75t57 -32.5t53.5 -1.5zM469 973q28 0 49 -16.5t35.5 -40t23.5 -48.5t13 -43q3 -10 -1.5 -18.5t-13.5 -12.5q-8 -4 -17 -2.5t-15 9.5q-14 16 -37 31.5t-49 15.5q-25 0 -45.5 -10.5t-41.5 -23.5
t-44 -23.5t-52 -10.5q-27 0 -47 15t-35 37t-24.5 46t-14.5 41q-3 11 1.5 21.5t14.5 15.5h1q10 5 20.5 2.5t17.5 -10.5q12 -16 33 -32.5t49 -16.5q23 0 43 11.5t40.5 25.5t43.5 25.5t52 11.5z" />
    <glyph glyph-name="Odieresis" unicode="&#xd6;" horiz-adv-x="744" 
d="M372 730q48 0 107 -18t111.5 -60.5t88 -113t35.5 -175.5t-35.5 -175.5t-88 -113t-111.5 -60.5t-107 -18t-107 18t-111.5 60.5t-88 113t-35.5 175.5t35.5 175.5t88 113t111.5 60.5t107 18zM429 92q25 5 49 22.5t39.5 53t18 90.5t-14.5 136t-42 130.5t-53.5 75.5t-57 32.5
t-53.5 1.5q-25 -6 -49 -23.5t-39.5 -52.5t-18 -90.5t14.5 -136.5t42 -130t53.5 -75t57 -32.5t53.5 -1.5zM345 870q0 -34 -24 -58t-58 -24t-58 24t-24 58q0 35 24 59t58 24t58 -24t24 -59zM480 953q34 0 58 -24t24 -59q0 -34 -24 -58t-58 -24q-35 0 -58.5 24t-23.5 58
q0 35 23.5 59t58.5 24z" />
    <glyph glyph-name="multiply" unicode="&#xd7;" horiz-adv-x="447" 
d="M401 512q6 -6 6 -14t-6 -14l-114 -114l114 -113q6 -6 6 -14.5t-6 -14.5l-35 -35q-6 -6 -14.5 -6t-14.5 6l-113 114l-114 -114q-6 -6 -14 -6t-14 6l-36 35q-5 6 -5 14.5t5 14.5l114 113l-114 114q-12 14 0 28l36 35q14 14 28 0l114 -113l113 113q6 6 14.5 6t14.5 -6
l35 -35v0z" />
    <glyph glyph-name="Oslash" unicode="&#xd8;" horiz-adv-x="744" 
d="M625 619q40 -43 64.5 -105.5t24.5 -150.5q0 -105 -35.5 -175.5t-88 -113t-111.5 -60.5t-107 -18q-46 0 -103 16.5t-108 55.5l-47 -56q-9 -11 -23 -11h-40q-6 0 -9 5.5t2 10.5l75 90q-39 43 -64 105.5t-25 150.5q0 105 35.5 175.5t88 113t111.5 60.5t107 18
q46 0 103 -16.5t108 -55.5l47 56q9 11 23 11h40q6 0 9 -6t-1 -11zM223 331q10 -44 21 -76l232 276q-18 36 -38.5 58t-41.5 33t-42 13.5t-39 -1.5q-25 -6 -49 -23.5t-39.5 -52.5t-18 -90.5t14.5 -136.5zM521 394q-5 22 -10 41t-10 36l-233 -276q18 -36 39 -58t42 -33.5
t42 -13.5t39 2q25 5 48.5 22.5t39 53t18 90.5t-14.5 136z" />
    <glyph glyph-name="Ugrave" unicode="&#xd9;" 
d="M658 725q12 0 20 -8.5t8 -19.5t-6 -18l-38 -46v-371q0 -60 -16 -110t-49.5 -85.5t-86.5 -55.5t-126 -20q-74 0 -128.5 19.5t-90.5 54.5t-53.5 83t-17.5 104v381l-38 46q-6 7 -6 18t8 19.5t20 8.5h203q12 0 20 -8.5t8 -19.5t-7 -18l-38 -46v-401q0 -69 39.5 -111
t114.5 -42t114.5 42t39.5 111v401l-38 46q-7 7 -7 18t8.5 19.5t19.5 8.5h123v0zM438 814q5 -9 -0.5 -17.5t-16.5 -8.5h-60q-20 0 -34 14l-134 134q-9 9 -4.5 20.5t17.5 11.5h134q15 0 27 -8t18 -22z" />
    <glyph glyph-name="Uacute" unicode="&#xda;" 
d="M658 725q12 0 20 -8.5t8 -19.5t-6 -18l-38 -46v-371q0 -60 -16 -110t-49.5 -85.5t-86.5 -55.5t-126 -20q-74 0 -128.5 19.5t-90.5 54.5t-53.5 83t-17.5 104v381l-38 46q-6 7 -6 18t8 19.5t20 8.5h203q12 0 20 -8.5t8 -19.5t-7 -18l-38 -46v-401q0 -69 39.5 -111
t114.5 -42t114.5 42t39.5 111v401l-38 46q-7 7 -7 18t8.5 19.5t19.5 8.5h123v0zM544 968q12 0 16.5 -11.5t-3.5 -20.5l-135 -134q-14 -14 -34 -14h-60q-10 0 -15.5 8.5t-1.5 17.5l53 124q6 14 18.5 22t26.5 8h135v0z" />
    <glyph glyph-name="Ucircumflex" unicode="&#xdb;" 
d="M658 725q12 0 20 -8.5t8 -19.5t-6 -18l-38 -46v-371q0 -60 -16 -110t-49.5 -85.5t-86.5 -55.5t-126 -20q-74 0 -128.5 19.5t-90.5 54.5t-53.5 83t-17.5 104v381l-38 46q-6 7 -6 18t8 19.5t20 8.5h203q12 0 20 -8.5t8 -19.5t-7 -18l-38 -46v-401q0 -69 39.5 -111
t114.5 -42t114.5 42t39.5 111v401l-38 46q-7 7 -7 18t8.5 19.5t19.5 8.5h123v0zM557 812q5 -8 1 -16t-13 -8h-89q-16 0 -24 13l-74 107l-73 -107q-10 -13 -25 -13h-88q-10 0 -14 8t2 16l123 166q10 12 24 12h102q14 0 24 -12z" />
    <glyph glyph-name="Udieresis" unicode="&#xdc;" 
d="M658 725q12 0 20 -8.5t8 -19.5t-6 -18l-38 -46v-371q0 -60 -16 -110t-49.5 -85.5t-86.5 -55.5t-126 -20q-74 0 -128.5 19.5t-90.5 54.5t-53.5 83t-17.5 104v381l-38 46q-6 7 -6 18t8 19.5t20 8.5h203q12 0 20 -8.5t8 -19.5t-7 -18l-38 -46v-401q0 -69 39.5 -111
t114.5 -42t114.5 42t39.5 111v401l-38 46q-7 7 -7 18t8.5 19.5t19.5 8.5h123v0zM331 870q0 -34 -24 -58t-58 -24t-58 24t-24 58q0 35 24 59t58 24t58 -24t24 -59zM466 953q34 0 58 -24t24 -59q0 -34 -24 -58t-58 -24q-35 0 -58.5 24t-23.5 58q0 35 23.5 59t58.5 24z" />
    <glyph glyph-name="Yacute" unicode="&#xdd;" horiz-adv-x="722" 
d="M687 725q11 0 18 -7.5t7 -18.5q0 -12 -10 -20l-75 -53l-172 -279v-255l38 -45q7 -7 7 -18t-8.5 -19.5t-19.5 -8.5h-203q-12 0 -20 8.5t-8 19.5q0 10 6 18l38 45v225l-190 309l-74 53q-11 8 -11 20q0 11 7.5 18.5t18.5 7.5h297q11 0 19 -8t8 -19q0 -13 -9 -20l-44 -43
l107 -186l116 188l-43 41q-8 8 -8 20q0 11 8 19t19 8h181v0zM556 968q12 0 16.5 -11.5t-3.5 -20.5l-135 -134q-14 -14 -34 -14h-60q-10 0 -15.5 8.5t-1.5 17.5l53 124q6 14 18.5 22t26.5 8h135v0z" />
    <glyph glyph-name="Thorn" unicode="&#xde;" horiz-adv-x="619" 
d="M295 586q58 0 111 -10t93.5 -35.5t65 -68.5t24.5 -109t-24.5 -109t-65 -68.5t-93.5 -35.5t-111 -10h-51v-48l38 -45q7 -7 7 -18t-8.5 -19.5t-19.5 -8.5h-203q-12 0 -20 8.5t-8 19.5q0 10 6 18l38 45v541l-38 46q-6 7 -6 18t8 19.5t20 8.5h203q11 0 19.5 -8.5t8.5 -19.5
t-7 -18l-38 -46v-47h51zM300 220q48 0 78.5 36.5t30.5 106.5q0 35 -7.5 61.5t-24.5 44.5t-46 27.5t-71 9.5h-16v-230q0 -23 16.5 -39.5t39.5 -16.5z" />
    <glyph glyph-name="germandbls" unicode="&#xdf;" horiz-adv-x="650" 
d="M459 367q32 -13 61 -31t51.5 -41t35.5 -51t13 -61q0 -81 -59.5 -131.5t-175.5 -50.5h-33q-17 0 -29.5 12.5t-12.5 29.5q0 15 10 26.5t25 14.5q18 3 35 10.5t30.5 21.5t21.5 35.5t8 51.5q0 29 -6 49.5t-16.5 34t-25 21.5t-31.5 11q-19 4 -30.5 19t-9.5 34q2 12 8 22.5
t17 16.5q45 25 66.5 65t18.5 77.5t-32.5 64.5t-87.5 27q-28 0 -47 -19.5t-19 -47.5v-536q0 -39 -14.5 -73t-40 -59.5t-59.5 -40t-73 -14.5q-12 0 -20 8t-8 20q0 10 6 18q39 45 39 104v358h-17q-12 0 -20 8t-8 20q0 10 6 18l39 45v-10q0 58 22 109t60 89.5t89 60.5t109 22
q57 0 99 -18.5t68 -49t36 -69t2.5 -78t-32.5 -77.5t-69 -66z" />
    <glyph glyph-name="agrave" unicode="&#xe0;" horiz-adv-x="596" 
d="M559 47q7 -7 7 -18t-8.5 -19.5t-19.5 -8.5h-114q-26 0 -46 16.5t-25 41.5q-29 -26 -69.5 -47t-90.5 -21q-34 0 -64 8.5t-52 25t-34.5 41.5t-12.5 58q0 34 17 61.5t45 48t63 35.5t71 25t68.5 16t56.5 9v32q0 35 -7 59.5t-19 39.5t-27 22t-31 7q-17 0 -29.5 -7.5
t-20.5 -19.5t-13 -28.5t-8 -34.5q-3 -23 -21 -39t-42 -16q-20 0 -35 10t-23 25t-7 33t13 34q32 44 88 66t115 22q51 0 94.5 -9.5t75 -33t49.5 -62t18 -95.5v-232zM210 141q0 -72 57 -72q22 0 44 13.5t40 30.5v163q-24 -4 -49 -13t-45.5 -25t-33.5 -40t-13 -57zM423 614
q5 -9 -0.5 -17.5t-16.5 -8.5h-60q-20 0 -34 14l-134 134q-9 9 -4.5 20.5t17.5 11.5h134q15 0 27 -8t18 -22z" />
    <glyph glyph-name="aacute" unicode="&#xe1;" horiz-adv-x="596" 
d="M559 47q7 -7 7 -18t-8.5 -19.5t-19.5 -8.5h-114q-26 0 -46 16.5t-25 41.5q-29 -26 -69.5 -47t-90.5 -21q-34 0 -64 8.5t-52 25t-34.5 41.5t-12.5 58q0 34 17 61.5t45 48t63 35.5t71 25t68.5 16t56.5 9v32q0 35 -7 59.5t-19 39.5t-27 22t-31 7q-17 0 -29.5 -7.5
t-20.5 -19.5t-13 -28.5t-8 -34.5q-3 -23 -21 -39t-42 -16q-20 0 -35 10t-23 25t-7 33t13 34q32 44 88 66t115 22q51 0 94.5 -9.5t75 -33t49.5 -62t18 -95.5v-232zM210 141q0 -72 57 -72q22 0 44 13.5t40 30.5v163q-24 -4 -49 -13t-45.5 -25t-33.5 -40t-13 -57zM440 768
q12 0 16.5 -11.5t-3.5 -20.5l-135 -134q-14 -14 -34 -14h-60q-10 0 -15.5 8.5t-1.5 17.5l53 124q6 14 18.5 22t26.5 8h135v0z" />
    <glyph glyph-name="acircumflex" unicode="&#xe2;" horiz-adv-x="596" 
d="M559 47q7 -7 7 -18t-8.5 -19.5t-19.5 -8.5h-114q-26 0 -46 16.5t-25 41.5q-29 -26 -69.5 -47t-90.5 -21q-34 0 -64 8.5t-52 25t-34.5 41.5t-12.5 58q0 34 17 61.5t45 48t63 35.5t71 25t68.5 16t56.5 9v32q0 35 -7 59.5t-19 39.5t-27 22t-31 7q-17 0 -29.5 -7.5
t-20.5 -19.5t-13 -28.5t-8 -34.5q-3 -23 -21 -39t-42 -16q-20 0 -35 10t-23 25t-7 33t13 34q32 44 88 66t115 22q51 0 94.5 -9.5t75 -33t49.5 -62t18 -95.5v-232zM210 141q0 -72 57 -72q22 0 44 13.5t40 30.5v163q-24 -4 -49 -13t-45.5 -25t-33.5 -40t-13 -57zM497 612
q5 -8 1 -16t-13 -8h-89q-16 0 -24 13l-74 107l-73 -107q-10 -13 -25 -13h-88q-10 0 -14 8t2 16l123 166q10 12 24 12h102q14 0 24 -12z" />
    <glyph glyph-name="atilde" unicode="&#xe3;" horiz-adv-x="596" 
d="M559 47q7 -7 7 -18t-8.5 -19.5t-19.5 -8.5h-114q-26 0 -46 16.5t-25 41.5q-29 -26 -69.5 -47t-90.5 -21q-34 0 -64 8.5t-52 25t-34.5 41.5t-12.5 58q0 34 17 61.5t45 48t63 35.5t71 25t68.5 16t56.5 9v32q0 35 -7 59.5t-19 39.5t-27 22t-31 7q-17 0 -29.5 -7.5
t-20.5 -19.5t-13 -28.5t-8 -34.5q-3 -23 -21 -39t-42 -16q-20 0 -35 10t-23 25t-7 33t13 34q32 44 88 66t115 22q51 0 94.5 -9.5t75 -33t49.5 -62t18 -95.5v-232zM210 141q0 -72 57 -72q22 0 44 13.5t40 30.5v163q-24 -4 -49 -13t-45.5 -25t-33.5 -40t-13 -57zM395 773
q28 0 49 -16.5t35.5 -40t23.5 -48.5t13 -43q3 -10 -1.5 -18.5t-13.5 -12.5q-8 -4 -17 -2.5t-15 9.5q-14 16 -37 31.5t-49 15.5q-25 0 -45.5 -10.5t-41.5 -23.5t-44 -23.5t-52 -10.5q-27 0 -47 15t-35 37t-24.5 46t-14.5 41q-3 11 1.5 21.5t14.5 15.5h1q10 5 20.5 2.5
t17.5 -10.5q12 -16 33 -32.5t49 -16.5q23 0 43 11.5t40.5 25.5t43.5 25.5t52 11.5z" />
    <glyph glyph-name="adieresis" unicode="&#xe4;" horiz-adv-x="596" 
d="M559 47q7 -7 7 -18t-8.5 -19.5t-19.5 -8.5h-114q-26 0 -46 16.5t-25 41.5q-29 -26 -69.5 -47t-90.5 -21q-34 0 -64 8.5t-52 25t-34.5 41.5t-12.5 58q0 34 17 61.5t45 48t63 35.5t71 25t68.5 16t56.5 9v32q0 35 -7 59.5t-19 39.5t-27 22t-31 7q-17 0 -29.5 -7.5
t-20.5 -19.5t-13 -28.5t-8 -34.5q-3 -23 -21 -39t-42 -16q-20 0 -35 10t-23 25t-7 33t13 34q32 44 88 66t115 22q51 0 94.5 -9.5t75 -33t49.5 -62t18 -95.5v-232zM210 141q0 -72 57 -72q22 0 44 13.5t40 30.5v163q-24 -4 -49 -13t-45.5 -25t-33.5 -40t-13 -57zM271 670
q0 -34 -24 -58t-58 -24t-58 24t-24 58q0 35 24 59t58 24t58 -24t24 -59zM406 753q34 0 58 -24t24 -59q0 -34 -24 -58t-58 -24q-35 0 -58.5 24t-23.5 58q0 35 23.5 59t58.5 24z" />
    <glyph glyph-name="aring" unicode="&#xe5;" horiz-adv-x="596" 
d="M559 47q7 -7 7 -18t-8.5 -19.5t-19.5 -8.5h-114q-26 0 -46 16.5t-25 41.5q-29 -26 -69.5 -47t-90.5 -21q-34 0 -64 8.5t-52 25t-34.5 41.5t-12.5 58q0 34 17 61.5t45 48t63 35.5t71 25t68.5 16t56.5 9v32q0 35 -7 59.5t-19 39.5t-27 22t-31 7q-17 0 -29.5 -7.5
t-20.5 -19.5t-13 -28.5t-8 -34.5q-3 -23 -21 -39t-42 -16q-20 0 -35 10t-23 25t-7 33t13 34q32 44 88 66t115 22q51 0 94.5 -9.5t75 -33t49.5 -62t18 -95.5v-232zM210 141q0 -72 57 -72q22 0 44 13.5t40 30.5v163q-24 -4 -49 -13t-45.5 -25t-33.5 -40t-13 -57zM298 825
q24 0 45.5 -9.5t37.5 -25.5t25.5 -37.5t9.5 -45.5q0 -25 -9.5 -46.5t-25.5 -37.5t-37.5 -25.5t-45.5 -9.5t-45.5 9.5t-37.5 25.5t-25.5 37.5t-9.5 46.5q0 24 9.5 45.5t25.5 37.5t37.5 25.5t45.5 9.5zM298 657q16 0 26.5 14.5t10.5 35.5q0 20 -10.5 34.5t-26.5 14.5
t-26.5 -14.5t-10.5 -34.5q0 -21 10.5 -35.5t26.5 -14.5z" />
    <glyph glyph-name="ae" unicode="&#xe6;" horiz-adv-x="865" 
d="M820 178q10 -5 13 -15t-2 -20q-9 -18 -27 -44t-47 -50t-69.5 -41t-94.5 -17q-74 0 -129 28.5t-88 78.5q-11 -16 -28.5 -34.5t-40.5 -34.5t-51.5 -27t-62.5 -11t-64 8.5t-52 25t-34.5 41.5t-12.5 58q0 34 16 61t42 47.5t59 35.5t66 25t64 16.5t54 9.5v32q0 70 -18 99
t-50 29q-17 0 -29 -7.5t-20 -19.5t-12.5 -28.5t-6.5 -34.5q-2 -24 -20 -39.5t-41 -15.5q-18 0 -31.5 8.5t-21.5 21.5t-9 29.5t7 31.5q26 50 79 74.5t116 24.5q54 0 96.5 -10.5t72.5 -35.5q32 22 72.5 34t87.5 12q71 0 130 -43t90 -137q5 -11 -0.5 -22t-17.5 -15l-1 -1
l-295 -109q21 -40 58 -67t91 -27q24 0 44 7.5t36.5 18t28.5 22.5t20 21q6 7 15 9t18 -3zM529 456q-18 -6 -30 -27t-17.5 -50t-4 -63t10.5 -68l191 71q-33 86 -73.5 117.5t-76.5 19.5zM267 69q28 0 51 20.5t39 41.5q-26 57 -26 126v1v17q-22 -4 -43.5 -13t-39 -24.5
t-28 -39.5t-10.5 -57q0 -72 57 -72z" />
    <glyph glyph-name="ccedilla" unicode="&#xe7;" horiz-adv-x="564" 
d="M519 178q10 -5 13 -15t-2 -20q-9 -18 -27 -44t-47 -50t-69.5 -41t-94.5 -17q-60 0 -108.5 19.5t-82.5 55t-52.5 84t-18.5 107.5q0 58 20 107.5t56 84.5t86 55t110 20q65 0 118.5 -21.5t90.5 -73.5q12 -17 15 -37t-3 -38.5t-20 -33.5t-34 -22q-17 -6 -34 -5.5t-32 7
t-27 19t-18 29.5q-13 33 -25.5 55t-25.5 35t-26 18t-26 5q-29 0 -46.5 -26.5t-23 -66.5t1.5 -86t27.5 -86t56 -66.5t86.5 -26.5q24 0 44 7.5t36.5 18t28.5 22.5t20 21q6 7 15 9t18 -3zM338 -73q61 -9 100 -34.5t54.5 -58t7 -68.5t-43 -66t-96 -51t-151.5 -23q-8 0 -14.5 6
t-6.5 14v58q0 8 6 14t14 6q77 3 111 25t35 47t-26.5 45.5t-72.5 20.5v178h83v-113v0z" />
    <glyph glyph-name="egrave" unicode="&#xe8;" horiz-adv-x="563" 
d="M518 178q10 -5 13.5 -15t-1.5 -20q-9 -18 -27.5 -44t-47 -50t-69.5 -41t-95 -17q-60 0 -108.5 19.5t-82 55t-52 84t-18.5 107.5q0 58 20 107.5t55.5 84.5t85.5 55t110 20q71 0 130.5 -43t90.5 -137q4 -11 -1.5 -22t-16.5 -15l-1 -1l-296 -109q22 -40 58.5 -67t91.5 -27
q24 0 44 7.5t36.5 18t28.5 22.5t20 21q5 7 14.5 9t17.5 -3zM228 456q-18 -6 -30.5 -27t-18 -50t-4 -63t11.5 -68l190 71q-33 86 -73 117.5t-76 19.5zM327 614q5 -9 -0.5 -17.5t-16.5 -8.5h-60q-20 0 -34 14l-134 134q-9 9 -4.5 20.5t17.5 11.5h134q15 0 27 -8t18 -22z" />
    <glyph glyph-name="eacute" unicode="&#xe9;" horiz-adv-x="563" 
d="M518 178q10 -5 13.5 -15t-1.5 -20q-9 -18 -27.5 -44t-47 -50t-69.5 -41t-95 -17q-60 0 -108.5 19.5t-82 55t-52 84t-18.5 107.5q0 58 20 107.5t55.5 84.5t85.5 55t110 20q71 0 130.5 -43t90.5 -137q4 -11 -1.5 -22t-16.5 -15l-1 -1l-296 -109q22 -40 58.5 -67t91.5 -27
q24 0 44 7.5t36.5 18t28.5 22.5t20 21q5 7 14.5 9t17.5 -3zM228 456q-18 -6 -30.5 -27t-18 -50t-4 -63t11.5 -68l190 71q-33 86 -73 117.5t-76 19.5zM452 768q12 0 16.5 -11.5t-3.5 -20.5l-135 -134q-14 -14 -34 -14h-60q-10 0 -15.5 8.5t-1.5 17.5l53 124q6 14 18.5 22
t26.5 8h135v0z" />
    <glyph glyph-name="ecircumflex" unicode="&#xea;" horiz-adv-x="563" 
d="M518 178q10 -5 13.5 -15t-1.5 -20q-9 -18 -27.5 -44t-47 -50t-69.5 -41t-95 -17q-60 0 -108.5 19.5t-82 55t-52 84t-18.5 107.5q0 58 20 107.5t55.5 84.5t85.5 55t110 20q71 0 130.5 -43t90.5 -137q4 -11 -1.5 -22t-16.5 -15l-1 -1l-296 -109q22 -40 58.5 -67t91.5 -27
q24 0 44 7.5t36.5 18t28.5 22.5t20 21q5 7 14.5 9t17.5 -3zM228 456q-18 -6 -30.5 -27t-18 -50t-4 -63t11.5 -68l190 71q-33 86 -73 117.5t-76 19.5zM480 612q5 -8 1 -16t-13 -8h-89q-16 0 -24 13l-74 107l-73 -107q-10 -13 -25 -13h-88q-10 0 -14 8t2 16l123 166
q10 12 24 12h102q14 0 24 -12z" />
    <glyph glyph-name="edieresis" unicode="&#xeb;" horiz-adv-x="563" 
d="M518 178q10 -5 13.5 -15t-1.5 -20q-9 -18 -27.5 -44t-47 -50t-69.5 -41t-95 -17q-60 0 -108.5 19.5t-82 55t-52 84t-18.5 107.5q0 58 20 107.5t55.5 84.5t85.5 55t110 20q71 0 130.5 -43t90.5 -137q4 -11 -1.5 -22t-16.5 -15l-1 -1l-296 -109q22 -40 58.5 -67t91.5 -27
q24 0 44 7.5t36.5 18t28.5 22.5t20 21q5 7 14.5 9t17.5 -3zM228 456q-18 -6 -30.5 -27t-18 -50t-4 -63t11.5 -68l190 71q-33 86 -73 117.5t-76 19.5zM255 670q0 -34 -24 -58t-58 -24t-58 24t-24 58q0 35 24 59t58 24t58 -24t24 -59zM390 753q34 0 58 -24t24 -59
q0 -34 -24 -58t-58 -24q-35 0 -58.5 24t-23.5 58q0 35 23.5 59t58.5 24z" />
    <glyph glyph-name="igrave" unicode="&#xec;" horiz-adv-x="319" 
d="M283 47q6 -8 6 -18q0 -11 -8 -19.5t-20 -8.5h-203q-11 0 -19.5 8.5t-8.5 19.5t7 18l38 45v303l-34 30q-11 9 -11 24q0 23 23 31l22 6l121 37q19 5 32 -5q17 -11 17 -31v-395zM216 614q5 -9 -0.5 -17.5t-16.5 -8.5h-60q-20 0 -34 14l-134 134q-9 9 -4.5 20.5t17.5 11.5
h134q15 0 27 -8t18 -22z" />
    <glyph glyph-name="iacute" unicode="&#xed;" horiz-adv-x="319" 
d="M283 47q6 -8 6 -18q0 -11 -8 -19.5t-20 -8.5h-203q-11 0 -19.5 8.5t-8.5 19.5t7 18l38 45v303l-34 30q-11 9 -11 24q0 23 23 31l22 6l121 37q19 5 32 -5q17 -11 17 -31v-395zM331 768q12 0 16.5 -11.5t-3.5 -20.5l-135 -134q-14 -14 -34 -14h-60q-10 0 -15.5 8.5
t-1.5 17.5l53 124q6 14 18.5 22t26.5 8h135v0z" />
    <glyph glyph-name="icircumflex" unicode="&#xee;" horiz-adv-x="319" 
d="M283 47q6 -8 6 -18q0 -11 -8 -19.5t-20 -8.5h-203q-11 0 -19.5 8.5t-8.5 19.5t7 18l38 45v303l-34 30q-11 9 -11 24q0 23 23 31l22 6l121 37q19 5 32 -5q17 -11 17 -31v-395zM359 612q5 -8 1 -16t-13 -8h-89q-16 0 -24 13l-74 107l-73 -107q-10 -13 -25 -13h-88
q-10 0 -14 8t2 16l123 166q10 12 24 12h102q14 0 24 -12z" />
    <glyph glyph-name="idieresis" unicode="&#xef;" horiz-adv-x="319" 
d="M283 47q6 -8 6 -18q0 -11 -8 -19.5t-20 -8.5h-203q-11 0 -19.5 8.5t-8.5 19.5t7 18l38 45v303l-34 30q-11 9 -11 24q0 23 23 31l22 6l121 37q19 5 32 -5q17 -11 17 -31v-395zM133 670q0 -34 -24 -58t-58 -24t-58 24t-24 58q0 35 24 59t58 24t58 -24t24 -59zM268 753
q34 0 58 -24t24 -59q0 -34 -24 -58t-58 -24q-35 0 -58.5 24t-23.5 58q0 35 23.5 59t58.5 24z" />
    <glyph glyph-name="eth" unicode="&#xf0;" horiz-adv-x="603" 
d="M321 665q59 -33 105.5 -79t79 -99.5t50 -112t17.5 -116.5v-1q0 -59 -20 -107.5t-55.5 -84t-85.5 -55t-110 -19.5t-110 19.5t-86 55t-56 84t-20 107.5q0 58 20 107.5t56 84.5t86 55t110 20q12 0 24 -1t23 -3q-32 49 -78 84l-54 -66q-11 -12 -21 -2l-32 26q-5 4 -6 10t4 11
l46 57q-53 22 -120 27v58q45 0 86.5 -7.5t79.5 -21.5l48 57q9 12 21 2l32 -26q5 -4 5.5 -10t-3.5 -11zM339 49q45 8 59 59.5t-6 164.5t-51 156.5t-76 35.5q-23 -4 -38 -18t-21.5 -41t-5.5 -67.5t11 -97.5t22.5 -95.5t28.5 -61.5t35 -31t42 -4z" />
    <glyph glyph-name="ntilde" unicode="&#xf1;" horiz-adv-x="621" 
d="M584 47q7 -7 7 -18t-8.5 -19.5t-19.5 -8.5h-203q-12 0 -20 8.5t-8 19.5q0 10 6 18l38 45v205q0 89 -12 125t-45 36q-20 0 -39 -15t-35 -35v-316l38 -45q7 -9 7 -18q0 -11 -8.5 -19.5t-19.5 -8.5h-204q-11 0 -19.5 8.5t-8.5 19.5q0 9 7 18l38 45v303l-34 30q-11 9 -11 24
q0 23 23 31l22 6l121 37q19 5 32 -5q17 -11 17 -31v-20q23 23 54.5 39.5t70.5 16.5q28 0 59 -9.5t57 -32.5t43 -63t17 -101v-225zM408 773q28 0 49 -16.5t35.5 -40t23.5 -48.5t13 -43q3 -10 -1.5 -18.5t-13.5 -12.5q-8 -4 -17 -2.5t-15 9.5q-14 16 -37 31.5t-49 15.5
q-25 0 -45.5 -10.5t-41.5 -23.5t-44 -23.5t-52 -10.5q-27 0 -47 15t-35 37t-24.5 46t-14.5 41q-3 11 1.5 21.5t14.5 15.5h1q10 5 20.5 2.5t17.5 -10.5q12 -16 33 -32.5t49 -16.5q23 0 43 11.5t40.5 25.5t43.5 25.5t52 11.5z" />
    <glyph glyph-name="ograve" unicode="&#xf2;" horiz-adv-x="603" 
d="M301 524q60 0 110 -20t86 -55t56 -84.5t20 -107.5q0 -59 -20 -107.5t-56 -84t-86 -55t-110 -19.5t-110 19.5t-85.5 55t-55.5 84t-20 107.5q0 58 20 107.5t55.5 84.5t85.5 55t110 20zM338 49q46 8 59.5 59.5t-5.5 164.5q-10 57 -23 95.5t-28.5 61.5t-34.5 31t-42 4
t-37.5 -18t-21.5 -41t-5.5 -67.5t11.5 -97.5q20 -113 51 -156.5t76 -35.5zM333 614q5 -9 -0.5 -17.5t-16.5 -8.5h-60q-20 0 -34 14l-134 134q-9 9 -4.5 20.5t17.5 11.5h134q15 0 27 -8t18 -22z" />
    <glyph glyph-name="oacute" unicode="&#xf3;" horiz-adv-x="603" 
d="M301 524q60 0 110 -20t86 -55t56 -84.5t20 -107.5q0 -59 -20 -107.5t-56 -84t-86 -55t-110 -19.5t-110 19.5t-85.5 55t-55.5 84t-20 107.5q0 58 20 107.5t55.5 84.5t85.5 55t110 20zM338 49q46 8 59.5 59.5t-5.5 164.5q-10 57 -23 95.5t-28.5 61.5t-34.5 31t-42 4
t-37.5 -18t-21.5 -41t-5.5 -67.5t11.5 -97.5q20 -113 51 -156.5t76 -35.5zM458 768q12 0 16.5 -11.5t-3.5 -20.5l-135 -134q-14 -14 -34 -14h-60q-10 0 -15.5 8.5t-1.5 17.5l53 124q6 14 18.5 22t26.5 8h135v0z" />
    <glyph glyph-name="ocircumflex" unicode="&#xf4;" horiz-adv-x="603" 
d="M301 524q60 0 110 -20t86 -55t56 -84.5t20 -107.5q0 -59 -20 -107.5t-56 -84t-86 -55t-110 -19.5t-110 19.5t-85.5 55t-55.5 84t-20 107.5q0 58 20 107.5t55.5 84.5t85.5 55t110 20zM338 49q46 8 59.5 59.5t-5.5 164.5q-10 57 -23 95.5t-28.5 61.5t-34.5 31t-42 4
t-37.5 -18t-21.5 -41t-5.5 -67.5t11.5 -97.5q20 -113 51 -156.5t76 -35.5zM500 612q5 -8 1 -16t-13 -8h-89q-16 0 -24 13l-74 107l-73 -107q-10 -13 -25 -13h-88q-10 0 -14 8t2 16l123 166q10 12 24 12h102q14 0 24 -12z" />
    <glyph glyph-name="otilde" unicode="&#xf5;" horiz-adv-x="603" 
d="M301 524q60 0 110 -20t86 -55t56 -84.5t20 -107.5q0 -59 -20 -107.5t-56 -84t-86 -55t-110 -19.5t-110 19.5t-85.5 55t-55.5 84t-20 107.5q0 58 20 107.5t55.5 84.5t85.5 55t110 20zM338 49q46 8 59.5 59.5t-5.5 164.5q-10 57 -23 95.5t-28.5 61.5t-34.5 31t-42 4
t-37.5 -18t-21.5 -41t-5.5 -67.5t11.5 -97.5q20 -113 51 -156.5t76 -35.5zM399 773q28 0 49 -16.5t35.5 -40t23.5 -48.5t13 -43q3 -10 -1.5 -18.5t-13.5 -12.5q-8 -4 -17 -2.5t-15 9.5q-14 16 -37 31.5t-49 15.5q-25 0 -45.5 -10.5t-41.5 -23.5t-44 -23.5t-52 -10.5
q-27 0 -47 15t-35 37t-24.5 46t-14.5 41q-3 11 1.5 21.5t14.5 15.5h1q10 5 20.5 2.5t17.5 -10.5q12 -16 33 -32.5t49 -16.5q23 0 43 11.5t40.5 25.5t43.5 25.5t52 11.5z" />
    <glyph glyph-name="odieresis" unicode="&#xf6;" horiz-adv-x="603" 
d="M301 524q60 0 110 -20t86 -55t56 -84.5t20 -107.5q0 -59 -20 -107.5t-56 -84t-86 -55t-110 -19.5t-110 19.5t-85.5 55t-55.5 84t-20 107.5q0 58 20 107.5t55.5 84.5t85.5 55t110 20zM338 49q46 8 59.5 59.5t-5.5 164.5q-10 57 -23 95.5t-28.5 61.5t-34.5 31t-42 4
t-37.5 -18t-21.5 -41t-5.5 -67.5t11.5 -97.5q20 -113 51 -156.5t76 -35.5zM275 670q0 -34 -24 -58t-58 -24t-58 24t-24 58q0 35 24 59t58 24t58 -24t24 -59zM410 753q34 0 58 -24t24 -59q0 -34 -24 -58t-58 -24q-35 0 -58.5 24t-23.5 58q0 35 23.5 59t58.5 24z" />
    <glyph glyph-name="divide" unicode="&#xf7;" horiz-adv-x="570" 
d="M285 263q19 0 36 -7t29.5 -19.5t20 -29.5t7.5 -36t-7.5 -36t-20 -29.5t-29.5 -19.5t-36 -7t-36 7t-29.5 19.5t-19.5 29.5t-7 36t7 36t19.5 29.5t29.5 19.5t36 7zM285 466q-19 0 -36 7t-29.5 19.5t-19.5 29.5t-7 36t7 36t19.5 29.5t29.5 20t36 7.5t36 -7.5t29.5 -20
t20 -29.5t7.5 -36t-7.5 -36t-20 -29.5t-29.5 -19.5t-36 -7zM500 422q13 0 21.5 -8.5t8.5 -21.5v-55q0 -13 -8.5 -21.5t-21.5 -8.5h-430q-12 0 -21 8.5t-9 21.5v55q0 13 9 21.5t21 8.5h430z" />
    <glyph glyph-name="oslash" unicode="&#xf8;" horiz-adv-x="603" 
d="M494 452q38 -35 58.5 -85t20.5 -110q0 -59 -20 -107.5t-56 -84t-86 -55t-110 -19.5q-91 0 -159 45l-20 -24q-9 -11 -23 -11h-39q-7 0 -10 5.5t2 10.5l47 56q-33 35 -51 81.5t-18 102.5q0 58 20 107.5t55.5 84.5t85.5 55t110 20q84 0 147 -37l21 25q9 11 24 11h39
q6 0 9 -5.5t-1 -10.5zM211 241q2 -8 3 -14.5t3 -13.5l146 173q-19 48 -43 66.5t-56 12.5q-23 -4 -37.5 -18t-21.5 -41t-5.5 -67.5t11.5 -97.5zM338 49q46 8 60 59.5t-6 164.5q-2 13 -4.5 24.5t-5.5 22.5l-148 -175q20 -58 45 -80t59 -16z" />
    <glyph glyph-name="ugrave" unicode="&#xf9;" horiz-adv-x="622" 
d="M580 90q10 -10 11 -22q1 -11 -5.5 -20.5t-17.5 -13.5l-143 -43q-18 -5 -32 5q-17 12 -17 31v28q-23 -26 -54 -45t-71 -19q-27 0 -58 9.5t-57.5 32.5t-43.5 63t-17 101v235l-38 45q-7 9 -7 18q0 11 8.5 19.5t19.5 8.5h157q13 0 21.5 -8.5t8.5 -21.5v-276q0 -45 2.5 -74.5
t9.5 -47.5t17.5 -25.5t27.5 -7.5q21 0 40 16.5t34 38.5v315l-38 45q-6 7 -6 18t8 19.5t20 8.5h156q13 0 21.5 -8.5t8.5 -21.5v-374l34 -29v0zM386 614q5 -9 -0.5 -17.5t-16.5 -8.5h-60q-20 0 -34 14l-134 134q-9 9 -4.5 20.5t17.5 11.5h134q15 0 27 -8t18 -22z" />
    <glyph glyph-name="uacute" unicode="&#xfa;" horiz-adv-x="622" 
d="M580 90q10 -10 11 -22q1 -11 -5.5 -20.5t-17.5 -13.5l-143 -43q-18 -5 -32 5q-17 12 -17 31v28q-23 -26 -54 -45t-71 -19q-27 0 -58 9.5t-57.5 32.5t-43.5 63t-17 101v235l-38 45q-7 9 -7 18q0 11 8.5 19.5t19.5 8.5h157q13 0 21.5 -8.5t8.5 -21.5v-276q0 -45 2.5 -74.5
t9.5 -47.5t17.5 -25.5t27.5 -7.5q21 0 40 16.5t34 38.5v315l-38 45q-6 7 -6 18t8 19.5t20 8.5h156q13 0 21.5 -8.5t8.5 -21.5v-374l34 -29v0zM467 768q12 0 16.5 -11.5t-3.5 -20.5l-135 -134q-14 -14 -34 -14h-60q-10 0 -15.5 8.5t-1.5 17.5l53 124q6 14 18.5 22t26.5 8h135
v0z" />
    <glyph glyph-name="ucircumflex" unicode="&#xfb;" horiz-adv-x="622" 
d="M580 90q10 -10 11 -22q1 -11 -5.5 -20.5t-17.5 -13.5l-143 -43q-18 -5 -32 5q-17 12 -17 31v28q-23 -26 -54 -45t-71 -19q-27 0 -58 9.5t-57.5 32.5t-43.5 63t-17 101v235l-38 45q-7 9 -7 18q0 11 8.5 19.5t19.5 8.5h157q13 0 21.5 -8.5t8.5 -21.5v-276q0 -45 2.5 -74.5
t9.5 -47.5t17.5 -25.5t27.5 -7.5q21 0 40 16.5t34 38.5v315l-38 45q-6 7 -6 18t8 19.5t20 8.5h156q13 0 21.5 -8.5t8.5 -21.5v-374l34 -29v0zM510 612q5 -8 1 -16t-13 -8h-89q-16 0 -24 13l-74 107l-73 -107q-10 -13 -25 -13h-88q-10 0 -14 8t2 16l123 166q10 12 24 12h102
q14 0 24 -12z" />
    <glyph glyph-name="udieresis" unicode="&#xfc;" horiz-adv-x="622" 
d="M580 90q10 -10 11 -22q1 -11 -5.5 -20.5t-17.5 -13.5l-143 -43q-18 -5 -32 5q-17 12 -17 31v28q-23 -26 -54 -45t-71 -19q-27 0 -58 9.5t-57.5 32.5t-43.5 63t-17 101v235l-38 45q-7 9 -7 18q0 11 8.5 19.5t19.5 8.5h157q13 0 21.5 -8.5t8.5 -21.5v-276q0 -45 2.5 -74.5
t9.5 -47.5t17.5 -25.5t27.5 -7.5q21 0 40 16.5t34 38.5v315l-38 45q-6 7 -6 18t8 19.5t20 8.5h156q13 0 21.5 -8.5t8.5 -21.5v-374l34 -29v0zM284 670q0 -34 -24 -58t-58 -24t-58 24t-24 58q0 35 24 59t58 24t58 -24t24 -59zM419 753q34 0 58 -24t24 -59q0 -34 -24 -58
t-58 -24q-35 0 -58.5 24t-23.5 58q0 35 23.5 59t58.5 24z" />
    <glyph glyph-name="yacute" unicode="&#xfd;" horiz-adv-x="618" 
d="M581 523q11 0 19 -8t8 -19t-8 -19l-45 -45l-220 -485q-15 -35 -37 -68t-50.5 -59.5t-64.5 -42.5t-80 -16q-35 -1 -62.5 19t-35.5 52q-5 19 -1 37.5t14.5 34t27 27t36.5 16.5q9 2 14.5 2h22.5q26 0 46.5 -6t37 -8t29.5 4.5t24 31.5l14 30l-195 431l-45 45q-8 7 -8 19
q0 11 8 19t19 8h233q12 0 20.5 -8.5t8.5 -20.5q0 -9 -5 -17l-33 -45l85 -195q2 -6 8.5 -6t9.5 6l92 204l-32 36q-9 9 -7 22q2 11 9.5 17.5t18.5 6.5h124v0zM510 768q12 0 16.5 -11.5t-3.5 -20.5l-135 -134q-14 -14 -34 -14h-60q-10 0 -15.5 8.5t-1.5 17.5l53 124
q6 14 18.5 22t26.5 8h135v0z" />
    <glyph glyph-name="thorn" unicode="&#xfe;" horiz-adv-x="636" 
d="M404 523q41 0 77.5 -15t64.5 -47.5t44 -83t16 -120.5q0 -71 -18.5 -121t-50 -82.5t-73.5 -47.5t-88 -15q-47 0 -79.5 11t-52.5 22v-167l38 -45q7 -7 7 -18t-8 -19.5t-20 -8.5h-203q-12 0 -20 8.5t-8 19.5q0 10 6 18l38 45v740l-33 29q-11 9 -11 24q0 24 22 31l22 7
l121 37q17 5 33 -5q16 -11 16 -32v-236q8 10 22 22t33.5 23t45.5 18.5t59 7.5zM328 56q21 0 40.5 11.5t34.5 36.5t24 62.5t9 90.5q0 105 -25 153t-66 48q-14 0 -26 -5t-23 -13q-25 -19 -38.5 -46.5t-13.5 -58.5v-194q0 -33 22.5 -57.5t55.5 -27.5h6z" />
    <glyph glyph-name="ydieresis" unicode="&#xff;" horiz-adv-x="618" 
d="M581 523q11 0 19 -8t8 -19t-8 -19l-45 -45l-220 -485q-15 -35 -37 -68t-50.5 -59.5t-64.5 -42.5t-80 -16q-35 -1 -62.5 19t-35.5 52q-5 19 -1 37.5t14.5 34t27 27t36.5 16.5q9 2 14.5 2h22.5q26 0 46.5 -6t37 -8t29.5 4.5t24 31.5l14 30l-195 431l-45 45q-8 7 -8 19
q0 11 8 19t19 8h233q12 0 20.5 -8.5t8.5 -20.5q0 -9 -5 -17l-33 -45l85 -195q2 -6 8.5 -6t9.5 6l92 204l-32 36q-9 9 -7 22q2 11 9.5 17.5t18.5 6.5h124v0zM282 670q0 -34 -24 -58t-58 -24t-58 24t-24 58q0 35 24 59t58 24t58 -24t24 -59zM417 753q34 0 58 -24t24 -59
q0 -34 -24 -58t-58 -24q-35 0 -58.5 24t-23.5 58q0 35 23.5 59t58.5 24z" />
    <glyph glyph-name="Amacron" unicode="&#x100;" horiz-adv-x="780" 
d="M762 47q8 -8 8 -19t-8.5 -19t-19.5 -8h-275q-11 0 -19 8t-8 19t8 19l55 52l-49 112h-222l-50 -113l53 -51q8 -8 8 -19t-8 -19t-19 -8h-179q-11 0 -19 8t-8 19q0 10 7 19l69 71l268 604q11 23 36 23t35 -23l268 -604zM420 291l-75 175l-78 -175h153zM542 878q8 0 13 -5.5
t5 -13.5v-52q0 -8 -5 -13.5t-13 -5.5h-303q-8 0 -13.5 5.5t-5.5 13.5v52q0 8 5.5 13.5t13.5 5.5h303v0z" />
    <glyph glyph-name="amacron" unicode="&#x101;" horiz-adv-x="596" 
d="M559 47q7 -7 7 -18t-8.5 -19.5t-19.5 -8.5h-114q-26 0 -46 16.5t-25 41.5q-29 -26 -69.5 -47t-90.5 -21q-34 0 -64 8.5t-52 25t-34.5 41.5t-12.5 58q0 34 17 61.5t45 48t63 35.5t71 25t68.5 16t56.5 9v32q0 35 -7 59.5t-19 39.5t-27 22t-31 7q-17 0 -29.5 -7.5
t-20.5 -19.5t-13 -28.5t-8 -34.5q-3 -23 -21 -39t-42 -16q-20 0 -35 10t-23 25t-7 33t13 34q32 44 88 66t115 22q51 0 94.5 -9.5t75 -33t49.5 -62t18 -95.5v-232zM210 141q0 -72 57 -72q22 0 44 13.5t40 30.5v163q-24 -4 -49 -13t-45.5 -25t-33.5 -40t-13 -57zM450 678
q8 0 13 -5.5t5 -13.5v-52q0 -8 -5 -13.5t-13 -5.5h-303q-8 0 -13.5 5.5t-5.5 13.5v52q0 8 5.5 13.5t13.5 5.5h303v0z" />
    <glyph glyph-name="Abreve" unicode="&#x102;" horiz-adv-x="780" 
d="M762 47q8 -8 8 -19t-8.5 -19t-19.5 -8h-275q-11 0 -19 8t-8 19t8 19l55 52l-49 112h-222l-50 -113l53 -51q8 -8 8 -19t-8 -19t-19 -8h-179q-11 0 -19 8t-8 19q0 10 7 19l69 71l268 604q11 23 36 23t35 -23l268 -604zM420 291l-75 175l-78 -175h153zM591 990q9 0 15 -6.5
t5 -15.5q-3 -38 -19 -70.5t-43.5 -57t-67.5 -38.5t-91 -14q-52 0 -92 14t-67.5 38.5t-43.5 57t-19 70.5q-1 9 5 15.5t15 6.5h82q8 0 13 -5t7 -13q4 -34 27.5 -57.5t72.5 -23.5q48 0 71.5 23.5t28.5 57.5q1 8 6 13t13 5h82v0z" />
    <glyph glyph-name="abreve" unicode="&#x103;" horiz-adv-x="596" 
d="M559 47q7 -7 7 -18t-8.5 -19.5t-19.5 -8.5h-114q-26 0 -46 16.5t-25 41.5q-29 -26 -69.5 -47t-90.5 -21q-34 0 -64 8.5t-52 25t-34.5 41.5t-12.5 58q0 34 17 61.5t45 48t63 35.5t71 25t68.5 16t56.5 9v32q0 35 -7 59.5t-19 39.5t-27 22t-31 7q-17 0 -29.5 -7.5
t-20.5 -19.5t-13 -28.5t-8 -34.5q-3 -23 -21 -39t-42 -16q-20 0 -35 10t-23 25t-7 33t13 34q32 44 88 66t115 22q51 0 94.5 -9.5t75 -33t49.5 -62t18 -95.5v-232zM210 141q0 -72 57 -72q22 0 44 13.5t40 30.5v163q-24 -4 -49 -13t-45.5 -25t-33.5 -40t-13 -57zM499 790
q9 0 15 -6.5t5 -15.5q-3 -38 -19 -70.5t-43.5 -57t-67.5 -38.5t-91 -14q-52 0 -92 14t-67.5 38.5t-43.5 57t-19 70.5q-1 9 5 15.5t15 6.5h82q8 0 13 -5t7 -13q4 -34 27.5 -57.5t72.5 -23.5q48 0 71.5 23.5t28.5 57.5q1 8 6 13t13 5h82v0z" />
    <glyph glyph-name="Aogonek" unicode="&#x104;" horiz-adv-x="780" 
d="M762 47q8 -8 8 -19t-8.5 -19t-19.5 -8h-275q-11 0 -19 8t-8 19t8 19l55 52l-49 112h-222l-50 -113l53 -51q8 -8 8 -19t-8 -19t-19 -8h-179q-11 0 -19 8t-8 19q0 10 7 19l69 71l268 604q11 23 36 23t35 -23l268 -604zM420 291l-75 175l-78 -175h153zM740 4
q-32 -25 -58 -54q-22 -25 -40 -58.5t-18 -71.5q0 -41 21 -62t71 -23q6 0 10 -4.5t4 -10.5v-38q0 -6 -4.5 -10.5t-10.5 -4.5q-75 1 -119 14t-67 32.5t-29.5 43.5t-6.5 48q0 26 9.5 50t24.5 45.5t34.5 40.5t40.5 34q48 36 110 65l28 -36v0z" />
    <glyph glyph-name="aogonek" unicode="&#x105;" horiz-adv-x="596" 
d="M559 47q7 -7 7 -18t-8.5 -19.5t-19.5 -8.5h-114q-26 0 -46 16.5t-25 41.5q-29 -26 -69.5 -47t-90.5 -21q-34 0 -64 8.5t-52 25t-34.5 41.5t-12.5 58q0 34 17 61.5t45 48t63 35.5t71 25t68.5 16t56.5 9v32q0 35 -7 59.5t-19 39.5t-27 22t-31 7q-17 0 -29.5 -7.5
t-20.5 -19.5t-13 -28.5t-8 -34.5q-3 -23 -21 -39t-42 -16q-20 0 -35 10t-23 25t-7 33t13 34q32 44 88 66t115 22q51 0 94.5 -9.5t75 -33t49.5 -62t18 -95.5v-232zM210 141q0 -72 57 -72q22 0 44 13.5t40 30.5v163q-24 -4 -49 -13t-45.5 -25t-33.5 -40t-13 -57zM536 4
q-32 -25 -58 -54q-22 -25 -40 -58.5t-18 -71.5q0 -41 21 -62t71 -23q6 0 10 -4.5t4 -10.5v-38q0 -6 -4.5 -10.5t-10.5 -4.5q-75 1 -119 14t-67 32.5t-29.5 43.5t-6.5 48q0 26 9.5 50t24.5 45.5t34.5 40.5t40.5 34q48 36 110 65l28 -36v0z" />
    <glyph glyph-name="Cacute" unicode="&#x106;" horiz-adv-x="701" 
d="M653 226q12 -6 16 -18.5t-2 -24.5q-12 -23 -34.5 -56t-58.5 -63t-86 -51.5t-116 -21.5q-48 0 -107 18t-111.5 60.5t-88 113t-35.5 175.5t35.5 175.5t88 113t111.5 60.5t107 18q42 0 83 -8.5t78.5 -28t69 -52.5t54.5 -81q9 -20 9.5 -40.5t-6.5 -39t-21 -33t-34 -22.5
l-1 -1q-21 -9 -42.5 -7.5t-39.5 10.5t-32 25.5t-20 38.5q-20 75 -63.5 110.5t-95.5 30.5q-27 -3 -46 -21t-30 -47t-16 -65.5t-5 -76.5q0 -56 16 -110.5t45.5 -98.5t72 -71t96.5 -27q33 0 60.5 11t48.5 27t36 34t24 32q6 10 17.5 13.5t22.5 -1.5zM534 968q12 0 16.5 -11.5
t-3.5 -20.5l-135 -134q-14 -14 -34 -14h-60q-10 0 -15.5 8.5t-1.5 17.5l53 124q6 14 18.5 22t26.5 8h135v0z" />
    <glyph glyph-name="cacute" unicode="&#x107;" horiz-adv-x="564" 
d="M519 178q10 -5 13 -15t-2 -20q-9 -18 -27 -44t-47 -50t-69.5 -41t-94.5 -17q-60 0 -108.5 19.5t-82.5 55t-52.5 84t-18.5 107.5q0 58 20 107.5t56 84.5t86 55t110 20q65 0 118.5 -21.5t90.5 -73.5q12 -17 15 -37t-3 -38.5t-20 -33.5t-34 -22q-17 -6 -34 -5.5t-32 7
t-27 19t-18 29.5q-13 33 -25.5 55t-25.5 35t-26 18t-26 5q-29 0 -46.5 -26.5t-23 -66.5t1.5 -86t27.5 -86t56 -66.5t86.5 -26.5q24 0 44 7.5t36.5 18t28.5 22.5t20 21q6 7 15 9t18 -3zM477 768q12 0 16.5 -11.5t-3.5 -20.5l-135 -134q-14 -14 -34 -14h-60q-10 0 -15.5 8.5
t-1.5 17.5l53 124q6 14 18.5 22t26.5 8h135v0z" />
    <glyph glyph-name="Ccircumflex" unicode="&#x108;" horiz-adv-x="701" 
d="M653 226q12 -6 16 -18.5t-2 -24.5q-12 -23 -34.5 -56t-58.5 -63t-86 -51.5t-116 -21.5q-48 0 -107 18t-111.5 60.5t-88 113t-35.5 175.5t35.5 175.5t88 113t111.5 60.5t107 18q42 0 83 -8.5t78.5 -28t69 -52.5t54.5 -81q9 -20 9.5 -40.5t-6.5 -39t-21 -33t-34 -22.5
l-1 -1q-21 -9 -42.5 -7.5t-39.5 10.5t-32 25.5t-20 38.5q-20 75 -63.5 110.5t-95.5 30.5q-27 -3 -46 -21t-30 -47t-16 -65.5t-5 -76.5q0 -56 16 -110.5t45.5 -98.5t72 -71t96.5 -27q33 0 60.5 11t48.5 27t36 34t24 32q6 10 17.5 13.5t22.5 -1.5zM549 812q5 -8 1 -16t-13 -8
h-89q-16 0 -24 13l-74 107l-73 -107q-10 -13 -25 -13h-88q-10 0 -14 8t2 16l123 166q10 12 24 12h102q14 0 24 -12z" />
    <glyph glyph-name="ccircumflex" unicode="&#x109;" horiz-adv-x="564" 
d="M519 178q10 -5 13 -15t-2 -20q-9 -18 -27 -44t-47 -50t-69.5 -41t-94.5 -17q-60 0 -108.5 19.5t-82.5 55t-52.5 84t-18.5 107.5q0 58 20 107.5t56 84.5t86 55t110 20q65 0 118.5 -21.5t90.5 -73.5q12 -17 15 -37t-3 -38.5t-20 -33.5t-34 -22q-17 -6 -34 -5.5t-32 7
t-27 19t-18 29.5q-13 33 -25.5 55t-25.5 35t-26 18t-26 5q-29 0 -46.5 -26.5t-23 -66.5t1.5 -86t27.5 -86t56 -66.5t86.5 -26.5q24 0 44 7.5t36.5 18t28.5 22.5t20 21q6 7 15 9t18 -3zM481 612q5 -8 1 -16t-13 -8h-89q-16 0 -24 13l-74 107l-73 -107q-10 -13 -25 -13h-88
q-10 0 -14 8t2 16l123 166q10 12 24 12h102q14 0 24 -12z" />
    <glyph glyph-name="Cdotaccent" unicode="&#x10a;" horiz-adv-x="701" 
d="M653 226q12 -6 16 -18.5t-2 -24.5q-12 -23 -34.5 -56t-58.5 -63t-86 -51.5t-116 -21.5q-48 0 -107 18t-111.5 60.5t-88 113t-35.5 175.5t35.5 175.5t88 113t111.5 60.5t107 18q42 0 83 -8.5t78.5 -28t69 -52.5t54.5 -81q9 -20 9.5 -40.5t-6.5 -39t-21 -33t-34 -22.5
l-1 -1q-21 -9 -42.5 -7.5t-39.5 10.5t-32 25.5t-20 38.5q-20 75 -63.5 110.5t-95.5 30.5q-27 -3 -46 -21t-30 -47t-16 -65.5t-5 -76.5q0 -56 16 -110.5t45.5 -98.5t72 -71t96.5 -27q33 0 60.5 11t48.5 27t36 34t24 32q6 10 17.5 13.5t22.5 -1.5zM350 788q-21 0 -39 8
t-31.5 21.5t-21.5 32t-8 39.5t8 39.5t21.5 32t31.5 21.5t39 8t39.5 -8t32 -21.5t21.5 -32t8 -39.5t-8 -39.5t-21.5 -32t-32 -21.5t-39.5 -8z" />
    <glyph glyph-name="cdotaccent" unicode="&#x10b;" horiz-adv-x="564" 
d="M519 178q10 -5 13 -15t-2 -20q-9 -18 -27 -44t-47 -50t-69.5 -41t-94.5 -17q-60 0 -108.5 19.5t-82.5 55t-52.5 84t-18.5 107.5q0 58 20 107.5t56 84.5t86 55t110 20q65 0 118.5 -21.5t90.5 -73.5q12 -17 15 -37t-3 -38.5t-20 -33.5t-34 -22q-17 -6 -34 -5.5t-32 7
t-27 19t-18 29.5q-13 33 -25.5 55t-25.5 35t-26 18t-26 5q-29 0 -46.5 -26.5t-23 -66.5t1.5 -86t27.5 -86t56 -66.5t86.5 -26.5q24 0 44 7.5t36.5 18t28.5 22.5t20 21q6 7 15 9t18 -3zM281 588q-21 0 -39 8t-31.5 21.5t-21.5 32t-8 39.5t8 39.5t21.5 32t31.5 21.5t39 8
t39.5 -8t32 -21.5t21.5 -32t8 -39.5t-8 -39.5t-21.5 -32t-32 -21.5t-39.5 -8z" />
    <glyph glyph-name="Ccaron" unicode="&#x10c;" horiz-adv-x="701" 
d="M653 226q12 -6 16 -18.5t-2 -24.5q-12 -23 -34.5 -56t-58.5 -63t-86 -51.5t-116 -21.5q-48 0 -107 18t-111.5 60.5t-88 113t-35.5 175.5t35.5 175.5t88 113t111.5 60.5t107 18q42 0 83 -8.5t78.5 -28t69 -52.5t54.5 -81q9 -20 9.5 -40.5t-6.5 -39t-21 -33t-34 -22.5
l-1 -1q-21 -9 -42.5 -7.5t-39.5 10.5t-32 25.5t-20 38.5q-20 75 -63.5 110.5t-95.5 30.5q-27 -3 -46 -21t-30 -47t-16 -65.5t-5 -76.5q0 -56 16 -110.5t45.5 -98.5t72 -71t96.5 -27q33 0 60.5 11t48.5 27t36 34t24 32q6 10 17.5 13.5t22.5 -1.5zM537 990q9 0 13 -8t-1 -16
l-124 -166q-10 -12 -24 -12h-102q-14 0 -24 12l-123 166q-6 8 -2 16t14 8h88q15 0 25 -13l73 -107l74 107q8 13 24 13h89v0z" />
    <glyph glyph-name="ccaron" unicode="&#x10d;" horiz-adv-x="564" 
d="M519 178q10 -5 13 -15t-2 -20q-9 -18 -27 -44t-47 -50t-69.5 -41t-94.5 -17q-60 0 -108.5 19.5t-82.5 55t-52.5 84t-18.5 107.5q0 58 20 107.5t56 84.5t86 55t110 20q65 0 118.5 -21.5t90.5 -73.5q12 -17 15 -37t-3 -38.5t-20 -33.5t-34 -22q-17 -6 -34 -5.5t-32 7
t-27 19t-18 29.5q-13 33 -25.5 55t-25.5 35t-26 18t-26 5q-29 0 -46.5 -26.5t-23 -66.5t1.5 -86t27.5 -86t56 -66.5t86.5 -26.5q24 0 44 7.5t36.5 18t28.5 22.5t20 21q6 7 15 9t18 -3zM469 790q9 0 13 -8t-1 -16l-124 -166q-10 -12 -24 -12h-102q-14 0 -24 12l-123 166
q-6 8 -2 16t14 8h88q15 0 25 -13l73 -107l74 107q8 13 24 13h89v0z" />
    <glyph glyph-name="Dcaron" unicode="&#x10e;" horiz-adv-x="689" 
d="M276 725q117 0 191.5 -32t117 -83.5t58.5 -116t16 -130.5t-16 -130.5t-58.5 -116t-117 -83.5t-191.5 -32h-218q-12 0 -20 8.5t-8 19.5q0 10 6 18l38 45v541l-38 46q-6 7 -6 18t8 19.5t20 8.5h218zM290 81q52 0 88.5 21t58.5 58.5t32 89t10 113.5t-10 113.5t-32 89
t-58.5 58.5t-88.5 21h-46v-564h46zM531 990q9 0 13 -8t-1 -16l-124 -166q-10 -12 -24 -12h-102q-14 0 -24 12l-123 166q-6 8 -2 16t14 8h88q15 0 25 -13l73 -107l74 107q8 13 24 13h89v0z" />
    <glyph glyph-name="dcaron" unicode="&#x10f;" horiz-adv-x="837" 
d="M579 47q7 -9 7 -18q0 -11 -8.5 -19.5t-19.5 -8.5h-17h-98q-19 0 -34 8.5t-25 22.5q-16 -11 -48.5 -26t-79.5 -15q-44 0 -84.5 15t-72 47.5t-50.5 82.5t-19 121q0 70 20.5 120.5t52 83t69.5 47.5t73 15q49 0 80 -11.5t46 -21.5v101l-34 30q-11 9 -11 24q0 11 6.5 19.5
t16.5 11.5l22 7l121 36q17 6 32 -5q17 -11 17 -31v-591zM296 56q18 0 31.5 5t23.5 12q11 7 20 17v-1v336q-7 9 -17 16q-8 6 -21.5 11.5t-30.5 5.5q-18 0 -36 -11.5t-32.5 -36.5t-24 -63t-9.5 -90q0 -106 25 -153.5t71 -47.5zM702 765q39 0 66.5 -27t27.5 -66v-2
q0 -40 -12 -74t-28.5 -61.5t-35 -48.5t-33.5 -34q-10 -9 -23.5 -8.5t-21.5 11.5q-9 10 -8.5 23t10.5 22q5 5 11 10.5t12 12.5q15 16 12 37.5t-22 32.5q-21 12 -33.5 33.5t-12.5 47.5q1 38 27.5 64t63.5 27z" />
    <glyph glyph-name="Dcroat" unicode="&#x110;" horiz-adv-x="689" 
d="M276 725q117 0 191.5 -32t117 -83.5t58.5 -116t16 -130.5t-16 -130.5t-58.5 -116t-117 -83.5t-191.5 -32h-218q-12 0 -20 8.5t-8 19.5q0 10 6 18l38 45v541l-38 46q-6 7 -6 18t8 19.5t20 8.5h218zM290 81q52 0 88.5 21t58.5 58.5t32 89t10 113.5t-10 113.5t-32 89
t-58.5 58.5t-88.5 21h-46v-564h46zM326 536q8 0 13 -5.5t5 -13.5v-52q0 -8 -5 -13.5t-13 -5.5h-303q-8 0 -13.5 5.5t-5.5 13.5v52q0 8 5.5 13.5t13.5 5.5h303v0z" />
    <glyph glyph-name="dcroat" unicode="&#x111;" horiz-adv-x="616" 
d="M579 47q7 -9 7 -18q0 -11 -8.5 -19.5t-19.5 -8.5h-17h-98q-19 0 -34 8.5t-25 22.5q-16 -11 -48.5 -26t-79.5 -15q-44 0 -84.5 15t-72 47.5t-50.5 82.5t-19 121q0 70 20.5 120.5t52 83t69.5 47.5t73 15q49 0 80 -11.5t46 -21.5v101l-34 30q-11 9 -11 24q0 11 6.5 19.5
t16.5 11.5l22 7l121 36q17 6 32 -5q17 -11 17 -31v-591zM296 56q18 0 31.5 5t23.5 12q11 7 20 17v-1v336q-7 9 -17 16q-8 6 -21.5 11.5t-30.5 5.5q-18 0 -36 -11.5t-32.5 -36.5t-24 -63t-9.5 -90q0 -106 25 -153.5t71 -47.5zM629 285q0 -12 -8.5 -21t-21.5 -9h-324
q-12 0 -21 9t-9 21v55q0 13 9 21.5t21 8.5h324q13 0 21.5 -8.5t8.5 -21.5v-55v0z" />
    <glyph glyph-name="Emacron" unicode="&#x112;" horiz-adv-x="640" 
d="M582 161q11 0 19.5 -8t8.5 -20v-102q0 -13 -8.5 -21.5t-21.5 -8.5h-522q-11 0 -19.5 8.5t-8.5 19.5q0 9 7 18l38 45v541l-38 46q-7 9 -7 18q0 11 8.5 19.5t19.5 8.5h502q13 0 21.5 -9t8.5 -21v-103q0 -11 -8.5 -19.5t-19.5 -8.5q-9 0 -18 7q-43 36 -94.5 55t-107.5 19
h-97v-242h160l65 66q7 8 19 8q11 0 19 -7.5t8 -18.5v-176q0 -11 -8 -19t-19 -8t-19 8l-65 67h-160v-182q0 -25 17.5 -42.5t42.5 -17.5h57q56 0 107.5 19t94.5 55q7 6 18 6zM472 878q8 0 13 -5.5t5 -13.5v-52q0 -8 -5 -13.5t-13 -5.5h-303q-8 0 -13.5 5.5t-5.5 13.5v52
q0 8 5.5 13.5t13.5 5.5h303v0z" />
    <glyph glyph-name="emacron" unicode="&#x113;" horiz-adv-x="563" 
d="M518 178q10 -5 13.5 -15t-1.5 -20q-9 -18 -27.5 -44t-47 -50t-69.5 -41t-95 -17q-60 0 -108.5 19.5t-82 55t-52 84t-18.5 107.5q0 58 20 107.5t55.5 84.5t85.5 55t110 20q71 0 130.5 -43t90.5 -137q4 -11 -1.5 -22t-16.5 -15l-1 -1l-296 -109q22 -40 58.5 -67t91.5 -27
q24 0 44 7.5t36.5 18t28.5 22.5t20 21q5 7 14.5 9t17.5 -3zM228 456q-18 -6 -30.5 -27t-18 -50t-4 -63t11.5 -68l190 71q-33 86 -73 117.5t-76 19.5zM433 678q8 0 13 -5.5t5 -13.5v-52q0 -8 -5 -13.5t-13 -5.5h-303q-8 0 -13.5 5.5t-5.5 13.5v52q0 8 5.5 13.5t13.5 5.5h303
v0z" />
    <glyph glyph-name="Ebreve" unicode="&#x114;" horiz-adv-x="640" 
d="M582 161q11 0 19.5 -8t8.5 -20v-102q0 -13 -8.5 -21.5t-21.5 -8.5h-522q-11 0 -19.5 8.5t-8.5 19.5q0 9 7 18l38 45v541l-38 46q-7 9 -7 18q0 11 8.5 19.5t19.5 8.5h502q13 0 21.5 -9t8.5 -21v-103q0 -11 -8.5 -19.5t-19.5 -8.5q-9 0 -18 7q-43 36 -94.5 55t-107.5 19
h-97v-242h160l65 66q7 8 19 8q11 0 19 -7.5t8 -18.5v-176q0 -11 -8 -19t-19 -8t-19 8l-65 67h-160v-182q0 -25 17.5 -42.5t42.5 -17.5h57q56 0 107.5 19t94.5 55q7 6 18 6zM521 990q9 0 15 -6.5t5 -15.5q-3 -38 -19 -70.5t-43.5 -57t-67.5 -38.5t-91 -14q-52 0 -92 14
t-67.5 38.5t-43.5 57t-19 70.5q-1 9 5 15.5t15 6.5h82q8 0 13 -5t7 -13q4 -34 27.5 -57.5t72.5 -23.5q48 0 71.5 23.5t28.5 57.5q1 8 6 13t13 5h82v0z" />
    <glyph glyph-name="ebreve" unicode="&#x115;" horiz-adv-x="563" 
d="M518 178q10 -5 13.5 -15t-1.5 -20q-9 -18 -27.5 -44t-47 -50t-69.5 -41t-95 -17q-60 0 -108.5 19.5t-82 55t-52 84t-18.5 107.5q0 58 20 107.5t55.5 84.5t85.5 55t110 20q71 0 130.5 -43t90.5 -137q4 -11 -1.5 -22t-16.5 -15l-1 -1l-296 -109q22 -40 58.5 -67t91.5 -27
q24 0 44 7.5t36.5 18t28.5 22.5t20 21q5 7 14.5 9t17.5 -3zM228 456q-18 -6 -30.5 -27t-18 -50t-4 -63t11.5 -68l190 71q-33 86 -73 117.5t-76 19.5zM483 790q9 0 15 -6.5t5 -15.5q-3 -38 -19 -70.5t-43.5 -57t-67.5 -38.5t-91 -14q-52 0 -92 14t-67.5 38.5t-43.5 57
t-19 70.5q-1 9 5 15.5t15 6.5h82q8 0 13 -5t7 -13q4 -34 27.5 -57.5t72.5 -23.5q48 0 71.5 23.5t28.5 57.5q1 8 6 13t13 5h82v0z" />
    <glyph glyph-name="Edotaccent" unicode="&#x116;" horiz-adv-x="640" 
d="M582 161q11 0 19.5 -8t8.5 -20v-102q0 -13 -8.5 -21.5t-21.5 -8.5h-522q-11 0 -19.5 8.5t-8.5 19.5q0 9 7 18l38 45v541l-38 46q-7 9 -7 18q0 11 8.5 19.5t19.5 8.5h502q13 0 21.5 -9t8.5 -21v-103q0 -11 -8.5 -19.5t-19.5 -8.5q-9 0 -18 7q-43 36 -94.5 55t-107.5 19
h-97v-242h160l65 66q7 8 19 8q11 0 19 -7.5t8 -18.5v-176q0 -11 -8 -19t-19 -8t-19 8l-65 67h-160v-182q0 -25 17.5 -42.5t42.5 -17.5h57q56 0 107.5 19t94.5 55q7 6 18 6zM319 788q-21 0 -39 8t-31.5 21.5t-21.5 32t-8 39.5t8 39.5t21.5 32t31.5 21.5t39 8t39.5 -8
t32 -21.5t21.5 -32t8 -39.5t-8 -39.5t-21.5 -32t-32 -21.5t-39.5 -8z" />
    <glyph glyph-name="edotaccent" unicode="&#x117;" horiz-adv-x="563" 
d="M518 178q10 -5 13.5 -15t-1.5 -20q-9 -18 -27.5 -44t-47 -50t-69.5 -41t-95 -17q-60 0 -108.5 19.5t-82 55t-52 84t-18.5 107.5q0 58 20 107.5t55.5 84.5t85.5 55t110 20q71 0 130.5 -43t90.5 -137q4 -11 -1.5 -22t-16.5 -15l-1 -1l-296 -109q22 -40 58.5 -67t91.5 -27
q24 0 44 7.5t36.5 18t28.5 22.5t20 21q5 7 14.5 9t17.5 -3zM228 456q-18 -6 -30.5 -27t-18 -50t-4 -63t11.5 -68l190 71q-33 86 -73 117.5t-76 19.5zM281 588q-21 0 -39 8t-31.5 21.5t-21.5 32t-8 39.5t8 39.5t21.5 32t31.5 21.5t39 8t39.5 -8t32 -21.5t21.5 -32t8 -39.5
t-8 -39.5t-21.5 -32t-32 -21.5t-39.5 -8z" />
    <glyph glyph-name="Eogonek" unicode="&#x118;" horiz-adv-x="640" 
d="M582 161q11 0 19.5 -8t8.5 -20v-102q0 -13 -8.5 -21.5t-21.5 -8.5h-522q-11 0 -19.5 8.5t-8.5 19.5q0 9 7 18l38 45v541l-38 46q-7 9 -7 18q0 11 8.5 19.5t19.5 8.5h502q13 0 21.5 -9t8.5 -21v-103q0 -11 -8.5 -19.5t-19.5 -8.5q-9 0 -18 7q-43 36 -94.5 55t-107.5 19
h-97v-242h160l65 66q7 8 19 8q11 0 19 -7.5t8 -18.5v-176q0 -11 -8 -19t-19 -8t-19 8l-65 67h-160v-182q0 -25 17.5 -42.5t42.5 -17.5h57q56 0 107.5 19t94.5 55q7 6 18 6zM470 4q-32 -25 -58 -54q-22 -25 -40 -58.5t-18 -71.5q0 -41 21 -62t71 -23q6 0 10 -4.5t4 -10.5v-38
q0 -6 -4.5 -10.5t-10.5 -4.5q-75 1 -119 14t-67 32.5t-29.5 43.5t-6.5 48q0 26 9.5 50t24.5 45.5t34.5 40.5t40.5 34q48 36 110 65l28 -36v0z" />
    <glyph glyph-name="eogonek" unicode="&#x119;" horiz-adv-x="563" 
d="M518 178q10 -5 13.5 -15t-1.5 -20q-9 -18 -27.5 -44t-47 -50t-69.5 -41t-95 -17q-60 0 -108.5 19.5t-82 55t-52 84t-18.5 107.5q0 58 20 107.5t55.5 84.5t85.5 55t110 20q71 0 130.5 -43t90.5 -137q4 -11 -1.5 -22t-16.5 -15l-1 -1l-296 -109q22 -40 58.5 -67t91.5 -27
q24 0 44 7.5t36.5 18t28.5 22.5t20 21q5 7 14.5 9t17.5 -3zM228 456q-18 -6 -30.5 -27t-18 -50t-4 -63t11.5 -68l190 71q-33 86 -73 117.5t-76 19.5zM360 4q-32 -25 -58 -54q-22 -25 -40 -58.5t-18 -71.5q0 -41 21 -62t71 -23q6 0 10 -4.5t4 -10.5v-38q0 -6 -4.5 -10.5
t-10.5 -4.5q-75 1 -119 14t-67 32.5t-29.5 43.5t-6.5 48q0 26 9.5 50t24.5 45.5t34.5 40.5t40.5 34q48 36 110 65l28 -36v0z" />
    <glyph glyph-name="Ecaron" unicode="&#x11a;" horiz-adv-x="640" 
d="M582 161q11 0 19.5 -8t8.5 -20v-102q0 -13 -8.5 -21.5t-21.5 -8.5h-522q-11 0 -19.5 8.5t-8.5 19.5q0 9 7 18l38 45v541l-38 46q-7 9 -7 18q0 11 8.5 19.5t19.5 8.5h502q13 0 21.5 -9t8.5 -21v-103q0 -11 -8.5 -19.5t-19.5 -8.5q-9 0 -18 7q-43 36 -94.5 55t-107.5 19
h-97v-242h160l65 66q7 8 19 8q11 0 19 -7.5t8 -18.5v-176q0 -11 -8 -19t-19 -8t-19 8l-65 67h-160v-182q0 -25 17.5 -42.5t42.5 -17.5h57q56 0 107.5 19t94.5 55q7 6 18 6zM507 990q9 0 13 -8t-1 -16l-124 -166q-10 -12 -24 -12h-102q-14 0 -24 12l-123 166q-6 8 -2 16t14 8
h88q15 0 25 -13l73 -107l74 107q8 13 24 13h89v0z" />
    <glyph glyph-name="ecaron" unicode="&#x11b;" horiz-adv-x="563" 
d="M518 178q10 -5 13.5 -15t-1.5 -20q-9 -18 -27.5 -44t-47 -50t-69.5 -41t-95 -17q-60 0 -108.5 19.5t-82 55t-52 84t-18.5 107.5q0 58 20 107.5t55.5 84.5t85.5 55t110 20q71 0 130.5 -43t90.5 -137q4 -11 -1.5 -22t-16.5 -15l-1 -1l-296 -109q22 -40 58.5 -67t91.5 -27
q24 0 44 7.5t36.5 18t28.5 22.5t20 21q5 7 14.5 9t17.5 -3zM228 456q-18 -6 -30.5 -27t-18 -50t-4 -63t11.5 -68l190 71q-33 86 -73 117.5t-76 19.5zM468 790q9 0 13 -8t-1 -16l-124 -166q-10 -12 -24 -12h-102q-14 0 -24 12l-123 166q-6 8 -2 16t14 8h88q15 0 25 -13
l73 -107l74 107q8 13 24 13h89v0z" />
    <glyph glyph-name="Gcircumflex" unicode="&#x11c;" horiz-adv-x="790" 
d="M716 389q18 0 31 -13t13 -32q0 -18 -13 -31t-31 -13h-35q0 -21 -2.5 -52t-12.5 -65t-30 -68.5t-54.5 -62t-86 -44.5t-123.5 -17q-48 0 -107 18t-111.5 60.5t-88 113t-35.5 175.5t35.5 175.5t88 113t111.5 60.5t107 18q37 0 73 -6t69 -18.5t62.5 -32.5t53.5 -48
q16 -19 21 -42t-0.5 -45t-20.5 -40.5t-38 -27.5q-37 -15 -74 0.5t-53 52.5q-22 53 -63 83.5t-90 25.5q-51 -5 -74 -60.5t-23 -149.5q0 -56 15.5 -110.5t43.5 -98.5t68 -71t88 -27q39 0 58.5 20t24.5 49t-1 62t-18 59h-57q-19 0 -32 13t-13 31q0 19 13 32t32 13h279v0z
M594 812q5 -8 1 -16t-13 -8h-89q-16 0 -24 13l-74 107l-73 -107q-10 -13 -25 -13h-88q-10 0 -14 8t2 16l123 166q10 12 24 12h102q14 0 24 -12z" />
    <glyph glyph-name="gcircumflex" unicode="&#x11d;" horiz-adv-x="557" 
d="M476 584q22 9 41.5 -4t19.5 -37q0 -17 -12 -29.5t-29 -14.5q-14 -1 -30.5 -4.5t-32.5 -11.5q42 -25 65 -62t23 -82q0 -39 -18.5 -73t-51 -59t-77.5 -39t-98 -14q-52 0 -97 14q-5 -7 -8 -15.5t-3 -17.5t2 -16t11 -11t28 -6t52 -2h84q30 0 60 -10t53.5 -29.5t38 -47.5
t14.5 -63t-16.5 -65t-47.5 -51.5t-75.5 -34t-100.5 -12.5q-38 0 -75.5 6.5t-67 20t-48 33t-18.5 46.5q0 31 19 49.5t42 29.5q-44 15 -60 43.5t-16 52.5t9 43.5t22 34.5t27 25.5t24 16.5q-46 26 -72.5 64.5t-26.5 86.5q0 39 18.5 73t51.5 58.5t78 39t98 14.5q29 0 56.5 -5
t51.5 -13q21 32 45.5 50.5t46.5 27.5zM351 339q0 39 -7 64t-17.5 39.5t-24 20.5t-26.5 6t-26.5 -6t-24.5 -20.5t-18 -39.5t-7 -64t7 -64t18 -39.5t24.5 -20.5t26.5 -6t26.5 6t24 20.5t17.5 39.5t7 64zM207 -38q-21 -11 -28 -30.5t1.5 -39.5t32.5 -34.5t66 -14.5q48 0 75 16
t27 48q0 24 -18.5 39.5t-50.5 15.5h-105zM477 612q5 -8 1 -16t-13 -8h-89q-16 0 -24 13l-74 107l-73 -107q-10 -13 -25 -13h-88q-10 0 -14 8t2 16l123 166q10 12 24 12h102q14 0 24 -12z" />
    <glyph glyph-name="Gbreve" unicode="&#x11e;" horiz-adv-x="790" 
d="M716 389q18 0 31 -13t13 -32q0 -18 -13 -31t-31 -13h-35q0 -21 -2.5 -52t-12.5 -65t-30 -68.5t-54.5 -62t-86 -44.5t-123.5 -17q-48 0 -107 18t-111.5 60.5t-88 113t-35.5 175.5t35.5 175.5t88 113t111.5 60.5t107 18q37 0 73 -6t69 -18.5t62.5 -32.5t53.5 -48
q16 -19 21 -42t-0.5 -45t-20.5 -40.5t-38 -27.5q-37 -15 -74 0.5t-53 52.5q-22 53 -63 83.5t-90 25.5q-51 -5 -74 -60.5t-23 -149.5q0 -56 15.5 -110.5t43.5 -98.5t68 -71t88 -27q39 0 58.5 20t24.5 49t-1 62t-18 59h-57q-19 0 -32 13t-13 31q0 19 13 32t32 13h279v0z
M596 990q9 0 15 -6.5t5 -15.5q-3 -38 -19 -70.5t-43.5 -57t-67.5 -38.5t-91 -14q-52 0 -92 14t-67.5 38.5t-43.5 57t-19 70.5q-1 9 5 15.5t15 6.5h82q8 0 13 -5t7 -13q4 -34 27.5 -57.5t72.5 -23.5q48 0 71.5 23.5t28.5 57.5q1 8 6 13t13 5h82v0z" />
    <glyph glyph-name="gbreve" unicode="&#x11f;" horiz-adv-x="557" 
d="M476 584q22 9 41.5 -4t19.5 -37q0 -17 -12 -29.5t-29 -14.5q-14 -1 -30.5 -4.5t-32.5 -11.5q42 -25 65 -62t23 -82q0 -39 -18.5 -73t-51 -59t-77.5 -39t-98 -14q-52 0 -97 14q-5 -7 -8 -15.5t-3 -17.5t2 -16t11 -11t28 -6t52 -2h84q30 0 60 -10t53.5 -29.5t38 -47.5
t14.5 -63t-16.5 -65t-47.5 -51.5t-75.5 -34t-100.5 -12.5q-38 0 -75.5 6.5t-67 20t-48 33t-18.5 46.5q0 31 19 49.5t42 29.5q-44 15 -60 43.5t-16 52.5t9 43.5t22 34.5t27 25.5t24 16.5q-46 26 -72.5 64.5t-26.5 86.5q0 39 18.5 73t51.5 58.5t78 39t98 14.5q29 0 56.5 -5
t51.5 -13q21 32 45.5 50.5t46.5 27.5zM351 339q0 39 -7 64t-17.5 39.5t-24 20.5t-26.5 6t-26.5 -6t-24.5 -20.5t-18 -39.5t-7 -64t7 -64t18 -39.5t24.5 -20.5t26.5 -6t26.5 6t24 20.5t17.5 39.5t7 64zM207 -38q-21 -11 -28 -30.5t1.5 -39.5t32.5 -34.5t66 -14.5q48 0 75 16
t27 48q0 24 -18.5 39.5t-50.5 15.5h-105zM480 790q9 0 15 -6.5t5 -15.5q-3 -38 -19 -70.5t-43.5 -57t-67.5 -38.5t-91 -14q-52 0 -92 14t-67.5 38.5t-43.5 57t-19 70.5q-1 9 5 15.5t15 6.5h82q8 0 13 -5t7 -13q4 -34 27.5 -57.5t72.5 -23.5q48 0 71.5 23.5t28.5 57.5
q1 8 6 13t13 5h82v0z" />
    <glyph glyph-name="Gdotaccent" unicode="&#x120;" horiz-adv-x="790" 
d="M716 389q18 0 31 -13t13 -32q0 -18 -13 -31t-31 -13h-35q0 -21 -2.5 -52t-12.5 -65t-30 -68.5t-54.5 -62t-86 -44.5t-123.5 -17q-48 0 -107 18t-111.5 60.5t-88 113t-35.5 175.5t35.5 175.5t88 113t111.5 60.5t107 18q37 0 73 -6t69 -18.5t62.5 -32.5t53.5 -48
q16 -19 21 -42t-0.5 -45t-20.5 -40.5t-38 -27.5q-37 -15 -74 0.5t-53 52.5q-22 53 -63 83.5t-90 25.5q-51 -5 -74 -60.5t-23 -149.5q0 -56 15.5 -110.5t43.5 -98.5t68 -71t88 -27q39 0 58.5 20t24.5 49t-1 62t-18 59h-57q-19 0 -32 13t-13 31q0 19 13 32t32 13h279v0z
M394 788q-21 0 -39 8t-31.5 21.5t-21.5 32t-8 39.5t8 39.5t21.5 32t31.5 21.5t39 8t39.5 -8t32 -21.5t21.5 -32t8 -39.5t-8 -39.5t-21.5 -32t-32 -21.5t-39.5 -8z" />
    <glyph glyph-name="gdotaccent" unicode="&#x121;" horiz-adv-x="557" 
d="M476 584q22 9 41.5 -4t19.5 -37q0 -17 -12 -29.5t-29 -14.5q-14 -1 -30.5 -4.5t-32.5 -11.5q42 -25 65 -62t23 -82q0 -39 -18.5 -73t-51 -59t-77.5 -39t-98 -14q-52 0 -97 14q-5 -7 -8 -15.5t-3 -17.5t2 -16t11 -11t28 -6t52 -2h84q30 0 60 -10t53.5 -29.5t38 -47.5
t14.5 -63t-16.5 -65t-47.5 -51.5t-75.5 -34t-100.5 -12.5q-38 0 -75.5 6.5t-67 20t-48 33t-18.5 46.5q0 31 19 49.5t42 29.5q-44 15 -60 43.5t-16 52.5t9 43.5t22 34.5t27 25.5t24 16.5q-46 26 -72.5 64.5t-26.5 86.5q0 39 18.5 73t51.5 58.5t78 39t98 14.5q29 0 56.5 -5
t51.5 -13q21 32 45.5 50.5t46.5 27.5zM351 339q0 39 -7 64t-17.5 39.5t-24 20.5t-26.5 6t-26.5 -6t-24.5 -20.5t-18 -39.5t-7 -64t7 -64t18 -39.5t24.5 -20.5t26.5 -6t26.5 6t24 20.5t17.5 39.5t7 64zM207 -38q-21 -11 -28 -30.5t1.5 -39.5t32.5 -34.5t66 -14.5q48 0 75 16
t27 48q0 24 -18.5 39.5t-50.5 15.5h-105zM278 588q-21 0 -39 8t-31.5 21.5t-21.5 32t-8 39.5t8 39.5t21.5 32t31.5 21.5t39 8t39.5 -8t32 -21.5t21.5 -32t8 -39.5t-8 -39.5t-21.5 -32t-32 -21.5t-39.5 -8z" />
    <glyph glyph-name="uni0122" unicode="&#x122;" horiz-adv-x="790" 
d="M715 389q19 0 32 -13t13 -32q0 -18 -13 -31t-32 -13h-34q1 -18 -1 -47.5t-11 -64t-28.5 -69.5t-54 -63.5t-87 -46.5t-127.5 -18q-48 0 -107 18t-111.5 60.5t-88 113t-35.5 175.5t35.5 175.5t88 113t111.5 60.5t107 18q37 0 73 -6t69 -18.5t62.5 -32.5t53.5 -48
q16 -19 21 -42t-0.5 -45t-20.5 -40.5t-38 -27.5q-38 -15 -74.5 0.5t-52.5 52.5q-22 53 -63.5 83.5t-90.5 25.5q-50 -5 -73.5 -60.5t-23.5 -149.5q0 -56 15.5 -110.5t44 -98.5t68.5 -71t88 -27q40 0 61 21.5t28 51.5t2.5 62.5t-15.5 54.5h-69q-19 0 -32 13t-13 31q0 19 13 32
t32 13h278zM463 -72q13 0 17.5 -11.5t-4.5 -19.5l-134 -134q-14 -14 -34 -14h-60q-11 0 -16.5 8t-0.5 18l53 124q13 29 45 29h134z" />
    <glyph glyph-name="uni0123" unicode="&#x123;" horiz-adv-x="557" 
d="M476 584q22 9 41.5 -4t19.5 -37q0 -17 -12 -29.5t-29 -14.5q-14 -1 -30.5 -4.5t-32.5 -11.5q42 -25 65.5 -62t23.5 -82q0 -39 -18.5 -73t-51.5 -59t-78 -39t-98 -14q-52 0 -97 14q-4 -7 -7.5 -15.5t-3.5 -17.5t2 -16t11.5 -11t28 -6t51.5 -2h85q30 0 60 -10t53.5 -29.5
t38 -47.5t14.5 -63t-16.5 -65t-48 -51.5t-76 -34t-100.5 -12.5q-38 0 -75 6.5t-67 20t-48.5 33t-18.5 46.5q0 31 19.5 49.5t42.5 29.5q-44 15 -60.5 43.5t-16.5 52.5t9 43.5t22 34.5t27 25.5t24 16.5q-46 26 -72.5 64.5t-26.5 86.5q0 39 18.5 73t51.5 58.5t78 39t98 14.5
q29 0 56.5 -5t51.5 -13q22 32 46 50.5t46 27.5zM207 -38q-21 -11 -28 -30.5t1.5 -39.5t32.5 -34.5t66 -14.5q48 0 75.5 16t27.5 48q0 24 -18.5 39.5t-50.5 15.5h-106zM352 339q0 39 -7 64t-18 39.5t-24.5 20.5t-26.5 6t-26.5 -6t-24.5 -20.5t-18 -39.5t-7 -64t7 -64
t18 -39.5t24.5 -20.5t26.5 -6t26.5 6t24.5 20.5t18 39.5t7 64zM182 579q-12 0 -17 11.5t4 20.5l135 133q14 14 34 14h60q10 0 15.5 -8t1.5 -17l-54 -125q-5 -14 -17.5 -21.5t-26.5 -7.5h-135z" />
    <glyph glyph-name="Hcircumflex" unicode="&#x124;" 
d="M658 725q12 0 20 -8.5t8 -19.5t-6 -18l-38 -46v-541l38 -45q6 -8 6 -18q0 -11 -8 -19.5t-20 -8.5h-203q-11 0 -19.5 8.5t-8.5 19.5t7 18l38 45v231h-227v-231l38 -45q6 -8 6 -18q0 -11 -8 -19.5t-20 -8.5h-203q-11 0 -19.5 8.5t-8.5 19.5t7 18l38 45v541l-38 46
q-7 7 -7 18t8.5 19.5t19.5 8.5h203q12 0 20 -8.5t8 -19.5t-6 -18l-38 -46v-230h227v230l-38 46q-7 7 -7 18t8.5 19.5t19.5 8.5h203v0zM557 812q5 -8 1 -16t-13 -8h-89q-16 0 -24 13l-74 107l-73 -107q-10 -13 -25 -13h-88q-10 0 -14 8t2 16l123 166q10 12 24 12h102
q14 0 24 -12z" />
    <glyph glyph-name="hcircumflex" unicode="&#x125;" horiz-adv-x="621" 
d="M585 47q6 -8 6 -18q0 -11 -8 -19.5t-20 -8.5h-203q-12 0 -20 8.5t-8 19.5q0 10 6 18l38 45v205q0 45 -2.5 75.5t-9 49.5t-17.5 27.5t-28 8.5q-20 0 -39 -15t-35 -35v-316l38 -45q7 -9 7 -18q0 -11 -8.5 -19.5t-19.5 -8.5h-204q-11 0 -19.5 8.5t-8.5 19.5q0 9 7 18l38 45
v499l-34 30q-11 9 -11 24q0 11 6.5 19.5t16.5 11.5l22 7l121 36q17 6 32 -5q17 -11 17 -31v-216q23 23 54.5 39.5t70.5 16.5q28 0 59 -9.5t57 -32.5t43 -63t17 -101v-225zM509 777q5 -8 1 -16t-13 -8h-89q-16 0 -24 13l-74 107l-73 -107q-10 -13 -25 -13h-88q-10 0 -14 8
t2 16l123 166q10 12 24 12h102q14 0 24 -12z" />
    <glyph glyph-name="Hbar" unicode="&#x126;" 
d="M658 725q12 0 20 -8.5t8 -19.5t-6 -18l-38 -46v-541l38 -45q6 -8 6 -18q0 -11 -8 -19.5t-20 -8.5h-203q-11 0 -19.5 8.5t-8.5 19.5t7 18l38 45v231h-227v-231l38 -45q6 -8 6 -18q0 -11 -8 -19.5t-20 -8.5h-203q-11 0 -19.5 8.5t-8.5 19.5t7 18l38 45v541l-38 46
q-7 7 -7 18t8.5 19.5t19.5 8.5h203q12 0 20 -8.5t8 -19.5t-6 -18l-38 -46v-230h227v230l-38 46q-7 7 -7 18t8.5 19.5t19.5 8.5h203v0zM-768.545 553.938q-15.1055 0 -24.5469 -5.37793t-9.44141 -13.2002v-50.8447q0 -7.82227 9.44141 -13.2002t24.5469 -5.37793h572.139
q15.1055 0 25.4912 5.37793t10.3857 13.2002v50.8447q0 7.82227 -10.3857 13.2002t-25.4912 5.37793h-572.139v0z" />
    <glyph glyph-name="hbar" unicode="&#x127;" horiz-adv-x="621" 
d="M585 47q6 -8 6 -18q0 -11 -8 -19.5t-20 -8.5h-203q-12 0 -20 8.5t-8 19.5q0 10 6 18l38 45v205q0 45 -2.5 75.5t-9 49.5t-17.5 27.5t-28 8.5q-20 0 -39 -15t-35 -35v-316l38 -45q7 -9 7 -18q0 -11 -8.5 -19.5t-19.5 -8.5h-204q-11 0 -19.5 8.5t-8.5 19.5q0 9 7 18l38 45
v499l-34 30q-11 9 -11 24q0 11 6.5 19.5t16.5 11.5l22 7l121 36q17 6 32 -5q17 -11 17 -31v-216q23 23 54.5 39.5t70.5 16.5q28 0 59 -9.5t57 -32.5t43 -63t17 -101v-225zM317 354q8 0 13 -5.5t5 -13.5v-52q0 -8 -5 -13.5t-13 -5.5h-303q-8 0 -13.5 5.5t-5.5 13.5v52
q0 8 5.5 13.5t13.5 5.5h303v0z" />
    <glyph glyph-name="Itilde" unicode="&#x128;" horiz-adv-x="320" 
d="M262 725q11 0 19.5 -8.5t8.5 -19.5q0 -9 -7 -18l-38 -46v-541l38 -45q7 -9 7 -18q0 -11 -8.5 -19.5t-19.5 -8.5h-204q-11 0 -19.5 8.5t-8.5 19.5q0 9 7 18l38 45v541l-38 46q-7 9 -7 18q0 11 8.5 19.5t19.5 8.5h204v0zM258 973q28 0 49 -16.5t35.5 -40t23.5 -48.5t13 -43
q3 -10 -1.5 -18.5t-13.5 -12.5q-8 -4 -17 -2.5t-15 9.5q-14 16 -37 31.5t-49 15.5q-25 0 -45.5 -10.5t-41.5 -23.5t-44 -23.5t-52 -10.5q-27 0 -47 15t-35 37t-24.5 46t-14.5 41q-3 11 1.5 21.5t14.5 15.5h1q10 5 20.5 2.5t17.5 -10.5q12 -16 33 -32.5t49 -16.5
q23 0 43 11.5t40.5 25.5t43.5 25.5t52 11.5z" />
    <glyph glyph-name="itilde" unicode="&#x129;" horiz-adv-x="319" 
d="M283 47q6 -8 6 -18q0 -11 -8 -19.5t-20 -8.5h-203q-11 0 -19.5 8.5t-8.5 19.5t7 18l38 45v303l-34 30q-11 9 -11 24q0 23 23 31l22 6l121 37q19 5 32 -5q17 -11 17 -31v-395zM257 773q28 0 49 -16.5t35.5 -40t23.5 -48.5t13 -43q3 -10 -1.5 -18.5t-13.5 -12.5
q-8 -4 -17 -2.5t-15 9.5q-14 16 -37 31.5t-49 15.5q-25 0 -45.5 -10.5t-41.5 -23.5t-44 -23.5t-52 -10.5q-27 0 -47 15t-35 37t-24.5 46t-14.5 41q-3 11 1.5 21.5t14.5 15.5h1q10 5 20.5 2.5t17.5 -10.5q12 -16 33 -32.5t49 -16.5q23 0 43 11.5t40.5 25.5t43.5 25.5t52 11.5
z" />
    <glyph glyph-name="Imacron" unicode="&#x12a;" horiz-adv-x="320" 
d="M262 725q11 0 19.5 -8.5t8.5 -19.5q0 -9 -7 -18l-38 -46v-541l38 -45q7 -9 7 -18q0 -11 -8.5 -19.5t-19.5 -8.5h-204q-11 0 -19.5 8.5t-8.5 19.5q0 9 7 18l38 45v541l-38 46q-7 9 -7 18q0 11 8.5 19.5t19.5 8.5h204v0zM312 878q8 0 13 -5.5t5 -13.5v-52q0 -8 -5 -13.5
t-13 -5.5h-303q-8 0 -13.5 5.5t-5.5 13.5v52q0 8 5.5 13.5t13.5 5.5h303v0z" />
    <glyph glyph-name="imacron" unicode="&#x12b;" horiz-adv-x="319" 
d="M283 47q6 -8 6 -18q0 -11 -8 -19.5t-20 -8.5h-203q-11 0 -19.5 8.5t-8.5 19.5t7 18l38 45v303l-34 30q-11 9 -11 24q0 23 23 31l22 6l121 37q19 5 32 -5q17 -11 17 -31v-395zM312 678q8 0 13 -5.5t5 -13.5v-52q0 -8 -5 -13.5t-13 -5.5h-303q-8 0 -13.5 5.5t-5.5 13.5v52
q0 8 5.5 13.5t13.5 5.5h303v0z" />
    <glyph glyph-name="Iogonek" unicode="&#x12e;" horiz-adv-x="320" 
d="M262 725q11 0 19.5 -8.5t8.5 -19.5q0 -9 -7 -18l-38 -46v-541l38 -45q7 -9 7 -18q0 -11 -8.5 -19.5t-19.5 -8.5h-204q-11 0 -19.5 8.5t-8.5 19.5q0 9 7 18l38 45v541l-38 46q-7 9 -7 18q0 11 8.5 19.5t19.5 8.5h204v0zM240 4q-32 -25 -58 -54q-22 -25 -40 -58.5
t-18 -71.5q0 -41 21 -62t71 -23q6 0 10 -4.5t4 -10.5v-38q0 -6 -4.5 -10.5t-10.5 -4.5q-75 1 -119 14t-67 32.5t-29.5 43.5t-6.5 48q0 26 9.5 50t24.5 45.5t34.5 40.5t40.5 34q48 36 110 65l28 -36v0z" />
    <glyph glyph-name="iogonek" unicode="&#x12f;" horiz-adv-x="319" 
d="M283 47q6 -8 6 -18q0 -11 -8 -19.5t-20 -8.5h-203q-11 0 -19.5 8.5t-8.5 19.5t7 18l38 45v303l-34 30q-11 9 -11 24q0 23 23 31l22 6l121 37q19 5 32 -5q17 -11 17 -31v-395zM171 555q-20 -5 -39.5 -2t-36 12.5t-28 24t-15.5 33.5q-5 19 -1 37.5t14.5 34t26.5 27t37 16.5
q20 4 39.5 1t36 -12t28 -24t16.5 -34q8 -38 -14 -71t-64 -43zM260 4q-32 -25 -58 -54q-22 -25 -40 -58.5t-18 -71.5q0 -41 21 -62t71 -23q6 0 10 -4.5t4 -10.5v-38q0 -6 -4.5 -10.5t-10.5 -4.5q-75 1 -119 14t-67 32.5t-29.5 43.5t-6.5 48q0 26 9.5 50t24.5 45.5t34.5 40.5
t40.5 34q48 36 110 65l28 -36v0z" />
    <glyph glyph-name="Idotaccent" unicode="&#x130;" horiz-adv-x="320" 
d="M262 725q11 0 19.5 -8.5t8.5 -19.5q0 -9 -7 -18l-38 -46v-541l38 -45q7 -9 7 -18q0 -11 -8.5 -19.5t-19.5 -8.5h-204q-11 0 -19.5 8.5t-8.5 19.5q0 9 7 18l38 45v541l-38 46q-7 9 -7 18q0 11 8.5 19.5t19.5 8.5h204v0zM159 788q-21 0 -39 8t-31.5 21.5t-21.5 32t-8 39.5
t8 39.5t21.5 32t31.5 21.5t39 8t39.5 -8t32 -21.5t21.5 -32t8 -39.5t-8 -39.5t-21.5 -32t-32 -21.5t-39.5 -8z" />
    <glyph glyph-name="dotlessi" unicode="&#x131;" horiz-adv-x="319" 
d="M283 47q6 -8 6 -18q0 -11 -8 -19.5t-20 -8.5h-203q-11 0 -19.5 8.5t-8.5 19.5t7 18l38 45v303l-34 30q-11 9 -11 24q0 23 23 31l22 6l121 37q19 5 32 -5q17 -11 17 -31v-395z" />
    <glyph glyph-name="IJ" unicode="&#x132;" horiz-adv-x="889" 
d="M262 725q11 0 19.5 -8.5t8.5 -19.5q0 -9 -7 -18l-38 -46v-541l38 -45q7 -9 7 -18q0 -11 -8.5 -19.5t-19.5 -8.5h-204q-11 0 -19.5 8.5t-8.5 19.5q0 9 7 18l38 45v541l-38 46q-7 9 -7 18q0 11 8.5 19.5t19.5 8.5h204v0zM841 725q11 0 19.5 -8.5t8.5 -19.5q0 -9 -7 -18
l-38 -46v-407q0 -54 -14 -97.5t-44 -74t-78 -47t-116 -16.5q-69 0 -124 26t-86 83q-13 24 -11.5 49t13.5 45.5t33.5 33.5t48.5 13q36 0 63 -24t32 -59q5 -45 19 -66t37 -21q27 0 42 36t15 119v407l-38 46q-7 9 -7 18q0 11 8.5 19.5t19.5 8.5h204v0z" />
    <glyph glyph-name="ij" unicode="&#x133;" horiz-adv-x="560" 
d="M283 47q6 -8 6 -18q0 -11 -8 -19.5t-20 -8.5h-203q-11 0 -19.5 8.5t-8.5 19.5t7 18l38 45v303l-34 30q-11 9 -11 24q0 23 23 31l22 6l121 37q19 5 32 -5q17 -11 17 -31v-395zM171 555q-20 -5 -39.5 -2t-36 12.5t-28 24t-15.5 33.5q-5 19 -1 37.5t14.5 34t26.5 27t37 16.5
q20 4 39.5 1t36 -12t28 -24t16.5 -34q8 -38 -14 -71t-64 -43zM507 518q16 -11 16 -31v-462q0 -54 -20 -92.5t-48.5 -64.5t-59 -40.5t-51.5 -21.5q-11 -4 -22 0t-17 14q-13 22 3 40q14 16 29.5 50t15.5 91v394l-33 30q-11 9 -11 24q0 23 22 31l22 6l121 37q19 5 33 -5z
M407 738q21 4 40.5 1t35.5 -12t27.5 -24t16.5 -34q9 -38 -13.5 -71t-63.5 -43q-21 -5 -40.5 -2t-35.5 12.5t-28 24t-16 33.5q-5 19 -1 37.5t14.5 34t27 27t36.5 16.5z" />
    <glyph glyph-name="Jcircumflex" unicode="&#x134;" horiz-adv-x="579" 
d="M521 725q11 0 19.5 -8.5t8.5 -19.5q0 -9 -7 -18l-38 -46v-407q0 -54 -14 -97.5t-44 -74t-78 -47t-116 -16.5q-69 0 -124 26t-86 83q-13 24 -11.5 49t13.5 45.5t33.5 33.5t48.5 13q36 0 63 -24t32 -59q5 -45 19 -66t37 -21q27 0 42 36t15 119v407l-38 46q-7 9 -7 18
q0 11 8.5 19.5t19.5 8.5h204v0zM621 812q5 -8 1 -16t-13 -8h-89q-16 0 -24 13l-74 107l-73 -107q-10 -13 -25 -13h-88q-10 0 -14 8t2 16l123 166q10 12 24 12h102q14 0 24 -12z" />
    <glyph glyph-name="jcircumflex" unicode="&#x135;" horiz-adv-x="291" 
d="M238 518q16 -11 16 -31v-462q0 -54 -20 -92.5t-48.5 -64.5t-59 -40.5t-51.5 -21.5q-11 -4 -22 0t-17 14q-13 22 3 40q14 16 29.5 50t15.5 91v394l-33 30q-11 9 -11 24q0 23 22 31l22 6l121 37q19 5 33 -5zM345 612q5 -8 1 -16t-13 -8h-89q-16 0 -24 13l-74 107l-73 -107
q-10 -13 -25 -13h-88q-10 0 -14 8t2 16l123 166q10 12 24 12h102q14 0 24 -12z" />
    <glyph glyph-name="uni0136" unicode="&#x136;" horiz-adv-x="728" 
d="M707 47q11 -8 11 -21q0 -11 -7 -18t-18 -7h-219q-31 0 -49 26l-174 254l-7 -7v-182l38 -45q7 -7 7 -18t-8 -19.5t-20 -8.5h-203q-12 0 -20 8.5t-8 19.5q0 10 6 18l38 45v541l-38 46q-6 7 -6 18t8 19.5t20 8.5h203q12 0 20 -8.5t8 -19.5t-7 -18l-38 -46v-235l237 235
l-49 45q-8 8 -8 20q0 11 7.5 19t18.5 8h186q11 0 19 -8t8 -19q0 -12 -8 -20l-275 -271l145 -191q78 -100 182 -169zM449 -72q12 0 17 -11.5t-4 -19.5l-135 -134q-14 -14 -34 -14h-60q-10 0 -15.5 8t-1.5 18l54 124q5 14 17.5 21.5t26.5 7.5h135z" />
    <glyph glyph-name="uni0137" unicode="&#x137;" horiz-adv-x="661" 
d="M653 47q8 -8 8 -19t-8 -19t-19 -8h-247q-12 0 -20.5 8.5t-8.5 20.5q0 10 4 17l25 37l-136 137l-7 -6v-123l39 -45q6 -8 6 -18q0 -11 -8 -19.5t-20 -8.5h-203q-12 0 -20 8.5t-8 19.5q0 10 6 18l38 45v499l-33 30q-11 9 -11 24q0 11 6 19.5t17 11.5l21 7l121 36q17 6 33 -5
t16 -31v-386l194 162l-14 18q-6 7 -6 17q0 12 8.5 20.5t20.5 8.5h107q11 0 18 -7t7 -17q0 -14 -12 -21l-53 -31l-137 -117zM421 -72q13 0 17.5 -11.5t-4.5 -19.5l-134 -134q-14 -14 -34 -14h-60q-10 0 -15.5 8t-1.5 18l53 124q13 29 45 29h134z" />
    <glyph glyph-name="Lacute" unicode="&#x139;" horiz-adv-x="599" 
d="M540 161q12 1 20.5 -7.5t8.5 -20.5v-102q0 -13 -8.5 -21.5t-21.5 -8.5h-481q-12 0 -20 8.5t-8 19.5q0 10 6 18l39 45v541l-39 46q-6 7 -6 18t8 19.5t20 8.5h203q12 0 20 -8.5t8 -19.5t-6 -18l-38 -46v-492q0 -25 17 -42.5t43 -17.5h58q35 0 68.5 12t60.5 35l31 26
q9 7 17 7zM358 968q12 0 16.5 -11.5t-3.5 -20.5l-135 -134q-14 -14 -34 -14h-60q-10 0 -15.5 8.5t-1.5 17.5l53 124q6 14 18.5 22t26.5 8h135v0z" />
    <glyph glyph-name="lacute" unicode="&#x13a;" horiz-adv-x="320" 
d="M283 47q7 -9 7 -18q0 -11 -8.5 -19.5t-19.5 -8.5h-204q-11 0 -19.5 8.5t-8.5 19.5q0 9 7 18l38 45v499l-34 30q-11 9 -11 24q0 11 6.5 19.5t16.5 11.5l22 7l121 36q17 6 32 -5q17 -11 17 -31v-591zM323 930q12 0 16.5 -11.5t-3.5 -20.5l-135 -134q-14 -14 -34 -14h-60
q-10 0 -15.5 8.5t-1.5 17.5l53 124q6 14 18.5 22t26.5 8h135v0z" />
    <glyph glyph-name="uni013B" unicode="&#x13b;" horiz-adv-x="600" 
d="M540 161q13 1 21.5 -7.5t8.5 -20.5v-52v-50q0 -13 -8.5 -21.5t-21.5 -8.5h-482q-11 0 -19.5 8.5t-8.5 19.5q0 9 7 18l38 45v541l-38 46q-7 9 -7 18q0 11 8.5 19.5t19.5 8.5h204q11 0 19.5 -8.5t8.5 -19.5q0 -9 -7 -18l-38 -46v-492q0 -25 17.5 -42.5t42.5 -17.5h58
q36 0 69 12t60 35l31 26q9 7 17 7zM408 -72q12 0 17 -11.5t-4 -19.5l-135 -134q-14 -14 -34 -14h-60q-10 0 -15.5 8t-1.5 18l54 124q5 14 17.5 21.5t26.5 7.5h135z" />
    <glyph glyph-name="uni013C" unicode="&#x13c;" horiz-adv-x="320" 
d="M283 47q7 -9 7 -18q0 -11 -8.5 -19.5t-20.5 -8.5h-203q-11 0 -19.5 8.5t-8.5 19.5t7 18l38 45v499l-34 30q-11 9 -11 24q0 11 6 19.5t17 11.5l22 7l121 36q17 6 32 -5q17 -11 17 -31v-591zM268 -72q12 0 16.5 -11.5t-3.5 -19.5l-135 -134q-14 -14 -34 -14h-60
q-10 0 -15.5 8t-1.5 18l53 124q6 14 18.5 21.5t26.5 7.5h135z" />
    <glyph glyph-name="Lcaron" unicode="&#x13d;" horiz-adv-x="599" 
d="M540 161q12 1 20.5 -7.5t8.5 -20.5v-102q0 -13 -8.5 -21.5t-21.5 -8.5h-481q-12 0 -20 8.5t-8 19.5q0 10 6 18l39 45v541l-39 46q-6 7 -6 18t8 19.5t20 8.5h203q12 0 20 -8.5t8 -19.5t-6 -18l-38 -46v-492q0 -25 17 -42.5t43 -17.5h58q35 0 68.5 12t60.5 35l31 26
q9 7 17 7zM457 965q39 0 66.5 -27t27.5 -66v-2q0 -40 -12 -74t-28.5 -61.5t-35 -48.5t-33.5 -34q-10 -9 -23.5 -8.5t-21.5 11.5q-9 10 -8.5 23t10.5 22q5 5 11 10.5t12 12.5q15 16 12 37.5t-22 32.5q-21 12 -33.5 33.5t-12.5 47.5q1 38 27.5 64t63.5 27z" />
    <glyph glyph-name="lcaron" unicode="&#x13e;" horiz-adv-x="558" 
d="M283 47q7 -9 7 -18q0 -11 -8.5 -19.5t-19.5 -8.5h-204q-11 0 -19.5 8.5t-8.5 19.5q0 9 7 18l38 45v499l-34 30q-11 9 -11 24q0 11 6.5 19.5t16.5 11.5l22 7l121 36q17 6 32 -5q17 -11 17 -31v-591zM407 765q39 0 66.5 -27t27.5 -66v-2q0 -40 -12 -74t-28.5 -61.5
t-35 -48.5t-33.5 -34q-10 -9 -23.5 -8.5t-21.5 11.5q-9 10 -8.5 23t10.5 22q5 5 11 10.5t12 12.5q15 16 12 37.5t-22 32.5q-21 12 -33.5 33.5t-12.5 47.5q1 38 27.5 64t63.5 27z" />
    <glyph glyph-name="Ldot" unicode="&#x13f;" horiz-adv-x="599" 
d="M540 161q12 1 20.5 -7.5t8.5 -20.5v-102q0 -13 -8.5 -21.5t-21.5 -8.5h-481q-12 0 -20 8.5t-8 19.5q0 10 6 18l39 45v541l-39 46q-6 7 -6 18t8 19.5t20 8.5h203q12 0 20 -8.5t8 -19.5t-6 -18l-38 -46v-492q0 -25 17 -42.5t43 -17.5h58q35 0 68.5 12t60.5 35l31 26
q9 7 17 7zM417 551q33 0 56 -23t23 -55q0 -33 -23 -56t-56 -23q-32 0 -55 23t-23 56q0 32 23 55t55 23z" />
    <glyph glyph-name="ldot" unicode="&#x140;" horiz-adv-x="518" 
d="M283 47q7 -9 7 -18q0 -11 -8.5 -19.5t-19.5 -8.5h-204q-11 0 -19.5 8.5t-8.5 19.5q0 9 7 18l38 45v499l-34 30q-11 9 -11 24q0 11 6.5 19.5t16.5 11.5l22 7l121 36q17 6 32 -5q17 -11 17 -31v-591zM383 451q33 0 56 -23t23 -55q0 -33 -23 -56t-56 -23q-32 0 -55 23
t-23 56q0 32 23 55t55 23z" />
    <glyph glyph-name="Lslash" unicode="&#x141;" horiz-adv-x="599" 
d="M540 161q12 1 20.5 -7.5t8.5 -20.5v-102q0 -13 -8.5 -21.5t-21.5 -8.5h-481q-12 0 -20 8.5t-8 19.5q0 10 6 18l39 45v541l-39 46q-6 7 -6 18t8 19.5t20 8.5h203q12 0 20 -8.5t8 -19.5t-6 -18l-38 -46v-492q0 -25 17 -42.5t43 -17.5h58q35 0 68.5 12t60.5 35l31 26
q9 7 17 7zM345 422q13 0 21.5 -8.5t8.5 -21.5v-55q0 -12 -8.5 -21t-21.5 -9h-324q-13 0 -21.5 9t-8.5 21v55q0 13 8.5 21.5t21.5 8.5h324v0z" />
    <glyph glyph-name="lslash" unicode="&#x142;" horiz-adv-x="320" 
d="M283 47q7 -9 7 -18q0 -11 -8.5 -19.5t-19.5 -8.5h-204q-11 0 -19.5 8.5t-8.5 19.5q0 9 7 18l38 45v499l-34 30q-11 9 -11 24q0 11 6.5 19.5t16.5 11.5l22 7l121 36q17 6 32 -5q17 -11 17 -31v-591zM322 422q13 0 21.5 -8.5t8.5 -21.5v-55q0 -12 -8.5 -21t-21.5 -9h-324
q-13 0 -21.5 9t-8.5 21v55q0 13 8.5 21.5t21.5 8.5h324v0z" />
    <glyph glyph-name="Nacute" unicode="&#x143;" horiz-adv-x="700" 
d="M642 725q12 0 20 -8.5t8 -19.5t-6 -18l-38 -46v-546q0 -40 -28 -68t-68 -28q-26 0 -47.5 12.5t-34.5 34.5l-283 475v-421l38 -45q7 -9 7 -18q0 -11 -8.5 -19.5t-19.5 -8.5h-124q-11 0 -19.5 8.5t-8.5 19.5q0 9 7 18l38 45v541l-38 46q-7 9 -7 18q0 11 8.5 19.5t19.5 8.5
h188q17 0 30.5 -8t21.5 -22l238 -405v343l-39 46q-6 7 -6 18t8 19.5t20 8.5h123v0zM549 968q12 0 16.5 -11.5t-3.5 -20.5l-135 -134q-14 -14 -34 -14h-60q-10 0 -15.5 8.5t-1.5 17.5l53 124q6 14 18.5 22t26.5 8h135v0z" />
    <glyph glyph-name="nacute" unicode="&#x144;" horiz-adv-x="621" 
d="M584 47q7 -7 7 -18t-8.5 -19.5t-19.5 -8.5h-203q-12 0 -20 8.5t-8 19.5q0 10 6 18l38 45v205q0 89 -12 125t-45 36q-20 0 -39 -15t-35 -35v-316l38 -45q7 -9 7 -18q0 -11 -8.5 -19.5t-19.5 -8.5h-204q-11 0 -19.5 8.5t-8.5 19.5q0 9 7 18l38 45v303l-34 30q-11 9 -11 24
q0 23 23 31l22 6l121 37q19 5 32 -5q17 -11 17 -31v-20q23 23 54.5 39.5t70.5 16.5q28 0 59 -9.5t57 -32.5t43 -63t17 -101v-225zM491 768q12 0 16.5 -11.5t-3.5 -20.5l-135 -134q-14 -14 -34 -14h-60q-10 0 -15.5 8.5t-1.5 17.5l53 124q6 14 18.5 22t26.5 8h135v0z" />
    <glyph glyph-name="uni0145" unicode="&#x145;" horiz-adv-x="700" 
d="M642 725q12 0 20 -8.5t8 -19.5t-6 -18l-38 -46v-546q0 -40 -28 -68t-68 -28q-26 0 -47.5 12.5t-34.5 34.5l-283 475v-421l38 -45q7 -9 7 -18q0 -11 -8.5 -19.5t-19.5 -8.5h-124q-11 0 -19.5 8.5t-8.5 19.5q0 9 7 18l38 45v541l-38 46q-7 9 -7 18q0 11 8.5 19.5t19.5 8.5
h188q17 0 30.5 -8t21.5 -22l238 -405v343l-38 46q-7 7 -7 18t8.5 19.5t19.5 8.5h123zM458 -72q13 0 17.5 -11.5t-4.5 -19.5l-134 -134q-14 -14 -34 -14h-60q-11 0 -16.5 8t-0.5 18l53 124q13 29 44 29h135z" />
    <glyph glyph-name="uni0146" unicode="&#x146;" horiz-adv-x="620" 
d="M584 47q6 -8 6 -18q0 -11 -8 -19.5t-20 -8.5h-203q-11 0 -19.5 8.5t-8.5 19.5t7 18l38 45v205q0 89 -12 125t-46 36q-20 0 -39 -15t-35 -35v-316l39 -45q6 -8 6 -18q0 -11 -8 -19.5t-20 -8.5h-203q-12 0 -20 8.5t-8 19.5q0 10 6 18l38 45v303l-33 30q-11 9 -11 24
q0 23 22 31l22 6l121 37q19 5 33 -5q16 -11 16 -31v-20q23 23 54.5 39.5t71.5 16.5q27 0 58 -9.5t57.5 -32.5t43.5 -63t17 -101v-225zM418 -72q12 0 17 -11.5t-4 -19.5l-135 -134q-14 -14 -34 -14h-60q-10 0 -15.5 8t-1.5 18l54 124q5 14 17.5 21.5t26.5 7.5h135z" />
    <glyph glyph-name="Ncaron" unicode="&#x147;" horiz-adv-x="700" 
d="M642 725q12 0 20 -8.5t8 -19.5t-6 -18l-38 -46v-546q0 -40 -28 -68t-68 -28q-26 0 -47.5 12.5t-34.5 34.5l-283 475v-421l38 -45q7 -9 7 -18q0 -11 -8.5 -19.5t-19.5 -8.5h-124q-11 0 -19.5 8.5t-8.5 19.5q0 9 7 18l38 45v541l-38 46q-7 9 -7 18q0 11 8.5 19.5t19.5 8.5
h188q17 0 30.5 -8t21.5 -22l238 -405v343l-39 46q-6 7 -6 18t8 19.5t20 8.5h123v0zM537 990q9 0 13 -8t-1 -16l-124 -166q-10 -12 -24 -12h-102q-14 0 -24 12l-123 166q-6 8 -2 16t14 8h88q15 0 25 -13l73 -107l74 107q8 13 24 13h89v0z" />
    <glyph glyph-name="ncaron" unicode="&#x148;" horiz-adv-x="621" 
d="M584 47q7 -7 7 -18t-8.5 -19.5t-19.5 -8.5h-203q-12 0 -20 8.5t-8 19.5q0 10 6 18l38 45v205q0 89 -12 125t-45 36q-20 0 -39 -15t-35 -35v-316l38 -45q7 -9 7 -18q0 -11 -8.5 -19.5t-19.5 -8.5h-204q-11 0 -19.5 8.5t-8.5 19.5q0 9 7 18l38 45v303l-34 30q-11 9 -11 24
q0 23 23 31l22 6l121 37q19 5 32 -5q17 -11 17 -31v-20q23 23 54.5 39.5t70.5 16.5q28 0 59 -9.5t57 -32.5t43 -63t17 -101v-225zM497 790q9 0 13 -8t-1 -16l-124 -166q-10 -12 -24 -12h-102q-14 0 -24 12l-123 166q-6 8 -2 16t14 8h88q15 0 25 -13l73 -107l74 107
q8 13 24 13h89v0z" />
    <glyph glyph-name="Omacron" unicode="&#x14c;" horiz-adv-x="744" 
d="M372 730q48 0 107 -18t111.5 -60.5t88 -113t35.5 -175.5t-35.5 -175.5t-88 -113t-111.5 -60.5t-107 -18t-107 18t-111.5 60.5t-88 113t-35.5 175.5t35.5 175.5t88 113t111.5 60.5t107 18zM429 92q25 5 49 22.5t39.5 53t18 90.5t-14.5 136t-42 130.5t-53.5 75.5t-57 32.5
t-53.5 1.5q-25 -6 -49 -23.5t-39.5 -52.5t-18 -90.5t14.5 -136.5t42 -130t53.5 -75t57 -32.5t53.5 -1.5zM524 878q8 0 13 -5.5t5 -13.5v-52q0 -8 -5 -13.5t-13 -5.5h-303q-8 0 -13.5 5.5t-5.5 13.5v52q0 8 5.5 13.5t13.5 5.5h303v0z" />
    <glyph glyph-name="omacron" unicode="&#x14d;" horiz-adv-x="603" 
d="M301 524q60 0 110 -20t86 -55t56 -84.5t20 -107.5q0 -59 -20 -107.5t-56 -84t-86 -55t-110 -19.5t-110 19.5t-85.5 55t-55.5 84t-20 107.5q0 58 20 107.5t55.5 84.5t85.5 55t110 20zM338 49q46 8 59.5 59.5t-5.5 164.5q-10 57 -23 95.5t-28.5 61.5t-34.5 31t-42 4
t-37.5 -18t-21.5 -41t-5.5 -67.5t11.5 -97.5q20 -113 51 -156.5t76 -35.5zM453 678q8 0 13 -5.5t5 -13.5v-52q0 -8 -5 -13.5t-13 -5.5h-303q-8 0 -13.5 5.5t-5.5 13.5v52q0 8 5.5 13.5t13.5 5.5h303v0z" />
    <glyph glyph-name="Obreve" unicode="&#x14e;" horiz-adv-x="744" 
d="M372 730q48 0 107 -18t111.5 -60.5t88 -113t35.5 -175.5t-35.5 -175.5t-88 -113t-111.5 -60.5t-107 -18t-107 18t-111.5 60.5t-88 113t-35.5 175.5t35.5 175.5t88 113t111.5 60.5t107 18zM429 92q25 5 49 22.5t39.5 53t18 90.5t-14.5 136t-42 130.5t-53.5 75.5t-57 32.5
t-53.5 1.5q-25 -6 -49 -23.5t-39.5 -52.5t-18 -90.5t14.5 -136.5t42 -130t53.5 -75t57 -32.5t53.5 -1.5zM573 990q9 0 15 -6.5t5 -15.5q-3 -38 -19 -70.5t-43.5 -57t-67.5 -38.5t-91 -14q-52 0 -92 14t-67.5 38.5t-43.5 57t-19 70.5q-1 9 5 15.5t15 6.5h82q8 0 13 -5t7 -13
q4 -34 27.5 -57.5t72.5 -23.5q48 0 71.5 23.5t28.5 57.5q1 8 6 13t13 5h82v0z" />
    <glyph glyph-name="obreve" unicode="&#x14f;" horiz-adv-x="603" 
d="M301 524q60 0 110 -20t86 -55t56 -84.5t20 -107.5q0 -59 -20 -107.5t-56 -84t-86 -55t-110 -19.5t-110 19.5t-85.5 55t-55.5 84t-20 107.5q0 58 20 107.5t55.5 84.5t85.5 55t110 20zM338 49q46 8 59.5 59.5t-5.5 164.5q-10 57 -23 95.5t-28.5 61.5t-34.5 31t-42 4
t-37.5 -18t-21.5 -41t-5.5 -67.5t11.5 -97.5q20 -113 51 -156.5t76 -35.5zM503 790q9 0 15 -6.5t5 -15.5q-3 -38 -19 -70.5t-43.5 -57t-67.5 -38.5t-91 -14q-52 0 -92 14t-67.5 38.5t-43.5 57t-19 70.5q-1 9 5 15.5t15 6.5h82q8 0 13 -5t7 -13q4 -34 27.5 -57.5t72.5 -23.5
q48 0 71.5 23.5t28.5 57.5q1 8 6 13t13 5h82v0z" />
    <glyph glyph-name="Ohungarumlaut" unicode="&#x150;" horiz-adv-x="744" 
d="M372 730q48 0 107 -18t111.5 -60.5t88 -113t35.5 -175.5t-35.5 -175.5t-88 -113t-111.5 -60.5t-107 -18t-107 18t-111.5 60.5t-88 113t-35.5 175.5t35.5 175.5t88 113t111.5 60.5t107 18zM429 92q25 5 49 22.5t39.5 53t18 90.5t-14.5 136t-42 130.5t-53.5 75.5t-57 32.5
t-53.5 1.5q-25 -6 -49 -23.5t-39.5 -52.5t-18 -90.5t14.5 -136.5t42 -130t53.5 -75t57 -32.5t53.5 -1.5zM429 968q12 0 16.5 -11.5t-3.5 -20.5l-135 -134q-14 -14 -34 -14h-60q-10 0 -15.5 8.5t-1.5 17.5l53 124q6 14 18.5 22t26.5 8h135zM683 968q12 0 16.5 -11.5
t-3.5 -20.5l-135 -134q-14 -14 -34 -14h-60q-10 0 -15.5 8.5t-1.5 17.5l53 124q6 14 18.5 22t26.5 8h135z" />
    <glyph glyph-name="ohungarumlaut" unicode="&#x151;" horiz-adv-x="603" 
d="M301 524q60 0 110 -20t86 -55t56 -84.5t20 -107.5q0 -59 -20 -107.5t-56 -84t-86 -55t-110 -19.5t-110 19.5t-85.5 55t-55.5 84t-20 107.5q0 58 20 107.5t55.5 84.5t85.5 55t110 20zM338 49q46 8 59.5 59.5t-5.5 164.5q-10 57 -23 95.5t-28.5 61.5t-34.5 31t-42 4
t-37.5 -18t-21.5 -41t-5.5 -67.5t11.5 -97.5q20 -113 51 -156.5t76 -35.5zM355 768q12 0 16.5 -11.5t-3.5 -20.5l-135 -134q-14 -14 -34 -14h-60q-10 0 -15.5 8.5t-1.5 17.5l53 124q6 14 18.5 22t26.5 8h135zM609 768q12 0 16.5 -11.5t-3.5 -20.5l-135 -134q-14 -14 -34 -14
h-60q-10 0 -15.5 8.5t-1.5 17.5l53 124q6 14 18.5 22t26.5 8h135z" />
    <glyph glyph-name="OE" unicode="&#x152;" horiz-adv-x="1114" 
d="M1061 161q10 -2 16.5 -9.5t6.5 -18.5v-102q0 -13 -8.5 -21.5t-21.5 -8.5h-521h-3q-58 6 -110 -1q-23 -4 -48 -4q-48 0 -107 18t-111.5 60.5t-88 113t-35.5 175.5t35.5 175.5t88 113t111.5 60.5t107 18q11 0 23 -1t25 -3q27 -5 54.5 -4.5t55.5 2.5h79q35 0 80 0.5t93 0.5
h252q13 0 21.5 -9t8.5 -21v-102q0 -11 -6.5 -18.5t-16.5 -9.5q-12 -3 -23 6q-42 36 -93.5 55t-107.5 19h-98v-242h161l64 66q8 8 18 8q12 1 20.5 -7t8.5 -19v-176q0 -11 -8.5 -19.5t-20.5 -7.5q-11 1 -18 9l-64 66h-161v-182q0 -25 17.5 -42.5t42.5 -17.5h58q56 0 107.5 19
t93.5 55q9 8 23 6zM429 92q25 5 49 22.5t39.5 53t18 90.5t-14.5 136t-42 130.5t-53.5 75.5t-57 32.5t-53.5 1.5q-25 -6 -49 -23.5t-39.5 -52.5t-18 -90.5t14.5 -136.5t42 -130t53.5 -75t57 -32.5t53.5 -1.5z" />
    <glyph glyph-name="oe" unicode="&#x153;" horiz-adv-x="930" 
d="M885 178q10 -5 13.5 -15t-1.5 -20q-9 -18 -27.5 -44t-47 -50t-69.5 -41t-95 -17t-98.5 16t-77.5 45q-35 -29 -80.5 -45t-99.5 -16q-60 0 -110 19.5t-86 55t-56 84t-20 107.5q0 58 20 107.5t56 84.5t86 55t110 20q55 0 101.5 -16.5t81.5 -46.5q35 30 81.5 46.5t101.5 16.5
q71 0 130.5 -43t90.5 -137q4 -11 -1.5 -22t-16.5 -15l-297 -110q22 -40 58.5 -67t91.5 -27q24 0 44 7.5t36.5 18t28.5 22.5t20 21q5 7 14.5 9t17.5 -3zM595 456q-18 -6 -30.5 -27t-18 -50t-4 -63t11.5 -68l190 71q-33 86 -73 117.5t-76 19.5zM339 49q37 7 53 40.5t11 105.5
q-4 22 -6 47q-1 8 -2 15.5t-3 15.5q-10 57 -22.5 95.5t-28 61.5t-34.5 31t-42 4t-38 -18t-21.5 -41t-5 -67.5t11.5 -97.5t22.5 -95.5t28 -61.5t34.5 -31t42 -4z" />
    <glyph glyph-name="Racute" unicode="&#x154;" horiz-adv-x="671" 
d="M639 46q12 -7 12 -20q0 -11 -7 -18t-18 -7h-184q-15 0 -28.5 7t-21.5 20l-147 228v-164l38 -45q6 -8 6 -18q0 -11 -8 -19.5t-20 -8.5h-203q-11 0 -19.5 8.5t-8.5 19.5t7 18l38 45v541l-38 46q-7 7 -7 18t8.5 19.5t19.5 8.5h237q58 0 111 -10t94 -35.5t65.5 -68.5
t24.5 -109q0 -47 -13 -82t-35.5 -60t-53 -41.5t-66.5 -25.5l93 -131q49 -70 124 -116zM261 359q84 0 116.5 36.5t32.5 106.5t-32.5 106.5t-116.5 36.5h-16v-270q0 -16 16 -16zM442 968q12 0 16.5 -11.5t-3.5 -20.5l-135 -134q-14 -14 -34 -14h-60q-10 0 -15.5 8.5t-1.5 17.5
l53 124q6 14 18.5 22t26.5 8h135v0z" />
    <glyph glyph-name="racute" unicode="&#x155;" horiz-adv-x="479" 
d="M378 527q32 1 56.5 -17t32.5 -47q4 -17 0.5 -35.5t-14 -33.5t-27.5 -24.5t-40 -9.5q-14 0 -26 8.5t-23 19.5t-21.5 21t-21.5 13t-23 -5t-26 -32v-293l38 -45q7 -9 7 -18q0 -11 -8.5 -19.5t-19.5 -8.5h-204q-11 0 -19.5 8.5t-8.5 19.5q0 9 7 18l38 45v303l-34 30
q-11 9 -11 24q0 23 23 31l22 6l121 37q19 5 32 -5q17 -11 17 -31v-47q11 16 24.5 31.5t30 28t36 20t42.5 7.5zM346 768q12 0 16.5 -11.5t-3.5 -20.5l-135 -134q-14 -14 -34 -14h-60q-10 0 -15.5 8.5t-1.5 17.5l53 124q6 14 18.5 22t26.5 8h135v0z" />
    <glyph glyph-name="uni0156" unicode="&#x156;" horiz-adv-x="671" 
d="M639 46q12 -6 12 -20q0 -11 -7 -18t-18 -7h-183q-34 0 -51 27l-147 228v-164l38 -45q7 -9 7 -18q0 -11 -8.5 -19.5t-19.5 -8.5h-204q-11 0 -19.5 8.5t-8.5 19.5q0 9 7 18l38 45v541l-38 46q-7 9 -7 18q0 11 8.5 19.5t19.5 8.5h238q58 0 111 -10t93.5 -35.5t65 -68.5
t24.5 -109q0 -47 -12.5 -82t-35 -60t-53.5 -41.5t-67 -25.5l94 -131q49 -70 123 -116zM261 359q42 0 71 9.5t46 27.5t24.5 44.5t7.5 61.5t-7.5 61.5t-24.5 44.5t-46 27.5t-71 9.5h-16v-270q0 -16 16 -16zM435 -72q13 0 17.5 -11.5t-4.5 -19.5l-134 -134q-14 -14 -34 -14h-60
q-11 0 -16.5 8t-0.5 18l53 124q13 29 45 29h134z" />
    <glyph glyph-name="uni0157" unicode="&#x157;" horiz-adv-x="479" 
d="M267 -72q13 0 17.5 -11.5t-3.5 -19.5l-135 -134q-14 -14 -34 -14h-60q-10 0 -15.5 8t-1.5 18l53 124q13 29 45 29h134zM378 527q32 1 56.5 -17t32.5 -47q4 -17 0.5 -35.5t-14 -33.5t-27.5 -24.5t-40 -9.5q-14 0 -26 8.5t-23 19.5t-21.5 21t-21.5 13t-23 -5t-26 -32v-293
l38 -45q6 -8 6 -18q0 -11 -8 -19.5t-20 -8.5h-203q-11 0 -19.5 8.5t-8.5 19.5t7 18l38 45v303l-34 30q-11 9 -11 24q0 23 23 31l22 6l121 37q19 5 32 -5q17 -11 17 -31v-47q11 16 24.5 31.5t30 28t36 20t42.5 7.5z" />
    <glyph glyph-name="Rcaron" unicode="&#x158;" horiz-adv-x="671" 
d="M639 46q12 -7 12 -20q0 -11 -7 -18t-18 -7h-184q-15 0 -28.5 7t-21.5 20l-147 228v-164l38 -45q6 -8 6 -18q0 -11 -8 -19.5t-20 -8.5h-203q-11 0 -19.5 8.5t-8.5 19.5t7 18l38 45v541l-38 46q-7 7 -7 18t8.5 19.5t19.5 8.5h237q58 0 111 -10t94 -35.5t65.5 -68.5
t24.5 -109q0 -47 -13 -82t-35.5 -60t-53 -41.5t-66.5 -25.5l93 -131q49 -70 124 -116zM261 359q84 0 116.5 36.5t32.5 106.5t-32.5 106.5t-116.5 36.5h-16v-270q0 -16 16 -16zM522 990q9 0 13 -8t-1 -16l-124 -166q-10 -12 -24 -12h-102q-14 0 -24 12l-123 166q-6 8 -2 16
t14 8h88q15 0 25 -13l73 -107l74 107q8 13 24 13h89v0z" />
    <glyph glyph-name="rcaron" unicode="&#x159;" horiz-adv-x="479" 
d="M378 527q32 1 56.5 -17t32.5 -47q4 -17 0.5 -35.5t-14 -33.5t-27.5 -24.5t-40 -9.5q-14 0 -26 8.5t-23 19.5t-21.5 21t-21.5 13t-23 -5t-26 -32v-293l38 -45q7 -9 7 -18q0 -11 -8.5 -19.5t-19.5 -8.5h-204q-11 0 -19.5 8.5t-8.5 19.5q0 9 7 18l38 45v303l-34 30
q-11 9 -11 24q0 23 23 31l22 6l121 37q19 5 32 -5q17 -11 17 -31v-47q11 16 24.5 31.5t30 28t36 20t42.5 7.5zM427 790q9 0 13 -8t-1 -16l-124 -166q-10 -12 -24 -12h-102q-14 0 -24 12l-123 166q-6 8 -2 16t14 8h88q15 0 25 -13l73 -107l74 107q8 13 24 13h89v0z" />
    <glyph glyph-name="Sacute" unicode="&#x15a;" horiz-adv-x="584" 
d="M209 572q0 -34 25.5 -57.5t64 -43.5t83 -40.5t83 -49t64 -68t25.5 -98.5q0 -62 -24 -104.5t-62 -69t-86 -38.5t-96 -12q-78 0 -132 17t-82 33q-32 18 -32 53v139q0 9 7 16t17 7q14 0 21 -14q7 -16 23 -45t39.5 -57t55 -48.5t69.5 -20.5q49 0 75.5 22.5t26.5 69.5
q0 40 -25.5 66t-63.5 46.5t-83 40.5t-83 48t-63.5 68t-25.5 101q0 59 28.5 96.5t69 58.5t86 29t78.5 8q74 0 126 -14t81 -28q16 -7 25.5 -22t9.5 -32v-106q0 -10 -6.5 -16.5t-16.5 -6.5h-1q-13 0 -20 12q-7 13 -21.5 35.5t-38 44t-54.5 37.5t-71 16q-43 0 -69.5 -19.5
t-26.5 -53.5zM458 968q12 0 16.5 -11.5t-3.5 -20.5l-135 -134q-14 -14 -34 -14h-60q-10 0 -15.5 8.5t-1.5 17.5l53 124q6 14 18.5 22t26.5 8h135v0z" />
    <glyph glyph-name="sacute" unicode="&#x15b;" horiz-adv-x="469" 
d="M204 426q0 -30 18 -49t45 -33t58.5 -27.5t58.5 -33.5t45 -50.5t18 -77.5q0 -39 -19.5 -69t-52.5 -51t-76 -31.5t-89 -10.5q-61 0 -101.5 10.5t-60.5 19.5q-18 7 -18 27v97q0 11 8.5 19.5t19.5 8.5q19 0 26 -19q5 -14 15 -34t25 -39t35.5 -32t47.5 -13q32 0 49.5 21.5
t17.5 50.5q0 30 -18 47.5t-45 31t-59 26.5t-59 32.5t-45 50t-18 78.5q0 38 17 66t46 46.5t66.5 27.5t79.5 9q57 0 102 -11t68 -19q9 -3 14.5 -11t5.5 -17v-78q0 -10 -7 -17t-17 -7q-14 0 -21 12q-6 11 -18.5 29t-29 34.5t-36.5 28.5t-43 12q-20 0 -36.5 -11.5t-16.5 -43.5z
M430 768q12 0 16.5 -11.5t-3.5 -20.5l-135 -134q-14 -14 -34 -14h-60q-10 0 -15.5 8.5t-1.5 17.5l53 124q6 14 18.5 22t26.5 8h135v0z" />
    <glyph glyph-name="Scircumflex" unicode="&#x15c;" horiz-adv-x="584" 
d="M209 572q0 -34 25.5 -57.5t64 -43.5t83 -40.5t83 -49t64 -68t25.5 -98.5q0 -62 -24 -104.5t-62 -69t-86 -38.5t-96 -12q-78 0 -132 17t-82 33q-32 18 -32 53v139q0 9 7 16t17 7q14 0 21 -14q7 -16 23 -45t39.5 -57t55 -48.5t69.5 -20.5q49 0 75.5 22.5t26.5 69.5
q0 40 -25.5 66t-63.5 46.5t-83 40.5t-83 48t-63.5 68t-25.5 101q0 59 28.5 96.5t69 58.5t86 29t78.5 8q74 0 126 -14t81 -28q16 -7 25.5 -22t9.5 -32v-106q0 -10 -6.5 -16.5t-16.5 -6.5h-1q-13 0 -20 12q-7 13 -21.5 35.5t-38 44t-54.5 37.5t-71 16q-43 0 -69.5 -19.5
t-26.5 -53.5zM491 812q5 -8 1 -16t-13 -8h-89q-16 0 -24 13l-74 107l-73 -107q-10 -13 -25 -13h-88q-10 0 -14 8t2 16l123 166q10 12 24 12h102q14 0 24 -12z" />
    <glyph glyph-name="scircumflex" unicode="&#x15d;" horiz-adv-x="467" 
d="M204 426q0 -30 18 -49t45 -33t58.5 -27.5t58.5 -33.5t45 -50.5t18 -77.5q0 -39 -19.5 -69t-52.5 -51t-76 -31.5t-89 -10.5q-61 0 -101.5 10.5t-60.5 19.5q-18 7 -18 27v97q0 11 8.5 19.5t19.5 8.5q19 0 26 -19q5 -14 15 -34t25 -39t35.5 -32t47.5 -13q32 0 49.5 21.5
t17.5 50.5q0 30 -18 47.5t-45 31t-59 26.5t-59 32.5t-45 50t-18 78.5q0 38 17 66t46 46.5t66.5 27.5t79.5 9q57 0 102 -11t68 -19q9 -3 14.5 -11t5.5 -17v-78q0 -10 -7 -17t-17 -7q-14 0 -21 12q-6 11 -18.5 29t-29 34.5t-36.5 28.5t-43 12q-20 0 -36.5 -11.5t-16.5 -43.5z
M438 612q5 -8 1 -16t-13 -8h-89q-16 0 -24 13l-74 107l-73 -107q-10 -13 -25 -13h-88q-10 0 -14 8t2 16l123 166q10 12 24 12h102q14 0 24 -12z" />
    <glyph glyph-name="Scedilla" unicode="&#x15e;" horiz-adv-x="584" 
d="M209 572q0 -34 25.5 -57.5t64 -43.5t83 -40.5t83 -49t64 -68t25.5 -98.5q0 -62 -24 -104.5t-62 -69t-86 -38.5t-96 -12q-78 0 -132 17t-82 33q-32 18 -32 53v139q0 9 7 16t17 7q14 0 21 -14q7 -16 23 -45t39.5 -57t55 -48.5t69.5 -20.5q49 0 75.5 22.5t26.5 69.5
q0 40 -25.5 66t-63.5 46.5t-83 40.5t-83 48t-63.5 68t-25.5 101q0 59 28.5 96.5t69 58.5t86 29t78.5 8q74 0 126 -14t81 -28q16 -7 25.5 -22t9.5 -32v-106q0 -10 -6.5 -16.5t-16.5 -6.5h-1q-13 0 -20 12q-7 13 -21.5 35.5t-38 44t-54.5 37.5t-71 16q-43 0 -69.5 -19.5
t-26.5 -53.5zM308 -73q61 -9 100 -34.5t54.5 -58t7 -68.5t-43 -66t-96 -51t-151.5 -23q-8 0 -14.5 6t-6.5 14v58q0 8 6 14t14 6q77 3 111 25t35 47t-26.5 45.5t-72.5 20.5v178h83v-113v0z" />
    <glyph glyph-name="scedilla" unicode="&#x15f;" horiz-adv-x="467" 
d="M204 426q0 -30 18 -49t45 -33t58.5 -27.5t58.5 -33.5t45 -50.5t18 -77.5q0 -39 -19.5 -69t-52.5 -51t-76 -31.5t-89 -10.5q-61 0 -101.5 10.5t-60.5 19.5q-18 7 -18 27v97q0 11 8.5 19.5t19.5 8.5q19 0 26 -19q5 -14 15 -34t25 -39t35.5 -32t47.5 -13q32 0 49.5 21.5
t17.5 50.5q0 30 -18 47.5t-45 31t-59 26.5t-59 32.5t-45 50t-18 78.5q0 38 17 66t46 46.5t66.5 27.5t79.5 9q57 0 102 -11t68 -19q9 -3 14.5 -11t5.5 -17v-78q0 -10 -7 -17t-17 -7q-14 0 -21 12q-6 11 -18.5 29t-29 34.5t-36.5 28.5t-43 12q-20 0 -36.5 -11.5t-16.5 -43.5z
M253 -82q61 -9 100 -34.5t54.5 -58t7 -68.5t-43 -66t-96 -51t-151.5 -23q-8 0 -14.5 6t-6.5 14v58q0 8 6 14t14 6q77 3 111 25t35 47t-26.5 45.5t-72.5 20.5v178h83v-113v0z" />
    <glyph glyph-name="Scaron" unicode="&#x160;" horiz-adv-x="584" 
d="M209 572q0 -34 25.5 -57.5t64 -43.5t83 -40.5t83 -49t64 -68t25.5 -98.5q0 -62 -24 -104.5t-62 -69t-86 -38.5t-96 -12q-78 0 -132 17t-82 33q-32 18 -32 53v139q0 9 7 16t17 7q14 0 21 -14q7 -16 23 -45t39.5 -57t55 -48.5t69.5 -20.5q49 0 75.5 22.5t26.5 69.5
q0 40 -25.5 66t-63.5 46.5t-83 40.5t-83 48t-63.5 68t-25.5 101q0 59 28.5 96.5t69 58.5t86 29t78.5 8q74 0 126 -14t81 -28q16 -7 25.5 -22t9.5 -32v-106q0 -10 -6.5 -16.5t-16.5 -6.5h-1q-13 0 -20 12q-7 13 -21.5 35.5t-38 44t-54.5 37.5t-71 16q-43 0 -69.5 -19.5
t-26.5 -53.5zM479 990q9 0 13 -8t-1 -16l-124 -166q-10 -12 -24 -12h-102q-14 0 -24 12l-123 166q-6 8 -2 16t14 8h88q15 0 25 -13l73 -107l74 107q8 13 24 13h89v0z" />
    <glyph glyph-name="scaron" unicode="&#x161;" horiz-adv-x="467" 
d="M204 426q0 -30 18 -49t45 -33t58.5 -27.5t58.5 -33.5t45 -50.5t18 -77.5q0 -39 -19.5 -69t-52.5 -51t-76 -31.5t-89 -10.5q-61 0 -101.5 10.5t-60.5 19.5q-18 7 -18 27v97q0 11 8.5 19.5t19.5 8.5q19 0 26 -19q5 -14 15 -34t25 -39t35.5 -32t47.5 -13q32 0 49.5 21.5
t17.5 50.5q0 30 -18 47.5t-45 31t-59 26.5t-59 32.5t-45 50t-18 78.5q0 38 17 66t46 46.5t66.5 27.5t79.5 9q57 0 102 -11t68 -19q9 -3 14.5 -11t5.5 -17v-78q0 -10 -7 -17t-17 -7q-14 0 -21 12q-6 11 -18.5 29t-29 34.5t-36.5 28.5t-43 12q-20 0 -36.5 -11.5t-16.5 -43.5z
M426 790q9 0 13 -8t-1 -16l-124 -166q-10 -12 -24 -12h-102q-14 0 -24 12l-123 166q-6 8 -2 16t14 8h88q15 0 25 -13l73 -107l74 107q8 13 24 13h89v0z" />
    <glyph glyph-name="uni0162" unicode="&#x162;" horiz-adv-x="656" 
d="M596 725q12 0 21 -9t9 -21v-170q0 -11 -7 -18t-18 -7q-13 0 -21 11l-57 87q-14 22 -37 34.5t-49 12.5h-24v-553l38 -45q7 -9 7 -18q0 -11 -8.5 -19.5t-19.5 -8.5h-204q-11 0 -19.5 8.5t-8.5 19.5q0 9 7 18l38 45v553h-24q-26 0 -49 -12.5t-37 -34.5l-57 -87
q-8 -11 -21 -11q-11 0 -18 7t-7 18v170q0 12 8.5 21t21.5 9h536zM436 -72q12 0 17 -11.5t-4 -19.5l-135 -134q-14 -14 -34 -14h-60q-10 0 -15.5 8t-1.5 18l53 124q6 14 18.5 21.5t26.5 7.5h135z" />
    <glyph glyph-name="uni0163" unicode="&#x163;" horiz-adv-x="409" 
d="M372 96q7 -8 7 -18t-8 -17q-10 -10 -25.5 -22t-36.5 -22.5t-47 -18t-57 -7.5q-22 0 -43 8t-38 23.5t-27.5 39t-10.5 54.5v353h-24q-14 1 -23 10t-9 23q0 22 21 30q34 12 60 27.5t45 31t32.5 30.5t22.5 27q5 7 13.5 9.5t16.5 -1.5q15 -7 15 -23v-109l75 -1q12 0 20 -8
t8 -19q0 -12 -8.5 -20t-19.5 -8l-75 1v-319q0 -27 11.5 -44t36.5 -17q11 0 19.5 3t15.5 8q8 5 17 4.5t16 -7.5v-1zM312 -72q13 0 17.5 -11.5t-4.5 -19.5l-134 -134q-14 -14 -35 -14h-59q-11 0 -16.5 8t-0.5 18l53 124q13 29 44 29h135z" />
    <glyph glyph-name="Tcaron" unicode="&#x164;" horiz-adv-x="656" 
d="M596 725q13 0 21.5 -9t8.5 -21v-170q0 -11 -7 -18t-18 -7q-13 0 -21 11l-57 87q-14 22 -37 34.5t-49 12.5h-24v-553l38 -45q7 -9 7 -18q0 -11 -8.5 -19.5t-19.5 -8.5h-204q-11 0 -19.5 8.5t-8.5 19.5q0 9 7 18l38 45v553h-24q-26 0 -49 -12.5t-37 -34.5l-57 -87
q-8 -11 -21 -11q-11 0 -18 7t-7 18v170q0 12 9 21t21 9h536v0zM515 990q9 0 13 -8t-1 -16l-124 -166q-10 -12 -24 -12h-102q-14 0 -24 12l-123 166q-6 8 -2 16t14 8h88q15 0 25 -13l73 -107l74 107q8 13 24 13h89v0z" />
    <glyph glyph-name="tcaron" unicode="&#x165;" horiz-adv-x="630" 
d="M373 96q7 -8 7 -18t-8 -17q-10 -10 -26 -22t-37 -22.5t-47 -18t-57 -7.5q-21 0 -42.5 8t-38.5 23.5t-27.5 39t-10.5 54.5v353h-24q-13 1 -22.5 10t-9.5 23q0 10 6 18t15 12q68 25 105.5 58.5t54.5 57.5q5 7 14 9.5t17 -1.5q14 -6 14 -23v-109l76 -1q11 0 19 -8t8 -19
q0 -12 -8 -20t-19 -8l-76 1v-319q0 -27 12 -44t37 -17q10 0 18.5 3t15.5 8q8 5 17.5 4.5t15.5 -7.5zM480 765q39 0 66.5 -27t27.5 -66v-2q0 -40 -12 -74t-28.5 -61.5t-35 -48.5t-33.5 -34q-10 -9 -23.5 -8.5t-21.5 11.5q-9 10 -8.5 23t10.5 22q5 5 11 10.5t12 12.5
q15 16 12 37.5t-22 32.5q-21 12 -33.5 33.5t-12.5 47.5q1 38 27.5 64t63.5 27z" />
    <glyph glyph-name="Tbar" unicode="&#x166;" horiz-adv-x="656" 
d="M596 725q13 0 21.5 -9t8.5 -21v-170q0 -11 -7 -18t-18 -7q-13 0 -21 11l-57 87q-14 22 -37 34.5t-49 12.5h-24v-553l38 -45q7 -9 7 -18q0 -11 -8.5 -19.5t-19.5 -8.5h-204q-11 0 -19.5 8.5t-8.5 19.5q0 9 7 18l38 45v553h-24q-26 0 -49 -12.5t-37 -34.5l-57 -87
q-8 -11 -21 -11q-11 0 -18 7t-7 18v170q0 12 9 21t21 9h536v0zM480 474q8 0 13 -5.5t5 -13.5v-52q0 -8 -5 -13.5t-13 -5.5h-303q-8 0 -13.5 5.5t-5.5 13.5v52q0 8 5.5 13.5t13.5 5.5h303v0z" />
    <glyph glyph-name="tbar" unicode="&#x167;" horiz-adv-x="410" 
d="M373 96q7 -8 7 -18t-8 -17q-10 -10 -26 -22t-37 -22.5t-47 -18t-57 -7.5q-21 0 -42.5 8t-38.5 23.5t-27.5 39t-10.5 54.5v353h-24q-13 1 -22.5 10t-9.5 23q0 10 6 18t15 12q68 25 105.5 58.5t54.5 57.5q5 7 14 9.5t17 -1.5q14 -6 14 -23v-109l76 -1q11 0 19 -8t8 -19
q0 -12 -8 -20t-19 -8l-76 1v-319q0 -27 12 -44t37 -17q10 0 18.5 3t15.5 8q8 5 17.5 4.5t15.5 -7.5zM357 411q8 0 13 -5.5t5 -13.5v-52q0 -8 -5 -13.5t-13 -5.5h-303q-8 0 -13.5 5.5t-5.5 13.5v52q0 8 5.5 13.5t13.5 5.5h303v0z" />
    <glyph glyph-name="Utilde" unicode="&#x168;" 
d="M658 725q12 0 20 -8.5t8 -19.5t-6 -18l-38 -46v-371q0 -60 -16 -110t-49.5 -85.5t-86.5 -55.5t-126 -20q-74 0 -128.5 19.5t-90.5 54.5t-53.5 83t-17.5 104v381l-38 46q-6 7 -6 18t8 19.5t20 8.5h203q12 0 20 -8.5t8 -19.5t-7 -18l-38 -46v-401q0 -69 39.5 -111
t114.5 -42t114.5 42t39.5 111v401l-38 46q-7 7 -7 18t8.5 19.5t19.5 8.5h123v0zM455 973q28 0 49 -16.5t35.5 -40t23.5 -48.5t13 -43q3 -10 -1.5 -18.5t-13.5 -12.5q-8 -4 -17 -2.5t-15 9.5q-14 16 -37 31.5t-49 15.5q-25 0 -45.5 -10.5t-41.5 -23.5t-44 -23.5t-52 -10.5
q-27 0 -47 15t-35 37t-24.5 46t-14.5 41q-3 11 1.5 21.5t14.5 15.5h1q10 5 20.5 2.5t17.5 -10.5q12 -16 33 -32.5t49 -16.5q23 0 43 11.5t40.5 25.5t43.5 25.5t52 11.5z" />
    <glyph glyph-name="utilde" unicode="&#x169;" horiz-adv-x="622" 
d="M580 90q10 -10 11 -22q1 -11 -5.5 -20.5t-17.5 -13.5l-143 -43q-18 -5 -32 5q-17 12 -17 31v28q-23 -26 -54 -45t-71 -19q-27 0 -58 9.5t-57.5 32.5t-43.5 63t-17 101v235l-38 45q-7 9 -7 18q0 11 8.5 19.5t19.5 8.5h157q13 0 21.5 -8.5t8.5 -21.5v-276q0 -45 2.5 -74.5
t9.5 -47.5t17.5 -25.5t27.5 -7.5q21 0 40 16.5t34 38.5v315l-38 45q-6 7 -6 18t8 19.5t20 8.5h156q13 0 21.5 -8.5t8.5 -21.5v-374l34 -29v0zM408 773q28 0 49 -16.5t35.5 -40t23.5 -48.5t13 -43q3 -10 -1.5 -18.5t-13.5 -12.5q-8 -4 -17 -2.5t-15 9.5q-14 16 -37 31.5
t-49 15.5q-25 0 -45.5 -10.5t-41.5 -23.5t-44 -23.5t-52 -10.5q-27 0 -47 15t-35 37t-24.5 46t-14.5 41q-3 11 1.5 21.5t14.5 15.5h1q10 5 20.5 2.5t17.5 -10.5q12 -16 33 -32.5t49 -16.5q23 0 43 11.5t40.5 25.5t43.5 25.5t52 11.5z" />
    <glyph glyph-name="Umacron" unicode="&#x16a;" 
d="M658 725q12 0 20 -8.5t8 -19.5t-6 -18l-38 -46v-371q0 -60 -16 -110t-49.5 -85.5t-86.5 -55.5t-126 -20q-74 0 -128.5 19.5t-90.5 54.5t-53.5 83t-17.5 104v381l-38 46q-6 7 -6 18t8 19.5t20 8.5h203q12 0 20 -8.5t8 -19.5t-7 -18l-38 -46v-401q0 -69 39.5 -111
t114.5 -42t114.5 42t39.5 111v401l-38 46q-7 7 -7 18t8.5 19.5t19.5 8.5h123v0zM510 878q8 0 13 -5.5t5 -13.5v-52q0 -8 -5 -13.5t-13 -5.5h-303q-8 0 -13.5 5.5t-5.5 13.5v52q0 8 5.5 13.5t13.5 5.5h303v0z" />
    <glyph glyph-name="umacron" unicode="&#x16b;" horiz-adv-x="622" 
d="M580 90q10 -10 11 -22q1 -11 -5.5 -20.5t-17.5 -13.5l-143 -43q-18 -5 -32 5q-17 12 -17 31v28q-23 -26 -54 -45t-71 -19q-27 0 -58 9.5t-57.5 32.5t-43.5 63t-17 101v235l-38 45q-7 9 -7 18q0 11 8.5 19.5t19.5 8.5h157q13 0 21.5 -8.5t8.5 -21.5v-276q0 -45 2.5 -74.5
t9.5 -47.5t17.5 -25.5t27.5 -7.5q21 0 40 16.5t34 38.5v315l-38 45q-6 7 -6 18t8 19.5t20 8.5h156q13 0 21.5 -8.5t8.5 -21.5v-374l34 -29v0zM463 678q8 0 13 -5.5t5 -13.5v-52q0 -8 -5 -13.5t-13 -5.5h-303q-8 0 -13.5 5.5t-5.5 13.5v52q0 8 5.5 13.5t13.5 5.5h303v0z" />
    <glyph glyph-name="Ubreve" unicode="&#x16c;" 
d="M658 725q12 0 20 -8.5t8 -19.5t-6 -18l-38 -46v-371q0 -60 -16 -110t-49.5 -85.5t-86.5 -55.5t-126 -20q-74 0 -128.5 19.5t-90.5 54.5t-53.5 83t-17.5 104v381l-38 46q-6 7 -6 18t8 19.5t20 8.5h203q12 0 20 -8.5t8 -19.5t-7 -18l-38 -46v-401q0 -69 39.5 -111
t114.5 -42t114.5 42t39.5 111v401l-38 46q-7 7 -7 18t8.5 19.5t19.5 8.5h123v0zM559 990q9 0 15 -6.5t5 -15.5q-3 -38 -19 -70.5t-43.5 -57t-67.5 -38.5t-91 -14q-52 0 -92 14t-67.5 38.5t-43.5 57t-19 70.5q-1 9 5 15.5t15 6.5h82q8 0 13 -5t7 -13q4 -34 27.5 -57.5
t72.5 -23.5q48 0 71.5 23.5t28.5 57.5q1 8 6 13t13 5h82v0z" />
    <glyph glyph-name="ubreve" unicode="&#x16d;" horiz-adv-x="622" 
d="M580 90q10 -10 11 -22q1 -11 -5.5 -20.5t-17.5 -13.5l-143 -43q-18 -5 -32 5q-17 12 -17 31v28q-23 -26 -54 -45t-71 -19q-27 0 -58 9.5t-57.5 32.5t-43.5 63t-17 101v235l-38 45q-7 9 -7 18q0 11 8.5 19.5t19.5 8.5h157q13 0 21.5 -8.5t8.5 -21.5v-276q0 -45 2.5 -74.5
t9.5 -47.5t17.5 -25.5t27.5 -7.5q21 0 40 16.5t34 38.5v315l-38 45q-6 7 -6 18t8 19.5t20 8.5h156q13 0 21.5 -8.5t8.5 -21.5v-374l34 -29v0zM512 790q9 0 15 -6.5t5 -15.5q-3 -38 -19 -70.5t-43.5 -57t-67.5 -38.5t-91 -14q-52 0 -92 14t-67.5 38.5t-43.5 57t-19 70.5
q-1 9 5 15.5t15 6.5h82q8 0 13 -5t7 -13q4 -34 27.5 -57.5t72.5 -23.5q48 0 71.5 23.5t28.5 57.5q1 8 6 13t13 5h82v0z" />
    <glyph glyph-name="Uring" unicode="&#x16e;" 
d="M658 725q12 0 20 -8.5t8 -19.5t-6 -18l-38 -46v-371q0 -60 -16 -110t-49.5 -85.5t-86.5 -55.5t-126 -20q-74 0 -128.5 19.5t-90.5 54.5t-53.5 83t-17.5 104v381l-38 46q-6 7 -6 18t8 19.5t20 8.5h203q12 0 20 -8.5t8 -19.5t-7 -18l-38 -46v-401q0 -69 39.5 -111
t114.5 -42t114.5 42t39.5 111v401l-38 46q-7 7 -7 18t8.5 19.5t19.5 8.5h123v0zM402 1025q24 0 45.5 -9.5t37.5 -25.5t25.5 -37.5t9.5 -45.5q0 -25 -9.5 -46.5t-25.5 -37.5t-37.5 -25.5t-45.5 -9.5t-45.5 9.5t-37.5 25.5t-25.5 37.5t-9.5 46.5q0 24 9.5 45.5t25.5 37.5
t37.5 25.5t45.5 9.5zM402 857q16 0 26.5 14.5t10.5 35.5q0 20 -10.5 34.5t-26.5 14.5t-26.5 -14.5t-10.5 -34.5q0 -21 10.5 -35.5t26.5 -14.5z" />
    <glyph glyph-name="uring" unicode="&#x16f;" horiz-adv-x="622" 
d="M580 90q10 -10 11 -22q1 -11 -5.5 -20.5t-17.5 -13.5l-143 -43q-18 -5 -32 5q-17 12 -17 31v28q-23 -26 -54 -45t-71 -19q-27 0 -58 9.5t-57.5 32.5t-43.5 63t-17 101v235l-38 45q-7 9 -7 18q0 11 8.5 19.5t19.5 8.5h157q13 0 21.5 -8.5t8.5 -21.5v-276q0 -45 2.5 -74.5
t9.5 -47.5t17.5 -25.5t27.5 -7.5q21 0 40 16.5t34 38.5v315l-38 45q-6 7 -6 18t8 19.5t20 8.5h156q13 0 21.5 -8.5t8.5 -21.5v-374l34 -29v0zM311 825q24 0 45.5 -9.5t37.5 -25.5t25.5 -37.5t9.5 -45.5q0 -25 -9.5 -46.5t-25.5 -37.5t-37.5 -25.5t-45.5 -9.5t-45.5 9.5
t-37.5 25.5t-25.5 37.5t-9.5 46.5q0 24 9.5 45.5t25.5 37.5t37.5 25.5t45.5 9.5zM311 657q16 0 26.5 14.5t10.5 35.5q0 20 -10.5 34.5t-26.5 14.5t-26.5 -14.5t-10.5 -34.5q0 -21 10.5 -35.5t26.5 -14.5z" />
    <glyph glyph-name="Uhungarumlaut" unicode="&#x170;" 
d="M658 725q12 0 20 -8.5t8 -19.5t-6 -18l-38 -46v-371q0 -60 -16 -110t-49.5 -85.5t-86.5 -55.5t-126 -20q-74 0 -128.5 19.5t-90.5 54.5t-53.5 83t-17.5 104v381l-38 46q-6 7 -6 18t8 19.5t20 8.5h203q12 0 20 -8.5t8 -19.5t-7 -18l-38 -46v-401q0 -69 39.5 -111
t114.5 -42t114.5 42t39.5 111v401l-38 46q-7 7 -7 18t8.5 19.5t19.5 8.5h123v0zM416 968q12 0 16.5 -11.5t-3.5 -20.5l-135 -134q-14 -14 -34 -14h-60q-10 0 -15.5 8.5t-1.5 17.5l53 124q6 14 18.5 22t26.5 8h135zM670 968q12 0 16.5 -11.5t-3.5 -20.5l-135 -134
q-14 -14 -34 -14h-60q-10 0 -15.5 8.5t-1.5 17.5l53 124q6 14 18.5 22t26.5 8h135z" />
    <glyph glyph-name="uhungarumlaut" unicode="&#x171;" horiz-adv-x="622" 
d="M580 90q10 -10 11 -22q1 -11 -5.5 -20.5t-17.5 -13.5l-143 -43q-18 -5 -32 5q-17 12 -17 31v28q-23 -26 -54 -45t-71 -19q-27 0 -58 9.5t-57.5 32.5t-43.5 63t-17 101v235l-38 45q-7 9 -7 18q0 11 8.5 19.5t19.5 8.5h157q13 0 21.5 -8.5t8.5 -21.5v-276q0 -45 2.5 -74.5
t9.5 -47.5t17.5 -25.5t27.5 -7.5q21 0 40 16.5t34 38.5v315l-38 45q-6 7 -6 18t8 19.5t20 8.5h156q13 0 21.5 -8.5t8.5 -21.5v-374l34 -29v0zM347 768q12 0 16.5 -11.5t-3.5 -20.5l-135 -134q-14 -14 -34 -14h-60q-10 0 -15.5 8.5t-1.5 17.5l53 124q6 14 18.5 22t26.5 8h135
zM601 768q12 0 16.5 -11.5t-3.5 -20.5l-135 -134q-14 -14 -34 -14h-60q-10 0 -15.5 8.5t-1.5 17.5l53 124q6 14 18.5 22t26.5 8h135z" />
    <glyph glyph-name="Uogonek" unicode="&#x172;" 
d="M658 725q12 0 20 -8.5t8 -19.5t-6 -18l-38 -46v-371q0 -60 -16 -110t-49.5 -85.5t-86.5 -55.5t-126 -20q-74 0 -128.5 19.5t-90.5 54.5t-53.5 83t-17.5 104v381l-38 46q-6 7 -6 18t8 19.5t20 8.5h203q12 0 20 -8.5t8 -19.5t-7 -18l-38 -46v-401q0 -69 39.5 -111
t114.5 -42t114.5 42t39.5 111v401l-38 46q-7 7 -7 18t8.5 19.5t19.5 8.5h123v0zM436 4q-32 -25 -58 -54q-22 -25 -40 -58.5t-18 -71.5q0 -41 21 -62t71 -23q6 0 10 -4.5t4 -10.5v-38q0 -6 -4.5 -10.5t-10.5 -4.5q-75 1 -119 14t-67 32.5t-29.5 43.5t-6.5 48q0 26 9.5 50
t24.5 45.5t34.5 40.5t40.5 34q48 36 110 65l28 -36v0z" />
    <glyph glyph-name="uogonek" unicode="&#x173;" horiz-adv-x="622" 
d="M580 90q10 -10 11 -22q1 -11 -5.5 -20.5t-17.5 -13.5l-143 -43q-18 -5 -32 5q-17 12 -17 31v28q-23 -26 -54 -45t-71 -19q-27 0 -58 9.5t-57.5 32.5t-43.5 63t-17 101v235l-38 45q-7 9 -7 18q0 11 8.5 19.5t19.5 8.5h157q13 0 21.5 -8.5t8.5 -21.5v-276q0 -45 2.5 -74.5
t9.5 -47.5t17.5 -25.5t27.5 -7.5q21 0 40 16.5t34 38.5v315l-38 45q-6 7 -6 18t8 19.5t20 8.5h156q13 0 21.5 -8.5t8.5 -21.5v-374l34 -29v0zM561 48q-32 -25 -58 -54q-22 -25 -40 -58.5t-18 -71.5q0 -41 21 -62t71 -23q6 0 10 -4.5t4 -10.5v-38q0 -6 -4.5 -10.5t-10.5 -4.5
q-75 1 -119 14t-67 32.5t-29.5 43.5t-6.5 48q0 26 9.5 50t24.5 45.5t34.5 40.5t40.5 34q48 36 110 65l28 -36v0z" />
    <glyph glyph-name="Wcircumflex" unicode="&#x174;" horiz-adv-x="1198" 
d="M1161 725q11 0 19 -8t8 -19v-1q0 -11 -7 -18l-69 -72l-260 -603q-10 -23 -35 -23t-35 23l-183 426l-183 -426q-10 -23 -35 -23t-35 23l-259 603l-69 71q-8 10 -8 19q0 11 8 19.5t19 8.5h275q11 0 19 -8t8 -19q0 -12 -8 -20l-54 -52l149 -365l122 289l-25 57l-69 71
q-8 10 -8 19q0 11 8 19.5t19 8.5h276q11 0 19 -8t8 -19q0 -13 -9 -20l-54 -52l149 -365l154 366l-53 51q-8 8 -8 20q0 11 8 19t19 8h179v0zM798 812q5 -8 1 -16t-13 -8h-89q-16 0 -24 13l-74 107l-73 -107q-10 -13 -25 -13h-88q-10 0 -14 8t2 16l123 166q10 12 24 12h102
q14 0 24 -12z" />
    <glyph glyph-name="wcircumflex" unicode="&#x175;" horiz-adv-x="920" 
d="M883 523q11 0 19 -8t8 -19t-8 -19l-46 -45l-109 -365q-11 -38 -43 -62t-72 -24q-41 0 -73 24t-43 63l-56 193l-56 -193q-11 -39 -43 -63t-73 -24q-40 0 -72 24t-43 62l-109 365l-46 45q-8 8 -8 19t8 19t19 8h214q12 0 20.5 -8.5t8.5 -20.5q0 -10 -6 -17l-32 -45l83 -302
q2 -8 10 -8t10 8l75 258l-62 89q-5 8 -5 17q0 12 8.5 20.5t20.5 8.5h212q12 0 20 -8.5t8 -20.5q0 -11 -5 -17l-32 -45l83 -302q2 -8 9.5 -8t9.5 8l92 311l-32 36q-7 9 -7 18q0 12 8.5 20t19.5 8h115v0zM659 612q5 -8 1 -16t-13 -8h-89q-16 0 -24 13l-74 107l-73 -107
q-10 -13 -25 -13h-88q-10 0 -14 8t2 16l123 166q10 12 24 12h102q14 0 24 -12z" />
    <glyph glyph-name="Ycircumflex" unicode="&#x176;" horiz-adv-x="722" 
d="M687 725q11 0 18 -7.5t7 -18.5q0 -12 -10 -20l-75 -53l-172 -279v-255l38 -45q7 -7 7 -18t-8.5 -19.5t-19.5 -8.5h-203q-12 0 -20 8.5t-8 19.5q0 10 6 18l38 45v225l-190 309l-74 53q-11 8 -11 20q0 11 7.5 18.5t18.5 7.5h297q11 0 19 -8t8 -19q0 -13 -9 -20l-44 -43
l107 -186l116 188l-43 41q-8 8 -8 20q0 11 8 19t19 8h181v0zM560 812q5 -8 1 -16t-13 -8h-89q-16 0 -24 13l-74 107l-73 -107q-10 -13 -25 -13h-88q-10 0 -14 8t2 16l123 166q10 12 24 12h102q14 0 24 -12z" />
    <glyph glyph-name="ycircumflex" unicode="&#x177;" horiz-adv-x="618" 
d="M581 523q11 0 19 -8t8 -19t-8 -19l-45 -45l-220 -485q-15 -35 -37 -68t-50.5 -59.5t-64.5 -42.5t-80 -16q-35 -1 -62.5 19t-35.5 52q-5 19 -1 37.5t14.5 34t27 27t36.5 16.5q9 2 14.5 2h22.5q26 0 46.5 -6t37 -8t29.5 4.5t24 31.5l14 30l-195 431l-45 45q-8 7 -8 19
q0 11 8 19t19 8h233q12 0 20.5 -8.5t8.5 -20.5q0 -9 -5 -17l-33 -45l85 -195q2 -6 8.5 -6t9.5 6l92 204l-32 36q-9 9 -7 22q2 11 9.5 17.5t18.5 6.5h124v0zM549 612q5 -8 1 -16t-13 -8h-89q-16 0 -24 13l-74 107l-73 -107q-10 -13 -25 -13h-88q-10 0 -14 8t2 16l123 166
q10 12 24 12h102q14 0 24 -12z" />
    <glyph glyph-name="Ydieresis" unicode="&#x178;" horiz-adv-x="722" 
d="M687 725q11 0 18 -7.5t7 -18.5q0 -12 -10 -20l-75 -53l-172 -279v-255l38 -45q7 -7 7 -18t-8.5 -19.5t-19.5 -8.5h-203q-12 0 -20 8.5t-8 19.5q0 10 6 18l38 45v225l-190 309l-74 53q-11 8 -11 20q0 11 7.5 18.5t18.5 7.5h297q11 0 19 -8t8 -19q0 -13 -9 -20l-44 -43
l107 -186l116 188l-43 41q-8 8 -8 20q0 11 8 19t19 8h181v0zM334 870q0 -34 -24 -58t-58 -24t-58 24t-24 58q0 35 24 59t58 24t58 -24t24 -59zM469 953q34 0 58 -24t24 -59q0 -34 -24 -58t-58 -24q-35 0 -58.5 24t-23.5 58q0 35 23.5 59t58.5 24z" />
    <glyph glyph-name="Zacute" unicode="&#x179;" horiz-adv-x="619" 
d="M240 96q-3 -5 0 -10t8 -5h88q57 0 105.5 26t79.5 74l22 33q9 12 21 12q11 0 18 -7.5t7 -17.5v-170q0 -13 -9 -21.5t-21 -8.5h-467q-26 0 -44 18t-18 44q0 16 10 33l339 533q3 5 0 10.5t-8 5.5h-63q-56 0 -104.5 -26.5t-79.5 -73.5l-23 -34q-6 -11 -20 -11q-11 0 -18 7
t-7 18v170q0 12 8.5 21t21.5 9h441q26 0 44 -18t18 -44q0 -17 -10 -34zM533 968q12 0 16.5 -11.5t-3.5 -20.5l-135 -134q-14 -14 -34 -14h-60q-10 0 -15.5 8.5t-1.5 17.5l53 124q6 14 18.5 22t26.5 8h135v0z" />
    <glyph glyph-name="zacute" unicode="&#x17a;" horiz-adv-x="491" 
d="M461 479q0 -12 -4 -20l-209 -403h5q38 0 72 15t60 43l31 33q6 8 18 8q11 0 19 -8t7 -19l-7 -99q-1 -12 -9.5 -20t-20.5 -8h-349q-18 0 -31 13t-13 31q0 10 5 20l208 402q-69 -6 -117 -57l-30 -33q-8 -8 -19 -8t-18.5 8t-6.5 19l6 99q1 12 9.5 20t20.5 8h183h146
q19 0 31.5 -13t12.5 -31zM460 768q12 0 16.5 -11.5t-3.5 -20.5l-135 -134q-14 -14 -34 -14h-60q-10 0 -15.5 8.5t-1.5 17.5l53 124q6 14 18.5 22t26.5 8h135v0z" />
    <glyph glyph-name="Zdotaccent" unicode="&#x17b;" horiz-adv-x="619" 
d="M240 96q-3 -5 0 -10t8 -5h88q57 0 105.5 26t79.5 74l22 33q9 12 21 12q11 0 18 -7.5t7 -17.5v-170q0 -13 -9 -21.5t-21 -8.5h-467q-26 0 -44 18t-18 44q0 16 10 33l339 533q3 5 0 10.5t-8 5.5h-63q-56 0 -104.5 -26.5t-79.5 -73.5l-23 -34q-6 -11 -20 -11q-11 0 -18 7
t-7 18v170q0 12 8.5 21t21.5 9h441q26 0 44 -18t18 -44q0 -17 -10 -34zM348 788q-21 0 -39 8t-31.5 21.5t-21.5 32t-8 39.5t8 39.5t21.5 32t31.5 21.5t39 8t39.5 -8t32 -21.5t21.5 -32t8 -39.5t-8 -39.5t-21.5 -32t-32 -21.5t-39.5 -8z" />
    <glyph glyph-name="zdotaccent" unicode="&#x17c;" horiz-adv-x="491" 
d="M461 479q0 -12 -4 -20l-209 -403h5q38 0 72 15t60 43l31 33q6 8 18 8q11 0 19 -8t7 -19l-7 -99q-1 -12 -9.5 -20t-20.5 -8h-349q-18 0 -31 13t-13 31q0 10 5 20l208 402q-69 -6 -117 -57l-30 -33q-8 -8 -19 -8t-18.5 8t-6.5 19l6 99q1 12 9.5 20t20.5 8h183h146
q19 0 31.5 -13t12.5 -31zM287 588q-21 0 -39 8t-31.5 21.5t-21.5 32t-8 39.5t8 39.5t21.5 32t31.5 21.5t39 8t39.5 -8t32 -21.5t21.5 -32t8 -39.5t-8 -39.5t-21.5 -32t-32 -21.5t-39.5 -8z" />
    <glyph glyph-name="Zcaron" unicode="&#x17d;" horiz-adv-x="619" 
d="M240 96q-3 -5 0 -10t8 -5h88q57 0 105.5 26t79.5 74l22 33q9 12 21 12q11 0 18 -7.5t7 -17.5v-170q0 -13 -9 -21.5t-21 -8.5h-467q-26 0 -44 18t-18 44q0 16 10 33l339 533q3 5 0 10.5t-8 5.5h-63q-56 0 -104.5 -26.5t-79.5 -73.5l-23 -34q-6 -11 -20 -11q-11 0 -18 7
t-7 18v170q0 12 8.5 21t21.5 9h441q26 0 44 -18t18 -44q0 -17 -10 -34zM496 990q9 0 13 -8t-1 -16l-124 -166q-10 -12 -24 -12h-102q-14 0 -24 12l-123 166q-6 8 -2 16t14 8h88q15 0 25 -13l73 -107l74 107q8 13 24 13h89v0z" />
    <glyph glyph-name="zcaron" unicode="&#x17e;" horiz-adv-x="491" 
d="M461 479q0 -12 -4 -20l-209 -403h5q38 0 72 15t60 43l31 33q6 8 18 8q11 0 19 -8t7 -19l-7 -99q-1 -12 -9.5 -20t-20.5 -8h-349q-18 0 -31 13t-13 31q0 10 5 20l208 402q-69 -6 -117 -57l-30 -33q-8 -8 -19 -8t-18.5 8t-6.5 19l6 99q1 12 9.5 20t20.5 8h183h146
q19 0 31.5 -13t12.5 -31zM432 790q9 0 13 -8t-1 -16l-124 -166q-10 -12 -24 -12h-102q-14 0 -24 12l-123 166q-6 8 -2 16t14 8h88q15 0 25 -13l73 -107l74 107q8 13 24 13h89v0z" />
    <glyph glyph-name="florin" unicode="&#x192;" horiz-adv-x="676" 
d="M541 725q27 0 46.5 -11t33.5 -25q17 -19 14 -44t-25 -38q-12 -7 -24.5 -7.5t-23.5 4t-19.5 13.5t-11.5 22q-5 16 -14 27.5t-26 11.5q-23 0 -35 -13.5t-15 -30.5q-4 -27 5.5 -47t23.5 -33.5t27.5 -21t17.5 -8.5l70 -1q9 0 15 -7t4 -16l-2 -15q-1 -8 -6.5 -12.5t-13.5 -4.5
l-74 1l-62 -427q-9 -59 -30.5 -107t-56.5 -82t-83.5 -52t-109.5 -18q-44 0 -70.5 13.5t-42.5 32.5q-11 12 -12.5 27t4.5 27.5t18 21t29 8.5h2q20 0 34 -13t16 -33q2 -13 10 -22.5t29 -9.5q13 0 25.5 6.5t24.5 28.5t22.5 64t21.5 113l61 422l-69 1q-9 0 -15.5 6.5t-4.5 15.5
l2 15q2 8 7 13t13 5l75 -1q7 48 25 85t44 63t58.5 39.5t67.5 13.5z" />
    <glyph glyph-name="uni0218" unicode="&#x218;" horiz-adv-x="584" 
d="M209 572q0 -34 25.5 -57.5t64 -43.5t83 -40.5t83 -49t64 -68t25.5 -98.5q0 -62 -24 -104.5t-62 -69t-86 -38.5t-96 -12q-78 0 -131.5 17t-82.5 33q-14 8 -22.5 22t-8.5 31v139q0 9 6.5 16t16.5 7q14 0 21 -14q7 -16 23 -45t40 -57t55.5 -48.5t69.5 -20.5q49 0 75 22.5
t26 69.5q0 40 -25.5 66t-63.5 46.5t-83 40.5t-83 48t-63.5 68t-25.5 101q0 59 28.5 96.5t69 58.5t86 29t78.5 8q74 0 126 -14t81 -28q17 -7 26 -22t9 -32v-106q0 -10 -6.5 -16.5t-16.5 -6.5h-1q-13 0 -20 12q-7 13 -21.5 35.5t-38 44t-54.5 37.5t-71 16q-42 0 -69 -19.5
t-27 -53.5zM400 -72q13 0 17.5 -11.5t-4.5 -19.5l-134 -134q-14 -14 -34 -14h-60q-11 0 -16.5 8t-0.5 18l53 124q13 29 44 29h135z" />
    <glyph glyph-name="uni0219" unicode="&#x219;" horiz-adv-x="467" 
d="M204 426q0 -30 18 -49t45 -33t58.5 -27.5t58.5 -33.5t45 -50.5t18 -77.5q0 -39 -19.5 -69t-52.5 -51t-76 -31.5t-89 -10.5q-61 0 -101.5 10.5t-60.5 19.5q-18 7 -18 27v97q0 11 8.5 19.5t19.5 8.5q19 0 26 -19q5 -14 15 -34t25 -39t35.5 -32t47.5 -13q32 0 49 21.5
t17 50.5q0 30 -18 47.5t-45 31t-58.5 26.5t-58.5 32.5t-45 50t-18 78.5q0 38 17 66t46 46.5t66.5 27.5t79.5 9q57 0 102 -11t68 -19q9 -3 14.5 -11t5.5 -17v-78q0 -10 -7 -17t-17 -7q-14 0 -21 12q-6 11 -18.5 29t-29 34.5t-37 28.5t-43.5 12q-20 0 -36 -11.5t-16 -43.5z
M346 -72q13 0 17.5 -11.5t-4.5 -19.5l-134 -134q-14 -14 -34 -14h-60q-11 0 -16.5 8t-0.5 18l53 124q13 29 45 29h134z" />
    <glyph glyph-name="uni021A" unicode="&#x21a;" horiz-adv-x="656" 
d="M596 725q13 0 21.5 -9t8.5 -21v-170q0 -11 -7 -18t-17 -7q-15 0 -21 11l-57 87q-14 22 -37 34.5t-49 12.5h-25v-553l39 -45q6 -8 6 -18q0 -11 -8 -19.5t-20 -8.5h-203q-12 0 -20 8.5t-8 19.5q0 10 6 18l38 45v553h-24q-26 0 -49 -12.5t-37 -34.5l-57 -87q-6 -11 -21 -11
q-10 0 -17.5 7t-7.5 18v170q0 12 9 21t21 9h536zM436 -72q13 0 17.5 -11.5t-4.5 -19.5l-134 -134q-14 -14 -34 -14h-60q-11 0 -16.5 8t-0.5 18l53 124q13 29 45 29h134z" />
    <glyph glyph-name="uni021B" unicode="&#x21b;" horiz-adv-x="409" 
d="M372 96q7 -8 7 -18t-8 -17q-10 -10 -25.5 -22t-36.5 -22.5t-47 -18t-57 -7.5q-22 0 -43 8t-38 23.5t-27.5 39t-10.5 54.5v353h-24q-14 1 -23 10t-9 23q0 22 21 30q34 12 60 27.5t45 31t32.5 30.5t22.5 27q5 7 13.5 9.5t16.5 -1.5q15 -7 15 -23v-109l75 -1q12 0 20 -8
t8 -19q0 -12 -8.5 -20t-19.5 -8l-75 1v-319q0 -27 11.5 -44t36.5 -17q11 0 19.5 3t15.5 8q8 5 17 4.5t16 -7.5v-1zM312 -72q13 0 17.5 -11.5t-4.5 -19.5l-134 -134q-16 -14 -35 -14h-59q-11 0 -16.5 8t-1.5 18l54 124q5 14 17.5 21.5t26.5 7.5h135z" />
    <glyph glyph-name="circumflex" unicode="&#x2c6;" horiz-adv-x="484" 
d="M441 612q5 -8 1 -16t-13 -8h-89q-16 0 -24 13l-74 107l-73 -107q-10 -13 -25 -13h-88q-10 0 -14 8t2 16l123 166q10 12 24 12h102q14 0 24 -12z" />
    <glyph glyph-name="caron" unicode="&#x2c7;" horiz-adv-x="484" 
d="M429 790q9 0 13 -8t-1 -16l-124 -166q-10 -12 -24 -12h-102q-14 0 -24 12l-123 166q-6 8 -2 16t14 8h88q15 0 25 -13l73 -107l74 107q8 13 24 13h89v0z" />
    <glyph glyph-name="breve" unicode="&#x2d8;" horiz-adv-x="525" 
d="M464 790q9 0 15 -6.5t5 -15.5q-3 -38 -19 -70.5t-43.5 -57t-67.5 -38.5t-91 -14q-52 0 -92 14t-67.5 38.5t-43.5 57t-19 70.5q-1 9 5 15.5t15 6.5h82q8 0 13 -5t7 -13q4 -34 27.5 -57.5t72.5 -23.5q48 0 71.5 23.5t28.5 57.5q1 8 6 13t13 5h82v0z" />
    <glyph glyph-name="dotaccent" unicode="&#x2d9;" horiz-adv-x="281" 
d="M140 588q-21 0 -39 8t-31.5 21.5t-21.5 32t-8 39.5t8 39.5t21.5 32t31.5 21.5t39 8t39.5 -8t32 -21.5t21.5 -32t8 -39.5t-8 -39.5t-21.5 -32t-32 -21.5t-39.5 -8z" />
    <glyph glyph-name="ring" unicode="&#x2da;" horiz-adv-x="316" 
d="M158 825q24 0 45.5 -9.5t37.5 -25.5t25.5 -37.5t9.5 -45.5q0 -25 -9.5 -46.5t-25.5 -37.5t-37.5 -25.5t-45.5 -9.5t-45.5 9.5t-37.5 25.5t-25.5 37.5t-9.5 46.5q0 24 9.5 45.5t25.5 37.5t37.5 25.5t45.5 9.5zM158 657q16 0 26.5 14.5t10.5 35.5q0 20 -10.5 34.5
t-26.5 14.5t-26.5 -14.5t-10.5 -34.5q0 -21 10.5 -35.5t26.5 -14.5z" />
    <glyph glyph-name="ogonek" unicode="&#x2db;" horiz-adv-x="327" 
d="M287 4q-32 -25 -58 -54q-22 -25 -40 -58.5t-18 -71.5q0 -41 21 -62t71 -23q6 0 10 -4.5t4 -10.5v-38q0 -6 -4.5 -10.5t-10.5 -4.5q-75 1 -119 14t-67 32.5t-29.5 43.5t-6.5 48q0 26 9.5 50t24.5 45.5t34.5 40.5t40.5 34q48 36 110 65l28 -36v0z" />
    <glyph glyph-name="tilde" unicode="&#x2dc;" horiz-adv-x="521" 
d="M358 773q28 0 49 -16.5t35.5 -40t23.5 -48.5t13 -43q3 -10 -1.5 -18.5t-13.5 -12.5q-8 -4 -17 -2.5t-15 9.5q-14 16 -37 31.5t-49 15.5q-25 0 -45.5 -10.5t-41.5 -23.5t-44 -23.5t-52 -10.5q-27 0 -47 15t-35 37t-24.5 46t-14.5 41q-3 11 1.5 21.5t14.5 15.5h1
q10 5 20.5 2.5t17.5 -10.5q12 -16 33 -32.5t49 -16.5q23 0 43 11.5t40.5 25.5t43.5 25.5t52 11.5z" />
    <glyph glyph-name="hungarumlaut" unicode="&#x2dd;" horiz-adv-x="588" 
d="M275 768q12 0 16.5 -11.5t-3.5 -20.5l-135 -134q-14 -14 -34 -14h-60q-10 0 -15.5 8.5t-1.5 17.5l53 124q6 14 18.5 22t26.5 8h135zM529 768q12 0 16.5 -11.5t-3.5 -20.5l-135 -134q-14 -14 -34 -14h-60q-10 0 -15.5 8.5t-1.5 17.5l53 124q6 14 18.5 22t26.5 8h135z" />
    <glyph glyph-name="Wgrave" unicode="&#x1e80;" horiz-adv-x="1198" 
d="M1161 725q11 0 19 -8t8 -19v-1q0 -11 -7 -18l-69 -72l-260 -603q-10 -23 -35 -23t-35 23l-183 426l-183 -426q-10 -23 -35 -23t-35 23l-259 603l-69 71q-8 10 -8 19q0 11 8 19.5t19 8.5h275q11 0 19 -8t8 -19q0 -12 -8 -20l-54 -52l149 -365l122 289l-25 57l-69 71
q-8 10 -8 19q0 11 8 19.5t19 8.5h276q11 0 19 -8t8 -19q0 -13 -9 -20l-54 -52l149 -365l154 366l-53 51q-8 8 -8 20q0 11 8 19t19 8h179v0zM724 814q5 -9 -0.5 -17.5t-16.5 -8.5h-60q-20 0 -34 14l-134 134q-9 9 -4.5 20.5t17.5 11.5h134q15 0 27 -8t18 -22z" />
    <glyph glyph-name="wgrave" unicode="&#x1e81;" horiz-adv-x="920" 
d="M883 523q11 0 19 -8t8 -19t-8 -19l-46 -45l-109 -365q-11 -38 -43 -62t-72 -24q-41 0 -73 24t-43 63l-56 193l-56 -193q-11 -39 -43 -63t-73 -24q-40 0 -72 24t-43 62l-109 365l-46 45q-8 8 -8 19t8 19t19 8h214q12 0 20.5 -8.5t8.5 -20.5q0 -10 -6 -17l-32 -45l83 -302
q2 -8 10 -8t10 8l75 258l-62 89q-5 8 -5 17q0 12 8.5 20.5t20.5 8.5h212q12 0 20 -8.5t8 -20.5q0 -11 -5 -17l-32 -45l83 -302q2 -8 9.5 -8t9.5 8l92 311l-32 36q-7 9 -7 18q0 12 8.5 20t19.5 8h115v0zM585 614q5 -9 -0.5 -17.5t-16.5 -8.5h-60q-20 0 -34 14l-134 134
q-9 9 -4.5 20.5t17.5 11.5h134q15 0 27 -8t18 -22z" />
    <glyph glyph-name="Wacute" unicode="&#x1e82;" horiz-adv-x="1198" 
d="M1161 725q11 0 19 -8t8 -19v-1q0 -11 -7 -18l-69 -72l-260 -603q-10 -23 -35 -23t-35 23l-183 426l-183 -426q-10 -23 -35 -23t-35 23l-259 603l-69 71q-8 10 -8 19q0 11 8 19.5t19 8.5h275q11 0 19 -8t8 -19q0 -12 -8 -20l-54 -52l149 -365l122 289l-25 57l-69 71
q-8 10 -8 19q0 11 8 19.5t19 8.5h276q11 0 19 -8t8 -19q0 -13 -9 -20l-54 -52l149 -365l154 366l-53 51q-8 8 -8 20q0 11 8 19t19 8h179v0zM826 968q12 0 16.5 -11.5t-3.5 -20.5l-135 -134q-14 -14 -34 -14h-60q-10 0 -15.5 8.5t-1.5 17.5l53 124q6 14 18.5 22t26.5 8h135v0
z" />
    <glyph glyph-name="wacute" unicode="&#x1e83;" horiz-adv-x="920" 
d="M883 523q11 0 19 -8t8 -19t-8 -19l-46 -45l-109 -365q-11 -38 -43 -62t-72 -24q-41 0 -73 24t-43 63l-56 193l-56 -193q-11 -39 -43 -63t-73 -24q-40 0 -72 24t-43 62l-109 365l-46 45q-8 8 -8 19t8 19t19 8h214q12 0 20.5 -8.5t8.5 -20.5q0 -10 -6 -17l-32 -45l83 -302
q2 -8 10 -8t10 8l75 258l-62 89q-5 8 -5 17q0 12 8.5 20.5t20.5 8.5h212q12 0 20 -8.5t8 -20.5q0 -11 -5 -17l-32 -45l83 -302q2 -8 9.5 -8t9.5 8l92 311l-32 36q-7 9 -7 18q0 12 8.5 20t19.5 8h115v0zM651 768q12 0 16.5 -11.5t-3.5 -20.5l-135 -134q-14 -14 -34 -14h-60
q-10 0 -15.5 8.5t-1.5 17.5l53 124q6 14 18.5 22t26.5 8h135v0z" />
    <glyph glyph-name="Wdieresis" unicode="&#x1e84;" horiz-adv-x="1198" 
d="M1161 725q11 0 19 -8t8 -19v-1q0 -11 -7 -18l-69 -72l-260 -603q-10 -23 -35 -23t-35 23l-183 426l-183 -426q-10 -23 -35 -23t-35 23l-259 603l-69 71q-8 10 -8 19q0 11 8 19.5t19 8.5h275q11 0 19 -8t8 -19q0 -12 -8 -20l-54 -52l149 -365l122 289l-25 57l-69 71
q-8 10 -8 19q0 11 8 19.5t19 8.5h276q11 0 19 -8t8 -19q0 -13 -9 -20l-54 -52l149 -365l154 366l-53 51q-8 8 -8 20q0 11 8 19t19 8h179v0zM572 870q0 -34 -24 -58t-58 -24t-58 24t-24 58q0 35 24 59t58 24t58 -24t24 -59zM707 953q34 0 58 -24t24 -59q0 -34 -24 -58
t-58 -24q-35 0 -58.5 24t-23.5 58q0 35 23.5 59t58.5 24z" />
    <glyph glyph-name="wdieresis" unicode="&#x1e85;" horiz-adv-x="920" 
d="M883 523q11 0 19 -8t8 -19t-8 -19l-46 -45l-109 -365q-11 -38 -43 -62t-72 -24q-41 0 -73 24t-43 63l-56 193l-56 -193q-11 -39 -43 -63t-73 -24q-40 0 -72 24t-43 62l-109 365l-46 45q-8 8 -8 19t8 19t19 8h214q12 0 20.5 -8.5t8.5 -20.5q0 -10 -6 -17l-32 -45l83 -302
q2 -8 10 -8t10 8l75 258l-62 89q-5 8 -5 17q0 12 8.5 20.5t20.5 8.5h212q12 0 20 -8.5t8 -20.5q0 -11 -5 -17l-32 -45l83 -302q2 -8 9.5 -8t9.5 8l92 311l-32 36q-7 9 -7 18q0 12 8.5 20t19.5 8h115v0zM433 670q0 -34 -24 -58t-58 -24t-58 24t-24 58q0 35 24 59t58 24
t58 -24t24 -59zM568 753q34 0 58 -24t24 -59q0 -34 -24 -58t-58 -24q-35 0 -58.5 24t-23.5 58q0 35 23.5 59t58.5 24z" />
    <glyph glyph-name="endash" unicode="&#x2013;" horiz-adv-x="464" 
d="M394 422q13 0 21.5 -8.5t8.5 -21.5v-55q0 -12 -8.5 -21t-21.5 -9h-324q-13 0 -21.5 9t-8.5 21v55q0 13 8.5 21.5t21.5 8.5h324v0z" />
    <glyph glyph-name="emdash" unicode="&#x2014;" horiz-adv-x="515" 
d="M445 422q13 0 21.5 -8.5t8.5 -21.5v-55q0 -12 -8.5 -21t-21.5 -9h-375q-13 0 -21.5 9t-8.5 21v55q0 13 8.5 21.5t21.5 8.5h375v0z" />
    <glyph glyph-name="quoteleft" unicode="&#x2018;" horiz-adv-x="266" 
d="M180 616q20 -13 33 -34.5t12 -47.5q-1 -37 -27 -63t-64 -27q-19 0 -36 7t-30 19.5t-20.5 29.5t-7.5 36q0 2 1 3q0 40 12 74t28.5 61.5t35 48t32.5 33.5q10 9 23.5 8.5t22.5 -10.5q9 -11 8 -24t-11 -22q-5 -5 -11 -10.5t-12 -11.5q-14 -17 -11 -38t22 -32z" />
    <glyph glyph-name="quoteright" unicode="&#x2019;" horiz-adv-x="265" 
d="M131 765q39 0 66.5 -27t27.5 -66v-2q0 -40 -12 -74t-28.5 -61.5t-35 -48.5t-33.5 -34q-10 -9 -23.5 -8.5t-21.5 11.5q-9 10 -8.5 23t10.5 22q5 5 11 10.5t12 12.5q15 16 12 37.5t-22 32.5q-21 12 -33.5 33.5t-12.5 47.5q1 38 27.5 64t63.5 27z" />
    <glyph glyph-name="quotesinglbase" unicode="&#x201a;" horiz-adv-x="266" 
d="M132 176q39 0 66.5 -27t27.5 -66v-2q0 -40 -12 -74t-28.5 -61.5t-35 -48.5t-33.5 -34q-10 -9 -23.5 -8.5t-22.5 11.5q-8 10 -7.5 23t10.5 22q5 5 11 10.5t12 12.5q14 16 11 37.5t-22 32.5q-20 12 -33 33.5t-12 47.5q1 38 27.5 64t63.5 27z" />
    <glyph glyph-name="quotedblleft" unicode="&#x201c;" horiz-adv-x="484" 
d="M398 616q20 -13 33 -34.5t12 -47.5q-1 -37 -27 -63t-64 -27q-20 0 -37 7t-29.5 19.5t-20 29.5t-7.5 36v3q1 40 12.5 74t28.5 61.5t35.5 48t32.5 33.5q10 9 23.5 8.5t22.5 -10.5q9 -11 8 -24t-11 -22q-5 -5 -11 -10.5t-12 -11.5q-14 -17 -11 -38t22 -32zM179 616
q20 -13 33 -34.5t12 -47.5q-1 -37 -27 -63t-64 -27q-19 0 -36 7t-29.5 19.5t-20 29.5t-7.5 36v3q0 40 12 74t28.5 61.5t35 48t32.5 33.5q10 9 23.5 8.5t22.5 -10.5q9 -11 8 -24t-11 -22q-5 -5 -11 -10.5t-12 -11.5q-14 -17 -11 -38t22 -32z" />
    <glyph glyph-name="quotedblright" unicode="&#x201d;" horiz-adv-x="484" 
d="M131 765q39 0 66.5 -27t27.5 -66v-2q0 -40 -12 -74t-28.5 -61.5t-35 -48.5t-33.5 -34q-10 -9 -23 -8.5t-22 11.5q-9 10 -8.5 23t10.5 22q5 5 11 10.5t12 12.5q15 16 12 37.5t-22 32.5q-21 12 -33.5 33.5t-12.5 47.5q1 38 27.5 64t63.5 27zM350 765q39 0 66.5 -27
t27.5 -66v-2q0 -40 -12 -74t-28.5 -61.5t-35 -48.5t-33.5 -34q-10 -9 -23.5 -8.5t-21.5 11.5q-9 10 -8.5 23t10.5 22q5 5 11 10.5t12 12.5q14 16 11 37.5t-21 32.5q-21 12 -33.5 33.5t-12.5 47.5q1 38 27.5 64t63.5 27z" />
    <glyph glyph-name="quotedblbase" unicode="&#x201e;" horiz-adv-x="485" 
d="M132 176q39 0 66.5 -27t27.5 -66v-2q0 -40 -12 -74t-28.5 -61.5t-35 -48.5t-33.5 -34q-10 -9 -23.5 -8.5t-22.5 11.5q-8 10 -7.5 23t10.5 22q5 5 11 10.5t12 12.5q14 16 11 37.5t-21 32.5q-21 12 -34 33.5t-12 47.5q1 38 27.5 64t63.5 27zM351 176q39 0 66.5 -27
t27.5 -66v-2q-1 -40 -12.5 -74t-28.5 -61.5t-35.5 -48.5t-32.5 -34q-10 -9 -23.5 -8.5t-22.5 11.5q-9 10 -8 23t11 22q5 5 11 10.5t12 12.5q14 16 11 37.5t-22 32.5q-20 12 -33 33.5t-12 47.5q1 38 27 64t64 27z" />
    <glyph glyph-name="dagger" unicode="&#x2020;" horiz-adv-x="464" 
d="M247 828q11 0 18 -7t7 -18v-937q0 -11 -7 -18t-18 -7h-30q-11 0 -18 7t-7 18v937q0 11 7 18t18 7h30zM424 337q0 -12 -8.5 -21t-21.5 -9h-324q-12 0 -21 9t-9 21v55q0 13 9 21.5t21 8.5h324q13 0 21.5 -8.5t8.5 -21.5v-55z" />
    <glyph glyph-name="daggerdbl" unicode="&#x2021;" horiz-adv-x="531" 
d="M280 828q11 0 18 -7t7 -18v-937q0 -11 -7 -18t-18 -7h-30q-11 0 -18 7t-7 18v937q0 11 7 18t18 7h30zM471 603q8 0 14 -6t6 -14v-59q0 -8 -6 -14t-14 -6h-411q-8 0 -14 6t-6 14v59q0 8 6 14t14 6h411zM471 336q8 0 14 -6t6 -14v-59q0 -8 -6 -14t-14 -6h-411q-8 0 -14 6
t-6 14v59q0 8 6 14t14 6h411z" />
    <glyph glyph-name="bullet" unicode="&#x2022;" horiz-adv-x="378" 
d="M189 511q31 0 58 -11.5t47 -31.5t32 -47t12 -58t-12 -58t-32 -47.5t-47 -32t-58 -11.5t-58 11.5t-47.5 32t-32 47.5t-11.5 58t11.5 58t32 47t47.5 31.5t58 11.5z" />
    <glyph glyph-name="ellipsis" unicode="&#x2026;" horiz-adv-x="792" 
d="M132 176q19 0 36 -7.5t29.5 -20t19.5 -29.5t7 -36t-7 -36t-19.5 -29.5t-29.5 -19.5t-36 -7t-36 7t-29.5 19.5t-19.5 29.5t-7 36t7 36t19.5 29.5t29.5 20t36 7.5zM396 176q19 0 36 -7.5t29.5 -20t19.5 -29.5t7 -36t-7 -36t-19.5 -29.5t-29.5 -19.5t-36 -7t-36 7
t-29.5 19.5t-19.5 29.5t-7 36t7 36t19.5 29.5t29.5 20t36 7.5zM660 176q19 0 36 -7.5t29.5 -20t19.5 -29.5t7 -36t-7 -36t-19.5 -29.5t-29.5 -19.5t-36 -7t-36 7t-29.5 19.5t-19.5 29.5t-7 36t7 36t19.5 29.5t29.5 20t36 7.5z" />
    <glyph glyph-name="guilsinglleft" unicode="&#x2039;" horiz-adv-x="407" 
d="M351 573q10 0 14 -9t-3 -17l-200 -202l200 -202q7 -8 3 -17t-14 -9h-82q-12 0 -21 9l-202 205q-6 6 -6 14t6 14l202 205q9 9 21 9h82v0z" />
    <glyph glyph-name="guilsinglright" unicode="&#x203a;" horiz-adv-x="407" 
d="M361 359q6 -6 6 -14t-6 -14l-202 -205q-9 -9 -21 -9h-82q-10 0 -14 9t3 17l200 202l-200 202q-7 8 -3 17t14 9h82q12 0 21 -9z" />
    <glyph glyph-name="foursuperior" unicode="&#x2074;" horiz-adv-x="395" 
d="M338 505q7 0 12 -4.5t5 -11.5v-43q0 -7 -5 -12t-12 -5h-24v-47l20 -25q4 -4 4 -10t-4.5 -10.5t-10.5 -4.5h-111q-6 0 -10.5 4.5t-4.5 10.5q0 4 4 10l20 25v47h-144q-22 0 -32 20q-5 10 -4.5 21t7.5 19l174 223q9 12 26 12h49q7 0 12 -4.5t5 -11.5v-203h24zM221 647
l-109 -142h109v142z" />
    <glyph glyph-name="franc" unicode="&#x20a3;" horiz-adv-x="709" 
d="M639 725q12 0 21 -9t9 -21v-103q0 -11 -8.5 -19.5t-19.5 -8.5q-10 0 -19 7l-31 26q-56 48 -129 48h-138v-242h160l65 66q7 8 19 8q11 0 19 -7.5t8 -18.5v-176q0 -11 -8 -19t-19 -8t-19 8l-65 67h-160v-84h88q11 0 18 -7.5t7 -17.5v-31q0 -11 -7 -18t-18 -7h-88v-66
l38 -45q6 -8 6 -18q0 -11 -8 -19.5t-20 -8.5h-203q-12 0 -20 8.5t-8 19.5t7 18l38 45v66h-92q-10 0 -16 6.5t-6 15.5v36q0 10 6 16.5t16 6.5h92v394l-38 46q-7 7 -7 18t8 19.5t20 8.5h502v0z" />
    <glyph glyph-name="lira" unicode="&#x20a4;" horiz-adv-x="628" 
d="M561 166q11 0 19 -8t8 -19q0 -20 -4 -49t-17 -55.5t-39 -45.5t-69 -19q-36 0 -63.5 13.5t-54.5 29.5t-58.5 29.5t-77.5 13.5q-37 0 -58 -13.5t-31 -26.5q-13 -15 -31 -10q-12 4 -18 14.5t-2 22.5q5 16 14.5 37t24 40.5t34.5 34.5t47 20q10 10 17.5 23t11.5 30h-152
q-9 0 -15.5 6.5t-6.5 16.5v36q0 9 6.5 15.5t15.5 6.5h145q-6 19 -15 38t-19 38h-111q-9 0 -15.5 6.5t-6.5 15.5v36q0 10 6.5 16.5t15.5 6.5h74q-5 15 -8.5 29t-3.5 28q0 50 22 87.5t58 63t82 38.5t95 13q57 0 94.5 -13.5t59 -33.5t28 -43.5t2.5 -43.5t-17.5 -33.5
t-31.5 -13.5q-28 0 -44 16.5t-29.5 36.5t-28.5 36.5t-40 16.5q-30 0 -53 -27.5t-23 -85.5q0 -20 4.5 -37.5t12.5 -33.5h190q11 0 18 -7.5t7 -17.5v-31q0 -11 -7 -18t-18 -7h-153q6 -17 9.5 -35t3.5 -41h140q11 0 18 -7t7 -18v-31q0 -11 -7 -18t-18 -7h-167
q-12 -17 -28.5 -32t-34.5 -27q27 -6 50 -15t44.5 -17.5t43.5 -14.5t47 -6q38 0 54.5 12.5t22.5 23.5q3 7 9.5 10.5t14.5 3.5z" />
    <glyph glyph-name="peseta" unicode="&#x20a7;" horiz-adv-x="804" 
d="M739 542q11 0 18 -7t7 -18v-30q0 -11 -7 -18t-18 -7h-60q-8 -53 -34.5 -88.5t-66 -56.5t-89 -29.5t-102.5 -8.5h-50v-187l38 -45q6 -8 6 -18q0 -11 -8 -19.5t-20 -8.5h-203q-11 0 -19.5 8.5t-8.5 19.5t7 18l38 45v370h-105q-9 0 -15.5 6.5t-6.5 15.5v36q0 9 6.5 15.5
t15.5 6.5h105v91l-38 46q-7 7 -7 18t8.5 19.5t19.5 8.5h237q53 0 102.5 -8.5t89 -29.5t66 -56.5t34.5 -88.5h60zM337 542h162q-8 51 -41 77t-105 26h-16v-103zM353 359q72 0 105 26t41 77h-162v-87q0 -16 16 -16z" />
    <glyph glyph-name="Euro" unicode="&#x20ac;" horiz-adv-x="615" 
d="M407 642q-20 0 -35.5 -8t-27.5 -27t-20 -49.5t-12 -76.5h192q11 0 18 -7t7 -18v-30q0 -11 -7 -18t-18 -7h-196v-38v-38h196q11 0 18 -7.5t7 -17.5v-31q0 -11 -7 -18t-18 -7h-192q4 -46 12 -76.5t20 -49t27.5 -26.5t35.5 -8q26 0 40 14t21 32q8 23 29.5 32.5t43.5 0.5
l1 -1q25 -11 31 -36.5t-10 -46.5q-11 -14 -25.5 -28t-34 -25t-43.5 -18t-53 -7q-65 0 -112.5 18.5t-80 51.5t-52.5 77.5t-29 95.5h-71q-9 0 -15.5 6.5t-6.5 15.5v36q0 10 6.5 16.5t15.5 6.5h62q0 9 -0.5 18.5t-0.5 19.5t0.5 19t0.5 19h-62q-9 0 -15.5 6.5t-6.5 15.5v36
q0 10 6.5 16t15.5 6h71q9 52 29 96.5t52.5 77.5t80 51.5t112.5 18.5q29 0 53 -7t43.5 -18t34 -25t25.5 -28q8 -11 10.5 -23t-0.5 -24t-11 -22t-20 -15h-1q-22 -9 -43.5 0t-29.5 32q-7 18 -21 32.5t-40 14.5z" />
    <glyph glyph-name="uni20B9" unicode="&#x20b9;" horiz-adv-x="569" 
d="M518 46q11 -6 11 -20q0 -11 -7 -18t-17 -7h-152q-22 0 -36.5 3t-25 8.5t-17.5 12t-13 12.5q-8 7 -21.5 20.5t-30.5 30t-36 35.5l-38 38l-95 95v103q88 -3 124 28.5t40 95.5h-142q-9 0 -15.5 6.5t-6.5 15.5v36q0 9 6.5 15.5t15.5 6.5h135q-11 38 -40 58t-83 23h-12
q-3 0 -5 1h-1h-16v80h464q11 0 18 -7.5t7 -17.5v-31q0 -11 -7 -18t-18 -7h-167q29 -32 41 -81h126q11 0 18 -7t7 -18v-30q0 -11 -7 -18t-18 -7h-120q-3 -42 -16.5 -73.5t-35.5 -54.5t-51.5 -38t-63.5 -24q71 -61 132 -112q26 -22 52 -43.5t49 -40t41 -32t27 -19.5z" />
    <glyph glyph-name="servicemark" unicode="&#x2120;" horiz-adv-x="1105" 
d="M1034 661v-379l26 -32q5 -7 5 -13q0 -8 -6 -13.5t-14 -5.5h-142q-8 0 -14 5.5t-6 13.5q0 6 5 13l26 32v306l-168 -360q-5 -10 -16 -10q-12 0 -17 10l-162 347v-293l45 -32q10 -7 7 -18q-1 -6 -6 -10t-11 -4h-109q-8 0 -14 5.5t-6 13.5q0 6 5 13l26 32v379l-26 31
q-5 7 -5 13q0 8 6 13.5t14 5.5h125q12 0 22.5 -6.5t15.5 -17.5l132 -282l132 282q11 24 38 24h103q8 0 14 -5.5t6 -13.5q0 -6 -5 -13zM169 614q0 -25 18.5 -41.5t46.5 -31t60 -29.5t60 -35.5t46.5 -49.5t18.5 -71q0 -44 -17.5 -75t-45 -50t-62.5 -27.5t-69 -8.5
q-57 0 -96 12.5t-59 23.5q-11 5 -16.5 15.5t-5.5 22.5v100q0 7 4.5 12t11.5 5q12 0 15 -10q5 -12 16.5 -32.5t29 -41t40 -35.5t50.5 -15q35 0 54.5 16.5t19.5 50.5q0 29 -18.5 47.5t-46 33.5t-60 29.5t-60 34.5t-46 49t-18.5 73q0 42 20.5 69t50 42.5t62 21t56.5 5.5
q54 0 91.5 -10t58.5 -19q11 -5 18 -16t7 -24v-76q0 -7 -4.5 -12t-12.5 -5q-10 0 -15 9t-15.5 25.5t-27.5 32t-39.5 27t-51.5 11.5q-30 0 -49.5 -14t-19.5 -39z" />
    <glyph glyph-name="trademark" unicode="&#x2122;" horiz-adv-x="1144" 
d="M1073 661v-379l26 -32q5 -7 5 -13q0 -8 -6 -13.5t-14 -5.5h-142q-8 0 -14 5.5t-6 13.5q0 6 5 13l27 32v306l-168 -360q-5 -10 -17 -10t-17 10l-161 347v-293l45 -32q9 -7 7 -18q-4 -14 -18 -14h-109q-8 0 -14 5.5t-6 13.5q0 6 5 13l27 32v379l-27 31q-5 7 -5 13
q0 8 6 13.5t14 5.5h125q12 0 22.5 -6.5t15.5 -17.5l132 -282l132 282q5 11 15.5 17.5t22.5 6.5h103q8 0 14 -5.5t6 -13.5q0 -6 -5 -13zM437 724q8 0 14.5 -6t6.5 -15v-118q0 -8 -5 -13t-13 -5q-9 0 -14 8l-40 61q-22 32 -60 32h-17v-386l26 -32q5 -7 5 -13q0 -8 -6 -13.5
t-14 -5.5h-142q-8 0 -14 5.5t-6 13.5q0 6 5 13l27 32v386h-17q-39 0 -60 -32l-41 -61q-5 -8 -14 -8q-8 0 -13 5t-5 13v118q0 9 6.5 15t14.5 6h376z" />
    <glyph glyph-name="minus" unicode="&#x2212;" horiz-adv-x="570" 
d="M500 422q12 0 21 -8.5t9 -21.5v-55q0 -12 -9 -21t-21 -9h-430q-13 0 -21.5 9t-8.5 21v55q0 13 8.5 21.5t21.5 8.5h430v0z" />
    <glyph glyph-name="notequal" unicode="&#x2260;" horiz-adv-x="532" 
d="M321 404l-29 -68h180q8 0 14 -6t6 -14v-59q0 -8 -6 -14t-14 -6h-222l-96 -224q-5 -12 -18 -12h-32q-11 0 -17 9t-1 19l89 208h-115q-8 0 -14 6t-6 14v59q0 8 6 14t14 6h157l29 68h-186q-8 0 -14 6t-6 14v59q0 8 6 14t14 6h228l90 209q4 12 18 12h32q11 0 17 -8.5t1 -18.5
l-83 -194h109q8 0 14 -6t6 -14v-59q0 -8 -6 -14t-14 -6h-151z" />
    </font>
</defs>
</svg>
